<svg id="Layer_1" data-name="Layer 1" xmlns="http://www.w3.org/2000/svg" width="16" height="16" viewBox="0 0 16 16"><path d="M11.048,3H9.5a.5.5,0,0,0-.5.5v9a.5.5,0,0,0,.5.5h.006l1.521-.02A4.99,4.99,0,0,0,11.048,3Zm-.027,8.98L10,11.993V4h1.044a3.99,3.99,0,0,1-.023,7.98Z"/><path d="M5.232,7.475A2.621,2.621,0,0,0,3.379,3h-1a2.6,2.6,0,0,0-1.854.768l-.379.378a.5.5,0,0,0,.708.708l.378-.379A1.61,1.61,0,0,1,2.379,4h1A1.621,1.621,0,0,1,4.525,6.768L.854,10.439A2.935,2.935,0,0,0,0,12.5a.5.5,0,0,0,.5.5h5a.5.5,0,0,0,0-1H1.067a1.935,1.935,0,0,1,.494-.854Z"/></svg>