<svg id="Layer_1" data-name="Layer 1" xmlns="http://www.w3.org/2000/svg" width="16" height="16" viewBox="0 0 16 16"><path d="M11.048,3H9.5a.5.5,0,0,0-.5.5v9a.5.5,0,0,0,.5.5h.006l1.521-.02A4.99,4.99,0,0,0,11.048,3Zm-.027,8.98L10,11.993V4h1.044a3.99,3.99,0,0,1-.023,7.98Z"/><path d="M6,3.5A.5.5,0,0,0,5.5,3H.5a.5.5,0,0,0,0,1H4.933a1.935,1.935,0,0,1-.494.854L2.146,7.146A.5.5,0,0,0,2.5,8h.879A1.623,1.623,0,0,1,5,9.622v.757A1.623,1.623,0,0,1,3.379,12h-1a1.61,1.61,0,0,1-1.147-.475l-.378-.379a.5.5,0,0,0-.708.708l.379.378A2.6,2.6,0,0,0,2.379,13h1A2.624,2.624,0,0,0,6,10.379V9.622a2.625,2.625,0,0,0-2.311-2.6L5.146,5.561A2.935,2.935,0,0,0,6,3.5Z"/></svg>