<svg id="Layer_1" data-name="Layer 1" xmlns="http://www.w3.org/2000/svg" width="16" height="16" viewBox="0 0 16 16"><path d="M14,1H2A2,2,0,0,0,0,3V13a2,2,0,0,0,2,2H14a2,2,0,0,0,2-2V3A2,2,0,0,0,14,1Zm1,12a1,1,0,0,1-1,1H2a1,1,0,0,1-1-1V3A1,1,0,0,1,2,2H14a1,1,0,0,1,1,1Z"/><path d="M6.146,7.854a.5.5,0,0,0,.708-.708L5.707,6,6.854,4.854a.5.5,0,0,0-.708-.708L5,5.293,3.854,4.146a.5.5,0,0,0-.708.708L4.293,6,3.146,7.146a.5.5,0,0,0,.708.708L5,6.707Z"/><path d="M12.854,4.146a.5.5,0,0,0-.708,0L11,5.293,9.854,4.146a.5.5,0,0,0-.708.708L10.293,6,9.146,7.146a.5.5,0,0,0,.708.708L11,6.707l1.146,1.147a.5.5,0,0,0,.708-.708L11.707,6l1.147-1.146A.5.5,0,0,0,12.854,4.146Z"/><path d="M11.768,11.078a7.237,7.237,0,0,0-7.536,0,.5.5,0,0,0,.536.844,6.222,6.222,0,0,1,6.464,0,.5.5,0,1,0,.536-.844Z"/></svg>