<svg id="Layer_1" data-name="Layer 1" xmlns="http://www.w3.org/2000/svg" width="16" height="16" viewBox="0 0 16 16"><path d="M7.5,8H7V5.5a.5.5,0,0,0-1,0V8H4V5.468a.5.5,0,0,0-1,0V8.5a.5.5,0,0,0,.5.5H6v1.5a.5.5,0,0,0,1,0V9h.5a.5.5,0,0,0,0-1Z"/><path d="M12.85,5.143a.5.5,0,0,0-.707.007L10.105,7.229h0l0,0-.1.1V5.5a.5.5,0,0,0-1,0v5a.5.5,0,0,0,1,0V8.764l.349-.355L12.1,10.8a.5.5,0,0,0,.4.205.49.49,0,0,0,.295-.1.5.5,0,0,0,.108-.7l-1.845-2.52,1.8-1.835A.5.5,0,0,0,12.85,5.143Z"/><path d="M14,2H2A2,2,0,0,0,0,4v8a2,2,0,0,0,2,2H14a2,2,0,0,0,2-2V4A2,2,0,0,0,14,2Zm1,10a1,1,0,0,1-1,1H2a1,1,0,0,1-1-1V4A1,1,0,0,1,2,3H14a1,1,0,0,1,1,1Z"/></svg>