<svg id="Layer_1" data-name="Layer 1" xmlns="http://www.w3.org/2000/svg" width="16" height="16" viewBox="0 0 16 16"><path d="M15.5,0a.5.5,0,0,0-.5.5V4H10.949A2.491,2.491,0,0,0,6.5,3.015,2.491,2.491,0,0,0,2.051,4H1V.5a.5.5,0,0,0-1,0v15a.5.5,0,0,0,1,0V12H5.051a2.491,2.491,0,0,0,4.449.985A2.491,2.491,0,0,0,13.949,12H15v3.5a.5.5,0,0,0,1,0V.5A.5.5,0,0,0,15.5,0Zm-7,3A1.5,1.5,0,1,1,7,4.5,1.5,1.5,0,0,1,8.5,3Zm-4,0A1.5,1.5,0,1,1,3,4.5,1.5,1.5,0,0,1,4.5,3Zm3,10A1.5,1.5,0,1,1,9,11.5,1.5,1.5,0,0,1,7.5,13Zm4,0A1.5,1.5,0,1,1,13,11.5,1.5,1.5,0,0,1,11.5,13Zm2.449-2A2.491,2.491,0,0,0,9.5,10.015,2.491,2.491,0,0,0,5.051,11H1V5H2.051A2.491,2.491,0,0,0,6.5,5.985,2.491,2.491,0,0,0,10.949,5H15v6Z"/></svg>