<svg id="Layer_1" data-name="Layer 1" xmlns="http://www.w3.org/2000/svg" width="16" height="16" viewBox="0 0 16 16"><path d="M1.146,6.854a.5.5,0,0,0,.708,0l2-2a.5.5,0,0,0,0-.708l-2-2a.5.5,0,0,0-.708.708L2.793,4.5,1.146,6.146A.5.5,0,0,0,1.146,6.854Z"/><path d="M4.146,9.146,2.5,10.793.854,9.146a.5.5,0,0,0-.708.708l2,2a.5.5,0,0,0,.708,0l2-2a.5.5,0,0,0-.708-.708Z"/><path d="M7.5,5h8a.5.5,0,0,0,0-1h-8a.5.5,0,0,0,0,1Z"/><path d="M15.5,9h-8a.5.5,0,0,0,0,1h8a.5.5,0,0,0,0-1Z"/><path d="M15.5,13h-8a.5.5,0,0,0,0,1h8a.5.5,0,0,0,0-1Z"/></svg>