<svg version="1.1" xmlns="http://www.w3.org/2000/svg" width="16" height="16" viewBox="0 0 16 16">
<title>address-book-o</title>
<path d="M14 3h-1c0-1.105-0.895-2-2-2v0h-8c-0.552 0-1 0.448-1 1v0 12c0 0.552 0.448 1 1 1v0h8c1.105 0 2-0.895 2-2v0h1c0.552 0 1-0.448 1-1v0-8c0-0.552-0.448-1-1-1v0zM14 4v2h-1v-2zM13 7h1v2h-1zM11 14h-8v-12h8c0.552 0 1 0.448 1 1v0 10c0 0.552-0.448 1-1 1v0zM13 12v-2h1v2z"></path>
<path d="M7.5 8c0.828 0 1.5-0.672 1.5-1.5v0 0c0-0.828-0.672-1.5-1.5-1.5s-1.5 0.672-1.5 1.5v0 0c0 0.828 0.672 1.5 1.5 1.5v0z"></path>
<path d="M9.365 9.359c-0.552-0.227-1.193-0.359-1.865-0.359s-1.313 0.132-1.899 0.371l0.034-0.012c-0.375 0.154-0.635 0.517-0.635 0.941 0 0 0 0 0 0.001v-0 0.7h5v-0.7c0-0 0-0 0-0 0-0.423-0.26-0.786-0.628-0.938l-0.007-0.002z"></path>
</svg>
