<svg version="1.1" xmlns="http://www.w3.org/2000/svg" width="16" height="16" viewBox="0 0 16 16">
<title>address-book</title>
<path d="M14 3h-1c0-1.105-0.895-2-2-2v0h-8c-0.552 0-1 0.448-1 1v0 12c0 0.552 0.448 1 1 1v0h8c1.105 0 2-0.895 2-2v0h1c0.552 0 1-0.448 1-1v0-8c0-0.552-0.448-1-1-1v0zM6 6.5c0-0.828 0.672-1.5 1.5-1.5s1.5 0.672 1.5 1.5v0 0c0 0.828-0.672 1.5-1.5 1.5s-1.5-0.672-1.5-1.5v0zM10 11h-5v-0.7c0.001-0.422 0.26-0.784 0.628-0.936l0.007-0.002c0.552-0.227 1.193-0.359 1.865-0.359s1.313 0.132 1.899 0.371l-0.034-0.012c0.375 0.154 0.634 0.516 0.635 0.938v0zM14 12h-1v-2h1zM14 9h-1v-2h1zM14 6h-1v-2h1z"></path>
</svg>
