<svg id="Layer_1" data-name="Layer 1" xmlns="http://www.w3.org/2000/svg" width="16" height="16" viewBox="0 0 16 16"><path d="M8,1a7,7,0,1,0,7,7A7.008,7.008,0,0,0,8,1ZM8,14a6,6,0,1,1,6-6A6.006,6.006,0,0,1,8,14Z"/><path d="M2.854.146a.5.5,0,0,0-.708,0l-2,2a.5.5,0,0,0,.708.708l2-2A.5.5,0,0,0,2.854.146Z"/><path d="M15.854,2.146l-2-2a.5.5,0,0,0-.708.708l2,2a.5.5,0,0,0,.708-.708Z"/><path d="M9.935,5.253A.5.5,0,0,0,9.5,5h-3a.5.5,0,0,0,0,1H8.617L6.071,10.243A.5.5,0,0,0,6.5,11h3a.5.5,0,0,0,0-1H7.383L9.929,5.757A.5.5,0,0,0,9.935,5.253Z"/></svg>