<svg version="1.1" xmlns="http://www.w3.org/2000/svg" width="16" height="16" viewBox="0 0 16 16">
<title>alert</title>
<path d="M8.5 4c-0.276 0-0.5 0.224-0.5 0.5v0 3c0 0.276 0.224 0.5 0.5 0.5s0.5-0.224 0.5-0.5v0-3c0-0.276-0.224-0.5-0.5-0.5v0z"></path>
<path d="M9 9.5c0 0.276-0.224 0.5-0.5 0.5s-0.5-0.224-0.5-0.5c0-0.276 0.224-0.5 0.5-0.5s0.5 0.224 0.5 0.5z"></path>
<path d="M14 1h-11c-1.105 0-2 0.895-2 2v0 8c0 1.105 0.895 2 2 2v0h1v2.5c0 0.207 0.126 0.385 0.306 0.461l0.003 0.001c0.056 0.024 0.121 0.038 0.19 0.038 0 0 0.001 0 0.001 0h-0c0 0 0.001 0 0.001 0 0.138 0 0.263-0.056 0.353-0.146l2.853-2.854h6.293c1.105 0 2-0.895 2-2v0-8c0-1.105-0.895-2-2-2v0zM15 11c0 0.552-0.448 1-1 1v0h-6.293c-0.276 0.001-0.526 0.113-0.707 0.293l-2 2v-1.793c0-0.276-0.224-0.5-0.5-0.5v0h-1.5c-0.552 0-1-0.448-1-1v0-8c0-0.552 0.448-1 1-1v0h11c0.552 0 1 0.448 1 1v0z"></path>
</svg>
