<svg version="1.1" xmlns="http://www.w3.org/2000/svg" width="16" height="16" viewBox="0 0 16 16">
<title>ambulance</title>
<path d="M15.5 2h-10c-0.276 0-0.5 0.224-0.5 0.5v2.5h-2c-0.148 0-0.289 0.066-0.384 0.18l-2.5 3c-0.075 0.090-0.116 0.203-0.116 0.32v4c0 0.276 0.224 0.5 0.5 0.5h1.5c0 1.103 0.897 2 2 2s2-0.897 2-2h4c0 1.103 0.897 2 2 2s2-0.897 2-2h1.5c0.276 0 0.5-0.224 0.5-0.5v-10c0-0.276-0.224-0.5-0.5-0.5zM3.234 6h1.766v2h-3.432l1.666-2zM4 14c-0.551 0-1-0.449-1-1s0.449-1 1-1 1 0.449 1 1-0.449 1-1 1zM12 14c-0.551 0-1-0.449-1-1s0.449-1 1-1 1 0.449 1 1-0.449 1-1 1zM13.76 12.070v0zM15 12h-1.29c-0.347-0.592-0.975-1-1.71-1-0.737 0-1.375 0.405-1.722 1h-4.556c-0.347-0.595-0.985-1-1.722-1s-1.375 0.405-1.722 1h-1.278v-3h4.5c0.276 0 0.5-0.224 0.5-0.5v-5.5h9v9zM8.5 7h1.5v1.5c0 0.276 0.224 0.5 0.5 0.5s0.5-0.224 0.5-0.5v-1.5h1.5c0.276 0 0.5-0.224 0.5-0.5s-0.224-0.5-0.5-0.5h-1.5v-1.5c0-0.276-0.224-0.5-0.5-0.5s-0.5 0.224-0.5 0.5v1.5h-1.5c-0.276 0-0.5 0.224-0.5 0.5s0.224 0.5 0.5 0.5z"></path>
</svg>
