<svg version="1.1" xmlns="http://www.w3.org/2000/svg" width="16" height="16" viewBox="0 0 16 16">
<title>anchor</title>
<path d="M14.5 11h-3c-0.276 0-0.5 0.224-0.5 0.5s0.224 0.5 0.5 0.5v0h1.9c-0.956 1.556-2.525 2.657-4.363 2.968l-0.037 0.005v-6.973h1.5c0.276 0 0.5-0.224 0.5-0.5s-0.224-0.5-0.5-0.5v0h-1.5v-2.050c1.149-0.241 2-1.246 2-2.449 0-1.381-1.119-2.5-2.5-2.5s-2.5 1.119-2.5 2.5c0 1.204 0.851 2.209 1.984 2.447l0.016 0.003v2.050h-1.5c-0.276 0-0.5 0.224-0.5 0.5s0.224 0.5 0.5 0.5v0h1.5v6.973c-1.875-0.316-3.444-1.417-4.384-2.945l-0.016-0.028h1.9c0.276 0 0.5-0.224 0.5-0.5s-0.224-0.5-0.5-0.5v0h-3c-0.276 0-0.5 0.224-0.5 0.5v0 3c0 0.276 0.224 0.5 0.5 0.5s0.5-0.224 0.5-0.5v0-1.627c1.204 1.816 3.201 3.024 5.485 3.126l0.015 0.001c2.299-0.103 4.296-1.311 5.484-3.101l0.016-0.026v1.627c0 0.276 0.224 0.5 0.5 0.5s0.5-0.224 0.5-0.5v0-3c0-0.276-0.224-0.5-0.5-0.5v0zM7 2.5c0-0.828 0.672-1.5 1.5-1.5s1.5 0.672 1.5 1.5c0 0.828-0.672 1.5-1.5 1.5v0c-0.828 0-1.5-0.672-1.5-1.5v0z"></path>
</svg>
