<svg version="1.1" xmlns="http://www.w3.org/2000/svg" width="16" height="16" viewBox="0 0 16 16">
<title>angle-double-left</title>
<path d="M6.53 4.47c-0.136-0.136-0.323-0.22-0.53-0.22s-0.394 0.084-0.53 0.22l-3 3c-0.136 0.136-0.22 0.323-0.22 0.53s0.084 0.394 0.22 0.53l3 3c0.134 0.125 0.313 0.201 0.511 0.201 0.414 0 0.75-0.336 0.75-0.75 0-0.198-0.077-0.378-0.202-0.512l0 0-2.469-2.47 2.469-2.47c0.136-0.136 0.22-0.323 0.22-0.53s-0.084-0.394-0.22-0.53l-0-0z"></path>
<path d="M11.061 8l2.469-2.47c0.125-0.134 0.201-0.313 0.201-0.511 0-0.414-0.336-0.75-0.75-0.75-0.198 0-0.378 0.077-0.512 0.202l0-0-3 3c-0.136 0.136-0.22 0.323-0.22 0.53s0.084 0.394 0.22 0.53l3 3c0.134 0.125 0.313 0.201 0.511 0.201 0.414 0 0.75-0.336 0.75-0.75 0-0.198-0.077-0.378-0.202-0.512l0 0z"></path>
</svg>
