<svg version="1.1" xmlns="http://www.w3.org/2000/svg" width="16" height="16" viewBox="0 0 16 16">
<title>apex-square</title>
<path d="M13 1h-10c-1.105 0-2 0.895-2 2v10c0 1.105 0.895 2 2 2h10c1.105 0 2-0.895 2-2v-10c0-1.105-0.895-2-2-2zM3.257 4.156l0.91-0.91c0.164-0.164 0.379-0.246 0.594-0.246s0.43 0.082 0.594 0.246l2.058 2.058-0.595 0.593-2.058-2.057-0.909 0.91 2.057 2.057-0.594 0.594-2.057-2.058c-0.328-0.327-0.328-0.859 0-1.187zM5.619 12.162l-2.339 0.826c-0.166 0.059-0.327-0.102-0.268-0.268l0.826-2.339c0.167-0.377 0.403-0.719 0.694-1.010l5.931-5.931c0.574-0.574 1.514-0.564 2.088 0.010s0.584 1.514 0.010 2.088l-5.931 5.93c-0.292 0.291-0.634 0.526-1.011 0.694zM12.754 11.833l-0.91 0.91c-0.164 0.164-0.379 0.246-0.594 0.246s-0.43-0.082-0.594-0.246l-2.057-2.057 0.594-0.594 2.057 2.057 0.91-0.91-2.057-2.057 0.594-0.594 2.057 2.057c0.328 0.328 0.328 0.86 0 1.188zM11.957 4.043c-0.119-0.119-0.287-0.194-0.455-0.194s-0.326 0.065-0.445 0.184l-5.931 5.931c-0.219 0.219-0.395 0.474-0.51 0.733l-0.472 1.159 1.159-0.472c0.259-0.116 0.514-0.291 0.733-0.51l5.931-5.931c0.119-0.119 0.184-0.277 0.184-0.445s-0.075-0.336-0.194-0.455z"></path>
</svg>
