<svg version="1.1" xmlns="http://www.w3.org/2000/svg" width="16" height="16" viewBox="0 0 16 16">
<title>apex</title>
<path d="M4.24 7.161l0.831-0.831-2.88-2.88 1.274-1.274 2.88 2.88 0.831-0.831-2.88-2.881c-0.229-0.229-0.53-0.344-0.831-0.344s-0.601 0.115-0.831 0.344l-1.274 1.275c-0.459 0.459-0.459 1.203 0 1.662l2.88 2.88zM14.656 11.704l-2.88-2.88-0.831 0.831 2.88 2.88-1.274 1.274-2.88-2.88-0.832 0.831 2.88 2.88c0.229 0.229 0.53 0.344 0.831 0.344s0.602-0.115 0.831-0.344l1.274-1.274c0.46-0.459 0.46-1.203 0.001-1.662zM14.371 1.629c-0.803-0.803-2.119-0.817-2.923-0.014l-8.303 8.303c-0.408 0.408-0.737 0.888-0.972 1.415l-1.156 3.275c-0.082 0.233 0.142 0.457 0.375 0.375l3.275-1.156c0.527-0.234 1.007-0.564 1.415-0.972l8.303-8.303c0.803-0.803 0.789-2.12-0.014-2.923zM13.554 3.721l-8.303 8.303c-0.307 0.307-0.664 0.552-1.027 0.714l-1.623 0.661 0.661-1.623c0.162-0.363 0.407-0.72 0.714-1.027l8.303-8.303c0.167-0.167 0.388-0.258 0.623-0.258s0.471 0.105 0.637 0.272c0.167 0.167 0.272 0.402 0.272 0.637 0.001 0.236-0.091 0.457-0.257 0.624z"></path>
</svg>
