<svg version="1.1" xmlns="http://www.w3.org/2000/svg" width="16" height="16" viewBox="0 0 16 16">
<title>area-chart</title>
<path d="M15.691 3.038c-0.186-0.078-0.401-0.035-0.545 0.108l-5.646 5.647-3.646-3.647c-0.195-0.195-0.512-0.195-0.707 0l-4.147 4.147v-7.793c0-0.276-0.224-0.5-0.5-0.5s-0.5 0.224-0.5 0.5v12c0 0.276 0.224 0.5 0.5 0.5h15c0.276 0 0.5-0.224 0.5-0.5v-10c0-0.202-0.122-0.385-0.309-0.462zM15 13h-14v-2.293l4.5-4.5 3.646 3.646c0.195 0.195 0.512 0.195 0.707 0l5.147-5.146v8.293z"></path>
</svg>
