<svg version="1.1" xmlns="http://www.w3.org/2000/svg" width="16" height="16" viewBox="0 0 16 16">
<title>arrow-circle-up</title>
<path d="M0 8c0 4.418 3.582 8 8 8s8-3.582 8-8c0-4.418-3.582-8-8-8v0c-4.416 0.005-7.995 3.584-8 8v0zM8.707 3.793l3 3c0.174 0.18 0.281 0.425 0.281 0.695 0 0.552-0.448 1-1 1-0.27 0-0.515-0.107-0.695-0.281l0 0-1.293-1.293v4.586c0 0.552-0.448 1-1 1s-1-0.448-1-1v0-4.586l-1.293 1.293c-0.18 0.174-0.425 0.281-0.695 0.281-0.552 0-1-0.448-1-1 0-0.27 0.107-0.515 0.281-0.695l-0 0 3-3c0.181-0.181 0.431-0.293 0.707-0.293s0.526 0.112 0.707 0.293v0z"></path>
</svg>
