<svg version="1.1" xmlns="http://www.w3.org/2000/svg" width="16" height="16" viewBox="0 0 16 16">
<title>arrow-circle-right</title>
<path d="M8 0c-4.418 0-8 3.582-8 8s3.582 8 8 8c4.418 0 8-3.582 8-8v0c-0.005-4.416-3.584-7.995-8-8h-0zM12.207 8.707l-3 3c-0.182 0.188-0.437 0.305-0.719 0.305-0.552 0-1-0.448-1-1 0-0.282 0.117-0.537 0.305-0.719l0-0 1.293-1.293h-4.586c-0.552 0-1-0.448-1-1s0.448-1 1-1v0h4.586l-1.293-1.293c-0.188-0.182-0.305-0.437-0.305-0.719 0-0.552 0.448-1 1-1 0.282 0 0.537 0.117 0.719 0.305l0 0 3 3c0.181 0.181 0.293 0.431 0.293 0.707s-0.112 0.526-0.293 0.707v0z"></path>
</svg>
