<svg version="1.1" xmlns="http://www.w3.org/2000/svg" width="16" height="16" viewBox="0 0 16 16">
<title>arrows-v</title>
<path d="M11.47 10.47l-2.72 2.719v-10.378l2.72 2.719c0.134 0.125 0.313 0.201 0.511 0.201 0.414 0 0.75-0.336 0.75-0.75 0-0.198-0.077-0.378-0.202-0.512l0 0-4-4c-0.136-0.136-0.323-0.22-0.53-0.22s-0.394 0.084-0.53 0.22l-4 4c-0.147 0.137-0.239 0.332-0.239 0.549 0 0.414 0.336 0.75 0.75 0.75 0.216 0 0.411-0.092 0.548-0.238l0-0 2.72-2.719v10.378l-2.72-2.719c-0.137-0.147-0.332-0.239-0.549-0.239-0.414 0-0.75 0.336-0.75 0.75 0 0.216 0.092 0.411 0.238 0.548l0 0 4 4c0.135 0.136 0.323 0.22 0.53 0.22s0.395-0.084 0.53-0.22l4-4c0.125-0.134 0.201-0.313 0.201-0.511 0-0.414-0.336-0.75-0.75-0.75-0.198 0-0.378 0.077-0.512 0.202l0-0z"></path>
</svg>
