<svg version="1.1" xmlns="http://www.w3.org/2000/svg" width="16" height="16" viewBox="0 0 16 16">
<title>arrow-up-left-alt</title>
<path d="M13.854 9.646l-3.9-3.9 2.9-2.9c0.086-0.090 0.139-0.212 0.139-0.346 0-0.274-0.22-0.496-0.493-0.5h-10c-0.276 0-0.5 0.224-0.5 0.5v0 10c0 0 0 0 0 0 0 0.208 0.127 0.386 0.308 0.462l0.003 0.001c0.056 0.023 0.121 0.037 0.189 0.037 0.139 0 0.265-0.057 0.356-0.149l0-0 2.851-2.893 3.941 3.9c0.090 0.090 0.215 0.146 0.353 0.146s0.263-0.056 0.353-0.146l3.5-3.5c0.092-0.091 0.149-0.217 0.149-0.356s-0.057-0.265-0.149-0.356l-0-0z"></path>
</svg>
