<svg version="1.1" xmlns="http://www.w3.org/2000/svg" width="16" height="16" viewBox="0 0 16 16">
<title>arrow-circle-o-right</title>
<path d="M8 0c-4.418 0-8 3.582-8 8s3.582 8 8 8c4.418 0 8-3.582 8-8v0c-0.005-4.416-3.584-7.995-8-8h-0zM8 15c-3.866 0-7-3.134-7-7s3.134-7 7-7c3.866 0 7 3.134 7 7v0c-0.005 3.864-3.136 6.995-7 7h-0z"></path>
<path d="M9.030 4.47c-0.134-0.125-0.313-0.201-0.511-0.201-0.414 0-0.75 0.336-0.75 0.75 0 0.198 0.077 0.378 0.202 0.512l-0-0 1.719 1.72h-5.189c-0.414 0-0.75 0.336-0.75 0.75s0.336 0.75 0.75 0.75v0h5.189l-1.719 1.72c-0.147 0.137-0.239 0.332-0.239 0.549 0 0.414 0.336 0.75 0.75 0.75 0.216 0 0.411-0.092 0.548-0.238l0-0 3-3c0.136-0.136 0.22-0.323 0.22-0.53s-0.084-0.394-0.22-0.53l-0-0z"></path>
</svg>
