<svg version="1.1" xmlns="http://www.w3.org/2000/svg" width="16" height="16" viewBox="0 0 16 16">
<title>arrow-down-left-alt</title>
<path d="M13.854 5.646l-3.5-3.5c-0.090-0.090-0.215-0.146-0.353-0.146s-0.263 0.056-0.353 0.146l0-0-3.941 3.9-2.851-2.897c-0.091-0.092-0.217-0.149-0.356-0.149-0.276 0-0.5 0.224-0.5 0.5v0 10c0 0.276 0.224 0.5 0.5 0.5v0h10c0 0 0.001 0 0.001 0 0.276 0 0.5-0.224 0.5-0.5 0-0.138-0.056-0.263-0.147-0.354l-2.9-2.9 3.9-3.9c0.088-0.090 0.143-0.214 0.143-0.35s-0.055-0.26-0.143-0.35l0 0z"></path>
</svg>
