<svg version="1.1" xmlns="http://www.w3.org/2000/svg" width="16" height="16" viewBox="0 0 16 16">
<title>arrow-down-alt</title>
<path d="M14.958 7.3c-0.079-0.178-0.254-0.3-0.458-0.3h-3.5v-5.5c0-0.276-0.224-0.5-0.5-0.5v0h-5c-0.276 0-0.5 0.224-0.5 0.5v0 5.5h-3.5c-0.276 0-0.499 0.224-0.499 0.5 0 0.131 0.051 0.251 0.134 0.34l-0-0 6.5 7c0.092 0.098 0.222 0.159 0.366 0.159s0.274-0.061 0.366-0.159l0-0 6.5-7c0.083-0.089 0.134-0.209 0.134-0.34 0-0.072-0.015-0.141-0.043-0.203l0.001 0.003z"></path>
</svg>
