<svg version="1.1" xmlns="http://www.w3.org/2000/svg" width="16" height="16" viewBox="0 0 16 16">
<title>arrows</title>
<path d="M15.53 7.47l-2-2c-0.134-0.125-0.313-0.201-0.511-0.201-0.414 0-0.75 0.336-0.75 0.75 0 0.198 0.077 0.378 0.202 0.512l-0-0 0.719 0.72h-4.439v-4.439l0.72 0.719c0.134 0.125 0.313 0.201 0.511 0.201 0.414 0 0.75-0.336 0.75-0.75 0-0.198-0.077-0.378-0.202-0.512l0 0-2-2c-0.136-0.136-0.323-0.22-0.53-0.22s-0.394 0.084-0.53 0.22l-2 2c-0.125 0.134-0.201 0.313-0.201 0.511 0 0.414 0.336 0.75 0.75 0.75 0.198 0 0.378-0.077 0.512-0.202l-0 0 0.72-0.719v4.439h-4.25v-0.189l0.53-0.531c0.125-0.134 0.201-0.313 0.201-0.511 0-0.414-0.336-0.75-0.75-0.75-0.198 0-0.378 0.077-0.512 0.202l0-0-2 2c-0.136 0.136-0.22 0.323-0.22 0.53s0.084 0.394 0.22 0.53l2 2c0.137 0.147 0.332 0.239 0.549 0.239 0.414 0 0.75-0.336 0.75-0.75 0-0.216-0.092-0.411-0.238-0.548l-0-0-0.53-0.531v-0.189h4.25v4.439l-0.72-0.719c-0.134-0.125-0.313-0.201-0.511-0.201-0.414 0-0.75 0.336-0.75 0.75 0 0.198 0.077 0.378 0.202 0.512l-0-0 2 2c0.135 0.136 0.323 0.22 0.53 0.22s0.395-0.084 0.53-0.22l2-2c0.125-0.134 0.201-0.313 0.201-0.511 0-0.414-0.336-0.75-0.75-0.75-0.198 0-0.378 0.077-0.512 0.202l0-0-0.72 0.719v-4.439h4.439l-0.719 0.72c-0.147 0.137-0.239 0.332-0.239 0.549 0 0.414 0.336 0.75 0.75 0.75 0.216 0 0.411-0.092 0.548-0.238l0-0 2-2c0.136-0.136 0.22-0.323 0.22-0.53s-0.084-0.394-0.22-0.53l-0-0z"></path>
</svg>
