<svg version="1.1" xmlns="http://www.w3.org/2000/svg" width="16" height="16" viewBox="0 0 16 16">
<title>arrow-down-right-alt</title>
<path d="M13.691 3.038c-0.057-0.024-0.123-0.038-0.192-0.038-0.138 0-0.263 0.056-0.353 0.146v0l-2.9 2.9-3.9-3.9c-0.091-0.091-0.216-0.147-0.354-0.147s-0.263 0.056-0.354 0.147l-3.5 3.5c-0.090 0.090-0.146 0.215-0.146 0.353s0.056 0.263 0.146 0.353l-0-0 3.9 3.941-2.889 2.851c-0.092 0.091-0.149 0.217-0.149 0.356 0 0.276 0.224 0.5 0.5 0.5h10c0.276 0 0.5-0.224 0.5-0.5v0-10c-0-0.207-0.126-0.385-0.306-0.461l-0.003-0.001z"></path>
</svg>
