<svg version="1.1" xmlns="http://www.w3.org/2000/svg" width="16" height="16" viewBox="0 0 16 16">
<title>arrow-up</title>
<path d="M13.53 6.47l-5-5c-0.136-0.136-0.323-0.22-0.53-0.22s-0.394 0.084-0.53 0.22l-5 5c-0.125 0.134-0.201 0.313-0.201 0.511 0 0.414 0.336 0.75 0.75 0.75 0.198 0 0.378-0.077 0.512-0.202l-0 0 3.72-3.719v10.189c0 0.414 0.336 0.75 0.75 0.75s0.75-0.336 0.75-0.75v0-10.189l3.72 3.719c0.134 0.125 0.313 0.201 0.511 0.201 0.414 0 0.75-0.336 0.75-0.75 0-0.198-0.077-0.378-0.202-0.512l0 0z"></path>
</svg>
