<svg version="1.1" xmlns="http://www.w3.org/2000/svg" width="16" height="16" viewBox="0 0 16 16">
<title>arrows-alt</title>
<path d="M14 5.75c0.414 0 0.75-0.336 0.75-0.75v0-3c0-0.414-0.336-0.75-0.75-0.75v0h-3c-0.414 0-0.75 0.336-0.75 0.75s0.336 0.75 0.75 0.75v0h1.189l-4.189 4.189-4.189-4.189h1.189c0.414 0 0.75-0.336 0.75-0.75s-0.336-0.75-0.75-0.75v0h-3c-0.414 0-0.75 0.336-0.75 0.75v0 3c0 0.414 0.336 0.75 0.75 0.75s0.75-0.336 0.75-0.75v0-1.189l4.189 4.189-4.189 4.189v-1.189c0-0.414-0.336-0.75-0.75-0.75s-0.75 0.336-0.75 0.75v0 3c0 0.414 0.336 0.75 0.75 0.75v0h3c0.414 0 0.75-0.336 0.75-0.75s-0.336-0.75-0.75-0.75v0h-1.189l4.189-4.189 4.189 4.189h-1.189c-0.414 0-0.75 0.336-0.75 0.75s0.336 0.75 0.75 0.75v0h3c0.414 0 0.75-0.336 0.75-0.75v0-3c0-0.414-0.336-0.75-0.75-0.75s-0.75 0.336-0.75 0.75v0 1.189l-4.189-4.189 4.189-4.189v1.189c0 0.414 0.336 0.75 0.75 0.75v0z"></path>
</svg>
