<svg version="1.1" xmlns="http://www.w3.org/2000/svg" width="16" height="16" viewBox="0 0 16 16">
<title>assistive-listening-systems</title>
<path d="M6 10c0-0.005 0-0.010 0-0.016 0-1.105-0.895-2-2-2s-2 0.895-2 2c0 0.379 0.105 0.733 0.288 1.034l-0.005-0.009-1.137 1.136c-0.091 0.091-0.147 0.216-0.147 0.354 0 0.276 0.224 0.501 0.501 0.501 0.138 0 0.263-0.056 0.354-0.147l1.136-1.137c0.292 0.178 0.645 0.283 1.022 0.283 1.098 0 1.988-0.89 1.988-1.988 0-0.004-0-0.008-0-0.012v0.001zM3 10c0-0.552 0.448-1 1-1s1 0.448 1 1c0 0.552-0.448 1-1 1v0c-0.552 0-1-0.448-1-1v0z"></path>
<path d="M6 1c-2.559 0.005-4.665 1.936-4.945 4.421l-0.002 0.023c-0.002 0.017-0.003 0.036-0.003 0.056 0 0.276 0.224 0.5 0.5 0.5 0.256 0 0.468-0.193 0.497-0.442l0-0.002c0.222-2.012 1.913-3.562 3.965-3.562 2.203 0 3.988 1.785 3.988 3.988 0 0.014-0 0.028-0 0.042l0-0.002c0 0.024 0.001 0.052 0.001 0.080 0 0.998-0.345 1.915-0.923 2.638l0.007-0.008c-0.677 0.874-1.085 1.986-1.085 3.194 0 0.026 0 0.052 0.001 0.078l-0-0.004c0 0.004 0 0.008 0 0.012 0 1.098-0.891 1.989-1.989 1.989-0.458 0-0.879-0.155-1.216-0.415l0.005 0.003c-0.083-0.062-0.187-0.1-0.3-0.1-0.276 0-0.5 0.224-0.5 0.5 0 0.163 0.078 0.308 0.199 0.399l0.001 0.001c0.493 0.38 1.12 0.609 1.8 0.61h0c1.657 0 3-1.343 3-3v0c-0.001-0.025-0.001-0.054-0.001-0.084 0-0.998 0.345-1.915 0.923-2.638l-0.007 0.008c0.677-0.874 1.085-1.985 1.085-3.191 0-0.026-0-0.052-0.001-0.077l0 0.004c0-0.002 0-0.003 0-0.005 0-2.765-2.237-5.007-4.999-5.017h-0.001z"></path>
<path d="M7.688 7.9c0.083 0.062 0.187 0.1 0.3 0.1 0.163 0 0.308-0.078 0.399-0.199l0.001-0.001c0.381-0.493 0.61-1.12 0.612-1.8v-0c0-1.657-1.343-3-3-3s-3 1.343-3 3v0c0 0.276 0.224 0.5 0.5 0.5s0.5-0.224 0.5-0.5v0c-0-0.004-0-0.009-0-0.013 0-1.105 0.895-2 2-2s2 0.895 2 2c0 0.458-0.154 0.881-0.413 1.218l0.003-0.005c-0.063 0.083-0.101 0.187-0.101 0.301 0 0.162 0.077 0.307 0.197 0.398l0.001 0.001z"></path>
<path d="M12.75 3.482c-0.055-0.221-0.252-0.381-0.486-0.381-0.276 0-0.5 0.224-0.5 0.5 0 0.042 0.005 0.083 0.015 0.122l-0.001-0.003c0.138 0.534 0.219 1.147 0.222 1.778v0.002c0 0.003 0 0.007 0 0.011 0 1.238-0.303 2.404-0.839 3.43l0.019-0.041c-0.041 0.071-0.065 0.155-0.065 0.246 0 0.276 0.224 0.5 0.5 0.5 0.201 0 0.374-0.118 0.453-0.289l0.001-0.003c0.586-1.116 0.93-2.439 0.93-3.842 0-0.004 0-0.009-0-0.013v0.001c-0.003-0.718-0.094-1.413-0.263-2.077l0.013 0.059z"></path>
<path d="M14.6 2.67c-0.058-0.217-0.253-0.373-0.484-0.373-0.276 0-0.5 0.224-0.5 0.5 0 0.051 0.008 0.1 0.022 0.146l-0.001-0.004c0.226 0.766 0.358 1.647 0.363 2.559l0 0.002c0 0 0 0.001 0 0.001 0 1.527-0.364 2.969-1.010 4.244l0.025-0.054c-0.032 0.064-0.051 0.141-0.051 0.221 0 0.277 0.224 0.501 0.501 0.501 0.196 0 0.366-0.113 0.449-0.277l0.001-0.003c0.684-1.348 1.085-2.939 1.085-4.623 0-0.004 0-0.007 0-0.011v0.001c-0.004-1.009-0.15-1.983-0.419-2.904l0.019 0.074z"></path>
</svg>
