<svg version="1.1" xmlns="http://www.w3.org/2000/svg" width="16" height="16" viewBox="0 0 16 16">
<title>asterisk</title>
<path d="M14.379 10.817l-4.879-2.817 4.879-2.817c0.149-0.088 0.247-0.248 0.247-0.431 0-0.276-0.224-0.5-0.5-0.5-0.091 0-0.176 0.024-0.25 0.067l0.002-0.001-4.879 2.817v-5.634c0-0.276-0.224-0.5-0.5-0.5s-0.5 0.224-0.5 0.5v0 5.634l-4.879-2.817c-0.072-0.043-0.16-0.069-0.253-0.069-0.276 0-0.5 0.224-0.5 0.5 0 0.185 0.101 0.347 0.25 0.433l0.002 0.001 4.879 2.817-4.879 2.817c-0.152 0.088-0.253 0.249-0.253 0.435 0 0.276 0.224 0.5 0.5 0.5 0.093 0 0.18-0.026 0.255-0.070l-0.002 0.001 4.879-2.817v5.634c0 0.276 0.224 0.5 0.5 0.5s0.5-0.224 0.5-0.5v0-5.634l4.879 2.817c0.072 0.043 0.16 0.069 0.253 0.069 0.276 0 0.5-0.224 0.5-0.5 0-0.185-0.101-0.347-0.25-0.433l-0.002-0.001z"></path>
</svg>
