<svg version="1.1" xmlns="http://www.w3.org/2000/svg" width="16" height="16" viewBox="0 0 16 16">
<title>audio-description</title>
<path d="M14 2h-12c-1.105 0-2 0.895-2 2v0 8c0 1.105 0.895 2 2 2v0h4.25l1.35 1.8c0.092 0.122 0.237 0.2 0.4 0.2s0.308-0.078 0.399-0.199l0.001-0.001 1.35-1.8h4.25c1.105 0 2-0.895 2-2v0-8c0-1.105-0.895-2-2-2v0zM15 12c0 0.552-0.448 1-1 1v0h-4.5c-0.163 0-0.308 0.078-0.399 0.199l-0.001 0.001-1.1 1.467-1.1-1.467c-0.092-0.122-0.237-0.2-0.4-0.2h-4.5c-0.552 0-1-0.448-1-1v0-8c0-0.552 0.448-1 1-1v0h12c0.552 0 1 0.448 1 1v0z"></path>
<path d="M10 5h-0.5c-0.276 0-0.5 0.224-0.5 0.5v0 5c0 0.276 0.224 0.5 0.5 0.5v0h0.5c1.657 0 3-1.343 3-3s-1.343-3-3-3v0zM10 10v-4c1.105 0 2 0.895 2 2s-0.895 2-2 2v0z"></path>
<path d="M6.222 5.335c-0.070-0.197-0.255-0.335-0.472-0.335 0 0 0 0-0 0h-0.5c0 0 0 0-0 0-0.217 0-0.402 0.138-0.471 0.332l-0.001 0.003-1.75 5c-0.018 0.049-0.028 0.106-0.028 0.165 0 0.276 0.224 0.5 0.5 0.5 0.217 0 0.402-0.138 0.471-0.332l0.001-0.003 0.583-1.665h1.89l0.583 1.665c0.070 0.197 0.255 0.335 0.472 0.335 0.276 0 0.5-0.224 0.5-0.5 0-0.059-0.010-0.116-0.029-0.168l0.001 0.003zM4.905 8l0.595-1.7 0.6 1.7z"></path>
</svg>
