<svg version="1.1" xmlns="http://www.w3.org/2000/svg" width="16" height="16" viewBox="0 0 16 16">
<title>backward</title>
<path d="M6.731 4.057c-0.165-0.086-0.365-0.074-0.518 0.033l-5 3.5c-0.133 0.094-0.213 0.247-0.213 0.41s0.080 0.316 0.213 0.41l5 3.5c0.086 0.060 0.186 0.090 0.287 0.090 0.079 0 0.158-0.019 0.231-0.057 0.165-0.086 0.269-0.256 0.269-0.443v-7c0-0.187-0.104-0.357-0.269-0.443zM6 10.54l-3.628-2.54 3.628-2.54v5.080zM13.731 4.057c-0.165-0.086-0.365-0.074-0.518 0.034l-5 3.5c-0.133 0.093-0.213 0.246-0.213 0.409s0.080 0.316 0.213 0.41l5 3.5c0.086 0.060 0.186 0.090 0.287 0.090 0.079 0 0.158-0.019 0.231-0.057 0.165-0.086 0.269-0.256 0.269-0.443v-7c0-0.187-0.104-0.357-0.269-0.443zM13 10.54l-3.628-2.54 3.628-2.54v5.080z"></path>
</svg>
