<svg version="1.1" xmlns="http://www.w3.org/2000/svg" width="16" height="16" viewBox="0 0 16 16">
<title>balance-scale</title>
<path d="M15.977 10.351l-2.5-7.992c-0.063-0.208-0.252-0.358-0.477-0.359h-3.086c-0.212-0.587-0.765-0.999-1.414-0.999s-1.202 0.412-1.411 0.989l-0.003 0.010h-3.086c-0 0-0 0-0 0-0.226 0-0.417 0.15-0.479 0.355l-0.001 0.004-2.5 7.992c-0.014 0.045-0.023 0.096-0.023 0.149 0 0.276 0.224 0.5 0.5 0.5 0.001 0 0.002 0 0.003-0h5c0.276-0 0.5-0.224 0.5-0.5 0-0.053-0.008-0.104-0.024-0.153l0.001 0.004-2.297-7.351h2.406c0.156 0.43 0.491 0.763 0.911 0.914l0.011 0.003c-0.005 0.025-0.008 0.054-0.008 0.083v10h-2.5c-0.276 0-0.5 0.224-0.5 0.5s0.224 0.5 0.5 0.5v0h6c0.276 0 0.5-0.224 0.5-0.5s-0.224-0.5-0.5-0.5v0h-2.5v-10c-0-0.029-0.003-0.058-0.008-0.086l0 0.003c0.431-0.154 0.766-0.487 0.919-0.907l0.003-0.010h2.406l-2.3 7.351c-0.014 0.045-0.023 0.096-0.023 0.149 0 0.276 0.224 0.5 0.5 0.5 0.001 0 0.002 0 0.003-0h5c0.276-0 0.5-0.224 0.5-0.5 0-0.053-0.008-0.104-0.024-0.153l0.001 0.004zM2.18 10l1.82-5.824 1.82 5.824zM8.5 3c-0.276 0-0.5-0.224-0.5-0.5s0.224-0.5 0.5-0.5c0.276 0 0.5 0.224 0.5 0.5v0c0 0.276-0.224 0.5-0.5 0.5v0zM11.18 10l1.82-5.824 1.82 5.824z"></path>
</svg>
