<svg version="1.1" xmlns="http://www.w3.org/2000/svg" width="16" height="16" viewBox="0 0 16 16">
<title>ban</title>
<path d="M8 1c-3.866 0-7 3.134-7 7s3.134 7 7 7c3.866 0 7-3.134 7-7v0c-0.005-3.864-3.136-6.995-7-7h-0zM8 2c0.002 0 0.004 0 0.006 0 1.479 0 2.831 0.538 3.874 1.428l-0.008-0.007-8.451 8.451c-0.881-1.038-1.417-2.392-1.417-3.872 0-3.312 2.684-5.997 5.995-6h0zM8 14c-0.002 0-0.004 0-0.006 0-1.479 0-2.831-0.538-3.874-1.428l0.008 0.007 8.451-8.451c0.881 1.038 1.417 2.392 1.417 3.872 0 3.312-2.684 5.997-5.995 6h-0z"></path>
</svg>
