<svg version="1.1" xmlns="http://www.w3.org/2000/svg" width="16" height="16" viewBox="0 0 16 16">
<title>barcode</title>
<path d="M15.5 2c-0.276 0-0.5 0.224-0.5 0.5v0 11c0 0.276 0.224 0.5 0.5 0.5s0.5-0.224 0.5-0.5v0-11c0-0.276-0.224-0.5-0.5-0.5v0z"></path>
<path d="M13.5 2c-0.276 0-0.5 0.224-0.5 0.5v0 11c0 0.276 0.224 0.5 0.5 0.5s0.5-0.224 0.5-0.5v0-11c0-0.276-0.224-0.5-0.5-0.5v0z"></path>
<path d="M10.5 2c-0.276 0-0.5 0.224-0.5 0.5v0 11c0 0.276 0.224 0.5 0.5 0.5s0.5-0.224 0.5-0.5v0-11c0-0.276-0.224-0.5-0.5-0.5v0z"></path>
<path d="M6.5 2c-0.276 0-0.5 0.224-0.5 0.5v0 11c0 0.276 0.224 0.5 0.5 0.5s0.5-0.224 0.5-0.5v0-11c0-0.276-0.224-0.5-0.5-0.5v0z"></path>
<path d="M0.5 2c-0.276 0-0.5 0.224-0.5 0.5v0 11c0 0.276 0.224 0.5 0.5 0.5s0.5-0.224 0.5-0.5v0-11c0-0.276-0.224-0.5-0.5-0.5v0z"></path>
<path d="M3.5 2c-0.276 0-0.5 0.224-0.5 0.5v0 11c0 0.276 0.224 0.5 0.5 0.5s0.5-0.224 0.5-0.5v0-11c0-0.276-0.224-0.5-0.5-0.5v0z"></path>
</svg>
