<svg version="1.1" xmlns="http://www.w3.org/2000/svg" width="16" height="16" viewBox="0 0 16 16">
<title>bath</title>
<path d="M15.5 7.991h-3.528v-0.491c0-0.26-0.211-0.472-0.472-0.472h-3c-0.26 0-0.472 0.211-0.472 0.472v0.497h-5.028v-5.087c0-0.502 0.408-0.91 0.916-0.91 0.243 0 0.472 0.095 0.644 0.267l0.733 0.733-0.147 0.146c-0.195 0.195-0.195 0.512 0 0.707 0.098 0.098 0.226 0.147 0.354 0.147s0.256-0.049 0.354-0.146l1-1c0.195-0.195 0.195-0.512 0-0.707s-0.512-0.195-0.707 0l-0.147 0.146-0.733-0.733c-0.361-0.361-0.841-0.56-1.357-0.56-1.053 0-1.91 0.857-1.91 1.91v5.086h-1.5c-0.278 0-0.503 0.226-0.503 0.503s0.225 0.504 0.503 0.504h0.5v1.497c0 1.758 1.308 3.204 3 3.449v0.551c0 0.276 0.224 0.5 0.5 0.5s0.5-0.224 0.5-0.5v-0.5h6v0.5c0 0.276 0.224 0.5 0.5 0.5s0.5-0.224 0.5-0.5v-0.551c1.692-0.245 3-1.691 3-3.449v-1.491h0.5c0.281 0 0.509-0.228 0.509-0.509s-0.228-0.509-0.509-0.509zM11.028 7.972v3.057h-2.056v-3.057h2.056zM14 10.5c0 1.378-1.122 2.5-2.5 2.5h-7c-1.378 0-2.5-1.122-2.5-2.5v-1.497h6.028v2.497c0 0.26 0.211 0.472 0.472 0.472h3c0.26 0 0.472-0.211 0.472-0.472v-2.491h2.028v1.491z"></path>
</svg>
