<svg version="1.1" xmlns="http://www.w3.org/2000/svg" width="16" height="16" viewBox="0 0 16 16">
<title>battleship</title>
<path d="M2.053 11.724c0.085 0.163 0.252 0.273 0.445 0.273 0.276 0 0.5-0.224 0.5-0.5 0-0.080-0.019-0.156-0.053-0.223l0.001 0.003-1.638-3.276h13.382l-1.638 3.276c-0.034 0.066-0.055 0.144-0.055 0.227 0 0.276 0.224 0.5 0.5 0.5 0.196 0 0.365-0.113 0.447-0.277l0.001-0.003 2-4c0.033-0.065 0.053-0.142 0.053-0.224 0-0.276-0.224-0.5-0.5-0.5h-3.5v-0.5c0-0 0-0 0-0 0-0.218-0.028-0.429-0.081-0.631l0.004 0.017 2.26-0.754 0.009 0.026c0.068 0.2 0.255 0.342 0.474 0.342 0 0 0 0 0.001 0h-0c0.056-0 0.111-0.009 0.162-0.026l-0.004 0.001c0.2-0.068 0.342-0.255 0.342-0.474 0-0.057-0.009-0.111-0.027-0.162l0.001 0.004-0.333-1c-0.068-0.2-0.255-0.342-0.475-0.342-0.276 0-0.5 0.224-0.5 0.5 0 0.057 0.009 0.111 0.027 0.162l-0.001-0.004 0.008 0.026-2.385 0.8c-0.46-0.6-1.176-0.983-1.982-0.984h-0.691l-0.862-1.724c-0.084-0.165-0.253-0.276-0.447-0.276h-2c-0.276 0-0.5 0.224-0.5 0.5v0 1.5h-1.5c-0.276 0-0.5 0.224-0.5 0.5v0 2.5h-2.5c-0.276 0-0.5 0.224-0.5 0.5 0 0.082 0.020 0.159 0.054 0.227l-0.001-0.003zM6 3h1.191l0.5 1h-1.691zM4 5h5.5c0.828 0 1.5 0.672 1.5 1.5v0 0.5h-7z"></path>
<path d="M15.786 12.076c-0.080-0.057-0.18-0.092-0.289-0.092-0.17 0-0.32 0.085-0.41 0.214l-0.001 0.002c-0.328 0.464-0.861 0.763-1.465 0.763s-1.137-0.299-1.461-0.757l-0.004-0.006c-0.096-0.123-0.244-0.201-0.41-0.201s-0.314 0.078-0.409 0.2l-0.001 0.001c-0.328 0.464-0.861 0.763-1.465 0.763s-1.137-0.299-1.461-0.757l-0.004-0.006c-0.096-0.123-0.244-0.201-0.41-0.201s-0.314 0.078-0.409 0.2l-0.001 0.001c-0.328 0.464-0.861 0.763-1.465 0.763s-1.137-0.299-1.461-0.757l-0.004-0.006c-0.096-0.123-0.244-0.201-0.41-0.201s-0.314 0.078-0.409 0.2l-0.001 0.001c-0.328 0.464-0.861 0.763-1.465 0.763s-1.137-0.299-1.461-0.757l-0.004-0.006c-0.092-0.125-0.239-0.206-0.404-0.206-0.276 0-0.5 0.224-0.5 0.5 0 0.103 0.031 0.2 0.085 0.279l-0.001-0.002c0.502 0.741 1.339 1.224 2.288 1.228h0.001c0.728-0.001 1.388-0.287 1.876-0.753l-0.001 0.001c0.493 0.45 1.152 0.725 1.875 0.725s1.382-0.276 1.877-0.727l-0.002 0.002c0.493 0.45 1.152 0.725 1.875 0.725s1.382-0.276 1.877-0.727l-0.002 0.002c0.487 0.465 1.147 0.751 1.875 0.752h0c0.949-0.006 1.784-0.488 2.279-1.218l0.006-0.010c0.056-0.080 0.090-0.179 0.090-0.286 0-0.169-0.084-0.318-0.212-0.409l-0.002-0.001z"></path>
<path d="M11 9.5c0 0.276-0.224 0.5-0.5 0.5s-0.5-0.224-0.5-0.5c0-0.276 0.224-0.5 0.5-0.5s0.5 0.224 0.5 0.5z"></path>
<path d="M8 9.5c0 0.276-0.224 0.5-0.5 0.5s-0.5-0.224-0.5-0.5c0-0.276 0.224-0.5 0.5-0.5s0.5 0.224 0.5 0.5z"></path>
<path d="M5 9.5c0 0.276-0.224 0.5-0.5 0.5s-0.5-0.224-0.5-0.5c0-0.276 0.224-0.5 0.5-0.5s0.5 0.224 0.5 0.5z"></path>
</svg>
