<svg version="1.1" xmlns="http://www.w3.org/2000/svg" width="16" height="16" viewBox="0 0 16 16">
<title>beer</title>
<path d="M10.5 1c-1.261 0.003-2.369 0.658-3.004 1.645l-0.009 0.014c-0.368-0.408-0.898-0.663-1.487-0.663-1.105 0-2 0.895-2 2 0 0.001 0 0.002 0 0.004v-0 1h-1c-1.105 0-2 0.895-2 2v0 4c0 1.105 0.895 2 2 2v0h1c0 1.105 0.895 2 2 2v0h6c1.105 0 2-0.895 2-2v0-8.5c0-1.933-1.567-3.5-3.5-3.5v0zM5 4c0-0 0-0.001 0-0.001 0-0.552 0.448-1 1-1 0.417 0 0.775 0.255 0.925 0.618l0.002 0.007c0.095 0.236 0.323 0.4 0.589 0.4 0 0 0.001 0 0.002 0h-0c0.272-0.002 0.505-0.171 0.598-0.411l0.002-0.004c0.387-0.951 1.304-1.609 2.375-1.609 0.003 0 0.006 0 0.009 0h-0c1.381 0 2.5 1.119 2.5 2.5v0 0.5h-1c-1.105 0-2 0.895-2 2v0 1.5c0 0.276-0.224 0.5-0.5 0.5s-0.5-0.224-0.5-0.5v0-1.5c0-1.105-0.895-2-2-2v0h-2zM3 12c-0.552 0-1-0.448-1-1v0-4c0-0.552 0.448-1 1-1v0h1v6zM12 14h-6c-0.552 0-1-0.448-1-1v0-7h2c0.552 0 1 0.448 1 1v0 1.5c0 0.828 0.672 1.5 1.5 1.5s1.5-0.672 1.5-1.5v0-1.5c0-0.552 0.448-1 1-1v0h1v7c0 0.552-0.448 1-1 1v0z"></path>
</svg>
