<svg version="1.1" xmlns="http://www.w3.org/2000/svg" width="16" height="16" viewBox="0 0 16 16">
<title>bell-slash</title>
<path d="M9 15c0 0.552-0.448 1-1 1s-1-0.448-1-1c0-0.552 0.448-1 1-1s1 0.448 1 1z"></path>
<path d="M13.673 0.109c-0.216-0.171-0.529-0.138-0.703 0.078l-2.291 2.864c-0.471-0.425-1.042-0.744-1.679-0.909v-1.142c0-0.551-0.448-1-1-1s-1 0.449-1 1v1.142c-1.737 0.45-3 2.034-3 3.848v2.45c0 0.595-0.174 1.17-0.504 1.664l-1.412 2.118c-0.103 0.153-0.112 0.351-0.024 0.513 0.086 0.163 0.255 0.265 0.44 0.265h0.22l-1.75 2.188c-0.172 0.216-0.138 0.53 0.078 0.703 0.093 0.073 0.202 0.109 0.312 0.109 0.146 0 0.292-0.064 0.391-0.188l0.495-0.618 0.003-0.007 11.505-14.381c0.167-0.216 0.133-0.525-0.081-0.697zM13.916 12.223l-1.412-2.118c-0.33-0.495-0.504-1.070-0.504-1.665v-2.45c0-0.402-0.066-0.791-0.185-1.159l-6.535 8.169h8.22c0.185 0 0.354-0.102 0.44-0.264 0.088-0.163 0.079-0.36-0.024-0.513z"></path>
</svg>
