<svg version="1.1" xmlns="http://www.w3.org/2000/svg" width="16" height="16" viewBox="0 0 16 16">
<title>bell-o</title>
<path d="M9 15c0 0.552-0.448 1-1 1s-1-0.448-1-1c0-0.552 0.448-1 1-1s1 0.448 1 1z"></path>
<path d="M14.916 12.223l-1.412-2.118c-0.33-0.495-0.504-1.070-0.504-1.665v-1.44c0-1.981-1.191-3.772-3-4.564v-0.436c0-1.103-0.897-2-2-2s-2 0.897-2 2v0.436c-1.809 0.792-3 2.583-3 4.564v1.44c0 0.595-0.174 1.17-0.504 1.664l-1.412 2.118c-0.103 0.153-0.112 0.351-0.024 0.513 0.086 0.163 0.255 0.265 0.44 0.265h13c0.185 0 0.354-0.102 0.44-0.264 0.088-0.163 0.079-0.36-0.024-0.513zM2.435 12l0.894-1.341c0.439-0.659 0.671-1.426 0.671-2.219v-1.44c0-1.678 1.072-3.186 2.668-3.753 0.199-0.071 0.332-0.26 0.332-0.472v-0.775c0-0.551 0.448-1 1-1s1 0.449 1 1v0.775c0 0.211 0.133 0.4 0.332 0.471 1.596 0.568 2.668 2.076 2.668 3.754v1.44c0 0.793 0.232 1.56 0.672 2.219l0.893 1.341h-11.13z"></path>
</svg>
