<svg version="1.1" xmlns="http://www.w3.org/2000/svg" width="16" height="16" viewBox="0 0 16 16">
<title>bell-slash-o</title>
<path d="M9.22 15c0 0.552-0.448 1-1 1s-1-0.448-1-1c0-0.552 0.448-1 1-1s1 0.448 1 1z"></path>
<path d="M15.136 12.223l-1.413-2.118c-0.328-0.495-0.503-1.070-0.503-1.665v-1.44c0-0.924-0.27-1.8-0.733-2.559l-0.682 0.852c0.258 0.525 0.415 1.1 0.415 1.707v1.44c0 0.792 0.232 1.56 0.671 2.219l0.895 1.341h-7.345l-0.8 1h9.080c0.185 0 0.354-0.102 0.441-0.264s0.076-0.36-0.026-0.513zM14.033 0.109c-0.216-0.172-0.53-0.136-0.703 0.078l-2.216 2.77c-0.279-0.199-0.572-0.381-0.893-0.522v-0.435c0-1.103-0.897-2-2-2s-2 0.897-2 2v0.436c-1.808 0.792-3 2.583-3 4.564v1.44c0 0.594-0.174 1.169-0.504 1.664l-1.412 2.118c-0.102 0.153-0.112 0.351-0.025 0.513s0.256 0.265 0.44 0.265h1.36l-1.75 2.188c-0.172 0.216-0.137 0.53 0.078 0.703 0.092 0.073 0.202 0.109 0.312 0.109 0.147 0 0.292-0.064 0.391-0.188l0.496-0.62 0.003-0.005 11.504-14.38c0.168-0.215 0.132-0.526-0.081-0.698zM3.88 12h-1.226l0.894-1.341c0.44-0.659 0.672-1.427 0.672-2.219v-1.44c0-1.678 1.072-3.186 2.667-3.753 0.2-0.071 0.333-0.26 0.333-0.472v-0.775c0-0.551 0.449-1 1-1s1 0.449 1 1v0.775c0 0.211 0.133 0.4 0.333 0.471 0.34 0.121 0.65 0.292 0.937 0.491l-6.61 8.263z"></path>
</svg>
