<svg version="1.1" xmlns="http://www.w3.org/2000/svg" width="16" height="16" viewBox="0 0 16 16">
<title>bell</title>
<path d="M9 15c0 0.552-0.448 1-1 1s-1-0.448-1-1c0-0.552 0.448-1 1-1s1 0.448 1 1z"></path>
<path d="M13.916 12.223l-1.412-2.118c-0.33-0.495-0.504-1.071-0.504-1.665v-2.45c0-1.814-1.262-3.398-3-3.849v-1.141c0-0.551-0.449-1-1-1s-1 0.449-1 1v1.142c-1.738 0.45-3 2.034-3 3.848v2.45c0 0.594-0.174 1.169-0.504 1.664l-1.412 2.118c-0.102 0.153-0.112 0.351-0.025 0.513s0.256 0.265 0.441 0.265h11c0.185 0 0.354-0.102 0.441-0.264s0.077-0.36-0.025-0.513z"></path>
</svg>
