<svg version="1.1" xmlns="http://www.w3.org/2000/svg" width="16" height="16" viewBox="0 0 16 16">
<title>bicycle</title>
<path d="M11 3c0 0.552-0.448 1-1 1s-1-0.448-1-1c0-0.552 0.448-1 1-1s1 0.448 1 1z"></path>
<path d="M3 7.998c-1.654 0-3 1.346-3 3s1.346 3 3 3 3-1.346 3-3-1.346-3-3-3zM3 12.998c-1.103 0-2-0.897-2-2s0.897-2 2-2 2 0.897 2 2-0.897 2-2 2zM13 7.998c-1.654 0-3 1.346-3 3s1.346 3 3 3 3-1.346 3-3-1.346-3-3-3zM13 12.998c-1.103 0-2-0.897-2-2s0.897-2 2-2 2 0.897 2 2-0.897 2-2 2zM8.724 8.053l-3.106-1.553 2.783-1.392 1.745 1.745c0.094 0.094 0.221 0.147 0.354 0.147h2c0.276 0 0.5-0.224 0.5-0.5s-0.224-0.5-0.5-0.5h-1.793l-1.853-1.854c-0.153-0.151-0.384-0.188-0.578-0.093l-4 2c-0.169 0.085-0.276 0.258-0.276 0.447s0.107 0.362 0.276 0.447l3.612 1.806-0.863 2.588c-0.087 0.262 0.054 0.545 0.316 0.632l0.159 0.027c0.209 0 0.404-0.132 0.474-0.342l1-3c0.079-0.236-0.028-0.494-0.25-0.605z"></path>
</svg>
