<svg version="1.1" xmlns="http://www.w3.org/2000/svg" width="16" height="16" viewBox="0 0 16 16">
<title>binoculars</title>
<path d="M16 11.239v-0.091c0-0.003 0-0.007 0-0.011 0-2.25-0.426-4.4-1.202-6.374l0.041 0.118-1-2.6c-0.3-0.754-1.022-1.278-1.868-1.281h-0.971c-1.105 0-2 0.895-2 2v0 2h-1.995v-2c0-1.105-0.895-2-2-2v0h-0.976c-0.846 0.004-1.568 0.529-1.862 1.27l-0.005 0.014-0.931 2.424c-0.765 1.934-1.214 4.174-1.226 6.517l-0 0.005c-0.005 0.089-0.005 0.179-0.005 0.27 0 1.933 1.567 3.5 3.5 3.5s3.5-1.567 3.5-3.5v0h0.010v-2.5h1.99v2.5h0.010c0 1.933 1.567 3.5 3.5 3.5s3.5-1.567 3.5-3.5v0c-0.005-0.088-0.010-0.175-0.010-0.261zM3.5 14c-1.381 0-2.5-1.119-2.5-2.5v0 0-0.218c0.116-1.284 1.187-2.282 2.49-2.282 1.381 0 2.5 1.119 2.5 2.5 0 1.377-1.114 2.495-2.49 2.5h-0.001zM6.010 9.063c-0.636-0.656-1.525-1.063-2.509-1.063-0.892 0-1.705 0.334-2.322 0.884l0.003-0.003c0.205-1.428 0.55-2.714 1.029-3.932l-0.041 0.118 0.93-2.425c0.149-0.376 0.508-0.638 0.928-0.642h0.977c0.552 0 1 0.448 1 1v0 2h-0.005v4zM7.005 8v-2h1.99v2zM9.995 9h0.005v-1h-0.005v-2h0.005v-1h-0.005v-2c0-0.552 0.448-1 1-1v0h0.976c0.423 0.002 0.784 0.264 0.932 0.635l0.002 0.007 1 2.6c0.419 1.056 0.746 2.29 0.927 3.571l0.010 0.087c-0.616-0.556-1.437-0.897-2.337-0.897-0.984 0-1.874 0.407-2.509 1.062l-0.001 0.001zM12.505 14c-1.379-0.002-2.496-1.121-2.496-2.5 0-1.381 1.119-2.5 2.5-2.5 1.305 0 2.377 1 2.49 2.276l0.001 0.010v0.214h0.010c0 0 0 0 0 0 0 1.381-1.119 2.5-2.5 2.5-0.002 0-0.004 0-0.005 0h0z"></path>
</svg>
