<svg version="1.1" xmlns="http://www.w3.org/2000/svg" width="16" height="16" viewBox="0 0 16 16">
<title>birthday-cake</title>
<path d="M14 10.019c-0.007-1.065-0.848-1.932-1.903-1.979l-0.004-0c-0.71-1.652-2.245-2.827-4.072-3.012l-0.021-0.002v-1.112c0.587-0.212 0.999-0.765 0.999-1.414 0-0.275-0.074-0.532-0.203-0.753l0.004 0.007-0.867-1.504c-0.088-0.15-0.249-0.25-0.433-0.25s-0.345 0.099-0.432 0.248l-0.001 0.002-0.867 1.504c-0.125 0.214-0.199 0.472-0.199 0.746 0 0.649 0.412 1.201 0.988 1.41l0.010 0.003v1.112c-1.848 0.187-3.383 1.362-4.081 2.982l-0.012 0.032c-1.060 0.041-1.904 0.911-1.904 1.978 0 0.973 0.701 1.781 1.626 1.948l0.012 0.002 1.391 3.709c0.073 0.191 0.255 0.324 0.468 0.324h6c0.213 0 0.395-0.133 0.467-0.321l0.001-0.003 1.391-3.709c0.935-0.171 1.636-0.977 1.641-1.947v-0.001zM7.065 2.252l0.435-0.752 0.435 0.753c0.041 0.071 0.065 0.156 0.065 0.247 0 0.276-0.224 0.5-0.5 0.5s-0.5-0.224-0.5-0.5c0-0.091 0.024-0.176 0.066-0.249l-0.001 0.002zM10.153 15h-5.306l-1.169-3.118c0.327-0.119 0.603-0.309 0.82-0.552l0.002-0.002c0.37 0.413 0.905 0.672 1.5 0.672s1.13-0.259 1.498-0.67l0.002-0.002c0.37 0.413 0.905 0.672 1.5 0.672s1.13-0.259 1.498-0.67l0.002-0.002c0.219 0.245 0.495 0.435 0.808 0.55l0.014 0.004zM12 11c-0 0-0 0-0.001 0-0.548 0-0.993-0.445-0.993-0.993 0-0.013 0-0.025 0.001-0.038l-0 0.002c0-0.006 0-0.013 0-0.020 0-0.137-0.055-0.261-0.144-0.352l0 0c-0.088-0.097-0.215-0.157-0.355-0.157-0.152 0-0.287 0.070-0.375 0.18l-0.001 0.001c-0.083 0.097-0.133 0.223-0.133 0.361 0 0.014 0 0.027 0.001 0.041l-0-0.002c0.001 0.017 0.002 0.036 0.002 0.056 0 0.552-0.448 1-1 1s-1-0.448-1-1c0-0.037 0.002-0.073 0.006-0.108l-0 0.004c0-0.007 0.001-0.015 0.001-0.023 0-0.137-0.055-0.261-0.145-0.352l0 0c-0.093-0.085-0.217-0.138-0.353-0.138-0.148 0-0.282 0.062-0.378 0.162l-0 0c-0.083 0.097-0.133 0.223-0.133 0.361 0 0.014 0 0.027 0.001 0.041l-0-0.002c0.001 0.017 0.002 0.036 0.002 0.056 0 0.552-0.448 1-1 1s-1-0.448-1-1c0-0.037 0.002-0.073 0.006-0.108l-0 0.004c0-0.007 0.001-0.016 0.001-0.024 0-0.137-0.055-0.261-0.145-0.352l0 0c-0.093-0.085-0.217-0.138-0.353-0.138-0.148 0-0.282 0.062-0.378 0.162l-0 0c-0.083 0.097-0.133 0.223-0.133 0.361 0 0.014 0 0.027 0.001 0.041l-0-0.002c0 0.552-0.448 1-1 1s-1-0.448-1-1v0c0.021-0.543 0.466-0.975 1.012-0.975 0.054 0 0.107 0.004 0.158 0.012l-0.006-0.001c0.022 0.004 0.048 0.006 0.075 0.006 0.22 0 0.408-0.141 0.477-0.337l0.001-0.004c0.546-1.595 2.033-2.721 3.782-2.721s3.236 1.126 3.774 2.693l0.008 0.028c0.068 0.2 0.255 0.341 0.474 0.341 0.028 0 0.055-0.002 0.082-0.007l-0.003 0c0.046-0.007 0.098-0.011 0.152-0.011 0.544 0 0.989 0.429 1.013 0.967l0 0.002c-0.006 0.543-0.448 0.981-0.992 0.981-0.003 0-0.006-0-0.008-0h0z"></path>
</svg>
