<svg version="1.1" xmlns="http://www.w3.org/2000/svg" width="16" height="16" viewBox="0 0 16 16">
<title>blind</title>
<path d="M6.5 3c0.828 0 1.5-0.672 1.5-1.5s-0.672-1.5-1.5-1.5c-0.828 0-1.5 0.672-1.5 1.5v0c0 0.828 0.672 1.5 1.5 1.5v0zM6.5 1c0.276 0 0.5 0.224 0.5 0.5s-0.224 0.5-0.5 0.5c-0.276 0-0.5-0.224-0.5-0.5v0c0-0.276 0.224-0.5 0.5-0.5v0z"></path>
<path d="M13.855 15.381l-2-5.99c-0.051-0.15-0.191-0.256-0.355-0.256-0.207 0-0.374 0.168-0.374 0.374 0 0.042 0.007 0.083 0.020 0.121l-0.001-0.003 2 5.991c0.051 0.15 0.191 0.256 0.355 0.256 0 0 0 0 0 0v0c0.001 0 0.002 0 0.002 0 0.042 0 0.082-0.007 0.119-0.021l-0.002 0.001c0.15-0.051 0.256-0.191 0.256-0.355 0-0.043-0.007-0.084-0.020-0.122l0.001 0.003z"></path>
<path d="M8.639 7.109c0.362 0.54 0.97 0.891 1.661 0.891 0 0 0 0 0 0h1.2c0.276 0 0.5-0.224 0.5-0.5s-0.224-0.5-0.5-0.5v0h-1.2c-0 0-0 0-0 0-0.345 0-0.65-0.175-0.83-0.441l-0.002-0.004-1.255-1.887c-0.273-0.405-0.73-0.668-1.248-0.668h-0.965c-0.489 0.001-0.923 0.235-1.197 0.596l-0.003 0.004-2.7 3.6c-0.062 0.083-0.1 0.187-0.1 0.3 0 0.276 0.224 0.5 0.5 0.5 0.163 0 0.308-0.078 0.399-0.199l0.001-0.001 2.1-2.8v6.084c0 0 0 0.001 0 0.001 0 0.138-0.056 0.264-0.147 0.354l-0 0-1.717 1.707c-0.1 0.092-0.162 0.223-0.162 0.369 0 0.276 0.224 0.5 0.5 0.5 0.145 0 0.276-0.062 0.367-0.16l0-0 1.717-1.706c0.272-0.273 0.441-0.648 0.442-1.064v-2.084h1.14l1.886 5.658c0.068 0.2 0.255 0.342 0.474 0.342h0c0 0 0 0 0.001 0 0.056 0 0.11-0.010 0.161-0.027l-0.003 0.001c0.2-0.068 0.342-0.255 0.342-0.474 0-0.056-0.009-0.111-0.027-0.161l0.001 0.004-1.974-5.923v-3.268zM6 9v-4h0.965c0.012 0 0.023 0.008 0.035 0.009v3.991z"></path>
</svg>
