<svg version="1.1" xmlns="http://www.w3.org/2000/svg" width="16" height="16" viewBox="0 0 16 16">
<title>bold</title>
<path d="M11.328 7.562c0.504-0.692 0.741-1.556 0.654-2.42-0.177-1.762-1.769-3.142-3.625-3.142h-4.857c-0.276 0-0.5 0.224-0.5 0.5v11c0 0.276 0.224 0.5 0.5 0.5h6c0.987 0 1.933-0.42 2.596-1.152s0.985-1.718 0.886-2.705c-0.108-1.081-0.748-2.017-1.654-2.581zM9.992 5.342c0.043 0.432-0.092 0.846-0.379 1.164-0.284 0.314-0.69 0.494-1.113 0.494h-3.5v-3h3.357c0.841 0 1.56 0.589 1.635 1.342zM10.613 11.506c-0.284 0.314-0.69 0.494-1.113 0.494h-4.5v-3h4.357c0.841 0 1.559 0.589 1.634 1.342 0.044 0.432-0.091 0.846-0.378 1.164z"></path>
</svg>
