<svg version="1.1" xmlns="http://www.w3.org/2000/svg" width="16" height="16" viewBox="0 0 16 16">
<title>bomb</title>
<path d="M7.527 8.197c-0.298 0.126-0.566 0.306-0.795 0.535-0.228 0.229-0.409 0.496-0.535 0.794-0.108 0.254 0.011 0.548 0.265 0.656l0.195 0.040c0.194 0 0.38-0.114 0.46-0.305 0.076-0.179 0.185-0.34 0.323-0.478 0.137-0.138 0.297-0.246 0.476-0.321 0.255-0.108 0.374-0.401 0.267-0.655-0.109-0.255-0.403-0.374-0.656-0.266zM8.994 2c0-0.551 0.448-1 1-1s1 0.449 1 1c0 1.103 0.897 2 2 2s2-0.897 2-2c0-0.276-0.224-0.5-0.5-0.5s-0.5 0.224-0.5 0.5c0 0.551-0.448 1-1 1s-1-0.449-1-1c0-1.103-0.897-2-2-2h-0.002c-1.103 0-2 0.897-2 2v1h-0.492c-0.276 0-0.5 0.224-0.5 0.5v1.713c-2.305 0.655-4 2.775-4 5.287 0 3.033 2.468 5.5 5.5 5.5s5.5-2.467 5.5-5.5c0-2.512-1.695-4.632-4-5.287v-1.713c0-0.276-0.224-0.5-0.5-0.5h-0.508v-0.99l0.002-0.010zM13 10.5c0 2.481-2.019 4.5-4.5 4.5s-4.5-2.019-4.5-4.5 2.019-4.5 4.5-4.5 4.5 2.019 4.5 4.5zM9 5.025c-0.165-0.015-0.331-0.025-0.5-0.025l-0.5 0.025v-1.025h1v1.025z"></path>
</svg>
