<svg version="1.1" xmlns="http://www.w3.org/2000/svg" width="16" height="16" viewBox="0 0 16 16">
<title>bookmark-o</title>
<path d="M11 2h-6c-0.552 0-1 0.448-1 1v0 10.5c0 0.276 0.224 0.499 0.5 0.499 0.15 0 0.284-0.066 0.376-0.17l0-0.001 3.124-3.569 3.124 3.569c0.092 0.105 0.226 0.171 0.376 0.171h0c0.063-0 0.124-0.012 0.18-0.033l-0.004 0.001c0.191-0.073 0.324-0.255 0.324-0.468v0-10.5c0-0.552-0.448-1-1-1v0zM11 12.169l-2.624-3c-0.092-0.105-0.226-0.17-0.376-0.17s-0.284 0.066-0.376 0.17l-0 0.001-2.624 3v-9.169h6z"></path>
</svg>
