<svg version="1.1" xmlns="http://www.w3.org/2000/svg" width="16" height="16" viewBox="0 0 16 16">
<title>book</title>
<path d="M15.667 2.377c-2.596-0.919-5.477-0.066-7.167 1.972-1.69-2.038-4.571-2.89-7.167-1.972-0.2 0.071-0.333 0.26-0.333 0.472v10c0 0.162 0.079 0.314 0.211 0.408s0.302 0.117 0.456 0.063c2.395-0.849 5.051 0.086 6.417 2.143 0.093 0.139 0.249 0.223 0.417 0.223s0.324-0.084 0.417-0.223c1.365-2.058 4.019-2.992 6.417-2.143 0.154 0.054 0.323 0.031 0.456-0.063 0.13-0.094 0.209-0.246 0.209-0.408v-10c0-0.212-0.133-0.401-0.333-0.472zM3.5 12c-0.503 0-1.005 0.060-1.5 0.179v-8.966c2.276-0.651 4.706 0.266 6.023 2.173l-0.023 0.114v8.312c-1.198-1.152-2.801-1.812-4.5-1.812zM15 12.179c-2.17-0.522-4.439 0.15-6 1.647v-8.326l-0.023-0.114c1.317-1.907 3.748-2.825 6.023-2.173v8.966z"></path>
</svg>
