<svg version="1.1" xmlns="http://www.w3.org/2000/svg" width="16" height="16" viewBox="0 0 16 16">
<title>box-arrow-in-south</title>
<path d="M4.47 7.47c-0.136 0.136-0.22 0.323-0.22 0.53s0.084 0.394 0.22 0.53l3 3c0.135 0.136 0.323 0.22 0.53 0.22s0.395-0.084 0.53-0.22l3-3c0.125-0.134 0.201-0.313 0.201-0.511 0-0.414-0.336-0.75-0.75-0.75-0.198 0-0.378 0.077-0.512 0.202l0-0-1.72 1.719v-8.189c0-0.414-0.336-0.75-0.75-0.75s-0.75 0.336-0.75 0.75v0 8.189l-1.72-1.719c-0.136-0.136-0.323-0.22-0.53-0.22s-0.394 0.084-0.53 0.22l-0 0z"></path>
<path d="M13 1h-1.5c-0.276 0-0.5 0.224-0.5 0.5s0.224 0.5 0.5 0.5v0h1.5c0.552 0 1 0.448 1 1v0 10c0 0.552-0.448 1-1 1v0h-10c-0.552 0-1-0.448-1-1v0-10c0-0.552 0.448-1 1-1v0h1.5c0.276 0 0.5-0.224 0.5-0.5s-0.224-0.5-0.5-0.5v0h-1.5c-1.105 0-2 0.895-2 2v0 10c0 1.105 0.895 2 2 2v0h10c1.105 0 2-0.895 2-2v0-10c0-1.105-0.895-2-2-2v0z"></path>
</svg>
