<svg version="1.1" xmlns="http://www.w3.org/2000/svg" width="16" height="16" viewBox="0 0 16 16">
<title>box-arrow-in-sw</title>
<path d="M6.75 5c0-0.414-0.336-0.75-0.75-0.75s-0.75 0.336-0.75 0.75v0 5c0 0.414 0.336 0.75 0.75 0.75v0h5c0.414 0 0.75-0.336 0.75-0.75s-0.336-0.75-0.75-0.75v0h-3.158l5.72-5.72c0.135-0.136 0.219-0.323 0.219-0.53 0-0.414-0.336-0.75-0.75-0.75-0.207 0-0.395 0.084-0.531 0.22l-5.75 5.751z"></path>
<path d="M14.5 7c-0.276 0-0.5 0.224-0.5 0.5v0 5.5c0 0.552-0.448 1-1 1v0h-10c-0.552 0-1-0.448-1-1v0-10c0-0.552 0.448-1 1-1v0h5.5c0.276 0 0.5-0.224 0.5-0.5s-0.224-0.5-0.5-0.5v0h-5.5c-1.105 0-2 0.895-2 2v0 10c0 1.105 0.895 2 2 2v0h10c1.105 0 2-0.895 2-2v0-5.5c0-0.276-0.224-0.5-0.5-0.5v0z"></path>
</svg>
