<svg version="1.1" xmlns="http://www.w3.org/2000/svg" width="16" height="16" viewBox="0 0 16 16">
<title>box-arrow-out-east</title>
<path d="M15.53 7.47l-3-3c-0.134-0.125-0.313-0.201-0.511-0.201-0.414 0-0.75 0.336-0.75 0.75 0 0.198 0.077 0.378 0.202 0.512l-0-0 1.719 1.72h-8.189c-0.414 0-0.75 0.336-0.75 0.75s0.336 0.75 0.75 0.75h8.189l-1.719 1.72c-0.147 0.137-0.239 0.332-0.239 0.549 0 0.414 0.336 0.75 0.75 0.75 0.216 0 0.411-0.092 0.548-0.238l0-0 3-3c0.136-0.136 0.22-0.323 0.22-0.53s-0.084-0.394-0.22-0.53l-0-0z"></path>
<path d="M14.5 12.5c-0.276 0-0.5 0.224-0.5 0.5v0c0 0.552-0.448 1-1 1v0h-10c-0.552 0-1-0.448-1-1v0-10c0-0.552 0.448-1 1-1v0h10c0.552 0 1 0.448 1 1v0c0 0.276 0.224 0.5 0.5 0.5s0.5-0.224 0.5-0.5v0c0-1.105-0.895-2-2-2v0h-10c-1.105 0-2 0.895-2 2v0 10c0 1.105 0.895 2 2 2v0h10c1.105 0 2-0.895 2-2v0c0-0.276-0.224-0.5-0.5-0.5v0z"></path>
</svg>
