<svg version="1.1" xmlns="http://www.w3.org/2000/svg" width="16" height="16" viewBox="0 0 16 16">
<title>box-arrow-out-se</title>
<path d="M13.032 7.25c-0.414 0-0.75 0.336-0.75 0.75v0 3.221l-5.752-5.751c-0.134-0.125-0.313-0.201-0.511-0.201-0.414 0-0.75 0.336-0.75 0.75 0 0.198 0.077 0.378 0.202 0.512l-0-0 5.719 5.72h-3.157c-0.414 0-0.75 0.336-0.75 0.75s0.336 0.75 0.75 0.75v0h5c0.414 0 0.75-0.336 0.75-0.75v0-5c0-0.414-0.336-0.75-0.75-0.75v0z"></path>
<path d="M13 1h-10c-1.105 0-2 0.895-2 2v0 10c0 1.105 0.895 2 2 2v0h1.5c0.276 0 0.5-0.224 0.5-0.5s-0.224-0.5-0.5-0.5v0h-1.5c-0.552 0-1-0.448-1-1v0-10c0-0.552 0.448-1 1-1v0h10c0.552 0 1 0.448 1 1v0 1.5c0 0.276 0.224 0.5 0.5 0.5s0.5-0.224 0.5-0.5v0-1.5c0-1.105-0.895-2-2-2v0z"></path>
</svg>
