<svg version="1.1" xmlns="http://www.w3.org/2000/svg" width="16" height="16" viewBox="0 0 16 16">
<title>box-arrow-in-se</title>
<path d="M8.158 9.25h-3.158c-0.414 0-0.75 0.336-0.75 0.75s0.336 0.75 0.75 0.75v0h5c0.414 0 0.75-0.336 0.75-0.75v0-5c0-0.414-0.336-0.75-0.75-0.75s-0.75 0.336-0.75 0.75v0 3.221l-5.75-5.751c-0.136-0.136-0.324-0.22-0.531-0.22-0.414 0-0.75 0.336-0.75 0.75 0 0.207 0.084 0.394 0.219 0.53l-0-0z"></path>
<path d="M13 1h-5.5c-0.276 0-0.5 0.224-0.5 0.5s0.224 0.5 0.5 0.5v0h5.5c0.552 0 1 0.448 1 1v0 10c0 0.552-0.448 1-1 1v0h-10c-0.552 0-1-0.448-1-1v0-5.5c0-0.276-0.224-0.5-0.5-0.5s-0.5 0.224-0.5 0.5v0 5.5c0 1.105 0.895 2 2 2v0h10c1.105 0 2-0.895 2-2v0-10c0-1.105-0.895-2-2-2v0z"></path>
</svg>
