<svg version="1.1" xmlns="http://www.w3.org/2000/svg" width="16" height="16" viewBox="0 0 16 16">
<title>box-arrow-in-nw</title>
<path d="M7.842 6.75h3.158c0.414 0 0.75-0.336 0.75-0.75s-0.336-0.75-0.75-0.75v0h-5c-0.414 0-0.75 0.336-0.75 0.75v0 5c0 0.414 0.336 0.75 0.75 0.75s0.75-0.336 0.75-0.75v0-3.221l5.75 5.751c0.137 0.141 0.328 0.229 0.54 0.229 0.414 0 0.75-0.336 0.75-0.75 0-0.212-0.088-0.403-0.229-0.539l-0-0z"></path>
<path d="M13 1h-10c-1.105 0-2 0.895-2 2v0 10c0 1.105 0.895 2 2 2v0h5.5c0.276 0 0.5-0.224 0.5-0.5s-0.224-0.5-0.5-0.5v0h-5.5c-0.552 0-1-0.448-1-1v0-10c0-0.552 0.448-1 1-1v0h10c0.552 0 1 0.448 1 1v0 5.5c0 0.276 0.224 0.5 0.5 0.5s0.5-0.224 0.5-0.5v0-5.5c0-1.105-0.895-2-2-2v0z"></path>
</svg>
