<svg version="1.1" xmlns="http://www.w3.org/2000/svg" width="16" height="16" viewBox="0 0 16 16">
<title>braille</title>
<path d="M5 0c-1.105 0-2 0.895-2 2s0.895 2 2 2c1.105 0 2-0.895 2-2v0c0-1.105-0.895-2-2-2v0zM5 3c-0.552 0-1-0.448-1-1s0.448-1 1-1c0.552 0 1 0.448 1 1v0c0 0.552-0.448 1-1 1v0z"></path>
<path d="M11 4c1.105 0 2-0.895 2-2s-0.895-2-2-2c-1.105 0-2 0.895-2 2v0c0 1.105 0.895 2 2 2v0zM11 1c0.552 0 1 0.448 1 1s-0.448 1-1 1c-0.552 0-1-0.448-1-1v0c0-0.552 0.448-1 1-1v0z"></path>
<path d="M5 6c-1.105 0-2 0.895-2 2s0.895 2 2 2c1.105 0 2-0.895 2-2v0c0-1.105-0.895-2-2-2v0zM5 9c-0.552 0-1-0.448-1-1s0.448-1 1-1c0.552 0 1 0.448 1 1v0c0 0.552-0.448 1-1 1v0z"></path>
<path d="M11 6c-1.105 0-2 0.895-2 2s0.895 2 2 2c1.105 0 2-0.895 2-2v0c0-1.105-0.895-2-2-2v0zM11 9c-0.552 0-1-0.448-1-1s0.448-1 1-1c0.552 0 1 0.448 1 1v0c0 0.552-0.448 1-1 1v0z"></path>
<path d="M5 12c-1.105 0-2 0.895-2 2s0.895 2 2 2c1.105 0 2-0.895 2-2v0c0-1.105-0.895-2-2-2v0zM5 15c-0.552 0-1-0.448-1-1s0.448-1 1-1c0.552 0 1 0.448 1 1v0c0 0.552-0.448 1-1 1v0z"></path>
<path d="M11 12c-1.105 0-2 0.895-2 2s0.895 2 2 2c1.105 0 2-0.895 2-2v0c0-1.105-0.895-2-2-2v0zM11 15c-0.552 0-1-0.448-1-1s0.448-1 1-1c0.552 0 1 0.448 1 1v0c0 0.552-0.448 1-1 1v0z"></path>
</svg>
