<svg version="1.1" xmlns="http://www.w3.org/2000/svg" width="16" height="16" viewBox="0 0 16 16">
<title>breadcrumb</title>
<path d="M15.895 7.693l-3.5-4.5c-0.095-0.122-0.241-0.193-0.395-0.193h-11.5c-0.276 0-0.5 0.224-0.5 0.5v9c0 0.276 0.224 0.5 0.5 0.5h11.5c0.154 0 0.3-0.071 0.395-0.193l3.5-4.5c0.14-0.181 0.14-0.433 0-0.614zM1 12v-8h2.255l3.111 4-3.111 4h-2.255zM4.522 12l2.872-3.693c0.141-0.181 0.141-0.434 0-0.614l-2.872-3.693h2.733l3.111 4-3.111 4h-2.733zM11.755 12h-3.233l2.872-3.693c0.141-0.181 0.141-0.434 0-0.614l-2.872-3.693h3.233l3.111 4-3.111 4z"></path>
</svg>
