<svg version="1.1" xmlns="http://www.w3.org/2000/svg" width="16" height="16" viewBox="0 0 16 16">
<title>briefcase</title>
<path d="M16 8.962v-2.962c0-1.105-0.895-2-2-2v0h-2v-1c0-1.105-0.895-2-2-2v0h-4c-1.105 0-2 0.895-2 2v0 1h-2c-1.105 0-2 0.895-2 2v0 7c0 1.105 0.895 2 2 2v0h12c1.105 0 2-0.895 2-2v0-3.958c0.001-0.012 0.002-0.026 0.002-0.040s-0.001-0.028-0.002-0.042l0 0.002zM5 3c0-0.552 0.448-1 1-1v0h4c0.552 0 1 0.448 1 1v0 1h-6zM2 5h12c0.552 0 1 0.448 1 1v0 2.735c-1.937 1.423-4.369 2.277-7 2.277s-5.063-0.854-7.033-2.3l0.033 0.023v-2.735c0-0.552 0.448-1 1-1v0zM14 14h-12c-0.552 0-1-0.448-1-1v0-3.084c1.985 1.271 4.4 2.039 6.991 2.071l0.009 0c2.6-0.031 5.015-0.798 7.054-2.101l-0.054 0.032v3.082c0 0.552-0.448 1-1 1v0z"></path>
<path d="M6.474 7.984h3c0.276 0 0.5-0.224 0.5-0.5s-0.224-0.5-0.5-0.5v0h-3c-0.276 0-0.5 0.224-0.5 0.5s0.224 0.5 0.5 0.5v0z"></path>
</svg>
