<svg id="Layer_1" data-name="Layer 1" xmlns="http://www.w3.org/2000/svg" width="16" height="16" viewBox="0 0 16 16"><path d="M15.9,2.2a.5.5,0,0,0-.7-.107L14,2.98V1.5a.5.5,0,0,0-1,0V3.713L11.245,5H11A3,3,0,0,0,5,5H4A1,1,0,0,1,3,4V1.5a.5.5,0,0,0-1,0V4A2,2,0,0,0,4,6V8H1.5a.5.5,0,0,0,0,1H4a3.957,3.957,0,0,0,.2,1.17L.2,13.1a.5.5,0,0,0,.3.9.5.5,0,0,0,.3-.1l15-11A.5.5,0,0,0,15.9,2.2ZM8,3a2,2,0,0,1,2,2H6A2,2,0,0,1,8,3ZM5,9V6H9.881L5.054,9.54A2.943,2.943,0,0,1,5,9Z"/><path d="M14.5,8H12V7.914a.5.5,0,0,0-1,0V9a3,3,0,0,1-4.668,2.493.5.5,0,1,0-.558.83A3.982,3.982,0,0,0,11.391,11.1l1.316,1.316a1.008,1.008,0,0,1,.293.707V14.5a.5.5,0,0,0,1,0V13.121a2.011,2.011,0,0,0-.586-1.414l-1.592-1.592A3.917,3.917,0,0,0,12,9h2.5a.5.5,0,0,0,0-1Z"/></svg>