<svg version="1.1" xmlns="http://www.w3.org/2000/svg" width="16" height="16" viewBox="0 0 16 16">
<title>bug</title>
<path d="M14.507 8h-2.507v-2c1.105 0 2-0.895 2-2v0-2.5c0-0.276-0.224-0.5-0.5-0.5s-0.5 0.224-0.5 0.5v0 2.5c0 0.552-0.448 1-1 1v0h-1.021c0-1.657-1.343-3-3-3s-3 1.343-3 3v0h-0.979c-0.552 0-1-0.448-1-1v0-2.5c0-0.276-0.224-0.5-0.5-0.5s-0.5 0.224-0.5 0.5v0 2.5c0 1.105 0.895 2 2 2v0 2h-2.493c-0.276 0-0.5 0.224-0.5 0.5s0.224 0.5 0.5 0.5v0h2.493c0 0.001 0 0.002 0 0.003 0 0.402 0.060 0.79 0.17 1.156l-0.007-0.028-0.017 0.015-1.546 1.554c-0.359 0.358-0.583 0.853-0.586 1.399v0.001l-0.014 1.4c0 0.276 0.224 0.5 0.5 0.5v0 0c0.276 0 0.5-0.224 0.5-0.5v0l0.009-1.4c0.002-0.274 0.114-0.521 0.293-0.7l1.3-1.3c0.717 1.144 1.971 1.893 3.4 1.893s2.683-0.749 3.39-1.876l0.010-0.017 1.3 1.3c0.18 0.179 0.292 0.426 0.294 0.7v0l0.004 1.4c0 0.276 0.224 0.5 0.5 0.5v0 0c0.276 0 0.5-0.224 0.5-0.5v0l-0.009-1.4c-0.003-0.547-0.227-1.042-0.586-1.4l-1.551-1.551-0.017-0.015c0.103-0.338 0.163-0.726 0.163-1.128 0-0.002 0-0.004 0-0.006v0h2.507c0.276 0 0.5-0.224 0.5-0.5s-0.224-0.5-0.5-0.5v0zM7.979 3c1.105 0 2 0.895 2 2v0h-4c0-1.105 0.895-2 2-2v0zM8 12c-1.657 0-3-1.343-3-3v0-0.415c0.004-0.025 0.007-0.055 0.007-0.085v-0c0-0.001 0-0.002 0-0.004 0-0.029-0.003-0.058-0.007-0.086l0 0.003v-2.413h6v3c0 1.657-1.343 3-3 3v0z"></path>
</svg>
