<svg id="Layer_1" data-name="Layer 1" xmlns="http://www.w3.org/2000/svg" width="16" height="16" viewBox="0 0 16 16"><g id="Layer_4" data-name="Layer 4"><path d="M14.5,8H11.993V6h0a2,2,0,0,0,2-2V1.5a.5.5,0,0,0-1,0V4a1,1,0,0,1-1,1H10.972a3,3,0,1,0-6,0H3.993a1,1,0,0,1-1-1V1.5a.5.5,0,1,0-1,0V4a2,2,0,0,0,2,2V8H1.5a.5.5,0,0,0,0,1H3.993a4.007,4.007,0,0,0,.163,1.131l-.017.015L2.593,11.7a1.993,1.993,0,0,0-.586,1.4l-.014,1.4a.5.5,0,0,0,.5.5h0a.5.5,0,0,0,.5-.5L3,13.1a1,1,0,0,1,.293-.7l1.3-1.3a4,4,0,0,0,6.8,0l1.3,1.3a1,1,0,0,1,.294.7l0,1.4a.5.5,0,0,0,.5.5h0a.5.5,0,0,0,.5-.5l-.009-1.4a1.993,1.993,0,0,0-.586-1.4l-1.551-1.551-.017-.015A3.957,3.957,0,0,0,11.993,9H14.5a.5.5,0,0,0,0-1ZM7.972,3a2,2,0,0,1,2,2h-4A2,2,0,0,1,7.972,3Zm.021,9a3,3,0,0,1-3-3V6h6V9A3,3,0,0,1,7.993,12Z"/></g></svg>