<svg version="1.1" xmlns="http://www.w3.org/2000/svg" width="16" height="16" viewBox="0 0 16 16">
<title>building</title>
<path d="M14.515 14h-0.515v-9.5c0-0.276-0.224-0.5-0.5-0.5h-2.5v-1.442c0-0.273-0.22-0.496-0.493-0.5l-1.492-0.022v-1.536c0-0.276-0.224-0.5-0.5-0.5s-0.5 0.224-0.5 0.5v1.522l-1.508-0.022c-0.141 0.002-0.263 0.050-0.358 0.144s-0.149 0.222-0.149 0.356v1.5h-2.5c-0.276 0-0.5 0.224-0.5 0.5v9.5h-0.515c-0.276 0-0.5 0.224-0.5 0.5s0.224 0.5 0.5 0.5h12.030c0.276 0 0.5-0.224 0.5-0.5s-0.223-0.5-0.5-0.5zM6 13h-1v-1h1v1zM6 11h-1v-1h1v1zM6 9h-1v-1h1v1zM6 7h-1v-1h1v1zM8 14h-1v-2h1v2zM8 11h-1v-1h1v1zM8 9h-1v-1h1v1zM8 7h-1v-1h1v1zM10 14h-1v-2h1v2zM10 11h-1v-1h1v1zM10 9h-1v-1h1v1zM10 7h-1v-1h1v1zM12 13h-1v-1h1v1zM12 11h-1v-1h1v1zM12 9h-1v-1h1v1zM12 7h-1v-1h1v1z"></path>
</svg>
