<svg version="1.1" xmlns="http://www.w3.org/2000/svg" width="16" height="16" viewBox="0 0 16 16">
<title>building-o</title>
<path d="M5 6h1v1h-1zM7 6h1v1h-1zM9 6h1v1h-1zM11 6h1v1h-1zM5 8h1v1h-1zM7 8h1v1h-1zM9 8h1v1h-1zM11 8h1v1h-1zM5 10h1v1h-1zM7 10h1v1h-1zM9 10h1v1h-1zM11 10h1v1h-1zM5 12h1v1h-1zM11 12h1v1h-1zM14.515 14h-0.515v-9.5c0-0.276-0.224-0.5-0.5-0.5h-2.5v-1.442c0-0.273-0.22-0.496-0.493-0.5l-1.492-0.022v-1.536c0-0.276-0.224-0.5-0.5-0.5s-0.5 0.224-0.5 0.5v1.522l-1.508-0.022c-0.112 0.027-0.264 0.050-0.358 0.144-0.095 0.094-0.149 0.222-0.149 0.356v1.5h-2.5c-0.276 0-0.5 0.224-0.5 0.5v9.5h-0.515c-0.276 0-0.5 0.224-0.5 0.5s0.224 0.5 0.5 0.5h12.029c0.276 0 0.5-0.224 0.5-0.5s-0.223-0.5-0.499-0.5zM7 3.007l3 0.043v0.942l-3-0.042v-0.943zM10 14v-2h-1v2h-1v-2h-1v2h-3v-9h9v9h-3z"></path>
</svg>
