<svg version="1.1" xmlns="http://www.w3.org/2000/svg" width="16" height="16" viewBox="0 0 16 16">
<title>bullhorn</title>
<path d="M15.792 2.094c-0.131-0.094-0.297-0.121-0.45-0.068l-11.923 3.974h-2.919c-0.276 0-0.5 0.224-0.5 0.5v3c0 0.276 0.224 0.5 0.5 0.5h2.5v2.16c0 1.566 1.346 2.84 3 2.84 1.626 0 3-1.373 3-2.998v-0.142l6.342 2.114 0.158 0.026c0.104 0 0.206-0.032 0.292-0.094 0.131-0.094 0.208-0.245 0.208-0.406v-11c0-0.161-0.077-0.312-0.208-0.406zM1 9v-2h2v2h-2zM8 12.002c0 1.064-0.935 1.998-2 1.998-1.103 0-2-0.825-2-1.84v-1.966l4 1.333v0.475zM15 12.806l-11-3.666v-2.28l11-3.666v9.612z"></path>
</svg>
