<svg version="1.1" xmlns="http://www.w3.org/2000/svg" width="16" height="16" viewBox="0 0 16 16">
<title>bus</title>
<path d="M6 11c0 0.552-0.448 1-1 1s-1-0.448-1-1c0-0.552 0.448-1 1-1s1 0.448 1 1z"></path>
<path d="M13 11c0 0.552-0.448 1-1 1s-1-0.448-1-1c0-0.552 0.448-1 1-1s1 0.448 1 1z"></path>
<path d="M12 0h-7c-1.654 0-3 1.346-3 3v10.5c0 0.276 0.224 0.5 0.5 0.5h0.5v1.5c0 0.276 0.224 0.5 0.5 0.5h3c0.276 0 0.5-0.224 0.5-0.5v-1.5h3v1.5c0 0.276 0.224 0.5 0.5 0.5h3c0.276 0 0.5-0.224 0.5-0.5v-1.5h0.5c0.276 0 0.5-0.224 0.5-0.5v-10.5c0-1.654-1.346-3-3-3zM5 1h7c1.103 0 2 0.897 2 2h-11c0-1.103 0.897-2 2-2zM8 8h-5v-4h5v4zM9 4h5v4h-5v-4zM6 15h-2v-1h2v1zM13 15h-2v-1h2v1zM10 13h-7v-4h11v4h-4z"></path>
</svg>
