<svg version="1.1" xmlns="http://www.w3.org/2000/svg" width="16" height="16" viewBox="0 0 16 16">
<title>button-container</title>
<path d="M14 8c0-1.654-1.346-3-3-3h-6c-1.654 0-3 1.346-3 3s1.346 3 3 3h6c1.654 0 3-1.346 3-3zM11 10h-6c-1.103 0-2-0.897-2-2s0.897-2 2-2h6c1.103 0 2 0.897 2 2s-0.897 2-2 2z"></path>
<path d="M3.5 13h-2c-0.275 0-0.5-0.224-0.5-0.5v-1c0-0.276-0.224-0.5-0.5-0.5s-0.5 0.224-0.5 0.5v1c0 0.827 0.673 1.5 1.5 1.5h2c0.276 0 0.5-0.224 0.5-0.5s-0.224-0.5-0.5-0.5z"></path>
<path d="M0.5 10c0.276 0 0.5-0.224 0.5-0.5v-3c0-0.276-0.224-0.5-0.5-0.5s-0.5 0.224-0.5 0.5v3c0 0.276 0.224 0.5 0.5 0.5z"></path>
<path d="M15.5 6c-0.276 0-0.5 0.224-0.5 0.5v3c0 0.276 0.224 0.5 0.5 0.5s0.5-0.224 0.5-0.5v-3c0-0.276-0.224-0.5-0.5-0.5z"></path>
<path d="M10.5 13h-5c-0.276 0-0.5 0.224-0.5 0.5s0.224 0.5 0.5 0.5h5c0.276 0 0.5-0.224 0.5-0.5s-0.224-0.5-0.5-0.5z"></path>
<path d="M15.5 11c-0.276 0-0.5 0.224-0.5 0.5v1c0 0.276-0.225 0.5-0.5 0.5h-2c-0.276 0-0.5 0.224-0.5 0.5s0.224 0.5 0.5 0.5h2c0.827 0 1.5-0.673 1.5-1.5v-1c0-0.276-0.224-0.5-0.5-0.5z"></path>
<path d="M14.5 2h-2c-0.276 0-0.5 0.224-0.5 0.5s0.224 0.5 0.5 0.5h2c0.275 0 0.5 0.224 0.5 0.5v1c0 0.276 0.224 0.5 0.5 0.5s0.5-0.224 0.5-0.5v-1c0-0.827-0.673-1.5-1.5-1.5z"></path>
<path d="M5.5 3h5c0.276 0 0.5-0.224 0.5-0.5s-0.224-0.5-0.5-0.5h-5c-0.276 0-0.5 0.224-0.5 0.5s0.224 0.5 0.5 0.5z"></path>
<path d="M0.5 5c0.276 0 0.5-0.224 0.5-0.5v-1c0-0.276 0.225-0.5 0.5-0.5h2c0.276 0 0.5-0.224 0.5-0.5s-0.224-0.5-0.5-0.5h-2c-0.827 0-1.5 0.673-1.5 1.5v1c0 0.276 0.224 0.5 0.5 0.5z"></path>
</svg>
