<svg version="1.1" xmlns="http://www.w3.org/2000/svg" width="16" height="16" viewBox="0 0 16 16">
<title>calendar-plus-o</title>
<path d="M14 2h-1v-0.5c0-0.276-0.224-0.5-0.5-0.5s-0.5 0.224-0.5 0.5v0 0.5h-8v-0.5c0-0.276-0.224-0.5-0.5-0.5s-0.5 0.224-0.5 0.5v0 0.5h-1c-1.105 0-2 0.895-2 2v0 8c0 1.105 0.895 2 2 2v0h4.5c0.276 0 0.5-0.224 0.5-0.5s-0.224-0.5-0.5-0.5v0h-4.5c-0.552 0-1-0.448-1-1v0-6h14v0.5c0 0.276 0.224 0.5 0.5 0.5s0.5-0.224 0.5-0.5v0-2.5c0-1.105-0.895-2-2-2v0zM1 5v-1c0-0.552 0.448-1 1-1v0h1v0.5c0 0.276 0.224 0.5 0.5 0.5s0.5-0.224 0.5-0.5v0-0.5h8v0.5c0 0.276 0.224 0.5 0.5 0.5s0.5-0.224 0.5-0.5v0-0.5h1c0.552 0 1 0.448 1 1v0 1z"></path>
<path d="M15.5 12h-2.5v-2.5c0-0.276-0.224-0.5-0.5-0.5s-0.5 0.224-0.5 0.5v0 2.5h-2.5c-0.276 0-0.5 0.224-0.5 0.5s0.224 0.5 0.5 0.5v0h2.5v2.5c0 0.276 0.224 0.5 0.5 0.5s0.5-0.224 0.5-0.5v0-2.5h2.5c0.276 0 0.5-0.224 0.5-0.5s-0.224-0.5-0.5-0.5v0z"></path>
</svg>
