<svg version="1.1" xmlns="http://www.w3.org/2000/svg" width="16" height="16" viewBox="0 0 16 16">
<title>calendar-pointer</title>
<path d="M14 2h-1v-0.5c0-0.276-0.224-0.5-0.5-0.5s-0.5 0.224-0.5 0.5v0 0.5h-8v-0.5c0-0.276-0.224-0.5-0.5-0.5s-0.5 0.224-0.5 0.5v0 0.5h-1c-1.105 0-2 0.895-2 2v0 8c0 1.105 0.895 2 2 2v0h4.5c0.276 0 0.5-0.224 0.5-0.5s-0.224-0.5-0.5-0.5v0h-4.5c-0.552 0-1-0.448-1-1v0-6h14v0.5c0 0.276 0.224 0.5 0.5 0.5s0.5-0.224 0.5-0.5v0-2.5c0-1.105-0.895-2-2-2v0zM1 5v-1c0-0.552 0.448-1 1-1v0h1v0.5c0 0.276 0.224 0.5 0.5 0.5s0.5-0.224 0.5-0.5v0-0.5h8v0.5c0 0.276 0.224 0.5 0.5 0.5s0.5-0.224 0.5-0.5v0-0.5h1c0.552 0 1 0.448 1 1v0 1z"></path>
<path d="M11.854 9.146c-0.091-0.091-0.216-0.147-0.354-0.147-0.276 0-0.5 0.224-0.5 0.5 0 0 0 0.001 0 0.001v-0 4.243c0 0.207 0.126 0.385 0.306 0.461l0.003 0.001c0.056 0.024 0.122 0.038 0.191 0.038h0c0.138-0 0.263-0.056 0.354-0.147l0-0 0.75-0.751 1.008 2.355c0.079 0.178 0.254 0.3 0.458 0.3 0 0 0.001 0 0.001 0h-0c0.001 0 0.002 0 0.004 0 0.071 0 0.138-0.015 0.199-0.042l-0.003 0.001c0.18-0.078 0.303-0.255 0.303-0.46 0-0.071-0.015-0.138-0.041-0.2l0.001 0.003-0.994-2.32 0.954 0.017c0.206-0.003 0.383-0.123 0.468-0.297l0.001-0.003c0.025-0.058 0.040-0.125 0.040-0.196 0-0.138-0.056-0.263-0.146-0.353l0 0z"></path>
</svg>
