<svg version="1.1" xmlns="http://www.w3.org/2000/svg" width="16" height="16" viewBox="0 0 16 16">
<title>calendar-alarm</title>
<path d="M15.146 13.439c-0.090-0.090-0.146-0.215-0.146-0.353v0-1.586c0-1.381-1.119-2.5-2.5-2.5s-2.5 1.119-2.5 2.5v0 1.586c-0 0.138-0.056 0.263-0.146 0.353l0-0-0.708 0.707c-0.091 0.091-0.147 0.216-0.147 0.354 0 0.276 0.224 0.5 0.5 0.5 0 0 0.001 0 0.001 0h2.5v0.5c0 0.276 0.224 0.5 0.5 0.5s0.5-0.224 0.5-0.5v0-0.5h2.5c0 0 0.001 0 0.001 0 0.276 0 0.5-0.224 0.5-0.5 0-0.138-0.056-0.263-0.147-0.354l-0-0zM10.689 14c0.194-0.248 0.311-0.565 0.311-0.909 0-0.002 0-0.003-0-0.005v0-1.586c0-0.828 0.672-1.5 1.5-1.5s1.5 0.672 1.5 1.5v0 1.586c0 0.001 0 0.003 0 0.005 0 0.344 0.117 0.661 0.313 0.913l-0.002-0.003z"></path>
<path d="M14 2h-1v-0.5c0-0.276-0.224-0.5-0.5-0.5s-0.5 0.224-0.5 0.5v0 0.5h-8v-0.5c0-0.276-0.224-0.5-0.5-0.5s-0.5 0.224-0.5 0.5v0 0.5h-1c-1.105 0-2 0.895-2 2v0 8c0 1.105 0.895 2 2 2v0h4.5c0.276 0 0.5-0.224 0.5-0.5s-0.224-0.5-0.5-0.5v0h-4.5c-0.552 0-1-0.448-1-1v0-6h14v0.5c0 0.276 0.224 0.5 0.5 0.5s0.5-0.224 0.5-0.5v0-2.5c0-1.105-0.895-2-2-2v0zM1 5v-1c0-0.552 0.448-1 1-1v0h1v0.5c0 0.276 0.224 0.5 0.5 0.5s0.5-0.224 0.5-0.5v0-0.5h8v0.5c0 0.276 0.224 0.5 0.5 0.5s0.5-0.224 0.5-0.5v0-0.5h1c0.552 0 1 0.448 1 1v0 1z"></path>
</svg>
