<svg version="1.1" xmlns="http://www.w3.org/2000/svg" width="16" height="16" viewBox="0 0 16 16">
<title>calendar-user</title>
<path d="M14 2h-1v-0.5c0-0.276-0.224-0.5-0.5-0.5s-0.5 0.224-0.5 0.5v0 0.5h-8v-0.5c0-0.276-0.224-0.5-0.5-0.5s-0.5 0.224-0.5 0.5v0 0.5h-1c-1.105 0-2 0.895-2 2v0 8c0 1.105 0.895 2 2 2v0h4.5c0.276 0 0.5-0.224 0.5-0.5s-0.224-0.5-0.5-0.5v0h-4.5c-0.552 0-1-0.448-1-1v0-6h14v0.5c0 0.276 0.224 0.5 0.5 0.5s0.5-0.224 0.5-0.5v0-2.5c0-1.105-0.895-2-2-2v0zM1 5v-1c0-0.552 0.448-1 1-1v0h1v0.5c0 0.276 0.224 0.5 0.5 0.5s0.5-0.224 0.5-0.5v0-0.5h8v0.5c0 0.276 0.224 0.5 0.5 0.5s0.5-0.224 0.5-0.5v0-0.5h1c0.552 0 1 0.448 1 1v0 1z"></path>
<path d="M15.11 13.139l-0.491-0.328c0.239-0.376 0.381-0.835 0.381-1.327 0-1.381-1.119-2.5-2.5-2.5s-2.5 1.119-2.5 2.5c0 0.492 0.142 0.95 0.387 1.337l-0.006-0.010-0.491 0.328c-0.539 0.363-0.889 0.971-0.89 1.661v0.7c0 0.276 0.224 0.5 0.5 0.5s0.5-0.224 0.5-0.5v0-0.7c0-0.345 0.175-0.649 0.441-0.829l0.004-0.002 0.631-0.421c0.397 0.281 0.891 0.45 1.424 0.45s1.027-0.169 1.432-0.455l-0.008 0.005 0.631 0.421c0.27 0.182 0.445 0.486 0.445 0.831v0.7c0 0.276 0.224 0.5 0.5 0.5s0.5-0.224 0.5-0.5v0-0.7c-0.001-0.69-0.351-1.298-0.883-1.656l-0.007-0.005zM11 11.5c0-0.828 0.672-1.5 1.5-1.5s1.5 0.672 1.5 1.5c0 0.828-0.672 1.5-1.5 1.5v0c-0.828 0-1.5-0.672-1.5-1.5v0z"></path>
</svg>
