<svg version="1.1" xmlns="http://www.w3.org/2000/svg" width="16" height="16" viewBox="0 0 16 16">
<title>calendar-search</title>
<path d="M14 2h-1v-0.5c0-0.276-0.224-0.5-0.5-0.5s-0.5 0.224-0.5 0.5v0 0.5h-8v-0.5c0-0.276-0.224-0.5-0.5-0.5s-0.5 0.224-0.5 0.5v0 0.5h-1c-1.105 0-2 0.895-2 2v0 8c0 1.105 0.895 2 2 2v0h4.5c0.276 0 0.5-0.224 0.5-0.5s-0.224-0.5-0.5-0.5v0h-4.5c-0.552 0-1-0.448-1-1v0-6h14v0.5c0 0.276 0.224 0.5 0.5 0.5s0.5-0.224 0.5-0.5v0-2.5c0-1.105-0.895-2-2-2v0zM1 5v-1c0-0.552 0.448-1 1-1v0h1v0.5c0 0.276 0.224 0.5 0.5 0.5s0.5-0.224 0.5-0.5v0-0.5h8v0.5c0 0.276 0.224 0.5 0.5 0.5s0.5-0.224 0.5-0.5v0-0.5h1c0.552 0 1 0.448 1 1v0 1z"></path>
<path d="M13.583 12.876c0.261-0.386 0.417-0.862 0.417-1.374 0-0.001 0-0.001 0-0.002v0c0-1.381-1.119-2.5-2.5-2.5s-2.5 1.119-2.5 2.5c0 1.381 1.119 2.5 2.5 2.5v0c0.001 0 0.001 0 0.002 0 0.512 0 0.988-0.156 1.383-0.423l-0.009 0.006 1.27 1.271c0.091 0.091 0.216 0.147 0.354 0.147 0.276 0 0.501-0.224 0.501-0.501 0-0.138-0.056-0.263-0.147-0.354v0zM11.5 13c-0.828 0-1.5-0.672-1.5-1.5s0.672-1.5 1.5-1.5c0.828 0 1.5 0.672 1.5 1.5v0c0 0.828-0.672 1.5-1.5 1.5v0z"></path>
</svg>
