<svg version="1.1" xmlns="http://www.w3.org/2000/svg" width="16" height="16" viewBox="0 0 16 16">
<title>calendar-o</title>
<path d="M14 2h-1v-0.5c0-0.276-0.224-0.5-0.5-0.5s-0.5 0.224-0.5 0.5v0 0.5h-2v-0.5c0-0.276-0.224-0.5-0.5-0.5s-0.5 0.224-0.5 0.5v0 0.5h-2v-0.5c0-0.276-0.224-0.5-0.5-0.5s-0.5 0.224-0.5 0.5v0 0.5h-2v-0.5c0-0.276-0.224-0.5-0.5-0.5s-0.5 0.224-0.5 0.5v0 0.5h-1c-1.105 0-2 0.895-2 2v0 8c0 1.105 0.895 2 2 2v0h12c1.105 0 2-0.895 2-2v0-8c0-1.105-0.895-2-2-2v0zM15 12c0 0.552-0.448 1-1 1v0h-12c-0.552 0-1-0.448-1-1v0-8c0-0.552 0.448-1 1-1v0h1v0.5c0 0.276 0.224 0.5 0.5 0.5s0.5-0.224 0.5-0.5v0-0.5h2v0.5c0 0.276 0.224 0.5 0.5 0.5s0.5-0.224 0.5-0.5v0-0.5h2v0.5c0 0.276 0.224 0.5 0.5 0.5s0.5-0.224 0.5-0.5v0-0.5h2v0.5c0 0.276 0.224 0.5 0.5 0.5s0.5-0.224 0.5-0.5v0-0.5h1c0.552 0 1 0.448 1 1v0z"></path>
<path d="M4 6h2v2h-2v-2z"></path>
<path d="M7 6h2v2h-2v-2z"></path>
<path d="M10 6h2v2h-2v-2z"></path>
<path d="M4 9h2v2h-2v-2z"></path>
<path d="M7 9h2v2h-2v-2z"></path>
<path d="M10 9h2v2h-2v-2z"></path>
</svg>
