<svg version="1.1" xmlns="http://www.w3.org/2000/svg" width="16" height="16" viewBox="0 0 16 16">
<title>calendar-wrench</title>
<path d="M14 2h-1v-0.5c0-0.276-0.224-0.5-0.5-0.5s-0.5 0.224-0.5 0.5v0 0.5h-8v-0.5c0-0.276-0.224-0.5-0.5-0.5s-0.5 0.224-0.5 0.5v0 0.5h-1c-1.105 0-2 0.895-2 2v0 8c0 1.105 0.895 2 2 2v0h4.5c0.276 0 0.5-0.224 0.5-0.5s-0.224-0.5-0.5-0.5v0h-4.5c-0.552 0-1-0.448-1-1v0-6h14v0.5c0 0.276 0.224 0.5 0.5 0.5s0.5-0.224 0.5-0.5v0-2.5c0-1.105-0.895-2-2-2v0zM1 5v-1c0-0.552 0.448-1 1-1v0h1v0.5c0 0.276 0.224 0.5 0.5 0.5s0.5-0.224 0.5-0.5v0-0.5h8v0.5c0 0.276 0.224 0.5 0.5 0.5s0.5-0.224 0.5-0.5v0-0.5h1c0.552 0 1 0.448 1 1v0 1z"></path>
<path d="M15.526 9.888l-1.435 1.435c-0.045 0.045-0.108 0.073-0.177 0.073s-0.132-0.028-0.177-0.073v0l-1.060-1.060c-0.045-0.045-0.073-0.108-0.073-0.177s0.028-0.132 0.073-0.177v0l1.435-1.435c0.046-0.045 0.074-0.108 0.074-0.178 0-0.118-0.081-0.217-0.191-0.244l-0.002-0c-0.149-0.033-0.32-0.052-0.495-0.052-0.295 0-0.578 0.053-0.84 0.151l0.017-0.005c-0.713 0.263-1.266 0.816-1.523 1.511l-0.006 0.018c-0.092 0.245-0.146 0.529-0.146 0.825 0 0.273 0.045 0.535 0.129 0.779l-0.005-0.017c0.009 0.024 0.014 0.053 0.014 0.082 0 0.068-0.027 0.129-0.071 0.174l-2.731 2.731c-0.2 0.19-0.324 0.458-0.324 0.755 0 0.245 0.084 0.47 0.226 0.647l-0.002-0.002c0.185 0.215 0.457 0.351 0.761 0.351 0.276 0 0.526-0.112 0.707-0.293l2.774-2.774c0.045-0.044 0.106-0.071 0.174-0.071 0.029 0 0.058 0.005 0.084 0.015l-0.002-0.001c0.228 0.079 0.49 0.124 0.763 0.124 0.296 0 0.58-0.054 0.842-0.151l-0.017 0.005c0.713-0.263 1.266-0.816 1.523-1.511l0.006-0.018c0.092-0.245 0.146-0.528 0.146-0.823 0-0.175-0.019-0.346-0.054-0.511l0.003 0.016c-0.028-0.111-0.126-0.191-0.244-0.191-0.068 0-0.13 0.027-0.175 0.071l0-0z"></path>
</svg>
