<svg version="1.1" xmlns="http://www.w3.org/2000/svg" width="16" height="16" viewBox="0 0 16 16">
<title>calendar-edit</title>
<path d="M14 2h-1v-0.5c0-0.276-0.224-0.5-0.5-0.5s-0.5 0.224-0.5 0.5v0 0.5h-8v-0.5c0-0.276-0.224-0.5-0.5-0.5s-0.5 0.224-0.5 0.5v0 0.5h-1c-1.105 0-2 0.895-2 2v0 8c0 1.105 0.895 2 2 2v0h4.5c0.276 0 0.5-0.224 0.5-0.5s-0.224-0.5-0.5-0.5v0h-4.5c-0.552 0-1-0.448-1-1v0-6h14v0.5c0 0.276 0.224 0.5 0.5 0.5s0.5-0.224 0.5-0.5v0-2.5c0-1.105-0.895-2-2-2v0zM15 5h-14v-1c0-0.552 0.448-1 1-1v0h1v0.5c0 0.276 0.224 0.5 0.5 0.5s0.5-0.224 0.5-0.5v0-0.5h8v0.5c0 0.276 0.224 0.5 0.5 0.5s0.5-0.224 0.5-0.5v0-0.5h1c0.552 0 1 0.448 1 1v0z"></path>
<path d="M14.439 9c-0.429 0.002-0.818 0.176-1.1 0.457l-2.9 2.9c-0.234 0.233-0.421 0.513-0.548 0.823l-0.006 0.017-0.847 2.118c-0.022 0.055-0.035 0.118-0.035 0.185 0 0.275 0.222 0.499 0.497 0.5h0c0.067-0 0.131-0.013 0.189-0.037l-0.003 0.001 2.118-0.847c0.327-0.133 0.607-0.32 0.84-0.554l2.9-2.9c0.281-0.282 0.455-0.672 0.455-1.102 0-0.862-0.699-1.561-1.56-1.561h-0zM14.839 10.957l-2.9 2.9c-0.139 0.14-0.305 0.252-0.49 0.328l-0.010 0.004-1.039 0.411 0.415-1.036c0.080-0.195 0.192-0.361 0.332-0.5l2.9-2.9c0.1-0.094 0.235-0.152 0.384-0.152 0.31 0 0.561 0.251 0.561 0.561 0 0.149-0.058 0.284-0.153 0.385l0-0z"></path>
</svg>
