<svg version="1.1" xmlns="http://www.w3.org/2000/svg" width="16" height="16" viewBox="0 0 16 16">
<title>camera</title>
<path d="M8 6c-1.654 0-3 1.346-3 3s1.346 3 3 3 3-1.346 3-3-1.346-3-3-3zM8 11c-1.103 0-2-0.897-2-2s0.897-2 2-2 2 0.897 2 2-0.897 2-2 2zM14 4h-1.879c-0.263 0-0.521-0.106-0.707-0.293l-1.121-1.121c-0.372-0.372-0.888-0.586-1.414-0.586h-1.758c-0.526 0-1.042 0.214-1.414 0.586l-1.121 1.121c-0.187 0.187-0.444 0.293-0.707 0.293h-1.879c-1.103 0-2 0.897-2 2v6c0 1.103 0.897 2 2 2h12c1.103 0 2-0.897 2-2v-6c0-1.103-0.897-2-2-2zM15 12c0 0.552-0.448 1-1 1h-12c-0.552 0-1-0.448-1-1v-6c0-0.552 0.448-1 1-1h1.879c0.526 0 1.042-0.214 1.414-0.586l1.121-1.121c0.187-0.187 0.444-0.293 0.707-0.293h1.758c0.263 0 0.521 0.106 0.707 0.293l1.121 1.121c0.372 0.372 0.888 0.586 1.414 0.586h1.879c0.552 0 1 0.448 1 1v6z"></path>
<path d="M3 6.5c0 0.276-0.224 0.5-0.5 0.5s-0.5-0.224-0.5-0.5c0-0.276 0.224-0.5 0.5-0.5s0.5 0.224 0.5 0.5z"></path>
</svg>
