<svg version="1.1" xmlns="http://www.w3.org/2000/svg" width="16" height="16" viewBox="0 0 16 16">
<title>camera-retro</title>
<path d="M13 2h-8v-0.5c0-0.275-0.225-0.5-0.5-0.5h-1c-0.275 0-0.5 0.225-0.5 0.5v0.5c-1.103 0-2 0.897-2 2v9c0 1.103 0.897 2 2 2h10c1.103 0 2-0.897 2-2v-9c0-1.103-0.897-2-2-2zM3 3h10c0.552 0 1 0.448 1 1v4h-3.184c-0.414-1.161-1.514-2-2.816-2s-2.402 0.839-2.816 2h-3.184v-4c0-0.552 0.448-1 1-1zM10 9c0 1.103-0.897 2-2 2s-2-0.897-2-2 0.897-2 2-2 2 0.897 2 2zM13 14h-10c-0.552 0-1-0.448-1-1v-4h3c0 1.654 1.346 3 3 3s3-1.346 3-3h3v4c0 0.552-0.448 1-1 1zM11.5 5h1c0.276 0 0.5-0.224 0.5-0.5s-0.224-0.5-0.5-0.5h-1c-0.276 0-0.5 0.224-0.5 0.5s0.224 0.5 0.5 0.5z"></path>
</svg>
