<svg version="1.1" xmlns="http://www.w3.org/2000/svg" width="16" height="16" viewBox="0 0 16 16">
<title>car</title>
<path d="M15.974 5.842c-0.087-0.261-0.367-0.404-0.632-0.316l-1.090 0.364-1.399-2.787c-0.342-0.68-1.027-1.103-1.788-1.103h-6.138c-0.762 0-1.448 0.424-1.789 1.105l-1.391 2.783-1.089-0.363c-0.265-0.087-0.545 0.056-0.632 0.317-0.088 0.262 0.054 0.545 0.316 0.633l0.984 0.328c-0.2 0.484-0.326 0.999-0.326 1.523v5.174c0 0.276 0.224 0.5 0.5 0.5h3c0.276 0 0.5-0.224 0.5-0.5v-1.5h6v1.5c0 0.276 0.224 0.5 0.5 0.5h3c0.276 0 0.5-0.224 0.5-0.5v-5.171c0-0.524-0.127-1.041-0.327-1.526l0.985-0.328c0.262-0.088 0.404-0.371 0.316-0.633zM4.033 3.553c0.17-0.341 0.513-0.553 0.894-0.553h6.138c0.38 0 0.723 0.211 0.894 0.552l1.229 2.448h-10.379l1.224-2.447zM4 13h-2v-1h2v1zM14 13h-2v-1h2v1zM14 11h-12v-2.674c0-0.463 0.109-0.928 0.317-1.342l0.004-0.009 11.366 0.024c0.204 0.412 0.313 0.871 0.313 1.33v2.671z"></path>
<path d="M5 9c0 0.552-0.448 1-1 1s-1-0.448-1-1c0-0.552 0.448-1 1-1s1 0.448 1 1z"></path>
<path d="M13 9c0 0.552-0.448 1-1 1s-1-0.448-1-1c0-0.552 0.448-1 1-1s1 0.448 1 1z"></path>
</svg>
