<svg version="1.1" xmlns="http://www.w3.org/2000/svg" width="16" height="16" viewBox="0 0 16 16">
<title>carousel</title>
<path d="M3.854 10.146c-0.091-0.091-0.216-0.147-0.354-0.147s-0.263 0.056-0.354 0.147l-2 2c-0.091 0.091-0.147 0.216-0.147 0.354s0.056 0.263 0.147 0.354l2 2c0.091 0.091 0.216 0.147 0.354 0.147 0.276 0 0.501-0.224 0.501-0.501 0-0.138-0.056-0.263-0.147-0.354v0l-1.647-1.646 1.647-1.646c0.091-0.091 0.147-0.216 0.147-0.354s-0.056-0.263-0.147-0.354l-0-0z"></path>
<path d="M12.854 10.146c-0.091-0.091-0.216-0.147-0.354-0.147-0.276 0-0.501 0.224-0.501 0.501 0 0.138 0.056 0.263 0.147 0.354v0l1.647 1.646-1.647 1.646c-0.091 0.091-0.147 0.216-0.147 0.354 0 0.276 0.224 0.501 0.501 0.501 0.138 0 0.263-0.056 0.354-0.147v0l2-2c0.091-0.091 0.147-0.216 0.147-0.354s-0.056-0.263-0.147-0.354l-0-0z"></path>
<path d="M14 1h-12c-0.552 0-1 0.448-1 1v0 5c0 0.552 0.448 1 1 1v0h12c0.552 0 1-0.448 1-1v0-5c0-0.552-0.448-1-1-1v0zM14 7.5v-0.5h-12v-5h12v5z"></path>
</svg>
