<svg version="1.1" xmlns="http://www.w3.org/2000/svg" width="16" height="16" viewBox="0 0 16 16">
<title>cart-full</title>
<path d="M15.712 4.347c-0.159-0.212-0.409-0.347-0.691-0.347-0.007 0-0.015 0-0.022 0l0.001-0h-2.793l-2.854-2.853c-0.090-0.090-0.215-0.146-0.354-0.146s-0.263 0.056-0.354 0.146l-2.854 2.853h-2.903l-0.284-1.136c-0.137-0.495-0.578-0.854-1.105-0.864l-0.001-0h-1c-0.276 0-0.5 0.224-0.5 0.5s0.224 0.5 0.5 0.5v0h1c0.061 0.012 0.11 0.052 0.136 0.105l0 0.001 0.36 1.441c0.005 0.054 0.018 0.103 0.037 0.149l-0.001-0.003 1.361 5.443c0.137 0.495 0.579 0.854 1.106 0.864l0.001 0h8.5c0.52-0.014 0.958-0.346 1.13-0.807l0.003-0.009 1.684-5.052c0.033-0.087 0.051-0.188 0.051-0.293 0-0.184-0.058-0.355-0.157-0.495l0.002 0.003zM9 2.207l1.793 1.793h-3.586zM13.184 9.868c-0.037 0.069-0.104 0.118-0.183 0.132l-0.002 0h-8.5c-0.061-0.012-0.11-0.052-0.136-0.105l-0-0.001-1.224-4.894h11.666z"></path>
<path d="M6 13c0 0.552-0.448 1-1 1s-1-0.448-1-1c0-0.552 0.448-1 1-1s1 0.448 1 1z"></path>
<path d="M13 13c0 0.552-0.448 1-1 1s-1-0.448-1-1c0-0.552 0.448-1 1-1s1 0.448 1 1z"></path>
</svg>
