<svg version="1.1" xmlns="http://www.w3.org/2000/svg" width="16" height="16" viewBox="0 0 16 16">
<title>cart-heart</title>
<path d="M15.658 5.026c-0.047-0.016-0.102-0.026-0.159-0.026-0.219 0-0.406 0.142-0.472 0.338l-0.001 0.004-1.842 5.526c-0.037 0.069-0.104 0.118-0.183 0.132l-0.002 0h-8.5c-0.061-0.012-0.11-0.052-0.136-0.105l-0-0.001-1.757-7.030c-0.137-0.495-0.578-0.854-1.105-0.864l-0.001-0h-1c-0.276 0-0.5 0.224-0.5 0.5s0.224 0.5 0.5 0.5v0h1c0.061 0.012 0.11 0.052 0.136 0.105l0 0.001 1.757 7.030c0.137 0.495 0.578 0.854 1.105 0.864l0.001 0h8.5c0.52-0.014 0.958-0.346 1.13-0.807l0.003-0.009 1.842-5.526c0.016-0.047 0.026-0.102 0.026-0.158 0-0.219-0.141-0.406-0.338-0.473l-0.004-0.001z"></path>
<path d="M6 14c0 0.552-0.448 1-1 1s-1-0.448-1-1c0-0.552 0.448-1 1-1s1 0.448 1 1z"></path>
<path d="M13 14c0 0.552-0.448 1-1 1s-1-0.448-1-1c0-0.552 0.448-1 1-1s1 0.448 1 1z"></path>
<path d="M8.15 7.857c0.090 0.088 0.214 0.143 0.35 0.143s0.26-0.055 0.35-0.143l-0 0 2.565-2.516c0.361-0.352 0.585-0.843 0.585-1.386s-0.224-1.034-0.584-1.386l-0-0c-0.361-0.351-0.855-0.567-1.4-0.567s-1.038 0.216-1.4 0.568l0-0-0.116 0.114-0.116-0.114c-0.361-0.351-0.855-0.567-1.4-0.567s-1.038 0.216-1.4 0.568l0-0c-0.361 0.352-0.585 0.843-0.585 1.386s0.224 1.034 0.584 1.386l0 0zM6.285 3.283c0.181-0.175 0.427-0.284 0.699-0.284s0.519 0.108 0.7 0.284l-0-0 0.466 0.458c0.090 0.088 0.214 0.143 0.35 0.143s0.26-0.055 0.35-0.143l-0 0 0.466-0.458c0.181-0.175 0.427-0.283 0.699-0.283s0.519 0.108 0.7 0.283l-0-0c0.176 0.17 0.285 0.408 0.285 0.672s-0.109 0.502-0.284 0.672l-0 0-2.215 2.173-2.215-2.173c-0.176-0.17-0.285-0.408-0.285-0.672s0.109-0.502 0.284-0.672l0-0z"></path>
</svg>
