<svg version="1.1" xmlns="http://www.w3.org/2000/svg" width="16" height="16" viewBox="0 0 16 16">
<title>cart-plus</title>
<path d="M15.658 5.026c-0.048-0.017-0.102-0.026-0.16-0.026-0.219 0-0.405 0.142-0.472 0.339l-0.001 0.004-1.842 5.526c-0.037 0.069-0.104 0.118-0.183 0.132l-0.002 0h-8.5c-0.061-0.012-0.11-0.052-0.136-0.105l-0-0.001-1.757-7.030c-0.137-0.495-0.578-0.854-1.105-0.864l-0.001-0h-1c-0.276 0-0.5 0.224-0.5 0.5s0.224 0.5 0.5 0.5v0h1c0.061 0.012 0.11 0.052 0.136 0.105l0 0.001 1.757 7.030c0.137 0.495 0.578 0.854 1.105 0.864l0.001 0h8.5c0.52-0.014 0.958-0.346 1.13-0.807l0.003-0.009 1.842-5.526c0.016-0.047 0.026-0.102 0.026-0.158 0-0.219-0.141-0.406-0.338-0.473l-0.004-0.001z"></path>
<path d="M6 14c0 0.552-0.448 1-1 1s-1-0.448-1-1c0-0.552 0.448-1 1-1s1 0.448 1 1z"></path>
<path d="M13 14c0 0.552-0.448 1-1 1s-1-0.448-1-1c0-0.552 0.448-1 1-1s1 0.448 1 1z"></path>
<path d="M5.5 5h2.5v2.5c0 0.276 0.224 0.5 0.5 0.5s0.5-0.224 0.5-0.5v0-2.5h2.5c0.276 0 0.5-0.224 0.5-0.5s-0.224-0.5-0.5-0.5v0h-2.5v-2.5c0-0.276-0.224-0.5-0.5-0.5s-0.5 0.224-0.5 0.5v0 2.5h-2.5c-0.276 0-0.5 0.224-0.5 0.5s0.224 0.5 0.5 0.5v0z"></path>
</svg>
