<svg version="1.1" xmlns="http://www.w3.org/2000/svg" width="16" height="16" viewBox="0 0 16 16">
<title>cart-edit</title>
<path d="M15.7 5c-0.3-0.1-0.5 0.1-0.6 0.3 0 0 0 0 0 0l-1.8 5.5c0 0.1-0.1 0.1-0.2 0.1h-8.6c-0.1 0-0.1-0.1-0.1-0.1l-1.8-7c-0.1-0.4-0.6-0.8-1.1-0.8h-1c-0.3 0-0.5 0.2-0.5 0.5s0.2 0.5 0.5 0.5h1c0.1 0 0.1 0.1 0.1 0.1l1.8 7c0.1 0.5 0.6 0.9 1.1 0.9h8.5c0.5 0 1-0.3 1.1-0.8l1.9-5.5c0.1-0.3-0.1-0.6-0.3-0.7z"></path>
<path d="M6 14c0 0.552-0.448 1-1 1s-1-0.448-1-1c0-0.552 0.448-1 1-1s1 0.448 1 1z"></path>
<path d="M13 14c0 0.552-0.448 1-1 1s-1-0.448-1-1c0-0.552 0.448-1 1-1s1 0.448 1 1z"></path>
<path d="M6.6 8.1c0.1 0 0.2 0 0.3-0.1l1.9-0.9c0.3-0.1 0.5-0.3 0.7-0.5l3-3c0.6-0.6 0.6-1.5 0-2.1v0c-0.6-0.6-1.5-0.6-2.1 0l-3 3c-0.2 0.2-0.4 0.4-0.5 0.7l-0.9 1.9c-0.1 0.3-0.1 0.6 0.1 0.8 0.2 0.1 0.3 0.2 0.5 0.2zM7.8 5.6c0.1-0.2 0.2-0.3 0.3-0.4l3-3c0.2-0.2 0.5-0.2 0.7 0v0c0.1 0.1 0.2 0.2 0.2 0.4 0 0.1-0.1 0.3-0.1 0.4l-3 3c-0.2 0-0.3 0.1-0.5 0.2l-1.1 0.5 0.5-1.1z"></path>
</svg>
