<svg version="1.1" xmlns="http://www.w3.org/2000/svg" width="16" height="16" viewBox="0 0 16 16">
<title>cc</title>
<path d="M14 2h-12c-1.105 0-2 0.895-2 2v0 8c0 1.105 0.895 2 2 2v0h12c1.105 0 2-0.895 2-2v0-8c0-1.105-0.895-2-2-2v0zM15 12c0 0.552-0.448 1-1 1v0h-12c-0.552 0-1-0.448-1-1v0-8c0-0.552 0.448-1 1-1v0h12c0.552 0 1 0.448 1 1v0z"></path>
<path d="M5 6c0.431 0.003 0.796 0.277 0.935 0.66l0.002 0.007c0.066 0.204 0.254 0.348 0.476 0.348 0.276 0 0.5-0.224 0.5-0.5 0-0.066-0.013-0.128-0.036-0.186l0.001 0.003c-0.288-0.774-1.020-1.315-1.879-1.315-1.098 0-1.99 0.885-2 1.981v2.001c0.010 1.097 0.902 1.982 2 1.982 0.859 0 1.591-0.541 1.875-1.301l0.005-0.014c0.022-0.054 0.034-0.117 0.034-0.182 0-0.276-0.224-0.5-0.5-0.5-0.222 0-0.41 0.145-0.476 0.345l-0.001 0.004c-0.146 0.383-0.51 0.651-0.937 0.651-0.547 0-0.991-0.439-1-0.983l-0-0.001v-2c0-0.552 0.448-1 1-1v0z"></path>
<path d="M11 6c0.431 0.003 0.796 0.277 0.935 0.66l0.002 0.007c0.066 0.204 0.254 0.348 0.476 0.348 0.276 0 0.5-0.224 0.5-0.5 0-0.066-0.013-0.128-0.036-0.186l0.001 0.003c-0.288-0.774-1.020-1.315-1.879-1.315-1.098 0-1.99 0.885-2 1.981v2.001c0.010 1.097 0.902 1.982 2 1.982 0.859 0 1.591-0.541 1.875-1.301l0.005-0.014c0.022-0.054 0.034-0.117 0.034-0.182 0-0.276-0.224-0.5-0.5-0.5-0.222 0-0.41 0.145-0.476 0.345l-0.001 0.004c-0.146 0.383-0.51 0.651-0.937 0.651-0.547 0-0.991-0.439-1-0.983l-0-0.001v-2c0-0.552 0.448-1 1-1v0z"></path>
</svg>
