<svg version="1.1" xmlns="http://www.w3.org/2000/svg" width="16" height="16" viewBox="0 0 16 16">
<title>certificate</title>
<path d="M13 5c0-2.757-2.243-5-5-5s-5 2.243-5 5c0 1.627 0.793 3.061 2 3.974v6.526c0 0.202 0.122 0.385 0.309 0.462 0.188 0.076 0.401 0.035 0.545-0.108l2.146-2.147 2.146 2.146c0.096 0.096 0.224 0.147 0.354 0.147l0.191-0.038c0.187-0.077 0.309-0.26 0.309-0.462v-6.526c1.207-0.913 2-2.347 2-3.974zM4 5c0-2.206 1.794-4 4-4s4 1.794 4 4-1.794 4-4 4-4-1.794-4-4zM10 14.293l-1.646-1.646c-0.195-0.195-0.512-0.195-0.707 0l-1.647 1.646v-4.717c0.614 0.27 1.288 0.424 2 0.424s1.386-0.154 2-0.424v4.717z"></path>
</svg>
