<svg version="1.1" xmlns="http://www.w3.org/2000/svg" width="16" height="16" viewBox="0 0 16 16">
<title>change-case</title>
<path d="M4.97 2.329c-0.144-0.396-0.796-0.396-0.939 0l-4 11c-0.095 0.26 0.040 0.546 0.299 0.641 0.262 0.095 0.546-0.039 0.641-0.299l1.334-3.671h4.391l1.335 3.671c0.073 0.203 0.265 0.329 0.469 0.329 0.057 0 0.114-0.010 0.171-0.030 0.259-0.094 0.394-0.381 0.299-0.641l-4-11zM2.668 9l1.832-5.037 1.832 5.037h-3.664z"></path>
<path d="M15.5 8c-0.276 0-0.5 0.224-0.5 0.5v0.28c-0.532-0.479-1.229-0.78-2-0.78-1.654 0-3 1.346-3 3s1.346 3 3 3c0.771 0 1.468-0.301 2-0.78v0.28c0 0.276 0.224 0.5 0.5 0.5s0.5-0.224 0.5-0.5v-5c0-0.276-0.224-0.5-0.5-0.5zM13 13c-1.103 0-2-0.897-2-2s0.897-2 2-2 2 0.897 2 2-0.897 2-2 2z"></path>
</svg>
