<svg version="1.1" xmlns="http://www.w3.org/2000/svg" width="16" height="16" viewBox="0 0 16 16">
<title>check-square-o</title>
<path d="M10.97 4.97l-4.47 4.469-1.47-1.469c-0.134-0.125-0.313-0.201-0.511-0.201-0.414 0-0.75 0.336-0.75 0.75 0 0.198 0.077 0.378 0.202 0.512l-0-0 2 2c0.135 0.136 0.323 0.22 0.53 0.22s0.395-0.084 0.53-0.22l5-5c0.125-0.134 0.201-0.313 0.201-0.511 0-0.414-0.336-0.75-0.75-0.75-0.198 0-0.378 0.077-0.512 0.202l0-0z"></path>
<path d="M13 1h-10c-1.105 0-2 0.895-2 2v0 10c0 1.105 0.895 2 2 2v0h10c1.105 0 2-0.895 2-2v0-10c0-1.105-0.895-2-2-2v0zM14 13c0 0.552-0.448 1-1 1v0h-10c-0.552 0-1-0.448-1-1v0-10c0-0.552 0.448-1 1-1v0h10c0.552 0 1 0.448 1 1v0z"></path>
</svg>
