<svg version="1.1" xmlns="http://www.w3.org/2000/svg" width="16" height="16" viewBox="0 0 16 16">
<title>chevron-circle-left</title>
<path d="M0 8c0 4.418 3.582 8 8 8s8-3.582 8-8c0-4.418-3.582-8-8-8v0c-4.416 0.005-7.995 3.584-8 8v0zM5.293 7.293l3-3c0.182-0.188 0.437-0.305 0.719-0.305 0.552 0 1 0.448 1 1 0 0.282-0.117 0.537-0.305 0.719l-0 0-2.293 2.293 2.293 2.293c0.188 0.182 0.305 0.437 0.305 0.719 0 0.552-0.448 1-1 1-0.282 0-0.537-0.117-0.719-0.305l-0-0-3-3c-0.181-0.181-0.293-0.431-0.293-0.707s0.112-0.526 0.293-0.707v0z"></path>
</svg>
