<svg version="1.1" xmlns="http://www.w3.org/2000/svg" width="16" height="16" viewBox="0 0 16 16">
<title>chevron-circle-down</title>
<path d="M16 8c0-4.418-3.582-8-8-8s-8 3.582-8 8c0 4.418 3.582 8 8 8v0c4.416-0.005 7.995-3.584 8-8v-0zM7.293 10.707l-3-3c-0.174-0.18-0.281-0.425-0.281-0.695 0-0.552 0.448-1 1-1 0.27 0 0.515 0.107 0.695 0.281l-0-0 2.293 2.293 2.293-2.293c0.182-0.188 0.437-0.305 0.719-0.305 0.552 0 1 0.448 1 1 0 0.282-0.117 0.537-0.305 0.719l-0 0-3 3c-0.181 0.181-0.431 0.293-0.707 0.293s-0.526-0.112-0.707-0.293v0z"></path>
</svg>
