<svg version="1.1" xmlns="http://www.w3.org/2000/svg" width="16" height="16" viewBox="0 0 16 16">
<title>child</title>
<path d="M10.090 7.63c-0.152-0.383-0.516-0.63-0.928-0.63h-2.324c-0.412 0-0.776 0.247-0.928 0.629l-1.875 4.686c-0.062 0.154-0.042 0.328 0.050 0.466 0.094 0.137 0.249 0.219 0.415 0.219h1.5v2.5c0 0.276 0.224 0.5 0.5 0.5h3c0.276 0 0.5-0.224 0.5-0.5v-2.5h1.5c0.166 0 0.321-0.082 0.414-0.22s0.112-0.312 0.050-0.466l-1.874-4.684zM9.5 12c-0.276 0-0.5 0.224-0.5 0.5v2.5h-2v-2.5c0-0.276-0.224-0.5-0.5-0.5h-1.262l1.6-4h2.323l1.6 4h-1.261z"></path>
<path d="M12.5 3c-0.276 0-0.5 0.224-0.5 0.5s-0.224 0.5-0.5 0.5-0.5-0.225-0.5-0.5v-0.5c0-1.654-1.346-3-3-3s-3 1.346-3 3v0.5c0 0.275-0.224 0.5-0.5 0.5s-0.5-0.225-0.5-0.5c0-0.276-0.224-0.5-0.5-0.5s-0.5 0.224-0.5 0.5c0 0.827 0.673 1.5 1.5 1.5 0.378 0 0.72-0.145 0.984-0.377 0.535 0.826 1.46 1.377 2.516 1.377s1.981-0.551 2.516-1.377c0.264 0.232 0.606 0.377 0.984 0.377 0.827 0 1.5-0.673 1.5-1.5 0-0.276-0.224-0.5-0.5-0.5zM8 5c-1.103 0-2-0.897-2-2s0.897-2 2-2 2 0.897 2 2-0.897 2-2 2z"></path>
</svg>
