<svg version="1.1" xmlns="http://www.w3.org/2000/svg" width="16" height="16" viewBox="0 0 16 16">
<title>circle-arrow-in-east</title>
<path d="M7.47 10.47c-0.147 0.137-0.239 0.332-0.239 0.549 0 0.414 0.336 0.75 0.75 0.75 0.216 0 0.411-0.092 0.548-0.238l0-0 3-3c0.136-0.136 0.22-0.323 0.22-0.53s-0.084-0.394-0.22-0.53l-3-3c-0.134-0.125-0.313-0.201-0.511-0.201-0.414 0-0.75 0.336-0.75 0.75 0 0.198 0.077 0.378 0.202 0.512l-0-0 1.719 1.72h-8.189c-0.414 0-0.75 0.336-0.75 0.75s0.336 0.75 0.75 0.75v0h8.189z"></path>
<path d="M8 0c-2.969 0.012-5.554 1.646-6.916 4.060l-0.021 0.040c-0.040 0.070-0.064 0.154-0.064 0.244 0 0.276 0.224 0.5 0.501 0.5 0.187 0 0.35-0.102 0.436-0.254l0.001-0.002c1.22-2.158 3.5-3.59 6.113-3.59 3.866 0 7 3.134 7 7s-3.134 7-7 7c-2.614 0-4.893-1.432-6.095-3.555l-0.018-0.035c-0.087-0.154-0.25-0.257-0.437-0.257-0.276 0-0.5 0.224-0.5 0.501 0 0.090 0.024 0.174 0.065 0.246l-0.001-0.002c1.395 2.446 3.986 4.068 6.956 4.068 4.408 0 7.982-3.574 7.982-7.982s-3.574-7.982-7.982-7.982c-0.007 0-0.014 0-0.021 0h0.001z"></path>
</svg>
