<svg version="1.1" xmlns="http://www.w3.org/2000/svg" width="16" height="16" viewBox="0 0 16 16">
<title>circle-arrow-out-west</title>
<path d="M4.53 10.47l-1.719-1.72h8.189c0.414 0 0.75-0.336 0.75-0.75s-0.336-0.75-0.75-0.75v0h-8.189l1.719-1.72c0.125-0.134 0.201-0.313 0.201-0.511 0-0.414-0.336-0.75-0.75-0.75-0.198 0-0.378 0.077-0.512 0.202l0-0-3 3c-0.136 0.136-0.22 0.323-0.22 0.53s0.084 0.394 0.22 0.53l3 3c0.134 0.125 0.313 0.201 0.511 0.201 0.414 0 0.75-0.336 0.75-0.75 0-0.198-0.077-0.378-0.202-0.512l0 0z"></path>
<path d="M8 0c-0.006-0-0.012-0-0.019-0-1.363 0-2.643 0.349-3.758 0.963l0.040-0.020c-0.158 0.086-0.263 0.251-0.263 0.441 0 0.276 0.224 0.5 0.5 0.5 0.087 0 0.168-0.022 0.24-0.061l-0.003 0.001c0.938-0.519 2.057-0.824 3.246-0.824 0.006 0 0.012 0 0.017 0h-0.001c3.866 0 7 3.134 7 7s-3.134 7-7 7v0c-0.005 0-0.011 0-0.017 0-1.19 0-2.308-0.305-3.282-0.842l0.035 0.018c-0.069-0.038-0.15-0.060-0.237-0.060-0.276 0-0.5 0.224-0.5 0.5 0 0.189 0.105 0.354 0.261 0.439l0.003 0.001c1.074 0.594 2.355 0.943 3.718 0.943 0.007 0 0.014-0 0.020-0h-0.001c4.418 0 8-3.582 8-8s-3.582-8-8-8v0z"></path>
</svg>
