<svg version="1.1" xmlns="http://www.w3.org/2000/svg" width="16" height="16" viewBox="0 0 16 16">
<title>circle-7-8</title>
<path d="M8 16c-2.137 0-4.146-0.832-5.657-2.343s-2.343-3.52-2.343-5.657 0.832-4.146 2.343-5.657c0.195-0.195 0.512-0.195 0.707 0s0.195 0.512 0 0.707c-1.322 1.323-2.050 3.080-2.050 4.95s0.728 3.627 2.050 4.95 3.080 2.050 4.95 2.050 3.628-0.728 4.95-2.050 2.050-3.080 2.050-4.95-0.728-3.627-2.050-4.95-3.080-2.050-4.95-2.050c-0.276 0-0.5-0.224-0.5-0.5s0.224-0.5 0.5-0.5c2.137 0 4.146 0.832 5.657 2.343s2.343 3.52 2.343 5.657-0.832 4.146-2.343 5.657-3.52 2.343-5.657 2.343z"></path>
</svg>
