<svg version="1.1" xmlns="http://www.w3.org/2000/svg" width="16" height="16" viewBox="0 0 16 16">
<title>circle-arrow-out-north</title>
<path d="M5.53 4.53l1.72-1.719v8.189c0 0.414 0.336 0.75 0.75 0.75s0.75-0.336 0.75-0.75v0-8.189l1.72 1.719c0.134 0.125 0.313 0.201 0.511 0.201 0.414 0 0.75-0.336 0.75-0.75 0-0.198-0.077-0.378-0.202-0.512l0 0-3-3c-0.136-0.136-0.323-0.22-0.53-0.22s-0.394 0.084-0.53 0.22l-3 3c-0.125 0.134-0.201 0.313-0.201 0.511 0 0.414 0.336 0.75 0.75 0.75 0.198 0 0.378-0.077 0.512-0.202l-0 0z"></path>
<path d="M15.056 4.263c-0.088-0.15-0.249-0.25-0.433-0.25-0.276 0-0.5 0.224-0.5 0.5 0 0.082 0.020 0.158 0.054 0.226l-0.001-0.003c0.519 0.938 0.824 2.057 0.824 3.246 0 0.006 0 0.012-0 0.017v-0.001c0 3.866-3.134 7-7 7s-7-3.134-7-7v0c-0-0.005-0-0.011-0-0.017 0-1.19 0.305-2.308 0.842-3.282l-0.018 0.035c0.033-0.065 0.053-0.142 0.053-0.224 0-0.276-0.224-0.5-0.5-0.5-0.184 0-0.345 0.099-0.432 0.247l-0.001 0.002c-0.594 1.074-0.944 2.354-0.944 3.716 0 0.007 0 0.015 0 0.022v-0.001c0 4.418 3.582 8 8 8s8-3.582 8-8v0c0-0.006 0-0.014 0-0.021 0-1.362-0.35-2.642-0.964-3.756l0.020 0.040z"></path>
</svg>
