<svg version="1.1" xmlns="http://www.w3.org/2000/svg" width="16" height="16" viewBox="0 0 16 16">
<title>circle-arrow-out-sw</title>
<path d="M7 12.25h-2.189l5.719-5.72c0.125-0.134 0.201-0.313 0.201-0.511 0-0.414-0.336-0.75-0.75-0.75-0.198 0-0.378 0.077-0.512 0.202l0-0-5.72 5.719v-2.189c0-0.414-0.336-0.75-0.75-0.75s-0.75 0.336-0.75 0.75v0 4c0 0.414 0.336 0.75 0.75 0.75v0h4c0.414 0 0.75-0.336 0.75-0.75s-0.336-0.75-0.75-0.75v0z"></path>
<path d="M13.657 2.343c-1.449-1.445-3.449-2.339-5.657-2.339s-4.208 0.894-5.657 2.339l0-0c-0.9 0.896-1.582 2.009-1.961 3.255l-0.014 0.055c-0.013 0.043-0.021 0.092-0.021 0.144 0 0.276 0.224 0.5 0.5 0.5 0.225 0 0.415-0.149 0.478-0.353l0.001-0.004c0.343-1.136 0.938-2.108 1.724-2.89l0-0c1.267-1.267 3.017-2.050 4.95-2.050 3.866 0 7 3.134 7 7 0 1.933-0.784 3.683-2.050 4.95v0c-0.782 0.786-1.754 1.382-2.842 1.712l-0.048 0.013c-0.206 0.065-0.353 0.254-0.353 0.478 0 0.275 0.222 0.498 0.497 0.5h0c0.051-0 0.1-0.008 0.147-0.022l-0.004 0.001c1.301-0.393 2.415-1.075 3.31-1.975l0-0c1.445-1.449 2.339-3.449 2.339-5.657s-0.894-4.208-2.339-5.657l0 0z"></path>
</svg>
