<svg version="1.1" xmlns="http://www.w3.org/2000/svg" width="16" height="16" viewBox="0 0 16 16">
<title>circle-arrow-in-se</title>
<path d="M8.158 9.25h-3.158c-0.414 0-0.75 0.336-0.75 0.75s0.336 0.75 0.75 0.75v0h5c0.414 0 0.75-0.336 0.75-0.75v0-5c0-0.414-0.336-0.75-0.75-0.75s-0.75 0.336-0.75 0.75v0 3.221l-5.75-5.751c-0.136-0.136-0.324-0.22-0.531-0.22-0.414 0-0.75 0.336-0.75 0.75 0 0.207 0.084 0.394 0.219 0.53l-0-0z"></path>
<path d="M13.652 2.315c-1.443-1.431-3.431-2.316-5.625-2.316-0.782 0-1.538 0.112-2.252 0.322l0.056-0.014c-0.206 0.065-0.352 0.254-0.352 0.478 0 0.276 0.224 0.5 0.5 0.5 0.043 0 0.084-0.005 0.124-0.015l-0.003 0.001c0.574-0.169 1.234-0.267 1.917-0.267 3.874 0 7.015 3.141 7.015 7.015s-3.141 7.015-7.015 7.015c-3.874 0-7.015-3.141-7.015-7.015 0-0.683 0.098-1.343 0.28-1.968l-0.012 0.050c0.014-0.044 0.022-0.095 0.022-0.147 0-0.276-0.224-0.5-0.5-0.5-0.232 0-0.427 0.158-0.483 0.372l-0.001 0.003c-0.188 0.647-0.297 1.39-0.297 2.159 0 4.418 3.582 8 8 8s8-3.582 8-8c0-2.217-0.902-4.223-2.358-5.672l-0-0z"></path>
</svg>
