<svg version="1.1" xmlns="http://www.w3.org/2000/svg" width="16" height="16" viewBox="0 0 16 16">
<title>circle-arrow-in-sw</title>
<path d="M6.75 5c0-0.414-0.336-0.75-0.75-0.75s-0.75 0.336-0.75 0.75v0 5c0 0.414 0.336 0.75 0.75 0.75v0h5c0.414 0 0.75-0.336 0.75-0.75s-0.336-0.75-0.75-0.75v0h-3.158l5.72-5.72c0.135-0.136 0.219-0.323 0.219-0.53 0-0.414-0.336-0.75-0.75-0.75-0.207 0-0.395 0.084-0.531 0.22l-5.75 5.751z"></path>
<path d="M15.693 5.832c-0.057-0.218-0.252-0.375-0.484-0.375-0.276 0-0.5 0.224-0.5 0.5 0 0.053 0.008 0.103 0.023 0.151l-0.001-0.004c0.169 0.574 0.267 1.234 0.267 1.916 0 3.876-3.142 7.018-7.018 7.018s-7.018-3.142-7.018-7.018c0-3.876 3.142-7.018 7.018-7.018 0.684 0 1.345 0.098 1.97 0.28l-0.050-0.012c0.039 0.011 0.084 0.017 0.131 0.017 0.229 0 0.422-0.151 0.485-0.36l0.001-0.004c0.012-0.041 0.019-0.088 0.019-0.136 0-0.228-0.152-0.42-0.36-0.48l-0.004-0.001c-0.655-0.193-1.408-0.304-2.187-0.304-4.427 0-8.016 3.589-8.016 8.016s3.589 8.016 8.016 8.016c4.427 0 8.016-3.589 8.016-8.016 0-0.779-0.111-1.532-0.318-2.244l0.014 0.057z"></path>
</svg>
