<svg version="1.1" xmlns="http://www.w3.org/2000/svg" width="16" height="16" viewBox="0 0 16 16">
<title>circle-arrow-out-south</title>
<path d="M10.47 11.47l-1.72 1.719v-8.189c0-0.414-0.336-0.75-0.75-0.75s-0.75 0.336-0.75 0.75v0 8.189l-1.72-1.719c-0.134-0.125-0.313-0.201-0.511-0.201-0.414 0-0.75 0.336-0.75 0.75 0 0.198 0.077 0.378 0.202 0.512l-0-0 3 3c0.135 0.136 0.323 0.22 0.53 0.22s0.395-0.084 0.53-0.22l3-3c0.125-0.134 0.201-0.313 0.201-0.511 0-0.414-0.336-0.75-0.75-0.75-0.198 0-0.378 0.077-0.512 0.202l0-0z"></path>
<path d="M8 0c-4.416 0.005-7.995 3.584-8 8v0c-0 0.006-0 0.014-0 0.021 0 1.362 0.35 2.642 0.964 3.756l-0.020-0.040c0.088 0.15 0.249 0.25 0.433 0.25 0.276 0 0.5-0.224 0.5-0.5 0-0.082-0.020-0.158-0.054-0.226l0.001 0.003c-0.519-0.938-0.824-2.057-0.824-3.246 0-0.006 0-0.012 0-0.017v0.001c0-3.866 3.134-7 7-7s7 3.134 7 7v0c0 0.005 0 0.011 0 0.017 0 1.19-0.305 2.308-0.842 3.282l0.018-0.035c-0.038 0.069-0.060 0.151-0.060 0.238 0 0.188 0.104 0.352 0.258 0.438l0.003 0.001c0.069 0.037 0.15 0.060 0.237 0.060h0c0.189-0 0.354-0.105 0.439-0.26l0.001-0.003c0.596-1.075 0.947-2.357 0.947-3.722 0-0.005 0-0.011-0-0.016v0.001c-0.005-4.416-3.584-7.995-8-8h-0z"></path>
</svg>
