<svg version="1.1" xmlns="http://www.w3.org/2000/svg" width="16" height="16" viewBox="0 0 16 16">
<title>circle-5-8</title>
<path d="M8 16c-2.137 0-4.146-0.832-5.657-2.343-0.195-0.195-0.195-0.512 0-0.707s0.512-0.195 0.707 0c1.322 1.322 3.080 2.050 4.95 2.050s3.628-0.728 4.95-2.050c1.322-1.322 2.050-3.080 2.050-4.95s-0.728-3.628-2.050-4.95c-1.322-1.322-3.080-2.050-4.95-2.050-0.276 0-0.5-0.224-0.5-0.5s0.224-0.5 0.5-0.5c2.137 0 4.146 0.832 5.657 2.343s2.343 3.52 2.343 5.657-0.832 4.146-2.343 5.657c-1.511 1.511-3.52 2.343-5.657 2.343z"></path>
</svg>
