<svg version="1.1" xmlns="http://www.w3.org/2000/svg" width="16" height="16" viewBox="0 0 16 16">
<title>circle-arrow-out-se</title>
<path d="M13 8.25c-0.414 0-0.75 0.336-0.75 0.75v0 2.189l-5.72-5.719c-0.134-0.125-0.313-0.201-0.511-0.201-0.414 0-0.75 0.336-0.75 0.75 0 0.198 0.077 0.378 0.202 0.512l-0-0 5.719 5.72h-2.189c-0.414 0-0.75 0.336-0.75 0.75s0.336 0.75 0.75 0.75v0h4c0.414 0 0.75-0.336 0.75-0.75v0-4c0-0.414-0.336-0.75-0.75-0.75v0z"></path>
<path d="M15.632 5.653c-0.393-1.301-1.075-2.414-1.975-3.31l-0-0c-1.448-1.448-3.448-2.343-5.657-2.343-4.418 0-8 3.582-8 8 0 2.209 0.895 4.209 2.343 5.657v0c0.895 0.9 2.009 1.582 3.255 1.961l0.055 0.014c0.043 0.013 0.092 0.021 0.143 0.021h0c0.275-0.002 0.497-0.225 0.497-0.5 0-0.224-0.147-0.413-0.35-0.477l-0.004-0.001c-1.136-0.343-2.108-0.939-2.89-1.725l-0-0c-1.267-1.267-2.050-3.017-2.050-4.95 0-3.866 3.134-7 7-7 1.933 0 3.683 0.784 4.95 2.050v0c0.786 0.782 1.381 1.754 1.711 2.842l0.013 0.048c0.064 0.208 0.254 0.357 0.479 0.357 0.276 0 0.5-0.224 0.5-0.5 0-0.051-0.008-0.101-0.022-0.147l0.001 0.004z"></path>
</svg>
