<svg version="1.1" xmlns="http://www.w3.org/2000/svg" width="16" height="16" viewBox="0 0 16 16">
<title>circle-arrow-in-nw</title>
<path d="M7.842 6.75h3.158c0.414 0 0.75-0.336 0.75-0.75s-0.336-0.75-0.75-0.75v0h-5c-0.414 0-0.75 0.336-0.75 0.75v0 5c0 0.414 0.336 0.75 0.75 0.75s0.75-0.336 0.75-0.75v0-3.221l5.75 5.751c0.137 0.141 0.328 0.229 0.54 0.229 0.414 0 0.75-0.336 0.75-0.75 0-0.212-0.088-0.403-0.229-0.539l-0-0z"></path>
<path d="M13.684 2.348c-1.451-1.45-3.455-2.348-5.668-2.348-4.427 0-8.016 3.589-8.016 8.016 0 2.214 0.897 4.218 2.348 5.668l0 0c1.437 1.431 3.418 2.315 5.606 2.315 0.006 0 0.012 0 0.018-0h-0.001c0.005 0 0.012 0 0.018 0 0.777 0 1.528-0.11 2.239-0.314l-0.057 0.014c0.214-0.061 0.368-0.255 0.368-0.485 0-0.278-0.225-0.504-0.504-0.504-0.048 0-0.095 0.007-0.139 0.019l0.004-0.001c-0.574 0.169-1.234 0.267-1.917 0.267-3.874 0-7.015-3.141-7.015-7.015s3.141-7.015 7.015-7.015c3.874 0 7.015 3.141 7.015 7.015 0 0.683-0.098 1.343-0.28 1.968l0.012-0.050c-0.014 0.044-0.022 0.095-0.022 0.148 0 0.276 0.224 0.5 0.5 0.5 0.232 0 0.427-0.158 0.483-0.372l0.001-0.003c0.195-0.658 0.308-1.415 0.308-2.197 0-2.195-0.885-4.183-2.318-5.627l0.001 0.001z"></path>
</svg>
