<svg version="1.1" xmlns="http://www.w3.org/2000/svg" width="16" height="16" viewBox="0 0 16 16">
<title>circle-arrow-out-nw</title>
<path d="M3 7.75c0.414 0 0.75-0.336 0.75-0.75v0-2.189l5.72 5.719c0.134 0.125 0.313 0.201 0.511 0.201 0.414 0 0.75-0.336 0.75-0.75 0-0.198-0.077-0.378-0.202-0.512l0 0-5.719-5.72h2.189c0.414 0 0.75-0.336 0.75-0.75s-0.336-0.75-0.75-0.75v0h-4c-0.414 0-0.75 0.336-0.75 0.75v0 4c0 0.414 0.336 0.75 0.75 0.75v0z"></path>
<path d="M13.657 2.343c-0.895-0.9-2.009-1.582-3.255-1.961l-0.055-0.014c-0.049-0.017-0.105-0.028-0.164-0.028-0.276 0-0.5 0.224-0.5 0.5 0 0.232 0.158 0.428 0.373 0.484l0.003 0.001c1.136 0.343 2.108 0.939 2.89 1.725l0 0c1.267 1.267 2.050 3.017 2.050 4.95 0 3.866-3.134 7-7 7-1.933 0-3.683-0.784-4.95-2.050v0c-0.786-0.782-1.381-1.754-1.711-2.842l-0.013-0.048c-0.064-0.208-0.254-0.357-0.479-0.357-0.276 0-0.5 0.224-0.5 0.5 0 0.051 0.008 0.101 0.022 0.147l-0.001-0.004c0.393 1.301 1.075 2.414 1.975 3.31l0 0c1.448 1.448 3.448 2.343 5.657 2.343 4.418 0 8-3.582 8-8 0-2.209-0.895-4.209-2.343-5.657v0z"></path>
</svg>
