<svg version="1.1" xmlns="http://www.w3.org/2000/svg" width="16" height="16" viewBox="0 0 16 16">
<title>circle-arrow-in-south</title>
<path d="M4.47 8.53l3 3c0.135 0.136 0.323 0.22 0.53 0.22s0.395-0.084 0.53-0.22l3-3c0.125-0.134 0.201-0.313 0.201-0.511 0-0.414-0.336-0.75-0.75-0.75-0.198 0-0.378 0.077-0.512 0.202l0-0-1.72 1.719v-8.189c0-0.414-0.336-0.75-0.75-0.75s-0.75 0.336-0.75 0.75v0 8.189l-1.72-1.719c-0.134-0.125-0.313-0.201-0.511-0.201-0.414 0-0.75 0.336-0.75 0.75 0 0.198 0.077 0.378 0.202 0.512l-0-0z"></path>
<path d="M11.9 1.063c-0.070-0.040-0.154-0.064-0.244-0.064-0.276 0-0.501 0.224-0.501 0.501 0 0.187 0.102 0.35 0.254 0.436l0.002 0.001c2.157 1.221 3.589 3.499 3.589 6.113 0 3.866-3.134 7-7 7s-7-3.134-7-7c0-2.613 1.432-4.892 3.554-6.095l0.035-0.018c0.154-0.087 0.256-0.25 0.256-0.437 0-0.277-0.224-0.501-0.501-0.501-0.090 0-0.174 0.024-0.247 0.065l0.002-0.001c-2.464 1.395-4.1 3.999-4.1 6.985 0 4.418 3.582 8 8 8s8-3.582 8-8c0-2.986-1.636-5.59-4.060-6.964l-0.040-0.021z"></path>
</svg>
