<svg version="1.1" xmlns="http://www.w3.org/2000/svg" width="16" height="16" viewBox="0 0 16 16">
<title>circle-arrow-in-north</title>
<path d="M11.53 7.47l-3-3c-0.136-0.136-0.323-0.22-0.53-0.22s-0.394 0.084-0.53 0.22l-3 3c-0.147 0.137-0.239 0.332-0.239 0.549 0 0.414 0.336 0.75 0.75 0.75 0.216 0 0.411-0.092 0.548-0.238l0-0 1.72-1.719v8.189c0 0.414 0.336 0.75 0.75 0.75s0.75-0.336 0.75-0.75v0-8.189l1.72 1.719c0.137 0.147 0.332 0.239 0.549 0.239 0.414 0 0.75-0.336 0.75-0.75 0-0.216-0.092-0.411-0.238-0.548l-0-0z"></path>
<path d="M8 0c-0.010-0-0.022-0-0.033-0-4.401 0-7.969 3.568-7.969 7.969 0 2.982 1.638 5.581 4.062 6.947l0.040 0.021c0.070 0.040 0.154 0.063 0.244 0.063 0.276 0 0.5-0.224 0.5-0.501 0-0.187-0.102-0.35-0.254-0.436l-0.002-0.001c-2.157-1.221-3.589-3.499-3.589-6.113 0-3.866 3.134-7 7-7s7 3.134 7 7c0 2.613-1.432 4.892-3.554 6.095l-0.035 0.018c-0.154 0.087-0.257 0.25-0.257 0.437 0 0.276 0.224 0.5 0.5 0.5 0 0 0.001 0 0.001 0h-0c0.090-0 0.174-0.024 0.247-0.064l-0.003 0.001c2.465-1.387 4.102-3.986 4.102-6.968 0-4.401-3.568-7.969-7.969-7.969-0.011 0-0.022 0-0.033 0h0.002z"></path>
</svg>
