<svg version="1.1" xmlns="http://www.w3.org/2000/svg" width="16" height="16" viewBox="0 0 16 16">
<title>circle-arrow-in-ne</title>
<path d="M9.25 11c0 0.414 0.336 0.75 0.75 0.75s0.75-0.336 0.75-0.75v0-5c0-0.414-0.336-0.75-0.75-0.75v0h-5c-0.414 0-0.75 0.336-0.75 0.75s0.336 0.75 0.75 0.75v0h3.158l-5.72 5.72c-0.135 0.136-0.219 0.323-0.219 0.53 0 0.414 0.336 0.75 0.75 0.75 0.207 0 0.395-0.084 0.531-0.22l5.75-5.751z"></path>
<path d="M13.652 2.348c-1.447-1.458-3.452-2.36-5.668-2.36-4.41 0-7.985 3.575-7.985 7.985 0 0.782 0.112 1.538 0.322 2.252l-0.014-0.056c0.052 0.225 0.25 0.391 0.488 0.391 0.276 0 0.5-0.224 0.5-0.5 0-0.057-0.010-0.112-0.027-0.163l0.001 0.004c-0.17-0.575-0.268-1.237-0.268-1.921 0-3.876 3.142-7.018 7.018-7.018s7.018 3.142 7.018 7.018c0 3.876-3.142 7.018-7.018 7.018-0.683 0-1.344-0.098-1.969-0.28l0.050 0.012c-0.041-0.012-0.088-0.019-0.136-0.019-0.276 0-0.5 0.224-0.5 0.5 0 0.228 0.152 0.42 0.361 0.481l0.004 0.001c0.654 0.19 1.405 0.3 2.182 0.3 0.006 0 0.013 0 0.019-0h-0.001c0.005 0 0.012 0 0.018 0 2.187 0 4.168-0.884 5.605-2.313l-0 0c1.447-1.452 2.342-3.455 2.342-5.666s-0.894-4.214-2.341-5.666l0 0z"></path>
</svg>
