<svg version="1.1" xmlns="http://www.w3.org/2000/svg" width="16" height="16" viewBox="0 0 16 16">
<title>circle-arrow-in-west</title>
<path d="M15 7.25h-8.189l1.719-1.72c0.147-0.137 0.239-0.332 0.239-0.549 0-0.414-0.336-0.75-0.75-0.75-0.216 0-0.411 0.092-0.548 0.238l-0 0-3 3c-0.136 0.136-0.22 0.323-0.22 0.53s0.084 0.394 0.22 0.53l3 3c0.137 0.147 0.332 0.239 0.549 0.239 0.414 0 0.75-0.336 0.75-0.75 0-0.216-0.092-0.411-0.238-0.548l-0-0-1.719-1.72h8.189c0.414 0 0.75-0.336 0.75-0.75s-0.336-0.75-0.75-0.75v0z"></path>
<path d="M14.744 11.218c-0.070-0.040-0.155-0.064-0.245-0.064-0.186 0-0.349 0.102-0.435 0.253l-0.001 0.002c-1.22 2.158-3.5 3.59-6.113 3.59-3.866 0-7-3.134-7-7s3.134-7 7-7c2.614 0 4.893 1.433 6.095 3.555l0.018 0.035c0.087 0.154 0.25 0.256 0.437 0.256 0.276 0 0.501-0.224 0.501-0.5 0-0.090-0.024-0.174-0.065-0.246l0.001 0.002c-1.395-2.464-3.999-4.1-6.985-4.1-4.418 0-8 3.582-8 8s3.582 8 8 8c2.986 0 5.59-1.636 6.964-4.060l0.021-0.040c0.041-0.071 0.065-0.156 0.065-0.246 0-0.187-0.103-0.351-0.255-0.436l-0.003-0.001z"></path>
</svg>
