<svg version="1.1" xmlns="http://www.w3.org/2000/svg" width="16" height="16" viewBox="0 0 16 16">
<title>circle-arrow-out-ne</title>
<path d="M9 3.75h2.189l-5.719 5.72c-0.147 0.137-0.239 0.332-0.239 0.549 0 0.414 0.336 0.75 0.75 0.75 0.216 0 0.411-0.092 0.548-0.238l0-0 5.72-5.719v2.189c0 0.414 0.336 0.75 0.75 0.75s0.75-0.336 0.75-0.75v0-4c0-0.414-0.336-0.75-0.75-0.75v0h-4c-0.414 0-0.75 0.336-0.75 0.75s0.336 0.75 0.75 0.75v0z"></path>
<path d="M15.3 9.725c-0.043-0.013-0.093-0.021-0.144-0.021-0.225 0-0.415 0.148-0.478 0.353l-0.001 0.004c-0.343 1.136-0.938 2.108-1.724 2.89l-0 0c-1.267 1.267-3.017 2.050-4.95 2.050-3.866 0-7-3.134-7-7 0-1.933 0.784-3.683 2.050-4.95v0c0.781-0.785 1.752-1.381 2.839-1.712l0.048-0.013c0.218-0.057 0.377-0.252 0.377-0.485 0-0.276-0.224-0.5-0.5-0.5-0.059 0-0.115 0.010-0.167 0.029l0.003-0.001c-1.301 0.393-2.415 1.075-3.31 1.975l-0 0c-1.448 1.448-2.343 3.448-2.343 5.657 0 4.418 3.582 8 8 8 2.209 0 4.209-0.895 5.657-2.343v0c0.9-0.896 1.582-2.009 1.961-3.255l0.014-0.055c0.013-0.043 0.021-0.093 0.021-0.144 0-0.224-0.147-0.413-0.35-0.477l-0.004-0.001z"></path>
</svg>
