<svg version="1.1" xmlns="http://www.w3.org/2000/svg" width="16" height="16" viewBox="0 0 16 16">
<title>clipboard-heart</title>
<path d="M6.5 15h-2.5c-0.552 0-1-0.448-1-1v0-11c0-0.552 0.448-1 1-1v0h1v1.5c0 0.276 0.224 0.5 0.5 0.5v0h5c0.276 0 0.5-0.224 0.5-0.5v0-1.5h1c0.552 0 1 0.448 1 1v0 3.5c0 0.276 0.224 0.5 0.5 0.5s0.5-0.224 0.5-0.5v0-3.5c0-1.105-0.895-2-2-2v0h-2.274c-0.35-0.602-0.991-1-1.726-1s-1.376 0.398-1.721 0.99l-0.005 0.009h-2.274c-1.105 0-2 0.895-2 2v0 11c0 1.105 0.895 2 2 2v0h2.5c0.276 0 0.5-0.224 0.5-0.5s-0.224-0.5-0.5-0.5v0zM6 2h0.592c0.216-0 0.4-0.137 0.47-0.33l0.001-0.003c0.139-0.391 0.506-0.666 0.937-0.666s0.798 0.275 0.935 0.659l0.002 0.007c0.071 0.196 0.255 0.333 0.471 0.333h0.592v1h-4z"></path>
<path d="M15.416 10.569c-0.362-0.351-0.856-0.567-1.4-0.567s-1.038 0.216-1.4 0.568l0.001-0-0.116 0.114-0.116-0.114c-0.362-0.351-0.856-0.567-1.4-0.567s-1.038 0.216-1.401 0.568l0.001-0c-0.36 0.352-0.584 0.843-0.584 1.386s0.223 1.034 0.584 1.386l0 0 2.566 2.516c0.090 0.088 0.214 0.143 0.35 0.143s0.26-0.055 0.35-0.143l-0 0 2.566-2.516c0.36-0.352 0.584-0.843 0.584-1.386s-0.223-1.034-0.584-1.386l-0-0zM14.716 12.627l-2.216 2.173-2.215-2.173c-0.176-0.17-0.285-0.408-0.285-0.672s0.109-0.502 0.285-0.672l0-0c0.181-0.175 0.428-0.283 0.7-0.283s0.519 0.108 0.7 0.284l-0-0 0.466 0.458c0.090 0.088 0.214 0.143 0.35 0.143s0.26-0.055 0.35-0.143l-0 0 0.466-0.458c0.181-0.175 0.428-0.283 0.7-0.283s0.519 0.108 0.7 0.284l-0-0c0.176 0.17 0.285 0.408 0.285 0.672s-0.109 0.502-0.285 0.672l-0 0z"></path>
</svg>
