<svg version="1.1" xmlns="http://www.w3.org/2000/svg" width="16" height="16" viewBox="0 0 16 16">
<title>clipboard-check</title>
<path d="M6.5 15h-2.5c-0.552 0-1-0.448-1-1v0-11c0-0.552 0.448-1 1-1v0h1v1.5c0 0.276 0.224 0.5 0.5 0.5v0h5c0.276 0 0.5-0.224 0.5-0.5v0-1.5h1c0.552 0 1 0.448 1 1v0 3.5c0 0.276 0.224 0.5 0.5 0.5s0.5-0.224 0.5-0.5v0-3.5c0-1.105-0.895-2-2-2v0h-2.274c-0.35-0.602-0.991-1-1.726-1s-1.376 0.398-1.721 0.99l-0.005 0.009h-2.274c-1.105 0-2 0.895-2 2v0 11c0 1.105 0.895 2 2 2v0h2.5c0.276 0 0.5-0.224 0.5-0.5s-0.224-0.5-0.5-0.5v0zM6 2h0.592c0.216-0 0.4-0.137 0.47-0.33l0.001-0.003c0.139-0.391 0.506-0.666 0.937-0.666s0.798 0.275 0.935 0.659l0.002 0.007c0.071 0.196 0.255 0.333 0.471 0.333h0.592v1h-4z"></path>
<path d="M15.854 10.146c-0.091-0.091-0.216-0.147-0.354-0.147s-0.263 0.056-0.354 0.147l-3.646 3.647-1.646-1.647c-0.091-0.091-0.216-0.147-0.354-0.147-0.276 0-0.501 0.224-0.501 0.501 0 0.138 0.056 0.263 0.147 0.354v0l2 2c0.091 0.091 0.216 0.147 0.354 0.147s0.263-0.056 0.354-0.147l4-4c0.091-0.091 0.147-0.216 0.147-0.354s-0.056-0.263-0.147-0.354l-0-0z"></path>
</svg>
