<svg version="1.1" xmlns="http://www.w3.org/2000/svg" width="16" height="16" viewBox="0 0 16 16">
<title>clipboard-list</title>
<path d="M12 1h-2.274c-0.35-0.602-0.991-1-1.726-1s-1.376 0.398-1.721 0.99l-0.005 0.009h-2.274c-1.105 0-2 0.895-2 2v0 11c0 1.105 0.895 2 2 2v0h8c1.105 0 2-0.895 2-2v0-11c0-1.105-0.895-2-2-2v0zM6 2h0.592c0 0 0 0 0 0 0.216 0 0.4-0.137 0.47-0.329l0.001-0.003c0.138-0.392 0.505-0.668 0.937-0.668s0.799 0.276 0.935 0.661l0.002 0.007c0.071 0.195 0.255 0.332 0.471 0.332 0 0 0 0 0 0h0.592v1h-4zM13 14c0 0.552-0.448 1-1 1v0h-8c-0.552 0-1-0.448-1-1v0-11c0-0.552 0.448-1 1-1v0h1v1.5c0 0.276 0.224 0.5 0.5 0.5v0h5c0.276 0 0.5-0.224 0.5-0.5v0-1.5h1c0.552 0 1 0.448 1 1v0z"></path>
<path d="M6 6.501c0 0.276-0.224 0.5-0.5 0.5s-0.5-0.224-0.5-0.5c0-0.276 0.224-0.5 0.5-0.5s0.5 0.224 0.5 0.5z"></path>
<path d="M10.5 6h-3c-0.276 0-0.5 0.224-0.5 0.5s0.224 0.5 0.5 0.5v0h3c0.276 0 0.5-0.224 0.5-0.5s-0.224-0.5-0.5-0.5v0z"></path>
<path d="M6 9.501c0 0.276-0.224 0.5-0.5 0.5s-0.5-0.224-0.5-0.5c0-0.276 0.224-0.5 0.5-0.5s0.5 0.224 0.5 0.5z"></path>
<path d="M10.5 9h-3c-0.276 0-0.5 0.224-0.5 0.5s0.224 0.5 0.5 0.5v0h3c0.276 0 0.5-0.224 0.5-0.5s-0.224-0.5-0.5-0.5v0z"></path>
<path d="M6 12.501c0 0.276-0.224 0.5-0.5 0.5s-0.5-0.224-0.5-0.5c0-0.276 0.224-0.5 0.5-0.5s0.5 0.224 0.5 0.5z"></path>
<path d="M10.5 12h-3c-0.276 0-0.5 0.224-0.5 0.5s0.224 0.5 0.5 0.5v0h3c0.276 0 0.5-0.224 0.5-0.5s-0.224-0.5-0.5-0.5v0z"></path>
</svg>
