<svg version="1.1" xmlns="http://www.w3.org/2000/svg" width="16" height="16" viewBox="0 0 16 16">
<title>clipboard-ban</title>
<path d="M6.5 15h-2.5c-0.552 0-1-0.448-1-1v0-11c0-0.552 0.448-1 1-1v0h1v1.5c0 0.276 0.224 0.5 0.5 0.5v0h5c0.276 0 0.5-0.224 0.5-0.5v0-1.5h1c0.552 0 1 0.448 1 1v0 3.5c0 0.276 0.224 0.5 0.5 0.5s0.5-0.224 0.5-0.5v0-3.5c0-1.105-0.895-2-2-2v0h-2.274c-0.35-0.602-0.991-1-1.726-1s-1.376 0.398-1.721 0.99l-0.005 0.009h-2.274c-1.105 0-2 0.895-2 2v0 11c0 1.105 0.895 2 2 2v0h2.5c0.276 0 0.5-0.224 0.5-0.5s-0.224-0.5-0.5-0.5v0zM6 2h0.592c0.216-0 0.4-0.137 0.47-0.33l0.001-0.003c0.139-0.391 0.506-0.666 0.937-0.666s0.798 0.275 0.935 0.659l0.002 0.007c0.071 0.196 0.255 0.333 0.471 0.333h0.592v1h-4z"></path>
<path d="M12.5 9c-1.933 0-3.5 1.567-3.5 3.5s1.567 3.5 3.5 3.5c1.933 0 3.5-1.567 3.5-3.5v0c0-1.933-1.567-3.5-3.5-3.5v0zM10 12.5c0-1.381 1.119-2.5 2.5-2.5v0c0.001 0 0.001 0 0.002 0 0.512 0 0.988 0.156 1.383 0.423l-0.009-0.006-3.459 3.459c-0.261-0.386-0.417-0.862-0.417-1.374 0-0.001 0-0.001 0-0.002v0zM12.5 15c-0.001 0-0.001 0-0.002 0-0.512 0-0.988-0.156-1.383-0.423l0.009 0.006 3.459-3.459c0.261 0.386 0.417 0.862 0.417 1.374 0 0.001 0 0.001 0 0.002v-0c0 1.381-1.119 2.5-2.5 2.5v0z"></path>
</svg>
