<svg version="1.1" xmlns="http://www.w3.org/2000/svg" width="16" height="16" viewBox="0 0 16 16">
<title>clipboard-edit</title>
<path d="M6.5 15h-2.5c-0.552 0-1-0.448-1-1v0-11c0-0.552 0.448-1 1-1v0h1v1.5c0 0.276 0.224 0.5 0.5 0.5v0h5c0.276 0 0.5-0.224 0.5-0.5v0-1.5h1c0.552 0 1 0.448 1 1v0 3.5c0 0.276 0.224 0.5 0.5 0.5s0.5-0.224 0.5-0.5v0-3.5c0-1.105-0.895-2-2-2v0h-2.274c-0.35-0.602-0.991-1-1.726-1s-1.376 0.398-1.721 0.99l-0.005 0.009h-2.274c-1.105 0-2 0.895-2 2v0 11c0 1.105 0.895 2 2 2v0h2.5c0.276 0 0.5-0.224 0.5-0.5s-0.224-0.5-0.5-0.5v0zM6 2h0.592c0.216-0 0.4-0.137 0.47-0.33l0.001-0.003c0.139-0.391 0.506-0.666 0.937-0.666s0.798 0.275 0.935 0.659l0.002 0.007c0.071 0.196 0.255 0.333 0.471 0.333h0.592v1h-4z"></path>
<path d="M15.561 9.44v0c-0.271-0.272-0.647-0.44-1.061-0.44s-0.79 0.168-1.061 0.44l-2.984 2.985c-0.194 0.193-0.355 0.418-0.475 0.668l-0.006 0.014-0.9 1.935c-0.045 0.088-0.071 0.192-0.071 0.302 0 0.182 0.072 0.348 0.19 0.469l-0-0c0.117 0.116 0.277 0.187 0.454 0.187 0.001 0 0.001 0 0.002 0h-0c0.113-0 0.221-0.027 0.316-0.073l-0.004 0.002 1.934-0.9c0.264-0.126 0.489-0.287 0.682-0.481l2.985-2.984c0.272-0.271 0.44-0.647 0.44-1.061s-0.168-0.79-0.44-1.061l-0-0zM14.854 10.854l-2.985 2.985c-0.113 0.114-0.245 0.208-0.392 0.278l-0.008 0.004-1.108 0.517 0.517-1.108c0.074-0.155 0.168-0.287 0.282-0.4l2.984-2.985c0.091-0.091 0.216-0.147 0.354-0.147s0.263 0.056 0.354 0.147l0 0c0.090 0.090 0.146 0.215 0.146 0.353s-0.056 0.263-0.146 0.353l0-0z"></path>
</svg>
