<svg version="1.1" xmlns="http://www.w3.org/2000/svg" width="16" height="16" viewBox="0 0 16 16">
<title>clock-o</title>
<path d="M8 0c-4.418 0-8 3.582-8 8s3.582 8 8 8c4.418 0 8-3.582 8-8v0c-0.005-4.416-3.584-7.995-8-8h-0zM8 15c-3.866 0-7-3.134-7-7s3.134-7 7-7c3.866 0 7 3.134 7 7v0c-0.005 3.864-3.136 6.995-7 7h-0z"></path>
<path d="M11.765 10.076l-3.765-2.353v-4.223c0-0.276-0.224-0.5-0.5-0.5s-0.5 0.224-0.5 0.5v0 4.5c0 0 0 0 0 0 0 0.178 0.093 0.334 0.233 0.423l0.002 0.001 4 2.5c0.075 0.048 0.165 0.076 0.263 0.076 0.001 0 0.001 0 0.002 0h-0c0 0 0 0 0 0 0.276 0 0.5-0.224 0.5-0.5 0-0.178-0.093-0.334-0.233-0.423l-0.002-0.001z"></path>
</svg>
