<svg version="1.1" xmlns="http://www.w3.org/2000/svg" width="16" height="16" viewBox="0 0 16 16">
<title>clone</title>
<path d="M3.5 10h-0.5c-0.552 0-1-0.448-1-1v0-6c0-0.552 0.448-1 1-1v0h6c0.552 0 1 0.448 1 1v0 0.5c0 0.276 0.224 0.5 0.5 0.5s0.5-0.224 0.5-0.5v0-0.5c0-1.105-0.895-2-2-2v0h-6c-1.105 0-2 0.895-2 2v0 6c0 1.105 0.895 2 2 2v0h0.5c0.276 0 0.5-0.224 0.5-0.5s-0.224-0.5-0.5-0.5v0z"></path>
<path d="M13 4.991h-6c-1.105 0-2 0.895-2 2v0 6c0 1.105 0.895 2 2 2v0h6c1.105 0 2-0.895 2-2v0-6c0-1.105-0.895-2-2-2v0zM14 12.991c0 0.552-0.448 1-1 1v0h-6c-0.552 0-1-0.448-1-1v0-6c0-0.552 0.448-1 1-1v0h6c0.552 0 1 0.448 1 1v0z"></path>
</svg>
