<svg version="1.1" xmlns="http://www.w3.org/2000/svg" width="16" height="16" viewBox="0 0 16 16">
<title>cloud-clock</title>
<path d="M13 6.968v0c0-0.001 0-0.003 0-0.004 0-1.659-1.342-3.005-2.999-3.012h-0.001c-0.435 0-0.847 0.095-1.218 0.265l0.018-0.007c-0.533-1.295-1.785-2.191-3.246-2.191-1.933 0-3.5 1.567-3.5 3.5v0c0.001 0.26 0.031 0.512 0.086 0.754l-0.004-0.023c-1.267 0.55-2.136 1.791-2.136 3.234 0 1.936 1.565 3.507 3.5 3.516h0.001c0.276 0 0.5-0.224 0.5-0.5s-0.224-0.5-0.5-0.5v0c-1.383-0.008-2.501-1.131-2.501-2.515 0-1.163 0.789-2.141 1.861-2.429l0.018-0.004c0.216-0.058 0.372-0.253 0.372-0.483 0-0.060-0.011-0.118-0.030-0.172l0.001 0.003c-0.103-0.26-0.164-0.56-0.166-0.875v-0.001c0.011-1.372 1.126-2.481 2.5-2.481 1.21 0 2.219 0.86 2.45 2.002l0.003 0.016c0.043 0.236 0.247 0.412 0.492 0.412 0.117 0 0.224-0.040 0.309-0.107l-0.001 0.001c0.326-0.257 0.741-0.413 1.192-0.418l0.001-0c1.106 0.006 2 0.903 2 2.010 0 0.002 0 0.004-0 0.006v-0c-0.002 0.164-0.023 0.323-0.062 0.475l0.003-0.014c-0.008 0.034-0.013 0.073-0.013 0.113 0 0.276 0.224 0.5 0.5 0.5 0.040 0 0.079-0.005 0.116-0.014l-0.003 0.001c0.137-0.036 0.295-0.057 0.458-0.058h0.001c1.108 0.008 2.003 0.908 2.003 2.017 0 0.967-0.681 1.776-1.59 1.972l-0.013 0.002c-0.23 0.048-0.4 0.249-0.4 0.49 0 0.276 0.224 0.5 0.5 0.5 0.035 0 0.070-0.004 0.103-0.011l-0.003 0.001c1.382-0.294 2.404-1.505 2.404-2.954 0-1.662-1.343-3.009-3.003-3.017h-0.001z"></path>
<path d="M8.5 9c-1.933 0-3.5 1.567-3.5 3.5s1.567 3.5 3.5 3.5c1.933 0 3.5-1.567 3.5-3.5v0c0-1.933-1.567-3.5-3.5-3.5v0zM8.5 15c-1.381 0-2.5-1.119-2.5-2.5s1.119-2.5 2.5-2.5c1.381 0 2.5 1.119 2.5 2.5v0c0 1.381-1.119 2.5-2.5 2.5v0z"></path>
<path d="M9 12.293v-0.793c0-0.276-0.224-0.5-0.5-0.5s-0.5 0.224-0.5 0.5v0 1c0 0 0 0.001 0 0.001 0 0.138 0.056 0.263 0.146 0.353l1 1c0.091 0.091 0.216 0.147 0.354 0.147 0.276 0 0.501-0.224 0.501-0.501 0-0.138-0.056-0.263-0.147-0.354v0z"></path>
</svg>
