<svg version="1.1" xmlns="http://www.w3.org/2000/svg" width="16" height="16" viewBox="0 0 16 16">
<title>cloud</title>
<path d="M12.979 6.968v0c0-0.001 0-0.003 0-0.004 0-1.659-1.342-3.005-2.999-3.012h-0.001c-0.435 0-0.847 0.095-1.218 0.265l0.018-0.007c-0.533-1.295-1.785-2.191-3.246-2.191-1.933 0-3.5 1.567-3.5 3.5v0c0.001 0.26 0.031 0.512 0.086 0.755l-0.004-0.023c-1.265 0.551-2.134 1.791-2.134 3.233 0 1.936 1.564 3.506 3.497 3.516h9.501c1.666 0 3.016-1.35 3.016-3.016s-1.35-3.016-3.016-3.016v0zM12.979 12h-9.5c-1.383-0.008-2.501-1.131-2.501-2.515 0-1.163 0.789-2.141 1.861-2.429l0.018-0.004c0.216-0.058 0.373-0.253 0.373-0.484 0-0.060-0.011-0.118-0.030-0.172l0.001 0.003c-0.103-0.26-0.164-0.56-0.166-0.875v-0.001c0.011-1.372 1.126-2.481 2.5-2.481 1.21 0 2.219 0.86 2.45 2.002l0.003 0.016c0.043 0.236 0.247 0.412 0.492 0.412 0.117 0 0.224-0.040 0.309-0.107l-0.001 0.001c0.328-0.256 0.746-0.412 1.2-0.413h0c1.106 0.006 2 0.903 2 2.010 0 0.002 0 0.004-0 0.006v-0c-0.002 0.164-0.023 0.323-0.062 0.475l0.003-0.014c-0.008 0.034-0.013 0.073-0.013 0.113 0 0.139 0.056 0.265 0.147 0.356l-0-0c0.090 0.090 0.215 0.146 0.353 0.146 0.041 0 0.081-0.005 0.12-0.014l-0.003 0.001c0.136-0.036 0.293-0.057 0.455-0.059l0.001-0c1.113 0 2.016 0.903 2.016 2.016s-0.903 2.016-2.016 2.016v0z"></path>
</svg>
