<svg version="1.1" xmlns="http://www.w3.org/2000/svg" width="16" height="16" viewBox="0 0 16 16">
<title>code-group</title>
<path d="M15.5 2h-1c-0.276 0-0.5 0.224-0.5 0.5v1c0 0.276 0.224 0.5 0.5 0.5h1c0.276 0 0.5-0.224 0.5-0.5v-1c0-0.276-0.224-0.5-0.5-0.5z"></path>
<path d="M1.5 12h-1c-0.276 0-0.5 0.224-0.5 0.5v1c0 0.276 0.224 0.5 0.5 0.5h1c0.276 0 0.5-0.224 0.5-0.5v-1c0-0.276-0.224-0.5-0.5-0.5z"></path>
<path d="M15.5 12h-0.5v-5.5c0-0.276-0.224-0.5-0.5-0.5h-4.5v-2.5c0-0.276-0.224-0.5-0.5-0.5h-7.5v-0.5c0-0.276-0.224-0.5-0.5-0.5h-1c-0.276 0-0.5 0.224-0.5 0.5v1c0 0.276 0.224 0.5 0.5 0.5h0.5v5.5c0 0.276 0.224 0.5 0.5 0.5h4.5v2.5c0 0.276 0.224 0.5 0.5 0.5h7.5v0.5c0 0.276 0.224 0.5 0.5 0.5h1c0.276 0 0.5-0.224 0.5-0.5v-1c0-0.276-0.224-0.5-0.5-0.5zM2 9v-5h7v2h-2.5c-0.276 0-0.5 0.224-0.5 0.5v2.5h-4zM9 7v2h-2v-2h2zM7 10h2.5c0.276 0 0.5-0.224 0.5-0.5v-2.5h4v5h-7v-2z"></path>
</svg>
