<svg version="1.1" xmlns="http://www.w3.org/2000/svg" width="16" height="16" viewBox="0 0 16 16">
<title>code</title>
<path d="M12 12c-0.128 0-0.256-0.049-0.354-0.146-0.195-0.195-0.195-0.512 0-0.707l3.147-3.147-3.146-3.146c-0.195-0.195-0.195-0.512 0-0.707s0.512-0.195 0.707 0l3.5 3.5c0.195 0.195 0.195 0.512 0 0.707l-3.5 3.5c-0.098 0.097-0.226 0.146-0.354 0.146zM4 12c-0.128 0-0.256-0.049-0.354-0.146l-3.5-3.5c-0.195-0.195-0.195-0.512 0-0.707l3.5-3.5c0.195-0.195 0.512-0.195 0.707 0s0.195 0.512 0 0.707l-3.146 3.146 3.146 3.146c0.195 0.195 0.195 0.512 0 0.707-0.097 0.098-0.225 0.147-0.353 0.147zM5.5 15l-0.18-0.033c-0.257-0.1-0.386-0.389-0.287-0.646l5-13c0.099-0.257 0.388-0.387 0.646-0.287 0.257 0.1 0.386 0.389 0.287 0.646l-5 13c-0.076 0.198-0.265 0.32-0.466 0.32z"></path>
</svg>
