<svg version="1.1" xmlns="http://www.w3.org/2000/svg" width="16" height="16" viewBox="0 0 16 16">
<title>code-fork</title>
<path d="M11.5 1c-1.379 0-2.5 1.121-2.5 2.5 0 0.79 0.375 1.486 0.948 1.945-0.243 1.182-1.437 1.886-2.7 2.623-0.785 0.458-1.619 0.95-2.248 1.596v-4.715c1.14-0.232 2-1.241 2-2.449 0-1.379-1.121-2.5-2.5-2.5s-2.5 1.121-2.5 2.5c0 1.208 0.86 2.217 2 2.449v6.101c-1.14 0.232-2 1.242-2 2.449 0 1.38 1.121 2.501 2.5 2.501s2.5-1.121 2.5-2.5c0-1.135-0.765-2.085-1.803-2.389 0.417-0.923 1.458-1.539 2.555-2.18 1.275-0.744 2.68-1.579 3.106-3.026 0.206 0.056 0.419 0.095 0.642 0.095 1.379 0 2.5-1.121 2.5-2.5s-1.121-2.5-2.5-2.5zM3 2.5c0-0.827 0.673-1.5 1.5-1.5s1.5 0.673 1.5 1.5-0.673 1.5-1.5 1.5-1.5-0.673-1.5-1.5zM6 13.5c0 0.827-0.673 1.5-1.5 1.5s-1.5-0.673-1.5-1.5 0.673-1.5 1.5-1.5 1.5 0.673 1.5 1.5zM11.5 5c-0.827 0-1.5-0.673-1.5-1.5s0.673-1.5 1.5-1.5 1.5 0.673 1.5 1.5-0.673 1.5-1.5 1.5z"></path>
</svg>
