<svg version="1.1" xmlns="http://www.w3.org/2000/svg" width="16" height="16" viewBox="0 0 16 16">
<title>coffee</title>
<path d="M13.5 6h-13c-0 0-0 0-0.001 0-0.276 0-0.5 0.224-0.5 0.5 0 0.008 0 0.017 0.001 0.025l-0-0.001c0.181 3.653 1.343 6.955 3.11 8.832 0.371 0.395 0.895 0.641 1.476 0.644h3.827c0.582-0.003 1.106-0.249 1.476-0.643l0.001-0.001c1.063-1.21 1.873-2.669 2.33-4.278l0.019-0.078h1.261c1.381 0 2.5-1.119 2.5-2.5s-1.119-2.5-2.5-2.5v0zM9.162 14.671c-0.187 0.202-0.453 0.328-0.749 0.329h-3.826c-0.296-0.001-0.562-0.127-0.748-0.328l-0.001-0.001c-1.526-1.622-2.559-4.462-2.805-7.671h10.934c-0.246 3.209-1.279 6.049-2.805 7.671zM13.5 10h-0.99c0.216-0.865 0.379-1.89 0.456-2.939l0.004-0.061h0.53c0.828 0 1.5 0.672 1.5 1.5s-0.672 1.5-1.5 1.5v0z"></path>
<path d="M4.677 2.119c-0.41 0.326-0.672 0.822-0.677 1.38v0.001c0.006 0.562 0.271 1.061 0.68 1.385l0.004 0.003c0.085 0.068 0.193 0.109 0.311 0.109 0.157 0 0.296-0.072 0.388-0.185l0.001-0.001c0.070-0.085 0.112-0.195 0.112-0.315 0-0.154-0.070-0.292-0.18-0.384l-0.001-0.001c-0.186-0.143-0.307-0.362-0.315-0.61l-0-0.001c0.009-0.253 0.133-0.475 0.321-0.618l0.002-0.001c0.41-0.326 0.672-0.822 0.677-1.38v-0.001c-0.007-0.564-0.273-1.064-0.684-1.388l-0.004-0.003c-0.084-0.066-0.191-0.105-0.307-0.105-0.276 0-0.5 0.224-0.5 0.5 0 0.154 0.069 0.291 0.178 0.383l0.001 0.001c0.187 0.143 0.308 0.363 0.316 0.612l0 0.001c-0.009 0.253-0.133 0.475-0.321 0.618l-0.002 0.001z"></path>
<path d="M7.677 2.119c-0.41 0.326-0.672 0.822-0.677 1.38v0.001c0.006 0.562 0.271 1.061 0.68 1.385l0.004 0.003c0.085 0.068 0.193 0.109 0.311 0.109 0.157 0 0.296-0.072 0.388-0.185l0.001-0.001c0.070-0.085 0.112-0.195 0.112-0.315 0-0.154-0.070-0.292-0.18-0.384l-0.001-0.001c-0.186-0.143-0.307-0.362-0.315-0.61l-0-0.001c0.009-0.253 0.133-0.475 0.321-0.618l0.002-0.001c0.41-0.326 0.672-0.822 0.677-1.38v-0.001c-0.007-0.564-0.273-1.064-0.684-1.388l-0.004-0.003c-0.084-0.066-0.191-0.105-0.307-0.105-0.276 0-0.5 0.224-0.5 0.5 0 0.154 0.069 0.291 0.178 0.383l0.001 0.001c0.187 0.143 0.308 0.363 0.316 0.612l0 0.001c-0.009 0.253-0.133 0.475-0.321 0.618l-0.002 0.001z"></path>
</svg>
