<svg version="1.1" xmlns="http://www.w3.org/2000/svg" width="16" height="16" viewBox="0 0 16 16">
<title>combo-chart</title>
<path d="M15.5 5h-3c-0.276 0-0.5 0.224-0.5 0.5v7.5h-1v-5.5c0-0.276-0.224-0.5-0.5-0.5h-3c-0.276 0-0.5 0.224-0.5 0.5v5.5h-1v-3.5c0-0.276-0.224-0.5-0.5-0.5h-3c-0.276 0-0.5 0.224-0.5 0.5v3.5h-1v-11.5c0-0.276-0.224-0.5-0.5-0.5s-0.5 0.224-0.5 0.5v12c0 0.276 0.224 0.5 0.5 0.5h15c0.276 0 0.5-0.224 0.5-0.5v-8c0-0.276-0.224-0.5-0.5-0.5zM5 13h-2v-3h2v3zM10 13h-2v-5h2v5zM15 13h-2v-7h2v7z"></path>
<path d="M2.5 7.101c0.062 0 0.125-0.011 0.186-0.036l13-5.201c0.257-0.103 0.381-0.394 0.278-0.65s-0.394-0.382-0.649-0.279l-13 5.201c-0.257 0.103-0.381 0.394-0.279 0.65 0.078 0.196 0.266 0.315 0.464 0.315z"></path>
</svg>
