<svg version="1.1" xmlns="http://www.w3.org/2000/svg" width="16" height="16" viewBox="0 0 16 16">
<title>commenting</title>
<path d="M12 2h-8c-2.209 0-4 1.791-4 4v0 2c0.008 1.851 1.265 3.407 2.972 3.868l0.028 0.006v2.626c0 0.207 0.126 0.385 0.306 0.461l0.003 0.001c0.056 0.024 0.122 0.038 0.191 0.038h0c0 0 0.001 0 0.001 0 0.138 0 0.263-0.056 0.353-0.146l2.853-2.854h5.293c2.209 0 4-1.791 4-4v0-2c0-2.209-1.791-4-4-4v0zM4 8c-0.552 0-1-0.448-1-1s0.448-1 1-1c0.552 0 1 0.448 1 1v0c0 0.552-0.448 1-1 1v0zM8 8c-0.552 0-1-0.448-1-1s0.448-1 1-1c0.552 0 1 0.448 1 1v0c0 0.552-0.448 1-1 1v0zM12 8c-0.552 0-1-0.448-1-1s0.448-1 1-1c0.552 0 1 0.448 1 1v0c0 0.552-0.448 1-1 1v0z"></path>
</svg>
