<svg version="1.1" xmlns="http://www.w3.org/2000/svg" width="16" height="16" viewBox="0 0 16 16">
<title>comments-o</title>
<path d="M9 5h-6c-1.657 0-3 1.343-3 3v0 2c0.003 1.298 0.826 2.402 1.979 2.822l0.021 0.007v2.671c0 0.207 0.126 0.385 0.306 0.461l0.003 0.001c0.056 0.024 0.122 0.038 0.191 0.038h0c0 0 0.001 0 0.001 0 0.138 0 0.263-0.056 0.353-0.146l2.853-2.854h3.293c1.657 0 3-1.343 3-3v0-2c0-1.657-1.343-3-3-3v0zM11 10c0 1.105-0.895 2-2 2v0h-3.5c-0 0-0.001 0-0.001 0-0.138 0-0.263 0.056-0.353 0.146l-2.146 2.147v-1.843c0-0 0-0 0-0 0-0.241-0.17-0.442-0.397-0.489l-0.003-0.001c-0.919-0.193-1.6-0.997-1.6-1.96 0-0 0-0 0-0v0-2c0-1.105 0.895-2 2-2v0h6c1.105 0 2 0.895 2 2v0z"></path>
<path d="M13 0h-6c-1.657 0-3 1.343-3 3v0 0.5c0 0.276 0.224 0.5 0.5 0.5s0.5-0.224 0.5-0.5v0-0.5c0-1.105 0.895-2 2-2v0h6c1.105 0 2 0.895 2 2v0 2c0 0 0 0 0 0 0 0.963-0.681 1.767-1.587 1.957l-0.013 0.002c-0.23 0.048-0.4 0.249-0.4 0.49 0 0.276 0.224 0.5 0.5 0.5 0.035 0 0.070-0.004 0.103-0.011l-0.003 0.001c1.378-0.292 2.397-1.496 2.4-2.94v-2c0-1.657-1.343-3-3-3v0z"></path>
</svg>
