<svg version="1.1" xmlns="http://www.w3.org/2000/svg" width="16" height="16" viewBox="0 0 16 16">
<title>comments</title>
<path d="M13 0h-6c-1.657 0-3 1.343-3 3v0 1h5c2.209 0 4 1.791 4 4v0c1.657 0 3-1.343 3-3v0-2c0-1.657-1.343-3-3-3v0z"></path>
<path d="M9 5h-6c-1.657 0-3 1.343-3 3v0 2c0 1.298 0.825 2.404 1.979 2.821l0.021 0.007v2.672c0 0.207 0.126 0.385 0.306 0.461l0.003 0.001c0.056 0.024 0.122 0.038 0.191 0.038h0c0 0 0.001 0 0.001 0 0.138 0 0.263-0.056 0.353-0.146l2.853-2.854h3.293c1.657 0 3-1.343 3-3v0-2c0-1.657-1.343-3-3-3v0z"></path>
</svg>
