<svg version="1.1" xmlns="http://www.w3.org/2000/svg" width="16" height="16" viewBox="0 0 16 16">
<title>contacts</title>
<path d="M8.5 8c0.828 0 1.5-0.672 1.5-1.5v0 0c0-0.828-0.672-1.5-1.5-1.5s-1.5 0.672-1.5 1.5v0 0c0 0.828 0.672 1.5 1.5 1.5v0z"></path>
<path d="M10.365 9.359c-0.552-0.227-1.193-0.359-1.865-0.359s-1.313 0.132-1.899 0.371l0.034-0.012c-0.375 0.154-0.635 0.517-0.635 0.941 0 0 0 0 0 0.001v-0 0.7h5v-0.7c0-0 0-0 0-0 0-0.423-0.26-0.786-0.628-0.938l-0.007-0.002z"></path>
<path d="M13 0h-9c-1.105 0-2 0.895-2 2v0 1h-0.5c-0.276 0-0.5 0.224-0.5 0.5s0.224 0.5 0.5 0.5v0h0.5v2h-0.5c-0.276 0-0.5 0.224-0.5 0.5s0.224 0.5 0.5 0.5v0h0.5v2h-0.5c-0.276 0-0.5 0.224-0.5 0.5s0.224 0.5 0.5 0.5v0h0.5v2h-0.5c-0.276 0-0.5 0.224-0.5 0.5s0.224 0.5 0.5 0.5v0h0.5v1c0 1.105 0.895 2 2 2v0h9c1.105 0 2-0.895 2-2v0-12c0-1.105-0.895-2-2-2v0zM14 14c0 0.552-0.448 1-1 1v0h-9c-0.552 0-1-0.448-1-1v0-12c0-0.552 0.448-1 1-1v0h9c0.552 0 1 0.448 1 1v0z"></path>
</svg>
