<svg version="1.1" xmlns="http://www.w3.org/2000/svg" width="16" height="16" viewBox="0 0 16 16">
<title>copyright</title>
<path d="M8 0c-4.411 0-8 3.589-8 8s3.589 8 8 8 8-3.589 8-8-3.589-8-8-8zM8 15c-3.86 0-7-3.141-7-7s3.14-7 7-7 7 3.141 7 7-3.14 7-7 7zM10.122 5.879c0.195 0.195 0.512 0.195 0.707 0s0.195-0.512 0-0.707c-1.56-1.561-4.098-1.561-5.657 0-0.756 0.755-1.172 1.76-1.172 2.828s0.416 2.073 1.171 2.828c0.78 0.78 1.804 1.17 2.829 1.17s2.049-0.39 2.829-1.17c0.195-0.195 0.195-0.512 0-0.707s-0.512-0.195-0.707 0c-1.134 1.133-3.109 1.133-4.243 0-0.567-0.566-0.879-1.319-0.879-2.121s0.312-1.555 0.878-2.121c1.134-1.133 3.11-1.133 4.244 0z"></path>
</svg>
