<svg version="1.1" xmlns="http://www.w3.org/2000/svg" width="16" height="16" viewBox="0 0 16 16">
<title>copy</title>
<path d="M14.707 4l-2.707-2.707c-0.181-0.181-0.431-0.293-0.707-0.293h-4.293c-0.552 0-1 0.448-1 1v0 0.5c0 0.276 0.224 0.5 0.5 0.5s0.5-0.224 0.5-0.5v0-0.5h4.293l2.707 2.707v6.293h-2.5c-0.276 0-0.5 0.224-0.5 0.5s0.224 0.5 0.5 0.5v0h2.5c0.552 0 1-0.448 1-1v0-6.293c-0-0.276-0.112-0.526-0.293-0.707v0z"></path>
<path d="M12.5 6c0.276 0 0.5-0.224 0.5-0.5s-0.224-0.5-0.5-0.5v0h-1.5v-1.5c0-0.276-0.224-0.5-0.5-0.5s-0.5 0.224-0.5 0.5v0 1.5c0 0.552 0.448 1 1 1v0z"></path>
<path d="M7 4.293c-0.181-0.181-0.431-0.293-0.707-0.293h-4.293c-0.552 0-1 0.448-1 1v0 9c0 0.552 0.448 1 1 1v0h7c0.552 0 1-0.448 1-1v0-6.293c0-0.001 0-0.002 0-0.004 0-0.275-0.112-0.524-0.293-0.703l-0-0zM9 14h-7v-9h4.293l2.707 2.707z"></path>
<path d="M6 6.5c0-0.276-0.224-0.5-0.5-0.5s-0.5 0.224-0.5 0.5v0 1.5c0 0.552 0.448 1 1 1v0h1.5c0.276 0 0.5-0.224 0.5-0.5s-0.224-0.5-0.5-0.5v0h-1.5z"></path>
</svg>
