<svg version="1.1" xmlns="http://www.w3.org/2000/svg" width="16" height="16" viewBox="0 0 16 16">
<title>creative-commons</title>
<path d="M8 0c-4.411 0-8 3.589-8 8s3.589 8 8 8 8-3.589 8-8-3.589-8-8-8zM8 15c-3.859 0-7-3.141-7-7s3.141-7 7-7 7 3.141 7 7-3.141 7-7 7zM6.487 6.763c0.195 0.195 0.512 0.195 0.707 0s0.195-0.512 0-0.707c-1.072-1.072-2.816-1.072-3.889 0s-1.072 2.816 0 3.889c0.536 0.536 1.24 0.804 1.944 0.804s1.408-0.268 1.944-0.804c0.195-0.195 0.195-0.512 0-0.707s-0.512-0.195-0.707 0c-0.682 0.682-1.793 0.682-2.475 0-0.683-0.683-0.683-1.792 0-2.475s1.795-0.682 2.476 0zM12.487 9.237c-0.682 0.682-1.793 0.682-2.475 0s-0.683-1.792 0-2.475c0.682-0.682 1.793-0.682 2.475 0 0.195 0.195 0.512 0.195 0.707 0s0.195-0.512 0-0.707c-1.072-1.072-2.816-1.072-3.889 0s-1.072 2.816 0 3.889c0.536 0.536 1.24 0.804 1.944 0.804s1.408-0.268 1.944-0.804c0.195-0.195 0.195-0.512 0-0.707s-0.51-0.195-0.706 0z"></path>
</svg>
