<svg version="1.1" xmlns="http://www.w3.org/2000/svg" width="16" height="16" viewBox="0 0 16 16">
<title>crop</title>
<path d="M14.5 12h-1.5v-8.293l1.854-1.854c0.195-0.195 0.195-0.512 0-0.707s-0.512-0.195-0.707 0l-1.854 1.854h-8.293v-1.5c0-0.276-0.224-0.5-0.5-0.5s-0.5 0.224-0.5 0.5v1.5h-1.5c-0.276 0-0.5 0.224-0.5 0.5s0.224 0.5 0.5 0.5h1.5v8.5l0.038 0.191c0.051 0.122 0.148 0.22 0.271 0.271l0.191 0.038h8.5v1.5c0 0.276 0.224 0.5 0.5 0.5s0.5-0.224 0.5-0.5v-1.5h1.5c0.276 0 0.5-0.224 0.5-0.5s-0.224-0.5-0.5-0.5zM11.293 4l-7.293 7.293v-7.293h7.293zM4.707 12l7.293-7.293v7.293h-7.293z"></path>
</svg>
