<svg version="1.1" xmlns="http://www.w3.org/2000/svg" width="16" height="16" viewBox="0 0 16 16">
<title>crosshairs</title>
<path d="M8.5 5.727c-1.528 0-2.772 1.244-2.772 2.773s1.244 2.773 2.772 2.773 2.772-1.244 2.772-2.773-1.244-2.773-2.772-2.773zM8.5 10.273c-0.978 0-1.772-0.795-1.772-1.773s0.794-1.773 1.772-1.773 1.772 0.795 1.772 1.773-0.794 1.773-1.772 1.773zM15.5 8h-1.525c-0.239-2.634-2.341-4.736-4.975-4.975v-1.525c0-0.276-0.224-0.5-0.5-0.5s-0.5 0.224-0.5 0.5v1.525c-2.634 0.239-4.736 2.341-4.975 4.975h-1.525c-0.276 0-0.5 0.224-0.5 0.5s0.224 0.5 0.5 0.5h1.525c0.239 2.634 2.341 4.736 4.975 4.975v1.525c0 0.276 0.224 0.5 0.5 0.5s0.5-0.224 0.5-0.5v-1.525c2.634-0.239 4.736-2.341 4.975-4.975h1.525c0.276 0 0.5-0.224 0.5-0.5s-0.224-0.5-0.5-0.5zM8.5 13c-2.481 0-4.5-2.019-4.5-4.5s2.019-4.5 4.5-4.5 4.5 2.019 4.5 4.5-2.019 4.5-4.5 4.5z"></path>
</svg>
