<svg id="Layer_1" data-name="Layer 1" xmlns="http://www.w3.org/2000/svg" width="16" height="16" viewBox="0 0 16 16"><path d="M15.5,7.5h-.525A7,7,0,0,0,8.5,1.025V.5a.5.5,0,0,0-1,0v.525A7,7,0,0,0,1.025,7.5H.5a.5.5,0,0,0,0,1h.525A7,7,0,0,0,7.5,14.975V15.5a.5.5,0,0,0,1,0v-.525A7,7,0,0,0,14.975,8.5H15.5a.5.5,0,0,0,0-1Zm-7,6.475V11.5a.5.5,0,0,0-1,0v2.475A6,6,0,0,1,2.025,8.5H4.5a.5.5,0,0,0,0-1H2.025A6,6,0,0,1,7.5,2.025V4.5a.5.5,0,0,0,1,0V2.025A6,6,0,0,1,13.975,7.5H11.5a.5.5,0,0,0,0,1h2.475A6,6,0,0,1,8.5,13.975ZM9,8A1,1,0,1,1,8,7,1,1,0,0,1,9,8Z"/></svg>