<svg version="1.1" xmlns="http://www.w3.org/2000/svg" width="16" height="16" viewBox="0 0 16 16">
<title>cube</title>
<path d="M14.739 4.328l-6-3.267c-0.15-0.081-0.328-0.081-0.479 0l-6 3.267c-0.159 0.087-0.26 0.255-0.26 0.439v7.467c0 0.183 0.101 0.352 0.261 0.439l6.005 3.264c0.074 0.038 0.153 0.063 0.234 0.063 0.082 0 0.164-0.020 0.239-0.061l6-3.267c0.16-0.087 0.261-0.255 0.261-0.439v-7.466c0-0.184-0.101-0.352-0.261-0.439zM8 14.659l-5-2.722v-6.329l5 2.722v6.329zM8.5 7.464l-4.954-2.697 4.954-2.698 4.954 2.697-4.954 2.698zM14 11.937l-5 2.722v-6.329l5-2.722v6.329z"></path>
</svg>
