<svg version="1.1" xmlns="http://www.w3.org/2000/svg" width="16" height="16" viewBox="0 0 16 16">
<title>cutlery</title>
<path d="M7.5 0c-0.276 0-0.5 0.224-0.5 0.5v3.496h-1v-3.496c0-0.276-0.224-0.5-0.5-0.5s-0.5 0.224-0.5 0.5v3.496h-1v-3.496c0-0.276-0.224-0.5-0.5-0.5s-0.5 0.224-0.5 0.5v5.586c0 0.4 0.156 0.777 0.439 1.061l0.414 0.413c0.093 0.093 0.147 0.222 0.146 0.355l-0.016 6.595c0 0.804 0.662 1.472 1.475 1.49h0.034c0.393 0 0.777-0.157 1.061-0.434 0.288-0.283 0.447-0.658 0.447-1.056v-6.596c0-0.131 0.053-0.26 0.146-0.354l0.414-0.414c0.284-0.283 0.44-0.66 0.44-1.060v-5.586c0-0.276-0.224-0.5-0.5-0.5zM6.854 6.439l-0.415 0.415c-0.283 0.283-0.439 0.66-0.439 1.060v6.596c0 0.127-0.052 0.248-0.147 0.341-0.1 0.097-0.245 0.143-0.373 0.148-0.269-0.006-0.497-0.23-0.497-0.488l0.016-6.594c0-0.396-0.16-0.784-0.439-1.064l-0.414-0.414c-0.093-0.093-0.146-0.222-0.146-0.353v-1.090h3v1.090c0 0.131-0.053 0.26-0.146 0.353zM13.5 0c-2.028 0-3.5 2.734-3.5 6.5 0 0.723 0.152 1.396 0.452 2l0.173 0.35c0.236 0.476 0.376 1.093 0.375 1.649l-0.017 3.956v0.032c0 0.802 0.689 1.496 1.506 1.514h0.034c0.384 0 0.747-0.148 1.024-0.419 0.288-0.282 0.453-0.676 0.453-1.082v-14c0-0.276-0.224-0.5-0.5-0.5zM13 14.5c0 0.14-0.054 0.271-0.152 0.367-0.091 0.089-0.194 0.139-0.336 0.133-0.271-0.006-0.528-0.256-0.528-0.514v-0.028l0.016-3.957c0.001-0.715-0.173-1.479-0.479-2.096l-0.173-0.35c-0.231-0.465-0.348-0.988-0.348-1.555 0-2.928 0.964-4.895 2-5.382v13.382z"></path>
</svg>
