<svg version="1.1" xmlns="http://www.w3.org/2000/svg" width="16" height="16" viewBox="0 0 16 16">
<title>database</title>
<path d="M8 0c-2.229 0-6 0.421-6 2v12c0 1.579 3.771 2 6 2s6-0.421 6-2v-12c0-1.579-3.771-2-6-2zM3 7.189c1.368 0.517 2.949 0.817 4.599 0.817 0.141 0 0.281-0.002 0.421-0.007l-0.020 0c0.119 0.004 0.26 0.006 0.401 0.006 1.651 0 3.232-0.3 4.691-0.848l-0.092 0.030v2.792c-0.143 0.357-1.983 1.020-5 1.020s-4.851-0.661-5-1.018zM8 7c-3.014 0-4.851-0.661-5-1.018v-2.793c1.368 0.517 2.949 0.817 4.599 0.817 0.141 0 0.281-0.002 0.421-0.007l-0.020 0.001c0.119 0.004 0.26 0.006 0.401 0.006 1.651 0 3.232-0.3 4.691-0.847l-0.092 0.030v2.792c-0.145 0.357-1.984 1.019-5 1.019zM8 1c3.022 0 4.863 0.665 5 0.979-0.137 0.356-1.978 1.021-5 1.021s-4.851-0.661-5-0.976v-0.006c0.149-0.357 1.986-1.018 5-1.018zM8 15c-3.022 0-4.863-0.665-5-1v-2.811c1.368 0.517 2.949 0.817 4.599 0.817 0.141 0 0.281-0.002 0.421-0.007l-0.020 0.001c0.119 0.004 0.259 0.006 0.4 0.006 1.651 0 3.232-0.3 4.692-0.848l-0.092 0.030v2.791c-0.137 0.356-1.978 1.021-5 1.021z"></path>
</svg>
