<svg version="1.1" xmlns="http://www.w3.org/2000/svg" width="16" height="16" viewBox="0 0 16 16">
<title>database-new</title>
<path d="M10 7.5v-5.5c0-1.374-2.592-2-5-2s-5 0.626-5 2v9c0 1.374 2.592 2 5 2 0.022 0 0.049 0 0.076 0 0.897 0 1.772-0.097 2.614-0.281l-0.081 0.015c0.236-0.043 0.412-0.247 0.412-0.492 0-0.276-0.224-0.5-0.5-0.5-0.046 0-0.091 0.006-0.133 0.018l0.004-0.001c-0.695 0.153-1.493 0.241-2.311 0.241-0.028 0-0.056-0-0.084-0l0.004 0c-2.625 0-4-0.743-4-1v-1.738c1.087 0.47 2.354 0.743 3.684 0.743 0.111 0 0.222-0.002 0.332-0.006l-0.016 0c0.022 0 0.049 0 0.076 0 0.897 0 1.772-0.097 2.614-0.281l-0.081 0.015c0.236-0.043 0.412-0.247 0.412-0.492 0-0.276-0.224-0.5-0.5-0.5-0.046 0-0.091 0.006-0.133 0.018l0.004-0.001c-0.695 0.153-1.493 0.241-2.311 0.241-0.028 0-0.056-0-0.084-0l0.004 0c-2.625 0-4-0.743-4-1v-1.738c1.087 0.47 2.354 0.743 3.684 0.743 0.111 0 0.222-0.002 0.332-0.006l-0.016 0c0.094 0.003 0.205 0.005 0.316 0.005 1.33 0 2.596-0.273 3.746-0.767l-0.062 0.024v1.238c0 0.276 0.224 0.5 0.5 0.5s0.5-0.224 0.5-0.5v0zM5 1c2.625 0 4 0.743 4 1s-1.375 1-4 1-4-0.743-4-1 1.375-1 4-1zM5 6c-2.625 0-4-0.743-4-1v-1.738c1.087 0.47 2.354 0.743 3.684 0.743 0.111 0 0.222-0.002 0.332-0.006l-0.016 0c0.094 0.003 0.205 0.005 0.316 0.005 1.33 0 2.596-0.273 3.746-0.767l-0.062 0.024v1.738c0 0.257-1.375 1-4 1z"></path>
<path d="M15.348 13.567l-1.848-1.067 1.848-1.067c0.149-0.088 0.247-0.248 0.247-0.431 0-0.276-0.224-0.5-0.5-0.5-0.091 0-0.176 0.024-0.25 0.067l0.002-0.001-1.848 1.067v-2.134c0-0.276-0.224-0.5-0.5-0.5s-0.5 0.224-0.5 0.5v0 2.134l-1.848-1.067c-0.071-0.041-0.156-0.065-0.247-0.065-0.276 0-0.5 0.224-0.5 0.5 0 0.183 0.098 0.343 0.245 0.43l0.002 0.001 1.848 1.067-1.848 1.067c-0.15 0.088-0.25 0.249-0.25 0.433 0 0.276 0.224 0.5 0.5 0.5v0c0 0 0.001 0 0.002 0 0.092 0 0.177-0.025 0.251-0.068l-0.002 0.001 1.848-1.067v2.134c0 0.276 0.224 0.5 0.5 0.5s0.5-0.224 0.5-0.5v0-2.134l1.848 1.067c0.071 0.042 0.157 0.067 0.248 0.067 0.001 0 0.001 0 0.002 0h-0c0.276-0 0.5-0.224 0.5-0.5 0-0.184-0.099-0.345-0.248-0.432l-0.002-0.001z"></path>
</svg>
