<svg version="1.1" xmlns="http://www.w3.org/2000/svg" width="16" height="16" viewBox="0 0 16 16">
<title>database-edit</title>
<path d="M9.5 8c0.276 0 0.5-0.224 0.5-0.5v0-5.5c0-1.374-2.592-2-5-2s-5 0.626-5 2v9c0 1.374 2.592 2 5 2 0.022 0 0.049 0 0.076 0 0.897 0 1.772-0.097 2.614-0.281l-0.081 0.015c0.236-0.043 0.412-0.247 0.412-0.492 0-0.276-0.224-0.5-0.5-0.5-0.046 0-0.091 0.006-0.133 0.018l0.004-0.001c-0.695 0.153-1.493 0.241-2.311 0.241-0.028 0-0.056-0-0.084-0l0.004 0c-2.625 0-4-0.743-4-1v-1.738c1.087 0.47 2.354 0.743 3.684 0.743 0.111 0 0.222-0.002 0.332-0.006l-0.016 0c0.022 0 0.049 0 0.076 0 0.897 0 1.772-0.097 2.614-0.281l-0.081 0.015c0.236-0.043 0.412-0.247 0.412-0.492 0-0.276-0.224-0.5-0.5-0.5-0.046 0-0.091 0.006-0.133 0.018l0.004-0.001c-0.695 0.153-1.493 0.241-2.311 0.241-0.028 0-0.056-0-0.084-0l0.004 0c-2.625 0-4-0.743-4-1v-1.738c1.087 0.47 2.354 0.743 3.684 0.743 0.111 0 0.222-0.002 0.332-0.006l-0.016 0c0.094 0.003 0.205 0.005 0.316 0.005 1.33 0 2.596-0.273 3.746-0.767l-0.062 0.024v1.238c0 0.276 0.224 0.5 0.5 0.5v0zM5 1c2.625 0 4 0.743 4 1s-1.375 1-4 1-4-0.743-4-1 1.375-1 4-1zM5 6c-2.625 0-4-0.743-4-1v-1.738c1.087 0.47 2.354 0.743 3.684 0.743 0.111 0 0.222-0.002 0.332-0.006l-0.016 0c0.094 0.003 0.205 0.005 0.316 0.005 1.33 0 2.596-0.273 3.746-0.767l-0.062 0.024v1.738c0 0.257-1.375 1-4 1z"></path>
<path d="M15.561 9.44v0c-0.271-0.272-0.647-0.44-1.061-0.44s-0.79 0.168-1.061 0.44l-2.984 2.985c-0.194 0.193-0.355 0.418-0.475 0.668l-0.006 0.014-0.9 1.935c-0.045 0.088-0.071 0.192-0.071 0.302 0 0.182 0.072 0.348 0.19 0.469l-0-0c0.117 0.116 0.277 0.187 0.454 0.187 0.001 0 0.001 0 0.002 0h-0c0.113-0 0.221-0.027 0.316-0.073l-0.004 0.002 1.934-0.9c0.264-0.126 0.489-0.287 0.682-0.481l2.985-2.984c0.272-0.271 0.44-0.647 0.44-1.061s-0.168-0.79-0.44-1.061l-0-0zM14.854 10.854l-2.985 2.985c-0.113 0.114-0.245 0.208-0.392 0.278l-0.008 0.004-1.108 0.517 0.517-1.108c0.074-0.155 0.168-0.287 0.282-0.4l2.984-2.985c0.091-0.091 0.216-0.147 0.354-0.147s0.263 0.056 0.354 0.147l0 0c0.090 0.090 0.146 0.215 0.146 0.353s-0.056 0.263-0.146 0.353l0-0z"></path>
</svg>
