<svg version="1.1" xmlns="http://www.w3.org/2000/svg" width="16" height="16" viewBox="0 0 16 16">
<title>database-heart</title>
<path d="M5 10c0.022 0 0.049 0 0.076 0 0.897 0 1.772-0.097 2.614-0.281l-0.081 0.015c0.236-0.043 0.412-0.247 0.412-0.492 0-0.276-0.224-0.5-0.5-0.5-0.046 0-0.091 0.006-0.133 0.018l0.004-0.001c-0.695 0.153-1.493 0.241-2.311 0.241-0.028 0-0.056-0-0.084-0l0.004 0c-2.625 0-4-0.743-4-1v-1.738c1.087 0.47 2.354 0.743 3.684 0.743 0.111 0 0.222-0.002 0.332-0.006l-0.016 0c0.094 0.003 0.205 0.005 0.316 0.005 1.33 0 2.596-0.273 3.746-0.767l-0.062 0.024v1.238c0 0.276 0.224 0.5 0.5 0.5s0.5-0.224 0.5-0.5v0-5.5c0-1.374-2.592-2-5-2s-5 0.626-5 2v9c0 1.374 2.592 2 5 2 0.022 0 0.049 0 0.076 0 0.897 0 1.772-0.097 2.614-0.281l-0.081 0.015c0.236-0.043 0.412-0.247 0.412-0.492 0-0.276-0.224-0.5-0.5-0.5-0.046 0-0.091 0.006-0.133 0.018l0.004-0.001c-0.695 0.153-1.493 0.241-2.311 0.241-0.028 0-0.056-0-0.084-0l0.004 0c-2.625 0-4-0.743-4-1v-1.738c1.087 0.47 2.354 0.743 3.684 0.743 0.111 0 0.222-0.002 0.332-0.006l-0.016 0zM5 1c2.625 0 4 0.743 4 1s-1.375 1-4 1-4-0.743-4-1 1.375-1 4-1zM1 3.262c1.087 0.47 2.354 0.743 3.684 0.743 0.111 0 0.222-0.002 0.332-0.006l-0.016 0c0.094 0.003 0.205 0.005 0.316 0.005 1.33 0 2.596-0.273 3.746-0.767l-0.062 0.024v1.738c0 0.257-1.375 1-4 1s-4-0.743-4-1z"></path>
<path d="M15.416 10.569c-0.362-0.351-0.856-0.567-1.4-0.567s-1.038 0.216-1.4 0.568l0.001-0-0.116 0.114-0.116-0.114c-0.362-0.351-0.856-0.567-1.4-0.567s-1.038 0.216-1.401 0.568l0.001-0c-0.36 0.352-0.584 0.843-0.584 1.386s0.223 1.034 0.584 1.386l0 0 2.566 2.516c0.090 0.088 0.214 0.143 0.35 0.143s0.26-0.055 0.35-0.143l-0 0 2.566-2.516c0.36-0.352 0.584-0.843 0.584-1.386s-0.223-1.034-0.584-1.386l-0-0zM14.716 12.627l-2.216 2.173-2.215-2.173c-0.176-0.17-0.285-0.408-0.285-0.672s0.109-0.502 0.285-0.672l0-0c0.181-0.175 0.428-0.283 0.7-0.283s0.519 0.108 0.7 0.284l-0-0 0.466 0.458c0.090 0.088 0.214 0.143 0.35 0.143s0.26-0.055 0.35-0.143l-0 0 0.466-0.458c0.181-0.175 0.428-0.283 0.7-0.283s0.519 0.108 0.7 0.284l-0-0c0.176 0.17 0.285 0.408 0.285 0.672s-0.109 0.502-0.285 0.672l-0 0z"></path>
</svg>
