<svg version="1.1" xmlns="http://www.w3.org/2000/svg" width="16" height="16" viewBox="0 0 16 16">
<title>database-pointer</title>
<path d="M5 0c-2.408 0-5 0.626-5 2v9c0 1.374 2.592 2 5 2 0.022 0 0.049 0 0.076 0 0.897 0 1.772-0.097 2.614-0.281l-0.081 0.015c0.236-0.043 0.412-0.247 0.412-0.492 0-0.276-0.224-0.5-0.5-0.5-0.046 0-0.091 0.006-0.133 0.018l0.004-0.001c-0.695 0.153-1.493 0.241-2.311 0.241-0.028 0-0.056-0-0.084-0l0.004 0c-2.625 0-4-0.743-4-1v-1.738c1.087 0.47 2.354 0.743 3.684 0.743 0.111 0 0.222-0.002 0.332-0.006l-0.016 0c0.022 0 0.049 0 0.076 0 0.897 0 1.772-0.097 2.614-0.281l-0.081 0.015c0.236-0.043 0.412-0.247 0.412-0.492 0-0.276-0.224-0.5-0.5-0.5-0.046 0-0.091 0.006-0.133 0.018l0.004-0.001c-0.695 0.153-1.493 0.241-2.311 0.241-0.028 0-0.056-0-0.084-0l0.004 0c-2.625 0-4-0.743-4-1v-1.738c1.087 0.47 2.354 0.743 3.684 0.743 0.111 0 0.222-0.002 0.332-0.006l-0.016 0c0.094 0.003 0.205 0.005 0.316 0.005 1.33 0 2.596-0.273 3.746-0.767l-0.062 0.024v1.238c0 0.276 0.224 0.5 0.5 0.5s0.5-0.224 0.5-0.5v0-5.5c0-1.374-2.592-2-5-2zM5 1c2.625 0 4 0.743 4 1s-1.375 1-4 1-4-0.743-4-1 1.375-1 4-1zM5 6c-2.625 0-4-0.743-4-1v-1.738c1.087 0.47 2.354 0.743 3.684 0.743 0.111 0 0.222-0.002 0.332-0.006l-0.016 0c0.094 0.003 0.205 0.005 0.316 0.005 1.33 0 2.596-0.273 3.746-0.767l-0.062 0.024v1.738c0 0.257-1.375 1-4 1z"></path>
<path d="M14.854 12.147l-3-3c-0.091-0.091-0.216-0.147-0.354-0.147-0.276 0-0.5 0.224-0.5 0.5v0 4.243c0 0.207 0.126 0.385 0.306 0.461l0.003 0.001c0.056 0.024 0.121 0.038 0.19 0.038 0 0 0.001 0 0.001 0h-0c0.138-0 0.263-0.056 0.354-0.147l0.75-0.75 1.008 2.354c0.079 0.178 0.254 0.3 0.458 0.3 0 0 0.001 0 0.001 0h-0c0.001 0 0.002 0 0.004 0 0.071 0 0.138-0.015 0.199-0.042l-0.003 0.001c0.18-0.078 0.303-0.255 0.303-0.46 0-0.071-0.015-0.138-0.041-0.2l0.001 0.003-0.994-2.32 0.954 0.017c0.205-0.004 0.382-0.124 0.468-0.297l0.001-0.003c0.025-0.058 0.040-0.126 0.040-0.197 0-0.139-0.057-0.266-0.149-0.356l-0-0z"></path>
</svg>
