<svg version="1.1" xmlns="http://www.w3.org/2000/svg" width="16" height="16" viewBox="0 0 16 16">
<title>database-user</title>
<path d="M5 10c0.022 0 0.049 0 0.076 0 0.897 0 1.772-0.097 2.614-0.281l-0.081 0.015c0.236-0.043 0.412-0.247 0.412-0.492 0-0.276-0.224-0.5-0.5-0.5-0.046 0-0.091 0.006-0.133 0.018l0.004-0.001c-0.695 0.153-1.493 0.241-2.311 0.241-0.028 0-0.056-0-0.084-0l0.004 0c-2.625 0-4-0.743-4-1v-1.738c1.087 0.47 2.354 0.743 3.684 0.743 0.111 0 0.222-0.002 0.332-0.006l-0.016 0c0.094 0.003 0.205 0.005 0.316 0.005 1.33 0 2.596-0.273 3.746-0.767l-0.062 0.024v1.238c0 0.276 0.224 0.5 0.5 0.5s0.5-0.224 0.5-0.5v0-5.5c0-1.374-2.592-2-5-2s-5 0.626-5 2v9c0 1.374 2.592 2 5 2 0.022 0 0.049 0 0.076 0 0.897 0 1.772-0.097 2.614-0.281l-0.081 0.015c0.236-0.043 0.412-0.247 0.412-0.492 0-0.276-0.224-0.5-0.5-0.5-0.046 0-0.091 0.006-0.133 0.018l0.004-0.001c-0.695 0.153-1.493 0.241-2.311 0.241-0.028 0-0.056-0-0.084-0l0.004 0c-2.625 0-4-0.743-4-1v-1.738c1.087 0.47 2.354 0.743 3.684 0.743 0.111 0 0.222-0.002 0.332-0.006l-0.016 0zM5 1c2.625 0 4 0.743 4 1s-1.375 1-4 1-4-0.743-4-1 1.375-1 4-1zM1 3.262c1.087 0.47 2.354 0.743 3.684 0.743 0.111 0 0.222-0.002 0.332-0.006l-0.016 0c0.094 0.003 0.205 0.005 0.316 0.005 1.33 0 2.596-0.273 3.746-0.767l-0.062 0.024v1.738c0 0.257-1.375 1-4 1s-4-0.743-4-1z"></path>
<path d="M15.16 13.82l-0.834-0.625c0.417-0.446 0.674-1.046 0.674-1.707 0-1.381-1.119-2.5-2.5-2.5s-2.5 1.119-2.5 2.5c0 0.661 0.256 1.261 0.675 1.708l-0.001-0.001-0.833 0.625c-0.511 0.388-0.838 0.996-0.84 1.68v0c0 0.276 0.224 0.5 0.5 0.5s0.5-0.224 0.5-0.5v0c0.001-0.358 0.173-0.676 0.437-0.878l0.003-0.002 1.089-0.816c0.287 0.124 0.62 0.196 0.971 0.196s0.684-0.072 0.987-0.203l-0.016 0.006 1.089 0.817c0.268 0.203 0.44 0.521 0.44 0.879v0c0 0.276 0.224 0.5 0.5 0.5s0.5-0.224 0.5-0.5v0c-0.002-0.684-0.329-1.292-0.835-1.676l-0.005-0.004zM14 11.5c0 0.828-0.672 1.5-1.5 1.5s-1.5-0.672-1.5-1.5c0-0.828 0.672-1.5 1.5-1.5v0c0.828 0 1.5 0.672 1.5 1.5v0z"></path>
</svg>
