<svg version="1.1" xmlns="http://www.w3.org/2000/svg" width="16" height="16" viewBox="0 0 16 16">
<title>deaf</title>
<path d="M14.854 1.146c-0.091-0.091-0.216-0.147-0.354-0.147s-0.263 0.056-0.354 0.147l-13 13c-0.091 0.091-0.147 0.216-0.147 0.354 0 0.276 0.224 0.501 0.501 0.501 0.138 0 0.263-0.056 0.354-0.147l13-13c0.091-0.091 0.147-0.216 0.147-0.354s-0.056-0.263-0.147-0.354l-0-0z"></path>
<path d="M6.324 3.318c0.337-0.199 0.742-0.317 1.176-0.317 0.298 0 0.583 0.056 0.845 0.158l-0.016-0.005c0.051 0.019 0.11 0.030 0.171 0.030 0.276 0 0.5-0.224 0.5-0.5 0-0.215-0.135-0.398-0.326-0.469l-0.003-0.001c-0.348-0.135-0.751-0.213-1.172-0.213-0.607 0-1.176 0.163-1.666 0.447l0.016-0.009c-1.103 0.597-1.842 1.742-1.849 3.061v0.001c-0 0.010-0 0.022-0 0.033 0 0.667 0.223 1.282 0.598 1.774l-0.005-0.007c0.025 0.038 0.041 0.086 0.041 0.136 0 0.059-0.020 0.112-0.054 0.155l0-0.001-0.473 0.6c-0.067 0.084-0.108 0.192-0.108 0.31 0 0.276 0.224 0.501 0.501 0.501 0.159 0 0.301-0.074 0.392-0.19l0.001-0.001 0.472-0.6c0.167-0.211 0.268-0.481 0.268-0.775 0-0.263-0.081-0.507-0.219-0.708l0.003 0.004c-0.26-0.324-0.417-0.74-0.417-1.193 0-0.014 0-0.027 0-0.041l-0 0.002c0.007-0.941 0.536-1.758 1.311-2.175l0.013-0.007z"></path>
<path d="M12.493 6.010c-0.029-0.006-0.063-0.010-0.098-0.010-0.241 0-0.443 0.171-0.49 0.398l-0.001 0.003c-0.226 0.897-0.677 1.667-1.291 2.275l-0 0c-0.996 0.971-1.613 2.325-1.614 3.823v0c0 1.381-1.119 2.5-2.5 2.5v0c-0.276 0-0.5 0.224-0.5 0.5s0.224 0.5 0.5 0.5v0c1.933 0 3.5-1.567 3.5-3.5v0c0-0.002 0-0.004 0-0.006 0-1.249 0.528-2.374 1.373-3.166l0.002-0.002c0.725-0.729 1.255-1.653 1.503-2.687l0.008-0.039c0.006-0.030 0.010-0.064 0.010-0.099 0-0.242-0.172-0.444-0.4-0.49l-0.003-0.001z"></path>
<path d="M2.5 6c0.276 0 0.5-0.224 0.5-0.5v0c0.003-2.484 2.016-4.497 4.5-4.5h0c1.005 0.001 1.931 0.339 2.671 0.908l-0.010-0.008c0.083 0.062 0.187 0.1 0.3 0.1 0.276 0 0.5-0.224 0.5-0.5 0-0.163-0.078-0.308-0.199-0.399l-0.001-0.001c-0.894-0.686-2.029-1.1-3.261-1.1h-0c-3.036 0.003-5.497 2.464-5.5 5.5v0c0 0.276 0.224 0.5 0.5 0.5v0z"></path>
</svg>
