<svg version="1.1" xmlns="http://www.w3.org/2000/svg" width="16" height="16" viewBox="0 0 16 16">
<title>design</title>
<path d="M11.854 10.146c-0.195-0.195-0.512-0.195-0.707 0s-0.195 0.512 0 0.707l2.293 2.293c0.219 0.219 0.138 0.473 0.108 0.545-0.030 0.073-0.152 0.309-0.462 0.309h-10.586c-0.276 0-0.5-0.224-0.5-0.5v-1.5h0.5c0.276 0 0.5-0.224 0.5-0.5s-0.224-0.5-0.5-0.5h-0.5v-1h0.5c0.276 0 0.5-0.224 0.5-0.5s-0.224-0.5-0.5-0.5h-0.5v-1h0.5c0.276 0 0.5-0.224 0.5-0.5s-0.224-0.5-0.5-0.5h-0.5v-1h0.5c0.276 0 0.5-0.224 0.5-0.5s-0.224-0.5-0.5-0.5h-0.5v-2.086c0-0.31 0.236-0.432 0.309-0.462s0.325-0.111 0.545 0.108l3.292 3.292c0.195 0.195 0.512 0.195 0.707 0s0.195-0.512 0-0.707l-3.292-3.291c-0.438-0.437-1.065-0.561-1.635-0.326-0.571 0.237-0.926 0.768-0.926 1.386v10.586c0 0.827 0.673 1.5 1.5 1.5h10.586c0.618 0 1.149-0.355 1.386-0.926s0.112-1.198-0.325-1.635l-2.293-2.293z"></path>
<path d="M5.46 9.206l-0.85 2.552c-0.060 0.18-0.013 0.378 0.121 0.512 0.095 0.095 0.223 0.146 0.354 0.146 0.053 0 0.106-0.008 0.158-0.026l2.552-0.851c0.366-0.122 0.704-0.331 0.977-0.604l5.669-5.669c0.745-0.745 0.745-1.957-0.006-2.707-0.745-0.745-1.956-0.745-2.701 0l-5.67 5.67c-0.273 0.273-0.482 0.611-0.604 0.977zM12.44 3.267c0.177-0.177 0.409-0.265 0.642-0.265 0.234 0 0.47 0.090 0.651 0.271 0.355 0.355 0.355 0.932 0 1.287l-0.733 0.733-1.293-1.293 0.733-0.733zM6.771 8.936l4.229-4.229 1.293 1.293-4.229 4.229c-0.164 0.164-0.367 0.29-0.586 0.363l-1.604 0.534 0.534-1.604c0.074-0.22 0.199-0.422 0.363-0.586z"></path>
</svg>
