<svg version="1.1" xmlns="http://www.w3.org/2000/svg" width="16" height="16" viewBox="0 0 16 16">
<title>desktop</title>
<path d="M14.5 1h-13c-0.827 0-1.5 0.673-1.5 1.5v8c0 0.827 0.673 1.5 1.5 1.5h4.306l-0.781 2.342c-0.050 0.152-0.025 0.32 0.069 0.45 0.094 0.131 0.245 0.208 0.406 0.208h5c0.161 0 0.312-0.077 0.406-0.208s0.12-0.298 0.068-0.451l-0.78-2.341h4.306c0.827 0 1.5-0.673 1.5-1.5v-8c0-0.827-0.673-1.5-1.5-1.5zM1.5 2h13c0.276 0 0.5 0.224 0.5 0.5v5.5h-14v-5.5c0-0.276 0.224-0.5 0.5-0.5zM9.806 14h-3.612l0.666-2h2.28l0.666 2zM14.5 11h-13c-0.276 0-0.5-0.224-0.5-0.5v-1.5h14v1.5c0 0.276-0.224 0.5-0.5 0.5z"></path>
</svg>
