<svg version="1.1" xmlns="http://www.w3.org/2000/svg" width="16" height="16" viewBox="0 0 16 16">
<title>diamond</title>
<path d="M15.879 6.158l-4.286-4.984c-0.094-0.111-0.233-0.174-0.379-0.174h-6.428c-0.146 0-0.285 0.063-0.379 0.174l-4.286 4.984c-0.166 0.194-0.161 0.482 0.014 0.668l7.5 8.016c0.094 0.101 0.227 0.158 0.365 0.158s0.271-0.057 0.365-0.158l7.5-8.016c0.175-0.186 0.18-0.474 0.014-0.668zM6.413 6l-0.989-4h5.151l-0.988 4h-3.174zM9.339 7l-1.339 5.417-1.339-5.417h2.678zM5.383 6h-3.807l2.957-3.439 0.85 3.439zM5.63 7l1.424 5.757-5.387-5.757h3.963zM10.37 7h3.963l-5.387 5.757 1.424-5.757zM10.617 6l0.85-3.439 2.957 3.439h-3.807z"></path>
</svg>
