<svg version="1.1" xmlns="http://www.w3.org/2000/svg" width="16" height="16" viewBox="0 0 16 16">
<title>donut-chart</title>
<path d="M12.5 9h-3c-0.276 0-0.5 0.224-0.5 0.5 0 1.378-1.121 2.5-2.5 2.5s-2.5-1.122-2.5-2.5 1.121-2.5 2.5-2.5c0.276 0 0.5-0.224 0.5-0.5v-3c0-0.276-0.224-0.5-0.5-0.5-3.584 0-6.5 2.916-6.5 6.5s2.916 6.5 6.5 6.5 6.5-2.916 6.5-6.5c0-0.276-0.224-0.5-0.5-0.5zM1 9.5c0-2.864 2.2-5.224 5-5.478v2.013c-1.694 0.244-3 1.705-3 3.465 0 0.785 0.269 1.502 0.707 2.086l-1.431 1.431c-0.796-0.954-1.276-2.18-1.276-3.517zM6.5 15c-1.337 0-2.563-0.48-3.517-1.276l1.43-1.43c0.585 0.437 1.302 0.706 2.087 0.706 0.784 0 1.501-0.27 2.086-0.708l1.42 1.42c-0.954 0.795-2.17 1.288-3.506 1.288zM10.713 13.005l-1.417-1.417c0.343-0.457 0.584-0.996 0.669-1.588h2.013c-0.104 1.141-0.57 2.172-1.265 3.005z"></path>
<path d="M9.5 0.059c-0.276 0-0.5 0.224-0.5 0.5v3c0 0.276 0.224 0.5 0.5 0.5 1.379 0 2.5 1.122 2.5 2.5 0 0.276 0.224 0.5 0.5 0.5h3c0.276 0 0.5-0.224 0.5-0.5 0-3.584-2.916-6.5-6.5-6.5zM12.965 6.059c-0.221-1.531-1.435-2.745-2.965-2.964v-2.013c2.635 0.238 4.739 2.343 4.978 4.978h-2.013z"></path>
</svg>
