<svg version="1.1" xmlns="http://www.w3.org/2000/svg" width="16" height="16" viewBox="0 0 16 16">
<title>download</title>
<path d="M15.5 10c-0.276 0-0.5 0.224-0.5 0.5v3.5h-13v-3.5c0-0.276-0.224-0.5-0.5-0.5s-0.5 0.224-0.5 0.5v4c0 0.276 0.224 0.5 0.5 0.5h14c0.276 0 0.5-0.224 0.5-0.5v-4c0-0.276-0.224-0.5-0.5-0.5zM8.146 10.854c0.098 0.097 0.226 0.146 0.354 0.146s0.256-0.049 0.354-0.146l4-4c0.195-0.195 0.195-0.512 0-0.707s-0.512-0.195-0.707 0l-3.147 3.146v-8.793c0-0.276-0.224-0.5-0.5-0.5s-0.5 0.224-0.5 0.5v8.793l-3.146-3.147c-0.195-0.195-0.512-0.195-0.707 0s-0.195 0.512 0 0.707l3.999 4.001z"></path>
</svg>
