<svg version="1.1" xmlns="http://www.w3.org/2000/svg" width="16" height="16" viewBox="0 0 16 16">
<title>download-alt</title>
<path d="M14.5 6h-2c-0.276 0-0.5 0.224-0.5 0.5s0.224 0.5 0.5 0.5h1.5v8h-11v-8h1.5c0.276 0 0.5-0.224 0.5-0.5s-0.224-0.5-0.5-0.5h-2c-0.276 0-0.5 0.224-0.5 0.5v9c0 0.276 0.224 0.5 0.5 0.5h12c0.276 0 0.5-0.224 0.5-0.5v-9c0-0.276-0.224-0.5-0.5-0.5z"></path>
<path d="M5.146 9.854l3 3c0.098 0.097 0.226 0.146 0.354 0.146s0.256-0.049 0.354-0.146l3-3c0.195-0.195 0.195-0.512 0-0.707s-0.512-0.195-0.707 0l-2.147 2.146v-10.793c0-0.276-0.224-0.5-0.5-0.5s-0.5 0.224-0.5 0.5v10.793l-2.146-2.147c-0.195-0.195-0.512-0.195-0.707 0s-0.196 0.512-0.001 0.708z"></path>
</svg>
