<svg version="1.1" xmlns="http://www.w3.org/2000/svg" width="16" height="16" viewBox="0 0 16 16">
<title>dynamic-content</title>
<path d="M14.854 2.146l-2-2c-0.195-0.195-0.512-0.195-0.707 0s-0.195 0.512 0 0.707l1.146 1.147h-9.793c-0.827 0-1.5 0.673-1.5 1.5v6c0 0.276 0.224 0.5 0.5 0.5s0.5-0.224 0.5-0.5v-6c0-0.276 0.225-0.5 0.5-0.5h9.793l-1.146 1.146c-0.195 0.195-0.195 0.512 0 0.707 0.097 0.098 0.225 0.147 0.353 0.147s0.256-0.049 0.354-0.146l2-2c0.195-0.196 0.195-0.512 0-0.708z"></path>
<path d="M13.5 6c-0.276 0-0.5 0.224-0.5 0.5v6c0 0.276-0.225 0.5-0.5 0.5h-9.798l1.146-1.146c0.195-0.195 0.195-0.512 0-0.707s-0.512-0.195-0.707 0l-2 2c-0.195 0.195-0.195 0.512 0 0.707l2 2c0.098 0.097 0.226 0.146 0.354 0.146s0.256-0.049 0.354-0.146c0.195-0.195 0.195-0.512 0-0.707l-1.147-1.147h9.798c0.827 0 1.5-0.673 1.5-1.5v-6c0-0.276-0.224-0.5-0.5-0.5z"></path>
<path d="M5.5 7h5c0.276 0 0.5-0.224 0.5-0.5s-0.224-0.5-0.5-0.5h-5c-0.276 0-0.5 0.224-0.5 0.5s0.224 0.5 0.5 0.5z"></path>
<path d="M5.5 10h5c0.276 0 0.5-0.224 0.5-0.5s-0.224-0.5-0.5-0.5h-5c-0.276 0-0.5 0.224-0.5 0.5s0.224 0.5 0.5 0.5z"></path>
</svg>
