<svg version="1.1" xmlns="http://www.w3.org/2000/svg" width="16" height="16" viewBox="0 0 16 16">
<title>eject</title>
<path d="M14.886 10.182l-6.599-8c-0.095-0.116-0.236-0.182-0.386-0.182-0.182 0.013-0.296 0.069-0.39 0.188l-6.401 8c-0.12 0.15-0.144 0.356-0.060 0.529 0.083 0.173 0.258 0.283 0.45 0.283h13c0.193 0 0.37-0.112 0.452-0.287s0.057-0.382-0.066-0.531zM2.54 10l5.367-6.707 5.532 6.707h-10.899zM14.425 13h-12.85c-0.276 0-0.5 0.224-0.5 0.5s0.224 0.5 0.5 0.5h12.85c0.276 0 0.5-0.224 0.5-0.5s-0.224-0.5-0.5-0.5z"></path>
</svg>
