<svg version="1.1" xmlns="http://www.w3.org/2000/svg" width="16" height="16" viewBox="0 0 16 16">
<title>ellipsis-h-o</title>
<path d="M8 6c-1.103 0-2 0.897-2 2s0.897 2 2 2 2-0.897 2-2-0.897-2-2-2zM8 9c-0.551 0-1-0.449-1-1s0.449-1 1-1 1 0.449 1 1-0.449 1-1 1z"></path>
<path d="M2 6c-1.103 0-2 0.897-2 2s0.897 2 2 2 2-0.897 2-2-0.897-2-2-2zM2 9c-0.551 0-1-0.449-1-1s0.449-1 1-1 1 0.449 1 1-0.449 1-1 1z"></path>
<path d="M14 6c-1.103 0-2 0.897-2 2s0.897 2 2 2 2-0.897 2-2-0.897-2-2-2zM14 9c-0.551 0-1-0.449-1-1s0.449-1 1-1 1 0.449 1 1-0.449 1-1 1z"></path>
</svg>
