<svg version="1.1" xmlns="http://www.w3.org/2000/svg" width="16" height="16" viewBox="0 0 16 16">
<title>emoji-cringe</title>
<path d="M12 6c0 0.552-0.448 1-1 1s-1-0.448-1-1c0-0.552 0.448-1 1-1s1 0.448 1 1z"></path>
<path d="M6 6c0 0.552-0.448 1-1 1s-1-0.448-1-1c0-0.552 0.448-1 1-1s1 0.448 1 1z"></path>
<path d="M8 0c-4.411 0-8 3.589-8 8s3.589 8 8 8 8-3.589 8-8-3.589-8-8-8zM8 15c-3.859 0-7-3.14-7-7s3.141-7 7-7 7 3.14 7 7-3.141 7-7 7z"></path>
<path d="M12.93 10.047l-0.096-0.302c-0.331-1.044-1.289-1.745-2.384-1.745h-4.895c-1.077 0-2.030 0.687-2.372 1.709l-0.105 0.316c-0.154 0.463-0.079 0.956 0.207 1.352 0.284 0.396 0.728 0.623 1.216 0.623h6.998c0.483 0 0.925-0.224 1.211-0.614s0.366-0.878 0.22-1.339zM9.051 9v2h-2v-2h2zM4.095 10.792c-0.095-0.132-0.12-0.296-0.069-0.45l0.105-0.316c0.205-0.614 0.777-1.026 1.424-1.026h0.496v2h-1.55c-0.163 0-0.311-0.076-0.406-0.208zM11.903 10.795c-0.095 0.13-0.243 0.205-0.404 0.205h-1.448v-2h0.399c0.657 0 1.231 0.421 1.431 1.048l0.096 0.301c0.048 0.153 0.021 0.316-0.074 0.446z"></path>
</svg>
