<svg version="1.1" xmlns="http://www.w3.org/2000/svg" width="16" height="16" viewBox="0 0 16 16">
<title>emoji-weary</title>
<path d="M9.276 3.947l2 1c0.072 0.036 0.148 0.053 0.224 0.053 0.184 0 0.36-0.101 0.448-0.276 0.124-0.247 0.023-0.547-0.224-0.671l-2-1c-0.247-0.123-0.547-0.024-0.671 0.223s-0.024 0.548 0.223 0.671z"></path>
<path d="M4.5 5c0.075 0 0.151-0.017 0.223-0.053l2-1c0.247-0.124 0.347-0.424 0.224-0.671s-0.424-0.346-0.671-0.223l-2 1c-0.247 0.123-0.347 0.424-0.223 0.671 0.088 0.175 0.264 0.276 0.447 0.276z"></path>
<path d="M8 0c-4.411 0-8 3.589-8 8s3.589 8 8 8 8-3.589 8-8-3.589-8-8-8zM8 15c-3.86 0-7-3.14-7-7s3.14-7 7-7 7 3.14 7 7-3.14 7-7 7z"></path>
<path d="M8 9c-1.479 0-2.863 0.625-3.702 1.671-0.328 0.41-0.389 0.934-0.164 1.404 0.27 0.562 0.884 0.925 1.564 0.925h4.604c0.681 0 1.295-0.363 1.564-0.925 0.225-0.469 0.164-0.994-0.165-1.403-0.838-1.047-2.222-1.672-3.701-1.672zM10.964 11.643c-0.085 0.177-0.323 0.357-0.662 0.357h-4.604c-0.339 0-0.577-0.18-0.662-0.357-0.059-0.123-0.045-0.236 0.042-0.346 0.651-0.812 1.744-1.297 2.922-1.297s2.271 0.485 2.921 1.297c0.088 0.11 0.102 0.223 0.043 0.346z"></path>
<path d="M4.5 8c0.907 0 1.754-0.419 2.385-1.181 0.176-0.212 0.146-0.528-0.066-0.704s-0.527-0.146-0.704 0.066c-0.438 0.528-1.011 0.819-1.615 0.819-0.276 0-0.5 0.224-0.5 0.5s0.224 0.5 0.5 0.5z"></path>
<path d="M11.5 7c-0.604 0-1.177-0.291-1.615-0.819-0.177-0.213-0.492-0.243-0.704-0.066-0.213 0.176-0.242 0.491-0.066 0.704 0.631 0.762 1.478 1.181 2.385 1.181 0.276 0 0.5-0.224 0.5-0.5s-0.224-0.5-0.5-0.5z"></path>
</svg>
