<svg version="1.1" xmlns="http://www.w3.org/2000/svg" width="16" height="16" viewBox="0 0 16 16">
<title>emoji-smile</title>
<path d="M6 5c0 0.552-0.448 1-1 1s-1-0.448-1-1c0-0.552 0.448-1 1-1s1 0.448 1 1z"></path>
<path d="M12 5c0 0.552-0.448 1-1 1s-1-0.448-1-1c0-0.552 0.448-1 1-1s1 0.448 1 1z"></path>
<path d="M8 0c-4.411 0-8 3.589-8 8s3.589 8 8 8 8-3.589 8-8-3.589-8-8-8zM8 15c-3.86 0-7-3.14-7-7s3.14-7 7-7 7 3.14 7 7-3.14 7-7 7z"></path>
<path d="M12.944 7.424c-0.036-0.245-0.246-0.424-0.494-0.424h-8.9c-0.248 0-0.458 0.179-0.494 0.424 0 0-0.056 0.379-0.056 0.576 0 2.757 2.243 5 5 5s5-2.243 5-5c0-0.197-0.056-0.576-0.056-0.576zM12 8c0 0.347-0.058 0.678-0.142 1h-7.716c-0.084-0.322-0.142-0.653-0.142-1h8zM8 12c-1.474 0-2.75-0.81-3.444-2h6.887c-0.693 1.19-1.969 2-3.443 2z"></path>
</svg>
