<svg version="1.1" xmlns="http://www.w3.org/2000/svg" width="16" height="16" viewBox="0 0 16 16">
<title>emoji-lol</title>
<path d="M8 0c-4.411 0-8 3.589-8 8s3.589 8 8 8 8-3.589 8-8-3.589-8-8-8zM8 15c-3.859 0-7-3.14-7-7s3.141-7 7-7 7 3.14 7 7-3.141 7-7 7z"></path>
<path d="M11.374 7.168c-0.189-0.214-0.559-0.214-0.748 0-0.272 0.307-1.626 1.893-1.626 2.999 0 1.011 0.897 1.833 2 1.833s2-0.822 2-1.833c0-1.106-1.354-2.692-1.626-2.999zM11 11c-0.552 0-1-0.374-1-0.833 0-0.427 0.506-1.24 1-1.88 0.494 0.639 1 1.452 1 1.88 0 0.459-0.448 0.833-1 0.833z"></path>
<path d="M8.444 11.953l-0.157 0.020c-0.095 0.013-0.189 0.027-0.287 0.027-1.474 0-2.75-0.81-3.444-2h2.944c0.276 0 0.5-0.224 0.5-0.5s-0.224-0.5-0.5-0.5h-3.358c-0.084-0.322-0.142-0.653-0.142-1h4.5c0.276 0 0.5-0.224 0.5-0.5s-0.224-0.5-0.5-0.5h-4.949c-0.255 0-0.469 0.191-0.497 0.445l-0.018 0.136c-0.018 0.138-0.036 0.275-0.036 0.419 0 2.757 2.243 5 5 5 0.144 0 0.283-0.018 0.422-0.036l0.134-0.017c0.274-0.031 0.472-0.278 0.441-0.553s-0.287-0.469-0.553-0.441z"></path>
<path d="M4.534 6.259c0.042 0 0.086-0.005 0.129-0.017 0.267-0.072 0.426-0.346 0.355-0.613-0.072-0.266 0.086-0.541 0.353-0.612 0.13-0.035 0.264-0.016 0.379 0.050 0.116 0.067 0.198 0.175 0.232 0.303 0.072 0.266 0.341 0.429 0.612 0.354 0.267-0.071 0.426-0.345 0.354-0.612-0.102-0.387-0.35-0.711-0.698-0.911-0.347-0.201-0.752-0.253-1.139-0.15-0.798 0.215-1.273 1.038-1.060 1.837 0.060 0.223 0.261 0.371 0.483 0.371z"></path>
<path d="M9.405 5.724c0.27 0.075 0.54-0.088 0.612-0.354 0.034-0.128 0.116-0.236 0.232-0.303 0.116-0.066 0.248-0.085 0.379-0.050 0.267 0.071 0.425 0.346 0.354 0.612-0.071 0.267 0.088 0.541 0.354 0.612 0.043 0.012 0.087 0.017 0.129 0.017 0.221 0 0.423-0.147 0.483-0.371 0.213-0.799-0.263-1.623-1.061-1.837-0.386-0.102-0.791-0.050-1.137 0.151-0.348 0.2-0.596 0.524-0.699 0.911-0.072 0.267 0.088 0.541 0.354 0.612z"></path>
</svg>
