<svg version="1.1" xmlns="http://www.w3.org/2000/svg" width="16" height="16" viewBox="0 0 16 16">
<title>emoji-grin-sweat</title>
<path d="M12.944 7.424c-0.036-0.245-0.246-0.424-0.494-0.424h-8.9c-0.248 0-0.458 0.179-0.494 0.424 0 0-0.056 0.379-0.056 0.576 0 2.757 2.243 5 5 5s5-2.243 5-5c0-0.197-0.056-0.576-0.056-0.576zM8 12c-1.474 0-2.75-0.81-3.444-2h6.887c-0.693 1.19-1.969 2-3.443 2zM11.858 9h-7.716c-0.084-0.322-0.142-0.653-0.142-1h8c0 0.347-0.058 0.678-0.142 1z"></path>
<path d="M4.534 6.259c-0.221 0-0.422-0.147-0.482-0.371-0.105-0.387-0.052-0.791 0.149-1.138s0.524-0.595 0.912-0.699c0.385-0.103 0.79-0.051 1.137 0.15s0.595 0.524 0.699 0.912c0.071 0.266-0.087 0.54-0.354 0.611-0.264 0.074-0.541-0.086-0.612-0.354-0.035-0.129-0.117-0.236-0.233-0.303s-0.25-0.086-0.379-0.050c-0.13 0.035-0.237 0.117-0.304 0.233s-0.085 0.25-0.050 0.379c0.072 0.267-0.087 0.541-0.353 0.613-0.044 0.011-0.087 0.017-0.13 0.017z"></path>
<path d="M11.466 6.259c-0.043 0-0.086-0.005-0.13-0.017-0.267-0.071-0.425-0.346-0.354-0.612 0.036-0.13 0.018-0.265-0.049-0.38s-0.174-0.198-0.303-0.233c-0.13-0.034-0.265-0.017-0.38 0.050s-0.198 0.175-0.233 0.304c-0.071 0.267-0.345 0.427-0.612 0.353-0.267-0.071-0.426-0.346-0.354-0.612 0.104-0.387 0.352-0.71 0.699-0.911 0.348-0.2 0.75-0.253 1.138-0.149s0.71 0.352 0.911 0.699c0.2 0.347 0.253 0.751 0.149 1.138-0.059 0.223-0.261 0.37-0.482 0.37z"></path>
<path d="M14 5c-1.103 0-2-0.822-2-1.833 0-1.106 1.354-2.691 1.625-2.998 0.19-0.214 0.559-0.214 0.749 0 0.272 0.306 1.626 1.892 1.626 2.998 0 1.011-0.897 1.833-2 1.833zM14 1.286c-0.494 0.64-1 1.453-1 1.88 0 0.46 0.449 0.834 1 0.834s1-0.374 1-0.833c0-0.429-0.506-1.242-1-1.881z"></path>
<path d="M8 16c-4.411 0-8-3.589-8-8s3.589-8 8-8c0.899 0 1.796 0.156 2.667 0.465 0.26 0.092 0.396 0.378 0.304 0.638s-0.377 0.397-0.638 0.304c-0.763-0.27-1.548-0.407-2.333-0.407-3.86 0-7 3.14-7 7s3.14 7 7 7 7-3.14 7-7c0-0.469-0.047-0.94-0.141-1.401-0.054-0.27 0.121-0.534 0.391-0.589 0.272-0.056 0.535 0.121 0.589 0.391 0.107 0.525 0.161 1.063 0.161 1.599 0 4.411-3.589 8-8 8z"></path>
</svg>
