<svg version="1.1" xmlns="http://www.w3.org/2000/svg" width="16" height="16" viewBox="0 0 16 16">
<title>emoji-expressionless</title>
<path d="M11 10h-6c-0.276 0-0.5 0.224-0.5 0.5s0.224 0.5 0.5 0.5h6c0.276 0 0.5-0.224 0.5-0.5s-0.224-0.5-0.5-0.5z"></path>
<path d="M8 0c-4.411 0-8 3.589-8 8s3.589 8 8 8 8-3.589 8-8-3.589-8-8-8zM8 15c-3.86 0-7-3.14-7-7s3.14-7 7-7 7 3.14 7 7-3.14 7-7 7z"></path>
<path d="M11.5 6h-2c-0.276 0-0.5 0.224-0.5 0.5s0.224 0.5 0.5 0.5h2c0.276 0 0.5-0.224 0.5-0.5s-0.224-0.5-0.5-0.5z"></path>
<path d="M6.5 7c0.276 0 0.5-0.224 0.5-0.5s-0.224-0.5-0.5-0.5h-2c-0.276 0-0.5 0.224-0.5 0.5s0.224 0.5 0.5 0.5h2z"></path>
</svg>
