<svg version="1.1" xmlns="http://www.w3.org/2000/svg" width="16" height="16" viewBox="0 0 16 16">
<title>emoji-confused</title>
<path d="M12 6c0 0.552-0.448 1-1 1s-1-0.448-1-1c0-0.552 0.448-1 1-1s1 0.448 1 1z"></path>
<path d="M6 6c0 0.552-0.448 1-1 1s-1-0.448-1-1c0-0.552 0.448-1 1-1s1 0.448 1 1z"></path>
<path d="M8 0c-4.411 0-8 3.589-8 8s3.589 8 8 8 8-3.589 8-8-3.589-8-8-8zM8 15c-3.859 0-7-3.14-7-7s3.141-7 7-7 7 3.14 7 7-3.141 7-7 7z"></path>
<path d="M8 9c-1.752 0-3.295 1.18-3.753 2.869-0.072 0.267 0.085 0.541 0.352 0.613 0.044 0.013 0.088 0.018 0.13 0.018 0.221 0 0.422-0.146 0.482-0.369 0.342-1.255 1.488-2.131 2.789-2.131 0.651 0 1.264 0.209 1.772 0.606 0.219 0.168 0.531 0.13 0.702-0.087s0.131-0.532-0.087-0.702c-0.686-0.534-1.511-0.817-2.387-0.817z"></path>
</svg>
