<svg version="1.1" xmlns="http://www.w3.org/2000/svg" width="16" height="16" viewBox="0 0 16 16">
<title>emoji-tired</title>
<path d="M8 0c-4.411 0-8 3.589-8 8s3.589 8 8 8 8-3.589 8-8-3.589-8-8-8zM8 15c-3.86 0-7-3.14-7-7s3.14-7 7-7 7 3.14 7 7-3.14 7-7 7z"></path>
<path d="M8 8c-1.506 0-2.904 0.831-3.74 2.221-0.343 0.57-0.346 1.295-0.008 1.892 0.314 0.555 0.854 0.887 1.446 0.887h4.604c0.592 0 1.132-0.332 1.447-0.887 0.337-0.597 0.334-1.322-0.008-1.892-0.836-1.39-2.235-2.221-3.741-2.221zM10.878 11.621c-0.134 0.237-0.35 0.379-0.576 0.379h-4.604c-0.227 0-0.442-0.142-0.576-0.379-0.126-0.223-0.193-0.572-0.005-0.884 0.654-1.088 1.731-1.737 2.883-1.737s2.23 0.649 2.883 1.737c0.188 0.312 0.121 0.661-0.005 0.884z"></path>
<path d="M4.5 5c0.907 0 1.754-0.419 2.385-1.181 0.176-0.212 0.146-0.528-0.066-0.704s-0.527-0.146-0.704 0.066c-0.438 0.528-1.011 0.819-1.615 0.819-0.276 0-0.5 0.224-0.5 0.5s0.224 0.5 0.5 0.5z"></path>
<path d="M11.5 4c-0.604 0-1.177-0.291-1.615-0.819-0.177-0.213-0.492-0.243-0.704-0.066s-0.242 0.491-0.066 0.704c0.631 0.762 1.478 1.181 2.385 1.181 0.276 0 0.5-0.224 0.5-0.5s-0.224-0.5-0.5-0.5z"></path>
<path d="M6.2 5.599l-2 1.501c-0.221 0.166-0.265 0.479-0.1 0.7 0.098 0.131 0.249 0.2 0.4 0.2 0.105 0 0.21-0.033 0.3-0.1l2-1.501c0.221-0.166 0.265-0.479 0.1-0.7-0.165-0.22-0.478-0.265-0.7-0.1z"></path>
<path d="M11.5 8c0.152 0 0.302-0.069 0.4-0.2 0.166-0.221 0.121-0.535-0.1-0.7l-2-1.501c-0.221-0.166-0.535-0.121-0.7 0.1-0.166 0.221-0.121 0.535 0.1 0.7l2 1.501c0.090 0.067 0.195 0.1 0.3 0.1z"></path>
</svg>
