<svg version="1.1" xmlns="http://www.w3.org/2000/svg" width="16" height="16" viewBox="0 0 16 16">
<title>emoji-cry</title>
<path d="M8 0c-4.411 0-8 3.589-8 8s3.589 8 8 8 8-3.589 8-8-3.589-8-8-8zM8 15c-3.859 0-7-3.14-7-7s3.141-7 7-7 7 3.14 7 7-3.141 7-7 7z"></path>
<path d="M12 6c0 0.552-0.448 1-1 1s-1-0.448-1-1c0-0.552 0.448-1 1-1s1 0.448 1 1z"></path>
<path d="M6 6c0 0.552-0.448 1-1 1s-1-0.448-1-1c0-0.552 0.448-1 1-1s1 0.448 1 1z"></path>
<path d="M8.5 9c-0.276 0-0.5 0.224-0.5 0.5s0.224 0.5 0.5 0.5c0.981 0 1.91 0.468 2.615 1.319 0.099 0.12 0.241 0.181 0.385 0.181 0.112 0 0.226-0.038 0.319-0.115 0.212-0.176 0.242-0.492 0.065-0.704-0.897-1.084-2.099-1.681-3.384-1.681z"></path>
<path d="M4.626 8.168c-0.272 0.307-1.626 1.893-1.626 2.999 0 1.011 0.897 1.833 2 1.833s2-0.822 2-1.833c0-1.106-1.354-2.691-1.626-2.998-0.189-0.214-0.559-0.214-0.748-0.001zM5 12c-0.552 0-1-0.374-1-0.833 0-0.427 0.506-1.24 1-1.88 0.494 0.639 1 1.452 1 1.88 0 0.459-0.448 0.833-1 0.833z"></path>
</svg>
