<svg version="1.1" xmlns="http://www.w3.org/2000/svg" width="16" height="16" viewBox="0 0 16 16">
<title>emoji-grimace</title>
<path d="M4.534 6.259c0.043 0 0.086-0.005 0.13-0.017 0.267-0.072 0.425-0.346 0.353-0.613-0.035-0.129-0.017-0.263 0.050-0.379s0.175-0.198 0.304-0.233c0.129-0.035 0.263-0.017 0.379 0.050s0.198 0.175 0.233 0.304c0.072 0.267 0.345 0.427 0.612 0.354 0.267-0.071 0.425-0.346 0.354-0.612-0.104-0.388-0.352-0.712-0.699-0.912-0.348-0.201-0.751-0.253-1.138-0.15s-0.711 0.352-0.911 0.699c-0.201 0.347-0.254 0.751-0.15 1.138 0.060 0.224 0.262 0.371 0.483 0.371z"></path>
<path d="M9.405 5.724c0.268 0.074 0.541-0.086 0.612-0.354 0.035-0.129 0.117-0.237 0.233-0.304s0.25-0.085 0.379-0.050c0.129 0.035 0.237 0.117 0.304 0.233s0.084 0.25 0.050 0.379c-0.072 0.267 0.086 0.541 0.354 0.612 0.043 0.012 0.087 0.017 0.13 0.017 0.221 0 0.422-0.147 0.482-0.371 0.104-0.385 0.051-0.789-0.15-1.136s-0.524-0.595-0.911-0.699c-0.388-0.103-0.79-0.051-1.138 0.15-0.347 0.2-0.595 0.524-0.699 0.911-0.072 0.266 0.087 0.541 0.354 0.612z"></path>
<path d="M8 0c-4.411 0-8 3.589-8 8s3.589 8 8 8 8-3.589 8-8-3.589-8-8-8zM8 15c-3.86 0-7-3.14-7-7s3.14-7 7-7 7 3.14 7 7-3.14 7-7 7z"></path>
<path d="M12.906 8.208c-0.094-0.131-0.245-0.208-0.406-0.208h-8.95c-0.159 0-0.309 0.076-0.403 0.205s-0.122 0.294-0.073 0.446l0.508 1.604c0.33 1.043 1.288 1.745 2.383 1.745h4.094c1.078 0 2.031-0.687 2.372-1.709l0.544-1.632c0.050-0.154 0.025-0.321-0.069-0.451zM6.95 9h2.050v2h-2.050v-2zM4.535 9.953l-0.302-0.953h1.717v1.998c-0.651-0.007-1.219-0.424-1.415-1.045zM11.482 9.974c-0.205 0.614-0.777 1.026-1.423 1.026h-0.059v-2h1.806l-0.324 0.974z"></path>
</svg>
