<svg version="1.1" xmlns="http://www.w3.org/2000/svg" width="16" height="16" viewBox="0 0 16 16">
<title>emoji-worry</title>
<path d="M8 0c-4.411 0-8 3.589-8 8s3.589 8 8 8 8-3.589 8-8-3.589-8-8-8zM8 15c-3.86 0-7-3.14-7-7s3.14-7 7-7 7 3.14 7 7-3.14 7-7 7z"></path>
<path d="M6 8c0 0.552-0.448 1-1 1s-1-0.448-1-1c0-0.552 0.448-1 1-1s1 0.448 1 1z"></path>
<path d="M12 8c0 0.552-0.448 1-1 1s-1-0.448-1-1c0-0.552 0.448-1 1-1s1 0.448 1 1z"></path>
<path d="M5.615 11.181c-0.176 0.212-0.146 0.528 0.066 0.704 0.213 0.177 0.528 0.147 0.704-0.066 0.875-1.056 2.354-1.056 3.229 0 0.1 0.119 0.242 0.181 0.386 0.181 0.112 0 0.225-0.038 0.318-0.115 0.213-0.176 0.242-0.492 0.066-0.704-1.261-1.523-3.507-1.523-4.769 0z"></path>
<path d="M6 4.5c0-0.276-0.224-0.5-0.5-0.5-0.907 0-1.754 0.419-2.385 1.181-0.176 0.213-0.147 0.528 0.066 0.704 0.093 0.077 0.206 0.115 0.319 0.115 0.144 0 0.287-0.062 0.386-0.181 0.437-0.528 1.010-0.819 1.614-0.819 0.276 0 0.5-0.224 0.5-0.5z"></path>
<path d="M12.885 5.181c-0.631-0.762-1.478-1.181-2.385-1.181-0.276 0-0.5 0.224-0.5 0.5s0.224 0.5 0.5 0.5c0.604 0 1.177 0.291 1.615 0.819 0.099 0.119 0.241 0.181 0.385 0.181 0.112 0 0.225-0.038 0.318-0.115 0.214-0.176 0.243-0.491 0.067-0.704z"></path>
</svg>
