<svg version="1.1" xmlns="http://www.w3.org/2000/svg" width="16" height="16" viewBox="0 0 16 16">
<title>emoji-laughing</title>
<path d="M9.5 6c0.075 0 0.151-0.017 0.224-0.053l2-1c0.247-0.124 0.347-0.424 0.224-0.671-0.124-0.247-0.423-0.346-0.671-0.224l-2 1c-0.248 0.124-0.347 0.425-0.224 0.672 0.088 0.175 0.264 0.276 0.447 0.276z"></path>
<path d="M4.276 4.947l2 1c0.073 0.036 0.149 0.053 0.224 0.053 0.183 0 0.359-0.101 0.447-0.276 0.123-0.247 0.024-0.548-0.223-0.671l-2-1c-0.246-0.121-0.547-0.024-0.671 0.223-0.123 0.247-0.024 0.548 0.223 0.671z"></path>
<path d="M12.944 7.424c-0.036-0.245-0.246-0.424-0.494-0.424h-8.9c-0.248 0-0.458 0.179-0.494 0.424 0 0-0.056 0.379-0.056 0.576 0 2.757 2.243 5 5 5s5-2.243 5-5c0-0.197-0.056-0.576-0.056-0.576zM8 12c-1.474 0-2.75-0.81-3.444-2h6.887c-0.693 1.19-1.969 2-3.443 2zM11.858 9h-7.716c-0.084-0.322-0.142-0.653-0.142-1h8c0 0.347-0.058 0.678-0.142 1z"></path>
<path d="M8 0c-4.411 0-8 3.589-8 8s3.589 8 8 8 8-3.589 8-8-3.589-8-8-8zM8 15c-3.859 0-7-3.14-7-7s3.141-7 7-7 7 3.14 7 7-3.141 7-7 7z"></path>
</svg>
