<svg version="1.1" xmlns="http://www.w3.org/2000/svg" width="16" height="16" viewBox="0 0 16 16">
<title>emoji-disappointed-relieved</title>
<path d="M6 8c0 0.552-0.448 1-1 1s-1-0.448-1-1c0-0.552 0.448-1 1-1s1 0.448 1 1z"></path>
<path d="M12 8c0 0.552-0.448 1-1 1s-1-0.448-1-1c0-0.552 0.448-1 1-1s1 0.448 1 1z"></path>
<path d="M6.794 11.423c0.879-0.669 2.075-0.504 2.821 0.396 0.099 0.119 0.241 0.181 0.385 0.181 0.112 0 0.225-0.038 0.318-0.115 0.213-0.176 0.242-0.492 0.066-0.704-1.080-1.304-2.901-1.541-4.196-0.553-0.219 0.167-0.262 0.481-0.094 0.701 0.166 0.219 0.48 0.262 0.7 0.094z"></path>
<path d="M4.5 6c0.907 0 1.754-0.419 2.385-1.181 0.176-0.212 0.146-0.528-0.066-0.704-0.213-0.176-0.527-0.147-0.704 0.066-0.438 0.528-1.011 0.819-1.615 0.819-0.276 0-0.5 0.224-0.5 0.5s0.224 0.5 0.5 0.5z"></path>
<path d="M11.5 5c-0.604 0-1.177-0.291-1.615-0.819-0.177-0.214-0.491-0.243-0.704-0.066s-0.242 0.491-0.066 0.704c0.631 0.762 1.478 1.181 2.385 1.181 0.276 0 0.5-0.224 0.5-0.5s-0.224-0.5-0.5-0.5z"></path>
<path d="M2.107 9.191c-0.215 0.274-2.107 2.723-2.107 4.309 0 1.378 1.122 2.5 2.5 2.5s2.5-1.122 2.5-2.5c0-1.586-1.892-4.035-2.107-4.309-0.19-0.241-0.596-0.241-0.786 0zM2.5 15c-0.827 0-1.5-0.673-1.5-1.5 0-0.845 0.88-2.28 1.5-3.16 0.62 0.88 1.5 2.315 1.5 3.16 0 0.827-0.673 1.5-1.5 1.5z"></path>
<path d="M8 0c-4.411 0-8 3.589-8 8 0 0.147 0.010 0.292 0.020 0.438 0.019 0.275 0.242 0.534 0.536 0.513 0.274-0.019 0.486-0.208 0.468-0.483 0-0.001-0.007-0.098-0.007-0.099-0.008-0.122-0.017-0.245-0.017-0.369 0-3.86 3.14-7 7-7s7 3.14 7 7-3.14 7-7 7c-0.469 0-0.94-0.047-1.401-0.141-0.272-0.056-0.534 0.12-0.589 0.391s0.121 0.534 0.391 0.589c0.525 0.107 1.063 0.161 1.599 0.161 4.411 0 8-3.589 8-8s-3.589-8-8-8z"></path>
</svg>
