<svg version="1.1" xmlns="http://www.w3.org/2000/svg" width="16" height="16" viewBox="0 0 16 16">
<title>emoji-smirk</title>
<path d="M8 0c-4.411 0-8 3.589-8 8s3.589 8 8 8 8-3.589 8-8-3.589-8-8-8zM8 15c-3.859 0-7-3.14-7-7s3.141-7 7-7 7 3.14 7 7-3.141 7-7 7z"></path>
<path d="M12 7c0 0 0 0 0 0h-2.5c-0.276 0-0.5 0.224-0.5 0.5s0.224 0.5 0.5 0.5h1.5c0 0.552 0.448 1 1 1s1-0.448 1-1c0-0.552-0.448-1-1-1z"></path>
<path d="M6 9c0.552 0 1-0.448 1-1s-0.448-1-1-1c0 0 0 0 0 0h-2.5c-0.276 0-0.5 0.224-0.5 0.5s0.224 0.5 0.5 0.5h1.5c0 0.552 0.448 1 1 1z"></path>
<path d="M11.631 10.018c-0.269-0.074-0.541 0.086-0.613 0.352-0.261 0.96-1.138 1.63-2.134 1.63h-2.384c-0.276 0-0.5 0.224-0.5 0.5s0.224 0.5 0.5 0.5h2.384c1.446 0 2.721-0.974 3.099-2.369 0.072-0.267-0.086-0.541-0.352-0.613z"></path>
<path d="M3.5 6c0.144 0 0.286-0.062 0.385-0.181 0.437-0.528 1.011-0.819 1.615-0.819 0.276 0 0.5-0.224 0.5-0.5s-0.224-0.5-0.5-0.5c-0.907 0-1.754 0.419-2.385 1.181-0.177 0.213-0.146 0.528 0.066 0.704 0.093 0.077 0.207 0.115 0.319 0.115z"></path>
<path d="M10.5 5c0.604 0 1.178 0.291 1.615 0.819 0.099 0.119 0.241 0.181 0.385 0.181 0.112 0 0.226-0.038 0.319-0.115 0.212-0.176 0.242-0.492 0.065-0.704-0.63-0.762-1.477-1.181-2.384-1.181-0.276 0-0.5 0.224-0.5 0.5s0.224 0.5 0.5 0.5z"></path>
</svg>
