<svg version="1.1" xmlns="http://www.w3.org/2000/svg" width="16" height="16" viewBox="0 0 16 16">
<title>emoji-cool</title>
<path d="M11.295 9.044c-0.252-0.112-0.549-0.001-0.661 0.251-0.465 1.036-1.499 1.705-2.634 1.705s-2.169-0.669-2.634-1.705c-0.113-0.252-0.411-0.364-0.661-0.251-0.252 0.113-0.364 0.409-0.251 0.661 0.626 1.394 2.018 2.295 3.546 2.295s2.92-0.901 3.546-2.295c0.113-0.252 0.001-0.548-0.251-0.661z"></path>
<path d="M15.947 3.724c0.034-0.070 0.053-0.216 0.053-0.294 0-0.276-0.224-0.5-0.5-0.5h-1.338c-1.468-1.782-3.678-2.93-6.162-2.93s-4.694 1.148-6.162 2.93h-1.338c-0.276 0-0.5 0.298-0.5 0.574 0 0.078 0.019 0.154 0.053 0.224l0.589 1.176c-0.405 0.954-0.642 1.996-0.642 3.096 0 4.411 3.589 8 8 8s8-3.589 8-8c0-1.101-0.237-2.143-0.642-3.097l0.589-1.179zM13.605 6.171c-0.255 0.511-0.769 0.829-1.341 0.829h-0.528c-0.571 0-1.085-0.317-1.341-0.829l-1.054-2.105c-0.024-0.047-0.050-0.092-0.077-0.136h5.462l-1.121 2.241zM8 1c1.864 0 3.556 0.737 4.811 1.93h-9.622c1.255-1.193 2.947-1.93 4.811-1.93zM6.734 3.93c-0.027 0.044-0.053 0.090-0.077 0.137l-1.052 2.104c-0.255 0.511-0.77 0.829-1.341 0.829h-0.529c-0.571 0-1.085-0.317-1.34-0.829l-1.123-2.241h5.462zM15 8c0 3.86-3.141 7-7 7s-7-3.14-7-7c0-0.645 0.094-1.268 0.26-1.861l0.24 0.48c0.427 0.852 1.283 1.381 2.235 1.381h0.528c0.954 0 1.81-0.529 2.237-1.382l1.052-2.104c0.174-0.347 0.721-0.346 0.895 0l1.053 2.105c0.427 0.852 1.283 1.381 2.235 1.381h0.528c0.953 0 1.81-0.529 2.236-1.382l0.24-0.48c0.167 0.594 0.261 1.216 0.261 1.862z"></path>
</svg>
