<svg version="1.1" xmlns="http://www.w3.org/2000/svg" width="16" height="16" viewBox="0 0 16 16">
<title>emoji-sweet-smile</title>
<path d="M8 0c-4.411 0-8 3.589-8 8s3.589 8 8 8 8-3.589 8-8-3.589-8-8-8zM8 15c-3.86 0-7-3.14-7-7s3.14-7 7-7 7 3.14 7 7-3.14 7-7 7z"></path>
<path d="M4.664 7.242c0.266-0.072 0.425-0.346 0.353-0.613-0.035-0.129-0.017-0.264 0.050-0.379 0.067-0.116 0.174-0.198 0.304-0.233s0.264-0.017 0.379 0.050c0.116 0.067 0.198 0.174 0.233 0.303 0.071 0.267 0.348 0.426 0.612 0.354 0.267-0.071 0.425-0.345 0.354-0.612-0.104-0.387-0.352-0.711-0.699-0.911-0.347-0.201-0.752-0.254-1.138-0.15-0.387 0.104-0.711 0.352-0.911 0.699-0.201 0.347-0.254 0.751-0.15 1.138 0.060 0.224 0.262 0.371 0.482 0.371 0.044 0 0.087-0.006 0.131-0.017z"></path>
<path d="M10.888 5.051c-0.388-0.104-0.79-0.051-1.138 0.15-0.347 0.2-0.595 0.524-0.699 0.911-0.072 0.266 0.087 0.541 0.354 0.612 0.268 0.072 0.541-0.086 0.612-0.354 0.035-0.129 0.117-0.237 0.233-0.304 0.115-0.066 0.25-0.083 0.38-0.049 0.129 0.035 0.236 0.117 0.303 0.233s0.085 0.25 0.050 0.379c-0.072 0.267 0.087 0.541 0.354 0.612 0.043 0.012 0.087 0.017 0.13 0.017 0.221 0 0.422-0.147 0.482-0.371 0.104-0.386 0.051-0.79-0.15-1.137-0.2-0.347-0.524-0.595-0.911-0.699z"></path>
<path d="M11.294 9.044c-0.25-0.112-0.547 0-0.661 0.251-0.464 1.036-1.498 1.705-2.633 1.705s-2.168-0.669-2.634-1.705c-0.113-0.252-0.408-0.365-0.661-0.251-0.251 0.113-0.364 0.409-0.251 0.661 0.626 1.394 2.018 2.295 3.546 2.295s2.92-0.901 3.546-2.295c0.113-0.252 0-0.548-0.252-0.661z"></path>
</svg>
