<svg version="1.1" xmlns="http://www.w3.org/2000/svg" width="16" height="16" viewBox="0 0 16 16">
<title>emoji-hushed</title>
<path d="M8 0c-4.411 0-8 3.589-8 8s3.589 8 8 8 8-3.589 8-8-3.589-8-8-8zM8 15c-3.859 0-7-3.14-7-7s3.141-7 7-7 7 3.14 7 7-3.141 7-7 7z"></path>
<path d="M6 8c0 0.552-0.448 1-1 1s-1-0.448-1-1c0-0.552 0.448-1 1-1s1 0.448 1 1z"></path>
<path d="M12 8c0 0.552-0.448 1-1 1s-1-0.448-1-1c0-0.552 0.448-1 1-1s1 0.448 1 1z"></path>
<path d="M6 4.5c0-0.276-0.224-0.5-0.5-0.5-0.907 0-1.754 0.419-2.385 1.181-0.177 0.213-0.146 0.528 0.066 0.704 0.093 0.077 0.207 0.115 0.319 0.115 0.144 0 0.286-0.062 0.385-0.181 0.437-0.528 1.011-0.819 1.615-0.819 0.276 0 0.5-0.224 0.5-0.5z"></path>
<path d="M12.885 5.181c-0.631-0.762-1.478-1.181-2.385-1.181-0.276 0-0.5 0.224-0.5 0.5s0.224 0.5 0.5 0.5c0.604 0 1.178 0.291 1.615 0.819 0.099 0.119 0.241 0.181 0.385 0.181 0.112 0 0.226-0.038 0.319-0.115 0.212-0.176 0.243-0.491 0.066-0.704z"></path>
<path d="M8 10c-1.103 0-2 0.897-2 2s0.897 2 2 2 2-0.897 2-2-0.897-2-2-2zM8 13c-0.552 0-1-0.449-1-1s0.448-1 1-1 1 0.449 1 1-0.448 1-1 1z"></path>
</svg>
