<svg version="1.1" xmlns="http://www.w3.org/2000/svg" width="16" height="16" viewBox="0 0 16 16">
<title>emoji-upside-down</title>
<path d="M8 0c-4.411 0-8 3.589-8 8s3.589 8 8 8 8-3.589 8-8-3.589-8-8-8zM8 15c-3.859 0-7-3.14-7-7s3.141-7 7-7 7 3.14 7 7-3.141 7-7 7z"></path>
<path d="M12 10c0 0.552-0.448 1-1 1s-1-0.448-1-1c0-0.552 0.448-1 1-1s1 0.448 1 1z"></path>
<path d="M6 10c0 0.552-0.448 1-1 1s-1-0.448-1-1c0-0.552 0.448-1 1-1s1 0.448 1 1z"></path>
<path d="M11.090 7c0.068 0 0.139-0.014 0.205-0.044 0.252-0.113 0.364-0.409 0.251-0.661-0.626-1.394-2.018-2.295-3.546-2.295s-2.92 0.901-3.546 2.295c-0.113 0.252-0.001 0.548 0.251 0.661 0.251 0.113 0.548 0 0.661-0.251 0.465-1.036 1.499-1.705 2.634-1.705s2.169 0.669 2.634 1.705c0.083 0.185 0.265 0.295 0.456 0.295z"></path>
</svg>
