<svg version="1.1" xmlns="http://www.w3.org/2000/svg" width="16" height="16" viewBox="0 0 16 16">
<title>emoji-slight-smile</title>
<path d="M8 0c-4.411 0-8 3.589-8 8s3.589 8 8 8 8-3.589 8-8-3.589-8-8-8zM8 15c-3.86 0-7-3.14-7-7s3.14-7 7-7 7 3.14 7 7-3.14 7-7 7z"></path>
<path d="M6 6c0 0.552-0.448 1-1 1s-1-0.448-1-1c0-0.552 0.448-1 1-1s1 0.448 1 1z"></path>
<path d="M12 6c0 0.552-0.448 1-1 1s-1-0.448-1-1c0-0.552 0.448-1 1-1s1 0.448 1 1z"></path>
<path d="M9.615 10.181c-0.875 1.056-2.354 1.056-3.229 0-0.177-0.214-0.492-0.243-0.704-0.066-0.213 0.176-0.242 0.492-0.066 0.704 0.63 0.762 1.477 1.181 2.384 1.181s1.754-0.419 2.385-1.181c0.176-0.212 0.146-0.528-0.066-0.704s-0.527-0.147-0.704 0.066z"></path>
</svg>
