<svg version="1.1" xmlns="http://www.w3.org/2000/svg" width="16" height="16" viewBox="0 0 16 16">
<title>emoji-slight-frown</title>
<path d="M8 0c-4.411 0-8 3.589-8 8s3.589 8 8 8 8-3.589 8-8-3.589-8-8-8zM8 15c-3.859 0-7-3.14-7-7s3.141-7 7-7 7 3.14 7 7-3.141 7-7 7z"></path>
<path d="M6 6c0 0.552-0.448 1-1 1s-1-0.448-1-1c0-0.552 0.448-1 1-1s1 0.448 1 1z"></path>
<path d="M12 6c0 0.552-0.448 1-1 1s-1-0.448-1-1c0-0.552 0.448-1 1-1s1 0.448 1 1z"></path>
<path d="M5.615 10.181c-0.177 0.212-0.146 0.528 0.065 0.704 0.213 0.176 0.528 0.147 0.704-0.066 0.875-1.056 2.355-1.056 3.23 0 0.1 0.119 0.242 0.181 0.386 0.181 0.112 0 0.226-0.038 0.319-0.115 0.212-0.176 0.242-0.492 0.065-0.704-1.261-1.523-3.507-1.523-4.769 0z"></path>
</svg>
