<svg version="1.1" xmlns="http://www.w3.org/2000/svg" width="16" height="16" viewBox="0 0 16 16">
<title>emoji-rotfl</title>
<path d="M4.464 7.293c0.391 0.391 0.391 1.024 0 1.414s-1.024 0.391-1.414 0c-0.391-0.391-0.391-1.024 0-1.414s1.024-0.391 1.414 0z"></path>
<path d="M8.707 3.050c0.391 0.391 0.391 1.024 0 1.414s-1.024 0.391-1.414 0c-0.391-0.391-0.391-1.024 0-1.414s1.024-0.391 1.414 0z"></path>
<path d="M13.657 2.343c-3.119-3.119-8.195-3.119-11.314 0s-3.119 8.195 0 11.314 8.195 3.119 11.314 0 3.119-8.195 0-11.314zM12.95 12.95c-2.729 2.729-7.17 2.729-9.9 0-2.729-2.729-2.729-7.17 0-9.899s7.17-2.729 9.9 0c2.729 2.729 2.729 7.169 0 9.899z"></path>
<path d="M11.536 4.464c-0.139-0.14-0.447-0.367-0.447-0.367-0.199-0.148-0.474-0.126-0.649 0.049l-6.293 6.293c-0.175 0.175-0.197 0.451-0.049 0.649 0 0 0.228 0.307 0.367 0.447 1.949 1.949 5.122 1.949 7.071 0s1.949-5.121 0-7.071zM5.172 10.828l5.657-5.657c0.246 0.246 0.438 0.521 0.607 0.807l-5.456 5.456c-0.287-0.167-0.563-0.36-0.808-0.606zM10.828 10.828c-1.042 1.042-2.517 1.371-3.849 1.021l4.87-4.87c0.351 1.332 0.022 2.807-1.021 3.849z"></path>
</svg>
