<svg version="1.1" xmlns="http://www.w3.org/2000/svg" width="16" height="16" viewBox="0 0 16 16">
<title>emoji-confounded</title>
<path d="M8 0c-4.411 0-8 3.589-8 8s3.589 8 8 8 8-3.589 8-8-3.589-8-8-8zM8 15c-3.859 0-7-3.14-7-7s3.141-7 7-7 7 3.14 7 7-3.141 7-7 7z"></path>
<path d="M10.124 9.17c-0.095-0.108-0.231-0.17-0.376-0.17s-0.281 0.062-0.376 0.17l-1.377 1.571-1.374-1.57c-0.095-0.109-0.231-0.171-0.376-0.171s-0.282 0.062-0.377 0.171l-1.745 2c-0.182 0.208-0.16 0.524 0.048 0.706 0.095 0.082 0.212 0.123 0.329 0.123 0.14 0 0.278-0.058 0.377-0.171l1.369-1.569 1.373 1.569c0.095 0.109 0.232 0.171 0.376 0.171s0.281-0.062 0.376-0.17l1.377-1.571 1.376 1.571c0.183 0.208 0.498 0.228 0.705 0.046s0.229-0.498 0.047-0.706l-1.752-2z"></path>
<path d="M4.432 4.976c0.115 0.016 0.229 0.024 0.342 0.024 0.839 0 1.604-0.432 2.14-1.219 0.154-0.228 0.096-0.539-0.133-0.695-0.225-0.153-0.537-0.096-0.695 0.133-0.396 0.583-0.918 0.846-1.518 0.767-0.265-0.037-0.526 0.152-0.563 0.427-0.038 0.273 0.153 0.525 0.427 0.563z"></path>
<path d="M11.226 5c0.112 0 0.228-0.008 0.343-0.024 0.273-0.038 0.465-0.29 0.427-0.563-0.038-0.275-0.294-0.468-0.563-0.427-0.599 0.083-1.122-0.183-1.518-0.767-0.158-0.229-0.47-0.286-0.696-0.133-0.229 0.156-0.287 0.467-0.133 0.695 0.535 0.787 1.301 1.219 2.14 1.219z"></path>
<path d="M11.5 6h-2c-0.276 0-0.5 0.224-0.5 0.5s0.224 0.5 0.5 0.5h2c0.276 0 0.5-0.224 0.5-0.5s-0.224-0.5-0.5-0.5z"></path>
<path d="M4.5 7h2c0.276 0 0.5-0.224 0.5-0.5s-0.224-0.5-0.5-0.5h-2c-0.276 0-0.5 0.224-0.5 0.5s0.224 0.5 0.5 0.5z"></path>
</svg>
