<svg version="1.1" xmlns="http://www.w3.org/2000/svg" width="16" height="16" viewBox="0 0 16 16">
<title>emoji-wink</title>
<path d="M8 0c-4.411 0-8 3.589-8 8s3.589 8 8 8 8-3.589 8-8-3.589-8-8-8zM8 15c-3.859 0-7-3.14-7-7s3.141-7 7-7 7 3.14 7 7-3.141 7-7 7z"></path>
<path d="M9.772 10.394c-0.507 0.397-1.121 0.606-1.772 0.606-1.301 0-2.447-0.876-2.788-2.131-0.072-0.265-0.343-0.426-0.613-0.351-0.267 0.072-0.424 0.346-0.352 0.613 0.458 1.689 2.001 2.869 3.753 2.869 0.876 0 1.702-0.283 2.388-0.817 0.218-0.17 0.257-0.484 0.087-0.702s-0.485-0.256-0.703-0.087z"></path>
<path d="M6 6c0 0.552-0.448 1-1 1s-1-0.448-1-1c0-0.552 0.448-1 1-1s1 0.448 1 1z"></path>
<path d="M11.276 5.053l-2 1c-0.247 0.123-0.346 0.424-0.223 0.671 0.088 0.175 0.264 0.276 0.447 0.276 0.075 0 0.151-0.017 0.224-0.053l2-1c0.247-0.124 0.347-0.424 0.224-0.671-0.125-0.247-0.424-0.346-0.672-0.223z"></path>
</svg>
