<svg version="1.1" xmlns="http://www.w3.org/2000/svg" width="16" height="16" viewBox="0 0 16 16">
<title>emoji-love</title>
<path d="M7.417 11.957c0.025 0.003 0.050 0.005 0.075 0.005 0.244 0 0.457-0.178 0.494-0.426 0.041-0.273-0.147-0.528-0.42-0.569-0.972-0.146-1.794-0.771-2.199-1.672-0.114-0.252-0.41-0.365-0.661-0.251-0.252 0.113-0.365 0.409-0.252 0.661 0.545 1.214 1.652 2.056 2.963 2.252z"></path>
<path d="M5.371 6.017c0.129-0.035 0.264-0.017 0.379 0.050 0.116 0.067 0.198 0.174 0.233 0.303 0.071 0.267 0.348 0.426 0.612 0.354 0.267-0.071 0.425-0.345 0.354-0.612-0.104-0.387-0.352-0.711-0.699-0.911-0.347-0.201-0.752-0.254-1.138-0.15-0.387 0.104-0.711 0.352-0.911 0.699-0.201 0.347-0.254 0.751-0.15 1.138 0.060 0.224 0.262 0.371 0.482 0.371 0.043 0 0.086-0.005 0.13-0.017 0.267-0.072 0.426-0.346 0.354-0.613-0.035-0.129-0.017-0.264 0.050-0.379 0.067-0.116 0.174-0.198 0.304-0.233z"></path>
<path d="M11.336 7.242c0.043 0.012 0.087 0.017 0.13 0.017 0.221 0 0.422-0.147 0.482-0.371 0.105-0.387 0.052-0.791-0.149-1.138s-0.524-0.595-0.911-0.699c-0.388-0.104-0.79-0.051-1.138 0.15-0.347 0.2-0.595 0.524-0.699 0.911-0.072 0.266 0.087 0.541 0.354 0.612 0.268 0.073 0.541-0.086 0.612-0.354 0.035-0.129 0.117-0.237 0.233-0.304 0.115-0.066 0.25-0.083 0.38-0.049 0.129 0.035 0.236 0.117 0.303 0.233s0.085 0.25 0.050 0.379c-0.072 0.267 0.087 0.541 0.353 0.613z"></path>
<path d="M8 15c-3.86 0-7-3.14-7-7s3.14-7 7-7 7 3.14 7 7c0 0.276 0.224 0.5 0.5 0.5s0.5-0.224 0.5-0.5c0-4.411-3.589-8-8-8s-8 3.589-8 8 3.589 8 8 8c0.276 0 0.5-0.224 0.5-0.5s-0.224-0.5-0.5-0.5z"></path>
<path d="M12.586 10.586l-0.086 0.086-0.086-0.086c-0.754-0.756-2.072-0.756-2.828 0-0.378 0.377-0.586 0.879-0.586 1.414s0.208 1.036 0.586 1.414l2.278 2.278c0.17 0.17 0.396 0.264 0.636 0.264s0.466-0.094 0.636-0.264l2.278-2.278c0.378-0.378 0.586-0.88 0.586-1.414s-0.208-1.036-0.586-1.414c-0.756-0.756-2.072-0.756-2.828 0zM14.707 12.707l-2.207 2.207-2.207-2.207c-0.189-0.189-0.293-0.44-0.293-0.707s0.104-0.518 0.293-0.707 0.44-0.293 0.707-0.293 0.518 0.104 0.707 0.293l0.439 0.439c0.195 0.195 0.512 0.195 0.707 0l0.439-0.439c0.378-0.378 1.036-0.378 1.414 0 0.19 0.189 0.294 0.44 0.294 0.707s-0.104 0.518-0.293 0.707z"></path>
</svg>
