<svg version="1.1" xmlns="http://www.w3.org/2000/svg" width="16" height="16" viewBox="0 0 16 16">
<title>emoji-sleeping</title>
<path d="M10.513 9c0.827 0 1.5-0.673 1.5-1.5 0-0.276-0.224-0.5-0.5-0.5s-0.5 0.224-0.5 0.5c0 0.276-0.225 0.5-0.5 0.5s-0.5-0.224-0.5-0.5c0-0.276-0.224-0.5-0.5-0.5s-0.5 0.224-0.5 0.5c0 0.827 0.673 1.5 1.5 1.5z"></path>
<path d="M6.513 7c-0.276 0-0.5 0.224-0.5 0.5s-0.225 0.5-0.5 0.5-0.5-0.224-0.5-0.5c0-0.276-0.224-0.5-0.5-0.5s-0.5 0.224-0.5 0.5c0 0.827 0.673 1.5 1.5 1.5s1.5-0.673 1.5-1.5c0-0.276-0.224-0.5-0.5-0.5z"></path>
<path d="M10.513 1h2.793l-3.146 3.146c-0.143 0.143-0.186 0.358-0.108 0.545s0.259 0.309 0.461 0.309h4c0.276 0 0.5-0.224 0.5-0.5s-0.224-0.5-0.5-0.5h-2.793l3.146-3.146c0.143-0.143 0.186-0.358 0.108-0.545s-0.259-0.309-0.461-0.309h-4c-0.276 0-0.5 0.224-0.5 0.5s0.223 0.5 0.5 0.5z"></path>
<path d="M8.013 14c1.103 0 2-0.897 2-2s-0.897-2-2-2-2 0.897-2 2 0.897 2 2 2zM8.013 11c0.552 0 1 0.449 1 1s-0.448 1-1 1-1-0.449-1-1 0.448-1 1-1z"></path>
<path d="M15.827 6.397c-0.056-0.271-0.326-0.443-0.592-0.387-0.271 0.057-0.443 0.321-0.387 0.592 0.102 0.487 0.152 0.944 0.152 1.398 0 3.86-3.141 7-7 7s-7-3.14-7-7 3.141-7 7-7c0.126 0 0.249 0.010 0.372 0.020 0.001 0 0.091 0.007 0.091 0.007 0.277 0.020 0.47-0.188 0.491-0.464 0.021-0.275-0.23-0.518-0.505-0.54-0.149-0.012-0.298-0.023-0.449-0.023-4.411 0-8 3.589-8 8s3.589 8 8 8 8-3.589 8-8c0-0.523-0.057-1.048-0.173-1.603z"></path>
</svg>
