<svg version="1.1" xmlns="http://www.w3.org/2000/svg" width="16" height="16" viewBox="0 0 16 16">
<title>emoji-happy-smile</title>
<path d="M4.534 6.259c0.043 0 0.086-0.005 0.13-0.017 0.267-0.072 0.425-0.346 0.353-0.613-0.035-0.129-0.017-0.263 0.050-0.379s0.175-0.198 0.304-0.233c0.13-0.034 0.263-0.017 0.379 0.050s0.198 0.175 0.233 0.304c0.072 0.267 0.348 0.427 0.612 0.354 0.267-0.071 0.425-0.346 0.354-0.612-0.104-0.388-0.352-0.712-0.699-0.912-0.348-0.201-0.751-0.253-1.138-0.15s-0.711 0.352-0.911 0.699c-0.201 0.347-0.254 0.751-0.15 1.138 0.060 0.224 0.262 0.371 0.483 0.371z"></path>
<path d="M9.405 5.724c0.268 0.074 0.541-0.086 0.612-0.354 0.035-0.129 0.117-0.237 0.233-0.304 0.115-0.066 0.25-0.084 0.379-0.049s0.237 0.117 0.304 0.233 0.084 0.25 0.050 0.379c-0.072 0.267 0.086 0.541 0.354 0.612 0.043 0.012 0.087 0.017 0.13 0.017 0.221 0 0.422-0.147 0.482-0.371 0.104-0.386 0.051-0.79-0.15-1.137s-0.524-0.595-0.911-0.699c-0.388-0.103-0.79-0.051-1.138 0.15-0.347 0.2-0.595 0.524-0.699 0.911-0.072 0.266 0.087 0.541 0.354 0.612z"></path>
<path d="M12.944 7.424c-0.036-0.245-0.246-0.424-0.494-0.424h-8.9c-0.248 0-0.458 0.179-0.494 0.424 0 0-0.056 0.379-0.056 0.576 0 2.757 2.243 5 5 5s5-2.243 5-5c0-0.197-0.056-0.576-0.056-0.576zM8 12c-1.474 0-2.75-0.81-3.444-2h6.887c-0.693 1.19-1.969 2-3.443 2zM11.858 9h-7.716c-0.084-0.322-0.142-0.653-0.142-1h8c0 0.347-0.058 0.678-0.142 1z"></path>
<path d="M8 0c-4.411 0-8 3.589-8 8s3.589 8 8 8 8-3.589 8-8-3.589-8-8-8zM8 15c-3.86 0-7-3.14-7-7s3.14-7 7-7 7 3.14 7 7-3.14 7-7 7z"></path>
</svg>
