<svg version="1.1" xmlns="http://www.w3.org/2000/svg" width="16" height="16" viewBox="0 0 16 16">
<title>emoji-zipper-mouth</title>
<path d="M6 6c0 0.552-0.448 1-1 1s-1-0.448-1-1c0-0.552 0.448-1 1-1s1 0.448 1 1z"></path>
<path d="M12 6c0 0.552-0.448 1-1 1s-1-0.448-1-1c0-0.552 0.448-1 1-1s1 0.448 1 1z"></path>
<path d="M13.646 10.441c-0.283-0.282-0.659-0.438-1.060-0.438l-2.586-0.001v-0.502c0-0.276-0.224-0.5-0.5-0.5s-0.5 0.224-0.5 0.5v0.501h-1v-0.501c0-0.276-0.224-0.5-0.5-0.5s-0.5 0.224-0.5 0.5v0.501h-1v-0.501c0-0.276-0.224-0.5-0.5-0.5s-0.5 0.224-0.5 0.5v0.5h-0.497c-0.276 0-0.5 0.224-0.5 0.5s0.224 0.5 0.5 0.5h0.497v0.5c0 0.276 0.224 0.5 0.5 0.5s0.5-0.224 0.5-0.5v-0.5h1v0.5c0 0.276 0.224 0.5 0.5 0.5s0.5-0.224 0.5-0.5v-0.499h1v0.499c0 0.276 0.224 0.5 0.5 0.5s0.5-0.224 0.5-0.5v-0.498h1.002l-0.001 0.581c-0.002 0.402 0.154 0.781 0.439 1.064l1.706 1.707c0.094 0.093 0.221 0.146 0.354 0.146s0.26-0.053 0.354-0.146l1.5-1.5c0.093-0.094 0.146-0.222 0.146-0.354 0-0.133-0.053-0.26-0.146-0.354l-1.708-1.705zM13.5 13.293l-1.353-1.354c-0.095-0.094-0.147-0.22-0.146-0.354l0.001-0.583h0.584c0.134 0 0.26 0.052 0.354 0.146l1.354 1.352-0.794 0.793z"></path>
<path d="M8 0c-4.411 0-8 3.589-8 8s3.589 8 8 8c0.918 0 1.832-0.163 2.718-0.485 0.26-0.094 0.394-0.381 0.299-0.641-0.094-0.259-0.381-0.392-0.641-0.299-0.775 0.282-1.575 0.425-2.376 0.425-3.859 0-7-3.14-7-7s3.141-7 7-7 7 3.14 7 7c0 0.452-0.049 0.91-0.15 1.398-0.057 0.271 0.117 0.535 0.388 0.591 0.264 0.053 0.535-0.117 0.591-0.388 0.115-0.556 0.171-1.080 0.171-1.601 0-4.411-3.589-8-8-8z"></path>
</svg>
