<svg version="1.1" xmlns="http://www.w3.org/2000/svg" width="16" height="16" viewBox="0 0 16 16">
<title>emoji-big-frown</title>
<path d="M8 0c-4.411 0-8 3.589-8 8s3.589 8 8 8 8-3.589 8-8-3.589-8-8-8zM8 15c-3.859 0-7-3.14-7-7s3.141-7 7-7 7 3.14 7 7-3.141 7-7 7z"></path>
<path d="M6 8c0 0.552-0.448 1-1 1s-1-0.448-1-1c0-0.552 0.448-1 1-1s1 0.448 1 1z"></path>
<path d="M12 8c0 0.552-0.448 1-1 1s-1-0.448-1-1c0-0.552 0.448-1 1-1s1 0.448 1 1z"></path>
<path d="M8 10c-1.094 0-2.12 0.435-2.744 1.164-0.271 0.315-0.331 0.724-0.161 1.094 0.207 0.45 0.702 0.742 1.26 0.742h3.289c0.559 0 1.054-0.292 1.261-0.742 0.17-0.371 0.109-0.779-0.16-1.094-0.625-0.729-1.651-1.164-2.745-1.164zM9.645 12h-3.29c-0.232 0-0.35-0.129-0.341-0.185 0.438-0.51 1.18-0.815 1.986-0.815s1.548 0.305 2 0.83c-0.006 0.041-0.123 0.17-0.355 0.17z"></path>
</svg>
