<svg version="1.1" xmlns="http://www.w3.org/2000/svg" width="16" height="16" viewBox="0 0 16 16">
<title>emoji-disappointed</title>
<path d="M11.5 7c-0.276 0-0.5 0.224-0.5 0.5s-0.224 0.5-0.5 0.5-0.5-0.224-0.5-0.5c0-0.276-0.224-0.5-0.5-0.5s-0.5 0.224-0.5 0.5c0 0.827 0.673 1.5 1.5 1.5s1.5-0.673 1.5-1.5c0-0.276-0.224-0.5-0.5-0.5z"></path>
<path d="M7 7.5c0-0.276-0.224-0.5-0.5-0.5s-0.5 0.224-0.5 0.5c0 0.276-0.224 0.5-0.5 0.5s-0.5-0.224-0.5-0.5c0-0.276-0.224-0.5-0.5-0.5s-0.5 0.224-0.5 0.5c0 0.827 0.673 1.5 1.5 1.5s1.5-0.673 1.5-1.5z"></path>
<path d="M8 0c-4.411 0-8 3.589-8 8s3.589 8 8 8 8-3.589 8-8-3.589-8-8-8zM8 15c-3.86 0-7-3.14-7-7s3.14-7 7-7 7 3.14 7 7-3.14 7-7 7z"></path>
<path d="M5.615 11.181c-0.176 0.212-0.146 0.528 0.066 0.704 0.213 0.177 0.529 0.147 0.704-0.066 0.875-1.056 2.354-1.056 3.229 0 0.1 0.119 0.242 0.181 0.386 0.181 0.112 0 0.225-0.038 0.318-0.115 0.213-0.176 0.242-0.492 0.066-0.704-1.261-1.523-3.507-1.523-4.769 0z"></path>
</svg>
