<svg version="1.1" xmlns="http://www.w3.org/2000/svg" width="16" height="16" viewBox="0 0 16 16">
<title>emoji-mean</title>
<path d="M4.5 5c0.604 0 1.177 0.291 1.615 0.819 0.099 0.119 0.241 0.181 0.385 0.181 0.112 0 0.225-0.038 0.318-0.115 0.213-0.176 0.242-0.492 0.066-0.704-0.63-0.762-1.477-1.181-2.384-1.181-0.276 0-0.5 0.224-0.5 0.5s0.224 0.5 0.5 0.5z"></path>
<path d="M11.5 4c-0.907 0-1.754 0.419-2.385 1.181-0.176 0.213-0.147 0.528 0.066 0.704 0.093 0.077 0.206 0.115 0.319 0.115 0.144 0 0.287-0.062 0.386-0.181 0.437-0.528 1.010-0.819 1.614-0.819 0.276 0 0.5-0.224 0.5-0.5s-0.224-0.5-0.5-0.5z"></path>
<path d="M8 0c-4.411 0-8 3.589-8 8s3.589 8 8 8 8-3.589 8-8-3.589-8-8-8zM8 15c-3.86 0-7-3.141-7-7s3.14-7 7-7 7 3.14 7 7c0 3.859-3.14 7-7 7z"></path>
<path d="M6 8c0 0.552-0.448 1-1 1s-1-0.448-1-1c0-0.552 0.448-1 1-1s1 0.448 1 1z"></path>
<path d="M12 8c0 0.552-0.448 1-1 1s-1-0.448-1-1c0-0.552 0.448-1 1-1s1 0.448 1 1z"></path>
<path d="M11.295 10.044c-0.253-0.113-0.548 0-0.661 0.251-0.466 1.036-1.499 1.705-2.634 1.705s-2.168-0.669-2.634-1.705c-0.114-0.252-0.408-0.366-0.661-0.251-0.252 0.113-0.364 0.409-0.251 0.661 0.627 1.395 2.018 2.295 3.546 2.295s2.919-0.9 3.546-2.295c0.113-0.252 0.001-0.548-0.251-0.661z"></path>
</svg>
