<svg version="1.1" xmlns="http://www.w3.org/2000/svg" width="16" height="16" viewBox="0 0 16 16">
<title>emoji-stuck-out-tounge-closed-eyes</title>
<path d="M6.8 5.398c0.126-0.094 0.2-0.242 0.2-0.399 0-0.158-0.074-0.306-0.2-0.4l-2-1.499c-0.22-0.164-0.533-0.121-0.7 0.1-0.165 0.221-0.121 0.534 0.1 0.7l1.467 1.099-1.467 1.101c-0.222 0.166-0.266 0.479-0.1 0.7 0.098 0.131 0.249 0.2 0.4 0.2 0.104 0 0.21-0.033 0.3-0.1l2-1.502z"></path>
<path d="M10.333 4.999l1.467-1.099c0.221-0.166 0.266-0.479 0.101-0.7-0.167-0.221-0.479-0.265-0.7-0.1l-2 1.499c-0.127 0.094-0.201 0.242-0.201 0.4 0 0.157 0.074 0.305 0.2 0.4l2 1.501c0.090 0.067 0.196 0.1 0.3 0.1 0.151 0 0.302-0.069 0.399-0.2 0.166-0.221 0.122-0.534-0.1-0.7l-1.466-1.101z"></path>
<path d="M10.615 7.681c-0.705 0.851-1.634 1.319-2.615 1.319s-1.91-0.468-2.615-1.319c-0.176-0.213-0.49-0.243-0.704-0.066-0.212 0.176-0.243 0.491-0.066 0.704 0.405 0.488 0.877 0.862 1.385 1.143v1.538c0 1.103 0.897 2 2 2s2-0.897 2-2v-1.538c0.508-0.281 0.98-0.654 1.385-1.143 0.177-0.212 0.146-0.528-0.065-0.704-0.215-0.177-0.53-0.147-0.705 0.066zM9 11c0 0.551-0.448 1-1 1s-1-0.449-1-1v-1.13c0.325 0.082 0.659 0.13 1 0.13s0.675-0.048 1-0.13v1.13z"></path>
<path d="M8 0c-4.411 0-8 3.589-8 8s3.589 8 8 8 8-3.589 8-8-3.589-8-8-8zM8 15c-3.859 0-7-3.14-7-7s3.141-7 7-7 7 3.14 7 7-3.141 7-7 7z"></path>
</svg>
