<svg version="1.1" xmlns="http://www.w3.org/2000/svg" width="16" height="16" viewBox="0 0 16 16">
<title>emoji-astonished</title>
<path d="M8 0c-4.411 0-8 3.589-8 8s3.589 8 8 8 8-3.589 8-8-3.589-8-8-8zM8 15c-3.86 0-7-3.14-7-7s3.14-7 7-7 7 3.14 7 7-3.14 7-7 7z"></path>
<path d="M12 7c0 0.552-0.448 1-1 1s-1-0.448-1-1c0-0.552 0.448-1 1-1s1 0.448 1 1z"></path>
<path d="M6 7c0 0.552-0.448 1-1 1s-1-0.448-1-1c0-0.552 0.448-1 1-1s1 0.448 1 1z"></path>
<path d="M8 9c-1.103 0-2 0.897-2 2v1c0 1.103 0.897 2 2 2s2-0.897 2-2v-1c0-1.103-0.897-2-2-2zM9 12c0 0.551-0.449 1-1 1s-1-0.449-1-1v-1c0-0.551 0.449-1 1-1s1 0.449 1 1v1z"></path>
<path d="M4.432 4.976c0.115 0.016 0.23 0.024 0.343 0.024 0.838 0 1.604-0.432 2.139-1.219 0.155-0.228 0.096-0.539-0.133-0.694-0.228-0.155-0.539-0.096-0.695 0.132-0.397 0.584-0.919 0.846-1.518 0.767-0.276-0.040-0.526 0.153-0.563 0.427-0.038 0.273 0.153 0.525 0.427 0.563z"></path>
<path d="M11.225 5c0.113 0 0.228-0.008 0.343-0.024 0.273-0.038 0.465-0.29 0.427-0.563s-0.29-0.468-0.563-0.427c-0.601 0.080-1.121-0.183-1.518-0.767-0.155-0.228-0.466-0.288-0.695-0.133s-0.288 0.467-0.133 0.695c0.535 0.787 1.301 1.219 2.139 1.219z"></path>
</svg>
