<svg version="1.1" xmlns="http://www.w3.org/2000/svg" width="16" height="16" viewBox="0 0 16 16">
<title>emoji-stuck-out-tounge</title>
<path d="M8 0c-4.411 0-8 3.589-8 8s3.589 8 8 8 8-3.589 8-8-3.589-8-8-8zM8 15c-3.86 0-7-3.14-7-7s3.14-7 7-7 7 3.14 7 7-3.14 7-7 7z"></path>
<path d="M6 5c0 0.552-0.448 1-1 1s-1-0.448-1-1c0-0.552 0.448-1 1-1s1 0.448 1 1z"></path>
<path d="M12 5c0 0.552-0.448 1-1 1s-1-0.448-1-1c0-0.552 0.448-1 1-1s1 0.448 1 1z"></path>
<path d="M10.615 7.681c-0.704 0.851-1.633 1.319-2.615 1.319s-1.911-0.468-2.615-1.319c-0.177-0.213-0.492-0.243-0.704-0.066-0.213 0.176-0.242 0.491-0.066 0.704 0.404 0.488 0.877 0.862 1.385 1.143v1.538c0 1.103 0.897 2 2 2s2-0.897 2-2v-1.538c0.508-0.281 0.981-0.654 1.385-1.143 0.176-0.212 0.146-0.528-0.066-0.704s-0.528-0.146-0.704 0.066zM9 11c0 0.551-0.449 1-1 1s-1-0.449-1-1v-1.13c0.325 0.082 0.659 0.13 1 0.13s0.675-0.048 1-0.13v1.13z"></path>
</svg>
