<svg version="1.1" xmlns="http://www.w3.org/2000/svg" width="16" height="16" viewBox="0 0 16 16">
<title>emoji-fearful</title>
<path d="M8 0c-4.411 0-8 3.589-8 8s3.589 8 8 8 8-3.589 8-8-3.589-8-8-8zM8 15c-3.86 0-7-3.14-7-7s3.14-7 7-7 7 3.14 7 7-3.14 7-7 7z"></path>
<path d="M6 8c0 0.552-0.448 1-1 1s-1-0.448-1-1c0-0.552 0.448-1 1-1s1 0.448 1 1z"></path>
<path d="M12 8c0 0.552-0.448 1-1 1s-1-0.448-1-1c0-0.552 0.448-1 1-1s1 0.448 1 1z"></path>
<path d="M8 10c-1.093 0-2.119 0.435-2.745 1.164-0.271 0.315-0.331 0.724-0.16 1.094 0.207 0.45 0.702 0.742 1.261 0.742h3.288c0.559 0 1.054-0.292 1.261-0.742 0.17-0.37 0.11-0.779-0.16-1.094-0.626-0.729-1.652-1.164-2.745-1.164zM9.644 12h-3.288c-0.232 0-0.35-0.129-0.342-0.185 0.438-0.51 1.18-0.815 1.986-0.815s1.548 0.305 2 0.83c-0.006 0.041-0.124 0.17-0.356 0.17z"></path>
<path d="M6 4.5c0-0.276-0.224-0.5-0.5-0.5-0.907 0-1.754 0.419-2.385 1.181-0.176 0.213-0.147 0.528 0.066 0.704 0.093 0.077 0.206 0.115 0.319 0.115 0.144 0 0.287-0.062 0.386-0.181 0.437-0.528 1.010-0.819 1.614-0.819 0.276 0 0.5-0.224 0.5-0.5z"></path>
<path d="M12.885 5.181c-0.631-0.762-1.478-1.181-2.385-1.181-0.276 0-0.5 0.224-0.5 0.5s0.224 0.5 0.5 0.5c0.604 0 1.177 0.291 1.615 0.819 0.099 0.119 0.241 0.181 0.385 0.181 0.112 0 0.225-0.038 0.318-0.115 0.214-0.176 0.243-0.491 0.067-0.704z"></path>
</svg>
