<svg version="1.1" xmlns="http://www.w3.org/2000/svg" width="16" height="16" viewBox="0 0 16 16">
<title>emoji-scream</title>
<path d="M6 10v1c0 1.103 0.897 2 2 2s2-0.897 2-2v-1c0-1.103-0.897-2-2-2s-2 0.897-2 2zM9 10v1c0 0.551-0.448 1-1 1s-1-0.449-1-1v-1c0-0.551 0.448-1 1-1s1 0.449 1 1z"></path>
<path d="M12 6c0 0.552-0.448 1-1 1s-1-0.448-1-1c0-0.552 0.448-1 1-1s1 0.448 1 1z"></path>
<path d="M6 6c0 0.552-0.448 1-1 1s-1-0.448-1-1c0-0.552 0.448-1 1-1s1 0.448 1 1z"></path>
<path d="M0.5 9c-0.276 0-0.5 0.224-0.5 0.5v6c0 0.276 0.224 0.5 0.5 0.5h3c0.276 0 0.5-0.224 0.5-0.5 0-3.645-1.537-6.5-3.5-6.5zM1 15v-4.871c0.963 0.49 1.882 2.338 1.989 4.871h-1.989z"></path>
<path d="M15.5 9c-1.963 0-3.5 2.855-3.5 6.5 0 0.276 0.224 0.5 0.5 0.5h3c0.276 0 0.5-0.224 0.5-0.5v-6c0-0.276-0.224-0.5-0.5-0.5zM15 15h-1.989c0.107-2.533 1.026-4.381 1.989-4.871v4.871z"></path>
<path d="M10.333 14.593c-1.527 0.54-3.139 0.54-4.666 0-0.261-0.091-0.545 0.044-0.639 0.304-0.092 0.26 0.045 0.546 0.305 0.638 0.871 0.309 1.769 0.465 2.667 0.465s1.796-0.156 2.667-0.465c0.26-0.092 0.396-0.378 0.305-0.638-0.093-0.261-0.377-0.397-0.639-0.304z"></path>
<path d="M0.492 7.999c0.299 0.005 0.514-0.191 0.532-0.466 0.242-3.663 3.306-6.533 6.976-6.533s6.734 2.87 6.976 6.533c0.017 0.264 0.237 0.467 0.499 0.467 0.011 0 0.021 0 0.033-0.001 0.275-0.018 0.484-0.256 0.466-0.532-0.277-4.187-3.779-7.467-7.974-7.467s-7.697 3.28-7.974 7.467c-0.018 0.276 0.191 0.514 0.466 0.532z"></path>
</svg>
