<svg version="1.1" xmlns="http://www.w3.org/2000/svg" width="16" height="16" viewBox="0 0 16 16">
<title>emoji-nerd</title>
<path d="M8 0c-4.411 0-8 3.589-8 8s3.589 8 8 8 8-3.589 8-8-3.589-8-8-8zM8 15c-3.859 0-7-3.14-7-7s3.141-7 7-7 7 3.14 7 7-3.141 7-7 7z"></path>
<path d="M11.005 4c-0.737 0-1.375 0.405-1.722 1h-2.556c-0.347-0.595-0.985-1-1.722-1-1.103 0-2 0.897-2 2s0.897 2 2 2 2-0.897 2-2h2c0 1.103 0.897 2 2 2s2-0.897 2-2-0.898-2-2-2zM5.005 7c-0.552 0-1-0.449-1-1s0.448-1 1-1 1 0.449 1 1-0.448 1-1 1zM11.005 7c-0.552 0-1-0.449-1-1s0.448-1 1-1 1 0.449 1 1-0.448 1-1 1z"></path>
<path d="M11.5 10h-5c-0.659 0-1.375-0.329-1.781-0.819-0.177-0.213-0.491-0.243-0.704-0.066s-0.243 0.491-0.066 0.704c0.49 0.593 1.26 0.995 2.051 1.123v1.558c0 0.276 0.224 0.5 0.5 0.5h4c0.276 0 0.5-0.224 0.5-0.5v-1.5h0.5c0.276 0 0.5-0.224 0.5-0.5s-0.224-0.5-0.5-0.5zM7 11h1v1h-1v-1zM10 12h-1v-1h1v1z"></path>
</svg>
