<svg version="1.1" xmlns="http://www.w3.org/2000/svg" width="16" height="16" viewBox="0 0 16 16">
<title>emoji-big-eyes-smile</title>
<path d="M7 4.5c0 0.828-0.448 1.5-1 1.5s-1-0.672-1-1.5c0-0.828 0.448-1.5 1-1.5s1 0.672 1 1.5z"></path>
<path d="M11 4.5c0 0.828-0.448 1.5-1 1.5s-1-0.672-1-1.5c0-0.828 0.448-1.5 1-1.5s1 0.672 1 1.5z"></path>
<path d="M8 0c-4.411 0-8 3.589-8 8s3.589 8 8 8 8-3.589 8-8-3.589-8-8-8zM8 15c-3.859 0-7-3.14-7-7s3.141-7 7-7 7 3.14 7 7-3.141 7-7 7z"></path>
<path d="M12.944 7.424c-0.036-0.245-0.246-0.424-0.494-0.424h-8.9c-0.248 0-0.458 0.179-0.494 0.424 0 0-0.056 0.379-0.056 0.576 0 2.757 2.243 5 5 5s5-2.243 5-5c0-0.197-0.056-0.576-0.056-0.576zM8 12c-1.474 0-2.75-0.81-3.444-2h6.887c-0.693 1.19-1.969 2-3.443 2zM11.858 9h-7.716c-0.084-0.322-0.142-0.653-0.142-1h8c0 0.347-0.058 0.678-0.142 1z"></path>
</svg>
