<svg version="1.1" xmlns="http://www.w3.org/2000/svg" width="16" height="16" viewBox="0 0 16 16">
<title>emoji-cold-sweat</title>
<path d="M5.5 7c-0.827 0-1.5 0.673-1.5 1.5 0 0.276 0.224 0.5 0.5 0.5s0.5-0.224 0.5-0.5c0-0.276 0.224-0.5 0.5-0.5s0.5 0.224 0.5 0.5c0 0.276 0.224 0.5 0.5 0.5s0.5-0.224 0.5-0.5c0-0.827-0.673-1.5-1.5-1.5z"></path>
<path d="M10 8.5c0-0.276 0.224-0.5 0.5-0.5s0.5 0.224 0.5 0.5c0 0.276 0.224 0.5 0.5 0.5s0.5-0.224 0.5-0.5c0-0.827-0.673-1.5-1.5-1.5s-1.5 0.673-1.5 1.5c0 0.276 0.224 0.5 0.5 0.5s0.5-0.224 0.5-0.5z"></path>
<path d="M5.615 12.181c-0.176 0.212-0.146 0.528 0.066 0.704 0.213 0.177 0.529 0.147 0.704-0.066 0.875-1.056 2.354-1.056 3.229 0 0.1 0.119 0.242 0.181 0.386 0.181 0.112 0 0.225-0.038 0.318-0.115 0.213-0.176 0.242-0.492 0.066-0.704-1.261-1.523-3.507-1.523-4.769 0z"></path>
<path d="M2.5 7c1.378 0 2.5-1.122 2.5-2.5 0-1.586-1.892-4.035-2.107-4.309-0.19-0.241-0.596-0.241-0.786 0-0.215 0.274-2.107 2.723-2.107 4.309 0 1.378 1.122 2.5 2.5 2.5zM2.5 1.34c0.62 0.88 1.5 2.315 1.5 3.16 0 0.827-0.673 1.5-1.5 1.5s-1.5-0.673-1.5-1.5c0-0.845 0.88-2.28 1.5-3.16z"></path>
<path d="M8 0c-0.899 0-1.796 0.156-2.667 0.465-0.26 0.092-0.396 0.378-0.304 0.638s0.377 0.398 0.638 0.304c0.763-0.27 1.548-0.407 2.333-0.407 3.86 0 7 3.14 7 7s-3.14 7-7 7c-3.669 0-6.733-2.87-6.976-6.533-0.018-0.276-0.258-0.476-0.532-0.466-0.275 0.019-0.484 0.256-0.466 0.532 0.277 4.187 3.78 7.467 7.974 7.467 4.411 0 8-3.589 8-8s-3.589-8-8-8z"></path>
</svg>
