<svg version="1.1" xmlns="http://www.w3.org/2000/svg" width="16" height="16" viewBox="0 0 16 16">
<title>emoji-persevere</title>
<path d="M8 0c-4.411 0-8 3.589-8 8s3.589 8 8 8 8-3.589 8-8-3.589-8-8-8zM8 15c-3.859 0-7-3.14-7-7s3.141-7 7-7 7 3.14 7 7-3.141 7-7 7z"></path>
<path d="M5.615 12.181c-0.177 0.212-0.146 0.528 0.065 0.704 0.213 0.176 0.528 0.147 0.704-0.066 0.875-1.056 2.355-1.056 3.23 0 0.1 0.119 0.242 0.181 0.386 0.181 0.112 0 0.226-0.038 0.319-0.115 0.212-0.176 0.242-0.492 0.065-0.704-1.261-1.523-3.507-1.523-4.769 0z"></path>
<path d="M6.99 8.399c-0.038-0.189-0.181-0.339-0.369-0.386l-2-0.499c-0.272-0.066-0.54 0.096-0.606 0.364s0.097 0.54 0.364 0.606l0.98 0.244-1.159 0.872c-0.222 0.166-0.266 0.479-0.1 0.7 0.098 0.131 0.248 0.2 0.399 0.2 0.104 0 0.21-0.033 0.3-0.1l2-1.501c0.155-0.116 0.229-0.311 0.191-0.5z"></path>
<path d="M10.641 8.729l0.98-0.244c0.268-0.067 0.431-0.338 0.364-0.606s-0.337-0.431-0.606-0.364l-2 0.499c-0.188 0.046-0.331 0.196-0.369 0.385s0.036 0.384 0.19 0.499l2 1.501c0.090 0.067 0.195 0.1 0.3 0.1 0.151 0 0.302-0.069 0.399-0.2 0.166-0.221 0.122-0.534-0.1-0.7l-1.158-0.87z"></path>
<path d="M6 4.5c0-0.276-0.224-0.5-0.5-0.5-0.907 0-1.754 0.419-2.385 1.181-0.177 0.213-0.146 0.528 0.066 0.704 0.093 0.077 0.207 0.115 0.319 0.115 0.144 0 0.286-0.062 0.385-0.181 0.437-0.528 1.011-0.819 1.615-0.819 0.276 0 0.5-0.224 0.5-0.5z"></path>
<path d="M12.885 5.181c-0.631-0.762-1.478-1.181-2.385-1.181-0.276 0-0.5 0.224-0.5 0.5s0.224 0.5 0.5 0.5c0.604 0 1.178 0.291 1.615 0.819 0.099 0.119 0.241 0.181 0.385 0.181 0.112 0 0.226-0.038 0.319-0.115 0.212-0.176 0.243-0.491 0.066-0.704z"></path>
</svg>
