<svg version="1.1" xmlns="http://www.w3.org/2000/svg" width="16" height="16" viewBox="0 0 16 16">
<title>envelope-o</title>
<path d="M14.5 2h-13c-0.828 0-1.5 0.672-1.5 1.5v0 9c0 0.828 0.672 1.5 1.5 1.5v0h13c0.828 0 1.5-0.672 1.5-1.5v0-9c0-0.828-0.672-1.5-1.5-1.5v0zM15 12.5c0 0.276-0.224 0.5-0.5 0.5v0h-13c-0.276 0-0.5-0.224-0.5-0.5v0-9c0-0.276 0.224-0.5 0.5-0.5v0h13c0.276 0 0.5 0.224 0.5 0.5v0z"></path>
<path d="M13.187 3.915l-4.562 3.668c-0.169 0.138-0.387 0.222-0.625 0.222s-0.456-0.084-0.627-0.223l0.002 0.001-4.562-3.668c-0.087-0.076-0.202-0.122-0.327-0.122-0.276 0-0.5 0.224-0.5 0.5 0 0.163 0.078 0.309 0.2 0.4l0.001 0.001 4.562 3.669c0.338 0.276 0.775 0.443 1.25 0.443s0.912-0.167 1.254-0.446l-0.004 0.003 4.562-3.669c0.123-0.092 0.201-0.237 0.201-0.401 0-0.276-0.224-0.5-0.5-0.5-0.125 0-0.24 0.046-0.328 0.122l0.001-0.001z"></path>
</svg>
