<svg version="1.1" xmlns="http://www.w3.org/2000/svg" width="16" height="16" viewBox="0 0 16 16">
<title>envelope-user</title>
<path d="M7.506 12h-6.006c-0.276 0-0.5-0.224-0.5-0.5v0-8c0-0.276 0.224-0.5 0.5-0.5v0h12c0.276 0 0.5 0.224 0.5 0.5v0 4c0 0.276 0.224 0.5 0.5 0.5s0.5-0.224 0.5-0.5v0-4c0-0.828-0.672-1.5-1.5-1.5v0h-12c-0.828 0-1.5 0.672-1.5 1.5v0 8c0 0.828 0.672 1.5 1.5 1.5v0h6.006c0.276 0 0.5-0.224 0.5-0.5s-0.224-0.5-0.5-0.5v0z"></path>
<path d="M12.875 4.169c-0.092-0.104-0.226-0.169-0.375-0.169-0.127 0-0.243 0.047-0.332 0.126l0.001-0-4.146 3.667c-0.137 0.127-0.321 0.204-0.523 0.204s-0.386-0.078-0.524-0.205l0.001 0-4.146-3.667c-0.088-0.078-0.204-0.125-0.331-0.125-0.276 0-0.5 0.224-0.5 0.5 0 0.149 0.065 0.283 0.169 0.375l0.001 0 4.145 3.666c0.313 0.283 0.729 0.456 1.186 0.456s0.873-0.173 1.188-0.457l-0.002 0.001 4.145-3.666c0.104-0.092 0.169-0.226 0.169-0.375 0-0.127-0.047-0.243-0.126-0.332l0 0.001z"></path>
<path d="M15.16 13.82l-0.834-0.625c0.417-0.446 0.674-1.046 0.674-1.707 0-1.381-1.119-2.5-2.5-2.5s-2.5 1.119-2.5 2.5c0 0.661 0.256 1.261 0.675 1.708l-0.001-0.001-0.833 0.625c-0.511 0.388-0.838 0.996-0.84 1.68v0c0 0.276 0.224 0.5 0.5 0.5s0.5-0.224 0.5-0.5v0c0.001-0.358 0.173-0.676 0.437-0.878l0.003-0.002 1.089-0.816c0.287 0.124 0.62 0.196 0.971 0.196s0.684-0.072 0.987-0.203l-0.016 0.006 1.089 0.817c0.268 0.203 0.44 0.521 0.44 0.879v0c0 0.276 0.224 0.5 0.5 0.5s0.5-0.224 0.5-0.5v0c-0.002-0.684-0.329-1.292-0.835-1.676l-0.005-0.004zM14 11.5c0 0.828-0.672 1.5-1.5 1.5s-1.5-0.672-1.5-1.5c0-0.828 0.672-1.5 1.5-1.5v0c0.828 0 1.5 0.672 1.5 1.5v0z"></path>
</svg>
