<svg version="1.1" xmlns="http://www.w3.org/2000/svg" width="16" height="16" viewBox="0 0 16 16">
<title>envelope-heart</title>
<path d="M7.506 12h-6.006c-0.276 0-0.5-0.224-0.5-0.5v0-8c0-0.276 0.224-0.5 0.5-0.5v0h12c0.276 0 0.5 0.224 0.5 0.5v0 4c0 0.276 0.224 0.5 0.5 0.5s0.5-0.224 0.5-0.5v0-4c0-0.828-0.672-1.5-1.5-1.5v0h-12c-0.828 0-1.5 0.672-1.5 1.5v0 8c0 0.828 0.672 1.5 1.5 1.5v0h6.006c0.276 0 0.5-0.224 0.5-0.5s-0.224-0.5-0.5-0.5v0z"></path>
<path d="M12.875 4.169c-0.092-0.104-0.226-0.169-0.375-0.169-0.127 0-0.243 0.047-0.332 0.126l0.001-0-4.146 3.667c-0.137 0.127-0.321 0.204-0.523 0.204s-0.386-0.078-0.524-0.205l0.001 0-4.146-3.667c-0.088-0.078-0.204-0.125-0.331-0.125-0.276 0-0.5 0.224-0.5 0.5 0 0.149 0.065 0.283 0.169 0.375l0.001 0 4.145 3.666c0.313 0.283 0.729 0.456 1.186 0.456s0.873-0.173 1.188-0.457l-0.002 0.001 4.145-3.666c0.104-0.092 0.169-0.226 0.169-0.375 0-0.127-0.047-0.243-0.126-0.332l0 0.001z"></path>
<path d="M15.416 10.569c-0.362-0.351-0.856-0.567-1.4-0.567s-1.038 0.216-1.4 0.568l0.001-0-0.116 0.114-0.116-0.114c-0.362-0.351-0.856-0.567-1.4-0.567s-1.038 0.216-1.401 0.568l0.001-0c-0.36 0.352-0.584 0.843-0.584 1.386s0.223 1.034 0.584 1.386l0 0 2.566 2.516c0.090 0.088 0.214 0.143 0.35 0.143s0.26-0.055 0.35-0.143l-0 0 2.566-2.516c0.36-0.352 0.584-0.843 0.584-1.386s-0.223-1.034-0.584-1.386l-0-0zM14.716 12.627l-2.216 2.173-2.215-2.173c-0.176-0.17-0.285-0.408-0.285-0.672s0.109-0.502 0.285-0.672l0-0c0.181-0.175 0.428-0.283 0.7-0.283s0.519 0.108 0.7 0.284l-0-0 0.466 0.458c0.090 0.088 0.214 0.143 0.35 0.143s0.26-0.055 0.35-0.143l-0 0 0.466-0.458c0.181-0.175 0.428-0.283 0.7-0.283s0.519 0.108 0.7 0.284l-0-0c0.176 0.17 0.285 0.408 0.285 0.672s-0.109 0.502-0.285 0.672l-0 0z"></path>
</svg>
