<svg version="1.1" xmlns="http://www.w3.org/2000/svg" width="16" height="16" viewBox="0 0 16 16">
<title>envelope-chart</title>
<path d="M7.506 12h-6.006c-0.276 0-0.5-0.224-0.5-0.5v0-8c0-0.276 0.224-0.5 0.5-0.5v0h12c0.276 0 0.5 0.224 0.5 0.5v0 4c0 0.276 0.224 0.5 0.5 0.5s0.5-0.224 0.5-0.5v0-4c0-0.828-0.672-1.5-1.5-1.5v0h-12c-0.828 0-1.5 0.672-1.5 1.5v0 8c0 0.828 0.672 1.5 1.5 1.5v0h6.006c0.276 0 0.5-0.224 0.5-0.5s-0.224-0.5-0.5-0.5v0z"></path>
<path d="M12.875 4.169c-0.092-0.104-0.226-0.169-0.375-0.169-0.127 0-0.243 0.047-0.332 0.126l0.001-0-4.146 3.667c-0.137 0.127-0.321 0.204-0.523 0.204s-0.386-0.078-0.524-0.205l0.001 0-4.146-3.667c-0.088-0.078-0.204-0.125-0.331-0.125-0.276 0-0.5 0.224-0.5 0.5 0 0.149 0.065 0.283 0.169 0.375l0.001 0 4.145 3.666c0.313 0.283 0.729 0.456 1.186 0.456s0.873-0.173 1.188-0.457l-0.002 0.001 4.145-3.666c0.104-0.092 0.169-0.226 0.169-0.375 0-0.127-0.047-0.243-0.126-0.332l0 0.001z"></path>
<path d="M15.5 11h-1.5v-1.5c0-0.276-0.224-0.5-0.5-0.5v0h-2c-0.276 0-0.5 0.224-0.5 0.5v0 2.5h-1.5c-0.276 0-0.5 0.224-0.5 0.5v0 3c0 0.276 0.224 0.5 0.5 0.5v0h6c0.276 0 0.5-0.224 0.5-0.5v0-4c0-0.276-0.224-0.5-0.5-0.5v0zM11 15h-1v-2h1zM13 11.5v3.5h-1v-5h1zM15 15h-1v-3h1z"></path>
</svg>
