<svg version="1.1" xmlns="http://www.w3.org/2000/svg" width="16" height="16" viewBox="0 0 16 16">
<title>envelope-edit</title>
<path d="M7.506 12h-6.006c-0.276 0-0.5-0.224-0.5-0.5v0-8c0-0.276 0.224-0.5 0.5-0.5v0h12c0.276 0 0.5 0.224 0.5 0.5v0 4c0 0.276 0.224 0.5 0.5 0.5s0.5-0.224 0.5-0.5v0-4c0-0.828-0.672-1.5-1.5-1.5v0h-12c-0.828 0-1.5 0.672-1.5 1.5v0 8c0 0.828 0.672 1.5 1.5 1.5v0h6.006c0.276 0 0.5-0.224 0.5-0.5s-0.224-0.5-0.5-0.5v0z"></path>
<path d="M12.875 4.169c-0.092-0.104-0.226-0.169-0.375-0.169-0.127 0-0.243 0.047-0.332 0.126l0.001-0-4.146 3.667c-0.137 0.127-0.321 0.204-0.523 0.204s-0.386-0.078-0.524-0.205l0.001 0-4.146-3.667c-0.088-0.078-0.204-0.125-0.331-0.125-0.276 0-0.5 0.224-0.5 0.5 0 0.149 0.065 0.283 0.169 0.375l0.001 0 4.145 3.666c0.313 0.283 0.729 0.456 1.186 0.456s0.873-0.173 1.188-0.457l-0.002 0.001 4.145-3.666c0.104-0.092 0.169-0.226 0.169-0.375 0-0.127-0.047-0.243-0.126-0.332l0 0.001z"></path>
<path d="M15.561 9.44v0c-0.271-0.272-0.647-0.44-1.061-0.44s-0.79 0.168-1.061 0.44l-2.984 2.985c-0.194 0.193-0.355 0.418-0.475 0.668l-0.006 0.014-0.9 1.935c-0.045 0.088-0.071 0.192-0.071 0.302 0 0.182 0.072 0.348 0.19 0.469l-0-0c0.117 0.116 0.277 0.187 0.454 0.187 0.001 0 0.001 0 0.002 0h-0c0.113-0 0.221-0.027 0.316-0.073l-0.004 0.002 1.934-0.9c0.264-0.126 0.489-0.287 0.682-0.481l2.985-2.984c0.272-0.271 0.44-0.647 0.44-1.061s-0.168-0.79-0.44-1.061l-0-0zM14.854 10.854l-2.985 2.985c-0.113 0.114-0.245 0.208-0.392 0.278l-0.008 0.004-1.108 0.517 0.517-1.108c0.074-0.155 0.168-0.287 0.282-0.4l2.984-2.985c0.091-0.091 0.216-0.147 0.354-0.147s0.263 0.056 0.354 0.147l0 0c0.090 0.090 0.146 0.215 0.146 0.353s-0.056 0.263-0.146 0.353l0-0z"></path>
</svg>
