<svg version="1.1" xmlns="http://www.w3.org/2000/svg" width="16" height="16" viewBox="0 0 16 16">
<title>envelope-lock</title>
<path d="M7.506 12h-6.006c-0.276 0-0.5-0.224-0.5-0.5v0-8c0-0.276 0.224-0.5 0.5-0.5v0h12c0.276 0 0.5 0.224 0.5 0.5v0 4c0 0.276 0.224 0.5 0.5 0.5s0.5-0.224 0.5-0.5v0-4c0-0.828-0.672-1.5-1.5-1.5v0h-12c-0.828 0-1.5 0.672-1.5 1.5v0 8c0 0.828 0.672 1.5 1.5 1.5v0h6.006c0.276 0 0.5-0.224 0.5-0.5s-0.224-0.5-0.5-0.5v0z"></path>
<path d="M12.875 4.169c-0.092-0.104-0.226-0.169-0.375-0.169-0.127 0-0.243 0.047-0.332 0.126l0.001-0-4.146 3.667c-0.137 0.127-0.321 0.204-0.523 0.204s-0.386-0.078-0.524-0.205l0.001 0-4.146-3.667c-0.088-0.078-0.204-0.125-0.331-0.125-0.276 0-0.5 0.224-0.5 0.5 0 0.149 0.065 0.283 0.169 0.375l0.001 0 4.145 3.666c0.313 0.283 0.729 0.456 1.186 0.456s0.873-0.173 1.188-0.457l-0.002 0.001 4.145-3.666c0.104-0.092 0.169-0.226 0.169-0.375 0-0.127-0.047-0.243-0.126-0.332l0 0.001z"></path>
<path d="M15 12v-1c0-1.105-0.895-2-2-2s-2 0.895-2 2v0 1c-0.552 0-1 0.448-1 1v0 2c0 0.552 0.448 1 1 1v0h4c0.552 0 1-0.448 1-1v0-2c0-0.552-0.448-1-1-1v0zM12 11c0-0.552 0.448-1 1-1s1 0.448 1 1v0 1h-2zM15 13v2h-4v-2z"></path>
</svg>
