<svg version="1.1" xmlns="http://www.w3.org/2000/svg" width="16" height="16" viewBox="0 0 16 16">
<title>envelope-open-o</title>
<path d="M14.98 3.635l-6-3.378c-0.282-0.16-0.62-0.255-0.981-0.255s-0.698 0.095-0.99 0.26l0.010-0.005-6 3.378c-0.613 0.35-1.019 0.999-1.019 1.743 0 0 0 0.001 0 0.001v-0 6.621c0 1.105 0.895 2 2 2v0h12c1.105 0 2-0.895 2-2v0-6.621c0-0 0-0 0-0.001 0-0.744-0.407-1.394-1.010-1.738l-0.010-0.005zM15 12c0 0.552-0.448 1-1 1v0h-12c-0.552 0-1-0.448-1-1v0-6.621c0-0 0-0.001 0-0.001 0-0.372 0.203-0.697 0.505-0.869l0.005-0.003 6-3.378c0.141-0.081 0.31-0.128 0.49-0.128s0.349 0.048 0.495 0.131l-0.005-0.003 6 3.378c0.307 0.175 0.51 0.499 0.51 0.872 0 0 0 0.001 0 0.001v-0z"></path>
<path d="M13.187 5.915l-4.562 3.668c-0.169 0.138-0.387 0.222-0.625 0.222s-0.456-0.084-0.627-0.223l0.002 0.001-4.562-3.668c-0.087-0.076-0.202-0.122-0.327-0.122-0.276 0-0.5 0.224-0.5 0.5 0 0.163 0.078 0.309 0.2 0.4l0.001 0.001 4.562 3.669c0.338 0.276 0.775 0.443 1.25 0.443s0.912-0.167 1.254-0.446l-0.004 0.003 4.562-3.669c0.123-0.092 0.201-0.237 0.201-0.401 0-0.276-0.224-0.5-0.5-0.5-0.125 0-0.24 0.046-0.328 0.122l0.001-0.001z"></path>
</svg>
