<svg version="1.1" xmlns="http://www.w3.org/2000/svg" width="16" height="16" viewBox="0 0 16 16">
<title>envelope-square</title>
<path d="M11.229 6.080l-2.755 1.777c-0.133 0.089-0.297 0.142-0.473 0.142s-0.34-0.053-0.477-0.144l0.003 0.002-2.756-1.777c-0.074-0.046-0.164-0.073-0.26-0.073-0.276 0-0.5 0.224-0.5 0.5 0 0.171 0.086 0.322 0.217 0.412l0.002 0.001 2.756 1.78c0.286 0.19 0.637 0.303 1.015 0.303s0.729-0.113 1.022-0.307l-0.007 0.004 2.756-1.78c0.133-0.091 0.218-0.242 0.218-0.413 0-0.276-0.224-0.5-0.5-0.5-0.096 0-0.186 0.027-0.263 0.074l0.002-0.001z"></path>
<path d="M13 1h-10c-1.105 0-2 0.895-2 2v0 10c0 1.105 0.895 2 2 2v0h10c1.105 0 2-0.895 2-2v0-10c0-1.105-0.895-2-2-2v0zM13 10.5c0 0.276-0.224 0.5-0.5 0.5v0h-9c-0.276 0-0.5-0.224-0.5-0.5v0-5c0-0.276 0.224-0.5 0.5-0.5v0h9c0.276 0 0.5 0.224 0.5 0.5v0z"></path>
</svg>
