<svg version="1.1" xmlns="http://www.w3.org/2000/svg" width="16" height="16" viewBox="0 0 16 16">
<title>eraser</title>
<path d="M15.817 6.526c0-0.41-0.16-0.794-0.449-1.084l-3.993-3.993c-0.288-0.289-0.673-0.449-1.082-0.449h-0.001c-0.409 0-0.794 0.16-1.084 0.449l-8.576 8.577c-0.289 0.29-0.449 0.674-0.449 1.084s0.16 0.795 0.449 1.084l2.657 2.66c0.094 0.093 0.221 0.146 0.354 0.146h9.857c0.276 0 0.5-0.224 0.5-0.5s-0.224-0.5-0.5-0.5h-4.52l6.388-6.389c0.289-0.29 0.449-0.674 0.449-1.085zM7.566 14h-3.716l-2.511-2.514c-0.101-0.1-0.156-0.234-0.156-0.376s0.056-0.276 0.156-0.377l4.563-4.563 4.627 4.628 0.144 0.095-3.107 3.107zM14.661 6.904l-3.329 3.33-0.095-0.144-4.628-4.627 3.306-3.306c0.101-0.101 0.234-0.157 0.377-0.157h0.001c0.142 0 0.274 0.055 0.375 0.156l3.993 3.994c0.101 0.101 0.156 0.234 0.156 0.377s-0.055 0.276-0.156 0.377z"></path>
</svg>
