<svg version="1.1" xmlns="http://www.w3.org/2000/svg" width="16" height="16" viewBox="0 0 16 16">
<title>euro</title>
<path d="M12.536 11.536c-0.902 0.911-2.153 1.475-3.536 1.475-2.038 0-3.79-1.225-4.559-2.979l-0.013-0.032h6.071c0.276 0 0.5-0.224 0.5-0.5s-0.224-0.5-0.5-0.5v0h-6.393c-0.066-0.3-0.105-0.645-0.107-0.998l-0-0.002h7.5c0.276 0 0.5-0.224 0.5-0.5s-0.224-0.5-0.5-0.5v0h-7.393c0.477-2.3 2.486-4.004 4.893-4.004 1.381 0 2.632 0.561 3.536 1.468l0 0c0.090 0.087 0.212 0.14 0.347 0.14 0.276 0 0.5-0.224 0.5-0.5 0-0.135-0.054-0.258-0.14-0.348l0 0c-1.084-1.090-2.584-1.764-4.242-1.764-2.959 0-5.417 2.149-5.896 4.972l-0.005 0.035h-0.6c-0.276 0-0.5 0.224-0.5 0.5s0.224 0.5 0.5 0.5v0h0.5c0.006 0.358 0.042 0.703 0.106 1.038l-0.006-0.038h-0.6c-0.276 0-0.5 0.224-0.5 0.5s0.224 0.5 0.5 0.5v0h0.865c0.844 2.348 3.052 3.998 5.645 3.998 1.653 0 3.15-0.671 4.233-1.755l0-0c0.087-0.090 0.14-0.212 0.14-0.347 0-0.276-0.224-0.5-0.5-0.5-0.135 0-0.258 0.054-0.348 0.14l0-0z"></path>
</svg>
