<svg version="1.1" xmlns="http://www.w3.org/2000/svg" width="16" height="16" viewBox="0 0 16 16">
<title>exchange</title>
<path d="M3.47 7.53c0.134 0.125 0.313 0.201 0.511 0.201 0.414 0 0.75-0.336 0.75-0.75 0-0.198-0.077-0.378-0.202-0.512l0 0-1.719-1.72h12.189c0.414 0 0.75-0.336 0.75-0.75s-0.336-0.75-0.75-0.75v0h-12.189l1.719-1.72c0.125-0.134 0.201-0.313 0.201-0.511 0-0.414-0.336-0.75-0.75-0.75-0.198 0-0.378 0.077-0.512 0.202l0-0-3 3c-0.136 0.136-0.22 0.323-0.22 0.53s0.084 0.394 0.22 0.53l0 0z"></path>
<path d="M12.53 8.47c-0.134-0.125-0.313-0.201-0.511-0.201-0.414 0-0.75 0.336-0.75 0.75 0 0.198 0.077 0.378 0.202 0.512l-0-0 1.719 1.72h-12.189c-0.414 0-0.75 0.336-0.75 0.75s0.336 0.75 0.75 0.75v0h12.189l-1.719 1.72c-0.147 0.137-0.239 0.332-0.239 0.549 0 0.414 0.336 0.75 0.75 0.75 0.216 0 0.411-0.092 0.548-0.238l0-0 3-3c0.136-0.136 0.22-0.323 0.22-0.53s-0.084-0.394-0.22-0.53l-0-0z"></path>
</svg>
