<svg version="1.1" xmlns="http://www.w3.org/2000/svg" width="16" height="16" viewBox="0 0 16 16">
<title>exclamation-diamond-o</title>
<path d="M15.415 6.588l-6-6c-0.362-0.362-0.862-0.586-1.415-0.586s-1.053 0.224-1.415 0.586l-6 6c-0.362 0.362-0.586 0.862-0.586 1.414s0.224 1.052 0.586 1.414l6 6c0.362 0.362 0.862 0.586 1.415 0.586s1.053-0.224 1.415-0.586l6-6c0.362-0.362 0.586-0.862 0.586-1.414s-0.224-1.052-0.586-1.414v0zM14.708 8.709l-6 6c-0.181 0.181-0.431 0.293-0.707 0.293s-0.526-0.112-0.707-0.293l-6-6c-0.178-0.18-0.287-0.428-0.287-0.701 0-0.276 0.112-0.527 0.293-0.708l6-6c0.181-0.181 0.431-0.293 0.707-0.293s0.526 0.112 0.707 0.293l6 6c0.178 0.18 0.287 0.428 0.287 0.701 0 0.276-0.112 0.527-0.293 0.708l-0 0z"></path>
<path d="M8 8.75c0.414 0 0.75-0.336 0.75-0.75v0-3c0-0.414-0.336-0.75-0.75-0.75s-0.75 0.336-0.75 0.75v0 3c0 0.414 0.336 0.75 0.75 0.75v0z"></path>
<path d="M9 11c0 0.552-0.448 1-1 1s-1-0.448-1-1c0-0.552 0.448-1 1-1s1 0.448 1 1z"></path>
</svg>
