<svg version="1.1" xmlns="http://www.w3.org/2000/svg" width="16" height="16" viewBox="0 0 16 16">
<title>exclamation-diamond</title>
<path d="M15.415 6.588l-6-6c-0.367-0.351-0.866-0.567-1.415-0.567s-1.048 0.216-1.415 0.568l0.001-0.001-6 6c-0.362 0.362-0.586 0.862-0.586 1.414s0.224 1.052 0.586 1.414l6 6c0.362 0.362 0.862 0.586 1.415 0.586s1.053-0.224 1.415-0.586l6-6c0.362-0.362 0.586-0.862 0.586-1.414s-0.224-1.052-0.586-1.414v0zM8 12c-0.552 0-1-0.448-1-1s0.448-1 1-1c0.552 0 1 0.448 1 1v0c0 0.552-0.448 1-1 1v0zM9 8c0 0.552-0.448 1-1 1s-1-0.448-1-1v0-3c0-0.552 0.448-1 1-1s1 0.448 1 1v0z"></path>
</svg>
