<svg version="1.1" xmlns="http://www.w3.org/2000/svg" width="16" height="16" viewBox="0 0 16 16">
<title>exclamation-circle-o</title>
<path d="M8 0c-4.418 0-8 3.582-8 8s3.582 8 8 8c4.418 0 8-3.582 8-8v0c-0.005-4.416-3.584-7.995-8-8h-0zM8 15c-3.866 0-7-3.134-7-7s3.134-7 7-7c3.866 0 7 3.134 7 7v0c-0.005 3.864-3.136 6.995-7 7h-0z"></path>
<path d="M8 8.75c0.414 0 0.75-0.336 0.75-0.75v0-3c0-0.414-0.336-0.75-0.75-0.75s-0.75 0.336-0.75 0.75v0 3c0 0.414 0.336 0.75 0.75 0.75v0z"></path>
<path d="M9 11c0 0.552-0.448 1-1 1s-1-0.448-1-1c0-0.552 0.448-1 1-1s1 0.448 1 1z"></path>
</svg>
