<svg version="1.1" xmlns="http://www.w3.org/2000/svg" width="16" height="16" viewBox="0 0 16 16">
<title>exclamation-triangle-o</title>
<path d="M15.718 11.972l-6-10c-0.356-0.586-0.99-0.971-1.715-0.971s-1.359 0.385-1.71 0.962l-0.005 0.009-6 10c-0.179 0.293-0.284 0.648-0.284 1.028 0 1.105 0.895 2 2 2 0.003 0 0.005 0 0.008-0h11.989c0 0 0 0 0 0 1.105 0 2-0.895 2-2 0-0.38-0.106-0.735-0.289-1.037l0.005 0.009zM14.873 13.493c-0.173 0.305-0.495 0.507-0.864 0.507-0.003 0-0.006-0-0.009-0h-11.989c-0 0-0.001 0-0.001 0-0.552 0-1-0.448-1-1 0-0.19 0.053-0.368 0.145-0.519l-0.002 0.004 6-10c0.178-0.293 0.495-0.486 0.858-0.486s0.68 0.193 0.855 0.481l0.002 0.004 6 10c0.088 0.145 0.14 0.321 0.14 0.508 0 0.184-0.050 0.357-0.138 0.504l0.003-0.005z"></path>
<path d="M8 9.75c0.414 0 0.75-0.336 0.75-0.75v0-3c0-0.414-0.336-0.75-0.75-0.75s-0.75 0.336-0.75 0.75v0 3c0 0.414 0.336 0.75 0.75 0.75v0z"></path>
<path d="M9 12c0 0.552-0.448 1-1 1s-1-0.448-1-1c0-0.552 0.448-1 1-1s1 0.448 1 1z"></path>
</svg>
