<svg version="1.1" xmlns="http://www.w3.org/2000/svg" width="16" height="16" viewBox="0 0 16 16">
<title>external-link-square</title>
<path d="M13 1h-10c-1.103 0-2 0.897-2 2v10c0 1.103 0.897 2 2 2h10c1.103 0 2-0.897 2-2v-10c0-1.103-0.897-2-2-2zM14 13c0 0.551-0.449 1-1 1h-10c-0.551 0-1-0.449-1-1v-10c0-0.551 0.449-1 1-1h10c0.551 0 1 0.449 1 1v10zM11.5 4h-5c-0.276 0-0.5 0.224-0.5 0.5s0.224 0.5 0.5 0.5h3.793l-6.146 6.146c-0.195 0.195-0.195 0.512 0 0.707 0.097 0.098 0.225 0.147 0.353 0.147s0.256-0.049 0.354-0.146l6.146-6.147v3.793c0 0.276 0.224 0.5 0.5 0.5s0.5-0.224 0.5-0.5v-5c0-0.276-0.224-0.5-0.5-0.5z"></path>
</svg>
