<svg version="1.1" xmlns="http://www.w3.org/2000/svg" width="16" height="16" viewBox="0 0 16 16">
<title>external-link</title>
<path d="M6 10.75c0.001 0 0.001 0 0.002 0 0.206 0 0.393-0.084 0.528-0.22l5.752-5.751v3.221c0 0.414 0.336 0.75 0.75 0.75s0.75-0.336 0.75-0.75v0-5c0-0.414-0.336-0.75-0.75-0.75v0h-5c-0.414 0-0.75 0.336-0.75 0.75s0.336 0.75 0.75 0.75v0h3.157l-5.719 5.72c-0.136 0.136-0.219 0.323-0.219 0.53 0 0.414 0.335 0.75 0.749 0.75h0z"></path>
<path d="M14.5 11c-0.276 0-0.5 0.224-0.5 0.5v0 1.5c0 0.552-0.448 1-1 1v0h-10c-0.552 0-1-0.448-1-1v0-10c0-0.552 0.448-1 1-1v0h1.5c0.276 0 0.5-0.224 0.5-0.5s-0.224-0.5-0.5-0.5v0h-1.5c-1.105 0-2 0.895-2 2v0 10c0 1.105 0.895 2 2 2v0h10c1.105 0 2-0.895 2-2v0-1.5c0-0.276-0.224-0.5-0.5-0.5v0z"></path>
</svg>
