<svg version="1.1" xmlns="http://www.w3.org/2000/svg" width="16" height="16" viewBox="0 0 16 16">
<title>eye-slash</title>
<path d="M15.894 7.692c-0.578-0.739-1.676-1.99-3.135-3.015l-0.729 0.729c1.282 0.869 2.282 1.938 2.827 2.594-1.036 1.246-3.686 4-6.857 4-0.751 0-1.468-0.166-2.146-0.419l-0.78 0.78c0.899 0.388 1.88 0.639 2.926 0.639 3.814 0 6.791-3.281 7.894-4.692l0.241-0.308-0.241-0.308zM8 10.25c1.294 0 2.344-1.007 2.344-2.25 0-0.268-0.059-0.521-0.15-0.758l-2.894 2.894c0.222 0.068 0.454 0.114 0.7 0.114zM4.101 11.878l0.029 0.014 0.745-0.745-0.029-0.014 1.522-1.522 0.024 0.019 3.237-3.237-0.021-0.023 1.518-1.518 0.027 0.016 0.745-0.745-0.026-0.016 2.617-2.617c0.195-0.195 0.195-0.512 0-0.707s-0.512-0.195-0.707 0l-2.857 2.857c-0.899-0.388-1.879-0.64-2.925-0.64-3.814 0-6.791 3.281-7.894 4.692l-0.241 0.308 0.241 0.308c0.578 0.74 1.675 1.991 3.134 3.016l-2.458 2.458c-0.195 0.195-0.195 0.512 0 0.707 0.098 0.098 0.226 0.146 0.354 0.146s0.256-0.049 0.354-0.146l2.611-2.611zM1.143 8c1.036-1.246 3.686-4 6.857-4 0.752 0 1.474 0.158 2.153 0.412l-1.452 1.452c-0.223-0.068-0.455-0.114-0.701-0.114-1.294 0-2.344 1.007-2.344 2.25 0 0.268 0.057 0.522 0.147 0.761l-1.837 1.837c-1.281-0.87-2.278-1.942-2.823-2.598z"></path>
</svg>
