<svg version="1.1" xmlns="http://www.w3.org/2000/svg" width="16" height="16" viewBox="0 0 16 16">
<title>eye</title>
<path d="M15.894 7.692c-1.102-1.411-4.078-4.692-7.894-4.692s-6.792 3.281-7.894 4.692l-0.24 0.308 0.24 0.308c1.102 1.411 4.078 4.692 7.894 4.692s6.792-3.281 7.894-4.692l0.24-0.308-0.24-0.308zM8 12c-3.172 0-5.822-2.754-6.857-4 1.035-1.246 3.685-4 6.857-4s5.822 2.754 6.857 4c-1.035 1.246-3.685 4-6.857 4z"></path>
<path d="M10.344 8c0 1.243-1.049 2.25-2.344 2.25s-2.344-1.007-2.344-2.25c0-1.243 1.049-2.25 2.344-2.25s2.344 1.007 2.344 2.25z"></path>
</svg>
