<svg version="1.1" xmlns="http://www.w3.org/2000/svg" width="16" height="16" viewBox="0 0 16 16">
<title>eyedropper</title>
<path d="M15.041 1.582c-0.447-0.622-1.136-1.013-1.89-1.074-0.759-0.058-1.493 0.211-2.028 0.746l-1.573 1.573-0.68-0.68c-0.195-0.195-0.512-0.195-0.707 0s-0.195 0.512 0 0.707l0.68 0.68-6.091 6.091c-0.42 0.419-0.678 0.977-0.725 1.571l-0.039 0.495c-0.025 0.322-0.157 0.632-0.372 0.875l-0.975 1.104c-0.175 0.198-0.165 0.498 0.021 0.685l1 1c0.099 0.096 0.227 0.145 0.355 0.145 0.118 0 0.236-0.042 0.331-0.125l1.103-0.975c0.242-0.214 0.553-0.346 0.875-0.371l0.495-0.040c0.594-0.047 1.151-0.304 1.57-0.725l6.092-6.091 0.68 0.68c0.098 0.098 0.226 0.147 0.354 0.147s0.256-0.049 0.354-0.146c0.195-0.195 0.195-0.512 0-0.707l-0.68-0.68 1.494-1.494c0.927-0.928 1.081-2.386 0.356-3.391zM5.685 12.558c-0.252 0.252-0.586 0.406-0.942 0.435l-0.495 0.040c-0.537 0.042-1.055 0.262-1.458 0.618l-0.751 0.664-0.336-0.335 0.664-0.751c0.356-0.403 0.576-0.921 0.618-1.458l0.039-0.495c0.029-0.356 0.184-0.691 0.436-0.943l6.090-6.092 2.226 2.226-6.091 6.091zM13.978 4.266l-1.495 1.494-2.226-2.226 1.573-1.573c0.327-0.328 0.793-0.489 1.24-0.456 0.468 0.038 0.88 0.272 1.159 0.661 0.442 0.612 0.333 1.515-0.251 2.1z"></path>
</svg>
