<svg version="1.1" xmlns="http://www.w3.org/2000/svg" width="16" height="16" viewBox="0 0 16 16">
<title>fax</title>
<path d="M15.5 6h-0.499l-0.012-1.504c-0.001-0.131-0.054-0.257-0.146-0.35l-0.343-0.341v-0.013h-0.012l-3.649-3.646c-0.094-0.093-0.221-0.146-0.354-0.146h-3.985c-0.276 0-0.5 0.224-0.5 0.5v5c0-0.827-0.673-1.5-1.5-1.5h-1.5v-2.5c0-0.276-0.224-0.5-0.5-0.5s-0.5 0.224-0.5 0.5v2.592c-0.581 0.207-1 0.757-1 1.408v9c0 0.827 0.673 1.5 1.5 1.5h2c0.651 0 1.201-0.419 1.408-1h9.592c0.276 0 0.5-0.224 0.5-0.5v-8c0-0.276-0.224-0.5-0.5-0.5zM11 1.721l2.073 2.071h-2.073v-2.071zM10 1v3.292c0 0.276 0.224 0.5 0.5 0.5h3.491l0.010 1.208h-7.001v-5h3zM4.5 15h-2c-0.276 0-0.5-0.224-0.5-0.5v-9c0-0.276 0.224-0.5 0.5-0.5h2c0.276 0 0.5 0.224 0.5 0.5v9c0 0.276-0.224 0.5-0.5 0.5zM15 14h-9v-7h9v7zM9 8.5c0-0.275-0.225-0.5-0.5-0.5s-0.5 0.225-0.5 0.5 0.225 0.5 0.5 0.5 0.5-0.225 0.5-0.5zM11 8.5c0-0.275-0.225-0.5-0.5-0.5s-0.5 0.225-0.5 0.5 0.225 0.5 0.5 0.5 0.5-0.225 0.5-0.5zM13 8.5c0-0.275-0.225-0.5-0.5-0.5s-0.5 0.225-0.5 0.5 0.225 0.5 0.5 0.5 0.5-0.225 0.5-0.5zM9 10.5c0-0.275-0.225-0.5-0.5-0.5s-0.5 0.225-0.5 0.5 0.225 0.5 0.5 0.5 0.5-0.225 0.5-0.5zM11 10.5c0-0.275-0.225-0.5-0.5-0.5s-0.5 0.225-0.5 0.5 0.225 0.5 0.5 0.5 0.5-0.225 0.5-0.5zM13 10.5c0-0.275-0.225-0.5-0.5-0.5s-0.5 0.225-0.5 0.5 0.225 0.5 0.5 0.5 0.5-0.225 0.5-0.5zM9 12.5c0-0.275-0.225-0.5-0.5-0.5s-0.5 0.225-0.5 0.5 0.225 0.5 0.5 0.5 0.5-0.225 0.5-0.5zM11 12.5c0-0.275-0.225-0.5-0.5-0.5s-0.5 0.225-0.5 0.5 0.225 0.5 0.5 0.5 0.5-0.225 0.5-0.5zM13 12.5c0-0.275-0.225-0.5-0.5-0.5s-0.5 0.225-0.5 0.5 0.225 0.5 0.5 0.5 0.5-0.225 0.5-0.5z"></path>
</svg>
