<svg version="1.1" xmlns="http://www.w3.org/2000/svg" width="16" height="16" viewBox="0 0 16 16">
<title>female</title>
<path d="M8 4c1.103 0 2-0.897 2-2s-0.897-2-2-2-2 0.897-2 2 0.897 2 2 2zM8 1c0.551 0 1 0.448 1 1s-0.449 1-1 1-1-0.448-1-1 0.449-1 1-1z"></path>
<path d="M11.974 11.342l-1.658-4.975c-0.273-0.817-1.035-1.367-1.897-1.367h-0.838c-0.862 0-1.624 0.55-1.897 1.367l-1.658 4.975c-0.051 0.152-0.025 0.32 0.068 0.45 0.094 0.131 0.245 0.208 0.406 0.208h1.609l0.906 3.621c0.056 0.223 0.256 0.379 0.485 0.379h1c0.229 0 0.429-0.156 0.485-0.379l0.906-3.621h1.609c0.161 0 0.312-0.077 0.406-0.208s0.119-0.298 0.068-0.45zM9.5 11c-0.229 0-0.429 0.156-0.485 0.379l-0.906 3.621h-0.218l-0.906-3.621c-0.056-0.223-0.256-0.379-0.485-0.379h-1.306l1.438-4.316c0.137-0.41 0.518-0.684 0.949-0.684h0.838c0.431 0 0.812 0.274 0.949 0.684l1.438 4.316h-1.306z"></path>
</svg>
