<svg version="1.1" xmlns="http://www.w3.org/2000/svg" width="16" height="16" viewBox="0 0 16 16">
<title>fighter-jet-alt</title>
<path d="M15.302 7.017l-1.608-0.603c-0.226-0.085-0.462-0.133-0.694-0.192v-0.722c0-0.276-0.224-0.5-0.5-0.5s-0.5 0.224-0.5 0.5v0.553c-0.196-0.018-0.39-0.053-0.588-0.053h-1.705l-2-2h0.88c0.276 0 0.5-0.224 0.5-0.5s-0.224-0.5-0.5-0.5h-1.88l-1-1h0.793c0.276 0 0.5-0.224 0.5-0.5s-0.224-0.5-0.5-0.5h-4c-0.276 0-0.5 0.224-0.5 0.5v4.609l-1.621 0.406c-0.223 0.056-0.379 0.256-0.379 0.485v2c0 0.229 0.156 0.429 0.379 0.485l1.621 0.406v4.609c0 0.276 0.224 0.5 0.5 0.5h4c0.276 0 0.5-0.224 0.5-0.5s-0.224-0.5-0.5-0.5h-0.793l1-1h1.88c0.276 0 0.5-0.224 0.5-0.5s-0.224-0.5-0.5-0.5h-0.88l2-2h1.705c0.198 0 0.392-0.035 0.588-0.053v0.553c0 0.276 0.224 0.5 0.5 0.5s0.5-0.224 0.5-0.5v-0.722c0.232-0.059 0.468-0.107 0.694-0.192l1.609-0.603c0.413-0.155 0.68-0.541 0.68-0.983s-0.267-0.828-0.681-0.983zM5 2.707l3.293 3.293h-3.293v-3.293zM5 13.293v-3.293h3.293l-3.293 3.293zM13.343 8.65c-0.619 0.232-1.269 0.35-1.931 0.35h-6.912c-0.276 0-0.5 0.224-0.5 0.5v4.5h-1v-4.5c0-0.229-0.156-0.429-0.379-0.485l-1.621-0.406v-1.218l1.621-0.406c0.223-0.056 0.379-0.256 0.379-0.485v-4.5h1v4.5c0 0.276 0.224 0.5 0.5 0.5h6.912c0.662 0 1.312 0.118 1.931 0.35l1.608 0.697-1.608 0.603z"></path>
</svg>
