<svg version="1.1" xmlns="http://www.w3.org/2000/svg" width="16" height="16" viewBox="0 0 16 16">
<title>file-picture-o</title>
<path d="M13.707 4l-3.707-3.707c-0.181-0.181-0.431-0.293-0.707-0.293h-6.293c-0.552 0-1 0.448-1 1v0 14c0 0.552 0.448 1 1 1v0h10c0.552 0 1-0.448 1-1v0-10.293c0-0.001 0-0.002 0-0.004 0-0.275-0.112-0.524-0.293-0.703l-0-0zM13 15.5v-0.5h-10v-14h6.293l3.707 3.707v10.293z"></path>
<path d="M11.5 5h-2.5v-2.5c0-0.276-0.224-0.5-0.5-0.5s-0.5 0.224-0.5 0.5v0 2.5c0 0.552 0.448 1 1 1v0h2.5c0.276 0 0.5-0.224 0.5-0.5s-0.224-0.5-0.5-0.5v0z"></path>
<path d="M10.854 9.146c-0.091-0.091-0.216-0.147-0.354-0.147s-0.263 0.056-0.354 0.147l-2.146 2.147-1.146-1.147c-0.091-0.091-0.216-0.147-0.354-0.147s-0.263 0.056-0.354 0.147l-2 2c-0.091 0.091-0.147 0.216-0.147 0.354 0 0.276 0.224 0.501 0.501 0.501 0.138 0 0.263-0.056 0.354-0.147v0l1.646-1.647 1.146 1.147c0.091 0.091 0.216 0.147 0.354 0.147s0.263-0.056 0.354-0.147l2.146-2.147 0.646 0.647c0.091 0.091 0.216 0.147 0.354 0.147 0.276 0 0.501-0.224 0.501-0.501 0-0.138-0.056-0.263-0.147-0.354v0z"></path>
<path d="M6 9c0.552 0 1-0.448 1-1s-0.448-1-1-1c-0.552 0-1 0.448-1 1v0c0 0.552 0.448 1 1 1v0zM6.5 8v0z"></path>
</svg>
