<svg version="1.1" xmlns="http://www.w3.org/2000/svg" width="16" height="16" viewBox="0 0 16 16">
<title>file-clock</title>
<path d="M7.5 15h-4.5v-14h6.293l3.707 3.707v1.793c0 0.276 0.224 0.5 0.5 0.5s0.5-0.224 0.5-0.5v0-1.793c-0.001-0.276-0.113-0.526-0.293-0.707l-3.707-3.707c-0.181-0.18-0.431-0.292-0.707-0.293h-6.293c-0.552 0-1 0.448-1 1v0 14c0 0.552 0.448 1 1 1v0h4.5c0.276 0 0.5-0.224 0.5-0.5s-0.224-0.5-0.5-0.5v0z"></path>
<path d="M11.5 6c0.276 0 0.5-0.224 0.5-0.5s-0.224-0.5-0.5-0.5v0h-2.5v-2.5c0-0.276-0.224-0.5-0.5-0.5s-0.5 0.224-0.5 0.5v0 2.5c0 0.552 0.448 1 1 1v0z"></path>
<path d="M12.5 9c-1.933 0-3.5 1.567-3.5 3.5s1.567 3.5 3.5 3.5c1.933 0 3.5-1.567 3.5-3.5v0c0-1.933-1.567-3.5-3.5-3.5v0zM12.5 15c-1.381 0-2.5-1.119-2.5-2.5s1.119-2.5 2.5-2.5c1.381 0 2.5 1.119 2.5 2.5v0c0 1.381-1.119 2.5-2.5 2.5v0z"></path>
<path d="M13 12.293v-0.793c0-0.276-0.224-0.5-0.5-0.5s-0.5 0.224-0.5 0.5v0 1c0 0 0 0.001 0 0.001 0 0.138 0.056 0.263 0.146 0.353l1 1c0.091 0.091 0.216 0.147 0.354 0.147 0.276 0 0.501-0.224 0.501-0.501 0-0.138-0.056-0.263-0.147-0.354v0z"></path>
</svg>
