<svg id="Layer_1" data-name="Layer 1" xmlns="http://www.w3.org/2000/svg" width="16" height="16" viewBox="0 0 16 16"><path d="M13.708,5.055,8.963.294A1,1,0,0,0,8.254,0H1A1,1,0,0,0,0,1V15a1,1,0,0,0,1,1H5.5a.5.5,0,0,0,0-1H1V1H8V5A1,1,0,0,0,9,6h4v.5a.5.5,0,0,0,1,0V5.762A1,1,0,0,0,13.708,5.055ZM9,5V1.748L12.241,5Z"/><path d="M13.8,11.1a.5.5,0,0,0-.7.1L12,12.667l-1.268-1.69A1.5,1.5,0,0,0,10.5,8h-2a.5.5,0,0,0-.5.5v4a.5.5,0,0,0,1,0V11h.5l1.875,2.5L10.1,15.2a.5.5,0,0,0,.8.6L12,14.333,13.1,15.8a.5.5,0,1,0,.8-.6l-1.275-1.7L13.9,11.8A.5.5,0,0,0,13.8,11.1ZM9,9h1.5a.5.5,0,0,1,0,1H9Z"/></svg>