<svg id="Layer_1" data-name="Layer 1" xmlns="http://www.w3.org/2000/svg" width="16" height="16" viewBox="0 0 16 16"><path d="M6,12h.5a.5.5,0,0,0,0-1H6a2,2,0,0,0-2,2v1a2,2,0,0,0,2,2h.5a.5.5,0,0,0,0-1H6a1,1,0,0,1-1-1V13A1,1,0,0,1,6,12Z"/><path d="M15.649,11.023a.5.5,0,0,0-.626.328L14,14.624l-1.023-3.273a.5.5,0,0,0-.954.3l1.25,4A.5.5,0,0,0,13.75,16h.5a.5.5,0,0,0,.477-.351l1.25-4A.5.5,0,0,0,15.649,11.023Z"/><path d="M1.5,15H1V1H8V5A1,1,0,0,0,9,6h4V8.5a.5.5,0,0,0,1,0V5.761a1,1,0,0,0-.292-.7L8.963.294A1,1,0,0,0,8.254,0H1A1,1,0,0,0,0,1V15a1,1,0,0,0,1,1h.5a.5.5,0,0,0,0-1ZM9,1.748,12.241,5H9Z"/><path d="M9.5,12h1a.5.5,0,0,0,0-1h-1a1.5,1.5,0,0,0,0,3,.5.5,0,0,1,0,1h-1a.5.5,0,0,0,0,1h1a1.5,1.5,0,0,0,0-3,.5.5,0,0,1,0-1Z"/></svg>