<svg version="1.1" xmlns="http://www.w3.org/2000/svg" width="16" height="16" viewBox="0 0 16 16">
<title>file-lock</title>
<path d="M7.5 15h-4.5v-14h6.293l3.707 3.707v1.793c0 0.276 0.224 0.5 0.5 0.5s0.5-0.224 0.5-0.5v0-1.793c-0.001-0.276-0.113-0.526-0.293-0.707l-3.707-3.707c-0.181-0.18-0.431-0.292-0.707-0.293h-6.293c-0.552 0-1 0.448-1 1v0 14c0 0.552 0.448 1 1 1v0h4.5c0.276 0 0.5-0.224 0.5-0.5s-0.224-0.5-0.5-0.5v0z"></path>
<path d="M12 5.5c0-0.276-0.224-0.5-0.5-0.5v0h-2.5v-2.5c0-0.276-0.224-0.5-0.5-0.5s-0.5 0.224-0.5 0.5v0 2.5c0 0.552 0.448 1 1 1v0h2.5c0.276 0 0.5-0.224 0.5-0.5v0z"></path>
<path d="M15 12v-1c0-1.105-0.895-2-2-2s-2 0.895-2 2v0 1c-0.552 0-1 0.448-1 1v0 2c0 0.552 0.448 1 1 1v0h4c0.552 0 1-0.448 1-1v0-2c0-0.552-0.448-1-1-1v0zM12 11c0-0.552 0.448-1 1-1s1 0.448 1 1v0 1h-2zM15 13v2h-4v-2z"></path>
</svg>
