<svg version="1.1" xmlns="http://www.w3.org/2000/svg" width="16" height="16" viewBox="0 0 16 16">
<title>file-new</title>
<path d="M7.5 15h-4.5v-14h6.293l3.707 3.707v1.793c0 0.276 0.224 0.5 0.5 0.5s0.5-0.224 0.5-0.5v0-1.793c-0.001-0.276-0.113-0.526-0.293-0.707l-3.707-3.707c-0.181-0.18-0.431-0.292-0.707-0.293h-6.293c-0.552 0-1 0.448-1 1v0 14c0 0.552 0.448 1 1 1v0h4.5c0.276 0 0.5-0.224 0.5-0.5s-0.224-0.5-0.5-0.5v0z"></path>
<path d="M12 5.5c0-0.276-0.224-0.5-0.5-0.5v0h-2.5v-2.5c0-0.276-0.224-0.5-0.5-0.5s-0.5 0.224-0.5 0.5v0 2.5c0 0.552 0.448 1 1 1v0h2.5c0.276 0 0.5-0.224 0.5-0.5v0z"></path>
<path d="M15.348 13.567l-1.848-1.067 1.848-1.067c0.149-0.088 0.247-0.248 0.247-0.431 0-0.276-0.224-0.5-0.5-0.5-0.091 0-0.176 0.024-0.25 0.067l0.002-0.001-1.848 1.067v-2.134c0-0.276-0.224-0.5-0.5-0.5s-0.5 0.224-0.5 0.5v0 2.134l-1.848-1.067c-0.071-0.041-0.156-0.065-0.247-0.065-0.276 0-0.5 0.224-0.5 0.5 0 0.183 0.098 0.343 0.245 0.43l0.002 0.001 1.848 1.067-1.848 1.067c-0.15 0.088-0.25 0.249-0.25 0.433 0 0.276 0.224 0.5 0.5 0.5v0c0 0 0.001 0 0.002 0 0.092 0 0.177-0.025 0.251-0.068l-0.002 0.001 1.848-1.067v2.134c0 0.276 0.224 0.5 0.5 0.5s0.5-0.224 0.5-0.5v0-2.134l1.848 1.067c0.071 0.042 0.157 0.067 0.248 0.067 0.001 0 0.001 0 0.002 0h-0c0.276-0 0.5-0.224 0.5-0.5 0-0.184-0.099-0.345-0.248-0.432l-0.002-0.001z"></path>
</svg>
