<svg id="Layer_1" data-name="Layer 1" xmlns="http://www.w3.org/2000/svg" width="16" height="16" viewBox="0 0 16 16"><path d="M1.5,15H1V1H8V5A1,1,0,0,0,9,6h4V8.5a.5.5,0,0,0,1,0V5.761a1,1,0,0,0-.292-.7L8.963.294A1,1,0,0,0,8.254,0H1A1,1,0,0,0,0,1V15a1,1,0,0,0,1,1h.5a.5.5,0,0,0,0-1ZM9,1.748,12.241,5H9Z"/><path d="M15.85,13.891a.5.5,0,0,0-.708.008A3.6,3.6,0,0,1,12.635,15l.87-1.78a.5.5,0,0,0-.731-.633l-2.107,1.436.394-.8a.5.5,0,0,0-.67-.669L7.436,14c1.055-1.484,1.621-2.956.916-3.678-1.01-1.032-3.252.616-4.17,1.374a.5.5,0,1,0,.636.771c1.757-1.451,2.714-1.55,2.819-1.446.226.232-.358,1.965-2.47,4.126a.5.5,0,0,0,.357.85.51.51,0,0,0,.221-.051L9.52,14.093,8.939,15.28a.5.5,0,0,0,.731.633l2.107-1.437-.393.8a.5.5,0,0,0,.449.72h.715a4.6,4.6,0,0,0,3.31-1.4A.5.5,0,0,0,15.85,13.891Z"/></svg>