<svg id="Layer_1" data-name="Layer 1" xmlns="http://www.w3.org/2000/svg" width="16" height="16" viewBox="0 0 16 16"><path d="M13,6v.5a.5.5,0,0,0,1,0V5.762a1,1,0,0,0-.292-.707L8.963.294A1,1,0,0,0,8.254,0H1A1,1,0,0,0,0,1V15a1,1,0,0,0,1,1H5.5a.5.5,0,0,0,0-1H1V1H8V5A1,1,0,0,0,9,6ZM9,1.748,12.241,5H9Z"/><path d="M15.5,11H14V9.5a.5.5,0,0,0-.5-.5h-2a.5.5,0,0,0-.5.5V11H9.5a.5.5,0,0,0-.5.5v2a.5.5,0,0,0,.5.5H11v1.5a.5.5,0,0,0,.5.5h2a.5.5,0,0,0,.5-.5V14h1.5a.5.5,0,0,0,.5-.5v-2A.5.5,0,0,0,15.5,11ZM15,13H13.5a.5.5,0,0,0-.5.5V15H12V13.5a.5.5,0,0,0-.5-.5H10V12h1.5a.5.5,0,0,0,.5-.5V10h1v1.5a.5.5,0,0,0,.5.5H15Z"/></svg>