<svg version="1.1" xmlns="http://www.w3.org/2000/svg" width="16" height="16" viewBox="0 0 16 16">
<title>file-edit</title>
<path d="M7.5 15h-4.5v-14h6.293l3.707 3.707v1.793c0 0.276 0.224 0.5 0.5 0.5s0.5-0.224 0.5-0.5v0-1.793c-0.001-0.276-0.113-0.526-0.293-0.707l-3.707-3.707c-0.181-0.18-0.431-0.292-0.707-0.293h-6.293c-0.552 0-1 0.448-1 1v0 14c0 0.552 0.448 1 1 1v0h4.5c0.276 0 0.5-0.224 0.5-0.5s-0.224-0.5-0.5-0.5v0z"></path>
<path d="M12 5.5c0-0.276-0.224-0.5-0.5-0.5v0h-2.5v-2.5c0-0.276-0.224-0.5-0.5-0.5s-0.5 0.224-0.5 0.5v0 2.5c0 0.552 0.448 1 1 1v0h2.5c0.276 0 0.5-0.224 0.5-0.5v0z"></path>
<path d="M15.561 9.44v0c-0.271-0.272-0.647-0.44-1.061-0.44s-0.79 0.168-1.061 0.44l-2.984 2.985c-0.194 0.193-0.355 0.418-0.475 0.668l-0.006 0.014-0.9 1.935c-0.045 0.088-0.071 0.192-0.071 0.302 0 0.182 0.072 0.348 0.19 0.469l-0-0c0.117 0.116 0.277 0.187 0.454 0.187 0.001 0 0.001 0 0.002 0h-0c0.113-0 0.221-0.027 0.316-0.073l-0.004 0.002 1.934-0.9c0.264-0.126 0.489-0.287 0.682-0.481l2.985-2.984c0.272-0.271 0.44-0.647 0.44-1.061s-0.168-0.79-0.44-1.061l-0-0zM14.854 10.854l-2.985 2.985c-0.113 0.114-0.245 0.208-0.392 0.278l-0.008 0.004-1.108 0.517 0.517-1.108c0.074-0.155 0.168-0.287 0.282-0.4l2.984-2.985c0.091-0.091 0.216-0.147 0.354-0.147s0.263 0.056 0.354 0.147l0 0c0.090 0.090 0.146 0.215 0.146 0.353s-0.056 0.263-0.146 0.353l0-0z"></path>
</svg>
