<svg version="1.1" xmlns="http://www.w3.org/2000/svg" width="16" height="16" viewBox="0 0 16 16">
<title>file-pointer</title>
<path d="M7.5 15h-4.5v-14h6.293l3.707 3.707v1.793c0 0.276 0.224 0.5 0.5 0.5s0.5-0.224 0.5-0.5v0-1.793c-0.001-0.276-0.113-0.526-0.293-0.707l-3.707-3.707c-0.181-0.18-0.431-0.292-0.707-0.293h-6.293c-0.552 0-1 0.448-1 1v0 14c0 0.552 0.448 1 1 1v0h4.5c0.276 0 0.5-0.224 0.5-0.5s-0.224-0.5-0.5-0.5v0z"></path>
<path d="M12 5.5c0-0.276-0.224-0.5-0.5-0.5v0h-2.5v-2.5c0-0.276-0.224-0.5-0.5-0.5s-0.5 0.224-0.5 0.5v0 2.5c0 0.552 0.448 1 1 1v0h2.5c0.276 0 0.5-0.224 0.5-0.5v0z"></path>
<path d="M14.854 12.147l-3-3c-0.091-0.091-0.216-0.147-0.354-0.147-0.276 0-0.5 0.224-0.5 0.5v0 4.243c0 0.207 0.126 0.385 0.306 0.461l0.003 0.001c0.056 0.024 0.121 0.038 0.19 0.038 0 0 0.001 0 0.001 0h-0c0.138-0 0.263-0.056 0.354-0.147l0.75-0.75 1.008 2.354c0.079 0.178 0.254 0.3 0.458 0.3 0 0 0.001 0 0.001 0h-0c0.001 0 0.002 0 0.004 0 0.071 0 0.138-0.015 0.199-0.042l-0.003 0.001c0.18-0.078 0.303-0.255 0.303-0.46 0-0.071-0.015-0.138-0.041-0.2l0.001 0.003-0.994-2.32 0.954 0.017c0.205-0.004 0.382-0.124 0.468-0.297l0.001-0.003c0.025-0.058 0.040-0.126 0.040-0.197 0-0.139-0.057-0.266-0.149-0.356l-0-0z"></path>
</svg>
