<svg version="1.1" xmlns="http://www.w3.org/2000/svg" width="16" height="16" viewBox="0 0 16 16">
<title>file-bookmark</title>
<path d="M7.5 15h-4.5v-14h6.293l3.707 3.707v1.793c0 0.276 0.224 0.5 0.5 0.5s0.5-0.224 0.5-0.5v0-1.793c-0.001-0.276-0.113-0.526-0.293-0.707l-3.707-3.707c-0.181-0.18-0.431-0.292-0.707-0.293h-6.293c-0.552 0-1 0.448-1 1v0 14c0 0.552 0.448 1 1 1v0h4.5c0.276 0 0.5-0.224 0.5-0.5s-0.224-0.5-0.5-0.5v0z"></path>
<path d="M12 5.5c0-0.276-0.224-0.5-0.5-0.5v0h-2.5v-2.5c0-0.276-0.224-0.5-0.5-0.5s-0.5 0.224-0.5 0.5v0 2.5c0 0.552 0.448 1 1 1v0h2.5c0.276 0 0.5-0.224 0.5-0.5v0z"></path>
<path d="M14 9h-3c-0.552 0-1 0.448-1 1v0 5.5c0 0 0 0.001 0 0.001 0 0.276 0.224 0.5 0.5 0.5 0.138 0 0.263-0.056 0.354-0.147l1.646-1.647 1.646 1.646c0.091 0.091 0.216 0.147 0.354 0.147v0c0 0 0.001 0 0.001 0 0.069 0 0.134-0.014 0.193-0.039l-0.003 0.001c0.183-0.077 0.309-0.255 0.309-0.462v0-5.5c0-0.552-0.448-1-1-1v0zM14 14.293l-1.146-1.147c-0.091-0.091-0.216-0.147-0.354-0.147s-0.263 0.056-0.354 0.147l-1.146 1.147v-4.293h3z"></path>
</svg>
