<svg version="1.1" xmlns="http://www.w3.org/2000/svg" width="16" height="16" viewBox="0 0 16 16">
<title>file-video-o</title>
<path d="M13.707 4l-3.707-3.707c-0.181-0.181-0.431-0.293-0.707-0.293h-6.293c-0.552 0-1 0.448-1 1v0 14c0 0.552 0.448 1 1 1v0h10c0.552 0 1-0.448 1-1v0-10.293c0-0.001 0-0.002 0-0.004 0-0.275-0.112-0.524-0.293-0.703l-0-0zM13 15.5v-0.5h-10v-14h6.293l3.707 3.707v10.293z"></path>
<path d="M11.5 5h-2.5v-2.5c0-0.276-0.224-0.5-0.5-0.5s-0.5 0.224-0.5 0.5v0 2.5c0 0.552 0.448 1 1 1v0h2.5c0.276 0 0.5-0.224 0.5-0.5s-0.224-0.5-0.5-0.5v0z"></path>
<path d="M9.724 9.553l-3-1.5c-0.065-0.033-0.142-0.053-0.224-0.053-0.276 0-0.5 0.224-0.5 0.5v0 3c0 0.276 0.224 0.5 0.5 0.5 0.082 0 0.159-0.020 0.227-0.054l-0.003 0.001 3-1.5c0.165-0.084 0.276-0.253 0.276-0.447s-0.111-0.363-0.273-0.446l-0.003-0.001zM7 10.691v-1.382l1.382 0.691z"></path>
</svg>
