<svg version="1.1" xmlns="http://www.w3.org/2000/svg" width="16" height="16" viewBox="0 0 16 16">
<title>file-zip-o</title>
<path d="M13.707 4l-3.707-3.707c-0.181-0.18-0.431-0.292-0.707-0.293h-6.293c-0.552 0-1 0.448-1 1v0 14c0 0.552 0.448 1 1 1v0h10c0.552 0 1-0.448 1-1v0-10.293c-0.001-0.276-0.113-0.526-0.293-0.707l0 0zM5 10.213l0.5-0.5 0.5 0.5v1.79h-1zM13 15.5v-0.5h-10v-14h2.008c0 0.013-0.008 0.025-0.008 0.038v1.962h-0.5c-0.276 0-0.5 0.224-0.5 0.5s0.224 0.5 0.5 0.5v0h0.5v1h-0.5c-0.276 0-0.5 0.224-0.5 0.5s0.224 0.5 0.5 0.5v0h0.5v1h-0.5c-0.276 0-0.5 0.224-0.5 0.5s0.224 0.5 0.5 0.5v0h0.5v0.8l-0.853 0.853c-0.090 0.091-0.146 0.215-0.147 0.353v2.5c0 0.276 0.224 0.5 0.5 0.5v0h2c0.276 0 0.5-0.224 0.5-0.5v0-2.5c-0-0.138-0.056-0.263-0.146-0.353l0 0-0.854-0.853v-1.8h0.5c0.276 0 0.5-0.224 0.5-0.5s-0.224-0.5-0.5-0.5v0h-0.5v-1h0.5c0.276 0 0.5-0.224 0.5-0.5s-0.224-0.5-0.5-0.5v0h-0.5v-1h0.5c0.276 0 0.5-0.224 0.5-0.5s-0.224-0.5-0.5-0.5v0h-0.5v-0.962c0-0.013-0.007-0.025-0.008-0.038h3.3l3.708 3.707v10.293z"></path>
<path d="M11.5 5h-2.5v-2.5c0-0.276-0.224-0.5-0.5-0.5s-0.5 0.224-0.5 0.5v0 2.5c0 0.552 0.448 1 1 1v0h2.5c0.276 0 0.5-0.224 0.5-0.5s-0.224-0.5-0.5-0.5v0z"></path>
</svg>
