<svg version="1.1" xmlns="http://www.w3.org/2000/svg" width="16" height="16" viewBox="0 0 16 16">
<title>file-user</title>
<path d="M6.5 15h-3.5v-14h6.293l3.707 3.707v1.793c0 0.276 0.224 0.5 0.5 0.5s0.5-0.224 0.5-0.5v0-1.793c-0.001-0.276-0.113-0.526-0.293-0.707l-3.707-3.707c-0.181-0.18-0.431-0.292-0.707-0.293h-6.293c-0.552 0-1 0.448-1 1v0 14c0 0.552 0.448 1 1 1v0h3.5c0.276 0 0.5-0.224 0.5-0.5s-0.224-0.5-0.5-0.5v0z"></path>
<path d="M11.5 6c0.276 0 0.5-0.224 0.5-0.5s-0.224-0.5-0.5-0.5v0h-2.5v-2.5c0-0.276-0.224-0.5-0.5-0.5s-0.5 0.224-0.5 0.5v0 2.5c0 0.552 0.448 1 1 1v0z"></path>
<path d="M15.16 13.82l-0.834-0.625c0.417-0.446 0.674-1.046 0.674-1.707 0-1.381-1.119-2.5-2.5-2.5s-2.5 1.119-2.5 2.5c0 0.661 0.256 1.261 0.675 1.708l-0.001-0.001-0.833 0.625c-0.511 0.388-0.838 0.996-0.84 1.68v0c0 0.276 0.224 0.5 0.5 0.5s0.5-0.224 0.5-0.5v0c0.001-0.358 0.173-0.676 0.437-0.878l0.003-0.002 1.089-0.816c0.287 0.124 0.62 0.196 0.971 0.196s0.684-0.072 0.987-0.203l-0.016 0.006 1.089 0.817c0.268 0.203 0.44 0.521 0.44 0.879v0c0 0.276 0.224 0.5 0.5 0.5s0.5-0.224 0.5-0.5v0c-0.002-0.684-0.329-1.292-0.835-1.676l-0.005-0.004zM14 11.5c0 0.828-0.672 1.5-1.5 1.5s-1.5-0.672-1.5-1.5c0-0.828 0.672-1.5 1.5-1.5v0c0.828 0 1.5 0.672 1.5 1.5v0z"></path>
</svg>
