<svg id="Layer_1" data-name="Layer 1" xmlns="http://www.w3.org/2000/svg" width="16" height="16" viewBox="0 0 16 16"><path d="M5.5,15H1V1H8V5A1,1,0,0,0,9,6h4v.5a.5.5,0,0,0,1,0V5.762a1,1,0,0,0-.292-.707L8.963.294A1,1,0,0,0,8.254,0H1A1,1,0,0,0,0,1V15a1,1,0,0,0,1,1H5.5a.5.5,0,0,0,0-1ZM9,1.748,12.241,5H9Z"/><path d="M15.854,12.146,15,11.293V10.25A1.252,1.252,0,0,0,13.75,9H13.5a.5.5,0,0,0,0,1h.25a.25.25,0,0,1,.25.25v1.043a1.008,1.008,0,0,0,.293.707l.5.5-.5.5a1.008,1.008,0,0,0-.293.707V14.75a.25.25,0,0,1-.25.25H13.5a.5.5,0,0,0,0,1h.25A1.252,1.252,0,0,0,15,14.75V13.707l.854-.853A.5.5,0,0,0,15.854,12.146Z"/><path d="M10,11.293V10.25a.25.25,0,0,1,.25-.25h.25a.5.5,0,0,0,0-1h-.25A1.252,1.252,0,0,0,9,10.25v1.043l-.854.853a.5.5,0,0,0,0,.708L9,13.707V14.75A1.252,1.252,0,0,0,10.25,16h.25a.5.5,0,0,0,0-1h-.25a.25.25,0,0,1-.25-.25V13.707A1.008,1.008,0,0,0,9.707,13l-.5-.5.5-.5A1.008,1.008,0,0,0,10,11.293Z"/></svg>