<svg id="Layer_1" data-name="Layer 1" xmlns="http://www.w3.org/2000/svg" width="16" height="16" viewBox="0 0 16 16"><path d="M15.5,11a.5.5,0,0,0-.5.5V14l-2.1-2.8a.5.5,0,0,0-.9.3v4a.5.5,0,0,0,1,0V13l2.1,2.8a.5.5,0,0,0,.4.2.48.48,0,0,0,.158-.026A.5.5,0,0,0,16,15.5v-4A.5.5,0,0,0,15.5,11Z"/><path d="M.5,9A.5.5,0,0,0,1,8.5V1H8V5A1,1,0,0,0,9,6h4V8.5a.5.5,0,0,0,1,0V5.761a.992.992,0,0,0-.292-.706L8.963.294A.991.991,0,0,0,8.254,0H1A1,1,0,0,0,0,1V8.5A.5.5,0,0,0,.5,9ZM9,1.748,12.241,5H9Z"/><path d="M5.5,12h1a.5.5,0,0,0,0-1h-1a1.5,1.5,0,0,0,0,3,.5.5,0,0,1,0,1h-1a.5.5,0,0,0,0,1h1a1.5,1.5,0,0,0,0-3,.5.5,0,0,1,0-1Z"/><path d="M9.5,11A1.5,1.5,0,0,0,8,12.5v2a1.5,1.5,0,0,0,3,0v-2A1.5,1.5,0,0,0,9.5,11Zm.5,3.5a.5.5,0,0,1-1,0v-2a.5.5,0,0,1,1,0Z"/><path d="M2.5,11a.5.5,0,0,0-.5.5v3a.5.5,0,0,1-1,0,.5.5,0,0,0-1,0,1.5,1.5,0,0,0,3,0v-3A.5.5,0,0,0,2.5,11Z"/></svg>