<svg version="1.1" xmlns="http://www.w3.org/2000/svg" width="16" height="16" viewBox="0 0 16 16">
<title>file-excel-o</title>
<path d="M8 0.293c-0.181-0.181-0.431-0.293-0.707-0.293h-6.293c-0.552 0-1 0.448-1 1v0 14c0 0.552 0.448 1 1 1v0h4.5c0.276 0 0.5-0.224 0.5-0.5s-0.224-0.5-0.5-0.5v0h-4.5v-14h6.293l3.707 3.707v2.793c0 0.276 0.224 0.5 0.5 0.5s0.5-0.224 0.5-0.5v0-2.793c0-0.001 0-0.002 0-0.004 0-0.275-0.112-0.524-0.293-0.703l-0-0z"></path>
<path d="M6.5 2c-0.276 0-0.5 0.224-0.5 0.5v0 2.5c0 0.552 0.448 1 1 1v0h2.5c0.276 0 0.5-0.224 0.5-0.5s-0.224-0.5-0.5-0.5v0h-2.5v-2.5c0-0.276-0.224-0.5-0.5-0.5v0z"></path>
<path d="M7.8 9.1c-0.083-0.062-0.187-0.1-0.3-0.1-0.163 0-0.308 0.078-0.399 0.199l-0.001 0.001-1.1 1.467-1.1-1.467c-0.092-0.122-0.237-0.2-0.4-0.2-0.276 0-0.5 0.224-0.5 0.5 0 0.113 0.038 0.217 0.101 0.301l-0.001-0.001 1.275 1.7-1.275 1.7c-0.062 0.083-0.1 0.187-0.1 0.3 0 0.163 0.078 0.308 0.199 0.399l0.001 0.001c0.083 0.062 0.187 0.1 0.3 0.1 0.163 0 0.308-0.078 0.399-0.199l0.001-0.001 1.1-1.467 1.1 1.467c0.092 0.122 0.237 0.2 0.4 0.2 0.276 0 0.5-0.224 0.5-0.5 0-0.113-0.038-0.217-0.101-0.301l0.001 0.001-1.275-1.7 1.275-1.7c0.062-0.083 0.1-0.187 0.1-0.3 0-0.163-0.078-0.308-0.199-0.399l-0.001-0.001z"></path>
<path d="M11.5 13h-1.5v-3.5c0-0.276-0.224-0.5-0.5-0.5s-0.5 0.224-0.5 0.5v0 4c0 0.276 0.224 0.5 0.5 0.5v0h2c0.276 0 0.5-0.224 0.5-0.5s-0.224-0.5-0.5-0.5v0z"></path>
<path d="M15 11h-1v-1h1.5c0.276 0 0.5-0.224 0.5-0.5s-0.224-0.5-0.5-0.5v0h-1.5c-0.552 0-1 0.448-1 1v0 1c0 0.552 0.448 1 1 1v0h1v1h-1.5c-0.276 0-0.5 0.224-0.5 0.5s0.224 0.5 0.5 0.5v0h1.5c0.552 0 1-0.448 1-1v0-1c0-0.552-0.448-1-1-1v0z"></path>
</svg>
