<svg version="1.1" xmlns="http://www.w3.org/2000/svg" width="16" height="16" viewBox="0 0 16 16">
<title>file-sound-o</title>
<path d="M13.707 4l-3.707-3.707c-0.181-0.181-0.431-0.293-0.707-0.293h-6.293c-0.552 0-1 0.448-1 1v0 14c0 0.552 0.448 1 1 1v0h10c0.552 0 1-0.448 1-1v0-10.293c0-0.001 0-0.002 0-0.004 0-0.275-0.112-0.524-0.293-0.703l-0-0zM13 15.5v-0.5h-10v-14h6.293l3.707 3.707v10.293z"></path>
<path d="M11.5 5h-2.5v-2.5c0-0.276-0.224-0.5-0.5-0.5s-0.5 0.224-0.5 0.5v0 2.5c0 0.552 0.448 1 1 1v0h2.5c0.276 0 0.5-0.224 0.5-0.5s-0.224-0.5-0.5-0.5v0z"></path>
<path d="M9.605 8.012c-0.687-0.147-1.286-0.457-1.776-0.889l0.004 0.004c-0.088-0.079-0.205-0.127-0.333-0.127-0.276 0-0.5 0.224-0.5 0.5 0 0 0 0 0 0v0 2.592c-0.148-0.057-0.32-0.090-0.499-0.092h-0.001c-0.828 0-1.5 0.672-1.5 1.5s0.672 1.5 1.5 1.5c0.828 0 1.5-0.672 1.5-1.5v0c0-0.023-0.006-0.044-0.007-0.066l0.007-2.969c0.404 0.229 0.872 0.41 1.367 0.517l0.033 0.006c0.040 0.011 0.086 0.018 0.133 0.018 0.276 0 0.5-0.224 0.5-0.5 0-0.249-0.182-0.456-0.42-0.494l-0.003-0zM6.5 12c-0.002 0-0.004 0-0.006 0-0.276 0-0.5-0.224-0.5-0.5s0.224-0.5 0.5-0.5c0.265 0 0.481 0.205 0.499 0.465l0 0.002v0.033c-0 0.003-0 0.006-0 0.008s0 0.006 0 0.009l-0-0c-0.009 0.266-0.226 0.479-0.493 0.483h-0z"></path>
</svg>
