<svg version="1.1" xmlns="http://www.w3.org/2000/svg" width="16" height="16" viewBox="0 0 16 16">
<title>file-code-o</title>
<path d="M7.5 15h-4.5v-14h6.293l3.707 3.707v2.793c0 0.276 0.224 0.5 0.5 0.5s0.5-0.224 0.5-0.5v0-2.793c0-0.001 0-0.002 0-0.004 0-0.275-0.112-0.524-0.293-0.703l-3.707-3.707c-0.181-0.181-0.431-0.293-0.707-0.293h-6.293c-0.552 0-1 0.448-1 1v0 14c0 0.552 0.448 1 1 1v0h4.5c0.276 0 0.5-0.224 0.5-0.5s-0.224-0.5-0.5-0.5v0z"></path>
<path d="M11.5 5h-2.5v-2.5c0-0.276-0.224-0.5-0.5-0.5s-0.5 0.224-0.5 0.5v0 2.5c0 0.552 0.448 1 1 1v0h2.5c0.276 0 0.5-0.224 0.5-0.5s-0.224-0.5-0.5-0.5v0z"></path>
<path d="M11.724 9.049c-0.065-0.033-0.142-0.053-0.224-0.053-0.194 0-0.363 0.111-0.446 0.273l-0.001 0.003-2 4c-0.034 0.066-0.055 0.144-0.055 0.227 0 0.276 0.224 0.5 0.5 0.5 0.196 0 0.365-0.113 0.447-0.277l0.001-0.003 2-4c0.033-0.065 0.053-0.142 0.053-0.224 0-0.194-0.111-0.363-0.273-0.446l-0.003-0.001z"></path>
<path d="M7.854 9.146c-0.091-0.091-0.216-0.147-0.354-0.147s-0.263 0.056-0.354 0.147l-2 2c-0.091 0.091-0.147 0.216-0.147 0.354s0.056 0.263 0.147 0.354l2 2c0.091 0.091 0.216 0.147 0.354 0.147 0.276 0 0.501-0.224 0.501-0.501 0-0.138-0.056-0.263-0.147-0.354v0l-1.647-1.646 1.647-1.646c0.091-0.091 0.147-0.216 0.147-0.354s-0.056-0.263-0.147-0.354l-0-0z"></path>
<path d="M15.854 11.146l-2-2c-0.091-0.091-0.216-0.147-0.354-0.147-0.276 0-0.501 0.224-0.501 0.501 0 0.138 0.056 0.263 0.147 0.354v0l1.647 1.646-1.647 1.646c-0.091 0.091-0.147 0.216-0.147 0.354 0 0.276 0.224 0.501 0.501 0.501 0.138 0 0.263-0.056 0.354-0.147v0l2-2c0.091-0.091 0.147-0.216 0.147-0.354s-0.056-0.263-0.147-0.354l-0-0z"></path>
</svg>
