<svg version="1.1" xmlns="http://www.w3.org/2000/svg" width="16" height="16" viewBox="0 0 16 16">
<title>film</title>
<path d="M10.8 8.1l-4-3c-0.152-0.113-0.356-0.132-0.524-0.047s-0.276 0.258-0.276 0.447v6c0 0.189 0.107 0.362 0.276 0.447 0.071 0.035 0.148 0.053 0.224 0.053 0.106 0 0.212-0.034 0.3-0.1l4-3c0.126-0.094 0.2-0.243 0.2-0.4s-0.074-0.306-0.2-0.4zM7 10.5v-4l2.667 2-2.667 2zM14 2h-11.97c-1.103 0-2 0.897-2 2v8.994c0 1.103 0.897 2 2 2h11.97c1.103 0 2-0.897 2-2v-8.994c0-1.103-0.897-2-2-2zM15 4v1h-2v-2h1c0.552 0 1 0.449 1 1zM3 8h-1.97v-2h1.97v2zM3 9v2h-1.97v-2h1.97zM4 3h8v10.994h-8v-10.994zM13 9h2v2h-2v-2zM13 8v-2h2v2h-2zM2.030 3h0.97v2h-1.97v-1c0-0.551 0.449-1 1-1zM1.030 12.994v-0.994h1.97v1.994h-0.97c-0.551 0-1-0.449-1-1zM14 13.994h-1v-1.994h2v0.994c0 0.551-0.448 1-1 1z"></path>
</svg>
