<svg version="1.1" xmlns="http://www.w3.org/2000/svg" width="16" height="16" viewBox="0 0 16 16">
<title>filter</title>
<path d="M14.948 1.279c-0.084-0.171-0.258-0.279-0.448-0.279h-13c-0.19 0-0.364 0.108-0.448 0.279s-0.065 0.375 0.052 0.526l4.896 6.365v4.33c0 0.167 0.084 0.323 0.223 0.416l3 2c0.084 0.056 0.18 0.084 0.277 0.084 0.081 0 0.162-0.020 0.236-0.059 0.162-0.087 0.264-0.256 0.264-0.441v-6.33l4.896-6.365c0.117-0.151 0.137-0.355 0.052-0.526zM9.104 7.695c-0.068 0.088-0.104 0.195-0.104 0.305v5.566l-2-1.333v-4.233c0-0.11-0.036-0.217-0.104-0.305l-4.38-5.695h10.969l-4.381 5.695z"></path>
</svg>
