<svg version="1.1" xmlns="http://www.w3.org/2000/svg" width="16" height="16" viewBox="0 0 16 16">
<title>fire</title>
<path d="M12.305 5.020c-0.090-0.089-0.214-0.144-0.351-0.144-0.259 0-0.471 0.196-0.497 0.448l-0 0.002c-0.159 0.992-0.546 1.872-1.105 2.615l0.011-0.015c0.088-0.502 0.138-1.079 0.138-1.669 0-0.008-0-0.016-0-0.023v0.001c0-3.957-4.8-6.1-5-6.193-0.059-0.027-0.128-0.042-0.201-0.042-0.276 0-0.5 0.224-0.5 0.5 0 0.059 0.010 0.116 0.029 0.169l-0.001-0.003c0.209 0.59 0.347 1.273 0.384 1.982l0.001 0.018c-0.166 1.11-0.639 2.088-1.329 2.87l0.005-0.006c-1.070 1.274-1.762 2.897-1.887 4.677l-0.001 0.026c-0.002 0.049-0.002 0.107-0.002 0.165 0 2.393 1.489 4.438 3.59 5.259l0.038 0.013c0.556 0.209 1.2 0.33 1.871 0.33 0.001 0 0.002 0 0.003 0h-0c2.73-0.082 5.038-1.801 5.984-4.204l0.016-0.045c0.326-0.727 0.516-1.576 0.516-2.468 0-1.655-0.652-3.157-1.713-4.265l0.002 0.002zM12.576 11.376c-0.771 2.102-2.754 3.574-5.082 3.574-0.544 0-1.070-0.081-1.565-0.23l0.038 0.010c-1.753-0.695-2.97-2.376-2.97-4.341 0-0.055 0.001-0.111 0.003-0.165l-0 0.008c0.135-1.591 0.76-3.014 1.721-4.142l-0.008 0.010c0.808-0.929 1.35-2.107 1.497-3.406l0.003-0.029c-0.007-0.419-0.055-0.823-0.139-1.213l0.007 0.040c1.3 0.79 3.421 2.437 3.421 4.748 0.005 0.093 0.007 0.202 0.007 0.312 0 1.016-0.23 1.978-0.639 2.838l0.017-0.040c-0.045 0.073-0.071 0.162-0.071 0.257 0 0.276 0.224 0.5 0.5 0.5 0.103 0 0.199-0.031 0.279-0.085l-0.002 0.001c1.234-0.845 2.156-2.066 2.607-3.496l0.013-0.047c0.498 0.795 0.794 1.762 0.794 2.798 0 0.758-0.158 1.48-0.444 2.133l0.013-0.034z"></path>
</svg>
