<svg version="1.1" xmlns="http://www.w3.org/2000/svg" width="16" height="16" viewBox="0 0 16 16">
<title>fire-extinguisher</title>
<path d="M8.874 1.485l1.468 0.49c0.047 0.015 0.101 0.025 0.158 0.025h0c0.276 0 0.5-0.224 0.5-0.5v0-1c-0.002-0.164-0.083-0.309-0.207-0.399l-0.001-0.001c-0.082-0.059-0.184-0.095-0.294-0.095-0.056 0-0.109 0.009-0.159 0.026l0.004-0.001-1.468 0.485c-0.174-0.309-0.5-0.515-0.874-0.515h-1.146c-0.001 0-0.002 0-0.002 0-0.327 0-0.636 0.078-0.909 0.216l0.011-0.005-1.683 0.842c-0.167 0.083-0.279 0.253-0.279 0.449 0 0.276 0.224 0.5 0.5 0.5 0.083 0 0.161-0.020 0.23-0.056l-0.003 0.001 1.681-0.841c0.132-0.067 0.288-0.106 0.453-0.106 0 0 0.001 0 0.001 0h0.146c0 0 0 0 0 0 0 0.374 0.206 0.7 0.51 0.872l0.005 0.003-0.422 1.265c-1.223 0.399-2.091 1.528-2.093 2.86v9.5c0 0.276 0.224 0.5 0.5 0.5v0h5c0.276 0 0.5-0.224 0.5-0.5v0-9.5c-0.002-1.332-0.87-2.461-2.072-2.854l-0.021-0.006-0.422-1.265c0.164-0.093 0.296-0.225 0.386-0.385l0.003-0.005zM6 8h4v3h-4zM6 15v-3h4v3zM10 6v1h-4v-1c0-1.105 0.895-2 2-2s2 0.895 2 2v0z"></path>
</svg>
