<svg version="1.1" xmlns="http://www.w3.org/2000/svg" width="16" height="16" viewBox="0 0 16 16">
<title>fit-to-height</title>
<path d="M4.648 4.145c-0.196 0.193-0.198 0.51-0.003 0.707 0.097 0.099 0.226 0.148 0.355 0.148 0.127 0 0.254-0.048 0.352-0.145l2.679-2.648 2.614 2.645c0.193 0.197 0.51 0.199 0.707 0.004 0.196-0.194 0.198-0.511 0.004-0.707l-2.965-3c-0.094-0.095-0.221-0.148-0.353-0.149-0.106-0.001-0.26 0.051-0.354 0.145l-3.036 3z"></path>
<path d="M11.352 11.855c0.196-0.194 0.198-0.511 0.004-0.707s-0.51-0.199-0.707-0.004l-2.679 2.648-2.614-2.645c-0.194-0.197-0.51-0.199-0.707-0.004-0.196 0.194-0.198 0.511-0.004 0.707l2.965 3c0.094 0.096 0.226 0.167 0.355 0.15 0.131 0 0.258-0.052 0.352-0.145l3.035-3z"></path>
<path d="M13.5 0h-11c-0.276 0-0.5 0.224-0.5 0.5s0.224 0.5 0.5 0.5h11c0.276 0 0.5-0.224 0.5-0.5s-0.224-0.5-0.5-0.5z"></path>
<path d="M12.5 15h-9c-0.276 0-0.5 0.224-0.5 0.5s0.224 0.5 0.5 0.5h9c0.276 0 0.5-0.224 0.5-0.5s-0.224-0.5-0.5-0.5z"></path>
</svg>
