<svg version="1.1" xmlns="http://www.w3.org/2000/svg" width="16" height="16" viewBox="0 0 16 16">
<title>fit-to-width</title>
<path d="M11.855 4.648c-0.193-0.197-0.51-0.199-0.707-0.004-0.196 0.194-0.198 0.511-0.004 0.707l2.648 2.679-2.645 2.614c-0.196 0.194-0.198 0.511-0.004 0.707 0.098 0.099 0.227 0.148 0.355 0.148s0.254-0.048 0.352-0.145l3-2.965c0.096-0.092 0.149-0.219 0.15-0.351s-0.051-0.26-0.145-0.354l-3-3.036z"></path>
<path d="M4.855 4.648c-0.194-0.196-0.51-0.198-0.707-0.003l-3 2.965c-0.094 0.093-0.147 0.22-0.148 0.352s0.051 0.26 0.145 0.354l3 3.035c0.097 0.1 0.226 0.149 0.355 0.149 0.127 0 0.254-0.048 0.352-0.145 0.196-0.194 0.198-0.511 0.004-0.707l-2.649-2.679 2.645-2.614c0.196-0.193 0.198-0.51 0.003-0.707z"></path>
<path d="M15.5 2c-0.276 0-0.5 0.224-0.5 0.5v11c0 0.276 0.224 0.5 0.5 0.5s0.5-0.224 0.5-0.5v-11c0-0.276-0.224-0.5-0.5-0.5z"></path>
<path d="M0.5 3c-0.276 0-0.5 0.224-0.5 0.5v9c0 0.276 0.224 0.5 0.5 0.5s0.5-0.224 0.5-0.5v-9c0-0.276-0.224-0.5-0.5-0.5z"></path>
</svg>
