<svg version="1.1" xmlns="http://www.w3.org/2000/svg" width="16" height="16" viewBox="0 0 16 16">
<title>fit-to-size</title>
<path d="M5.648 3.145c-0.196 0.193-0.198 0.51-0.003 0.707 0.194 0.197 0.51 0.198 0.707 0.004l1.667-1.648 1.625 1.645c0.098 0.098 0.227 0.147 0.356 0.147 0.127 0 0.254-0.048 0.352-0.145 0.196-0.194 0.198-0.511 0.004-0.707l-1.977-2c-0.094-0.094-0.221-0.147-0.353-0.148-0.128-0.001-0.26 0.051-0.354 0.145l-2.024 2z"></path>
<path d="M10.352 12.855c0.196-0.194 0.198-0.511 0.004-0.707s-0.51-0.198-0.707-0.004l-1.667 1.648-1.625-1.645c-0.194-0.197-0.51-0.199-0.707-0.004-0.196 0.194-0.198 0.511-0.004 0.707l1.977 2c0.092 0.097 0.212 0.143 0.354 0.15 0.131 0 0.258-0.052 0.352-0.145l2.023-2z"></path>
<path d="M12.855 5.648c-0.194-0.197-0.51-0.198-0.707-0.004-0.196 0.194-0.198 0.511-0.004 0.707l1.648 1.667-1.645 1.625c-0.196 0.194-0.198 0.511-0.004 0.707 0.098 0.099 0.227 0.148 0.355 0.148s0.254-0.048 0.352-0.145l2-1.977c0.094-0.093 0.147-0.22 0.148-0.353s-0.051-0.26-0.145-0.354l-1.998-2.021z"></path>
<path d="M3.855 9.648l-1.648-1.667 1.645-1.625c0.196-0.194 0.198-0.511 0.003-0.708-0.193-0.196-0.51-0.198-0.707-0.003l-2 1.977c-0.094 0.093-0.147 0.22-0.148 0.352s0.051 0.26 0.145 0.354l2 2.023c0.097 0.1 0.226 0.149 0.355 0.149 0.127 0 0.254-0.048 0.352-0.145 0.196-0.193 0.198-0.51 0.003-0.707z"></path>
<path d="M4.5 1h7c0.276 0 0.5-0.224 0.5-0.5s-0.224-0.5-0.5-0.5h-7c-0.276 0-0.5 0.224-0.5 0.5s0.224 0.5 0.5 0.5z"></path>
<path d="M11.5 15h-7c-0.276 0-0.5 0.224-0.5 0.5s0.224 0.5 0.5 0.5h7c0.276 0 0.5-0.224 0.5-0.5s-0.224-0.5-0.5-0.5z"></path>
<path d="M15.5 4c-0.276 0-0.5 0.224-0.5 0.5v7c0 0.276 0.224 0.5 0.5 0.5s0.5-0.224 0.5-0.5v-7c0-0.276-0.224-0.5-0.5-0.5z"></path>
<path d="M0.5 4c-0.276 0-0.5 0.224-0.5 0.5v7c0 0.276 0.224 0.5 0.5 0.5s0.5-0.224 0.5-0.5v-7c0-0.276-0.224-0.5-0.5-0.5z"></path>
</svg>
