<svg version="1.1" xmlns="http://www.w3.org/2000/svg" width="16" height="16" viewBox="0 0 16 16">
<title>flash</title>
<path d="M13.959 6.302c-0.079-0.183-0.259-0.302-0.459-0.302h-3.917l1.889-5.333c0.079-0.223-0.009-0.471-0.21-0.594-0.201-0.121-0.461-0.089-0.624 0.083l-8.5 9c-0.138 0.146-0.176 0.359-0.097 0.542s0.259 0.302 0.459 0.302h3.917l-1.889 5.333c-0.079 0.223 0.009 0.471 0.21 0.594 0.082 0.049 0.172 0.073 0.262 0.073 0.134 0 0.266-0.054 0.363-0.156l8.5-9c0.137-0.146 0.175-0.359 0.096-0.542zM6.261 13.437l1.335-3.77c0.054-0.153 0.031-0.323-0.063-0.455s-0.245-0.212-0.408-0.212h-3.465l6.079-6.437-1.335 3.77c-0.054 0.153-0.031 0.323 0.063 0.455 0.094 0.133 0.245 0.212 0.408 0.212h3.465l-6.079 6.437z"></path>
</svg>
