<svg version="1.1" xmlns="http://www.w3.org/2000/svg" width="16" height="16" viewBox="0 0 16 16">
<title>flask</title>
<path d="M13.518 10.523l-3.167-5.543c-0.221-0.379-0.351-0.834-0.351-1.319v0-2.661h0.5c0.276 0 0.5-0.224 0.5-0.5s-0.224-0.5-0.5-0.5v0h-5c-0.276 0-0.5 0.224-0.5 0.5s0.224 0.5 0.5 0.5v0h0.5v2.661c-0 0.485-0.13 0.94-0.358 1.332l0.007-0.013-3.167 5.543c-0.303 0.522-0.482 1.148-0.482 1.816 0 2.022 1.639 3.661 3.66 3.661h4.68c2.022-0 3.66-1.639 3.66-3.661 0-0.668-0.179-1.294-0.492-1.834l0.009 0.018zM10.34 15h-4.68c-0 0-0.001 0-0.001 0-1.469 0-2.659-1.19-2.659-2.659 0-0.486 0.13-0.942 0.358-1.334l-0.007 0.013 3.167-5.543c0.303-0.522 0.482-1.148 0.482-1.816v-2.661h2v2.661c0 0.668 0.179 1.294 0.491 1.834l-0.009-0.018 3.167 5.543c0.221 0.379 0.351 0.835 0.351 1.321 0 1.469-1.19 2.659-2.659 2.659-0 0-0.001 0-0.001 0h0z"></path>
<path d="M8 7.5c0 0.276-0.224 0.5-0.5 0.5s-0.5-0.224-0.5-0.5c0-0.276 0.224-0.5 0.5-0.5s0.5 0.224 0.5 0.5z"></path>
<path d="M10 9.5c0 0.276-0.224 0.5-0.5 0.5s-0.5-0.224-0.5-0.5c0-0.276 0.224-0.5 0.5-0.5s0.5 0.224 0.5 0.5z"></path>
<path d="M10.5 11h-5c-0.276 0-0.5 0.224-0.5 0.5s0.224 0.5 0.5 0.5v0h5c0.276 0 0.5-0.224 0.5-0.5s-0.224-0.5-0.5-0.5v0z"></path>
</svg>
