<svg version="1.1" xmlns="http://www.w3.org/2000/svg" width="16" height="16" viewBox="0 0 16 16">
<title>flashlight</title>
<path d="M12.982 7.366c-0.048-0.174-0.187-0.308-0.362-0.352l-2.648-0.656c-0.796-0.197-1.523-0.608-2.101-1.188l-1.010-1.011c0.194-0.291 0.176-0.682-0.081-0.939s-0.647-0.275-0.938-0.081l-2.281-2.284c-0.283-0.284-0.66-0.44-1.061-0.44 0 0 0 0-0.001 0-0.4 0-0.777 0.156-1.061 0.439l-0.584 0.585c-0.284 0.283-0.439 0.66-0.439 1.061s0.157 0.778 0.44 1.061l4.315 4.309c0.581 0.579 0.992 1.307 1.189 2.103l0.655 2.647c0.043 0.175 0.178 0.313 0.352 0.362 0.044 0.012 0.089 0.018 0.134 0.018 0.131 0 0.258-0.051 0.354-0.146l5-5c0.127-0.128 0.176-0.314 0.128-0.488zM1.562 2.853c-0.095-0.094-0.147-0.22-0.147-0.353s0.052-0.259 0.146-0.354l0.585-0.585c0.095-0.094 0.22-0.146 0.354-0.146 0 0 0 0 0 0 0.133 0 0.259 0.052 0.353 0.147l4.31 4.315c0.042 0.043 0.091 0.077 0.135 0.118l-1.302 1.302c-0.041-0.044-0.076-0.093-0.119-0.135l-4.315-4.309zM7.772 11.521l-0.442-1.789c-0.145-0.585-0.395-1.134-0.717-1.638l1.482-1.482c0.503 0.322 1.051 0.572 1.636 0.717l1.79 0.444-3.749 3.748z"></path>
<path d="M12.354 11.646c-0.195-0.195-0.512-0.195-0.707 0s-0.195 0.512 0 0.707l1.5 1.5c0.097 0.098 0.225 0.147 0.353 0.147s0.256-0.049 0.354-0.146c0.195-0.195 0.195-0.512 0-0.707l-1.5-1.501z"></path>
<path d="M15.158 10.526l-1.5-0.5c-0.265-0.087-0.545 0.054-0.632 0.316s0.054 0.545 0.316 0.632l1.5 0.5c0.053 0.018 0.106 0.026 0.158 0.026 0.209 0 0.404-0.132 0.474-0.342 0.088-0.262-0.054-0.545-0.316-0.632z"></path>
<path d="M10.974 13.342c-0.087-0.262-0.369-0.404-0.632-0.316s-0.403 0.37-0.316 0.632l0.5 1.5c0.070 0.21 0.265 0.342 0.474 0.342 0.052 0 0.105-0.008 0.158-0.026 0.262-0.087 0.403-0.37 0.316-0.632l-0.5-1.5z"></path>
</svg>
