<svg version="1.1" xmlns="http://www.w3.org/2000/svg" width="16" height="16" viewBox="0 0 16 16">
<title>folder-open-o</title>
<path d="M15.654 7.364c-0.161-0.191-0.39-0.32-0.65-0.348l-0.004-0v-2.016c0-0.552-0.448-1-1-1v0h-6.086c-0.138-0-0.263-0.056-0.353-0.146l-1.415-1.415c-0.27-0.271-0.643-0.439-1.056-0.439-0.001 0-0.003 0-0.004 0h-3.086c-0.552 0-1 0.448-1 1v0 4.010c-0.255 0.049-0.471 0.19-0.616 0.387l-0.002 0.003c-0.118 0.162-0.189 0.365-0.189 0.585 0 0.113 0.019 0.221 0.053 0.322l-0.002-0.007 1.668 5.013c0.135 0.402 0.509 0.687 0.949 0.687h10.852c0 0 0 0 0.001 0 0.473 0 0.868-0.328 0.973-0.768l0.001-0.007 1.158-5.014c0.017-0.068 0.026-0.146 0.026-0.226 0-0.236-0.082-0.452-0.22-0.623l0.001 0.002zM5.086 3c0.138 0 0.263 0.056 0.353 0.146l1.415 1.415c0.27 0.271 0.643 0.439 1.056 0.439 0.001 0 0.003 0 0.004 0h6.086v1.986h-12v-3.986zM13.713 13h-10.852l-1.668-5.014h13.678z"></path>
</svg>
