<svg version="1.1" xmlns="http://www.w3.org/2000/svg" width="16" height="16" viewBox="0 0 16 16">
<title>folder-user</title>
<path d="M15 4h-8.086c-0.138-0-0.263-0.056-0.353-0.146l-1.415-1.415c-0.27-0.271-0.643-0.439-1.056-0.439-0.001 0-0.003 0-0.004 0h-3.086c-0.552 0-1 0.448-1 1v0 10c0 0.552 0.448 1 1 1v0h5.5c0.276 0 0.5-0.224 0.5-0.5s-0.224-0.5-0.5-0.5v0h-5.5v-10h3.086c0.138 0 0.263 0.056 0.353 0.146l1.415 1.415c0.27 0.271 0.643 0.439 1.056 0.439 0.001 0 0.003 0 0.004 0h8.086v1.5c0 0.276 0.224 0.5 0.5 0.5s0.5-0.224 0.5-0.5v0-1.5c0-0.552-0.448-1-1-1v0z"></path>
<path d="M15.16 13.82l-0.834-0.625c0.417-0.446 0.674-1.046 0.674-1.707 0-1.381-1.119-2.5-2.5-2.5s-2.5 1.119-2.5 2.5c0 0.661 0.256 1.261 0.675 1.708l-0.001-0.001-0.833 0.625c-0.511 0.388-0.838 0.996-0.84 1.68v0c0 0.276 0.224 0.5 0.5 0.5s0.5-0.224 0.5-0.5v0c0.001-0.358 0.173-0.676 0.437-0.878l0.003-0.002 1.089-0.816c0.287 0.124 0.62 0.196 0.971 0.196s0.684-0.072 0.987-0.203l-0.016 0.006 1.089 0.817c0.268 0.203 0.44 0.521 0.44 0.879v0c0 0.276 0.224 0.5 0.5 0.5s0.5-0.224 0.5-0.5v0c-0.002-0.684-0.329-1.292-0.835-1.676l-0.005-0.004zM14 11.5c0 0.828-0.672 1.5-1.5 1.5s-1.5-0.672-1.5-1.5c0-0.828 0.672-1.5 1.5-1.5v0c0.828 0 1.5 0.672 1.5 1.5v0z"></path>
</svg>
