<svg version="1.1" xmlns="http://www.w3.org/2000/svg" width="16" height="16" viewBox="0 0 16 16">
<title>folder-cloud</title>
<path d="M15 4h-8.086c-0.138-0.001-0.262-0.056-0.353-0.146l-1.415-1.415c-0.27-0.271-0.643-0.439-1.056-0.439-0.001 0-0.003 0-0.004 0h-3.086c-0.552 0-1 0.448-1 1v0 10c0 0.552 0.448 1 1 1v0h14c0.552 0 1-0.448 1-1v0-8c0-0.552-0.448-1-1-1v0zM15 13h-14v-10h3.086c0.138 0.001 0.262 0.056 0.353 0.146l1.415 1.415c0.27 0.271 0.643 0.439 1.056 0.439 0.001 0 0.003 0 0.004 0h8.086z"></path>
<path d="M5.176 8.008c-0.054-0.005-0.116-0.008-0.179-0.008-1.105 0-2 0.895-2 2s0.895 2 2 2c0.001 0 0.002 0 0.003 0h6c0.001 0 0.002 0 0.003 0 1.105 0 2-0.895 2-2s-0.895-2-2-2c-0.063 0-0.125 0.003-0.187 0.009l0.008-0.001c-0.419-1.179-1.525-2.008-2.824-2.008s-2.405 0.829-2.818 1.987l-0.006 0.021zM6.034 8.684c0.154-0.959 0.976-1.682 1.966-1.682s1.812 0.723 1.964 1.67l0.002 0.011c0.025 0.152 0.116 0.279 0.243 0.353l0.002 0.001c0.072 0.041 0.158 0.066 0.249 0.066 0.065 0 0.128-0.012 0.185-0.035l-0.003 0.001c0.109-0.044 0.235-0.070 0.367-0.070 0.552 0 1 0.448 1 1s-0.448 1-1 1c-0.003 0-0.007-0-0.010-0h-5.999c-0.552 0-1-0.448-1-1s0.448-1 1-1v0c0.129 0.001 0.252 0.026 0.364 0.072l-0.006-0.002c0.054 0.021 0.116 0.034 0.182 0.034 0.092 0 0.178-0.024 0.252-0.067l-0.002 0.001c0.129-0.075 0.22-0.202 0.245-0.351l0-0.003z"></path>
</svg>
