<svg version="1.1" xmlns="http://www.w3.org/2000/svg" width="16" height="16" viewBox="0 0 16 16">
<title>folder-ban</title>
<path d="M6.5 13h-5.5v-10h3.086c0.138 0 0.263 0.056 0.353 0.146l1.415 1.415c0.27 0.271 0.643 0.439 1.056 0.439 0.001 0 0.003 0 0.004 0h8.086v1.5c0 0.276 0.224 0.5 0.5 0.5s0.5-0.224 0.5-0.5v0-1.5c0-0.552-0.448-1-1-1v0h-8.086c-0.138-0-0.263-0.056-0.353-0.146l-1.415-1.415c-0.27-0.271-0.643-0.439-1.056-0.439-0.001 0-0.003 0-0.004 0h-3.086c-0.552 0-1 0.448-1 1v0 10c0 0.552 0.448 1 1 1v0h5.5c0.276 0 0.5-0.224 0.5-0.5s-0.224-0.5-0.5-0.5v0z"></path>
<path d="M12.5 9c-1.933 0-3.5 1.567-3.5 3.5s1.567 3.5 3.5 3.5c1.933 0 3.5-1.567 3.5-3.5v0c0-1.933-1.567-3.5-3.5-3.5v0zM10 12.5c0-1.381 1.119-2.5 2.5-2.5v0c0 0 0.001 0 0.001 0 0.513 0 0.989 0.156 1.385 0.423l-0.009-0.006-3.46 3.459c-0.261-0.387-0.417-0.863-0.417-1.376v-0zM12.5 15c-0.001 0-0.001 0-0.002 0-0.512 0-0.988-0.156-1.383-0.423l0.009 0.006 3.46-3.459c0.259 0.387 0.413 0.864 0.413 1.376 0 1.38-1.117 2.498-2.497 2.5h-0z"></path>
</svg>
