<svg version="1.1" xmlns="http://www.w3.org/2000/svg" width="16" height="16" viewBox="0 0 16 16">
<title>folder-arrow-down</title>
<path d="M15 4h-8.086c-0.138-0-0.263-0.056-0.353-0.146l-1.415-1.415c-0.27-0.271-0.643-0.439-1.056-0.439-0.001 0-0.003 0-0.004 0h-3.086c-0.552 0-1 0.448-1 1v0 10c0 0.552 0.448 1 1 1v0h5.5c0.276 0 0.5-0.224 0.5-0.5s-0.224-0.5-0.5-0.5v0h-5.5v-10h3.086c0.138 0 0.263 0.056 0.353 0.146l1.415 1.415c0.27 0.271 0.643 0.439 1.056 0.439 0.001 0 0.003 0 0.004 0h8.086v1.5c0 0.276 0.224 0.5 0.5 0.5s0.5-0.224 0.5-0.5v0-1.5c0-0.552-0.448-1-1-1v0z"></path>
<path d="M15 12.5c-0 0-0.001 0-0.001 0-0.138 0-0.263 0.056-0.353 0.146l-1.646 1.647v-4.793c0-0.276-0.224-0.5-0.5-0.5s-0.5 0.224-0.5 0.5v0 4.793l-1.646-1.647c-0.091-0.091-0.216-0.147-0.354-0.147-0.276 0-0.501 0.224-0.501 0.501 0 0.138 0.056 0.263 0.147 0.354v0l2.5 2.5c0.091 0.091 0.216 0.147 0.354 0.147s0.263-0.056 0.354-0.147l2.5-2.5c0.091-0.091 0.147-0.216 0.147-0.354 0-0.276-0.224-0.5-0.5-0.5-0 0-0.001 0-0.001 0h0z"></path>
</svg>
