<svg version="1.1" xmlns="http://www.w3.org/2000/svg" width="16" height="16" viewBox="0 0 16 16">
<title>folder-network</title>
<path d="M14 12c0.552 0 1-0.448 1-1v0-7c0-0.552-0.448-1-1-1v0h-6.086c-0.138-0.001-0.262-0.056-0.353-0.146l-1.415-1.415c-0.27-0.271-0.643-0.439-1.056-0.439-0.001 0-0.003 0-0.004 0h-3.086c-0.552 0-1 0.448-1 1v0 9c0 0.552 0.448 1 1 1v0h6v2h-6.5c-0.276 0-0.5 0.224-0.5 0.5s0.224 0.5 0.5 0.5v0h13c0.276 0 0.5-0.224 0.5-0.5s-0.224-0.5-0.5-0.5v0h-5.5v-2zM2 11v-9h3.086c0.138 0.001 0.262 0.056 0.353 0.146l1.415 1.415c0.27 0.271 0.643 0.439 1.056 0.439 0.001 0 0.003 0 0.004 0h6.086v7z"></path>
<path d="M12.5 5h-9c-0.276 0-0.5 0.224-0.5 0.5s0.224 0.5 0.5 0.5v0h9c0.276 0 0.5-0.224 0.5-0.5s-0.224-0.5-0.5-0.5v0z"></path>
</svg>
