<svg version="1.1" xmlns="http://www.w3.org/2000/svg" width="16" height="16" viewBox="0 0 16 16">
<title>folder-open</title>
<path d="M15.789 7.27c-0.138-0.174-0.349-0.284-0.586-0.284-0 0-0.001 0-0.001 0h-0.186v-1.986c0-0.552-0.448-1-1-1v0h-6.086c-0.138-0.001-0.262-0.056-0.353-0.146l-1.415-1.415c-0.27-0.271-0.643-0.439-1.056-0.439-0.002 0-0.004 0-0.006 0h-3.084c-0.552 0-1 0.448-1 1v0 3.986h-0.153c-0.414 0-0.75 0.336-0.75 0.751 0 0.085 0.014 0.166 0.040 0.242l-0.002-0.005 1.777 5.342c0.136 0.401 0.51 0.684 0.949 0.684 0 0 0 0 0 0h10.852c0 0 0 0 0.001 0 0.473 0 0.868-0.328 0.973-0.768l0.001-0.007 1.229-5.325c0.012-0.050 0.019-0.107 0.019-0.165 0-0.176-0.061-0.339-0.164-0.466l0.001 0.001zM13.5 8h-11c-0.276 0-0.5-0.224-0.5-0.5s0.224-0.5 0.5-0.5v0h11c0.276 0 0.5 0.224 0.5 0.5s-0.224 0.5-0.5 0.5v0z"></path>
</svg>
