<svg version="1.1" xmlns="http://www.w3.org/2000/svg" width="16" height="16" viewBox="0 0 16 16">
<title>folder-play</title>
<path d="M15 4h-8.086c-0.138-0-0.263-0.056-0.353-0.146l-1.415-1.415c-0.27-0.271-0.643-0.439-1.056-0.439-0.001 0-0.003 0-0.004 0h-3.086c-0.552 0-1 0.448-1 1v0 10c0 0.552 0.448 1 1 1v0h5.5c0.276 0 0.5-0.224 0.5-0.5s-0.224-0.5-0.5-0.5v0h-5.5v-10h3.086c0.138 0 0.263 0.056 0.353 0.146l1.415 1.415c0.27 0.271 0.643 0.439 1.056 0.439 0.001 0 0.003 0 0.004 0h8.086v1.5c0 0.276 0.224 0.5 0.5 0.5s0.5-0.224 0.5-0.5v0-1.5c0-0.552-0.448-1-1-1v0z"></path>
<path d="M15.724 12.553l-5-2.5c-0.065-0.033-0.142-0.053-0.224-0.053-0.276 0-0.5 0.224-0.5 0.5v0 5c0 0.276 0.224 0.5 0.5 0.5 0.082 0 0.159-0.020 0.227-0.054l-0.003 0.001 5-2.5c0.165-0.084 0.276-0.253 0.276-0.447s-0.111-0.363-0.273-0.446l-0.003-0.001zM11 14.691v-3.382l3.382 1.691z"></path>
</svg>
