<svg version="1.1" xmlns="http://www.w3.org/2000/svg" width="16" height="16" viewBox="0 0 16 16">
<title>font-size-decrease</title>
<path d="M4.968 3.314c-0.15-0.38-0.777-0.38-0.928 0l-4 10c-0.103 0.256 0.021 0.547 0.278 0.649 0.255 0.104 0.547-0.022 0.649-0.278l1.075-2.685h4.924l1.074 2.686c0.078 0.195 0.266 0.314 0.464 0.314 0.062 0 0.125-0.012 0.186-0.036 0.257-0.103 0.381-0.394 0.278-0.649l-4-10.001zM2.442 10l2.062-5.154 2.062 5.154h-4.124z"></path>
<path d="M15.854 7.146c-0.195-0.195-0.512-0.195-0.707 0l-2.147 2.147v-6.793c0-0.276-0.224-0.5-0.5-0.5s-0.5 0.224-0.5 0.5v6.793l-2.146-2.147c-0.195-0.195-0.512-0.195-0.707 0s-0.195 0.512 0 0.707l3 3c0.097 0.098 0.225 0.147 0.353 0.147s0.256-0.049 0.354-0.146l3-3c0.195-0.196 0.195-0.512 0-0.708z"></path>
</svg>
