<svg version="1.1" xmlns="http://www.w3.org/2000/svg" width="16" height="16" viewBox="0 0 16 16">
<title>font-size-increase</title>
<path d="M4.968 3.314c-0.152-0.38-0.776-0.38-0.929 0l-4 10c-0.103 0.256 0.022 0.547 0.279 0.649 0.254 0.102 0.547-0.022 0.65-0.278l1.074-2.685h4.923l1.074 2.686c0.079 0.195 0.267 0.314 0.465 0.314 0.062 0 0.125-0.012 0.186-0.036 0.256-0.103 0.381-0.394 0.279-0.649l-4.001-10.001zM2.442 10l2.061-5.154 2.062 5.154h-4.123z"></path>
<path d="M15.854 5.146l-3-3c-0.195-0.195-0.512-0.195-0.707 0l-3 3c-0.195 0.195-0.195 0.512 0 0.707s0.512 0.195 0.707 0l2.146-2.146v6.793c0 0.276 0.224 0.5 0.5 0.5s0.5-0.224 0.5-0.5v-6.793l2.146 2.146c0.098 0.098 0.226 0.147 0.354 0.147s0.256-0.049 0.354-0.146c0.195-0.196 0.195-0.512 0-0.708z"></path>
</svg>
