<svg version="1.1" xmlns="http://www.w3.org/2000/svg" width="16" height="16" viewBox="0 0 16 16">
<title>font-size</title>
<path d="M4.97 2.329c-0.143-0.396-0.797-0.396-0.939 0l-4 11c-0.095 0.26 0.039 0.547 0.299 0.641 0.261 0.095 0.547-0.039 0.641-0.299l1.334-3.671h4.391l1.335 3.671c0.073 0.203 0.265 0.329 0.469 0.329 0.057 0 0.114-0.010 0.171-0.030 0.26-0.094 0.394-0.381 0.299-0.641l-4-11zM2.668 9l1.832-5.037 1.832 5.037h-3.664z"></path>
<path d="M15.967 13.333l-2.5-7c-0.141-0.395-0.793-0.395-0.934 0l-2.5 7c-0.092 0.258 0.042 0.542 0.3 0.634 0.258 0.091 0.541-0.042 0.634-0.3l0.595-1.667h2.876l0.595 1.667c0.072 0.202 0.264 0.329 0.467 0.329 0.056 0 0.111-0.010 0.167-0.029 0.258-0.092 0.392-0.376 0.3-0.634zM11.919 11l1.081-3.027 1.081 3.027h-2.162z"></path>
</svg>
