<svg version="1.1" xmlns="http://www.w3.org/2000/svg" width="16" height="16" viewBox="0 0 16 16">
<title>format</title>
<path d="M1.5 3h9c0.276 0 0.5-0.224 0.5-0.5s-0.224-0.5-0.5-0.5h-9c-0.276 0-0.5 0.224-0.5 0.5s0.224 0.5 0.5 0.5z"></path>
<path d="M5 5.5c0 0.276 0.224 0.5 0.5 0.5h9c0.276 0 0.5-0.224 0.5-0.5s-0.224-0.5-0.5-0.5h-9c-0.276 0-0.5 0.224-0.5 0.5z"></path>
<path d="M14.5 8h-9c-0.276 0-0.5 0.224-0.5 0.5s0.224 0.5 0.5 0.5h9c0.276 0 0.5-0.224 0.5-0.5s-0.224-0.5-0.5-0.5z"></path>
<path d="M14.5 11h-9c-0.276 0-0.5 0.224-0.5 0.5s0.224 0.5 0.5 0.5h9c0.276 0 0.5-0.224 0.5-0.5s-0.224-0.5-0.5-0.5z"></path>
<path d="M10.5 14h-9c-0.276 0-0.5 0.224-0.5 0.5s0.224 0.5 0.5 0.5h9c0.276 0 0.5-0.224 0.5-0.5s-0.224-0.5-0.5-0.5z"></path>
</svg>
