<svg version="1.1" xmlns="http://www.w3.org/2000/svg" width="16" height="16" viewBox="0 0 16 16">
<title>forms</title>
<path d="M14 1h-12c-0.552 0-1 0.448-1 1v0 2c0 0.552 0.448 1 1 1v0h12c0.552 0 1-0.448 1-1v0-2c0-0.552-0.448-1-1-1v0zM14 4.5v-0.5h-12v-2h12v2z"></path>
<path d="M14 7h-12c-0.552 0-1 0.448-1 1v0 2c0 0.552 0.448 1 1 1v0h12c0.552 0 1-0.448 1-1v0-2c0-0.552-0.448-1-1-1v0zM2 8h9v2h-9zM14 10.5v-0.5h-2v-2h2v2z"></path>
<path d="M14 13h-3c-0.552 0-1 0.448-1 1s0.448 1 1 1v0h3c0.552 0 1-0.448 1-1s-0.448-1-1-1v0z"></path>
</svg>
