<svg version="1.1" xmlns="http://www.w3.org/2000/svg" width="16" height="16" viewBox="0 0 16 16">
<title>forward</title>
<path d="M14.787 7.59l-5-3.5c-0.153-0.107-0.353-0.12-0.517-0.033-0.166 0.086-0.27 0.256-0.27 0.443v7c0 0.187 0.104 0.357 0.27 0.443 0.072 0.038 0.151 0.057 0.23 0.057 0.101 0 0.201-0.030 0.287-0.090l5-3.5c0.133-0.094 0.213-0.247 0.213-0.41s-0.080-0.316-0.213-0.41zM10 10.54v-5.080l3.628 2.54-3.628 2.54zM2.787 4.090c-0.154-0.107-0.353-0.12-0.517-0.033-0.166 0.086-0.27 0.256-0.27 0.443v7c0 0.187 0.104 0.357 0.27 0.443 0.072 0.038 0.151 0.057 0.23 0.057 0.101 0 0.201-0.030 0.287-0.090l5-3.5c0.133-0.094 0.213-0.247 0.213-0.41s-0.080-0.316-0.213-0.41l-5-3.5zM3 10.54v-5.080l3.628 2.54-3.628 2.54z"></path>
</svg>
