<svg version="1.1" xmlns="http://www.w3.org/2000/svg" width="16" height="16" viewBox="0 0 16 16">
<title>frown-o</title>
<path d="M8 0c-4.411 0-8 3.589-8 8s3.589 8 8 8 8-3.589 8-8-3.589-8-8-8zM8 15c-3.859 0-7-3.141-7-7s3.141-7 7-7 7 3.141 7 7-3.141 7-7 7z"></path>
<path d="M8 9c-1.285 0-2.487 0.597-3.385 1.681-0.177 0.213-0.146 0.528 0.065 0.704 0.213 0.176 0.528 0.146 0.704-0.065 0.706-0.851 1.635-1.32 2.616-1.32s1.91 0.469 2.615 1.319c0.099 0.119 0.241 0.181 0.385 0.181 0.112 0 0.226-0.038 0.319-0.115 0.212-0.176 0.242-0.491 0.065-0.704-0.897-1.084-2.099-1.681-3.384-1.681z"></path>
<path d="M6 6c0 0.552-0.448 1-1 1s-1-0.448-1-1c0-0.552 0.448-1 1-1s1 0.448 1 1z"></path>
<path d="M12 6c0 0.552-0.448 1-1 1s-1-0.448-1-1c0-0.552 0.448-1 1-1s1 0.448 1 1z"></path>
</svg>
