<svg version="1.1" xmlns="http://www.w3.org/2000/svg" width="16" height="16" viewBox="0 0 16 16">
<title>function</title>
<path d="M12.141 11l1.75-2.188c0.172-0.216 0.137-0.53-0.078-0.703-0.215-0.172-0.53-0.136-0.703 0.078l-1.61 2.012-1.609-2.011c-0.173-0.215-0.488-0.252-0.703-0.079s-0.25 0.487-0.078 0.703l1.749 2.188-1.75 2.188c-0.172 0.216-0.137 0.53 0.078 0.703 0.093 0.073 0.203 0.109 0.313 0.109 0.147 0 0.292-0.064 0.391-0.188l1.609-2.012 1.609 2.012c0.099 0.124 0.245 0.188 0.391 0.188 0.109 0 0.22-0.036 0.312-0.109 0.215-0.173 0.25-0.487 0.078-0.703l-1.749-2.188z"></path>
<path d="M8 3c0.425 0 0.839 0.145 1.196 0.418 0.22 0.169 0.534 0.127 0.701-0.092s0.127-0.533-0.092-0.701c-0.534-0.409-1.158-0.625-1.805-0.625-1.654 0-3 1.346-3 2.999l-0.004 2.013h-1.496c-0.27 0-0.488 0.219-0.488 0.488s0.218 0.488 0.488 0.488h1.494l-0.005 3.012c0 1.101-0.894 1.997-1.994 2-0.423-0.001-0.835-0.146-1.19-0.418-0.217-0.168-0.533-0.126-0.701 0.092s-0.127 0.533 0.092 0.701c0.53 0.407 1.149 0.623 1.793 0.625 0.003 0 0.007 0 0.011 0 1.649-0.006 2.989-1.35 2.989-2.999l0.006-3.013h1.505c0.27 0 0.488-0.219 0.488-0.488s-0.218-0.488-0.488-0.488h-1.504l0.004-2.012c0-1.103 0.897-2 2-2z"></path>
</svg>
