<svg version="1.1" xmlns="http://www.w3.org/2000/svg" width="16" height="16" viewBox="0 0 16 16">
<title>funnel-chart</title>
<path d="M15.5 13h-14.5v-11.5c0-0.276-0.224-0.5-0.5-0.5s-0.5 0.224-0.5 0.5v12c0 0.276 0.224 0.5 0.5 0.5h15c0.276 0 0.5-0.224 0.5-0.5s-0.224-0.5-0.5-0.5z"></path>
<path d="M5.69 6.297c0.872 1.177 1.435 2.539 1.629 3.938l0.185 1.333c0.035 0.248 0.246 0.432 0.496 0.432h3c0.25 0 0.461-0.184 0.495-0.431l0.185-1.333c0.194-1.4 0.758-2.762 1.629-3.938l2.592-3.5c0.112-0.152 0.13-0.354 0.045-0.523s-0.257-0.275-0.446-0.275h-12c-0.189 0-0.362 0.106-0.447 0.275s-0.067 0.371 0.045 0.523l2.592 3.499zM11.249 8h-3.497c-0.272-0.7-0.631-1.37-1.064-2h5.624c-0.432 0.63-0.792 1.3-1.063 2zM10.564 11h-2.128l-0.126-0.902c-0.051-0.37-0.129-0.736-0.225-1.098h2.831c-0.096 0.362-0.174 0.728-0.226 1.098l-0.126 0.902zM14.507 3l-1.481 2h-7.052l-1.481-2h10.014z"></path>
</svg>
