<svg version="1.1" xmlns="http://www.w3.org/2000/svg" width="16" height="16" viewBox="0 0 16 16">
<title>gamepad</title>
<path d="M15.84 7.858c-0.612-2.731-2.723-4.858-4.808-4.858-0.896 0.037-1.413 0.32-1.808 0.584-0.349 0.232-0.625 0.416-1.223 0.416s-0.874-0.184-1.222-0.416c-0.395-0.263-0.922-0.611-1.803-0.584-2.090 0-4.201 2.127-4.813 4.858-0.36 1.604-0.118 3.090 0.664 4.076 0.537 0.679 1.304 1.058 2.164 1.066 1.424 0 2.163-0.589 2.814-1.109 0.599-0.478 1.117-0.891 2.191-0.891h0.010c1.074 0 1.592 0.413 2.191 0.891 0.652 0.52 1.391 1.109 2.82 1.109 0.854-0.008 1.621-0.387 2.159-1.065 0.782-0.987 1.024-2.472 0.664-4.077zM14.393 11.313c-0.352 0.443-0.831 0.682-1.381 0.687-1.074 0-1.592-0.413-2.191-0.891-0.652-0.52-1.391-1.109-2.815-1.109h-0.010c-1.424 0-2.163 0.589-2.814 1.109-0.599 0.478-1.117 0.891-2.186 0.891-0.555-0.005-1.034-0.242-1.386-0.687-0.584-0.737-0.761-1.947-0.472-3.236 0.497-2.216 2.251-4.077 3.842-4.077h0.020c0.6 0 0.875 0.184 1.225 0.416 0.39 0.26 0.875 0.583 1.776 0.584 0.901-0.001 1.386-0.324 1.777-0.584 0.353-0.234 0.637-0.398 1.248-0.416 1.587 0 3.341 1.861 3.838 4.077 0.29 1.289 0.113 2.499-0.471 3.236zM5 6h-1v1h-1v1h1v1h1v-1h1v-1h-1zM11.5 6c-0.827 0-1.5 0.673-1.5 1.5s0.673 1.5 1.5 1.5 1.5-0.673 1.5-1.5-0.673-1.5-1.5-1.5zM11.5 8c-0.276 0-0.5-0.225-0.5-0.5s0.224-0.5 0.5-0.5 0.5 0.225 0.5 0.5-0.224 0.5-0.5 0.5z"></path>
</svg>
