<svg version="1.1" xmlns="http://www.w3.org/2000/svg" width="16" height="16" viewBox="0 0 16 16">
<title>gantt-chart</title>
<path d="M2.5 4h6c0.276 0 0.5-0.224 0.5-0.5v-2c0-0.276-0.224-0.5-0.5-0.5h-6c-0.276 0-0.5 0.224-0.5 0.5v2c0 0.276 0.224 0.5 0.5 0.5zM3 2h5v1h-5v-1z"></path>
<path d="M6 5.5v2c0 0.276 0.224 0.5 0.5 0.5h4c0.276 0 0.5-0.224 0.5-0.5v-2c0-0.276-0.224-0.5-0.5-0.5h-4c-0.276 0-0.5 0.224-0.5 0.5zM7 6h3v1h-3v-1z"></path>
<path d="M8 9.5v2c0 0.276 0.224 0.5 0.5 0.5h6c0.276 0 0.5-0.224 0.5-0.5v-2c0-0.276-0.224-0.5-0.5-0.5h-6c-0.276 0-0.5 0.224-0.5 0.5zM9 10h5v1h-5v-1z"></path>
<path d="M15.5 13h-14.5v-11.5c0-0.276-0.224-0.5-0.5-0.5s-0.5 0.224-0.5 0.5v12c0 0.276 0.224 0.5 0.5 0.5h15c0.276 0 0.5-0.224 0.5-0.5s-0.224-0.5-0.5-0.5z"></path>
</svg>
