<svg version="1.1" xmlns="http://www.w3.org/2000/svg" width="16" height="16" viewBox="0 0 16 16">
<title>gbp</title>
<path d="M12.5 13h-6.138c0.397-0.531 0.638-1.232 0.638-2v-2h2.5c0.276 0 0.5-0.224 0.5-0.5s-0.224-0.5-0.5-0.5h-2.5v-3c0-1.103 0.897-2 2-2h0.806c0.588 0 1.144 0.257 1.524 0.705 0.179 0.211 0.495 0.236 0.704 0.058 0.211-0.179 0.236-0.495 0.058-0.705-0.571-0.672-1.404-1.058-2.286-1.058h-0.806c-1.654 0-3 1.346-3 3v3h-1.5c-0.276 0-0.5 0.224-0.5 0.5s0.224 0.5 0.5 0.5h1.5v2c0 1.103-0.673 2-1.5 2-0.276 0-0.5 0.224-0.5 0.5s0.224 0.5 0.5 0.5h8c0.276 0 0.5-0.224 0.5-0.5s-0.224-0.5-0.5-0.5z"></path>
</svg>
