<svg version="1.1" xmlns="http://www.w3.org/2000/svg" width="16" height="16" viewBox="0 0 16 16">
<title>gear</title>
<path d="M8 5c-1.657 0-3 1.343-3 3s1.343 3 3 3 3-1.343 3-3-1.343-3-3-3zM8 10c-1.103 0-2-0.897-2-2s0.897-2 2-2 2 0.897 2 2-0.897 2-2 2zM14.020 8.746c-0.212-0.175-0.387-0.51-0.388-0.744s0.172-0.57 0.384-0.744l1.208-0.992c0.402-0.304 0.515-0.861 0.262-1.297l-1.116-1.937c-0.184-0.318-0.519-0.5-0.866-0.5-0.13 0-0.262 0.025-0.388 0.079l-1.459 0.548c-0.113 0.042-0.249 0.063-0.384 0.063-0.172 0-0.341-0.034-0.455-0.099-0.204-0.116-0.408-0.434-0.452-0.705l-0.255-1.543c-0.064-0.499-0.489-0.875-0.994-0.875h-2.234c-0.504 0-0.93 0.376-0.992 0.876l-0.255 1.537c-0.045 0.271-0.248 0.59-0.45 0.709-0.115 0.067-0.286 0.102-0.459 0.102-0.133 0-0.267-0.020-0.379-0.062l-1.464-0.55c-0.125-0.054-0.257-0.080-0.387-0.080-0.348 0-0.683 0.182-0.866 0.5l-1.118 1.936c-0.252 0.436-0.139 0.992 0.263 1.297l1.204 0.989c0.212 0.175 0.387 0.51 0.388 0.744s-0.172 0.57-0.384 0.744l-1.208 0.993c-0.402 0.304-0.515 0.861-0.262 1.297l1.117 1.935c0.184 0.318 0.519 0.5 0.866 0.5 0.13 0 0.262-0.025 0.388-0.079l1.459-0.548c0.113-0.042 0.249-0.063 0.384-0.063 0.172 0 0.341 0.034 0.455 0.099 0.204 0.116 0.408 0.434 0.452 0.705l0.255 1.543c0.063 0.5 0.488 0.876 0.993 0.876h2.234c0.504 0 0.93-0.376 0.992-0.876l0.255-1.537c0.045-0.271 0.248-0.59 0.45-0.709 0.115-0.067 0.285-0.102 0.458-0.102 0.133 0 0.267 0.020 0.379 0.062l1.464 0.55c0.126 0.053 0.258 0.079 0.388 0.079 0.348 0 0.683-0.182 0.866-0.5l1.117-1.935c0.252-0.437 0.14-0.993-0.262-1.297l-1.204-0.989zM13.467 12.453l-1.464-0.55c-0.22-0.083-0.473-0.126-0.731-0.126-0.253 0-0.625 0.041-0.962 0.238-0.456 0.266-0.84 0.846-0.933 1.409l-0.26 1.576-2.24-0.039-0.255-1.543c-0.094-0.567-0.482-1.147-0.943-1.41-0.334-0.19-0.701-0.23-0.951-0.23-0.26 0-0.514 0.044-0.736 0.127l-1.496 0.563-1.086-1.96 1.208-0.992c0.444-0.365 0.752-0.991 0.75-1.522-0.003-0.528-0.312-1.15-0.754-1.512l-1.235-1.014 1.154-1.92 1.463 0.55c0.22 0.083 0.473 0.126 0.731 0.126 0.253 0 0.625-0.041 0.962-0.238 0.456-0.266 0.84-0.846 0.933-1.409l0.261-1.577h2.234l0.006 0.039 0.255 1.543c0.094 0.567 0.482 1.147 0.943 1.41 0.334 0.19 0.701 0.23 0.951 0.23 0.26 0 0.514-0.044 0.736-0.127l1.496-0.563 1.086 1.96-1.208 0.992c-0.444 0.365-0.752 0.991-0.75 1.522 0.003 0.528 0.312 1.15 0.754 1.512l1.235 1.014-1.154 1.921z"></path>
</svg>
