<svg version="1.1" xmlns="http://www.w3.org/2000/svg" width="16" height="16" viewBox="0 0 16 16">
<title>gears</title>
<path d="M9.932 7.632c-1.105 0-2 0.895-2 2s0.895 2 2 2 2-0.895 2-2-0.896-2-2-2zM9.932 10.632c-0.551 0-1-0.449-1-1s0.449-1 1-1 1 0.449 1 1-0.449 1-1 1zM2.794 4.465c0.479 0.182 1.112 0.141 1.526-0.104 0.42-0.245 0.758-0.754 0.843-1.267l0.181-1.094h1.448l0.182 1.099c0.044 0.271 0.299 0.461 0.574 0.411 0.272-0.045 0.457-0.303 0.411-0.575l-0.201-1.216c-0.053-0.416-0.388-0.719-0.796-0.719h-1.788c-0.403 0-0.744 0.302-0.791 0.682l-0.206 1.249c-0.039 0.236-0.219 0.484-0.362 0.567-0.153 0.089-0.472 0.105-0.668 0.031l-1.161-0.436c-0.072-0.029-0.183-0.067-0.32-0.067-0.286 0-0.552 0.154-0.693 0.4l-0.894 1.548c-0.203 0.349-0.112 0.796 0.194 1.026l0.979 0.804c0.185 0.151 0.31 0.43 0.311 0.596 0 0.163-0.123 0.442-0.308 0.594l-0.952 0.782c-0.334 0.254-0.429 0.695-0.225 1.050l0.894 1.547c0.142 0.247 0.408 0.401 0.694 0.401 0.104 0 0.208-0.021 0.292-0.057l1.186-0.445c0.259-0.097 0.389-0.385 0.292-0.644s-0.384-0.393-0.644-0.292l-1.032 0.402-0.73-1.264 0.86-0.707c0.405-0.334 0.675-0.886 0.672-1.372-0.001-0.486-0.273-1.034-0.675-1.365l-0.858-0.703 0.724-1.254 1.041 0.392zM14.748 10.229c-0.17-0.14-0.31-0.408-0.311-0.596s0.137-0.456 0.307-0.595l0.967-0.794c0.322-0.244 0.412-0.688 0.21-1.038l-0.894-1.548c-0.147-0.254-0.415-0.4-0.693-0.4-0.104 0-0.209 0.020-0.311 0.063l-1.167 0.439c-0.090 0.034-0.199 0.051-0.307 0.051-0.137 0-0.272-0.027-0.364-0.079-0.163-0.093-0.326-0.347-0.362-0.564l-0.203-1.235c-0.050-0.4-0.39-0.701-0.794-0.701h-1.788c-0.404 0-0.744 0.3-0.794 0.701l-0.204 1.23c-0.035 0.217-0.197 0.472-0.36 0.566-0.092 0.054-0.228 0.082-0.366 0.082-0.106 0-0.214-0.016-0.303-0.050l-1.171-0.44c-0.101-0.043-0.207-0.063-0.311-0.063-0.278 0-0.546 0.146-0.693 0.4l-0.894 1.548c-0.201 0.349-0.111 0.794 0.21 1.038l0.963 0.791c0.17 0.14 0.31 0.408 0.311 0.596s-0.137 0.456-0.307 0.596l-0.967 0.793c-0.322 0.244-0.412 0.688-0.21 1.038l0.894 1.548c0.147 0.254 0.415 0.4 0.693 0.4 0.104 0 0.209-0.020 0.311-0.063l1.167-0.439c0.090-0.034 0.2-0.051 0.307-0.051 0.137 0 0.272 0.027 0.364 0.079 0.163 0.093 0.326 0.347 0.362 0.564l0.204 1.234c0.050 0.4 0.39 0.701 0.794 0.701h1.787c0.404 0 0.744-0.3 0.794-0.701l0.204-1.23c0.036-0.217 0.198-0.472 0.36-0.567 0.092-0.054 0.228-0.081 0.367-0.081 0.106 0 0.213 0.016 0.303 0.050l1.171 0.44c0.101 0.043 0.207 0.063 0.311 0.063 0.278 0 0.546-0.146 0.693-0.4l0.894-1.548c0.202-0.349 0.112-0.794-0.21-1.038l-0.964-0.79zM14.247 12.958l-1.042-0.392c-0.198-0.074-0.425-0.114-0.655-0.114-0.227 0-0.562 0.038-0.871 0.218-0.419 0.245-0.758 0.754-0.843 1.267l-0.18 1.094h-1.448l-0.182-1.098c-0.085-0.517-0.428-1.027-0.853-1.269-0.305-0.174-0.636-0.211-0.86-0.211-0.232 0-0.46 0.040-0.659 0.115l-1.038 0.391-0.724-1.254 0.86-0.706c0.405-0.332 0.675-0.884 0.673-1.373-0.001-0.486-0.272-1.033-0.675-1.364l-0.857-0.703 0.724-1.254 1.042 0.392c0.198 0.075 0.425 0.114 0.655 0.114 0.227 0 0.562-0.038 0.871-0.218 0.419-0.245 0.758-0.754 0.843-1.267l0.18-1.094h1.448l0.182 1.098c0.086 0.517 0.428 1.027 0.853 1.269 0.305 0.174 0.636 0.211 0.86 0.211 0.232 0 0.46-0.040 0.659-0.115l1.038-0.391 0.724 1.254-0.86 0.706c-0.405 0.332-0.675 0.884-0.673 1.373 0.002 0.485 0.274 1.033 0.676 1.363l0.857 0.703-0.725 1.255z"></path>
</svg>
