<svg version="1.1" xmlns="http://www.w3.org/2000/svg" width="16" height="16" viewBox="0 0 16 16">
<title>gift</title>
<path d="M14.5 6h-3.381c0.719-0.358 1.419-0.796 1.831-1.288 0.388-0.462 0.573-1.048 0.52-1.649s-0.336-1.146-0.798-1.533-1.048-0.574-1.649-0.521c-0.602 0.053-1.146 0.336-1.535 0.799-0.436 0.519-0.757 1.345-0.988 2.158-0.231-0.813-0.552-1.639-0.988-2.158-0.388-0.463-0.933-0.746-1.534-0.799-0.6-0.054-1.187 0.133-1.649 0.521-0.463 0.387-0.746 0.931-0.799 1.532s0.132 1.188 0.52 1.65c0.412 0.492 1.113 0.93 1.831 1.288h-3.381c-0.276 0-0.5 0.224-0.5 0.5v8c0 0.276 0.224 0.5 0.5 0.5h12c0.276 0 0.5-0.224 0.5-0.5v-8c0-0.276-0.224-0.5-0.5-0.5zM4.816 4.069c-0.216-0.257-0.319-0.584-0.29-0.92s0.188-0.639 0.445-0.854c0.23-0.192 0.513-0.295 0.808-0.295l0.111 0.005c0.336 0.029 0.639 0.187 0.856 0.445 0.561 0.669 0.942 2.237 1.135 3.312-1.025-0.375-2.503-1.023-3.065-1.693zM8 14h-5v-3h5v3zM8 10h-5v-3h5v3zM10.254 2.45c0.216-0.258 0.52-0.416 0.855-0.445l0.112-0.005c0.295 0 0.579 0.103 0.808 0.295 0.257 0.216 0.416 0.52 0.445 0.854 0.029 0.336-0.074 0.662-0.29 0.92-0.561 0.669-2.040 1.316-3.065 1.693 0.192-1.074 0.573-2.642 1.135-3.312zM14 14h-5v-3h5v3zM14 10h-5v-3h5v3z"></path>
</svg>
