<svg version="1.1" xmlns="http://www.w3.org/2000/svg" width="16" height="16" viewBox="0 0 16 16">
<title>glass</title>
<path d="M14 5.359c0-0.826-0.188-2.76-0.48-4.926-0.034-0.247-0.246-0.433-0.496-0.433h-9.048c-0.25 0-0.462 0.186-0.496 0.434-0.292 2.166-0.48 4.099-0.48 4.925 0 2.464 2.201 4.491 5 4.71v4.931h-2c-0.276 0-0.5 0.224-0.5 0.5s0.224 0.5 0.5 0.5h5c0.276 0 0.5-0.224 0.5-0.5s-0.224-0.5-0.5-0.5h-2v-4.931c2.799-0.218 5-2.246 5-4.71zM4 5.359c0-0.604 0.129-2.168 0.414-4.359h8.172c0.285 2.191 0.414 3.755 0.414 4.359 0 2.058-2.019 3.731-4.5 3.731s-4.5-1.673-4.5-3.731zM6.518 2.508c-0.287-0.036-0.521 0.17-0.55 0.444-0.149 1.404-0.234 2.518-0.234 3.053 0 0.276 0.224 0.5 0.5 0.5s0.5-0.224 0.5-0.5c0-0.495 0.085-1.597 0.228-2.947 0.029-0.275-0.17-0.521-0.444-0.55z"></path>
</svg>
