<svg version="1.1" xmlns="http://www.w3.org/2000/svg" width="16" height="16" viewBox="0 0 16 16">
<title>globe</title>
<path d="M8 0c-4.411 0-8 3.589-8 8s3.589 8 8 8 8-3.589 8-8-3.589-8-8-8zM7.999 14.7c-0.493-0.654-1.363-1.953-1.935-3.589 1.289-0.128 2.583-0.128 3.871 0-0.573 1.634-1.443 2.934-1.936 3.589zM5.773 10.141c-0.167-0.678-0.273-1.396-0.273-2.141 0-0.742 0.105-1.46 0.273-2.137 0.741 0.081 1.483 0.137 2.227 0.137s1.487-0.056 2.228-0.137c0.167 0.677 0.272 1.394 0.272 2.137s-0.106 1.463-0.274 2.141c-1.482-0.16-2.971-0.16-4.453 0zM8.001 1.3c0.493 0.654 1.363 1.953 1.935 3.589-1.289 0.128-2.583 0.128-3.871 0 0.573-1.634 1.443-2.934 1.936-3.589zM11.23 5.737c1.037-0.165 2.066-0.417 3.084-0.739 0.435 0.911 0.686 1.927 0.686 3.002s-0.251 2.091-0.686 3.002c-1.018-0.322-2.047-0.573-3.084-0.736 0.167-0.716 0.27-1.476 0.27-2.266 0-0.789-0.103-1.548-0.27-2.263zM13.812 4.104c-0.944 0.289-1.898 0.513-2.859 0.659-0.518-1.575-1.293-2.861-1.862-3.669 1.961 0.309 3.656 1.427 4.721 3.010zM6.909 1.094c-0.568 0.808-1.344 2.094-1.862 3.669-0.961-0.146-1.915-0.37-2.859-0.659 1.065-1.583 2.76-2.701 4.721-3.010zM1.686 4.998c1.018 0.323 2.047 0.574 3.084 0.739-0.167 0.715-0.27 1.474-0.27 2.263s0.103 1.55 0.27 2.266c-1.037 0.164-2.067 0.414-3.084 0.736-0.435-0.911-0.686-1.927-0.686-3.002s0.251-2.091 0.686-3.002zM2.188 11.896c0.944-0.289 1.898-0.513 2.859-0.659 0.518 1.575 1.293 2.861 1.862 3.669-1.961-0.309-3.656-1.427-4.721-3.010zM9.091 14.906c0.569-0.808 1.345-2.094 1.862-3.669 0.961 0.146 1.915 0.37 2.859 0.659-1.065 1.583-2.76 2.701-4.721 3.010z"></path>
</svg>
