<svg version="1.1" xmlns="http://www.w3.org/2000/svg" width="16" height="16" viewBox="0 0 16 16">
<title>hand-spock-o</title>
<path d="M15.166 1.846c-0.202-0.095-0.409-0.146-0.609-0.158 0.047-0.631-0.271-1.268-0.829-1.528-0.774-0.361-1.615-0.086-1.953 0.638l-2.275 4.829-2.274-4.829c-0.338-0.725-1.178-1-1.954-0.639-0.558 0.261-0.876 0.898-0.828 1.529-0.201 0.012-0.408 0.063-0.61 0.158-0.724 0.338-1.044 1.309-0.686 2.079l2.447 5.244c0.169 0.362-0.109 0.581-0.166 0.621-0.058 0.042-0.358 0.229-0.641-0.056l-1.326-1.326c-0.566-0.565-1.449-0.538-2.054 0.067-0.565 0.565-0.534 1.588 0.067 2.188l4.102 4.104c0.766 0.784 1.835 1.233 2.934 1.233h1.489c2.206 0 4-1.794 4-4v-3.108c0-0.652 0.146-1.311 0.422-1.902l1.43-3.064c0.358-0.771 0.038-1.742-0.686-2.080zM14.945 3.502l-1.43 3.064c-0.337 0.724-0.515 1.528-0.515 2.326v3.108c0 1.654-1.346 3-3 3h-1.489c-0.831 0-1.64-0.34-2.223-0.937l-4.106-4.107c-0.212-0.212-0.245-0.596-0.067-0.774 0.1-0.1 0.238-0.182 0.379-0.182 0.089 0 0.18 0.033 0.262 0.115l1.326 1.326c0.524 0.524 1.314 0.595 1.921 0.168 0.607-0.425 0.812-1.19 0.499-1.862l-2.447-5.244c-0.127-0.273-0.027-0.645 0.202-0.751 0.225-0.104 0.521-0.101 0.641 0.153v0.002l0.003 0.004 1.843 3.951c0.085 0.182 0.265 0.288 0.453 0.288l0.211-0.047c0.25-0.117 0.358-0.414 0.242-0.664l-2.158-4.625c-0.125-0.271-0.025-0.642 0.203-0.749 0.208-0.098 0.498-0.114 0.625 0.157l2.54 5.394c0.083 0.176 0.258 0.287 0.452 0.287h0.374c0.194 0 0.37-0.111 0.452-0.287l2.541-5.395c0.127-0.272 0.417-0.253 0.625-0.156 0.229 0.106 0.329 0.478 0.203 0.749l-0.001 0.001-2.156 4.624c-0.117 0.25-0.008 0.547 0.242 0.664l0.211 0.047c0.188 0 0.369-0.106 0.454-0.289l1.843-3.951 0.003-0.003v-0.002c0.12-0.254 0.417-0.257 0.641-0.153 0.228 0.106 0.328 0.478 0.201 0.75z"></path>
</svg>
