<svg version="1.1" xmlns="http://www.w3.org/2000/svg" width="16" height="16" viewBox="0 0 16 16">
<title>handshake-o</title>
<path d="M15.5 10h-0.5v-4h0.5c0.276 0 0.5-0.224 0.5-0.5s-0.224-0.5-0.5-0.5h-2.586c-0.131 0-0.26-0.053-0.354-0.146l-0.414-0.414c-0.283-0.284-0.66-0.44-1.060-0.44h-1.757c-0.48 0-0.937 0.139-1.332 0.389-0.399-0.251-0.851-0.389-1.326-0.389h-1.342c-0.669 0-1.297 0.261-1.769 0.733-0.172 0.172-0.401 0.267-0.644 0.267h-2.416c-0.276 0-0.5 0.224-0.5 0.5s0.224 0.5 0.5 0.5h0.5v3.982h-0.5c-0.276 0-0.5 0.224-0.5 0.5s0.224 0.5 0.5 0.5h2.172c0.409 0 0.785 0.151 1.061 0.425l2.162 2.15c0.296 0.294 0.684 0.442 1.072 0.442s0.776-0.147 1.071-0.441c0.166-0.165 0.286-0.361 0.358-0.577 0.37-0.017 0.729-0.168 0.998-0.436 0.163-0.162 0.283-0.36 0.355-0.577 0.371-0.017 0.73-0.167 1-0.436 0.154-0.153 0.264-0.335 0.337-0.532h4.414c0.276 0 0.5-0.224 0.5-0.5s-0.224-0.5-0.5-0.5zM11.399 9.81c-0.142 0.141-0.351 0.186-0.545 0.113-0.158-0.058-0.337-0.033-0.473 0.069s-0.211 0.266-0.199 0.435c0.006 0.090-0.003 0.261-0.139 0.396-0.142 0.141-0.35 0.186-0.545 0.113-0.16-0.058-0.337-0.032-0.473 0.069-0.135 0.102-0.21 0.265-0.199 0.435 0.006 0.090-0.003 0.261-0.138 0.396-0.142 0.142-0.351 0.187-0.545 0.114-0.159-0.058-0.337-0.033-0.473 0.069s-0.21 0.265-0.199 0.434c0.006 0.090-0.003 0.262-0.139 0.396-0.202 0.201-0.531 0.2-0.732 0l-2.162-2.15c-0.464-0.462-1.091-0.716-1.766-0.716h-0.672v-3.983h0.916c0.51 0 0.99-0.199 1.352-0.561 0.283-0.283 0.659-0.439 1.061-0.439h1.342c0.181 0 0.354 0.040 0.52 0.102l-1.607 1.607c-0.747 0.746-0.747 1.961 0 2.707 0.373 0.373 0.863 0.56 1.354 0.56s0.98-0.187 1.354-0.56l1.717-1.717 1.391 1.387c0.097 0.097 0.151 0.226 0.151 0.362s-0.054 0.265-0.152 0.362zM14 10h-1.556c0.068-0.174 0.107-0.36 0.107-0.552 0-0.404-0.158-0.784-0.445-1.070l-1.39-1.386 0.138-0.138c0.195-0.195 0.195-0.512 0-0.707s-0.512-0.195-0.707 0l-2.563 2.562c-0.356 0.356-0.937 0.356-1.293 0s-0.356-0.937 0-1.293l1.977-1.977c0.283-0.283 0.659-0.439 1.061-0.439h1.757c0.131 0 0.26 0.053 0.354 0.146l0.414 0.414c0.283 0.284 0.66 0.44 1.060 0.44h1.086v4z"></path>
</svg>
