<svg version="1.1" xmlns="http://www.w3.org/2000/svg" width="16" height="16" viewBox="0 0 16 16">
<title>hand-rock-o</title>
<path d="M11.5 4c-0.195 0-0.382 0.037-0.553 0.105-0.174-0.636-0.757-1.105-1.447-1.105-0.195 0-0.382 0.037-0.553 0.105-0.174-0.636-0.757-1.105-1.447-1.105s-1.273 0.469-1.447 1.105c-0.171-0.068-0.358-0.105-0.553-0.105-0.827 0-1.5 0.673-1.5 1.5v1.439c-1.103 0-2 0.897-2 2v1.879c0 0.526 0.214 1.042 0.586 1.414l1.596 1.596c0.756 0.756 1.761 1.172 2.829 1.172h1.989c2.206 0 4-1.794 4-4v-4.5c0-0.827-0.673-1.5-1.5-1.5zM12 10c0 1.654-1.346 3-3 3h-1.989c-0.801 0-1.555-0.312-2.122-0.879l-1.596-1.596c-0.187-0.186-0.293-0.444-0.293-0.707v-1.879c0-0.552 0.448-1 1-1v1.561c0 0.276 0.224 0.5 0.5 0.5s0.5-0.224 0.5-0.5v-4c0-0.275 0.225-0.5 0.5-0.5s0.5 0.225 0.5 0.5c0 0.276 0.224 0.5 0.5 0.5s0.5-0.224 0.5-0.5v-1c0-0.275 0.225-0.5 0.5-0.5s0.5 0.225 0.5 0.5v1c0 0.276 0.224 0.5 0.5 0.5s0.5-0.224 0.5-0.5c0-0.275 0.225-0.5 0.5-0.5s0.5 0.225 0.5 0.5v1c0 0.276 0.224 0.5 0.5 0.5s0.5-0.224 0.5-0.5c0-0.275 0.225-0.5 0.5-0.5s0.5 0.225 0.5 0.5v4.5z"></path>
</svg>
