<svg version="1.1" xmlns="http://www.w3.org/2000/svg" width="16" height="16" viewBox="0 0 16 16">
<title>hand-lizard-o</title>
<path d="M15.12 7.919l-3.962-6.483c-0.541-0.886-1.522-1.436-2.56-1.436h-7.003c-0.85 0-1.595 0.701-1.595 1.5 0 0.747 0.461 1.333 1.111 1.47-0.071 0.167-0.111 0.345-0.111 0.53 0 0.855 0.604 1.5 1.405 1.5h5.901l-0.21 0.633c-0.273 0.817-1.035 1.367-1.898 1.367h-2.603c-0.85 0-1.595 0.701-1.595 1.5 0 0.855 0.604 1.5 1.405 1.5h3.552c0.233 0 0.46 0.082 0.64 0.231l2.043 1.701c0.229 0.191 0.36 0.472 0.36 0.77v2.798c0 0.276 0.224 0.5 0.5 0.5h5c0.276 0 0.5-0.224 0.5-0.5v-4.452c0-1.105-0.305-2.187-0.88-3.129zM15 15h-4v-2.298c0-0.596-0.262-1.156-0.72-1.537l-2.043-1.701c-0.359-0.299-0.813-0.464-1.28-0.464h-3.552c-0.299 0-0.405-0.27-0.405-0.5 0-0.252 0.294-0.5 0.595-0.5h2.604c1.293 0 2.437-0.824 2.846-2.051l0.211-0.633c0.101-0.305 0.050-0.642-0.138-0.901s-0.491-0.415-0.812-0.415h-5.901c-0.299 0-0.405-0.27-0.405-0.5 0-0.252 0.294-0.5 0.595-0.5h4.905c0.276 0 0.5-0.224 0.5-0.5s-0.224-0.5-0.5-0.5h-6.095c-0.299 0-0.405-0.27-0.405-0.5 0-0.252 0.294-0.5 0.595-0.5h7.003c0.692 0 1.346 0.367 1.706 0.957l3.962 6.483c0.48 0.786 0.734 1.687 0.734 2.608v3.952z"></path>
</svg>
