<svg version="1.1" xmlns="http://www.w3.org/2000/svg" width="16" height="16" viewBox="0 0 16 16">
<title>hand-o-left</title>
<path d="M13.902 4.417l-5.547-3.203c-0.736-0.424-1.731-0.19-2.131 0.502-0.427 0.741-0.226 1.601 0.467 2.002l2.222 1.282h-7.413c-0.827 0-1.5 0.673-1.5 1.5s0.673 1.5 1.505 1.5c1.062-0.010 2.526-0.020 3.603-0.021-0.070 0.164-0.108 0.34-0.108 0.521 0 0.747 0.461 1.333 1.111 1.47-0.071 0.166-0.111 0.345-0.111 0.53 0 0.747 0.461 1.333 1.111 1.47-0.071 0.166-0.111 0.345-0.111 0.53 0 0.855 0.604 1.5 1.405 1.5h3.595c2.206 0 4-1.794 4-4v-2c0-1.485-0.828-2.894-2.098-3.583zM15 10c0 1.654-1.346 3-3 3h-3.595c-0.299 0-0.405-0.27-0.405-0.5 0-0.252 0.295-0.5 0.595-0.5 0.276 0 0.5-0.224 0.5-0.5s-0.224-0.5-0.5-0.5h-1.19c-0.299 0-0.405-0.27-0.405-0.5 0-0.252 0.295-0.5 0.595-0.5 0.276 0 0.5-0.224 0.5-0.5s-0.224-0.5-0.5-0.5h-1.19c-0.299 0-0.405-0.27-0.405-0.5 0-0.252 0.295-0.5 0.595-0.5 0.168 0 0.324-0.084 0.417-0.224s0.109-0.317 0.044-0.472c-0.060-0.141-0.096-0.226-0.461-0.274v-0.030l-0.187 0.011c-0.638-0.050-1.978-0.038-4.908-0.011-0.275 0-0.5-0.224-0.5-0.5s0.225-0.5 0.5-0.5h7.413c0.459 0 0.848-0.298 0.966-0.741 0.119-0.443-0.068-0.896-0.466-1.125l-2.222-1.282c-0.258-0.15-0.215-0.436-0.101-0.636 0.127-0.218 0.507-0.284 0.765-0.136l5.559 3.209c0.963 0.523 1.586 1.587 1.586 2.711v2z"></path>
</svg>
