<svg version="1.1" xmlns="http://www.w3.org/2000/svg" width="16" height="16" viewBox="0 0 16 16">
<title>hand-o-down</title>
<path d="M10 0h-2c-1.484 0-2.894 0.828-3.583 2.097l-3.204 5.548c-0.424 0.736-0.188 1.732 0.503 2.13 0.375 0.216 0.79 0.279 1.175 0.177 0.347-0.093 0.641-0.322 0.826-0.644l1.283-2.221v7.413c0 0.827 0.673 1.5 1.5 1.5s1.5-0.673 1.5-1.504c-0.010-1.062-0.020-2.526-0.021-3.603 0.165 0.069 0.34 0.107 0.521 0.107 0.747 0 1.333-0.461 1.47-1.111 0.167 0.071 0.345 0.111 0.53 0.111 0.747 0 1.333-0.461 1.47-1.111 0.167 0.071 0.345 0.111 0.53 0.111 0.855 0 1.5-0.604 1.5-1.405v-3.595c0-2.206-1.794-4-4-4zM13 7.595c0 0.299-0.27 0.405-0.5 0.405-0.252 0-0.5-0.294-0.5-0.595 0-0.276-0.224-0.5-0.5-0.5s-0.5 0.224-0.5 0.5v1.189c0 0.3-0.27 0.406-0.5 0.406-0.252 0-0.5-0.294-0.5-0.595 0-0.276-0.224-0.5-0.5-0.5s-0.5 0.224-0.5 0.5v1.189c0 0.3-0.27 0.406-0.5 0.406-0.252 0-0.5-0.294-0.5-0.595 0-0.167-0.084-0.324-0.224-0.417-0.138-0.092-0.313-0.108-0.47-0.044-0.142 0.059-0.227 0.095-0.276 0.461h-0.030l0.012 0.188c-0.051 0.641-0.038 1.985-0.012 4.907 0 0.276-0.225 0.5-0.5 0.5s-0.5-0.224-0.5-0.5v-7.413c0-0.459-0.298-0.847-0.742-0.966l-0.265-0.035c-0.351 0-0.676 0.184-0.858 0.501l-1.284 2.222c-0.055 0.095-0.126 0.153-0.22 0.178-0.122 0.034-0.273 0.005-0.415-0.078-0.219-0.126-0.286-0.505-0.137-0.764l3.21-5.559c0.523-0.963 1.588-1.586 2.711-1.586h2c1.654 0 3 1.346 3 3v3.595z"></path>
</svg>
