<svg version="1.1" xmlns="http://www.w3.org/2000/svg" width="16" height="16" viewBox="0 0 16 16">
<title>hand-pointer-o</title>
<path d="M12.5 7c-0.185 0-0.363 0.040-0.53 0.111-0.137-0.65-0.723-1.111-1.47-1.111-0.185 0-0.363 0.040-0.53 0.111-0.137-0.65-0.723-1.111-1.47-1.111-0.181 0-0.356 0.038-0.521 0.107 0.001-1.077 0.011-2.543 0.021-3.607 0-0.827-0.673-1.5-1.5-1.5s-1.5 0.673-1.5 1.5v7.413l-1.282-2.221c-0.4-0.694-1.262-0.895-2.002-0.468-0.692 0.399-0.926 1.395-0.502 2.131l3.196 5.535c0.695 1.282 2.105 2.11 3.59 2.11h2c2.206 0 4-1.794 4-4v-3.595c0-0.801-0.645-1.405-1.5-1.405zM13 12c0 1.654-1.346 3-3 3h-2c-1.124 0-2.188-0.623-2.718-1.598l-3.202-5.546c-0.15-0.261-0.083-0.64 0.135-0.766 0.093-0.053 0.203-0.090 0.309-0.090 0.126 0 0.247 0.052 0.328 0.191l1.282 2.221c0.229 0.398 0.677 0.587 1.124 0.468 0.444-0.119 0.742-0.507 0.742-0.967v-7.413c0-0.275 0.225-0.5 0.5-0.5s0.5 0.225 0.5 0.495c-0.026 2.926-0.039 4.27 0.012 4.911l-0.012 0.189h0.030c0.049 0.366 0.134 0.401 0.275 0.461 0.156 0.065 0.331 0.049 0.471-0.045 0.14-0.092 0.224-0.249 0.224-0.416 0-0.3 0.248-0.595 0.5-0.595 0.23 0 0.5 0.106 0.5 0.405v1.189c0 0.276 0.224 0.5 0.5 0.5s0.5-0.224 0.5-0.5c0-0.299 0.248-0.594 0.5-0.594 0.23 0 0.5 0.106 0.5 0.405v1.189c0 0.276 0.224 0.5 0.5 0.5s0.5-0.224 0.5-0.5c0-0.299 0.248-0.594 0.5-0.594 0.23 0 0.5 0.106 0.5 0.405v3.595z"></path>
</svg>
