<svg version="1.1" xmlns="http://www.w3.org/2000/svg" width="16" height="16" viewBox="0 0 16 16">
<title>hand-o-up</title>
<path d="M12.5 7c-0.185 0-0.364 0.040-0.53 0.111-0.137-0.65-0.723-1.111-1.47-1.111-0.185 0-0.364 0.040-0.53 0.111-0.137-0.65-0.723-1.111-1.47-1.111-0.181 0-0.357 0.038-0.521 0.107 0.001-1.077 0.011-2.543 0.021-3.607 0-0.827-0.673-1.5-1.5-1.5s-1.5 0.673-1.5 1.5v7.413l-1.282-2.221c-0.205-0.354-0.532-0.59-0.921-0.666-0.355-0.069-0.74 0.001-1.080 0.199-0.693 0.399-0.927 1.394-0.503 2.13l3.196 5.536c0.696 1.281 2.105 2.109 3.59 2.109h2c2.206 0 4-1.794 4-4v-3.595c0-0.801-0.645-1.405-1.5-1.405zM13 12c0 1.654-1.346 3-3 3h-2c-1.124 0-2.188-0.623-2.717-1.597l-3.203-5.547c-0.15-0.26-0.083-0.639 0.136-0.765 0.103-0.060 0.21-0.091 0.308-0.091l0.082 0.007c0.106 0.021 0.187 0.081 0.246 0.185l1.282 2.221c0.229 0.397 0.68 0.584 1.125 0.466 0.443-0.119 0.741-0.507 0.741-0.966v-7.413c0-0.276 0.224-0.5 0.5-0.5s0.5 0.224 0.5 0.496c-0.027 2.93-0.040 4.273 0.011 4.913l-0.011 0.186h0.030c0.048 0.365 0.133 0.401 0.274 0.461 0.154 0.065 0.332 0.049 0.472-0.044s0.224-0.25 0.224-0.417c0-0.301 0.248-0.595 0.5-0.595 0.23 0 0.5 0.106 0.5 0.405v1.189c0 0.276 0.224 0.5 0.5 0.5s0.5-0.224 0.5-0.5c0-0.3 0.248-0.594 0.5-0.594 0.23 0 0.5 0.106 0.5 0.405v1.189c0 0.276 0.224 0.5 0.5 0.5s0.5-0.224 0.5-0.5c0-0.3 0.248-0.594 0.5-0.594 0.23 0 0.5 0.106 0.5 0.405v3.595z"></path>
</svg>
