<svg version="1.1" xmlns="http://www.w3.org/2000/svg" width="16" height="16" viewBox="0 0 16 16">
<title>hand-peace-o</title>
<path d="M14 6.5c0-0.827-0.673-1.5-1.5-1.5-0.385 0-0.734 0.15-1 0.391-0.266-0.241-0.614-0.391-1-0.391-0.176 0-0.343 0.036-0.5 0.093v-3.593c0-0.827-0.673-1.5-1.5-1.5s-1.5 0.673-1.5 1.5v4.396c0 0.141-0.090 0.267-0.225 0.313-0.166 0.057-0.354-0.032-0.416-0.198l-1.51-4.1c-0.274-0.753-1.087-1.103-1.89-0.808-0.377 0.137-0.684 0.447-0.842 0.848-0.147 0.374-0.155 0.798-0.022 1.163l1.745 4.795c0.12 0.331 0.181 0.676 0.181 1.027v3.064c0 2.206 1.794 4 4 4h1.979c2.206 0 4-1.794 4-4v-5.5zM12.001 6.5c0-0.275 0.224-0.5 0.5-0.5s0.499 0.225 0.499 0.5v2c0 0.275-0.224 0.5-0.5 0.5s-0.5-0.225-0.5-0.5v-2zM10.5 6c0.276 0 0.5 0.225 0.5 0.5v2.592c-0.157-0.056-0.323-0.092-0.499-0.092h-0.5v-2.5c0-0.275 0.224-0.5 0.499-0.5zM10 15h-1.979c-1.654 0-3-1.346-3-3v-3.064c0-0.468-0.081-0.928-0.242-1.368l-1.744-4.796c-0.050-0.138-0.045-0.308 0.013-0.455 0.031-0.079 0.106-0.221 0.253-0.274 0.216-0.079 0.507-0.071 0.609 0.212l1.511 4.102c0.252 0.681 0.989 1.033 1.677 0.798 0.54-0.183 0.902-0.689 0.902-1.259v-4.396c0-0.275 0.225-0.5 0.5-0.5s0.5 0.225 0.5 0.5l0.001 7.5h-2.501c-0.276 0-0.5 0.224-0.5 0.5s0.224 0.5 0.5 0.5h4.001c0.275 0 0.5 0.225 0.5 0.5s-0.224 0.5-0.5 0.5h-2.357c-0.545 0-1.074 0.227-1.45 0.622l-0.507 0.533c-0.19 0.2-0.182 0.517 0.018 0.707 0.097 0.092 0.221 0.138 0.345 0.138 0.132 0 0.264-0.052 0.362-0.155l0.507-0.533c0.188-0.199 0.453-0.312 0.725-0.312h2.357c0.827 0 1.5-0.673 1.5-1.5 0-0.238-0.061-0.46-0.159-0.66 0.199 0.099 0.421 0.16 0.658 0.16 0.176 0 0.342-0.036 0.5-0.092v2.092c0 1.654-1.346 3-3 3z"></path>
</svg>
