<svg version="1.1" xmlns="http://www.w3.org/2000/svg" width="16" height="16" viewBox="0 0 16 16">
<title>hand-o-right</title>
<path d="M14.5 5h-7.413l2.221-1.282c0.354-0.205 0.59-0.532 0.666-0.921 0.069-0.355-0.001-0.739-0.199-1.080-0.399-0.693-1.395-0.928-2.13-0.503l-5.537 3.196c-1.28 0.696-2.108 2.105-2.108 3.59v2c0 2.206 1.794 4 4 4h3.595c0.801 0 1.405-0.645 1.405-1.5 0-0.185-0.040-0.364-0.111-0.53 0.65-0.137 1.111-0.723 1.111-1.47 0-0.185-0.040-0.364-0.111-0.53 0.65-0.137 1.111-0.723 1.111-1.47 0-0.181-0.038-0.357-0.107-0.521 1.077 0.001 2.543 0.011 3.607 0.021 0.827 0 1.5-0.673 1.5-1.5s-0.673-1.5-1.5-1.5zM14.504 7c-2.93-0.027-4.273-0.039-4.913 0.011l-0.186-0.011v0.030c-0.364 0.048-0.401 0.133-0.461 0.274-0.065 0.155-0.048 0.332 0.044 0.472s0.25 0.224 0.417 0.224c0.301 0 0.595 0.248 0.595 0.5 0 0.23-0.106 0.5-0.405 0.5h-1.19c-0.276 0-0.5 0.224-0.5 0.5s0.224 0.5 0.5 0.5c0.301 0 0.595 0.248 0.595 0.5 0 0.23-0.106 0.5-0.405 0.5h-1.19c-0.276 0-0.5 0.224-0.5 0.5s0.224 0.5 0.5 0.5c0.301 0 0.595 0.248 0.595 0.5 0 0.23-0.106 0.5-0.405 0.5h-3.595c-1.654 0-3-1.346-3-3v-2c0-1.124 0.623-2.188 1.597-2.717l5.547-3.203c0.095-0.055 0.206-0.080 0.315-0.080 0.188 0 0.371 0.078 0.45 0.217 0.077 0.132 0.106 0.271 0.083 0.389-0.020 0.105-0.080 0.186-0.184 0.246l-2.221 1.282c-0.398 0.229-0.585 0.681-0.466 1.125 0.119 0.443 0.507 0.741 0.966 0.741h7.413c0.276 0 0.5 0.224 0.5 0.5s-0.224 0.5-0.496 0.5z"></path>
</svg>
