<svg version="1.1" xmlns="http://www.w3.org/2000/svg" width="16" height="16" viewBox="0 0 16 16">
<title>hand-scissors-o</title>
<path d="M12 4.021h-3.065c-0.352 0-0.696-0.061-1.026-0.181l-4.794-1.745c-0.799-0.291-1.738 0.113-2.011 0.864-0.292 0.803 0.055 1.616 0.806 1.89l4.101 1.51c0.169 0.062 0.257 0.246 0.199 0.418-0.047 0.133-0.173 0.223-0.314 0.223h-4.396c-0.827 0-1.5 0.673-1.5 1.5s0.673 1.5 1.5 1.5h3.593c-0.057 0.157-0.093 0.324-0.093 0.5 0 0.386 0.15 0.734 0.39 1-0.24 0.266-0.39 0.615-0.39 1 0 0.827 0.673 1.5 1.5 1.5h5.5c2.206 0 4-1.794 4-4v-1.979c0-2.207-1.794-4-4-4zM9.092 11h-2.592c-0.276 0-0.5-0.225-0.5-0.5s0.224-0.499 0.5-0.499h2.5v0.5c0 0.176 0.037 0.342 0.092 0.499zM6.5 13c-0.276 0-0.5-0.225-0.5-0.5s0.224-0.499 0.5-0.499h2c0.275 0 0.5 0.224 0.5 0.499s-0.224 0.5-0.5 0.5h-2zM15 10c0 1.654-1.346 3-3 3h-2.092c0.056-0.157 0.092-0.324 0.092-0.5 0-0.238-0.061-0.46-0.16-0.66 0.2 0.099 0.422 0.16 0.66 0.16 0.827 0 1.5-0.673 1.5-1.499v-2.356c0-0.273 0.114-0.537 0.312-0.726l0.533-0.507c0.2-0.19 0.208-0.507 0.018-0.707s-0.507-0.207-0.707-0.018l-0.533 0.507c-0.396 0.376-0.623 0.905-0.623 1.451v2.356c0 0.275-0.225 0.499-0.5 0.499s-0.5-0.224-0.5-0.499v-4.001c0-0.276-0.223-0.5-0.5-0.5s-0.5 0.224-0.5 0.5v2.501l-7.5-0.001c-0.276 0-0.5-0.225-0.5-0.5s0.224-0.5 0.5-0.5h4.396c0.57 0 1.076-0.362 1.26-0.903 0.233-0.688-0.118-1.424-0.8-1.676l-4.103-1.511c-0.281-0.103-0.289-0.393-0.21-0.609 0.087-0.237 0.45-0.365 0.73-0.267l4.794 1.745c0.439 0.16 0.9 0.241 1.368 0.241h3.065c1.654 0 3 1.346 3 3v1.98z"></path>
</svg>
