<svg version="1.1" xmlns="http://www.w3.org/2000/svg" width="16" height="16" viewBox="0 0 16 16">
<title>hashtag</title>
<path d="M13.5 6h-2.226l0.709-2.359c0.080-0.265-0.070-0.543-0.335-0.622-0.261-0.081-0.543 0.070-0.622 0.335l-0.796 2.646h-2.956l0.709-2.359c0.080-0.265-0.070-0.543-0.335-0.622-0.264-0.081-0.543 0.070-0.622 0.335l-0.796 2.646h-2.73c-0.276 0-0.5 0.224-0.5 0.5s0.224 0.5 0.5 0.5h2.43l-0.901 3h-2.529c-0.276 0-0.5 0.224-0.5 0.5s0.224 0.5 0.5 0.5h2.228l-0.707 2.354c-0.080 0.265 0.070 0.543 0.335 0.622l0.144 0.021c0.215 0 0.414-0.14 0.479-0.356l0.793-2.641h2.957l-0.707 2.354c-0.080 0.265 0.070 0.543 0.335 0.622l0.144 0.021c0.215 0 0.414-0.14 0.479-0.356l0.792-2.641h2.728c0.276 0 0.5-0.224 0.5-0.5s-0.224-0.5-0.5-0.5h-2.428l0.901-3h2.527c0.276 0 0.5-0.224 0.5-0.5s-0.224-0.5-0.5-0.5zM9.029 10h-2.957l0.901-3h2.957l-0.901 3z"></path>
</svg>
