<svg version="1.1" xmlns="http://www.w3.org/2000/svg" width="16" height="16" viewBox="0 0 16 16">
<title>hdd-o</title>
<path d="M13 1h-10c-1.103 0-2 0.897-2 2v10c0 1.103 0.897 2 2 2h10c1.103 0 2-0.897 2-2v-10c0-1.103-0.897-2-2-2zM3 2h10c0.551 0 1 0.448 1 1v6.278c-0.295-0.172-0.634-0.278-1-0.278h-10c-0.366 0-0.705 0.106-1 0.278v-6.278c0-0.552 0.449-1 1-1zM14 13c0 0.552-0.449 1-1 1h-10c-0.551 0-1-0.448-1-1v-2c0-0.552 0.449-1 1-1h10c0.551 0 1 0.448 1 1v2z"></path>
<path d="M13 12c0 0.552-0.448 1-1 1s-1-0.448-1-1c0-0.552 0.448-1 1-1s1 0.448 1 1z"></path>
<path d="M10 12c0 0.552-0.448 1-1 1s-1-0.448-1-1c0-0.552 0.448-1 1-1s1 0.448 1 1z"></path>
</svg>
