<svg version="1.1" xmlns="http://www.w3.org/2000/svg" width="16" height="16" viewBox="0 0 16 16">
<title>headphones</title>
<path d="M8 0c-4.411 0-8 3.557-8 7.928 0 0.864 0.245 2.067 0.413 2.517 0.139 0.368 2.086 4.658 2.086 4.658 0.056 0.12 0.157 0.214 0.282 0.259l1.422 0.518c0.224 0.082 0.456 0.122 0.688 0.122 0.29 0 0.579-0.063 0.851-0.189l0.803-0.375c0.25-0.117 0.358-0.414 0.242-0.664l-2.558-5.485c-0.116-0.251-0.413-0.361-0.664-0.242l-0.803 0.374c-0.487 0.228-0.856 0.631-1.041 1.137l-0.085 0.233-0.287-0.698c-0.12-0.32-0.349-1.411-0.349-2.165 0-3.821 3.14-6.928 7-6.928s7 3.107 7 6.928c0 0.754-0.229 1.846-0.35 2.165l-0.287 0.698-0.085-0.233c-0.184-0.506-0.553-0.909-1.041-1.137l-0.803-0.374c-0.251-0.119-0.547-0.009-0.664 0.242l-2.557 5.483c-0.117 0.25-0.008 0.547 0.242 0.664l0.804 0.375c0.271 0.126 0.56 0.189 0.85 0.189 0.231 0 0.464-0.041 0.688-0.122l1.421-0.518c0.125-0.045 0.226-0.139 0.282-0.259 0 0 1.947-4.29 2.086-4.658 0.169-0.448 0.414-1.651 0.414-2.515 0-4.371-3.589-7.928-8-7.928zM2.661 10.899c0.091-0.251 0.282-0.46 0.523-0.572l0.35-0.163 2.135 4.578-0.349 0.163c-0.247 0.114-0.521 0.128-0.775 0.034l-1.227-0.447-1.104-2.366 0.447-1.227zM12.682 14.492l-1.226 0.447c-0.254 0.092-0.53 0.079-0.775-0.034l-0.35-0.163 2.135-4.578 0.35 0.163c0.242 0.112 0.433 0.321 0.524 0.572l0.446 1.227-1.104 2.366z"></path>
</svg>
