<svg version="1.1" xmlns="http://www.w3.org/2000/svg" width="16" height="16" viewBox="0 0 16 16">
<title>headset</title>
<path d="M9 15c0 0.552-0.448 1-1 1s-1-0.448-1-1c0-0.552 0.448-1 1-1s1 0.448 1 1z"></path>
<path d="M14.5 9h-0.5l-0.006-3.003c0-3.307-2.69-5.997-5.997-5.997s-5.997 2.69-5.997 5.997v3.003h-0.5c-0.276 0-0.5 0.224-0.5 0.5s0.224 0.5 0.5 0.5h0.5v0.5c0 0.651 0.419 1.201 1 1.408v0.592c0 1.378 1.121 2.5 2.5 2.5 0.276 0 0.5-0.224 0.5-0.5s-0.224-0.5-0.5-0.5c-0.827 0-1.5-0.673-1.5-1.5v-0.592c0.581-0.207 1-0.757 1-1.408v-2c0-0.827-0.673-1.5-1.5-1.5-0.176 0-0.343 0.036-0.5 0.092v-1.095c0-2.755 2.241-4.997 4.997-4.997s4.997 2.242 4.997 4.997v1.093c-0.155-0.054-0.32-0.090-0.494-0.090-0.827 0-1.5 0.673-1.5 1.5v2c0 0.827 0.673 1.5 1.5 1.5s1.5-0.673 1.5-1.5v-0.5h0.5c0.276 0 0.5-0.224 0.5-0.5s-0.224-0.5-0.5-0.5zM3.5 8c0.275 0 0.5 0.224 0.5 0.5v2c0 0.276-0.225 0.5-0.5 0.5s-0.5-0.224-0.5-0.5v-2c0-0.276 0.225-0.5 0.5-0.5zM13 10.5c0 0.276-0.225 0.5-0.5 0.5s-0.5-0.224-0.5-0.5v-2c0-0.276 0.225-0.5 0.5-0.5 0.265 0 0.478 0.209 0.494 0.471v0.029c0 0.010 0.005 0.019 0.006 0.029v1.971z"></path>
</svg>
