<svg version="1.1" xmlns="http://www.w3.org/2000/svg" width="16" height="16" viewBox="0 0 16 16">
<title>heart-o</title>
<path d="M14.824 3.176c-1.564-1.564-4.113-1.564-5.678 0l-1.146 1.146-1.146-1.146c-1.563-1.563-4.11-1.565-5.678 0-1.564 1.565-1.564 4.112 0 5.678l6.471 6.471c0.093 0.093 0.22 0.146 0.353 0.146s0.26-0.053 0.354-0.146l6.471-6.471c1.564-1.566 1.564-4.113-0.001-5.678zM14.117 8.146l-6.117 6.118-6.117-6.118c-1.174-1.176-1.174-3.088 0-4.264 0.588-0.587 1.36-0.881 2.132-0.881s1.544 0.294 2.132 0.881l1.5 1.5c0.195 0.195 0.512 0.195 0.707 0l1.5-1.5c1.176-1.174 3.088-1.174 4.264 0 1.173 1.177 1.173 3.089-0.001 4.264z"></path>
</svg>
