<svg version="1.1" xmlns="http://www.w3.org/2000/svg" width="16" height="16" viewBox="0 0 16 16">
<title>heartbeat</title>
<path d="M1.28 8.958l0.606-0.808-0.003-0.004c-1.175-1.176-1.175-3.088 0-4.264 0.588-0.587 1.36-0.881 2.132-0.881s1.544 0.294 2.132 0.881l1.5 1.5c0.195 0.195 0.512 0.195 0.707 0l1.5-1.5c1.176-1.174 3.088-1.174 4.263 0 0.57 0.57 0.883 1.328 0.883 2.133 0 0.806-0.313 1.562-0.883 2.132l-0.004 0.004 0.606 0.808 0.105-0.105c0.759-0.758 1.176-1.766 1.176-2.839 0-1.072-0.417-2.080-1.176-2.839-1.565-1.566-4.112-1.564-5.678 0l-1.146 1.146-1.146-1.146c-1.565-1.566-4.112-1.564-5.678 0-1.564 1.565-1.564 4.112 0 5.678l0.104 0.104zM10.94 11.323l-2.94 2.941-3.971-3.971-0.606 0.807 4.224 4.224c0.093 0.094 0.22 0.147 0.353 0.147s0.26-0.053 0.354-0.146l4.222-4.222-0.606-0.808-1.030 1.028zM15.5 10h-1.25l-2.85-3.8c-0.188-0.252-0.611-0.252-0.8 0l-2.6 3.467-2.6-3.467c-0.094-0.126-0.243-0.2-0.4-0.2s-0.306 0.074-0.4 0.2l-2.85 3.797h-1.25c-0.276 0-0.5 0.224-0.5 0.5s0.224 0.5 0.5 0.5h1.5c0.157 0 0.306-0.074 0.4-0.2l2.6-3.464 2.6 3.467c0.188 0.252 0.611 0.252 0.8 0l2.6-3.467 2.6 3.467c0.094 0.126 0.243 0.2 0.4 0.2h1.5c0.276 0 0.5-0.224 0.5-0.5s-0.224-0.5-0.5-0.5z"></path>
</svg>
