<svg id="Layer_1" data-name="Layer 1" xmlns="http://www.w3.org/2000/svg" width="16" height="16" viewBox="0 0 16 16"><path d="M13.75,15a1,1,0,1,1-1-1A1,1,0,0,1,13.75,15Zm-12-5a1,1,0,1,0,1,1A1,1,0,0,0,1.75,10Zm13-3a1,1,0,1,0,1,1A1,1,0,0,0,14.75,7ZM2.5,8A2.5,2.5,0,1,1,5,5.5,2.5,2.5,0,0,1,2.5,8Zm0-1A1.5,1.5,0,1,0,1,5.5,1.5,1.5,0,0,0,2.5,7ZM6.75,4a1,1,0,1,0-1-1A1,1,0,0,0,6.75,4Zm2-1.5A2.5,2.5,0,1,1,11.25,5,2.5,2.5,0,0,1,8.75,2.5Zm1,0A1.5,1.5,0,1,0,11.25,1,1.5,1.5,0,0,0,9.75,2.5ZM4.75,14a1,1,0,1,0,1,1A1,1,0,0,0,4.75,14Zm8-4a4,4,0,1,1-4-4A4,4,0,0,1,12.75,10Zm-1,0a3,3,0,1,0-3,3A3,3,0,0,0,11.75,10Z"/></svg>