<svg version="1.1" xmlns="http://www.w3.org/2000/svg" width="16" height="16" viewBox="0 0 16 16">
<title>helicopter</title>
<path d="M15.264 7.559l-0.826-0.822c-0.472-0.47-1.098-0.729-1.764-0.729h-0.174v-0.008h-0.694l-0.858-1.723c-0.085-0.17-0.259-0.277-0.448-0.277h-1.5v-1h4.5c0.276 0 0.5-0.224 0.5-0.5s-0.224-0.5-0.5-0.5h-10c-0.276 0-0.5 0.224-0.5 0.5s0.224 0.5 0.5 0.5h4.5v1h-0.5c-0.133 0-0.26 0.053-0.354 0.146l-1.853 1.854h-1.121l-1.815-1.857c-0.093-0.097-0.222-0.151-0.357-0.151h-1.5c-0.154 0-0.299 0.071-0.395 0.192-0.094 0.122-0.127 0.28-0.090 0.429l0.734 2.941c0.207 0.834 0.818 1.495 1.635 1.767l1.51 0.504c0.22 0.073 0.423 0.198 0.587 0.362l1.080 1.080c0.472 0.473 1.099 0.733 1.767 0.733h2.672v1h-2.5c-0.276 0-0.5 0.224-0.5 0.5s0.224 0.5 0.5 0.5h6c0.276 0 0.5-0.224 0.5-0.5s-0.224-0.5-0.5-0.5h-2.5v-1h2.793c0.59 0 1.144-0.229 1.561-0.646s0.646-0.972 0.646-1.561v-0.462c0-0.67-0.262-1.299-0.736-1.772zM13.732 7.445l0.558 0.555h-5.29v-1h2.473c0.010 0.001 0.018 0.008 0.027 0.008h1.174c0.399 0 0.775 0.155 1.058 0.437zM15 9.793c0 0.322-0.126 0.625-0.354 0.854s-0.531 0.353-0.853 0.353h-6.465c-0.395 0-0.781-0.16-1.061-0.439l-1.080-1.080c-0.273-0.274-0.611-0.483-0.977-0.605l-1.51-0.503c-0.489-0.164-0.856-0.56-0.98-1.060l-0.579-2.321h0.648l1.814 1.857c0.094 0.097 0.223 0.151 0.358 0.151h1.539c0.133 0 0.26-0.053 0.354-0.146l1.853-1.854h2.483l0.498 1h-2.188c-0.276 0-0.5 0.224-0.5 0.5v2c0 0.276 0.224 0.5 0.5 0.5h6.46c0.025 0.108 0.040 0.218 0.040 0.331v0.462z"></path>
</svg>
