<svg version="1.1" xmlns="http://www.w3.org/2000/svg" width="16" height="16" viewBox="0 0 16 16">
<title>hero</title>
<path d="M14 1h-12c-0.552 0-1 0.448-1 1v0 7c0 0.552 0.448 1 1 1v0h12c0.552 0 1-0.448 1-1v0-7c0-0.552-0.448-1-1-1v0zM14 9.5v-0.5h-12v-7h12v7z"></path>
<path d="M6.5 12h-4c-0.276 0-0.5 0.224-0.5 0.5s0.224 0.5 0.5 0.5v0h4c0.276 0 0.5-0.224 0.5-0.5s-0.224-0.5-0.5-0.5v0z"></path>
<path d="M6.5 14h-4c-0.276 0-0.5 0.224-0.5 0.5s0.224 0.5 0.5 0.5v0h4c0.276 0 0.5-0.224 0.5-0.5s-0.224-0.5-0.5-0.5v0z"></path>
<path d="M13.5 12h-4c-0.276 0-0.5 0.224-0.5 0.5s0.224 0.5 0.5 0.5v0h4c0.276 0 0.5-0.224 0.5-0.5s-0.224-0.5-0.5-0.5v0z"></path>
<path d="M13.5 14h-4c-0.276 0-0.5 0.224-0.5 0.5s0.224 0.5 0.5 0.5v0h4c0.276 0 0.5-0.224 0.5-0.5s-0.224-0.5-0.5-0.5v0z"></path>
</svg>
