<svg version="1.1" xmlns="http://www.w3.org/2000/svg" width="16" height="16" viewBox="0 0 16 16">
<title>hipster</title>
<path d="M15.901 10.939c-0.127-0.169-0.344-0.24-0.548-0.179-0.534 0.164-1.093 0.24-1.76 0.24-0.793 0-1.17-0.376-1.646-0.854-0.511-0.51-1.147-1.146-2.354-1.146-0.591 0-1.149 0.211-1.593 0.594-0.444-0.383-1.002-0.594-1.593-0.594-1.207 0-1.843 0.636-2.353 1.146-0.477 0.478-0.854 0.854-1.647 0.854-0.667 0-1.227-0.076-1.761-0.24-0.205-0.062-0.421 0.010-0.548 0.179-0.126 0.169-0.132 0.4-0.015 0.576 1.051 1.579 2.627 2.485 4.324 2.485 1.214 0 2.35-0.481 3.197-1.355 0.221-0.226 0.57-0.226 0.791 0 0.848 0.874 1.984 1.355 3.198 1.355 1.697 0 3.273-0.906 4.323-2.485 0.117-0.176 0.111-0.406-0.015-0.576zM9.112 11.948c-0.299-0.308-0.694-0.478-1.112-0.478s-0.813 0.17-1.112 0.479c-1.321 1.36-3.584 1.345-5.087 0.031 0.196 0.013 0.398 0.020 0.606 0.020 1.207 0 1.843-0.636 2.354-1.146 0.476-0.478 0.853-0.854 1.646-0.854 0.466 0 0.899 0.227 1.189 0.622 0.189 0.256 0.617 0.256 0.807 0 0.29-0.395 0.724-0.622 1.19-0.622 0.793 0 1.17 0.376 1.646 0.854 0.511 0.51 1.147 1.146 2.354 1.146 0.208 0 0.41-0.007 0.606-0.021-1.504 1.314-3.767 1.33-5.087-0.031z"></path>
<path d="M0.609 3.546l0.555 2.496c0.256 1.153 1.26 1.958 2.44 1.958h0.659c0.954 0 1.81-0.529 2.237-1.382l1.309-2.618h0.383l1.308 2.618c0.427 0.853 1.283 1.382 2.236 1.382h0.659c1.181 0 2.185-0.805 2.44-1.958l0.555-2.496c0.244 0.056 0.492-0.070 0.58-0.31 0.094-0.259-0.041-0.546-0.301-0.64-1.081-0.39-2.35-0.596-3.669-0.596-1.483 0-2.586 0.3-3.652 1h-0.696c-1.066-0.7-2.169-1-3.652-1-1.319 0-2.588 0.206-3.67 0.597-0.26 0.094-0.395 0.38-0.301 0.64 0.088 0.24 0.336 0.364 0.58 0.309zM14.426 3.276l-0.567 2.55c-0.153 0.691-0.755 1.174-1.463 1.174h-0.659c-0.572 0-1.086-0.318-1.342-0.829l-1.239-2.477c0.822-0.477 1.676-0.694 2.844-0.694 0.851 0 1.672 0.097 2.426 0.276zM6.844 3.694l-1.239 2.477c-0.255 0.511-0.769 0.829-1.341 0.829h-0.66c-0.708 0-1.31-0.483-1.463-1.174l-0.567-2.55c0.754-0.179 1.575-0.276 2.426-0.276 1.168 0 2.022 0.217 2.844 0.694z"></path>
</svg>
