<svg version="1.1" xmlns="http://www.w3.org/2000/svg" width="16" height="16" viewBox="0 0 16 16">
<title>history</title>
<path d="M8 0.032c-4.411 0-8 3.578-8 7.976 0 1.82 0.766 3.545 2.146 4.846l1.147 1.146h-2.793c-0.276 0-0.5 0.224-0.5 0.5s0.224 0.5 0.5 0.5h4c0.276 0 0.5-0.224 0.5-0.5v-4c0-0.276-0.224-0.5-0.5-0.5s-0.5 0.224-0.5 0.5v2.793l-1.157-1.157c-1.189-1.12-1.843-2.586-1.843-4.128 0-3.847 3.14-6.976 7-6.976s7 3.129 7 6.976-3.14 6.976-7 6.976c-0.276 0-0.5 0.224-0.5 0.5s0.224 0.5 0.5 0.5c4.411 0 8-3.578 8-7.976s-3.589-7.976-8-7.976zM12.5 9c0.276 0 0.5-0.224 0.5-0.5s-0.224-0.5-0.5-0.5h-4.5v-4.5c0-0.276-0.224-0.5-0.5-0.5s-0.5 0.224-0.5 0.5v5c0 0.276 0.224 0.5 0.5 0.5h5z"></path>
</svg>
