<svg version="1.1" xmlns="http://www.w3.org/2000/svg" width="16" height="16" viewBox="0 0 16 16">
<title>home</title>
<path d="M15.841 8.135l-7.5-7c-0.089-0.083-0.209-0.135-0.341-0.135s-0.252 0.051-0.342 0.135l0-0-7.5 7c-0.108 0.092-0.175 0.228-0.175 0.38 0 0.276 0.224 0.5 0.5 0.5 0.14 0 0.266-0.057 0.357-0.15l0-0 1.16-1.081v6.716c0 0.276 0.224 0.5 0.5 0.5v0h4c0.276 0 0.5-0.224 0.5-0.5v0-3.5h2v3.5c0 0.276 0.224 0.5 0.5 0.5v0h4c0.276 0 0.5-0.224 0.5-0.5v0-6.716l1.159 1.081c0.091 0.093 0.217 0.15 0.357 0.15 0.276 0 0.5-0.224 0.5-0.5 0-0.152-0.068-0.288-0.175-0.38l-0.001-0.001zM13 14h-3v-3.5c0-0.276-0.224-0.5-0.5-0.5v0 0h-3c-0.276 0-0.5 0.224-0.5 0.5v0 3.5h-3v-7.149l5-4.667 5 4.666z"></path>
</svg>
