<svg version="1.1" xmlns="http://www.w3.org/2000/svg" width="16" height="16" viewBox="0 0 16 16">
<title>hospital-o</title>
<path d="M15.5 4h-3.315l-3.36-2.879c-0.187-0.161-0.464-0.161-0.65 0l-3.36 2.879h-3.315c-0.276 0-0.5 0.224-0.5 0.5v9c0 0.276 0.224 0.5 0.5 0.5h14c0.276 0 0.5-0.224 0.5-0.5v-9c0-0.276-0.224-0.5-0.5-0.5zM8 13v-3h1v3h-1zM15 13h-5v-3.5c0-0.276-0.224-0.5-0.5-0.5h-2c-0.276 0-0.5 0.224-0.5 0.5v3.5h-5v-8h3c0.119 0 0.235-0.042 0.325-0.121l3.175-2.72 3.175 2.721c0.090 0.078 0.206 0.12 0.325 0.12h3v8zM5 9h1v1h-1zM5 11h1v1h-1zM3 9h1v1h-1zM3 11h1v1h-1zM11 9h1v1h-1zM11 11h1v1h-1zM13 9h1v1h-1zM5 7h1v1h-1zM3 7h1v1h-1zM11 7h1v1h-1zM13 7h1v1h-1zM13 11h1v1h-1zM9 4h-1v1h-1v1h1v1h1v-1h1v-1h-1z"></path>
</svg>
