<svg version="1.1" xmlns="http://www.w3.org/2000/svg" width="16" height="16" viewBox="0 0 16 16">
<title>hotel</title>
<path d="M15 7.269v-4.269c0-1.105-0.895-2-2-2v0h-10c-1.105 0-2 0.895-2 2v0 4.269c-0.602 0.352-1 0.995-1 1.731v4.5c0 0.276 0.224 0.5 0.5 0.5v0h2c0.194 0 0.363-0.111 0.446-0.273l0.001-0.003 0.586-1.171c0.166-0.33 0.502-0.553 0.891-0.553 0.001 0 0.002 0 0.003 0h7.146c0.001 0 0.002 0 0.003 0 0.388 0 0.725 0.223 0.888 0.547l0.003 0.006 0.586 1.171c0.084 0.165 0.253 0.276 0.447 0.276h2c0.276 0 0.5-0.224 0.5-0.5v0-4.5c-0-0.736-0.398-1.379-0.991-1.726l-0.009-0.005zM2 3c0-0.552 0.448-1 1-1v0h10c0.552 0 1 0.448 1 1v0 4h-1v-1.555c0-0 0-0 0-0.001 0-0.192-0.109-0.36-0.268-0.443l-0.003-0.001c-1.317-0.633-2.863-1.003-4.496-1.003-0.082 0-0.164 0.001-0.245 0.003l0.012-0c-0.069-0.002-0.151-0.003-0.233-0.003-1.633 0-3.179 0.37-4.56 1.030l0.064-0.027c-0.162 0.085-0.271 0.252-0.271 0.444 0 0 0 0 0 0.001v-0 1.555h-1zM12 7h-8v-1.241c1.188-0.46 2.563-0.726 4-0.726s2.812 0.266 4.078 0.752l-0.078-0.026zM15 13h-1.191l-0.447-0.895c-0.333-0.66-1.006-1.105-1.783-1.105-0.002 0-0.004 0-0.006 0h-7.146c-0.002 0-0.004-0-0.006-0-0.777 0-1.45 0.445-1.778 1.094l-0.005 0.011-0.447 0.895h-1.191v-4c0-0.552 0.448-1 1-1v0h12c0.552 0 1 0.448 1 1v0z"></path>
</svg>
