<svg version="1.1" xmlns="http://www.w3.org/2000/svg" width="16" height="16" viewBox="0 0 16 16">
<title>hourglass-end</title>
<path d="M11.4 7.277c1.294-1.063 2.6-2.953 2.6-4.777v-0.5c0-1.103-0.981-2-2.188-2h-6.624c-1.207 0-2.188 0.897-2.188 2v0.5c0 1.824 1.306 3.714 2.6 4.776 0.247 0.203 0.4 0.481 0.4 0.724s-0.153 0.521-0.4 0.723c-1.294 1.063-2.6 2.953-2.6 4.777v0.5c0 1.103 0.981 2 2.188 2h6.625c1.206 0 2.187-0.897 2.187-2v-0.5c0-1.824-1.306-3.714-2.6-4.776-0.247-0.203-0.4-0.481-0.4-0.724s0.153-0.521 0.4-0.723zM10.765 9.496c1.316 1.080 2.235 2.728 2.235 4.004v0.5c0 0.552-0.533 1-1.188 1h-6.624c-0.655 0-1.188-0.448-1.188-1v-0.5c0-1.276 0.919-2.924 2.235-4.005 0.479-0.393 0.765-0.953 0.765-1.495s-0.286-1.102-0.765-1.496c-1.316-1.080-2.235-2.728-2.235-4.004v-0.5c0-0.552 0.533-1 1.188-1h6.625c0.654 0 1.187 0.448 1.187 1v0.5c0 1.276-0.919 2.924-2.235 4.005-0.479 0.393-0.765 0.953-0.765 1.495s0.286 1.102 0.765 1.496z"></path>
<path d="M11 13.5c0 0.276-0.224 0.5-0.5 0.5s-0.5-0.224-0.5-0.5c0-0.276 0.224-0.5 0.5-0.5s0.5 0.224 0.5 0.5z"></path>
<path d="M9 13.5c0 0.276-0.224 0.5-0.5 0.5s-0.5-0.224-0.5-0.5c0-0.276 0.224-0.5 0.5-0.5s0.5 0.224 0.5 0.5z"></path>
<path d="M7 13.5c0 0.276-0.224 0.5-0.5 0.5s-0.5-0.224-0.5-0.5c0-0.276 0.224-0.5 0.5-0.5s0.5 0.224 0.5 0.5z"></path>
<path d="M10 11.5c0 0.276-0.224 0.5-0.5 0.5s-0.5-0.224-0.5-0.5c0-0.276 0.224-0.5 0.5-0.5s0.5 0.224 0.5 0.5z"></path>
<path d="M8 11.5c0 0.276-0.224 0.5-0.5 0.5s-0.5-0.224-0.5-0.5c0-0.276 0.224-0.5 0.5-0.5s0.5 0.224 0.5 0.5z"></path>
<path d="M9 9.5c0 0.276-0.224 0.5-0.5 0.5s-0.5-0.224-0.5-0.5c0-0.276 0.224-0.5 0.5-0.5s0.5 0.224 0.5 0.5z"></path>
</svg>
