<svg version="1.1" xmlns="http://www.w3.org/2000/svg" width="16" height="16" viewBox="0 0 16 16">
<title>id-card</title>
<path d="M14 2h-12c-1.105 0-2 0.895-2 2v0 8c0 1.105 0.895 2 2 2v0h12c1.105 0 2-0.895 2-2v0-8c0-1.105-0.895-2-2-2v0zM8 12h-5v-0.7c0.001-0.422 0.26-0.784 0.628-0.936l0.007-0.002c0.552-0.227 1.193-0.359 1.865-0.359s1.313 0.132 1.899 0.371l-0.034-0.012c0.375 0.154 0.634 0.516 0.635 0.938v0zM4 7.5v0c0-0.828 0.672-1.5 1.5-1.5s1.5 0.672 1.5 1.5v0 0c0 0.828-0.672 1.5-1.5 1.5s-1.5-0.672-1.5-1.5v0zM12.5 11h-3c-0.276 0-0.5-0.224-0.5-0.5s0.224-0.5 0.5-0.5v0h3c0.276 0 0.5 0.224 0.5 0.5s-0.224 0.5-0.5 0.5v0zM12.5 8h-3c-0.276 0-0.5-0.224-0.5-0.5s0.224-0.5 0.5-0.5v0h3c0.276 0 0.5 0.224 0.5 0.5s-0.224 0.5-0.5 0.5v0zM13.5 5h-11c-0.276 0-0.5-0.224-0.5-0.5s0.224-0.5 0.5-0.5v0h11c0.276 0 0.5 0.224 0.5 0.5s-0.224 0.5-0.5 0.5v0z"></path>
</svg>
