<svg version="1.1" xmlns="http://www.w3.org/2000/svg" width="16" height="16" viewBox="0 0 16 16">
<title>inbox</title>
<path d="M14.98 8.362l-2-7c-0.061-0.214-0.256-0.362-0.48-0.362h-9c-0.224 0-0.419 0.148-0.48 0.362l-2 7-0.020 0.138v6c0 0.276 0.224 0.5 0.5 0.5h13c0.276 0 0.5-0.224 0.5-0.5v-6l-0.020-0.138zM3.877 2h8.246l1.714 6h-3.337c-0.133 0-0.261 0.053-0.354 0.147s-0.147 0.222-0.146 0.355l0.002 0.498c0 1.103-0.898 2-2.002 2-1.068 0-1.946-0.834-1.998-1.877l-0.002-0.625c-0.001-0.275-0.225-0.498-0.5-0.498h-3.337l1.714-6zM2 14v-5h3.002l0.001 0.149c0.077 1.599 1.394 2.851 2.997 2.851 1.654 0 3.001-1.345 3.002-3h2.998v5h-12z"></path>
</svg>
