<svg version="1.1" xmlns="http://www.w3.org/2000/svg" width="16" height="16" viewBox="0 0 16 16">
<title>indent</title>
<path d="M1.5 2.997h13c0.276 0 0.5-0.224 0.5-0.5s-0.224-0.5-0.5-0.5h-13c-0.276 0-0.5 0.224-0.5 0.5s0.224 0.5 0.5 0.5zM14.5 5.997h-7c-0.276 0-0.5 0.224-0.5 0.5s0.224 0.5 0.5 0.5h7c0.276 0 0.5-0.224 0.5-0.5s-0.224-0.5-0.5-0.5zM14.5 9.997h-7c-0.276 0-0.5 0.224-0.5 0.5s0.224 0.5 0.5 0.5h7c0.276 0 0.5-0.224 0.5-0.5s-0.224-0.5-0.5-0.5zM14.601 13.997h-13c-0.276 0-0.5 0.224-0.5 0.5s0.224 0.5 0.5 0.5h13c0.276 0 0.5-0.224 0.5-0.5s-0.224-0.5-0.5-0.5zM1.146 11.854c0.098 0.097 0.226 0.146 0.354 0.146s0.256-0.049 0.354-0.146l3-3c0.195-0.195 0.195-0.512 0-0.707l-3-3c-0.195-0.195-0.512-0.195-0.707 0s-0.195 0.512 0 0.707l2.646 2.646-2.646 2.646c-0.196 0.196-0.196 0.512-0.001 0.708z"></path>
</svg>
