<svg version="1.1" xmlns="http://www.w3.org/2000/svg" width="16" height="16" viewBox="0 0 16 16">
<title>industry</title>
<path d="M14.744 4.064c-0.070-0.039-0.154-0.062-0.244-0.062-0.094 0-0.183 0.026-0.259 0.071l0.002-0.001-4.244 2.545v-2.116c0-0 0-0 0-0 0-0.276-0.224-0.5-0.5-0.5-0.095 0-0.184 0.026-0.259 0.072l0.002-0.001-4.243 2.546v-5.117c0-0.276-0.224-0.5-0.5-0.5v0h-3c-0.276 0-0.5 0.224-0.5 0.5v0c-0 0.009-0.001 0.019-0.001 0.030s0 0.021 0.001 0.031l-0-0.001v12.941c0 0.276 0.224 0.5 0.5 0.5v0h13c0.276 0 0.5-0.224 0.5-0.5v0-10c-0-0.186-0.102-0.349-0.254-0.435l-0.002-0.001zM14 14h-12v-12h2v5.5c0 0 0 0 0 0 0 0.276 0.224 0.5 0.5 0.5 0.095 0 0.184-0.026 0.259-0.072l-0.002 0.001 4.243-2.546v2.117c0 0 0 0 0 0 0 0.276 0.224 0.5 0.5 0.5 0.095 0 0.184-0.026 0.259-0.072l-0.002 0.001 4.243-2.545z"></path>
<path d="M4 10h2v2h-2v-2z"></path>
<path d="M7 10h2v2h-2v-2z"></path>
<path d="M10 10h2v2h-2v-2z"></path>
</svg>
