<svg version="1.1" xmlns="http://www.w3.org/2000/svg" width="16" height="16" viewBox="0 0 16 16">
<title>info-circle</title>
<path d="M8 0c-4.418 0-8 3.582-8 8s3.582 8 8 8c4.418 0 8-3.582 8-8v0c-0.005-4.416-3.584-7.995-8-8h-0zM8 4c0.552 0 1 0.448 1 1s-0.448 1-1 1c-0.552 0-1-0.448-1-1v0c0-0.552 0.448-1 1-1v0zM9.5 12h-3c-0.276 0-0.5-0.224-0.5-0.5s0.224-0.5 0.5-0.5v0h0.5v-3h-0.5c-0.276 0-0.5-0.224-0.5-0.5s0.224-0.5 0.5-0.5v0h2c0.276 0 0.5 0.224 0.5 0.5v0 3.5h0.5c0.276 0 0.5 0.224 0.5 0.5s-0.224 0.5-0.5 0.5v0z"></path>
</svg>
