<svg version="1.1" xmlns="http://www.w3.org/2000/svg" width="16" height="16" viewBox="0 0 16 16">
<title>key-alt</title>
<path d="M13.268 3.732l-2-2c-0.943-0.944-2.592-0.944-3.535 0-0.473 0.472-0.733 1.1-0.733 1.768s0.26 1.295 0.732 1.768l0.646 0.646-6.211 6.211c-0.104 0.094-0.167 0.229-0.167 0.375 0 0.151 0.068 0.291 0.18 0.384l1.966 1.966c0.098 0.098 0.226 0.146 0.354 0.146s0.256-0.049 0.354-0.146c0.195-0.195 0.195-0.512 0-0.707l-1.645-1.645 1.293-1.293 1.645 1.645c0.098 0.098 0.226 0.146 0.354 0.146s0.256-0.049 0.354-0.146c0.195-0.195 0.195-0.512 0-0.707l-1.645-1.645 3.877-3.877 0.646 0.646c0.471 0.473 1.099 0.733 1.767 0.733s1.296-0.26 1.768-0.732c0.472-0.472 0.732-1.1 0.732-1.768s-0.26-1.296-0.732-1.768zM12.561 6.561c-0.566 0.566-1.555 0.566-2.121 0l-2-2c-0.284-0.284-0.44-0.66-0.44-1.061s0.156-0.777 0.439-1.061 0.66-0.439 1.061-0.439 0.777 0.156 1.061 0.439l2 2c0.283 0.284 0.439 0.66 0.439 1.061s-0.156 0.777-0.439 1.061z"></path>
</svg>
