<svg version="1.1" xmlns="http://www.w3.org/2000/svg" width="16" height="16" viewBox="0 0 16 16">
<title>key</title>
<path d="M6 5c0 0.552-0.448 1-1 1s-1-0.448-1-1c0-0.552 0.448-1 1-1s1 0.448 1 1z"></path>
<path d="M15.121 10.414l-4.056-4.056c0.038-0.213 0.061-0.413 0.068-0.604 0.070-1.533-0.479-2.982-1.543-4.081-1.047-1.081-2.446-1.673-3.935-1.673h-0.078c-1.516-0.031-2.961 0.573-4.026 1.672s-1.614 2.549-1.545 4.082c0.087 1.932 1.297 3.718 3.157 4.663 1.267 0.642 2.541 0.755 3.888 0.341l1.096 1.095c0.093 0.094 0.22 0.147 0.353 0.147h1.5v1.5c0 0.276 0.224 0.5 0.5 0.5h1.5v1.5c0 0.276 0.224 0.5 0.5 0.5h3c0.276 0 0.5-0.224 0.5-0.5v-2.964c0-0.79-0.32-1.563-0.879-2.122zM15 15h-2v-1.5c0-0.276-0.224-0.5-0.5-0.5h-1.5v-1.5c0-0.276-0.224-0.5-0.5-0.5h-1.793l-1.168-1.167c-0.138-0.139-0.342-0.182-0.524-0.117-1.185 0.431-2.299 0.367-3.398-0.19-1.54-0.782-2.541-2.245-2.612-3.816-0.057-1.256 0.391-2.443 1.264-3.342 0.871-0.899 2.050-1.399 3.308-1.368 1.264-0.022 2.424 0.469 3.295 1.368s1.32 2.085 1.263 3.341c-0.009 0.211-0.042 0.441-0.101 0.701-0.038 0.167 0.013 0.343 0.134 0.464l4.246 4.246c0.372 0.374 0.586 0.889 0.586 1.416v2.464z"></path>
</svg>
