<svg version="1.1" xmlns="http://www.w3.org/2000/svg" width="16" height="16" viewBox="0 0 16 16">
<title>language</title>
<path d="M7.143 9.85c0.097 0.1 0.227 0.15 0.357 0.15 0.125 0 0.25-0.047 0.348-0.141 0.199-0.192 0.204-0.509 0.012-0.707-0.070-0.072-0.211-0.177-0.417-0.32-0.276-0.191-0.679-0.476-1.156-0.889 1.126-1.588 1.521-3.18 1.649-3.943h1.564c0.276 0 0.5-0.224 0.5-0.5s-0.224-0.5-0.5-0.5h-3.5v-1.5c0-0.276-0.224-0.5-0.5-0.5s-0.5 0.224-0.5 0.5v1.5h-3.5c-0.276 0-0.5 0.224-0.5 0.5s0.224 0.5 0.5 0.5h5.416c-0.138 0.692-0.497 1.959-1.372 3.242-0.506-0.521-1.060-1.178-1.63-2.021-0.154-0.23-0.464-0.29-0.694-0.136-0.229 0.155-0.289 0.466-0.135 0.695 0.642 0.949 1.273 1.681 1.845 2.257-0.657 0.75-1.515 1.462-2.649 2.013-0.248 0.121-0.352 0.42-0.231 0.668 0.087 0.178 0.265 0.282 0.45 0.282 0.073 0 0.148-0.016 0.218-0.050 1.261-0.613 2.217-1.397 2.949-2.223 0.51 0.44 0.934 0.739 1.204 0.927l0.272 0.196zM14.958 14.3l-3.5-8c-0.159-0.364-0.757-0.364-0.916 0l-3.5 8c-0.111 0.253 0.004 0.547 0.258 0.658 0.251 0.111 0.547-0.005 0.658-0.258l1.181-2.7h3.721l1.181 2.7c0.082 0.188 0.266 0.3 0.458 0.3l0.2-0.042c0.255-0.111 0.37-0.405 0.259-0.658zM9.577 11l1.423-3.252 1.423 3.252h-2.846z"></path>
</svg>
