<svg version="1.1" xmlns="http://www.w3.org/2000/svg" width="16" height="16" viewBox="0 0 16 16">
<title>laptop</title>
<path d="M15.91 13.080l-0.91-3.642v-7.438c0-0.552-0.448-1-1-1v0h-12c-0.552 0-1 0.448-1 1v0 7.438l-0.91 3.641c-0.057 0.218-0.090 0.468-0.090 0.726 0 0.001 0 0.002 0 0.003v-0 0.692c0 0.276 0.224 0.5 0.5 0.5v0h15c0.276 0 0.5-0.224 0.5-0.5v0-0.692c0-0.001 0-0.002 0-0.003 0-0.257-0.033-0.507-0.095-0.745l0.005 0.021zM14 2v7h-12v-7zM15 14h-14v-0.192c0-0.001 0-0.001 0-0.002 0-0.172 0.022-0.339 0.063-0.498l-0.003 0.014 0.83-3.322h12.22l0.83 3.323c0.038 0.145 0.060 0.311 0.060 0.482 0 0.001 0 0.002 0 0.003v-0z"></path>
<path d="M8.5 12h-1c-0.276 0-0.5 0.224-0.5 0.5s0.224 0.5 0.5 0.5v0h1c0.276 0 0.5-0.224 0.5-0.5s-0.224-0.5-0.5-0.5v0z"></path>
</svg>
