<svg version="1.1" xmlns="http://www.w3.org/2000/svg" width="16" height="16" viewBox="0 0 16 16">
<title>layers</title>
<path d="M1.256 5.436l6.026 3.375c0.224 0.127 0.471 0.19 0.718 0.19s0.494-0.063 0.718-0.189l6.026-3.375c0.158-0.089 0.256-0.256 0.256-0.437s-0.098-0.348-0.256-0.436l-6.025-3.376c-0.45-0.252-0.988-0.252-1.437 0l-6.026 3.376c-0.158 0.088-0.256 0.255-0.256 0.436s0.098 0.348 0.256 0.436zM7.771 2.061c0.143-0.080 0.314-0.081 0.459 0l5.247 2.939-5.248 2.939c-0.144 0.081-0.315 0.081-0.459 0 0 0 0 0 0 0l-5.247-2.939 5.248-2.939z"></path>
<path d="M14.256 7.564l-6.026 3.375c-0.144 0.080-0.315 0.081-0.459 0l-6.027-3.375c-0.242-0.136-0.546-0.049-0.68 0.192s-0.049 0.545 0.192 0.68l6.025 3.375c0.225 0.127 0.472 0.19 0.719 0.19s0.494-0.063 0.718-0.189l6.026-3.375c0.241-0.135 0.327-0.439 0.192-0.68-0.134-0.243-0.439-0.329-0.68-0.193z"></path>
<path d="M14.256 10.564l-6.026 3.375c-0.144 0.080-0.315 0.081-0.459 0l-6.026-3.375c-0.242-0.137-0.546-0.049-0.68 0.192s-0.049 0.545 0.192 0.68l6.025 3.375c0.224 0.127 0.471 0.19 0.718 0.19s0.494-0.063 0.718-0.189l6.026-3.375c0.241-0.135 0.327-0.439 0.192-0.68s-0.439-0.33-0.68-0.193z"></path>
</svg>
