<svg version="1.1" xmlns="http://www.w3.org/2000/svg" width="16" height="16" viewBox="0 0 16 16">
<title>layout-grid-3x</title>
<path d="M13.5 1h-11c-0.827 0-1.5 0.673-1.5 1.5v11c0 0.827 0.673 1.5 1.5 1.5h11c0.827 0 1.5-0.673 1.5-1.5v-11c0-0.827-0.673-1.5-1.5-1.5zM14 2.5v2.5h-3v-3h2.5c0.276 0 0.5 0.224 0.5 0.5zM6 10v-4h4v4h-4zM10 11v3h-4v-3h4zM5 10h-3v-4h3v4zM6 5v-3h4v3h-4zM11 6h3v4h-3v-4zM2.5 2h2.5v3h-3v-2.5c0-0.276 0.224-0.5 0.5-0.5zM2 13.5v-2.5h3v3h-2.5c-0.276 0-0.5-0.224-0.5-0.5zM13.5 14h-2.5v-3h3v2.5c0 0.276-0.224 0.5-0.5 0.5z"></path>
</svg>
