<svg version="1.1" xmlns="http://www.w3.org/2000/svg" width="16" height="16" viewBox="0 0 16 16">
<title>layout-header-nav-left-cards</title>
<path d="M13.5 1h-11c-0.827 0-1.5 0.673-1.5 1.5v11c0 0.827 0.673 1.5 1.5 1.5h11c0.827 0 1.5-0.673 1.5-1.5v-11c0-0.827-0.673-1.5-1.5-1.5zM4 14h-1.5c-0.275 0-0.5-0.224-0.5-0.5v-8.5h2v9zM9 14h-4v-4h4v4zM9 9h-4v-4h4v4zM14 13.5c0 0.276-0.225 0.5-0.5 0.5h-3.5v-4h4v3.5zM14 9h-4v-4h4v4zM14 4h-12v-1.5c0-0.276 0.225-0.5 0.5-0.5h11c0.275 0 0.5 0.224 0.5 0.5v1.5z"></path>
</svg>
