<svg version="1.1" xmlns="http://www.w3.org/2000/svg" width="16" height="16" viewBox="0 0 16 16">
<title>layout-list-left</title>
<path d="M13.5 1h-11c-0.827 0-1.5 0.673-1.5 1.5v11c0 0.827 0.673 1.5 1.5 1.5h11c0.827 0 1.5-0.673 1.5-1.5v-11c0-0.827-0.673-1.5-1.5-1.5zM5 14h-2.5c-0.276 0-0.5-0.224-0.5-0.5v-2.5h3v3zM5 10h-3v-4h3v4zM5 5h-3v-2.5c0-0.276 0.224-0.5 0.5-0.5h2.5v3zM14 13.5c0 0.276-0.224 0.5-0.5 0.5h-7.5v-3h8v2.5zM14 10h-8v-4h8v4zM14 5h-8v-3h7.5c0.276 0 0.5 0.224 0.5 0.5v2.5z"></path>
</svg>
