<svg version="1.1" xmlns="http://www.w3.org/2000/svg" width="16" height="16" viewBox="0 0 16 16">
<title>layout-modal-nav-right</title>
<path d="M1 2.5v0.5h1v-0.5c0-0.276 0.225-0.5 0.5-0.5h0.5v-1h-0.5c-0.827 0-1.5 0.673-1.5 1.5z"></path>
<path d="M13.5 1h-0.5v1h0.5c0.275 0 0.5 0.224 0.5 0.5v0.5h1v-0.5c0-0.827-0.673-1.5-1.5-1.5z"></path>
<path d="M14 13.5c0 0.276-0.225 0.5-0.5 0.5h-0.5v1h0.5c0.827 0 1.5-0.673 1.5-1.5v-0.5h-1v0.5z"></path>
<path d="M2 13.5v-0.5h-1v0.5c0 0.827 0.673 1.5 1.5 1.5h0.5v-1h-0.5c-0.275 0-0.5-0.224-0.5-0.5z"></path>
<path d="M4 1h2v1h-2v-1z"></path>
<path d="M7 1h2v1h-2v-1z"></path>
<path d="M10 1h2v1h-2v-1z"></path>
<path d="M4 14h2v1h-2v-1z"></path>
<path d="M7 14h2v1h-2v-1z"></path>
<path d="M10 14h2v1h-2v-1z"></path>
<path d="M14 4h1v2h-1v-2z"></path>
<path d="M14 7h1v2h-1v-2z"></path>
<path d="M14 10h1v2h-1v-2z"></path>
<path d="M1 4h1v2h-1v-2z"></path>
<path d="M1 7h1v2h-1v-2z"></path>
<path d="M1 10h1v2h-1v-2z"></path>
<path d="M11.5 4h-7c-0.276 0-0.5 0.224-0.5 0.5v6c0 0.276 0.224 0.5 0.5 0.5h7c0.276 0 0.5-0.224 0.5-0.5v-6c0-0.276-0.224-0.5-0.5-0.5zM5 5h4v5h-4v-5zM11 10h-1v-5h1v5z"></path>
</svg>
