<svg version="1.1" xmlns="http://www.w3.org/2000/svg" width="16" height="16" viewBox="0 0 16 16">
<title>layout-nav-right-header-cards</title>
<path d="M13.5 1h-11c-0.827 0-1.5 0.673-1.5 1.5v11c0 0.827 0.673 1.5 1.5 1.5h11c0.827 0 1.5-0.673 1.5-1.5v-11c0-0.827-0.673-1.5-1.5-1.5zM2 2.5c0-0.276 0.224-0.5 0.5-0.5h8.5v2h-9v-1.5zM11 14h-4v-4h4v4zM11 9h-4v-4h4v4zM6 5v4h-4v-4h4zM2 13.5v-3.5h4v4h-3.5c-0.276 0-0.5-0.224-0.5-0.5zM14 13.5c0 0.276-0.224 0.5-0.5 0.5h-1.5v-12h1.5c0.276 0 0.5 0.224 0.5 0.5v11z"></path>
</svg>
