<svg version="1.1" xmlns="http://www.w3.org/2000/svg" width="16" height="16" viewBox="0 0 16 16">
<title>layout-nav-right-cards</title>
<path d="M13.5 1h-11c-0.827 0-1.5 0.673-1.5 1.5v11c0 0.827 0.673 1.5 1.5 1.5h11c0.827 0 1.5-0.673 1.5-1.5v-11c0-0.827-0.673-1.5-1.5-1.5zM7 6h4v4h-4v-4zM6 10h-4v-4h4v4zM11 11v3h-4v-3h4zM11 5h-4v-3h4v3zM2.5 2h3.5v3h-4v-2.5c0-0.276 0.225-0.5 0.5-0.5zM2 13.5v-2.5h4v3h-3.5c-0.275 0-0.5-0.224-0.5-0.5zM14 13.5c0 0.276-0.225 0.5-0.5 0.5h-1.5v-12h1.5c0.275 0 0.5 0.224 0.5 0.5v11z"></path>
</svg>
