<svg version="1.1" xmlns="http://www.w3.org/2000/svg" width="16" height="16" viewBox="0 0 16 16">
<title>layout-nav-left-right-header-footer</title>
<path d="M13.5 1h-11c-0.827 0-1.5 0.673-1.5 1.5v11c0 0.827 0.673 1.5 1.5 1.5h11c0.827 0 1.5-0.673 1.5-1.5v-11c0-0.827-0.673-1.5-1.5-1.5zM11 11h-6v-6h6v6zM5 12h6v2h-6v-2zM11 4h-6v-2h6v2zM2 13.5v-11c0-0.276 0.225-0.5 0.5-0.5h1.5v12h-1.5c-0.275 0-0.5-0.224-0.5-0.5zM14 13.5c0 0.276-0.225 0.5-0.5 0.5h-1.5v-12h1.5c0.275 0 0.5 0.224 0.5 0.5v11z"></path>
</svg>
