<svg version="1.1" xmlns="http://www.w3.org/2000/svg" width="16" height="16" viewBox="0 0 16 16">
<title>layout-nav-left-cards</title>
<path d="M13.5 1h-11c-0.827 0-1.5 0.673-1.5 1.5v11c0 0.827 0.673 1.5 1.5 1.5h11c0.827 0 1.5-0.673 1.5-1.5v-11c0-0.827-0.673-1.5-1.5-1.5zM14 2.5v2.5h-4v-3h3.5c0.276 0 0.5 0.224 0.5 0.5zM5 2h4v3h-4v-3zM5 11h4v3h-4v-3zM5 10v-4h4v4h-4zM10 6h4v4h-4v-4zM2 13.5v-11c0-0.276 0.224-0.5 0.5-0.5h1.5v12h-1.5c-0.276 0-0.5-0.224-0.5-0.5zM13.5 14h-3.5v-3h4v2.5c0 0.276-0.224 0.5-0.5 0.5z"></path>
</svg>
