<svg version="1.1" xmlns="http://www.w3.org/2000/svg" width="16" height="16" viewBox="0 0 16 16">
<title>layout-header-nav-right-cards</title>
<path d="M13.5 1h-11c-0.827 0-1.5 0.673-1.5 1.5v11c0 0.827 0.673 1.5 1.5 1.5h11c0.827 0 1.5-0.673 1.5-1.5v-11c0-0.827-0.673-1.5-1.5-1.5zM6 14h-3.5c-0.276 0-0.5-0.224-0.5-0.5v-3.5h4v4zM6 9h-4v-4h4v4zM11 14h-4v-4h4v4zM11 9h-4v-4h4v4zM14 13.5c0 0.276-0.224 0.5-0.5 0.5h-1.5v-9h2v8.5zM14 4h-12v-1.5c0-0.276 0.224-0.5 0.5-0.5h11c0.276 0 0.5 0.224 0.5 0.5v1.5z"></path>
</svg>
