<svg version="1.1" xmlns="http://www.w3.org/2000/svg" width="16" height="16" viewBox="0 0 16 16">
<title>layout-header-nav-left-right-footer</title>
<path d="M13.5 1h-11c-0.827 0-1.5 0.673-1.5 1.5v11c0 0.827 0.673 1.5 1.5 1.5h11c0.827 0 1.5-0.673 1.5-1.5v-11c0-0.827-0.673-1.5-1.5-1.5zM2.5 2h11c0.276 0 0.5 0.224 0.5 0.5v1.5h-12v-1.5c0-0.276 0.224-0.5 0.5-0.5zM2 11v-6h2v6h-2zM5 5h6v6h-6v-6zM12 5h2v6h-2v-6zM13.5 14h-11c-0.276 0-0.5-0.224-0.5-0.5v-1.5h12v1.5c0 0.276-0.224 0.5-0.5 0.5z"></path>
</svg>
