<svg version="1.1" xmlns="http://www.w3.org/2000/svg" width="16" height="16" viewBox="0 0 16 16">
<title>leaf</title>
<path d="M14.668 1.702l-0.071-0.299-0.299-0.071c-3.615-0.864-6.995-0.051-9.273 2.229-0.99 0.989-1.718 2.506-1.949 4.059-0.162 1.095-0.068 2.090 0.263 2.92l0.8-0.8c-0.149-0.584-0.181-1.253-0.074-1.974 0.197-1.327 0.836-2.667 1.666-3.498 1.491-1.491 3.526-2.272 5.797-2.272 0.725 0 1.473 0.080 2.235 0.241 0.668 3.152-0.065 6.066-2.032 8.032-0.83 0.83-2.171 1.468-3.498 1.666-0.721 0.107-1.39 0.076-1.973-0.074l-0.793 0.793c0.562 0.225 1.196 0.348 1.89 0.348 0.329 0 0.672-0.026 1.023-0.078 1.552-0.231 3.068-0.959 4.058-1.948 2.282-2.28 3.094-5.661 2.23-9.274zM9.5 10c0.276 0 0.5-0.224 0.5-0.5s-0.224-0.5-0.5-0.5h-1.793l2-2h1.793c0.276 0 0.5-0.224 0.5-0.5s-0.224-0.5-0.5-0.5h-1.5v-1.5c0-0.276-0.224-0.5-0.5-0.5s-0.5 0.224-0.5 0.5v1.793l-2 2v-1.793c0-0.276-0.224-0.5-0.5-0.5s-0.5 0.224-0.5 0.5v2.793l-4.854 4.854c-0.195 0.195-0.195 0.512 0 0.707 0.098 0.097 0.226 0.146 0.354 0.146s0.256-0.049 0.354-0.146l4.853-4.854h2.793z"></path>
</svg>
