<svg version="1.1" xmlns="http://www.w3.org/2000/svg" width="16" height="16" viewBox="0 0 16 16">
<title>legal</title>
<path d="M14.854 14.146l-6.147-6.146 2.793-2.793c0.181-0.181 0.293-0.431 0.293-0.707s-0.112-0.526-0.293-0.707l-3.293-3.293c-0.181-0.181-0.431-0.293-0.707-0.293s-0.526 0.112-0.707 0.293l-6.293 6.293c-0.181 0.181-0.293 0.431-0.293 0.707s0.112 0.526 0.293 0.707l3.293 3.293c0.181 0.181 0.431 0.293 0.707 0.293s0.526-0.112 0.707-0.293l2.793-2.793 6.146 6.147c0.091 0.091 0.216 0.147 0.354 0.147 0.276 0 0.501-0.224 0.501-0.501 0-0.138-0.056-0.263-0.147-0.354v0zM6.5 8.793l-3.293-3.293 2.293-2.293 3.293 3.293zM7.5 1.207l3.293 3.293-1.293 1.293-3.293-3.293zM4.5 10.793l-3.293-3.293 1.293-1.293 3.293 3.293z"></path>
</svg>
