<svg version="1.1" xmlns="http://www.w3.org/2000/svg" width="16" height="16" viewBox="0 0 16 16">
<title>lemon-o</title>
<path d="M14.518 1.482c-0.664-0.664-1.796-0.642-2.83 0.029-2.551-1.123-5.872-0.328-8.188 1.989s-3.11 5.639-1.988 8.188c-0.669 1.034-0.692 2.166-0.029 2.83 0.326 0.325 0.764 0.486 1.248 0.486 0.503 0 1.055-0.173 1.582-0.515 2.551 1.123 5.872 0.328 8.188-1.988 2.317-2.317 3.11-5.639 1.988-8.188 0.669-1.035 0.692-2.167 0.029-2.831zM13.466 4.488c1.115 2.201 0.427 5.205-1.673 7.305s-5.104 2.791-7.305 1.673l-0.281-0.142-0.25 0.191c-0.666 0.51-1.427 0.636-1.769 0.295-0.342-0.342-0.215-1.103 0.295-1.769l0.191-0.25-0.142-0.281c-1.113-2.199-0.425-5.203 1.675-7.303 1.427-1.427 3.272-2.202 4.999-2.202 0.813 0 1.602 0.172 2.306 0.529l0.281 0.142 0.25-0.191c0.665-0.511 1.426-0.638 1.769-0.295s0.215 1.103-0.295 1.769l-0.191 0.25 0.14 0.279z"></path>
<path d="M8 4.5c0 0.276-0.224 0.5-0.5 0.5s-0.5-0.224-0.5-0.5c0-0.276 0.224-0.5 0.5-0.5s0.5 0.224 0.5 0.5z"></path>
<path d="M8 6.5c0 0.276-0.224 0.5-0.5 0.5s-0.5-0.224-0.5-0.5c0-0.276 0.224-0.5 0.5-0.5s0.5 0.224 0.5 0.5z"></path>
<path d="M6 6.5c0 0.276-0.224 0.5-0.5 0.5s-0.5-0.224-0.5-0.5c0-0.276 0.224-0.5 0.5-0.5s0.5 0.224 0.5 0.5z"></path>
</svg>
