<svg version="1.1" xmlns="http://www.w3.org/2000/svg" width="16" height="16" viewBox="0 0 16 16">
<title>lightbulb-o</title>
<path d="M8.5 0c-3.033 0-5.5 2.467-5.5 5.5 0 1.53 0.615 2.951 1.731 4 0.807 0.758 1.269 1.927 1.269 3.208v1.292c0 0.099 0.029 0.195 0.084 0.277l1 1.5c0.093 0.14 0.249 0.223 0.416 0.223h2c0.167 0 0.323-0.083 0.416-0.223l1-1.5c0.055-0.082 0.084-0.179 0.084-0.277v-1.292c0-1.28 0.462-2.45 1.269-3.208 1.116-1.049 1.731-2.47 1.731-4 0-3.033-2.467-5.5-5.5-5.5zM6.934 12h3.132c-0.027 0.234-0.066 0.466-0.066 0.708v0.292h-3v-0.292c0-0.242-0.039-0.474-0.066-0.708zM9.232 15h-1.464l-0.666-1h2.798l-0.668 1zM11.584 8.771c-0.62 0.582-1.052 1.362-1.312 2.229h-3.544c-0.26-0.867-0.692-1.646-1.312-2.229-0.913-0.858-1.416-2.020-1.416-3.271 0-2.481 2.019-4.5 4.5-4.5s4.5 2.019 4.5 4.5c0 1.251-0.503 2.413-1.416 3.271z"></path>
<path d="M7.527 3.197c-0.298 0.126-0.566 0.306-0.794 0.535-0.229 0.229-0.41 0.497-0.536 0.795-0.108 0.254 0.011 0.548 0.266 0.655 0.063 0.027 0.129 0.040 0.194 0.040 0.195 0 0.38-0.115 0.46-0.306 0.076-0.179 0.184-0.339 0.323-0.477 0.137-0.138 0.297-0.246 0.476-0.321 0.254-0.108 0.374-0.401 0.266-0.655s-0.401-0.373-0.655-0.266z"></path>
</svg>
