<svg version="1.1" xmlns="http://www.w3.org/2000/svg" width="16" height="16" viewBox="0 0 16 16">
<title>line-chart</title>
<path d="M15.5 13h-14.5v-10.5c0-0.276-0.224-0.5-0.5-0.5s-0.5 0.224-0.5 0.5v11c0 0.276 0.224 0.5 0.5 0.5h15c0.276 0 0.5-0.224 0.5-0.5s-0.224-0.5-0.5-0.5z"></path>
<path d="M15.5 3h-4c-0.276 0-0.5 0.224-0.5 0.5s0.224 0.5 0.5 0.5h2.794l-4.789 4.793-2.661-2.647c-0.195-0.195-0.511-0.194-0.706 0l-3.999 4c-0.195 0.195-0.195 0.512 0 0.707 0.098 0.098 0.226 0.147 0.354 0.147s0.256-0.049 0.354-0.146l3.646-3.647 2.661 2.648c0.194 0.194 0.512 0.194 0.706-0.001l5.14-5.146v2.792c0 0.276 0.224 0.5 0.5 0.5s0.5-0.224 0.5-0.5v-4c0-0.276-0.224-0.5-0.5-0.5z"></path>
</svg>
