<svg id="Layer_1" data-name="Layer 1" xmlns="http://www.w3.org/2000/svg" width="16" height="16" viewBox="0 0 16 16"><path d="M16,10a1,1,0,1,1-1-1A1,1,0,0,1,16,10ZM2,3A1,1,0,1,0,3,4,1,1,0,0,0,2,3ZM15,1a1,1,0,1,0-1,1A1,1,0,0,0,15,1ZM1,14a1,1,0,1,0,1,1A1,1,0,0,0,1,14ZM12.5,9H8.536a1.987,1.987,0,0,1-1.415-.586L4.1,5.4A.5.5,0,0,0,3.4,6.1L6.414,9.121A2.98,2.98,0,0,0,8.536,10h.757L5.879,13.414A1.987,1.987,0,0,1,4.464,14H3.5a.5.5,0,0,0,0,1h.964a2.98,2.98,0,0,0,2.122-.879l3.535-3.535A1.987,1.987,0,0,1,11.536,10H12.5a.5.5,0,0,0,0-1ZM14,3.5v4a.5.5,0,0,0,1,0v-4a.5.5,0,0,0-1,0Z"/></svg>