<svg version="1.1" xmlns="http://www.w3.org/2000/svg" width="16" height="16" viewBox="0 0 16 16">
<title>line-area-chart</title>
<path d="M15.691 2.038c-0.187-0.078-0.402-0.035-0.545 0.108l-2.71 2.71-2.659-1.772c-0.197-0.133-0.461-0.106-0.631 0.062l-2.71 2.71-2.659-1.772c-0.211-0.14-0.492-0.101-0.657 0.091l-2.12 2.474v-5.149c0-0.276-0.224-0.5-0.5-0.5s-0.5 0.224-0.5 0.5v12c0 0.276 0.224 0.5 0.5 0.5h15c0.276 0 0.5-0.224 0.5-0.5v-11c0-0.202-0.122-0.385-0.309-0.462zM3.591 5.162l2.631 1.754c0.198 0.133 0.462 0.105 0.631-0.062l2.71-2.71 2.659 1.772c0.198 0.133 0.462 0.106 0.631-0.062l2.147-2.147v2.586l-2.563 2.563-2.66-1.772c-0.197-0.132-0.461-0.106-0.631 0.062l-2.71 2.71-2.659-1.772c-0.211-0.14-0.492-0.101-0.657 0.091l-2.12 2.474v-2.464l2.591-3.023zM1 13v-0.815l2.591-3.023 2.631 1.754c0.198 0.133 0.462 0.106 0.631-0.062l2.71-2.71 2.659 1.772c0.198 0.132 0.462 0.106 0.631-0.062l2.147-2.147v5.293h-14z"></path>
</svg>
