<svg version="1.1" xmlns="http://www.w3.org/2000/svg" width="16" height="16" viewBox="0 0 16 16">
<title>link</title>
<path d="M10.316 8.396c0.109-0.253-0.008-0.547-0.262-0.657-0.252-0.109-0.546 0.007-0.656 0.262-0.132 0.309-0.324 0.589-0.566 0.832-1.010 1.010-2.771 1.010-3.78 0l-2.269-2.27c-1.042-1.042-1.042-2.738 0-3.781 1.042-1.042 2.736-1.043 3.78 0l1.45 1.451c0.195 0.195 0.512 0.195 0.707 0s0.195-0.512 0-0.707l-1.45-1.451c-1.432-1.432-3.763-1.43-5.194 0-1.433 1.432-1.433 3.763 0 5.195l2.269 2.27c0.693 0.694 1.616 1.076 2.598 1.076s1.903-0.382 2.597-1.076c0.332-0.333 0.594-0.718 0.776-1.144zM13.924 8.729l-2.269-2.269c-1.387-1.388-3.808-1.388-5.194 0-0.333 0.333-0.595 0.718-0.777 1.144-0.11 0.254 0.007 0.548 0.261 0.657 0.251 0.106 0.547-0.008 0.656-0.262 0.133-0.309 0.325-0.589 0.567-0.832 1.010-1.010 2.771-1.010 3.78 0l2.269 2.269c1.042 1.042 1.042 2.738 0 3.781-1.043 1.041-2.737 1.042-3.78 0l-1.45-1.451c-0.195-0.195-0.512-0.195-0.707 0s-0.195 0.512 0 0.707l1.45 1.451c0.716 0.716 1.656 1.074 2.597 1.074s1.882-0.358 2.598-1.074c1.431-1.432 1.431-3.762-0.001-5.195z"></path>
</svg>
