<svg version="1.1" xmlns="http://www.w3.org/2000/svg" width="16" height="16" viewBox="0 0 16 16">
<title>list-alt</title>
<path d="M14.409 1.592c-0.378-0.375-0.877-0.58-1.409-0.58h-0.016l-10 0.076c-1.093 0.008-1.984 0.906-1.984 2v9.9c0 0.537 0.21 1.042 0.591 1.419 0.378 0.376 0.877 0.581 1.409 0.581h0.016l10-0.076c1.094-0.008 1.985-0.906 1.985-2v-9.9c-0.001-0.537-0.211-1.042-0.592-1.42zM14 12.912c0 0.547-0.445 0.996-0.993 1l-10 0.076c-0.234-0.014-0.521-0.101-0.712-0.29s-0.295-0.441-0.295-0.71v-9.9c0-0.547 0.445-0.996 0.993-1l10.008-0.076c0.266 0 0.515 0.103 0.704 0.29 0.19 0.189 0.295 0.441 0.295 0.71v9.9zM11.5 5h-5c-0.276 0-0.5 0.224-0.5 0.5s0.224 0.5 0.5 0.5h5c0.276 0 0.5-0.224 0.5-0.5s-0.224-0.5-0.5-0.5z"></path>
<path d="M5 5.5c0 0.276-0.224 0.5-0.5 0.5s-0.5-0.224-0.5-0.5c0-0.276 0.224-0.5 0.5-0.5s0.5 0.224 0.5 0.5z"></path>
<path d="M11.5 8h-5c-0.276 0-0.5 0.224-0.5 0.5s0.224 0.5 0.5 0.5h5c0.276 0 0.5-0.224 0.5-0.5s-0.224-0.5-0.5-0.5z"></path>
<path d="M5 8.5c0 0.276-0.224 0.5-0.5 0.5s-0.5-0.224-0.5-0.5c0-0.276 0.224-0.5 0.5-0.5s0.5 0.224 0.5 0.5z"></path>
<path d="M11.5 11h-5c-0.276 0-0.5 0.224-0.5 0.5s0.224 0.5 0.5 0.5h5c0.276 0 0.5-0.224 0.5-0.5s-0.224-0.5-0.5-0.5z"></path>
<path d="M5 11.5c0 0.276-0.224 0.5-0.5 0.5s-0.5-0.224-0.5-0.5c0-0.276 0.224-0.5 0.5-0.5s0.5 0.224 0.5 0.5z"></path>
</svg>
