<svg id="Layer_1" data-name="Layer 1" xmlns="http://www.w3.org/2000/svg" width="16" height="16" viewBox="0 0 16 16"><path d="M15.5,7.5H13.974a5.952,5.952,0,0,0-.48-1.909.5.5,0,1,0-.916.4,5,5,0,0,1-6.584,6.584.5.5,0,1,0-.4.916,5.952,5.952,0,0,0,1.909.48V15.5a.5.5,0,0,0,1,0V13.975A6,6,0,0,0,13.975,8.5H15.5a.5.5,0,0,0,0-1Z"/><path d="M10.475,6.232,15.854.854a.5.5,0,0,0-.708-.708L11.872,3.421A5.946,5.946,0,0,0,8.5,2.024V.5a.5.5,0,0,0-1,0V2.025A6,6,0,0,0,2.025,7.5H.5a.5.5,0,0,0,0,1H2.024a5.946,5.946,0,0,0,1.4,3.372L.146,15.146a.5.5,0,0,0,.708.708l5.378-5.379ZM6,8A2,2,0,0,1,9.016,6.276l-2.74,2.74A1.989,1.989,0,0,1,6,8ZM3,8A5.006,5.006,0,0,1,8,3a4.955,4.955,0,0,1,3.148,1.145L9.733,5.56A2.964,2.964,0,0,0,8,5,3,3,0,0,0,5,8a2.964,2.964,0,0,0,.56,1.733L4.145,11.148A4.955,4.955,0,0,1,3,8Z"/><path d="M9.969,8.292A1.979,1.979,0,0,1,8.292,9.969a.5.5,0,0,0,.072.994.613.613,0,0,0,.074,0,2.972,2.972,0,0,0,2.52-2.52.5.5,0,1,0-.989-.146Z"/></svg>