<svg version="1.1" xmlns="http://www.w3.org/2000/svg" width="16" height="16" viewBox="0 0 16 16">
<title>lock-password</title>
<path d="M13 6h-1v-2c0-2.209-1.791-4-4-4s-4 1.791-4 4v0 2h-1c-1.105 0-2 0.895-2 2v0 6c0 1.105 0.895 2 2 2v0h10c1.105 0 2-0.895 2-2v0-6c0-1.105-0.895-2-2-2v0zM5 4c0-1.657 1.343-3 3-3s3 1.343 3 3v0 2h-6zM14 14c0 0.552-0.448 1-1 1v0h-10c-0.552 0-1-0.448-1-1v0-6c0-0.552 0.448-1 1-1v0h10c0.552 0 1 0.448 1 1v0z"></path>
<path d="M12 11c0 0.552-0.448 1-1 1s-1-0.448-1-1c0-0.552 0.448-1 1-1s1 0.448 1 1z"></path>
<path d="M9 11c0 0.552-0.448 1-1 1s-1-0.448-1-1c0-0.552 0.448-1 1-1s1 0.448 1 1z"></path>
<path d="M6 11c0 0.552-0.448 1-1 1s-1-0.448-1-1c0-0.552 0.448-1 1-1s1 0.448 1 1z"></path>
</svg>
