<svg version="1.1" xmlns="http://www.w3.org/2000/svg" width="16" height="16" viewBox="0 0 16 16">
<title>lock-x</title>
<path d="M10.576 6.971c0.194-0.072 0.329-0.255 0.329-0.47 0-0.060-0.011-0.118-0.030-0.172l0.001 0.003c-0.282-0.78-1.014-1.329-1.875-1.333h-0.001v-1.5c0-1.933-1.567-3.5-3.5-3.5s-3.5 1.567-3.5 3.5v0 1.5c-1.105 0-2 0.895-2 2v0 4c0 1.105 0.895 2 2 2v0h4.5c0.276 0 0.5-0.224 0.5-0.5s-0.224-0.5-0.5-0.5v0h-4.5c-0.552 0-1-0.448-1-1v0-4c0-0.552 0.448-1 1-1v0h7c0.431 0.003 0.796 0.277 0.935 0.66l0.002 0.007c0.071 0.196 0.255 0.333 0.471 0.333 0.060 0 0.118-0.011 0.171-0.030l-0.003 0.001zM3 3.5c0-1.381 1.119-2.5 2.5-2.5s2.5 1.119 2.5 2.5v0 1.5h-5z"></path>
<path d="M13.207 12.5l1.647-1.646c0.090-0.091 0.146-0.215 0.146-0.354 0-0.276-0.224-0.5-0.5-0.5-0.138 0-0.263 0.056-0.354 0.147v0l-1.646 1.645-1.646-1.646c-0.091-0.091-0.216-0.147-0.354-0.147-0.276 0-0.5 0.224-0.5 0.5 0 0.138 0.056 0.263 0.146 0.354v0l1.647 1.647-1.647 1.647c-0.090 0.091-0.146 0.215-0.146 0.354 0 0.276 0.224 0.5 0.5 0.5 0.138 0 0.263-0.056 0.354-0.147l1.646-1.648 1.646 1.647c0.091 0.091 0.216 0.147 0.354 0.147 0.276 0 0.5-0.224 0.5-0.5 0-0.138-0.056-0.263-0.146-0.354v0z"></path>
</svg>
