<svg version="1.1" xmlns="http://www.w3.org/2000/svg" width="16" height="16" viewBox="0 0 16 16">
<title>lock-user</title>
<path d="M9 5.5h-1v-2c0-1.381-1.119-2.5-2.5-2.5s-2.5 1.119-2.5 2.5v0 2h-1v-2c0-1.933 1.567-3.5 3.5-3.5s3.5 1.567 3.5 3.5v0z"></path>
<path d="M6.5 13h-4.5c-1.105 0-2-0.895-2-2v0-4c0-1.105 0.895-2 2-2v0h7c0.863 0.003 1.597 0.552 1.875 1.319l0.004 0.014c0.022 0.054 0.034 0.117 0.034 0.182 0 0.276-0.224 0.5-0.5 0.5-0.222 0-0.41-0.145-0.476-0.345l-0.001-0.004c-0.141-0.39-0.506-0.664-0.937-0.667h-7c-0.552 0-1 0.448-1 1v0 4c0 0.552 0.448 1 1 1v0h4.5c0.276 0 0.5 0.224 0.5 0.5s-0.224 0.5-0.5 0.5v0z"></path>
<path d="M15.16 13.82l-0.834-0.625c0.417-0.446 0.674-1.046 0.674-1.707 0-1.381-1.119-2.5-2.5-2.5s-2.5 1.119-2.5 2.5c0 0.661 0.256 1.261 0.675 1.708l-0.001-0.001-0.833 0.625c-0.511 0.388-0.838 0.996-0.84 1.68v0c0 0.276 0.224 0.5 0.5 0.5s0.5-0.224 0.5-0.5v0c0.001-0.358 0.173-0.676 0.437-0.878l0.003-0.002 1.089-0.816c0.287 0.124 0.62 0.196 0.971 0.196s0.684-0.072 0.987-0.203l-0.016 0.006 1.089 0.817c0.268 0.203 0.44 0.521 0.44 0.879v0c0 0.276 0.224 0.5 0.5 0.5s0.5-0.224 0.5-0.5v0c-0.002-0.684-0.329-1.292-0.835-1.676l-0.005-0.004zM11 11.5c0-0.828 0.672-1.5 1.5-1.5s1.5 0.672 1.5 1.5v0 0c0 0.828-0.672 1.5-1.5 1.5s-1.5-0.672-1.5-1.5v0z"></path>
</svg>
