<svg version="1.1" xmlns="http://www.w3.org/2000/svg" width="16" height="16" viewBox="0 0 16 16">
<title>lock-check</title>
<path d="M6.5 12h-4.5c-0.552 0-1-0.448-1-1v0-4c0-0.552 0.448-1 1-1v0h7c0.431 0.003 0.796 0.277 0.935 0.66l0.002 0.007c0.066 0.204 0.254 0.348 0.476 0.348 0.276 0 0.5-0.224 0.5-0.5 0-0.066-0.013-0.128-0.036-0.186l0.001 0.003c-0.282-0.781-1.016-1.33-1.879-1.333h-0v-1.5c0-1.933-1.567-3.5-3.5-3.5s-3.5 1.567-3.5 3.5v0 1.5c-1.105 0-2 0.895-2 2v0 4c0 1.105 0.895 2 2 2v0h4.5c0.276 0 0.5-0.224 0.5-0.5s-0.224-0.5-0.5-0.5v0zM3 3.5c0-1.381 1.119-2.5 2.5-2.5s2.5 1.119 2.5 2.5v0 1.5h-5z"></path>
<path d="M15.854 10.146c-0.091-0.091-0.216-0.147-0.354-0.147s-0.263 0.056-0.354 0.147l-3.646 3.647-1.646-1.647c-0.091-0.091-0.216-0.147-0.354-0.147-0.276 0-0.501 0.224-0.501 0.501 0 0.138 0.056 0.263 0.147 0.354v0l2 2c0.091 0.091 0.216 0.147 0.354 0.147s0.263-0.056 0.354-0.147l4-4c0.091-0.091 0.147-0.216 0.147-0.354s-0.056-0.263-0.147-0.354l-0-0z"></path>
</svg>
