<svg version="1.1" xmlns="http://www.w3.org/2000/svg" width="16" height="16" viewBox="0 0 16 16">
<title>long-arrow-down</title>
<path d="M12.53 10.47c-0.136-0.136-0.323-0.22-0.53-0.22s-0.394 0.084-0.53 0.22l-2.72 2.719v-12.189c0-0.414-0.336-0.75-0.75-0.75s-0.75 0.336-0.75 0.75v0 12.189l-2.72-2.719c-0.137-0.147-0.332-0.239-0.549-0.239-0.414 0-0.75 0.336-0.75 0.75 0 0.216 0.092 0.411 0.238 0.548l0 0 4 4c0.135 0.136 0.323 0.22 0.53 0.22s0.395-0.084 0.53-0.22l4-4c0.136-0.136 0.22-0.323 0.22-0.53s-0.084-0.394-0.22-0.53l-0-0z"></path>
</svg>
