<svg version="1.1" xmlns="http://www.w3.org/2000/svg" width="16" height="16" viewBox="0 0 16 16">
<title>long-arrow-right</title>
<path d="M15.53 7.47l-4-4c-0.137-0.147-0.332-0.239-0.549-0.239-0.414 0-0.75 0.336-0.75 0.75 0 0.216 0.092 0.411 0.238 0.548l0 0 2.719 2.72h-12.189c-0.414 0-0.75 0.336-0.75 0.75s0.336 0.75 0.75 0.75v0h12.189l-2.719 2.72c-0.147 0.137-0.239 0.332-0.239 0.549 0 0.414 0.336 0.75 0.75 0.75 0.216 0 0.411-0.092 0.548-0.238l0-0 4-4c0.136-0.136 0.22-0.323 0.22-0.53s-0.084-0.394-0.22-0.53l-0-0z"></path>
</svg>
