<svg version="1.1" xmlns="http://www.w3.org/2000/svg" width="16" height="16" viewBox="0 0 16 16">
<title>low-vision</title>
<path d="M15.875 7.67c-1.102-1.254-4.075-4.17-7.875-4.17-0.699 0.003-1.374 0.097-2.017 0.272l0.055-0.013-2.109-3.516c-0.089-0.147-0.248-0.243-0.429-0.243-0.276 0-0.5 0.224-0.5 0.5 0 0.095 0.026 0.184 0.072 0.259l-0.001-0.002 1.992 3.32c-1.957 0.84-3.608 2.059-4.924 3.576l-0.014 0.017c-0.077 0.088-0.124 0.203-0.124 0.33s0.047 0.242 0.125 0.331l-0-0.001c1.102 1.254 4.075 4.17 7.875 4.17 0.699-0.003 1.374-0.097 2.017-0.272l-0.055 0.013 2.109 3.516c0.089 0.147 0.248 0.243 0.429 0.243 0.276 0 0.5-0.224 0.5-0.5 0-0.095-0.026-0.184-0.072-0.259l0.001 0.002-1.992-3.32c1.957-0.84 3.608-2.059 4.924-3.576l0.014-0.017c0.077-0.088 0.124-0.203 0.124-0.33s-0.047-0.242-0.125-0.331l0 0.001zM1.177 8c0.543-0.572 1.127-1.094 1.75-1.565l0.036-0.026 2.825 4.71c-1.819-0.702-3.362-1.765-4.603-3.111l-0.008-0.008zM8 11.5c-0.311-0.007-0.609-0.035-0.901-0.083l0.037 0.005-3.347-5.579c0.515-0.328 1.109-0.626 1.732-0.862l0.068-0.022 3.821 6.369c-0.421 0.104-0.907 0.166-1.405 0.173l-0.005 0zM10.408 11.042l-0.986-1.642c0.357-0.358 0.578-0.852 0.578-1.398 0-0.001 0-0.002 0-0.002v0c0-1.105-0.895-2-2-2v0c-0.202 0.001-0.396 0.033-0.578 0.092l0.014-0.004-0.849-1.415c0.422-0.104 0.909-0.166 1.409-0.173l0.004-0c3.134 0 5.751 2.368 6.823 3.5-1.206 1.298-2.679 2.33-4.333 3.012l-0.082 0.030z"></path>
</svg>
