<svg version="1.1" xmlns="http://www.w3.org/2000/svg" width="16" height="16" viewBox="0 0 16 16">
<title>magic</title>
<path d="M10.5 3c0.276 0 0.5-0.224 0.5-0.5v-2c0-0.276-0.224-0.5-0.5-0.5s-0.5 0.224-0.5 0.5v2c0 0.276 0.224 0.5 0.5 0.5zM15.5 5h-2c-0.276 0-0.5 0.224-0.5 0.5s0.224 0.5 0.5 0.5h2c0.276 0 0.5-0.224 0.5-0.5s-0.224-0.5-0.5-0.5zM12.5 4c0.128 0 0.256-0.049 0.354-0.146l1.414-1.414c0.195-0.195 0.195-0.512 0-0.707s-0.512-0.195-0.707 0l-1.414 1.414c-0.195 0.195-0.195 0.512 0 0.707 0.097 0.097 0.225 0.146 0.353 0.146zM12.854 7.146c-0.195-0.195-0.512-0.195-0.707 0s-0.195 0.512 0 0.707l1.414 1.414c0.098 0.098 0.226 0.146 0.354 0.146s0.256-0.049 0.354-0.146c0.195-0.195 0.195-0.512 0-0.707l-1.415-1.414zM8.146 3.854c0.098 0.097 0.226 0.146 0.354 0.146s0.256-0.049 0.354-0.146c0.195-0.195 0.195-0.512 0-0.707l-1.415-1.415c-0.195-0.195-0.512-0.195-0.707 0s-0.195 0.512 0 0.707l1.414 1.415zM10.5 4c-0.827 0-1.5 0.673-1.5 1.5 0 0.231 0.057 0.448 0.151 0.644l-0.005 0.002-8 8c-0.195 0.195-0.195 0.512 0 0.707 0.098 0.098 0.226 0.147 0.354 0.147s0.256-0.049 0.354-0.146l8.002-8.005c0.196 0.094 0.413 0.151 0.644 0.151 0.827 0 1.5-0.673 1.5-1.5s-0.673-1.5-1.5-1.5zM10.5 6c-0.276 0-0.5-0.224-0.5-0.5s0.224-0.5 0.5-0.5 0.5 0.224 0.5 0.5-0.224 0.5-0.5 0.5z"></path>
</svg>
