<svg version="1.1" xmlns="http://www.w3.org/2000/svg" width="16" height="16" viewBox="0 0 16 16">
<title>magnet</title>
<path d="M8 1c-3.309 0-6 2.691-6 6v7.5c0 0.134 0.054 0.262 0.149 0.356 0.093 0.092 0.22 0.144 0.351 0.144h0.006l3-0.038c0.274-0.004 0.494-0.227 0.494-0.5v-7.462c0-1.103 0.897-2 2-2s2 0.897 2 2v7.5c0 0.276 0.224 0.5 0.5 0.5h3c0.276 0 0.5-0.224 0.5-0.5v-7.5c0-3.309-2.691-6-6-6zM3 13.994v-2l2-0.025v2l-2 0.025zM8 4c-1.654 0-3 1.346-3 3v3.968l-2 0.025v-3.993c0-2.757 2.243-5 5-5s5 2.243 5 5v4h-2v-4c0-1.654-1.346-3-3-3zM11 14v-2h2v2h-2z"></path>
</svg>
