<svg version="1.1" xmlns="http://www.w3.org/2000/svg" width="16" height="16" viewBox="0 0 16 16">
<title>male</title>
<path d="M8 4c1.103 0 2-0.897 2-2s-0.897-2-2-2-2 0.897-2 2 0.897 2 2 2zM8 1c0.551 0 1 0.448 1 1s-0.449 1-1 1-1-0.448-1-1 0.449-1 1-1z"></path>
<path d="M8.998 5h-1.996c-1.103 0-2 0.897-2 2v2.143c0 0.308 0.072 0.615 0.209 0.891l0.684 1.374c0.069 0.137 0.105 0.29 0.105 0.445v3.647c0 0.276 0.224 0.5 0.5 0.5h3c0.276 0 0.5-0.224 0.5-0.5v-3.647c0-0.154 0.036-0.308 0.104-0.445l0.684-1.374c0.137-0.275 0.209-0.583 0.209-0.891v-2.143c0.001-1.103-0.896-2-1.999-2zM9.998 9.143c0 0.153-0.036 0.308-0.105 0.445l-0.684 1.374c-0.137 0.274-0.209 0.583-0.209 0.891v3.147h-2v-3.147c0-0.308-0.072-0.616-0.209-0.891l-0.684-1.374c-0.068-0.138-0.105-0.292-0.105-0.445v-2.143c0-0.552 0.449-1 1-1h1.995c0.551 0 1 0.448 1 1v2.143z"></path>
</svg>
