<svg version="1.1" xmlns="http://www.w3.org/2000/svg" width="16" height="16" viewBox="0 0 16 16">
<title>map-pin</title>
<path d="M8 6.949v6.551c0 0.276 0.224 0.5 0.5 0.5s0.5-0.224 0.5-0.5v-6.551c1.692-0.245 3-1.691 3-3.449 0-1.93-1.57-3.5-3.5-3.5s-3.5 1.57-3.5 3.5c0 1.758 1.308 3.204 3 3.449zM8.5 1c1.378 0 2.5 1.122 2.5 2.5s-1.122 2.5-2.5 2.5-2.5-1.122-2.5-2.5 1.122-2.5 2.5-2.5zM10 11.092v1.012c1.861 0.246 3 0.906 3 1.396 0 0.612-1.753 1.5-4.5 1.5s-4.5-0.888-4.5-1.5c0-0.49 1.139-1.151 3-1.396v-1.012c-2.131 0.264-4 1.089-4 2.408 0 1.624 2.833 2.5 5.5 2.5s5.5-0.876 5.5-2.5c0-1.319-1.869-2.145-4-2.408z"></path>
</svg>
