<svg version="1.1" xmlns="http://www.w3.org/2000/svg" width="16" height="16" viewBox="0 0 16 16">
<title>map-o</title>
<path d="M15.78 2.086c-0.138-0.093-0.314-0.112-0.466-0.050l-4.814 1.925-4.814-1.925-0.068-0.010-0.119-0.016-0.184 0.026-5 2c-0.19 0.076-0.315 0.259-0.315 0.464v9c0 0.166 0.083 0.321 0.22 0.414 0.084 0.057 0.181 0.086 0.28 0.086l0.186-0.036 4.814-1.925 4.814 1.926 0.186 0.035 0.186-0.036 5-2c0.189-0.076 0.314-0.259 0.314-0.464v-9c0-0.166-0.083-0.321-0.22-0.414zM1 4.838l4-1.6v7.923l-4 1.6v-7.923zM6 3.238l4 1.6v7.923l-4-1.6v-7.923zM15 11.162l-4 1.6v-7.924l4-1.6v7.924z"></path>
</svg>
