<svg version="1.1" xmlns="http://www.w3.org/2000/svg" width="16" height="16" viewBox="0 0 16 16">
<title>map-signs</title>
<path d="M15.854 10.146l-3-3c-0.094-0.093-0.221-0.146-0.354-0.146h-6c-0.276 0-0.5 0.224-0.5 0.5v6c0 0.276 0.224 0.5 0.5 0.5h6c0.133 0 0.26-0.053 0.354-0.146l3-3c0.195-0.196 0.195-0.512 0-0.708zM12.293 13h-5.293v-5h5.293l2.5 2.5-2.5 2.5zM4.5 8h-0.793l-2.5-2.5 2.5-2.5h5.293v2.5c0 0.276 0.224 0.5 0.5 0.5s0.5-0.224 0.5-0.5v-3c0-0.276-0.224-0.5-0.5-0.5h-6c-0.133 0-0.26 0.053-0.354 0.146l-3 3c-0.195 0.195-0.195 0.512 0 0.707l3 3c0.094 0.094 0.221 0.147 0.354 0.147h1c0.276 0 0.5-0.224 0.5-0.5s-0.224-0.5-0.5-0.5z"></path>
</svg>
