<svg id="Layer_1" data-name="Layer 1" xmlns="http://www.w3.org/2000/svg" width="16" height="16" viewBox="0 0 16 16"><path d="M13,2H11.75L10.85.8A2.01,2.01,0,0,0,9.25,0H6.75a2.01,2.01,0,0,0-1.6.8L4.25,2H3A2,2,0,0,0,1,4V9a2,2,0,0,0,2,2H5.191l2.362,4.724a.5.5,0,0,0,.894,0L10.809,11H13a2,2,0,0,0,2-2V4A2,2,0,0,0,13,2Zm1,7a1,1,0,0,1-1,1H10.5a.5.5,0,0,0-.447.276L8,14.382,5.947,10.276A.5.5,0,0,0,5.5,10H3A1,1,0,0,1,2,9V4A1,1,0,0,1,3,3H4.5a.5.5,0,0,0,.4-.2L5.95,1.4a1,1,0,0,1,.8-.4h2.5a1,1,0,0,1,.8.4L11.1,2.8a.5.5,0,0,0,.4.2H13a1,1,0,0,1,1,1Z"/><path d="M8,4a2.5,2.5,0,1,0,2.5,2.5A2.5,2.5,0,0,0,8,4ZM8,8A1.5,1.5,0,1,1,9.5,6.5,1.5,1.5,0,0,1,8,8Z"/></svg>