<svg id="Layer_1" data-name="Layer 1" xmlns="http://www.w3.org/2000/svg" width="16" height="16" viewBox="0 0 16 16"><path d="M9,9A1,1,0,1,1,8,8,1,1,0,0,1,9,9ZM1.58789,2.92676A.50025.50025,0,0,0,1,3.73633L2.86084,5.0874a.50025.50025,0,0,0,.58789-.80957ZM5.584,2.96045a.5.5,0,0,0,.94532-.32617L5.7373.33691A.5.5,0,1,0,4.792.66309Zm9.52686.07715a.49991.49991,0,0,0-.69873-.11084L12.55127,4.27783a.50025.50025,0,0,0,.58789.80957L15,3.73633A.50086.50086,0,0,0,15.11084,3.0376ZM9.78027,3.27a.5.5,0,0,0,.63575-.30957L11.208.66309A.5.5,0,1,0,10.2627.33691l-.792,2.29737A.50026.50026,0,0,0,9.78027,3.27ZM12,9c0,2.65723-3.47559,6.66016-3.62354,6.8291a.50008.50008,0,0,1-.75292,0C7.47559,15.66016,4,11.65723,4,9a4,4,0,0,1,8,0ZM11,9A3,3,0,0,0,5,9c0,1.67725,1.91016,4.37939,3,5.72217C9.08984,13.37939,11,10.67725,11,9Z"/></svg>