<svg id="Layer_1" data-name="Layer 1" xmlns="http://www.w3.org/2000/svg" width="16" height="16" viewBox="0 0 16 16"><path d="M8,5A4,4,0,0,0,4,9c0,2.338,3.243,6.365,3.613,6.817a.5.5,0,0,0,.774,0C8.757,15.365,12,11.338,12,9A4,4,0,0,0,8,5Zm0,5A1,1,0,1,1,9,9,1,1,0,0,1,8,10ZM3.449,4.278a.5.5,0,0,1-.295.905.5.5,0,0,1-.293-.1L1,3.736a.5.5,0,1,1,.588-.809ZM4.792.663A.5.5,0,1,1,5.737.337l.792,2.3a.5.5,0,0,1-.309.636.489.489,0,0,1-.163.027.5.5,0,0,1-.473-.337ZM15,3.736,13.139,5.087a.5.5,0,0,1-.293.1.5.5,0,0,1-.295-.905l1.861-1.351A.5.5,0,1,1,15,3.736Zm-5.529-1.1.792-2.3a.5.5,0,1,1,.945.326l-.792,2.3a.5.5,0,0,1-.473.337A.489.489,0,0,1,9.78,3.27.5.5,0,0,1,9.471,2.634Z"/></svg>