<svg id="Layer_1" data-name="Layer 1" xmlns="http://www.w3.org/2000/svg" width="16" height="16" viewBox="0 0 16 16"><path d="M4,0A4.00458,4.00458,0,0,0,0,4c0,2.65723,3.47559,6.66016,3.62354,6.8291a.50008.50008,0,0,0,.75292,0C4.52441,10.66016,8,6.65723,8,4A4.00458,4.00458,0,0,0,4,0ZM4,9.72217C2.91016,8.37939,1,5.67725,1,4A3,3,0,0,1,7,4C7,5.67725,5.08984,8.37939,4,9.72217ZM5,4A1,1,0,1,1,4,3,1,1,0,0,1,5,4Zm7,1A4.00458,4.00458,0,0,0,8,9c0,2.65723,3.47559,6.66016,3.62354,6.8291a.50008.50008,0,0,0,.75292,0C12.52441,15.66016,16,11.65723,16,9A4.00458,4.00458,0,0,0,12,5Zm0,9.72217C10.91016,13.37939,9,10.67725,9,9a3,3,0,0,1,6,0C15,10.67725,13.08984,13.37939,12,14.72217ZM13,9a1,1,0,1,1-1-1A1,1,0,0,1,13,9Z"/></svg>