<svg id="Layer_1" data-name="Layer 1" xmlns="http://www.w3.org/2000/svg" width="16" height="16" viewBox="0 0 16 16"><path d="M6,5.75A.75.75,0,1,1,6.75,5,.75.75,0,0,1,6,5.75Zm4-1.5a.75.75,0,1,0,.75.75A.75.75,0,0,0,10,4.25ZM9.70166,7.273a2.12525,2.12525,0,0,1-3.40332,0,.37491.37491,0,0,0-.59668.4541,2.87476,2.87476,0,0,0,4.59668,0,.37491.37491,0,0,0-.59668-.4541ZM14,6c0,3.65234-5.40137,9.58691-5.63135,9.83789a.50022.50022,0,0,1-.7373,0C7.40137,15.58691,2,9.65234,2,6A6,6,0,0,1,14,6ZM13,6A5,5,0,0,0,3,6c0,2.75635,3.78711,7.3457,5,8.74512C9.21289,13.3457,13,8.75635,13,6Z"/></svg>