<svg id="Layer_1" data-name="Layer 1" xmlns="http://www.w3.org/2000/svg" width="16" height="16" viewBox="0 0 16 16"><path d="M13.5,6.352a.5.5,0,0,0-.59.391c-.563,2.794-3.8,6.724-4.91,8-.266-.307-.656-.767-1.1-1.324a.5.5,0,0,0-.782.623C6.964,15.1,7.6,15.808,7.63,15.837A.5.5,0,0,0,8,16H8a.5.5,0,0,0,.369-.163c.2-.212,4.788-5.262,5.522-8.9A.5.5,0,0,0,13.5,6.352Z"/><path d="M15.854.146a.5.5,0,0,0-.708,0L12.83,2.463A5.989,5.989,0,0,0,2,6c0,1.323.7,3.079,2.078,5.215L.146,15.146a.5.5,0,0,0,.708.708l15-15A.5.5,0,0,0,15.854.146ZM8.783,6.51l-.19.19A.981.981,0,0,1,8,6.917a1,1,0,1,1,1-1A.975.975,0,0,1,8.783,6.51ZM9.917,5.376A2,2,0,1,0,7.46,7.833L4.8,10.491A9.616,9.616,0,0,1,3,6a4.987,4.987,0,0,1,9.111-2.818Z"/></svg>