<svg version="1.1" xmlns="http://www.w3.org/2000/svg" width="16" height="16" viewBox="0 0 16 16">
<title>map-marker</title>
<path d="M8.5 3c-1.379 0-2.5 1.122-2.5 2.5s1.121 2.5 2.5 2.5 2.5-1.122 2.5-2.5-1.121-2.5-2.5-2.5zM8.5 7c-0.827 0-1.5-0.673-1.5-1.5s0.673-1.5 1.5-1.5 1.5 0.673 1.5 1.5-0.673 1.5-1.5 1.5zM8.5 0c-3.032 0-5.5 2.467-5.5 5.5 0 0.959 0.251 1.904 0.727 2.731l4.341 7.519c0.088 0.155 0.253 0.25 0.432 0.25s0.344-0.095 0.433-0.25l4.342-7.52c0.474-0.826 0.725-1.771 0.725-2.73 0-3.033-2.468-5.5-5.5-5.5zM12.408 7.731l-3.908 6.769-3.907-6.768c-0.388-0.675-0.593-1.447-0.593-2.232 0-2.481 2.019-4.5 4.5-4.5s4.5 2.019 4.5 4.5c0 0.785-0.205 1.557-0.592 2.231z"></path>
</svg>
