<svg version="1.1" xmlns="http://www.w3.org/2000/svg" width="16" height="16" viewBox="0 0 16 16">
<title>mars-double</title>
<path d="M14.5 5h-3c-0.276 0-0.5 0.224-0.5 0.5s0.224 0.5 0.5 0.5h1.793l-1.998 1.998c-0.407-0.326-0.867-0.579-1.371-0.749 0.042-0.246 0.076-0.495 0.076-0.752 0-1.060-0.383-2.022-0.998-2.791l1.998-1.999v1.793c0 0.276 0.224 0.5 0.5 0.5s0.5-0.224 0.5-0.5v-3c0-0.276-0.224-0.5-0.5-0.5h-3c-0.276 0-0.5 0.224-0.5 0.5s0.224 0.5 0.5 0.5h1.793l-1.998 1.998c-0.77-0.617-1.734-1.001-2.795-1.001-2.481 0-4.5 2.019-4.5 4.5 0 1.981 1.295 3.648 3.076 4.247-0.042 0.246-0.076 0.495-0.076 0.753 0 2.481 2.019 4.5 4.5 4.5s4.5-2.019 4.5-4.5c0-1.060-0.383-2.022-0.998-2.791l1.998-1.999v1.793c0 0.276 0.224 0.5 0.5 0.5s0.5-0.224 0.5-0.5v-3c0-0.276-0.224-0.5-0.5-0.5zM2 6.497c0-1.93 1.57-3.5 3.5-3.5s3.5 1.57 3.5 3.5c0 0.187-0.027 0.366-0.055 0.545l-0.445-0.045c-1.875 0-3.482 1.154-4.158 2.788-1.359-0.481-2.342-1.766-2.342-3.288zM8.641 8.011c-0.567 1.17-1.756 1.986-3.141 1.986l-0.141-0.014c0.567-1.171 1.756-1.986 3.141-1.986l0.141 0.014zM8.5 14.997c-1.93 0-3.5-1.57-3.5-3.5 0-0.187 0.027-0.366 0.055-0.545l0.445 0.045c1.875 0 3.482-1.154 4.158-2.788 1.359 0.481 2.342 1.766 2.342 3.288 0 1.929-1.57 3.5-3.5 3.5z"></path>
</svg>
