<svg version="1.1" xmlns="http://www.w3.org/2000/svg" width="16" height="16" viewBox="0 0 16 16">
<title>mars-stroke</title>
<path d="M14.5 1h-3c-0.276 0-0.5 0.224-0.5 0.5s0.224 0.5 0.5 0.5h1.793l-2.293 2.293-1.146-1.147c-0.195-0.195-0.512-0.195-0.707 0s-0.195 0.512 0 0.707l1.146 1.147-0.998 0.998c-0.77-0.617-1.734-1.001-2.795-1.001-2.481 0-4.5 2.019-4.5 4.5s2.019 4.5 4.5 4.5 4.5-2.019 4.5-4.5c0-1.060-0.383-2.022-0.998-2.791l0.998-0.999 1.146 1.146c0.098 0.098 0.226 0.147 0.354 0.147s0.256-0.049 0.354-0.146c0.195-0.195 0.195-0.512 0-0.707l-1.147-1.147 2.293-2.293v1.793c0 0.276 0.224 0.5 0.5 0.5s0.5-0.224 0.5-0.5v-3c0-0.276-0.224-0.5-0.5-0.5zM6.5 12.997c-1.93 0-3.5-1.57-3.5-3.5s1.57-3.5 3.5-3.5 3.5 1.57 3.5 3.5-1.57 3.5-3.5 3.5z"></path>
</svg>
