<svg version="1.1" xmlns="http://www.w3.org/2000/svg" width="16" height="16" viewBox="0 0 16 16">
<title>mars-stroke-h</title>
<path d="M15.854 7.146l-2-2c-0.195-0.195-0.512-0.195-0.707 0s-0.195 0.512 0 0.707l1.146 1.147h-3.308v-1.5c0-0.268-0.217-0.485-0.485-0.485s-0.485 0.217-0.485 0.485v1.5h-1.065c-0.251-2.245-2.139-4.003-4.45-4.003-2.481 0-4.5 2.019-4.5 4.5s2.019 4.5 4.5 4.5c2.309 0 4.195-1.754 4.449-3.997h1.066v1.5c0 0.268 0.217 0.485 0.485 0.485s0.485-0.217 0.485-0.485v-1.5h3.308l-1.146 1.146c-0.195 0.195-0.195 0.512 0 0.707 0.097 0.098 0.225 0.147 0.353 0.147s0.256-0.049 0.354-0.146l2-2c0.195-0.196 0.195-0.512 0-0.708zM4.5 10.997c-1.93 0-3.5-1.57-3.5-3.5s1.57-3.5 3.5-3.5 3.5 1.57 3.5 3.5-1.57 3.5-3.5 3.5z"></path>
</svg>
