<svg version="1.1" xmlns="http://www.w3.org/2000/svg" width="16" height="16" viewBox="0 0 16 16">
<title>materialized-view</title>
<path d="M8 4.015c-2.488 0-4.762 1.443-5.934 3.767-0.069 0.138-0.069 0.3 0 0.438 1.172 2.322 3.446 3.765 5.934 3.765s4.762-1.443 5.934-3.767c0.069-0.138 0.069-0.3 0-0.438-1.172-2.322-3.446-3.765-5.934-3.765zM8 11.015c-2.041 0-3.917-1.149-4.951-3.015 1.034-1.866 2.91-3.015 4.951-3.015s3.917 1.149 4.951 3.015c-1.034 1.866-2.91 3.015-4.951 3.015z"></path>
<path d="M1.5 3c0.276 0 0.5-0.224 0.5-0.5s-0.224-0.5-0.5-0.5h-1c-0.276 0-0.5 0.224-0.5 0.5v11c0 0.276 0.224 0.5 0.5 0.5h1c0.276 0 0.5-0.224 0.5-0.5s-0.224-0.5-0.5-0.5h-0.5v-10h0.5z"></path>
<path d="M15.5 2h-1c-0.276 0-0.5 0.224-0.5 0.5s0.224 0.5 0.5 0.5h0.5v10h-0.5c-0.276 0-0.5 0.224-0.5 0.5s0.224 0.5 0.5 0.5h1c0.276 0 0.5-0.224 0.5-0.5v-11c0-0.276-0.224-0.5-0.5-0.5z"></path>
<path d="M8 6c-1.103 0-2 0.897-2 2s0.897 2 2 2 2-0.897 2-2-0.897-2-2-2zM8 9c-0.552 0-1-0.449-1-1s0.448-1 1-1 1 0.449 1 1-0.448 1-1 1z"></path>
</svg>
