<svg id="Layer_1" data-name="Layer 1" xmlns="http://www.w3.org/2000/svg" width="16" height="16" viewBox="0 0 16 16"><path d="M12.674,5h0a3.307,3.307,0,0,0-2.354.975L5.973,10.324A3.325,3.325,0,0,0,8.327,16h.009a3.311,3.311,0,0,0,2.342-.973l4.347-4.342A3.33,3.33,0,0,0,12.674,5Zm-2.7,9.32A2.316,2.316,0,0,1,8.333,15H8.327A2.326,2.326,0,0,1,6.68,11.031L8.5,9.208,11.793,12.5Zm4.347-4.342L12.5,11.793,9.208,8.5l1.817-1.819a2.33,2.33,0,0,1,3.293,3.3Z"/><path d="M8,4A4,4,0,1,0,4,8,4,4,0,0,0,8,4ZM1,4A3,3,0,0,1,4,1c.095,0,.186.019.279.028L2.753,6.72A3,3,0,0,1,1,4ZM4,7c-.1,0-.186-.019-.279-.028L5.247,1.28A2.995,2.995,0,0,1,4,7Z"/></svg>