<svg version="1.1" xmlns="http://www.w3.org/2000/svg" width="16" height="16" viewBox="0 0 16 16">
<title>media-list</title>
<path d="M6.5 4h9c0.276 0 0.5-0.224 0.5-0.5s-0.224-0.5-0.5-0.5v0h-9c-0.276 0-0.5 0.224-0.5 0.5s0.224 0.5 0.5 0.5v0z"></path>
<path d="M6.5 6h7c0.276 0 0.5-0.224 0.5-0.5s-0.224-0.5-0.5-0.5v0h-7c-0.276 0-0.5 0.224-0.5 0.5s0.224 0.5 0.5 0.5v0z"></path>
<path d="M2.5 2c-1.381 0-2.5 1.119-2.5 2.5s1.119 2.5 2.5 2.5c1.381 0 2.5-1.119 2.5-2.5v0c0-1.381-1.119-2.5-2.5-2.5v0zM2.5 6c-0.828 0-1.5-0.672-1.5-1.5s0.672-1.5 1.5-1.5c0.828 0 1.5 0.672 1.5 1.5v0c0 0.828-0.672 1.5-1.5 1.5v0z"></path>
<path d="M15.5 10h-9c-0.276 0-0.5 0.224-0.5 0.5s0.224 0.5 0.5 0.5v0h9c0.276 0 0.5-0.224 0.5-0.5s-0.224-0.5-0.5-0.5v0z"></path>
<path d="M13.5 12h-7c-0.276 0-0.5 0.224-0.5 0.5s0.224 0.5 0.5 0.5v0h7c0.276 0 0.5-0.224 0.5-0.5s-0.224-0.5-0.5-0.5v0z"></path>
<path d="M2.5 9c-1.381 0-2.5 1.119-2.5 2.5s1.119 2.5 2.5 2.5c1.381 0 2.5-1.119 2.5-2.5v0c0-1.381-1.119-2.5-2.5-2.5v0zM2.5 13c-0.828 0-1.5-0.672-1.5-1.5s0.672-1.5 1.5-1.5c0.828 0 1.5 0.672 1.5 1.5v0c0 0.828-0.672 1.5-1.5 1.5v0z"></path>
</svg>
