<svg id="Layer_1" data-name="Layer 1" xmlns="http://www.w3.org/2000/svg" width="16" height="16" viewBox="0 0 16 16"><path d="M10,10H8.5V8.5a.5.5,0,0,0-1,0V10H6a.5.5,0,0,0,0,1H7.5v1.5a.5.5,0,0,0,1,0V11H10a.5.5,0,0,0,0-1Z"/><path d="M13.9,6.638,11.553,5.467A.994.994,0,0,1,11,4.573V4h.5a.5.5,0,0,0,.5-.5V1a1,1,0,0,0-1-1H5A1,1,0,0,0,4,1V3.5a.5.5,0,0,0,.5.5H5v.573a.994.994,0,0,1-.553.894L2.105,6.638A1.991,1.991,0,0,0,1,8.427V15a1,1,0,0,0,1,1H14a1,1,0,0,0,1-1V8.427A1.991,1.991,0,0,0,13.9,6.638ZM5,1h6V3H5Zm9,14H2V8.427a.994.994,0,0,1,.553-.894L4.895,6.362A1.991,1.991,0,0,0,6,4.573V4h4v.573a1.991,1.991,0,0,0,1.105,1.789l2.342,1.171A.994.994,0,0,1,14,8.427Z"/></svg>