<svg id="Layer_1" data-name="Layer 1" xmlns="http://www.w3.org/2000/svg" width="16" height="16" viewBox="0 0 16 16"><path d="M14,4h-.4L9.15,2.221a3.109,3.109,0,0,0-2.3,0L2.4,4H2A2,2,0,0,0,0,6V8a2,2,0,0,0,2,2H3.191l1.171,2.342A2.982,2.982,0,0,0,7.045,14h1.91a2.982,2.982,0,0,0,2.683-1.658L12.809,10H14a2,2,0,0,0,2-2V6A2,2,0,0,0,14,4ZM2,9A1,1,0,0,1,1,8V6A1,1,0,0,1,2,5V6.91a3.012,3.012,0,0,0,.317,1.341L2.691,9ZM10.744,11.9A1.989,1.989,0,0,1,8.955,13H7.045A1.989,1.989,0,0,1,5.256,11.9L3.211,7.8A2.009,2.009,0,0,1,3,6.91V4.838L7.221,3.15a2.108,2.108,0,0,1,1.558,0L13,4.838V6.91a2.009,2.009,0,0,1-.211.894ZM15,8a1,1,0,0,1-1,1h-.691l.374-.749A3.012,3.012,0,0,0,14,6.91V5a1,1,0,0,1,1,1Z"/><path d="M10.563,6H5.5a.5.5,0,0,0,0,1h5.063a.5.5,0,1,0,0-1Z"/><path d="M9.5,9h-3a.5.5,0,0,0,0,1h3a.5.5,0,0,0,0-1Z"/></svg>