<svg id="Layer_1" data-name="Layer 1" xmlns="http://www.w3.org/2000/svg" width="16" height="16" viewBox="0 0 16 16"><path d="M9,1.366V.5A.5.5,0,0,0,8.5,0h-7A.5.5,0,0,0,1,.5v.77L.36,1.8A1,1,0,0,0,0,2.57V3.5A.5.5,0,0,0,.5,4H1V15a1,1,0,0,0,1,1H8a1,1,0,0,0,1-1V4h.5a.5.5,0,0,0,.5-.5V2.627a.5.5,0,0,0-.136-.343ZM8,15.5V15H2V13H4a2,2,0,0,0,2-2V8A2,2,0,0,0,4,6H2V4H8V15H8ZM2,12V7H4A1,1,0,0,1,5,8v3a1,1,0,0,1-1,1ZM9,3H1V2.57l.819-.68A.5.5,0,0,0,2,1.505V1H8v.564a.5.5,0,0,0,.136.343L9,2.825Z"/><path d="M14,7a2,2,0,0,0-2,2v5a2,2,0,0,0,4,0V9A2,2,0,0,0,14,7Zm1,7a1,1,0,0,1-2,0V12h2Zm0-3H13V9a1,1,0,0,1,2,0Z"/></svg>