<svg version="1.1" xmlns="http://www.w3.org/2000/svg" width="16" height="16" viewBox="0 0 16 16">
<title>medkit</title>
<path d="M13.999 4h-2.002v-1c0-1.103-0.897-2-2-2h-3c-1.103 0-2 0.897-2 2v1h-1.998c-1.103 0-2 0.897-2 2v7c0 1.103 0.897 2 2 2h11c1.103 0 2-0.897 2-2v-7c0-1.103-0.897-2-2-2zM5.997 3c0-0.551 0.448-1 1-1h3c0.552 0 1 0.449 1 1v1h-5v-1zM14.999 13c0 0.551-0.448 1-1 1h-11c-0.552 0-1-0.449-1-1v-7c0-0.551 0.448-1 1-1h11c0.552 0 1 0.449 1 1v7z"></path>
<path d="M9 7h-1v2h-2v1h2v2h1v-2h2v-1h-2z"></path>
</svg>
