<svg version="1.1" xmlns="http://www.w3.org/2000/svg" width="16" height="16" viewBox="0 0 16 16">
<title>mercury</title>
<path d="M13 7.497c0-1.749-1.013-3.251-2.474-3.996 1.117-0.571 1.982-1.595 2.315-2.875 0.069-0.268-0.091-0.541-0.358-0.61-0.271-0.072-0.541 0.091-0.61 0.358-0.401 1.544-1.788 2.623-3.373 2.623s-2.972-1.079-3.373-2.623c-0.069-0.267-0.341-0.43-0.61-0.358-0.268 0.069-0.428 0.342-0.358 0.61 0.333 1.28 1.198 2.304 2.315 2.875-1.461 0.744-2.474 2.247-2.474 3.996 0 2.31 1.756 4.197 4 4.449v1.054h-1.5c-0.276 0-0.5 0.224-0.5 0.5s0.224 0.5 0.5 0.5h1.5v1.497c0 0.276 0.224 0.5 0.5 0.5s0.5-0.224 0.5-0.5v-1.497h1.5c0.276 0 0.5-0.224 0.5-0.5s-0.224-0.5-0.5-0.5h-1.5v-1.054c2.244-0.252 4-2.139 4-4.449zM5 7.497c0-1.93 1.57-3.5 3.5-3.5s3.5 1.57 3.5 3.5-1.57 3.5-3.5 3.5-3.5-1.571-3.5-3.5z"></path>
</svg>
