<svg version="1.1" xmlns="http://www.w3.org/2000/svg" width="16" height="16" viewBox="0 0 16 16">
<title>microphone-slash</title>
<path d="M8.5 11c1.378 0 2.5-1.122 2.5-2.5v-0.997l-1.010 1.094c-0.046 0.709-0.582 1.28-1.275 1.381l-0.855 0.926c0.205 0.057 0.417 0.096 0.64 0.096zM7.61 9.701l7.257-7.861c0.188-0.203 0.175-0.52-0.028-0.707s-0.52-0.175-0.707 0.028l-3.132 3.394v-2.055c0-1.378-1.122-2.5-2.5-2.5s-2.5 1.122-2.5 2.5v6c0 0.418 0.113 0.806 0.295 1.152l-0.713 0.772c-0.366-0.553-0.582-1.213-0.582-1.924v-2c0-0.276-0.224-0.5-0.5-0.5s-0.5 0.224-0.5 0.5v2c0 1.002 0.34 1.919 0.896 2.667l-2.763 2.993c-0.188 0.203-0.175 0.52 0.028 0.707 0.096 0.089 0.217 0.133 0.339 0.133 0.135 0 0.269-0.054 0.367-0.161l4.743-5.138zM7 2.5c0-0.827 0.673-1.5 1.5-1.5s1.5 0.673 1.5 1.5v3.138l-2.957 3.203c-0.026-0.11-0.043-0.223-0.043-0.341v-6zM12.5 6c-0.276 0-0.5 0.224-0.5 0.5v2c0 1.93-1.57 3.5-3.5 3.5-0.491 0-0.951-0.115-1.372-0.302l-0.7 0.759c0.48 0.252 1.006 0.429 1.572 0.492v2.051h-2.5c-0.276 0-0.5 0.224-0.5 0.5s0.224 0.5 0.5 0.5h6c0.276 0 0.5-0.224 0.5-0.5s-0.224-0.5-0.5-0.5h-2.5v-2.051c2.244-0.252 4-2.139 4-4.449v-2c0-0.276-0.224-0.5-0.5-0.5z"></path>
</svg>
