<svg version="1.1" xmlns="http://www.w3.org/2000/svg" width="16" height="16" viewBox="0 0 16 16">
<title>microphone</title>
<path d="M8.5 11c1.378 0 2.5-1.122 2.5-2.5v-6c0-1.378-1.122-2.5-2.5-2.5s-2.5 1.122-2.5 2.5v6c0 1.378 1.122 2.5 2.5 2.5zM7 2.5c0-0.827 0.673-1.5 1.5-1.5s1.5 0.673 1.5 1.5v6c0 0.827-0.673 1.5-1.5 1.5s-1.5-0.673-1.5-1.5v-6zM13 8.5v-2c0-0.276-0.224-0.5-0.5-0.5s-0.5 0.224-0.5 0.5v2c0 1.93-1.57 3.5-3.5 3.5s-3.5-1.57-3.5-3.5v-2c0-0.276-0.224-0.5-0.5-0.5s-0.5 0.224-0.5 0.5v2c0 2.31 1.756 4.197 4 4.449v2.051h-2.5c-0.276 0-0.5 0.224-0.5 0.5s0.224 0.5 0.5 0.5h6c0.276 0 0.5-0.224 0.5-0.5s-0.224-0.5-0.5-0.5h-2.5v-2.051c2.244-0.252 4-2.139 4-4.449z"></path>
</svg>
