<svg version="1.1" xmlns="http://www.w3.org/2000/svg" width="16" height="16" viewBox="0 0 16 16">
<title>military-vehicle</title>
<path d="M14.864 7.826l-2.705-0.676c-0.264-0.066-0.504-0.203-0.697-0.395l-1.022-1.022c-0.473-0.473-1.101-0.733-1.769-0.733h-0.671v-1h2.5c0.276 0 0.5-0.224 0.5-0.5s-0.224-0.5-0.5-0.5h-4c-0.276 0-0.5 0.224-0.5 0.5s0.224 0.5 0.5 0.5h0.5v1h-1.833c-0.257 0-0.512 0.043-0.755 0.12-0.065 0.012-0.123 0.035-0.176 0.069-0.202 0.081-0.395 0.181-0.569 0.311l-2.667 2c-0.626 0.47-1 1.218-1 2v2c0 0.276 0.224 0.5 0.5 0.5h1.5c0 1.103 0.897 2 2 2s2-0.897 2-2h4c0 1.103 0.897 2 2 2s2-0.897 2-2h1.5c0.276 0 0.5-0.224 0.5-0.5v-2.219c0-0.69-0.467-1.288-1.136-1.455zM8.671 6c0.401 0 0.777 0.156 1.061 0.439l0.924 0.924-1.274 0.637h-1.382v-2h0.671zM7 6v2h-2v-1.973c0.056-0.006 0.11-0.027 0.167-0.027h1.833zM4 13c-0.551 0-1-0.449-1-1s0.449-1 1-1 1 0.449 1 1-0.449 1-1 1zM12 13c-0.551 0-1-0.449-1-1s0.449-1 1-1 1 0.449 1 1-0.449 1-1 1zM15 11h-1.278c-0.347-0.595-0.985-1-1.722-1s-1.375 0.405-1.722 1h-4.556c-0.347-0.595-0.985-1-1.722-1s-1.375 0.405-1.722 1h-1.278v-1.5c0-0.47 0.224-0.918 0.6-1.2l2.4-1.8v2c0 0.276 0.224 0.5 0.5 0.5h5c0.078 0 0.154-0.018 0.224-0.053l1.894-0.947c0.1 0.039 0.194 0.093 0.298 0.119l2.705 0.676c0.223 0.057 0.379 0.256 0.379 0.486v1.719z"></path>
</svg>
