<svg version="1.1" xmlns="http://www.w3.org/2000/svg" width="16" height="16" viewBox="0 0 16 16">
<title>missile</title>
<path d="M14.715 1.285c-0.25-0.251-0.635-0.294-0.933-0.103l-3.254 2.071c-0.89 0.566-1.721 1.233-2.468 1.98l-1.767 1.767h-2.793c-0.132 0-0.26 0.053-0.354 0.146l-2.002 2c-0.143 0.143-0.186 0.358-0.108 0.545s0.26 0.309 0.462 0.309h2.115c-0.056 0.182-0.094 0.37-0.094 0.565 0 0.51 0.198 0.99 0.565 1.357 0.36 0.361 0.84 0.559 1.351 0.559 0.196 0 0.384-0.038 0.565-0.094v2.113c0 0.202 0.122 0.385 0.309 0.462 0.062 0.026 0.127 0.038 0.191 0.038 0.13 0 0.258-0.051 0.354-0.146l2-2.002c0.093-0.094 0.146-0.222 0.146-0.354v-2.791l1.767-1.767c0.748-0.748 1.414-1.578 1.98-2.468l2.071-3.254c0.19-0.299 0.148-0.683-0.103-0.933zM3.707 8h1.586l-1 1h-1.587l1.001-1zM8 12.291l-1 1.001v-1.585l1-1v1.584zM6.078 11.215c-0.344 0.344-0.937 0.35-1.293-0.006-0.172-0.172-0.266-0.4-0.266-0.644s0.094-0.471 0.266-0.643l3.982-3.982c0.223-0.223 0.466-0.424 0.704-0.63l1.22 1.22c-0.207 0.238-0.408 0.481-0.631 0.704l-3.982 3.981zM11.903 4.935c-0.179 0.281-0.382 0.545-0.581 0.812l-1.069-1.069c0.267-0.199 0.531-0.403 0.812-0.581l2.306-1.467-1.468 2.305z"></path>
</svg>
