<svg version="1.1" xmlns="http://www.w3.org/2000/svg" width="16" height="16" viewBox="0 0 16 16">
<title>modifier-star</title>
<path d="M8.002-0.004c-4.42 0-8.002 3.582-8.002 8.002s3.582 8.002 8.002 8.002c4.42 0 8.002-3.582 8.002-8.002s-3.582-8.002-8.002-8.002zM11.908 9.228c0.427 0.245 0.572 0.789 0.325 1.214-0.164 0.286-0.464 0.444-0.77 0.444-0.151 0-0.304-0.037-0.444-0.119l-2.13-1.23v2.46c0 0.491-0.398 0.889-0.889 0.889s-0.889-0.398-0.889-0.889v-2.46l-2.13 1.23c-0.14 0.080-0.293 0.119-0.444 0.119-0.306 0-0.606-0.158-0.77-0.444-0.247-0.425-0.101-0.969 0.325-1.214l2.13-1.23-2.13-1.23c-0.427-0.245-0.572-0.789-0.325-1.214 0.245-0.427 0.788-0.569 1.214-0.325l2.13 1.23v-2.46c0-0.491 0.398-0.889 0.889-0.889s0.889 0.398 0.889 0.889v2.46l2.13-1.23c0.421-0.244 0.969-0.101 1.214 0.325 0.247 0.425 0.101 0.969-0.325 1.214l-2.13 1.23 2.13 1.23z"></path>
</svg>
