<svg version="1.1" xmlns="http://www.w3.org/2000/svg" width="16" height="16" viewBox="0 0 16 16">
<title>modifier-x</title>
<path d="M8-0.004c-4.42 0-8.002 3.582-8.002 8.002s3.582 8.002 8.002 8.002 8.002-3.582 8.002-8.002-3.582-8.002-8.002-8.002zM11.74 10.482c0.347 0.347 0.347 0.91 0 1.257-0.174 0.172-0.402 0.26-0.629 0.26s-0.455-0.087-0.629-0.26l-2.482-2.484-2.482 2.484c-0.174 0.172-0.402 0.26-0.629 0.26s-0.455-0.087-0.629-0.26c-0.347-0.347-0.347-0.91 0-1.257l2.482-2.482-2.482-2.484c-0.347-0.347-0.347-0.91 0-1.257s0.91-0.347 1.257 0l2.484 2.482 2.482-2.482c0.347-0.347 0.91-0.347 1.257 0s0.347 0.91 0 1.257l-2.482 2.482 2.484 2.484z"></path>
</svg>
