<svg version="1.1" xmlns="http://www.w3.org/2000/svg" width="16" height="16" viewBox="0 0 16 16">
<title>modifier-arrow-left</title>
<path d="M7.998-0.004c-4.42 0-8.002 3.582-8.002 8.002s3.582 8.002 8.002 8.002c4.42 0 8.002-3.582 8.002-8.002s-3.582-8.002-8.002-8.002zM11.552 8.887h-4.965l2.037 2.037c0.347 0.347 0.347 0.91 0 1.257-0.172 0.174-0.4 0.261-0.628 0.261s-0.455-0.087-0.628-0.26l-3.556-3.556c-0.347-0.347-0.347-0.91 0-1.257l3.556-3.556c0.347-0.347 0.91-0.347 1.257 0s0.347 0.91 0 1.257l-2.039 2.037h4.965c0.491 0 0.889 0.398 0.889 0.889s-0.398 0.889-0.889 0.889z"></path>
</svg>
