<svg version="1.1" xmlns="http://www.w3.org/2000/svg" width="16" height="16" viewBox="0 0 16 16">
<title>modifier-arrow-up</title>
<path d="M7.998-0.004c-4.42 0-8.002 3.582-8.002 8.002s3.582 8.002 8.002 8.002c4.42 0 8.002-3.582 8.002-8.002s-3.582-8.002-8.002-8.002zM12.183 8.624c-0.174 0.174-0.402 0.261-0.629 0.261s-0.455-0.087-0.628-0.261l-2.039-2.037v4.965c0 0.491-0.398 0.889-0.889 0.889s-0.889-0.398-0.889-0.889v-4.965l-2.037 2.037c-0.347 0.347-0.91 0.347-1.257 0s-0.347-0.91 0-1.257l3.556-3.556c0.347-0.347 0.91-0.347 1.257 0l3.556 3.556c0.347 0.347 0.347 0.91 0 1.257z"></path>
</svg>
