<svg version="1.1" xmlns="http://www.w3.org/2000/svg" width="16" height="16" viewBox="0 0 16 16">
<title>modifier-information</title>
<path d="M8.002-0.004c-4.42 0-8.002 3.582-8.002 8.002s3.582 8.002 8.002 8.002c4.42 0 8.002-3.582 8.002-8.002s-3.582-8.002-8.002-8.002zM8.889 11.554c0 0.491-0.398 0.889-0.889 0.889s-0.889-0.398-0.889-0.889v-3.556c0-0.491 0.398-0.889 0.889-0.889s0.889 0.398 0.889 0.889v3.556zM8 5.333c-0.491 0-0.889-0.398-0.889-0.889s0.398-0.889 0.889-0.889 0.889 0.398 0.889 0.889c0 0.491-0.398 0.889-0.889 0.889z"></path>
</svg>
