<svg version="1.1" xmlns="http://www.w3.org/2000/svg" width="16" height="16" viewBox="0 0 16 16">
<title>modifier-clock</title>
<path d="M7.998-0.004c-4.42 0-8.002 3.582-8.002 8.002s3.582 8.002 8.002 8.002c4.42 0 8.002-3.582 8.002-8.002s-3.582-8.002-8.002-8.002zM11.305 11.307c-0.172 0.174-0.4 0.26-0.628 0.26s-0.455-0.085-0.629-0.26l-2.677-2.679c-0.167-0.167-0.261-0.393-0.261-0.629v-3.554c0-0.491 0.398-0.889 0.889-0.889s0.889 0.398 0.889 0.889v3.186l2.418 2.42c0.348 0.347 0.348 0.91 0 1.257z"></path>
</svg>
