<svg version="1.1" xmlns="http://www.w3.org/2000/svg" width="16" height="16" viewBox="0 0 16 16">
<title>modifier-play</title>
<path d="M8-0.004c-4.42 0-8.002 3.582-8.002 8.002s3.582 8.002 8.002 8.002 8.002-3.582 8.002-8.002-3.582-8.002-8.002-8.002zM11.124 8.763l-4.444 2.667c-0.14 0.084-0.299 0.126-0.457 0.126-0.151 0-0.302-0.037-0.439-0.116-0.277-0.158-0.45-0.453-0.45-0.773v-5.333c0-0.32 0.172-0.615 0.45-0.773s0.622-0.153 0.896 0.011l4.444 2.667c0.268 0.162 0.432 0.45 0.432 0.763s-0.164 0.601-0.432 0.763z"></path>
</svg>
