<svg version="1.1" xmlns="http://www.w3.org/2000/svg" width="16" height="16" viewBox="0 0 16 16">
<title>modifier-pause</title>
<path d="M8-0.004c-4.42 0-8.002 3.582-8.002 8.002s3.582 8.002 8.002 8.002 8.002-3.582 8.002-8.002-3.582-8.002-8.002-8.002zM7.111 9.778c0 0.491-0.398 0.889-0.889 0.889s-0.889-0.398-0.889-0.889v-3.556c0-0.491 0.398-0.889 0.889-0.889s0.889 0.398 0.889 0.889v3.556zM10.667 9.778c0 0.491-0.398 0.889-0.889 0.889s-0.889-0.398-0.889-0.889v-3.556c0-0.491 0.398-0.889 0.889-0.889s0.889 0.398 0.889 0.889v3.556z"></path>
</svg>
