<svg version="1.1" xmlns="http://www.w3.org/2000/svg" width="16" height="16" viewBox="0 0 16 16">
<title>modifier-warning</title>
<path d="M8-0.004c-4.42 0-8.002 3.582-8.002 8.002s3.582 8.002 8.002 8.002 8.002-3.582 8.002-8.002-3.582-8.002-8.002-8.002zM8.622 12.178c-0.16 0.178-0.391 0.267-0.622 0.267s-0.462-0.089-0.622-0.267c-0.178-0.16-0.267-0.391-0.267-0.622 0-0.124 0.018-0.231 0.071-0.338 0.036-0.107 0.107-0.213 0.196-0.284 0.338-0.338 0.924-0.338 1.244 0 0.089 0.071 0.16 0.178 0.196 0.284 0.053 0.107 0.071 0.213 0.071 0.338 0 0.231-0.089 0.462-0.267 0.622zM8.889 7.998c0 0.491-0.398 0.889-0.889 0.889s-0.889-0.398-0.889-0.889v-3.556c0-0.491 0.398-0.889 0.889-0.889s0.889 0.398 0.889 0.889v3.556z"></path>
</svg>
