<svg version="1.1" xmlns="http://www.w3.org/2000/svg" width="16" height="16" viewBox="0 0 16 16">
<title>modifier-plus</title>
<path d="M8-0.004c-4.42 0-8.002 3.582-8.002 8.002s3.582 8.002 8.002 8.002 8.002-3.582 8.002-8.002-3.582-8.002-8.002-8.002zM11.556 8.887h-2.667v2.667c0 0.491-0.398 0.889-0.889 0.889s-0.889-0.398-0.889-0.889v-2.667h-2.667c-0.491 0-0.889-0.398-0.889-0.889s0.398-0.889 0.889-0.889h2.667v-2.667c0-0.491 0.398-0.889 0.889-0.889s0.889 0.398 0.889 0.889v2.667h2.667c0.491 0 0.889 0.398 0.889 0.889s-0.398 0.889-0.889 0.889z"></path>
</svg>
