<svg version="1.1" xmlns="http://www.w3.org/2000/svg" width="16" height="16" viewBox="0 0 16 16">
<title>modifier-arrow-right</title>
<path d="M7.998-0.004c-4.42 0-8.002 3.582-8.002 8.002s3.582 8.002 8.002 8.002c4.42 0 8.002-3.582 8.002-8.002s-3.582-8.002-8.002-8.002zM12.185 8.628l-3.556 3.556c-0.174 0.172-0.402 0.26-0.629 0.26s-0.455-0.087-0.629-0.26c-0.347-0.347-0.347-0.91 0-1.257l2.037-2.037h-4.964c-0.491 0-0.889-0.398-0.889-0.889s0.398-0.889 0.889-0.889h4.965l-2.039-2.039c-0.347-0.347-0.347-0.91 0-1.257s0.91-0.347 1.257 0l3.556 3.556c0.348 0.347 0.348 0.908 0.002 1.257z"></path>
</svg>
