<svg version="1.1" xmlns="http://www.w3.org/2000/svg" width="16" height="16" viewBox="0 0 16 16">
<title>modifier-ellipsis-h</title>
<path d="M8-0.002c-4.42 0-8.002 3.582-8.002 8.002s3.582 8.002 8.002 8.002 8.002-3.582 8.002-8.002-3.582-8.002-8.002-8.002zM4.446 8.891c-0.491 0-0.889-0.398-0.889-0.889s0.398-0.889 0.889-0.889c0.491 0 0.889 0.398 0.889 0.889s-0.398 0.889-0.889 0.889zM8.002 8.891c-0.491 0-0.889-0.398-0.889-0.889s0.398-0.889 0.889-0.889c0.491 0 0.889 0.398 0.889 0.889s-0.398 0.889-0.889 0.889zM11.557 8.891c-0.491 0-0.889-0.398-0.889-0.889s0.398-0.889 0.889-0.889c0.491 0 0.889 0.398 0.889 0.889s-0.398 0.889-0.889 0.889z"></path>
</svg>
