<svg version="1.1" xmlns="http://www.w3.org/2000/svg" width="16" height="16" viewBox="0 0 16 16">
<title>money</title>
<path d="M15.5 3h-15c-0.276 0-0.5 0.224-0.5 0.5v9c0 0.276 0.224 0.5 0.5 0.5h15c0.276 0 0.5-0.224 0.5-0.5v-9c0-0.276-0.224-0.5-0.5-0.5zM12.051 12h-8.102c-0.221-1.527-1.422-2.728-2.949-2.949v-2.102c1.527-0.221 2.728-1.422 2.949-2.949h8.101c0.222 1.527 1.423 2.728 2.95 2.949v2.101c-1.527 0.222-2.728 1.423-2.949 2.95zM15 5.949c-0.978-0.199-1.75-0.971-1.949-1.949h1.949v1.949zM2.949 4c-0.199 0.978-0.971 1.75-1.949 1.949v-1.949h1.949zM1 10.051c0.978 0.199 1.75 0.971 1.949 1.949h-1.949v-1.949zM13.051 12c0.199-0.978 0.971-1.75 1.949-1.949v1.949h-1.949zM8 5c-1.654 0-3 1.346-3 3s1.346 3 3 3 3-1.346 3-3-1.346-3-3-3zM8 10c-1.103 0-2-0.897-2-2s0.897-2 2-2 2 0.897 2 2-0.897 2-2 2z"></path>
</svg>
