<svg version="1.1" xmlns="http://www.w3.org/2000/svg" width="16" height="16" viewBox="0 0 16 16">
<title>moon-o</title>
<path d="M14.64 10.43c-0.152-0.153-0.386-0.191-0.579-0.095-0.88 0.441-1.821 0.665-2.796 0.665-3.454 0-6.265-2.811-6.265-6.265 0-0.975 0.224-1.916 0.665-2.797 0.097-0.192 0.059-0.426-0.095-0.578-0.153-0.152-0.386-0.19-0.578-0.091-2.463 1.248-3.992 3.726-3.992 6.466 0 4.006 3.259 7.265 7.265 7.265 2.74 0 5.218-1.529 6.467-3.992 0.097-0.192 0.060-0.425-0.092-0.578zM8.265 14c-3.454 0-6.265-2.811-6.265-6.265 0-1.866 0.824-3.591 2.218-4.765-0.145 0.574-0.218 1.164-0.218 1.765 0 4.006 3.259 7.265 7.265 7.265 0.602 0 1.191-0.073 1.765-0.218-1.174 1.394-2.899 2.218-4.765 2.218z"></path>
</svg>
