<svg version="1.1" xmlns="http://www.w3.org/2000/svg" width="16" height="16" viewBox="0 0 16 16">
<title>mortar-board</title>
<path d="M16 6c0-0.176-0.092-0.338-0.243-0.429l-7.5-4.5c-0.158-0.095-0.355-0.095-0.514 0l-7.5 4.5c-0.151 0.091-0.243 0.253-0.243 0.429v5c0 0.276 0.224 0.5 0.5 0.5s0.5-0.224 0.5-0.5v-4.117l2 1.2v4.167c0 1.542 2.205 2.75 5.020 2.75 2.839 0 4.98-1.182 4.98-2.75v-4.167l2.757-1.654c0.151-0.091 0.243-0.253 0.243-0.429zM12 12.25c0 0.828-1.635 1.75-3.98 1.75-2.301 0-4.020-0.924-4.020-1.75v-3.567l3.743 2.246c0.079 0.047 0.168 0.071 0.257 0.071s0.178-0.024 0.257-0.071l3.743-2.246v3.567zM8 9.917l-6.528-3.917 6.528-3.917 6.528 3.917-6.528 3.917z"></path>
</svg>
