<svg version="1.1" xmlns="http://www.w3.org/2000/svg" width="16" height="16" viewBox="0 0 16 16">
<title>motorcycle</title>
<path d="M13.499 8c-0.171 0-0.339 0.018-0.5 0.051l-0.326-0.76c0.577-0.191 1.189-0.291 1.827-0.291 0.276 0 0.5-0.224 0.5-0.5s-0.224-0.5-0.5-0.5c-0.775 0-1.519 0.129-2.222 0.372l-1.319-3.070c-0.078-0.183-0.259-0.302-0.459-0.302h-2c-0.276 0-0.5 0.224-0.5 0.5s0.224 0.5 0.5 0.5h1.671l0.506 1.177-2.265 0.823h-6.912c-0.276 0-0.5 0.224-0.5 0.5s0.224 0.5 0.5 0.5h1c1.93 0 3.5 1.57 3.5 3.5 0 0.276 0.224 0.5 0.5 0.5h2c0.2 0 0.382-0.12 0.46-0.304 0.009-0.020 0.861-1.932 2.801-2.994l0.319 0.743c-0.652 0.452-1.082 1.203-1.082 2.055 0 1.378 1.121 2.5 2.5 2.5s2.5-1.122 2.5-2.5-1.12-2.5-2.499-2.5zM8.188 10h-1.215c-0.135-1.215-0.766-2.273-1.673-3h3.2l0.171-0.030 2.401-0.873 0.292 0.679c-1.828 0.964-2.827 2.556-3.176 3.224zM13.499 12c-0.827 0-1.5-0.673-1.5-1.5s0.673-1.5 1.5-1.5 1.5 0.673 1.5 1.5-0.673 1.5-1.5 1.5zM2.5 8c-1.379 0-2.5 1.122-2.5 2.5s1.121 2.5 2.5 2.5 2.5-1.122 2.5-2.5-1.121-2.5-2.5-2.5zM2.5 12c-0.827 0-1.5-0.673-1.5-1.5s0.673-1.5 1.5-1.5 1.5 0.673 1.5 1.5-0.673 1.5-1.5 1.5z"></path>
</svg>
