<svg version="1.1" xmlns="http://www.w3.org/2000/svg" width="16" height="16" viewBox="0 0 16 16">
<title>mouse-pointer</title>
<path d="M12.874 9.168l-8-9c-0.138-0.155-0.357-0.208-0.552-0.135s-0.322 0.259-0.322 0.467l0.007 12c0 0.195 0.114 0.373 0.292 0.454l0.208 0.046c0.117 0 0.233-0.042 0.326-0.121l2.971-2.552 2.235 5.365c0.080 0.192 0.265 0.308 0.461 0.308l0.192-0.039c0.255-0.106 0.375-0.399 0.269-0.654l-2.211-5.307h3.75c0.197 0 0.375-0.116 0.456-0.295s0.048-0.39-0.082-0.537zM8 9c-0.12 0-0.235 0.043-0.326 0.121l-2.668 2.292-0.005-9.597 6.386 7.184h-3.387z"></path>
</svg>
