<svg version="1.1" xmlns="http://www.w3.org/2000/svg" width="16" height="16" viewBox="0 0 16 16">
<title>music</title>
<path d="M14.812 1.11c-0.117-0.095-0.272-0.13-0.421-0.098l-9 2c-0.228 0.050-0.391 0.254-0.391 0.488v7.006c-0.419-0.317-0.935-0.513-1.5-0.513-1.379 0-2.5 1.122-2.5 2.5s1.121 2.5 2.5 2.5c1.375 0 2.492-1.115 2.499-2.487l0.001-0.006v-5.599l8-1.778v4.383c-0.419-0.317-0.935-0.513-1.5-0.513-1.379 0-2.5 1.122-2.5 2.5s1.121 2.5 2.5 2.5c1.375 0 2.492-1.115 2.499-2.487l0.001-0.006v-10c0-0.152-0.068-0.295-0.188-0.39zM3.5 13.994c-0.827 0-1.5-0.673-1.5-1.5s0.673-1.5 1.5-1.5 1.5 0.673 1.5 1.5-0.673 1.5-1.5 1.5zM6 5.877v-1.976l8-1.777v1.975l-8 1.778zM12.5 12.994c-0.827 0-1.5-0.673-1.5-1.5s0.673-1.5 1.5-1.5 1.5 0.673 1.5 1.5-0.673 1.5-1.5 1.5z"></path>
</svg>
