<svg version="1.1" xmlns="http://www.w3.org/2000/svg" width="16" height="16" viewBox="0 0 16 16">
<title>network-hub</title>
<path d="M13.5 11c-0.509 0-0.981 0.154-1.376 0.417l-1.684-1.684c0.36-0.504 0.56-1.102 0.56-1.733s-0.2-1.228-0.559-1.732l1.683-1.684c0.396 0.262 0.868 0.416 1.376 0.416 1.378 0 2.5-1.122 2.5-2.5s-1.122-2.5-2.5-2.5-2.5 1.122-2.5 2.5c0 0.509 0.155 0.982 0.417 1.377l-1.686 1.687c-1.019-0.704-2.442-0.705-3.461-0.001l-1.685-1.685c0.27-0.405 0.415-0.88 0.415-1.378 0-0.668-0.26-1.296-0.732-1.768-0.943-0.944-2.592-0.944-3.535 0-0.473 0.472-0.733 1.1-0.733 1.768s0.26 1.296 0.732 1.768c0.472 0.472 1.1 0.732 1.768 0.732 0.498 0 0.973-0.145 1.378-0.415l1.682 1.682c-0.36 0.504-0.56 1.102-0.56 1.733s0.201 1.23 0.561 1.734l-1.683 1.683c-0.396-0.262-0.869-0.417-1.378-0.417-1.378 0-2.5 1.122-2.5 2.5s1.122 2.5 2.5 2.5 2.5-1.122 2.5-2.5c0-0.508-0.154-0.98-0.416-1.375l1.684-1.683c0.504 0.358 1.101 0.558 1.732 0.558s1.229-0.2 1.733-0.56l1.683 1.683c-0.262 0.396-0.416 0.868-0.416 1.377 0 1.378 1.122 2.5 2.5 2.5s2.5-1.122 2.5-2.5-1.122-2.5-2.5-2.5zM13.5 1c0.827 0 1.5 0.673 1.5 1.5s-0.673 1.5-1.5 1.5-1.5-0.673-1.5-1.5 0.673-1.5 1.5-1.5zM1.439 3.561c-0.283-0.284-0.439-0.66-0.439-1.061s0.156-0.777 0.439-1.061 0.66-0.439 1.061-0.439 0.777 0.156 1.061 0.439 0.439 0.66 0.439 1.061-0.156 0.777-0.439 1.061c-0.567 0.566-1.555 0.566-2.122 0zM2.5 15c-0.827 0-1.5-0.673-1.5-1.5s0.673-1.5 1.5-1.5 1.5 0.673 1.5 1.5-0.673 1.5-1.5 1.5zM6.586 9.414c-0.378-0.378-0.586-0.88-0.586-1.414s0.208-1.036 0.586-1.414 0.88-0.586 1.414-0.586 1.036 0.208 1.414 0.586 0.586 0.88 0.586 1.414-0.208 1.036-0.586 1.414c-0.756 0.756-2.072 0.756-2.828 0zM13.5 15c-0.827 0-1.5-0.673-1.5-1.5s0.673-1.5 1.5-1.5 1.5 0.673 1.5 1.5-0.673 1.5-1.5 1.5z"></path>
</svg>
