<svg version="1.1" xmlns="http://www.w3.org/2000/svg" width="16" height="16" viewBox="0 0 16 16">
<title>network-triangle</title>
<path d="M13 9c-0.5 0-0.965 0.135-1.38 0.352l-1.847-2.945c0.74-0.547 1.227-1.418 1.227-2.407 0-1.654-1.346-3-3-3s-3 1.346-3 3c0 0.989 0.487 1.86 1.227 2.407l-1.847 2.945c-0.415-0.217-0.88-0.352-1.38-0.352-1.654 0-3 1.346-3 3s1.346 3 3 3 3-1.346 3-3h4c0 1.654 1.346 3 3 3s3-1.346 3-3-1.346-3-3-3zM8 2c1.103 0 2 0.897 2 2s-0.897 2-2 2-2-0.897-2-2 0.897-2 2-2zM3 14c-1.103 0-2-0.897-2-2s0.897-2 2-2 2 0.897 2 2-0.897 2-2 2zM5.816 11c-0.14-0.393-0.354-0.748-0.634-1.046l1.945-3.099c0.278 0.085 0.567 0.145 0.873 0.145s0.595-0.060 0.874-0.145l1.945 3.099c-0.28 0.298-0.494 0.653-0.634 1.046h-4.369zM13 14c-1.103 0-2-0.897-2-2s0.897-2 2-2 2 0.897 2 2-0.897 2-2 2z"></path>
</svg>
