<svg version="1.1" xmlns="http://www.w3.org/2000/svg" width="16" height="16" viewBox="0 0 16 16">
<title>notebook</title>
<path d="M13 1h-10c-0.552 0-1 0.448-1 1v0 1h-0.5c-0.276 0-0.5 0.224-0.5 0.5s0.224 0.5 0.5 0.5v0h0.5v2h-0.5c-0.276 0-0.5 0.224-0.5 0.5s0.224 0.5 0.5 0.5v0h0.5v2h-0.5c-0.276 0-0.5 0.224-0.5 0.5s0.224 0.5 0.5 0.5v0h0.5v2h-0.5c-0.276 0-0.5 0.224-0.5 0.5s0.224 0.5 0.5 0.5v0h0.5v1c0 0.552 0.448 1 1 1v0h10c0.552 0 1-0.448 1-1v0-12c0-0.552-0.448-1-1-1v0zM3 2h1v12h-1zM13 14.5v-0.5h-8v-12h8v12z"></path>
<path d="M10.5 5h-3c-0.276 0-0.5 0.224-0.5 0.5v0 2c0 0.276 0.224 0.5 0.5 0.5v0h3c0.276 0 0.5-0.224 0.5-0.5v0-2c0-0.276-0.224-0.5-0.5-0.5v0zM10 7h-2v-1h2z"></path>
</svg>
