<svg version="1.1" xmlns="http://www.w3.org/2000/svg" width="16" height="16" viewBox="0 0 16 16">
<title>number-0-o</title>
<path d="M8 0c-4.411 0-8 3.589-8 8s3.589 8 8 8 8-3.589 8-8-3.589-8-8-8zM8 15c-3.86 0-7-3.14-7-7s3.14-7 7-7 7 3.14 7 7-3.14 7-7 7z"></path>
<path d="M10.162 5.336c-0.195-0.392-0.466-0.715-0.815-0.968s-0.797-0.379-1.347-0.379-1 0.126-1.348 0.379-0.62 0.576-0.814 0.968c-0.194 0.393-0.326 0.824-0.396 1.293s-0.104 0.924-0.104 1.364 0.035 0.895 0.104 1.364 0.202 0.9 0.396 1.292c0.194 0.392 0.466 0.715 0.814 0.968s0.798 0.38 1.348 0.38c0.55 0 0.999-0.126 1.347-0.379 0.349-0.253 0.62-0.576 0.814-0.968 0.194-0.393 0.326-0.823 0.396-1.292s0.104-0.924 0.104-1.364-0.035-0.895-0.104-1.364c-0.069-0.47-0.202-0.901-0.395-1.294zM9.342 9.137c-0.044 0.359-0.119 0.673-0.226 0.94-0.106 0.268-0.251 0.48-0.434 0.638s-0.411 0.237-0.682 0.237c-0.279 0-0.508-0.079-0.688-0.236s-0.323-0.37-0.429-0.638c-0.106-0.268-0.181-0.582-0.225-0.941s-0.066-0.741-0.066-1.144 0.022-0.783 0.066-1.139c0.044-0.356 0.119-0.669 0.226-0.941 0.106-0.271 0.25-0.485 0.429-0.643s0.408-0.236 0.687-0.236c0.271 0 0.499 0.079 0.682 0.237 0.183 0.157 0.328 0.372 0.434 0.643s0.182 0.585 0.226 0.941c0.044 0.355 0.066 0.734 0.066 1.138s-0.022 0.784-0.066 1.144z"></path>
</svg>
