<svg version="1.1" xmlns="http://www.w3.org/2000/svg" width="16" height="16" viewBox="0 0 16 16">
<title>number-2-o</title>
<path d="M8 0c-4.411 0-8 3.589-8 8s3.589 8 8 8 8-3.589 8-8-3.589-8-8-8zM8 15c-3.859 0-7-3.14-7-7s3.141-7 7-7 7 3.14 7 7-3.141 7-7 7z"></path>
<path d="M7.434 9.808c0.187-0.139 0.39-0.278 0.61-0.418s0.439-0.286 0.66-0.44c0.22-0.154 0.433-0.319 0.638-0.495s0.389-0.368 0.55-0.577 0.29-0.438 0.385-0.688c0.096-0.25 0.144-0.528 0.144-0.836 0-0.25-0.041-0.512-0.121-0.787s-0.219-0.53-0.413-0.765c-0.196-0.234-0.45-0.428-0.765-0.582s-0.708-0.231-1.178-0.231c-0.433 0-0.812 0.075-1.138 0.226-0.327 0.15-0.604 0.357-0.831 0.622-0.227 0.263-0.397 0.576-0.511 0.939s-0.17 0.757-0.17 1.183h1.254c0.007-0.271 0.034-0.524 0.082-0.759 0.048-0.234 0.121-0.438 0.221-0.61 0.099-0.172 0.23-0.308 0.396-0.407s0.372-0.148 0.622-0.148c0.271 0 0.491 0.046 0.659 0.138s0.301 0.205 0.396 0.341 0.159 0.282 0.192 0.44 0.050 0.307 0.050 0.446c-0.008 0.299-0.085 0.564-0.231 0.795s-0.334 0.446-0.561 0.644c-0.228 0.198-0.478 0.383-0.748 0.555-0.272 0.173-0.532 0.351-0.781 0.534-0.521 0.352-0.932 0.766-1.233 1.243s-0.454 1.034-0.462 1.672h5.258v-1.122h-3.751c0.052-0.168 0.147-0.328 0.286-0.479 0.14-0.15 0.303-0.295 0.491-0.434z"></path>
</svg>
