<svg version="1.1" xmlns="http://www.w3.org/2000/svg" width="16" height="16" viewBox="0 0 16 16">
<title>number-7</title>
<path d="M8 0c-4.411 0-8 3.589-8 8s3.589 8 8 8 8-3.589 8-8-3.589-8-8-8zM10.597 5.188c-0.403 0.455-0.771 0.926-1.101 1.413-0.33 0.488-0.617 1.005-0.863 1.551s-0.445 1.124-0.6 1.732c-0.154 0.609-0.257 1.261-0.308 1.958h-1.374c0.044-0.608 0.148-1.21 0.313-1.804s0.377-1.169 0.638-1.727c0.261-0.558 0.562-1.093 0.907-1.606s0.716-0.993 1.111-1.44h-3.993v-1.122h5.27v1.045z"></path>
</svg>
