<svg version="1.1" xmlns="http://www.w3.org/2000/svg" width="16" height="16" viewBox="0 0 16 16">
<title>number-6</title>
<path d="M8.874 8.251c-0.113-0.143-0.255-0.258-0.424-0.346s-0.366-0.132-0.594-0.132-0.427 0.042-0.6 0.126c-0.171 0.085-0.317 0.198-0.434 0.341s-0.205 0.31-0.264 0.5c-0.058 0.192-0.087 0.393-0.087 0.606s0.029 0.415 0.088 0.605c0.059 0.191 0.146 0.361 0.264 0.512s0.263 0.27 0.435 0.357c0.173 0.088 0.372 0.132 0.6 0.132s0.426-0.045 0.594-0.137c0.169-0.092 0.311-0.211 0.424-0.358s0.198-0.317 0.253-0.511c0.056-0.194 0.083-0.394 0.083-0.6s-0.027-0.403-0.083-0.594c-0.057-0.191-0.142-0.358-0.255-0.501z"></path>
<path d="M8 0c-4.411 0-8 3.589-8 8s3.589 8 8 8 8-3.589 8-8-3.589-8-8-8zM10.282 10.407c-0.121 0.319-0.295 0.598-0.522 0.836s-0.499 0.424-0.814 0.556-0.664 0.198-1.046 0.198c-0.564 0-1.028-0.104-1.392-0.313-0.362-0.209-0.648-0.495-0.857-0.858s-0.354-0.788-0.435-1.276c-0.080-0.488-0.12-1.014-0.12-1.579 0-0.462 0.050-0.928 0.148-1.397s0.262-0.896 0.489-1.281c0.228-0.386 0.527-0.699 0.897-0.941s0.827-0.363 1.37-0.363c0.308 0 0.598 0.051 0.869 0.154s0.511 0.246 0.72 0.429c0.209 0.184 0.38 0.403 0.512 0.66s0.205 0.542 0.22 0.858h-1.255c-0.029-0.316-0.14-0.57-0.335-0.765s-0.457-0.291-0.787-0.291c-0.227 0-0.423 0.042-0.588 0.126s-0.304 0.196-0.418 0.336-0.206 0.299-0.275 0.479c-0.069 0.18-0.126 0.369-0.17 0.567-0.045 0.197-0.076 0.393-0.094 0.587-0.018 0.195-0.035 0.376-0.049 0.545l0.022 0.022c0.168-0.308 0.401-0.537 0.698-0.688s0.617-0.226 0.962-0.226c0.382 0 0.723 0.066 1.023 0.198 0.301 0.133 0.556 0.314 0.765 0.545s0.368 0.504 0.479 0.819c0.109 0.315 0.165 0.656 0.165 1.023 0 0.375-0.061 0.721-0.182 1.040z"></path>
</svg>
