<svg version="1.1" xmlns="http://www.w3.org/2000/svg" width="16" height="16" viewBox="0 0 16 16">
<title>number-9-o</title>
<path d="M8 0c-4.411 0-8 3.589-8 8s3.589 8 8 8 8-3.589 8-8-3.589-8-8-8zM8 15c-3.86 0-7-3.14-7-7s3.14-7 7-7 7 3.14 7 7-3.14 7-7 7z"></path>
<path d="M10.139 5.16c-0.202-0.363-0.478-0.649-0.83-0.858s-0.8-0.313-1.342-0.313c-0.418 0-0.792 0.066-1.122 0.198s-0.608 0.317-0.836 0.555c-0.227 0.238-0.4 0.517-0.517 0.836s-0.176 0.666-0.176 1.040c0 0.396 0.059 0.753 0.176 1.073s0.282 0.59 0.495 0.814 0.468 0.398 0.765 0.522 0.628 0.187 0.995 0.187c0.352 0 0.674-0.079 0.968-0.237 0.293-0.157 0.524-0.387 0.693-0.687l0.022 0.022c-0.022 0.256-0.054 0.537-0.094 0.841-0.041 0.304-0.116 0.59-0.226 0.858s-0.266 0.491-0.467 0.671c-0.202 0.18-0.472 0.27-0.809 0.27-0.33 0-0.592-0.097-0.787-0.292s-0.306-0.449-0.335-0.764h-1.253c0.015 0.315 0.088 0.601 0.22 0.858s0.303 0.477 0.512 0.66c0.209 0.184 0.449 0.327 0.721 0.429 0.271 0.103 0.561 0.154 0.869 0.154 0.542 0 0.999-0.121 1.37-0.363s0.669-0.556 0.896-0.94c0.227-0.385 0.391-0.812 0.489-1.282 0.099-0.469 0.149-0.935 0.149-1.397 0-0.557-0.041-1.082-0.121-1.573-0.082-0.491-0.223-0.919-0.425-1.282zM9.221 7.217c-0.059 0.195-0.145 0.367-0.259 0.517s-0.258 0.27-0.435 0.357c-0.175 0.089-0.381 0.133-0.615 0.133-0.228 0-0.426-0.045-0.594-0.137s-0.308-0.212-0.418-0.358c-0.11-0.147-0.192-0.317-0.248-0.512s-0.082-0.398-0.082-0.61c0-0.206 0.027-0.403 0.083-0.594 0.055-0.191 0.137-0.36 0.247-0.506s0.249-0.262 0.418-0.347c0.168-0.084 0.367-0.126 0.594-0.126 0.234 0 0.44 0.044 0.616 0.132s0.321 0.203 0.435 0.346 0.2 0.31 0.258 0.5c0.059 0.191 0.088 0.389 0.088 0.594 0 0.213-0.030 0.417-0.088 0.611z"></path>
</svg>
