<svg version="1.1" xmlns="http://www.w3.org/2000/svg" width="16" height="16" viewBox="0 0 16 16">
<title>number-5-o</title>
<path d="M8 0c-4.411 0-8 3.589-8 8s3.589 8 8 8 8-3.589 8-8-3.589-8-8-8zM8 15c-3.86 0-7-3.14-7-7s3.14-7 7-7 7 3.14 7 7-3.14 7-7 7z"></path>
<path d="M9.837 7.393c-0.205-0.231-0.458-0.411-0.759-0.539s-0.641-0.192-1.023-0.192c-0.257 0-0.515 0.050-0.775 0.148-0.261 0.099-0.475 0.244-0.644 0.435l-0.022-0.022 0.396-1.958h3.047v-1.122h-3.982l-0.825 4.213h1.254c0.103-0.271 0.269-0.457 0.5-0.556s0.479-0.148 0.742-0.148c0.25 0 0.468 0.044 0.655 0.132s0.339 0.206 0.457 0.352c0.117 0.147 0.205 0.317 0.264 0.512s0.088 0.397 0.088 0.61c0 0.235-0.024 0.455-0.071 0.66s-0.128 0.385-0.242 0.539-0.262 0.275-0.445 0.363c-0.184 0.088-0.407 0.132-0.671 0.132-0.411 0-0.741-0.112-0.99-0.335s-0.392-0.544-0.429-0.962h-1.255c0.015 0.389 0.094 0.728 0.237 1.018s0.335 0.533 0.578 0.731c0.242 0.198 0.522 0.347 0.841 0.445s0.666 0.148 1.040 0.148c0.469 0 0.873-0.086 1.21-0.258s0.614-0.392 0.831-0.66c0.216-0.268 0.374-0.564 0.473-0.891s0.149-0.644 0.149-0.952c0-0.367-0.054-0.708-0.16-1.023-0.108-0.316-0.264-0.588-0.469-0.82z"></path>
</svg>
