<svg version="1.1" xmlns="http://www.w3.org/2000/svg" width="16" height="16" viewBox="0 0 16 16">
<title>number-8</title>
<path d="M8 7.289c0.352 0 0.642-0.097 0.869-0.292s0.341-0.475 0.341-0.841c0-0.381-0.118-0.673-0.352-0.875-0.235-0.201-0.521-0.302-0.858-0.302s-0.624 0.101-0.858 0.302c-0.235 0.202-0.352 0.493-0.352 0.875 0 0.367 0.113 0.647 0.341 0.841 0.227 0.195 0.517 0.292 0.869 0.292z"></path>
<path d="M8 8.224c-0.418 0-0.767 0.12-1.045 0.357-0.279 0.239-0.418 0.57-0.418 0.996 0 0.455 0.139 0.807 0.418 1.056 0.278 0.25 0.627 0.374 1.045 0.374s0.766-0.125 1.045-0.374c0.279-0.249 0.418-0.601 0.418-1.056 0-0.425-0.139-0.757-0.418-0.996-0.279-0.238-0.627-0.357-1.045-0.357z"></path>
<path d="M8 0c-4.411 0-8 3.589-8 8s3.589 8 8 8 8-3.589 8-8-3.589-8-8-8zM10.513 10.589c-0.136 0.301-0.324 0.555-0.566 0.765-0.242 0.209-0.53 0.368-0.863 0.478s-0.695 0.165-1.084 0.165-0.75-0.055-1.083-0.165c-0.334-0.11-0.622-0.269-0.864-0.478s-0.431-0.464-0.566-0.765-0.204-0.638-0.204-1.012c0-0.484 0.126-0.891 0.38-1.221s0.596-0.55 1.028-0.66v-0.022c-0.352-0.132-0.622-0.335-0.809-0.61s-0.28-0.6-0.28-0.974c0-0.66 0.207-1.175 0.622-1.545 0.414-0.371 1.006-0.556 1.776-0.556s1.362 0.185 1.776 0.556c0.414 0.37 0.622 0.885 0.622 1.545 0 0.374-0.094 0.698-0.281 0.974-0.187 0.274-0.456 0.478-0.808 0.61v0.022c0.433 0.11 0.775 0.33 1.028 0.66s0.379 0.737 0.379 1.221c0.001 0.374-0.067 0.711-0.203 1.012z"></path>
</svg>
