<svg version="1.1" xmlns="http://www.w3.org/2000/svg" width="16" height="16" viewBox="0 0 16 16">
<title>number-9</title>
<path d="M8.962 5.512c-0.113-0.143-0.258-0.258-0.434-0.346s-0.382-0.132-0.616-0.132c-0.228 0-0.426 0.042-0.594 0.126s-0.308 0.2-0.418 0.347-0.192 0.315-0.248 0.506c-0.055 0.191-0.082 0.388-0.082 0.594 0 0.212 0.027 0.416 0.083 0.61s0.137 0.365 0.247 0.512c0.11 0.146 0.249 0.266 0.418 0.357 0.168 0.092 0.367 0.137 0.594 0.137 0.234 0 0.44-0.044 0.616-0.132s0.321-0.207 0.435-0.357 0.2-0.323 0.258-0.517 0.088-0.398 0.088-0.61c0-0.206-0.030-0.403-0.088-0.594s-0.145-0.358-0.259-0.501z"></path>
<path d="M8 0c-4.411 0-8 3.589-8 8s3.589 8 8 8 8-3.589 8-8-3.589-8-8-8zM10.535 9.412c-0.099 0.47-0.262 0.896-0.489 1.282s-0.526 0.698-0.896 0.94c-0.371 0.242-0.827 0.363-1.37 0.363-0.308 0-0.598-0.051-0.869-0.154s-0.512-0.246-0.721-0.429c-0.209-0.183-0.379-0.403-0.512-0.66s-0.205-0.543-0.22-0.858h1.254c0.029 0.315 0.141 0.57 0.335 0.764s0.457 0.292 0.787 0.292c0.337 0 0.606-0.090 0.809-0.27s0.357-0.403 0.467-0.671 0.185-0.554 0.226-0.858c0.040-0.304 0.071-0.585 0.093-0.841l-0.021-0.022c-0.169 0.3-0.4 0.53-0.693 0.687-0.294 0.158-0.616 0.237-0.968 0.237-0.367 0-0.699-0.062-0.996-0.187s-0.551-0.299-0.764-0.523-0.378-0.495-0.495-0.814c-0.117-0.319-0.176-0.676-0.176-1.072 0-0.374 0.059-0.72 0.176-1.040 0.117-0.319 0.29-0.598 0.517-0.836s0.506-0.423 0.836-0.555 0.704-0.198 1.122-0.198c0.542 0 0.99 0.104 1.342 0.313s0.628 0.495 0.83 0.858c0.202 0.363 0.343 0.791 0.424 1.282s0.121 1.016 0.121 1.573c0 0.462-0.050 0.927-0.149 1.397z"></path>
</svg>
