<svg version="1.1" xmlns="http://www.w3.org/2000/svg" width="16" height="16" viewBox="0 0 16 16">
<title>number-2</title>
<path d="M8 0c-4.411 0-8 3.589-8 8s3.589 8 8 8 8-3.589 8-8-3.589-8-8-8zM10.408 10.721v1.122h-5.258c0.008-0.638 0.161-1.195 0.462-1.672s0.712-0.891 1.233-1.243c0.249-0.183 0.51-0.361 0.781-0.534s0.521-0.357 0.748-0.555 0.414-0.413 0.561-0.644 0.224-0.497 0.231-0.797c0-0.139-0.017-0.288-0.050-0.446s-0.098-0.304-0.192-0.44c-0.096-0.136-0.228-0.249-0.397-0.341-0.168-0.091-0.388-0.137-0.659-0.137-0.25 0-0.457 0.050-0.622 0.148-0.165 0.099-0.297 0.235-0.395 0.407-0.1 0.173-0.173 0.376-0.221 0.611s-0.075 0.488-0.082 0.759h-1.254c0-0.425 0.057-0.82 0.17-1.183 0.114-0.363 0.284-0.676 0.512-0.94s0.504-0.471 0.831-0.622c0.326-0.15 0.705-0.226 1.138-0.226 0.47 0 0.862 0.077 1.178 0.231 0.314 0.154 0.569 0.349 0.764 0.583 0.194 0.235 0.332 0.49 0.413 0.765s0.121 0.537 0.121 0.787c0 0.308-0.048 0.586-0.144 0.836-0.095 0.249-0.224 0.479-0.385 0.688s-0.345 0.401-0.55 0.577c-0.205 0.176-0.418 0.341-0.638 0.495s-0.44 0.301-0.66 0.44c-0.221 0.14-0.424 0.279-0.61 0.418-0.188 0.14-0.351 0.285-0.49 0.435s-0.234 0.31-0.286 0.479h3.75z"></path>
</svg>
