<svg version="1.1" xmlns="http://www.w3.org/2000/svg" width="16" height="16" viewBox="0 0 16 16">
<title>number-0</title>
<path d="M9.116 5.914c-0.106-0.271-0.251-0.486-0.434-0.643-0.183-0.158-0.411-0.237-0.682-0.237-0.279 0-0.508 0.079-0.688 0.237s-0.322 0.372-0.429 0.643c-0.106 0.271-0.181 0.585-0.225 0.94-0.044 0.356-0.066 0.735-0.066 1.139s0.022 0.785 0.066 1.144 0.119 0.673 0.226 0.94c0.106 0.268 0.25 0.48 0.429 0.638s0.408 0.237 0.687 0.237c0.271 0 0.499-0.079 0.682-0.236s0.328-0.37 0.434-0.638 0.182-0.581 0.226-0.94 0.066-0.741 0.066-1.144-0.022-0.784-0.066-1.14c-0.044-0.355-0.119-0.669-0.226-0.94z"></path>
<path d="M8 0c-4.411 0-8 3.589-8 8s3.589 8 8 8 8-3.589 8-8-3.589-8-8-8zM10.558 9.357c-0.070 0.469-0.202 0.9-0.396 1.292s-0.466 0.715-0.814 0.968c-0.349 0.253-0.798 0.38-1.348 0.38s-1-0.126-1.348-0.379-0.62-0.576-0.814-0.968c-0.194-0.393-0.326-0.823-0.396-1.292s-0.104-0.925-0.104-1.365 0.035-0.895 0.104-1.364 0.202-0.9 0.396-1.292c0.194-0.393 0.466-0.715 0.814-0.968s0.798-0.38 1.348-0.38c0.55 0 0.999 0.126 1.347 0.379s0.62 0.576 0.814 0.968 0.326 0.823 0.396 1.292c0.069 0.469 0.104 0.924 0.104 1.364s-0.034 0.896-0.103 1.365z"></path>
</svg>
