<svg version="1.1" xmlns="http://www.w3.org/2000/svg" width="16" height="16" viewBox="0 0 16 16">
<title>number-7-o</title>
<path d="M8 0c-4.411 0-8 3.589-8 8s3.589 8 8 8 8-3.589 8-8-3.589-8-8-8zM8 15c-3.859 0-7-3.14-7-7s3.141-7 7-7 7 3.14 7 7-3.141 7-7 7z"></path>
<path d="M5.327 5.265h3.993c-0.395 0.447-0.766 0.927-1.111 1.441s-0.647 1.048-0.907 1.606c-0.261 0.557-0.473 1.133-0.638 1.727s-0.27 1.196-0.313 1.804h1.375c0.051-0.697 0.153-1.349 0.308-1.958 0.154-0.608 0.354-1.186 0.6-1.732s0.533-1.063 0.863-1.551c0.33-0.487 0.697-0.958 1.101-1.413v-1.046h-5.27v1.122z"></path>
</svg>
