<svg version="1.1" xmlns="http://www.w3.org/2000/svg" width="16" height="16" viewBox="0 0 16 16">
<title>number-3-o</title>
<path d="M8 0c-4.411 0-8 3.589-8 8s3.589 8 8 8 8-3.589 8-8-3.589-8-8-8zM8 15c-3.859 0-7-3.14-7-7s3.141-7 7-7 7 3.14 7 7-3.141 7-7 7z"></path>
<path d="M9.32 7.718v-0.022c0.374-0.132 0.649-0.343 0.825-0.632 0.176-0.29 0.264-0.629 0.264-1.018 0-0.337-0.069-0.636-0.209-0.896s-0.324-0.476-0.555-0.644c-0.23-0.168-0.491-0.297-0.78-0.385s-0.585-0.132-0.886-0.132c-0.389 0-0.737 0.066-1.045 0.198-0.309 0.132-0.57 0.315-0.787 0.55s-0.387 0.511-0.511 0.83c-0.125 0.319-0.194 0.666-0.209 1.040h1.254c-0.008-0.198 0.014-0.391 0.065-0.578s0.131-0.355 0.236-0.506c0.106-0.15 0.24-0.27 0.402-0.357 0.161-0.088 0.352-0.132 0.571-0.132 0.353 0 0.64 0.099 0.864 0.297s0.335 0.462 0.335 0.792c0 0.235-0.050 0.433-0.148 0.594s-0.229 0.288-0.39 0.379c-0.161 0.092-0.345 0.156-0.55 0.192-0.205 0.038-0.411 0.052-0.616 0.045v0.935c0.249-0.007 0.493 0 0.731 0.022 0.239 0.022 0.454 0.079 0.644 0.17s0.345 0.226 0.462 0.402c0.117 0.176 0.177 0.415 0.177 0.715 0 0.44-0.142 0.779-0.424 1.018s-0.633 0.357-1.051 0.357c-0.491 0-0.859-0.156-1.105-0.467s-0.362-0.703-0.347-1.172h-1.254c0.008 0.403 0.069 0.77 0.188 1.1 0.117 0.33 0.287 0.613 0.511 0.847s0.503 0.417 0.837 0.544c0.333 0.128 0.724 0.192 1.171 0.192 0.367 0 0.715-0.055 1.045-0.165s0.62-0.266 0.869-0.467 0.447-0.447 0.594-0.737 0.221-0.618 0.221-0.985c0-0.499-0.123-0.922-0.369-1.271-0.246-0.347-0.589-0.565-1.030-0.653z"></path>
</svg>
