<svg version="1.1" xmlns="http://www.w3.org/2000/svg" width="16" height="16" viewBox="0 0 16 16">
<title>number-8-o</title>
<path d="M8 0c-4.411 0-8 3.589-8 8s3.589 8 8 8 8-3.589 8-8-3.589-8-8-8zM8 15c-3.86 0-7-3.14-7-7s3.14-7 7-7 7 3.14 7 7-3.14 7-7 7z"></path>
<path d="M9.309 7.696v-0.022c0.352-0.132 0.621-0.335 0.808-0.61s0.281-0.6 0.281-0.974c0-0.66-0.208-1.175-0.622-1.545s-1.006-0.556-1.776-0.556-1.362 0.185-1.776 0.555c-0.415 0.371-0.622 0.886-0.622 1.546 0 0.374 0.093 0.698 0.28 0.974 0.187 0.275 0.457 0.479 0.809 0.61v0.022c-0.433 0.11-0.775 0.33-1.028 0.66s-0.38 0.737-0.38 1.221c0 0.374 0.068 0.711 0.204 1.012s0.325 0.555 0.566 0.765c0.242 0.209 0.53 0.368 0.864 0.478s0.694 0.165 1.083 0.165 0.75-0.055 1.083-0.165c0.333-0.11 0.622-0.269 0.863-0.478s0.431-0.464 0.566-0.765 0.204-0.638 0.204-1.012c0-0.484-0.126-0.891-0.379-1.221s-0.595-0.55-1.028-0.66zM7.142 5.281c0.234-0.201 0.521-0.302 0.858-0.302s0.623 0.101 0.858 0.302c0.234 0.202 0.352 0.493 0.352 0.875 0 0.367-0.114 0.647-0.341 0.841-0.227 0.195-0.517 0.292-0.869 0.292s-0.642-0.097-0.869-0.292c-0.228-0.194-0.341-0.475-0.341-0.841 0-0.382 0.117-0.673 0.352-0.875zM9.045 10.633c-0.279 0.249-0.627 0.374-1.045 0.374s-0.767-0.125-1.045-0.374c-0.279-0.249-0.418-0.601-0.418-1.056 0-0.425 0.139-0.757 0.418-0.996 0.278-0.238 0.627-0.357 1.045-0.357s0.766 0.12 1.045 0.357c0.279 0.239 0.418 0.57 0.418 0.996 0 0.455-0.139 0.807-0.418 1.056z"></path>
</svg>
