<svg version="1.1" xmlns="http://www.w3.org/2000/svg" width="16" height="16" viewBox="0 0 16 16">
<title>number-6-o</title>
<path d="M8 0c-4.411 0-8 3.589-8 8s3.589 8 8 8 8-3.589 8-8-3.589-8-8-8zM8 15c-3.859 0-7-3.14-7-7s3.141-7 7-7 7 3.14 7 7-3.141 7-7 7z"></path>
<path d="M9.82 7.525c-0.209-0.231-0.464-0.412-0.764-0.544-0.301-0.132-0.642-0.198-1.024-0.198-0.345 0-0.665 0.075-0.962 0.226s-0.53 0.379-0.698 0.687l-0.022-0.022c0.015-0.168 0.031-0.35 0.050-0.544 0.018-0.194 0.049-0.391 0.094-0.588 0.044-0.198 0.101-0.387 0.17-0.567s0.161-0.339 0.275-0.479c0.113-0.14 0.252-0.251 0.417-0.336 0.165-0.084 0.361-0.126 0.588-0.126 0.33 0 0.593 0.097 0.787 0.292s0.306 0.448 0.335 0.764h1.254c-0.015-0.315-0.088-0.601-0.22-0.858s-0.303-0.477-0.512-0.66c-0.208-0.183-0.448-0.326-0.719-0.429s-0.561-0.154-0.869-0.154c-0.543 0-1 0.121-1.37 0.363s-0.669 0.555-0.897 0.94c-0.227 0.385-0.39 0.812-0.489 1.282s-0.148 0.935-0.148 1.397c0 0.565 0.040 1.091 0.121 1.579 0.080 0.488 0.226 0.913 0.435 1.276s0.495 0.649 0.857 0.858c0.363 0.209 0.827 0.313 1.392 0.313 0.382 0 0.729-0.066 1.045-0.198s0.587-0.317 0.814-0.556 0.401-0.517 0.522-0.836 0.182-0.666 0.182-1.040c0-0.367-0.056-0.708-0.165-1.023-0.111-0.314-0.27-0.588-0.479-0.819zM9.127 9.945c-0.055 0.194-0.14 0.365-0.253 0.511-0.113 0.147-0.255 0.266-0.424 0.358s-0.366 0.137-0.594 0.137-0.427-0.044-0.6-0.132c-0.172-0.088-0.317-0.207-0.435-0.357s-0.205-0.321-0.264-0.512c-0.057-0.19-0.086-0.391-0.086-0.604s0.029-0.414 0.088-0.605c0.059-0.19 0.146-0.357 0.264-0.5s0.263-0.256 0.435-0.341c0.173-0.084 0.372-0.126 0.6-0.126s0.424 0.043 0.592 0.131c0.169 0.088 0.311 0.204 0.424 0.347s0.198 0.31 0.253 0.5c0.056 0.19 0.083 0.389 0.083 0.594s-0.027 0.405-0.083 0.599z"></path>
</svg>
