<svg version="1.1" xmlns="http://www.w3.org/2000/svg" width="16" height="16" viewBox="0 0 16 16">
<title>number-3</title>
<path d="M8 0c-4.411 0-8 3.589-8 8s3.589 8 8 8 8-3.589 8-8-3.589-8-8-8zM10.497 10.627c-0.146 0.29-0.345 0.535-0.594 0.737s-0.539 0.357-0.869 0.467c-0.33 0.11-0.678 0.165-1.045 0.165-0.447 0-0.838-0.064-1.171-0.192s-0.613-0.31-0.837-0.544-0.394-0.517-0.511-0.847c-0.118-0.33-0.18-0.696-0.188-1.1h1.254c-0.015 0.469 0.101 0.86 0.347 1.171s0.614 0.467 1.105 0.467c0.418 0 0.769-0.119 1.051-0.357s0.424-0.578 0.424-1.018c0-0.3-0.060-0.539-0.177-0.715s-0.27-0.309-0.461-0.401-0.405-0.148-0.643-0.17c-0.239-0.022-0.483-0.029-0.732-0.022v-0.935c0.205 0.007 0.411-0.007 0.616-0.044s0.389-0.101 0.55-0.192c0.161-0.091 0.292-0.218 0.391-0.379s0.148-0.359 0.148-0.594c0-0.33-0.111-0.594-0.335-0.792-0.224-0.199-0.511-0.298-0.864-0.298-0.22 0-0.41 0.044-0.571 0.132-0.162 0.088-0.296 0.207-0.403 0.357-0.105 0.15-0.185 0.319-0.236 0.506s-0.073 0.38-0.065 0.578h-1.254c0.015-0.374 0.084-0.721 0.209-1.040 0.124-0.319 0.295-0.595 0.51-0.83 0.217-0.235 0.479-0.418 0.787-0.55s0.657-0.198 1.046-0.198c0.301 0 0.596 0.044 0.886 0.132s0.55 0.217 0.78 0.385c0.231 0.168 0.416 0.383 0.556 0.644s0.209 0.559 0.209 0.896c0 0.389-0.088 0.728-0.264 1.018s-0.451 0.5-0.825 0.632v0.022c0.44 0.088 0.783 0.306 1.028 0.654s0.369 0.772 0.369 1.271c0 0.367-0.074 0.695-0.221 0.984z"></path>
</svg>
