<svg id="Layer_1" data-name="Layer 1" xmlns="http://www.w3.org/2000/svg" width="16" height="16" viewBox="0 0 16 16"><path d="M12,13H11V12a.5.5,0,0,0-1,0v1H9a.5.5,0,0,0,0,1h1v1a.5.5,0,0,0,1,0V14h1a.5.5,0,0,0,0-1Z"/><path d="M14.242,10.379l-3.521-1.6A4.748,4.748,0,0,0,12,5.5V5.168L13.451,3.25a.5.5,0,0,0-.007-.613,6.938,6.938,0,0,0-10.888,0,.5.5,0,0,0-.007.613L4,5.168V5.5A4.748,4.748,0,0,0,5.279,8.779l-3.521,1.6A3,3,0,0,0,0,13.11V15.5a.5.5,0,0,0,1,0V13.11a2,2,0,0,1,1.172-1.821L6.164,9.474a3.467,3.467,0,0,0,3.672,0l3.992,1.815A2,2,0,0,1,15,13.11V15.5a.5.5,0,0,0,1,0V13.11A3,3,0,0,0,14.242,10.379ZM3.588,2.965a5.936,5.936,0,0,1,8.824,0L11.4,4.3a5.2,5.2,0,0,0-6.8,0ZM5,5.5V5.246a4.287,4.287,0,0,1,6,0V5.5A3.283,3.283,0,0,1,8,9,3.283,3.283,0,0,1,5,5.5Z"/></svg>