<svg version="1.1" xmlns="http://www.w3.org/2000/svg" width="16" height="16" viewBox="0 0 16 16">
<title>package</title>
<path d="M4 8v1l2 0.933v-1z"></path>
<path d="M15.712 4.313l-7-3.267c-0.135-0.062-0.289-0.062-0.424 0l-7 3.267c-0.176 0.083-0.288 0.259-0.288 0.454v7.467c0 0.194 0.112 0.371 0.288 0.453l7 3.267c0.067 0.030 0.14 0.046 0.212 0.046s0.145-0.016 0.212-0.047l7-3.267c0.176-0.082 0.288-0.258 0.288-0.453v-7.466c0-0.195-0.112-0.371-0.288-0.454zM8.5 7.481l-2.317-1.081 5.817-2.715 2.317 1.081-5.817 2.715zM8.5 2.052l2.317 1.081-5.817 2.715-2.317-1.082 5.817-2.714zM2 5.552l6 2.8v6.363l-6-2.8v-6.363zM9 14.715v-6.363l6-2.8v6.363l-6 2.8z"></path>
</svg>
