<svg version="1.1" xmlns="http://www.w3.org/2000/svg" width="16" height="16" viewBox="0 0 16 16">
<title>padlock</title>
<path d="M12 5.54v-1.54c0-2.209-1.791-4-4-4s-4 1.791-4 4v0 1.54c-1.23 1.103-2 2.698-2 4.472 0 3.314 2.686 6 6 6s6-2.686 6-6c0-1.774-0.77-3.369-1.994-4.467l-0.006-0.005zM5 4c0-1.657 1.343-3 3-3s3 1.343 3 3v0 0.812c-0.859-0.51-1.894-0.812-3-0.812s-2.141 0.302-3.028 0.827l0.028-0.015zM8 15c-2.761 0-5-2.239-5-5s2.239-5 5-5c2.761 0 5 2.239 5 5v0c-0.003 2.76-2.24 4.997-5 5h-0z"></path>
<path d="M8 8.5c-0.414 0-0.75 0.336-0.75 0.75v0 1.5c0 0.414 0.336 0.75 0.75 0.75s0.75-0.336 0.75-0.75v0-1.5c0-0.414-0.336-0.75-0.75-0.75v0z"></path>
</svg>
