<svg version="1.1" xmlns="http://www.w3.org/2000/svg" width="16" height="16" viewBox="0 0 16 16">
<title>padlock-unlock</title>
<path d="M12 5.54v-1.54c0-0 0-0.001 0-0.001 0-2.209-1.791-4-4-4-1.105 0-2.105 0.448-2.829 1.172l-0 0c-0.094 0.091-0.153 0.219-0.153 0.36 0 0.276 0.224 0.5 0.5 0.5 0.141 0 0.269-0.058 0.36-0.153l0-0c0.543-0.543 1.293-0.879 2.122-0.879 1.657 0 3 1.343 3 3 0 0 0 0.001 0 0.001v-0 0.812c-0.869-0.513-1.914-0.817-3.031-0.817-3.331 0-6.031 2.7-6.031 6.031s2.7 6.031 6.031 6.031c3.331 0 6.031-2.7 6.031-6.031 0-1.779-0.77-3.377-1.995-4.481l-0.005-0.005zM8 15c-2.761 0-5-2.239-5-5s2.239-5 5-5c2.761 0 5 2.239 5 5v0c-0.003 2.76-2.24 4.997-5 5h-0z"></path>
<path d="M8 8.5c-0.414 0-0.75 0.336-0.75 0.75v0 1.5c0 0.414 0.336 0.75 0.75 0.75s0.75-0.336 0.75-0.75v0-1.5c0-0.414-0.336-0.75-0.75-0.75v0z"></path>
</svg>
