<svg version="1.1" xmlns="http://www.w3.org/2000/svg" width="16" height="16" viewBox="0 0 16 16">
<title>page-bottom</title>
<path d="M7.47 8.53c0.135 0.136 0.323 0.22 0.53 0.22s0.395-0.084 0.53-0.22l6-6c0.125-0.134 0.201-0.313 0.201-0.511 0-0.414-0.336-0.75-0.75-0.75-0.198 0-0.378 0.077-0.512 0.202l0-0-5.47 5.469-5.47-5.469c-0.134-0.125-0.313-0.201-0.511-0.201-0.414 0-0.75 0.336-0.75 0.75 0 0.198 0.077 0.378 0.202 0.512l-0-0z"></path>
<path d="M14 13.25h-12c-0.414 0-0.75 0.336-0.75 0.75s0.336 0.75 0.75 0.75v0h12c0.414 0 0.75-0.336 0.75-0.75s-0.336-0.75-0.75-0.75v0z"></path>
</svg>
