<svg version="1.1" xmlns="http://www.w3.org/2000/svg" width="16" height="16" viewBox="0 0 16 16">
<title>page-first</title>
<path d="M9.061 8l5.469-5.47c0.125-0.134 0.201-0.313 0.201-0.511 0-0.414-0.336-0.75-0.75-0.75-0.198 0-0.378 0.077-0.512 0.202l0-0-6 6c-0.136 0.136-0.22 0.323-0.22 0.53s0.084 0.394 0.22 0.53l6 6c0.134 0.125 0.313 0.201 0.511 0.201 0.414 0 0.75-0.336 0.75-0.75 0-0.198-0.077-0.378-0.202-0.512l0 0z"></path>
<path d="M2 1.25c-0.414 0-0.75 0.336-0.75 0.75v0 12c0 0.414 0.336 0.75 0.75 0.75s0.75-0.336 0.75-0.75v0-12c0-0.414-0.336-0.75-0.75-0.75v0z"></path>
</svg>
