<svg version="1.1" xmlns="http://www.w3.org/2000/svg" width="16" height="16" viewBox="0 0 16 16">
<title>page-last</title>
<path d="M2.53 1.47c-0.134-0.125-0.313-0.201-0.511-0.201-0.414 0-0.75 0.336-0.75 0.75 0 0.198 0.077 0.378 0.202 0.512l-0-0 5.469 5.47-5.469 5.47c-0.147 0.137-0.239 0.332-0.239 0.549 0 0.414 0.336 0.75 0.75 0.75 0.216 0 0.411-0.092 0.548-0.238l0-0 6-6c0.136-0.136 0.22-0.323 0.22-0.53s-0.084-0.394-0.22-0.53l-0-0z"></path>
<path d="M14 1.25c-0.414 0-0.75 0.336-0.75 0.75v0 12c0 0.414 0.336 0.75 0.75 0.75s0.75-0.336 0.75-0.75v0-12c0-0.414-0.336-0.75-0.75-0.75v0z"></path>
</svg>
