<svg version="1.1" xmlns="http://www.w3.org/2000/svg" width="16" height="16" viewBox="0 0 16 16">
<title>paint-brush</title>
<path d="M15.854 0.646c-0.141-0.141-0.351-0.185-0.534-0.113-0.148 0.058-3.674 1.455-7.724 5.504-1.202 1.203-2.221 2.453-2.867 3.521-0.12 0.198-0.222 0.383-0.31 0.56l-0.092-0.017c-0.603-0.054-1.184 0.132-1.643 0.519-0.397 0.333-0.669 0.797-0.766 1.309-0.051 0.283-0.203 0.543-0.427 0.731-0.264 0.221-0.602 0.319-0.938 0.284-0.208-0.020-0.41 0.089-0.502 0.278s-0.056 0.416 0.091 0.567c0.777 0.799 1.822 1.206 2.87 1.206 0.91 0 1.823-0.308 2.564-0.93 0.598-0.501 0.868-1.25 0.788-1.973 0.182-0.092 0.374-0.198 0.577-0.321 1.068-0.646 2.318-1.665 3.521-2.867 4.050-4.049 5.446-7.575 5.504-7.723 0.072-0.185 0.028-0.394-0.112-0.535zM4.934 13.3c-0.92 0.771-2.188 0.897-3.22 0.404 0.148-0.076 0.289-0.169 0.42-0.279 0.402-0.338 0.675-0.806 0.768-1.314 0.054-0.287 0.201-0.537 0.425-0.726 0.256-0.216 0.584-0.312 0.913-0.288 0.332 0.029 0.634 0.186 0.849 0.441 0.442 0.528 0.373 1.318-0.155 1.762zM6.032 11.158l-0.179-0.263c-0.143-0.171-0.312-0.307-0.493-0.426 0.283-0.53 0.742-1.218 1.393-2.015l1.294 1.294c-0.801 0.657-1.49 1.12-2.015 1.41zM9.755 8.197c-0.328 0.328-0.642 0.62-0.948 0.896l-1.399-1.4c0.276-0.307 0.568-0.621 0.896-0.948 2.465-2.465 4.756-3.921 6.112-4.66-0.74 1.356-2.195 3.647-4.661 6.112z"></path>
</svg>
