<svg version="1.1" xmlns="http://www.w3.org/2000/svg" width="16" height="16" viewBox="0 0 16 16">
<title>paperclip</title>
<path d="M13.931 9.715l-5.439-5.94c-1.025-1.024-2.692-1.023-3.717 0-1.025 1.025-1.025 2.692-0.016 3.7l5.034 5.533c0.186 0.205 0.502 0.22 0.706 0.033 0.204-0.186 0.219-0.502 0.033-0.706l-5.050-5.55c-0.635-0.635-0.635-1.668 0-2.303s1.667-0.634 2.288-0.015l5.439 5.939c1.049 1.050 1.049 2.758 0 3.808-1.017 1.016-2.804 1.002-3.794 0.014l-6.312-6.813c-1.464-1.465-1.464-3.848 0-5.312s3.847-1.465 5.297-0.016l5.729 6.253c0.187 0.204 0.502 0.217 0.707 0.031s0.217-0.503 0.031-0.707l-5.745-6.268c-1.855-1.854-4.873-1.854-6.727 0s-1.854 4.871-0.013 6.712l6.312 6.812c0.697 0.697 1.625 1.082 2.611 1.082s1.913-0.384 2.61-1.082c1.44-1.439 1.44-3.781 0.016-5.205z"></path>
</svg>
