<svg version="1.1" xmlns="http://www.w3.org/2000/svg" width="16" height="16" viewBox="0 0 16 16">
<title>paw</title>
<path d="M5.332 5.753c0.282 0.163 0.586 0.246 0.885 0.246 0.143 0 0.284-0.019 0.421-0.058 1.058-0.294 1.61-1.594 1.258-2.96-0.197-0.765-0.645-1.397-1.228-1.734-0.417-0.241-0.882-0.31-1.306-0.188-1.058 0.294-1.61 1.594-1.258 2.96 0.197 0.765 0.645 1.397 1.228 1.734zM5.63 2.021l0.155-0.021c0.151 0 0.287 0.057 0.384 0.112 0.347 0.2 0.631 0.618 0.759 1.118 0.207 0.806-0.048 1.607-0.558 1.749-0.21 0.058-0.409-0.018-0.538-0.092-0.347-0.2-0.631-0.618-0.759-1.118-0.208-0.805 0.047-1.606 0.557-1.748zM10.361 5.941c0.137 0.038 0.279 0.058 0.421 0.058 0.299 0 0.603-0.084 0.885-0.246 0.583-0.337 1.031-0.969 1.229-1.734 0.352-1.366-0.201-2.666-1.258-2.96-0.426-0.118-0.89-0.052-1.307 0.188-0.582 0.337-1.030 0.969-1.227 1.734-0.352 1.367 0.2 2.666 1.257 2.96zM10.072 3.231c0.128-0.5 0.413-0.918 0.759-1.118 0.097-0.056 0.233-0.112 0.384-0.112l0.155 0.021c0.51 0.142 0.765 0.942 0.557 1.747-0.128 0.5-0.413 0.918-0.759 1.118-0.129 0.074-0.329 0.15-0.539 0.092-0.509-0.142-0.764-0.943-0.557-1.748zM15.941 6.173c-0.117-0.441-0.402-0.795-0.802-0.996-0.889-0.443-2.094-0.027-2.744 0.95-0.357 0.538-0.48 1.158-0.336 1.7 0.117 0.441 0.402 0.795 0.802 0.996 0.241 0.12 0.504 0.178 0.774 0.178 0.726 0 1.495-0.415 1.97-1.128 0.357-0.538 0.48-1.158 0.336-1.7zM14.772 7.318c-0.363 0.546-1.033 0.827-1.463 0.61-0.145-0.072-0.24-0.192-0.284-0.357-0.069-0.263 0.006-0.595 0.203-0.89 0.28-0.421 0.741-0.684 1.135-0.684 0.117 0 0.229 0.023 0.328 0.073 0.145 0.072 0.24 0.192 0.284 0.357 0.069 0.264-0.007 0.596-0.203 0.891zM4.941 7.827c0.144-0.542 0.021-1.162-0.336-1.7-0.651-0.978-1.856-1.394-2.744-0.95-0.4 0.201-0.685 0.555-0.802 0.996-0.144 0.542-0.021 1.162 0.336 1.7 0.475 0.713 1.244 1.128 1.97 1.128 0.27 0 0.534-0.058 0.774-0.178 0.4-0.201 0.685-0.554 0.802-0.996zM3.691 7.929c-0.428 0.218-1.099-0.063-1.463-0.61-0.196-0.295-0.272-0.627-0.203-0.89 0.044-0.165 0.139-0.285 0.284-0.357 0.099-0.050 0.21-0.073 0.328-0.073 0.394 0 0.855 0.263 1.135 0.684 0.196 0.295 0.272 0.627 0.203 0.89-0.044 0.163-0.14 0.283-0.284 0.356zM12.372 10.11l-1.458-1.914c-0.58-0.76-1.459-1.196-2.414-1.196s-1.834 0.436-2.414 1.196l-1.459 1.914c-0.707 0.928-0.824 2.154-0.306 3.199s1.559 1.691 2.721 1.691h2.917c1.162 0 2.204-0.647 2.72-1.69 0.517-1.045 0.4-2.272-0.307-3.2zM11.782 12.866c-0.351 0.71-1.033 1.134-1.824 1.134h-2.916c-0.791 0-1.472-0.424-1.824-1.134-0.354-0.714-0.277-1.518 0.205-2.15l1.458-1.914c0.389-0.51 0.979-0.802 1.619-0.802s1.23 0.292 1.619 0.802l1.458 1.914c0.482 0.633 0.559 1.436 0.205 2.15z"></path>
</svg>
