<svg version="1.1" xmlns="http://www.w3.org/2000/svg" width="16" height="16" viewBox="0 0 16 16">
<title>pencil</title>
<path d="M14.414 1.586c-0.779-0.779-2.049-0.779-2.828 0l-9.546 9.546c-0.059 0.059-0.103 0.132-0.126 0.211l-0.894 3.015c-0.052 0.177-0.004 0.366 0.126 0.496 0.095 0.094 0.223 0.146 0.354 0.146l0.143-0.021 3.015-0.894c0.079-0.023 0.152-0.067 0.211-0.126l9.546-9.546c0.778-0.778 0.778-2.048-0.001-2.827zM4.251 13.163l-2.010 0.596 0.596-2.010 8.109-8.109 1.444 1.384-8.139 8.139zM13.707 3.707l-0.61 0.61-1.444-1.384 0.64-0.64c0.391-0.391 1.023-0.391 1.414 0s0.39 1.024 0 1.414z"></path>
</svg>
