<svg version="1.1" xmlns="http://www.w3.org/2000/svg" width="16" height="16" viewBox="0 0 16 16">
<title>pencil-square</title>
<path d="M13 1h-10c-1.103 0-2 0.897-2 2v9.96c0 1.103 0.897 2 2 2h10c1.103 0 2-0.897 2-2v-9.96c0-1.103-0.897-2-2-2zM6.358 11.764c-0.295 0.294-0.658 0.511-1.058 0.629l-1.965 0.582c-0.19 0.056-0.367-0.121-0.311-0.311l0.583-1.964c0.118-0.399 0.335-0.763 0.629-1.057l4.859-4.859 2.135 2.108-4.872 4.872zM12.561 5.561l-0.623 0.623-2.135-2.108 0.637-0.637c0.586-0.586 1.536-0.586 2.121 0s0.585 1.536 0 2.122z"></path>
</svg>
