<svg version="1.1" xmlns="http://www.w3.org/2000/svg" width="16" height="16" viewBox="0 0 16 16">
<title>pencil-square-o</title>
<path d="M14.414 1.566c-0.754-0.756-2.072-0.756-2.828 0l-6.546 6.546c-0.059 0.059-0.102 0.132-0.126 0.211l-0.894 3.015c-0.052 0.177-0.004 0.366 0.126 0.496 0.096 0.095 0.223 0.146 0.354 0.146l0.142-0.021 3.015-0.894c0.080-0.023 0.152-0.067 0.211-0.126l6.546-6.546c0.378-0.376 0.586-0.878 0.586-1.413s-0.208-1.036-0.586-1.414zM7.251 10.144l-2.010 0.596 0.596-2.010 5.109-5.109 1.445 1.383-5.14 5.14zM13.707 3.688l-0.609 0.609-1.445-1.383 0.64-0.64c0.378-0.377 1.036-0.377 1.414 0 0.189 0.188 0.293 0.439 0.293 0.706s-0.104 0.518-0.293 0.708zM12.5 9c-0.276 0-0.5 0.224-0.5 0.5v3.5c0 0.552-0.449 1-1 1h-8c-0.551 0-1-0.448-1-1v-8c0-0.552 0.449-1 1-1h3.5c0.276 0 0.5-0.224 0.5-0.5s-0.224-0.5-0.5-0.5h-3.5c-1.103 0-2 0.897-2 2v8c0 1.103 0.897 2 2 2h8c1.103 0 2-0.897 2-2v-3.5c0-0.276-0.224-0.5-0.5-0.5z"></path>
</svg>
