<svg version="1.1" xmlns="http://www.w3.org/2000/svg" width="16" height="16" viewBox="0 0 16 16">
<title>phone-square</title>
<path d="M13 1h-10c-1.103 0-2 0.897-2 2v10c0 1.103 0.897 2 2 2h10c1.103 0 2-0.897 2-2v-10c0-1.103-0.897-2-2-2zM12.901 11.448l-1.449 1.449c-0.079 0.079-0.193 0.117-0.304 0.097-4.154-0.719-7.424-3.989-8.143-8.143-0.019-0.11 0.018-0.224 0.097-0.304l1.449-1.449c0.132-0.132 0.347-0.132 0.479 0l1.903 1.903c0.132 0.132 0.132 0.347 0 0.479l-0.98 0.983c0.285 1.845 1.74 3.299 3.584 3.584l0.981-0.982c0.132-0.132 0.347-0.132 0.479 0l1.903 1.903c0.133 0.134 0.133 0.348 0.001 0.48z"></path>
</svg>
