<svg version="1.1" xmlns="http://www.w3.org/2000/svg" width="16" height="16" viewBox="0 0 16 16">
<title>phone</title>
<path d="M15.705 12.101l-2.855-2.856c-0.394-0.394-1.032-0.393-1.426 0l-1.288 1.289c-2.368-0.467-4.203-2.302-4.67-4.67l1.29-1.289c0.391-0.393 0.391-1.032-0.001-1.425l-2.856-2.855c-0.395-0.394-1.033-0.393-1.426 0l-2.173 2.175c-0.236 0.235-0.342 0.57-0.285 0.893 1.114 6.436 6.187 11.508 12.62 12.621l0.175 0.016c0.267 0 0.527-0.106 0.721-0.3l2.176-2.175c0.391-0.393 0.391-1.032-0.002-1.424zM12.807 14.999c-6.020-1.041-10.765-5.786-11.8-11.822l2.173-2.174 0.007-0.003 0.006 0.002 2.855 2.867-1.473 1.472c-0.112 0.112-0.165 0.272-0.14 0.43 0.464 3.002 2.793 5.331 5.795 5.795 0.156 0.024 0.317-0.027 0.43-0.141l1.483-1.473 2.855 2.867-2.191 2.18z"></path>
</svg>
