<svg version="1.1" xmlns="http://www.w3.org/2000/svg" width="16" height="16" viewBox="0 0 16 16">
<title>picture-o</title>
<path d="M4 8c1.103 0 2-0.897 2-2s-0.897-2-2-2-2 0.897-2 2 0.897 2 2 2zM4 5c0.551 0 1 0.448 1 1s-0.449 1-1 1-1-0.448-1-1 0.449-1 1-1zM14 2h-12c-1.103 0-2 0.897-2 2v8c0 1.103 0.897 2 2 2h12c1.103 0 2-0.897 2-2v-8c0-1.103-0.897-2-2-2zM1 12v-8c0-0.552 0.449-1 1-1h12c0.551 0 1 0.448 1 1v3.293l-1.146-1.146c-0.195-0.195-0.512-0.195-0.707 0l-3.647 3.646-1.646-1.647c-0.195-0.195-0.512-0.195-0.707 0l-4.854 4.854h-0.293c-0.551 0-1-0.448-1-1zM8.793 10.5l-2.5 2.5h-2.586l3.793-3.793 1.293 1.293zM14 13h-6.293l5.793-5.793 1.5 1.5v3.293c0 0.552-0.449 1-1 1z"></path>
</svg>
