<svg version="1.1" xmlns="http://www.w3.org/2000/svg" width="16" height="16" viewBox="0 0 16 16">
<title>pie-chart</title>
<path d="M12.5 8.941h-5.5v-5.5c0-0.276-0.224-0.5-0.5-0.5-3.584 0-6.5 2.916-6.5 6.5s2.916 6.5 6.5 6.5 6.5-2.916 6.5-6.5c0-0.276-0.224-0.5-0.5-0.5zM1 9.441c0-2.864 2.201-5.224 5-5.478v5.271l-3.724 3.724c-0.796-0.954-1.276-2.18-1.276-3.517zM2.983 13.665l3.517-3.517 3.505 3.505c-0.954 0.795-2.169 1.288-3.505 1.288-1.337 0-2.563-0.48-3.517-1.276zM10.713 12.946l-3.006-3.005h4.271c-0.104 1.141-0.57 2.172-1.265 3.005z"></path>
<path d="M9.5 0c-0.276 0-0.5 0.224-0.5 0.5v6c0 0.276 0.224 0.5 0.5 0.5h6c0.276 0 0.5-0.224 0.5-0.5 0-3.584-2.916-6.5-6.5-6.5zM10 6v-4.978c2.635 0.239 4.739 2.343 4.978 4.978h-4.978z"></path>
</svg>
