<svg version="1.1" xmlns="http://www.w3.org/2000/svg" width="16" height="16" viewBox="0 0 16 16">
<title>plane</title>
<path d="M14 6h-3.189l-2.828-5.722c-0.084-0.17-0.257-0.278-0.448-0.278h-3.035c-0.161 0-0.312 0.077-0.405 0.208-0.095 0.13-0.12 0.298-0.070 0.45l1.782 5.342h-2.557l-1.35-1.8c-0.094-0.126-0.243-0.2-0.4-0.2h-1c-0.276 0-0.5 0.224-0.5 0.5v7c0 0.276 0.224 0.5 0.5 0.5h1c0.157 0 0.306-0.074 0.4-0.2l1.35-1.8h2.557l-1.781 5.342c-0.051 0.152-0.025 0.32 0.069 0.45 0.093 0.131 0.244 0.208 0.405 0.208h3.035c0.19 0 0.364-0.108 0.448-0.278l2.828-5.722h3.189c1.103 0 2-0.897 2-2s-0.897-2-2-2zM14 9h-3.5c-0.19 0-0.364 0.108-0.448 0.278l-2.827 5.722h-2.032l1.781-5.342c0.051-0.152 0.026-0.32-0.069-0.45-0.093-0.131-0.244-0.208-0.405-0.208h-3.5c-0.157 0-0.306 0.074-0.4 0.2l-1.35 1.8h-0.25v-6h0.25l1.35 1.8c0.094 0.126 0.243 0.2 0.4 0.2h3.5c0.161 0 0.312-0.077 0.405-0.208 0.095-0.13 0.12-0.298 0.070-0.45l-1.782-5.342h2.031l2.827 5.722c0.085 0.17 0.259 0.278 0.449 0.278h3.5c0.552 0 1 0.448 1 1s-0.448 1-1 1z"></path>
</svg>
