<svg version="1.1" xmlns="http://www.w3.org/2000/svg" width="16" height="16" viewBox="0 0 16 16">
<title>play-circle-o</title>
<path d="M8 0c-4.411 0-8 3.589-8 8s3.589 8 8 8 8-3.589 8-8-3.589-8-8-8zM8 15c-3.86 0-7-3.14-7-7s3.14-7 7-7 7 3.14 7 7-3.14 7-7 7zM6.252 4.068c-0.154-0.089-0.345-0.090-0.501-0.001-0.155 0.089-0.251 0.254-0.251 0.433v7c0 0.179 0.096 0.344 0.251 0.434 0.077 0.044 0.163 0.066 0.249 0.066 0.087 0 0.174-0.023 0.252-0.068l6-3.5c0.154-0.090 0.248-0.254 0.248-0.432s-0.094-0.342-0.248-0.432l-6-3.5z"></path>
</svg>
