<svg version="1.1" xmlns="http://www.w3.org/2000/svg" width="16" height="16" viewBox="0 0 16 16">
<title>plug</title>
<path d="M15.85 4.146c-0.090-0.090-0.215-0.146-0.354-0.146s-0.263 0.056-0.354 0.146v0l-2.643 2.645-2.295-2.291 2.645-2.646c0.091-0.091 0.147-0.216 0.147-0.354 0-0.276-0.224-0.5-0.5-0.5-0.138 0-0.263 0.056-0.354 0.146v0l-2.643 2.645-1.646-1.645c-0.091-0.091-0.216-0.147-0.354-0.147-0.276 0-0.501 0.224-0.501 0.501 0 0.138 0.056 0.263 0.147 0.354v0l0.567 0.566-2.879 2.88c-0.543 0.543-0.879 1.293-0.879 2.122s0.336 1.579 0.879 2.121v0l0.459 0.457-3.147 3.146c-0.091 0.091-0.147 0.216-0.147 0.354 0 0.276 0.224 0.501 0.501 0.501 0.138 0 0.263-0.056 0.354-0.147v0l3.146-3.147 0.379 0.379c0.543 0.543 1.293 0.878 2.121 0.878s1.578-0.336 2.121-0.878l2.879-2.879 0.646 0.647c0.091 0.091 0.216 0.147 0.354 0.147 0.276 0 0.501-0.224 0.501-0.501 0-0.138-0.056-0.263-0.147-0.354v0l-1.649-1.646 2.645-2.646c0.091-0.091 0.147-0.216 0.147-0.354s-0.056-0.263-0.147-0.354l-0-0zM9.914 11.379c-0.367 0.351-0.865 0.567-1.414 0.567s-1.047-0.216-1.415-0.568l0.001 0.001-1.545-1.545c-0.362-0.362-0.586-0.862-0.586-1.415s0.224-1.053 0.586-1.415l2.879-2.878 0.688 0.688c0.011 0.014 0.023 0.027 0.035 0.039l0 0c0.012 0.012 0.024 0.023 0.037 0.033l0.001 0.001 2.927 2.927c0.011 0.014 0.023 0.027 0.035 0.039l0 0c0.012 0.012 0.024 0.023 0.037 0.033l0.001 0.001 0.612 0.612z"></path>
</svg>
