<svg version="1.1" xmlns="http://www.w3.org/2000/svg" width="16" height="16" viewBox="0 0 16 16">
<title>plus-square-o</title>
<path d="M11 7.25h-2.25v-2.25c0-0.414-0.336-0.75-0.75-0.75s-0.75 0.336-0.75 0.75v0 2.25h-2.25c-0.414 0-0.75 0.336-0.75 0.75s0.336 0.75 0.75 0.75v0h2.25v2.25c0 0.414 0.336 0.75 0.75 0.75s0.75-0.336 0.75-0.75v0-2.25h2.25c0.414 0 0.75-0.336 0.75-0.75s-0.336-0.75-0.75-0.75v0z"></path>
<path d="M13 1h-10c-1.105 0-2 0.895-2 2v0 10c0 1.105 0.895 2 2 2v0h10c1.105 0 2-0.895 2-2v0-10c0-1.105-0.895-2-2-2v0zM14 13c0 0.552-0.448 1-1 1v0h-10c-0.552 0-1-0.448-1-1v0-10c0-0.552 0.448-1 1-1v0h10c0.552 0 1 0.448 1 1v0z"></path>
</svg>
