<svg version="1.1" xmlns="http://www.w3.org/2000/svg" width="16" height="16" viewBox="0 0 16 16">
<title>podcast</title>
<path d="M11.006 12.627c-0.886-0.394-1.919-0.624-3.006-0.624s-2.12 0.23-3.054 0.643l0.048-0.019c-0.59 0.266-0.994 0.848-0.994 1.526 0 0.001 0 0.003 0 0.004v-0 1.343c0 0.276 0.224 0.5 0.5 0.5v0h7c0.276 0 0.5-0.224 0.5-0.5v0-1.343c0-0.001 0-0.003 0-0.004 0-0.677-0.404-1.26-0.983-1.522l-0.011-0.004zM11 15h-6v-0.843c-0-0.001-0-0.003-0-0.004 0-0.27 0.16-0.503 0.391-0.608l0.004-0.002c0.767-0.342 1.663-0.541 2.605-0.541s1.838 0.199 2.647 0.557l-0.042-0.017c0.235 0.107 0.395 0.34 0.395 0.61 0 0.002 0 0.003-0 0.005v-0z"></path>
<path d="M10 9c0-1.105-0.895-2-2-2s-2 0.895-2 2c0 1.105 0.895 2 2 2v0c1.105 0 2-0.895 2-2v0zM7 9c0-0.552 0.448-1 1-1s1 0.448 1 1c0 0.552-0.448 1-1 1v0c-0.552 0-1-0.448-1-1v0z"></path>
<path d="M8 4c-0.003-0-0.007-0-0.012-0-1.377 0-2.624 0.56-3.524 1.465l-0 0c-0.902 0.908-1.46 2.16-1.46 3.542 0 0.594 0.103 1.164 0.292 1.693l-0.011-0.035c0.071 0.196 0.255 0.334 0.472 0.334 0.276 0 0.5-0.224 0.5-0.5 0-0.059-0.010-0.117-0.029-0.169l0.001 0.003c-0.143-0.396-0.226-0.853-0.226-1.329 0-1.105 0.446-2.106 1.168-2.833l-0 0c0.734-0.701 1.731-1.132 2.829-1.132s2.095 0.431 2.831 1.134l-0.002-0.002c0.722 0.726 1.168 1.728 1.168 2.833 0 0.476-0.083 0.933-0.235 1.357l0.009-0.028c-0.018 0.050-0.028 0.107-0.028 0.166 0 0.217 0.138 0.401 0.331 0.471l0.003 0.001c0.049 0.018 0.107 0.028 0.166 0.028h0c0 0 0 0 0 0 0.217 0 0.401-0.138 0.471-0.331l0.001-0.003c0.178-0.494 0.281-1.064 0.281-1.658 0-1.382-0.558-2.634-1.46-3.543l0 0c-0.901-0.905-2.147-1.465-3.524-1.465-0.004 0-0.008 0-0.012 0h0.001z"></path>
<path d="M13.657 3.344c-1.448-1.449-3.449-2.345-5.659-2.345-4.418 0-8 3.582-8 8 0 1.366 0.342 2.652 0.946 3.777l-0.021-0.043c0.086 0.16 0.252 0.267 0.443 0.267 0.276 0 0.5-0.224 0.5-0.5 0-0.085-0.021-0.165-0.059-0.236l0.001 0.003c-0.51-0.947-0.81-2.073-0.81-3.268 0-3.866 3.134-7 7-7 1.934 0 3.685 0.784 4.952 2.052l0 0c1.272 1.262 2.059 3.011 2.059 4.943 0 1.198-0.302 2.325-0.835 3.309l0.018-0.037c-0.036 0.068-0.058 0.148-0.058 0.233 0 0.191 0.107 0.357 0.264 0.441l0.003 0.001c0.068 0.036 0.148 0.058 0.233 0.058h0c0 0 0 0 0.001 0 0.191 0 0.357-0.107 0.441-0.264l0.001-0.003c0.588-1.083 0.933-2.371 0.933-3.739 0-2.209-0.9-4.207-2.353-5.649l-0.001-0z"></path>
</svg>
