<svg version="1.1" xmlns="http://www.w3.org/2000/svg" width="16" height="16" viewBox="0 0 16 16">
<title>polar-chart</title>
<path d="M15.5 8h-2.525c-0.26-3.896-3.508-6.993-7.474-7-0.11 0.007-0.26 0.052-0.354 0.146s-0.147 0.221-0.147 0.354v1.524c-2.797 0.246-5 2.606-5 5.476 0 3.033 2.459 5.5 5.481 5.5 1.31 0 2.537-0.481 3.525-1.322l3.208 3.178c0.099 0.096 0.226 0.144 0.353 0.144s0.254-0.048 0.352-0.145c1.987-1.964 3.081-4.576 3.081-7.355 0-0.276-0.224-0.5-0.5-0.5zM6 2.020c3.186 0.249 5.737 2.799 5.981 5.98h-5.981v-5.98zM5.481 13c-2.471 0-4.481-2.019-4.481-4.5 0-2.316 1.758-4.206 4-4.451v4.451c0 0.139 0.057 0.264 0.148 0.355v0.001l3.148 3.118c-0.797 0.653-1.773 1.026-2.815 1.026zM12.559 14.788l-5.844-5.788h8.272c-0.114 2.159-0.963 4.183-2.428 5.788z"></path>
</svg>
