<svg version="1.1" xmlns="http://www.w3.org/2000/svg" width="16" height="16" viewBox="0 0 16 16">
<title>power-off</title>
<path d="M8.5 6c0.276 0 0.5-0.224 0.5-0.5v-5c0-0.276-0.224-0.5-0.5-0.5s-0.5 0.224-0.5 0.5v5c0 0.276 0.224 0.5 0.5 0.5zM11.179 1.501c-0.256-0.098-0.547 0.030-0.646 0.288s0.030 0.547 0.288 0.646c2.5 0.957 4.179 3.394 4.179 6.065 0 3.584-2.916 6.5-6.5 6.5s-6.5-2.916-6.5-6.5c0-2.671 1.679-5.108 4.179-6.065 0.258-0.099 0.387-0.388 0.288-0.646s-0.39-0.387-0.646-0.288c-2.883 1.104-4.821 3.917-4.821 6.999 0 4.136 3.364 7.5 7.5 7.5s7.5-3.364 7.5-7.5c0-3.082-1.938-5.895-4.821-6.999z"></path>
</svg>
