<svg version="1.1" xmlns="http://www.w3.org/2000/svg" width="16" height="16" viewBox="0 0 16 16">
<title>pragma</title>
<path d="M14 10h-3v-4h3c0.276 0 0.5-0.224 0.5-0.5s-0.224-0.5-0.5-0.5h-3v-3c0-0.276-0.224-0.5-0.5-0.5s-0.5 0.224-0.5 0.5v3h-4v-3c0-0.276-0.224-0.5-0.5-0.5s-0.5 0.224-0.5 0.5v3h-3c-0.276 0-0.5 0.224-0.5 0.5s0.224 0.5 0.5 0.5h3v4h-3c-0.276 0-0.5 0.224-0.5 0.5s0.224 0.5 0.5 0.5h3v3c0 0.276 0.224 0.5 0.5 0.5s0.5-0.224 0.5-0.5v-3h4v3c0 0.276 0.224 0.5 0.5 0.5s0.5-0.224 0.5-0.5v-3h3c0.276 0 0.5-0.224 0.5-0.5s-0.224-0.5-0.5-0.5zM6 10v-4h4v4h-4z"></path>
</svg>
