<svg id="Layer_1" data-name="Layer 1" xmlns="http://www.w3.org/2000/svg" width="16" height="16" viewBox="0 0 16 16"><path d="M15.5,9H15V1h.5a.5.5,0,0,0,0-1H.5a.5.5,0,0,0,0,1H1V9H.5a.5.5,0,0,0,0,1h7v2.27L4.175,15.121a.5.5,0,0,0,.65.758L7.5,13.587V15.5a.5.5,0,0,0,1,0V13.587l2.675,2.292a.5.5,0,0,0,.65-.758L8.5,12.27V10h7a.5.5,0,0,0,0-1ZM2,1H14V9H2Z"/><path d="M9.354,6.354l2.5-2.5a.5.5,0,0,0-.708-.708L9,5.293,7.354,3.646a.5.5,0,0,0-.708,0l-2.5,2.5a.5.5,0,0,0,.708.708L7,4.707,8.646,6.354A.5.5,0,0,0,9.354,6.354Z"/></svg>