<svg id="Layer_1" data-name="Layer 1" xmlns="http://www.w3.org/2000/svg" width="16" height="16" viewBox="0 0 16 16"><path d="M9.8,7.1a.5.5,0,0,0-.7.1L8,8.667,6.732,6.977A1.5,1.5,0,0,0,6.5,4h-2a.5.5,0,0,0-.5.5v4a.5.5,0,0,0,1,0V7h.5L7.375,9.5,6.1,11.2a.5.5,0,0,0,.8.6L8,10.333,9.1,11.8a.5.5,0,1,0,.8-.6L8.625,9.5,9.9,7.8A.5.5,0,0,0,9.8,7.1ZM5,6V5H6.5a.5.5,0,0,1,0,1Z"/><path d="M14.414,4.707,11.293,1.586A2.011,2.011,0,0,0,9.879,1H3A2,2,0,0,0,1,3V13a2,2,0,0,0,2,2H13a2,2,0,0,0,2-2V6.121A2.011,2.011,0,0,0,14.414,4.707ZM11,2.707,13.293,5H12a1,1,0,0,1-1-1ZM14,13a1,1,0,0,1-1,1H3a1,1,0,0,1-1-1V3A1,1,0,0,1,3,2H9.879A1,1,0,0,1,10,2.024V4a2,2,0,0,0,2,2h1.976A1,1,0,0,1,14,6.121Z"/></svg>