<svg version="1.1" xmlns="http://www.w3.org/2000/svg" width="16" height="16" viewBox="0 0 16 16">
<title>print</title>
<path d="M14 5h-2v-4.5c0-0.276-0.224-0.5-0.5-0.5h-7c-0.276 0-0.5 0.224-0.5 0.5v4.5h-2c-1.103 0-2 0.897-2 2v5.5c0 0.276 0.224 0.5 0.5 0.5h2c0.276 0 0.5-0.224 0.5-0.5s-0.224-0.5-0.5-0.5h-1.5v-5c0-0.552 0.448-1 1-1h12c0.552 0 1 0.448 1 1v5h-1.5c-0.276 0-0.5 0.224-0.5 0.5s0.224 0.5 0.5 0.5h2c0.276 0 0.5-0.224 0.5-0.5v-5.5c0-1.103-0.897-2-2-2zM5 5v-4h6v4h-6zM12.5 9h-9c-0.276 0-0.5 0.224-0.5 0.5s0.224 0.5 0.5 0.5h0.5v5.5c0 0.276 0.224 0.5 0.5 0.5h7c0.276 0 0.5-0.224 0.5-0.5v-5.5h0.5c0.276 0 0.5-0.224 0.5-0.5s-0.224-0.5-0.5-0.5zM11 15h-6v-5h6v5z"></path>
<path d="M3 7.5c0 0.276-0.224 0.5-0.5 0.5s-0.5-0.224-0.5-0.5c0-0.276 0.224-0.5 0.5-0.5s0.5 0.224 0.5 0.5z"></path>
</svg>
