<svg version="1.1" xmlns="http://www.w3.org/2000/svg" width="16" height="16" viewBox="0 0 16 16">
<title>puzzle-piece</title>
<path d="M12.5 7h-0.5v-2.5c0-0.276-0.224-0.5-0.5-0.5h-2.5v-0.5c0-1.379-1.121-2.5-2.5-2.5s-2.5 1.121-2.5 2.5v0.5h-2.5c-0.276 0-0.5 0.224-0.5 0.5v10c0 0.276 0.224 0.5 0.5 0.5h3c0.276 0 0.5-0.224 0.5-0.5v-1c0-0.827 0.673-1.5 1.5-1.5s1.5 0.673 1.5 1.5v1c0 0.276 0.224 0.5 0.5 0.5h3c0.276 0 0.5-0.224 0.5-0.5v-2.5h0.5c1.379 0 2.5-1.121 2.5-2.5s-1.121-2.5-2.5-2.5zM12.5 11h-1c-0.276 0-0.5 0.224-0.5 0.5v2.5h-2v-0.5c0-1.379-1.121-2.5-2.5-2.5s-2.5 1.121-2.5 2.5v0.5h-2v-9h2.5c0.276 0 0.5-0.224 0.5-0.5v-1c0-0.827 0.673-1.5 1.5-1.5s1.5 0.673 1.5 1.5v1c0 0.276 0.224 0.5 0.5 0.5h2.5v2.5c0 0.276 0.224 0.5 0.5 0.5h1c0.827 0 1.5 0.673 1.5 1.5s-0.673 1.5-1.5 1.5z"></path>
</svg>
