<svg version="1.1" xmlns="http://www.w3.org/2000/svg" width="16" height="16" viewBox="0 0 16 16">
<title>question-square-o</title>
<path d="M13 1h-10c-1.105 0-2 0.895-2 2v0 10c0 1.105 0.895 2 2 2v0h10c1.105 0 2-0.895 2-2v0-10c0-1.105-0.895-2-2-2v0zM14 13c0 0.552-0.448 1-1 1v0h-10c-0.552 0-1-0.448-1-1v0-10c0-0.552 0.448-1 1-1v0h10c0.552 0 1 0.448 1 1v0z"></path>
<path d="M8.75 11.75c0 0.414-0.336 0.75-0.75 0.75s-0.75-0.336-0.75-0.75c0-0.414 0.336-0.75 0.75-0.75s0.75 0.336 0.75 0.75z"></path>
<path d="M8 3.875c-1.449 0.002-2.623 1.176-2.625 2.625v0c0 0.345 0.28 0.625 0.625 0.625s0.625-0.28 0.625-0.625v0c0-0.759 0.616-1.375 1.375-1.375s1.375 0.616 1.375 1.375v0c0 0.418-0.257 0.631-0.75 1-0.714 0.405-1.2 1.141-1.25 1.993l-0 0.007c0 0.345 0.28 0.625 0.625 0.625s0.625-0.28 0.625-0.625v0c0-0.418 0.257-0.631 0.75-1 0.714-0.405 1.2-1.141 1.25-1.993l0-0.007c-0.002-1.449-1.176-2.623-2.625-2.625h-0z"></path>
</svg>
