<svg version="1.1" xmlns="http://www.w3.org/2000/svg" width="16" height="16" viewBox="0 0 16 16">
<title>question-circle</title>
<path d="M8 0c-4.418 0-8 3.582-8 8s3.582 8 8 8c4.418 0 8-3.582 8-8v0c-0.005-4.416-3.584-7.995-8-8h-0zM8 13c-0.483 0-0.875-0.392-0.875-0.875s0.392-0.875 0.875-0.875c0.483 0 0.875 0.392 0.875 0.875v0c0 0.483-0.392 0.875-0.875 0.875v0zM9.45 8.85c-0.508 0.381-0.7 0.557-0.7 0.9 0 0.414-0.336 0.75-0.75 0.75s-0.75-0.336-0.75-0.75v0c0.046-0.901 0.553-1.675 1.287-2.093l0.013-0.007c0.508-0.381 0.7-0.557 0.7-0.9 0-0.69-0.56-1.25-1.25-1.25s-1.25 0.56-1.25 1.25v0c0 0.414-0.336 0.75-0.75 0.75s-0.75-0.336-0.75-0.75v0c0-1.519 1.231-2.75 2.75-2.75s2.75 1.231 2.75 2.75v0c-0.046 0.901-0.553 1.675-1.287 2.093l-0.013 0.007z"></path>
</svg>
