<svg version="1.1" xmlns="http://www.w3.org/2000/svg" width="16" height="16" viewBox="0 0 16 16">
<title>question-circle-o</title>
<path d="M8 0c-4.418 0-8 3.582-8 8s3.582 8 8 8c4.418 0 8-3.582 8-8v0c-0.005-4.416-3.584-7.995-8-8h-0zM8 15c-3.866 0-7-3.134-7-7s3.134-7 7-7c3.866 0 7 3.134 7 7v0c-0.005 3.864-3.136 6.995-7 7h-0z"></path>
<path d="M8.75 12c0 0.414-0.336 0.75-0.75 0.75s-0.75-0.336-0.75-0.75c0-0.414 0.336-0.75 0.75-0.75s0.75 0.336 0.75 0.75z"></path>
<path d="M8 4.125c-1.449 0.002-2.623 1.176-2.625 2.625v0c0 0.345 0.28 0.625 0.625 0.625s0.625-0.28 0.625-0.625v0c0-0.759 0.616-1.375 1.375-1.375s1.375 0.616 1.375 1.375v0c0 0.418-0.257 0.631-0.75 1-0.714 0.405-1.2 1.141-1.25 1.993l-0 0.007c0 0.345 0.28 0.625 0.625 0.625s0.625-0.28 0.625-0.625v0c0-0.418 0.257-0.631 0.75-1 0.714-0.405 1.2-1.141 1.25-1.993l0-0.007c-0.002-1.449-1.176-2.623-2.625-2.625h-0z"></path>
</svg>
