<svg version="1.1" xmlns="http://www.w3.org/2000/svg" width="16" height="16" viewBox="0 0 16 16">
<title>quote-left</title>
<path d="M12 7c-0.206 0-0.406 0.021-0.6 0.060l0.019-0.003c0.456-1.651 1.397-3.041 2.659-4.045l0.016-0.012h-0.969c-2.478 1.392-4.125 4.003-4.125 6.999 0 0 0 0.001 0 0.001v-0c0 1.657 1.343 3 3 3s3-1.343 3-3c0-1.657-1.343-3-3-3v0z"></path>
<path d="M4 7c-0.206 0-0.406 0.021-0.6 0.060l0.019-0.003c0.456-1.651 1.397-3.041 2.659-4.045l0.016-0.012h-0.969c-2.478 1.392-4.125 4.003-4.125 6.999 0 0 0 0.001 0 0.001v-0c0 1.657 1.343 3 3 3s3-1.343 3-3c0-1.657-1.343-3-3-3v0z"></path>
</svg>
