<svg version="1.1" xmlns="http://www.w3.org/2000/svg" width="16" height="16" viewBox="0 0 16 16">
<title>quote-right</title>
<path d="M4 3c-0 0-0.001 0-0.001 0-1.657 0-3 1.343-3 3s1.343 3 3 3c0.206 0 0.407-0.021 0.601-0.060l-0.019 0.003c-0.456 1.651-1.397 3.041-2.659 4.045l-0.016 0.012h0.969c2.478-1.392 4.125-4.003 4.125-6.999 0-0 0-0.001 0-0.001v0c0-1.657-1.343-3-3-3v0z"></path>
<path d="M12 3c-0 0-0.001 0-0.001 0-1.657 0-3 1.343-3 3s1.343 3 3 3c0.206 0 0.407-0.021 0.601-0.060l-0.019 0.003c-0.456 1.651-1.397 3.041-2.659 4.045l-0.016 0.012h0.969c2.478-1.392 4.125-4.003 4.125-6.999 0-0 0-0.001 0-0.001v0c0-1.657-1.343-3-3-3v0z"></path>
</svg>
