<svg version="1.1" xmlns="http://www.w3.org/2000/svg" width="16" height="16" viewBox="0 0 16 16">
<title>radar-chart</title>
<path d="M15 10.092v-4.184c0.581-0.207 1-0.757 1-1.408 0-0.827-0.673-1.5-1.5-1.5-0.403 0-0.768 0.162-1.038 0.422l-3.48-1.74c0.007-0.061 0.018-0.12 0.018-0.182 0-0.827-0.673-1.5-1.5-1.5s-1.5 0.673-1.5 1.5c0 0.056 0.011 0.11 0.017 0.164l-3.533 1.713c-0.264-0.232-0.606-0.377-0.984-0.377-0.827 0-1.5 0.673-1.5 1.5s0.673 1.5 1.5 1.5c0.409 0 0.779-0.165 1.050-0.431l3.469 1.746c-0.008 0.061-0.019 0.121-0.019 0.185 0 0.651 0.419 1.201 1 1.408v4.184c-0.581 0.207-1 0.757-1 1.408 0 0.827 0.673 1.5 1.5 1.5s1.5-0.673 1.5-1.5c0-0.062-0.011-0.121-0.018-0.182l3.48-1.74c0.27 0.26 0.635 0.422 1.038 0.422 0.827 0 1.5-0.673 1.5-1.5 0-0.651-0.419-1.201-1-1.408zM2.5 5c-0.275 0-0.5-0.224-0.5-0.5s0.225-0.5 0.5-0.5 0.5 0.224 0.5 0.5-0.225 0.5-0.5 0.5zM14.5 4c0.275 0 0.5 0.224 0.5 0.5s-0.225 0.5-0.5 0.5-0.5-0.224-0.5-0.5 0.225-0.5 0.5-0.5zM8.5 1c0.275 0 0.5 0.224 0.5 0.5s-0.225 0.5-0.5 0.5-0.5-0.224-0.5-0.5 0.225-0.5 0.5-0.5zM3.975 4.251l3.473-1.684c0.27 0.267 0.642 0.433 1.052 0.433 0.404 0 0.769-0.162 1.039-0.422l3.48 1.74c-0.008 0.060-0.019 0.12-0.019 0.182 0 0.651 0.419 1.201 1 1.408v4.184c-0.581 0.207-1 0.757-1 1.408 0 0.062 0.011 0.121 0.018 0.182l-3.48 1.74c-0.152-0.147-0.335-0.258-0.538-0.33v-4.184c0.581-0.207 1-0.757 1-1.408 0-0.827-0.673-1.5-1.5-1.5-0.402 0-0.766 0.161-1.035 0.419l-3.482-1.752c0.006-0.055 0.017-0.11 0.017-0.167 0-0.085-0.011-0.168-0.025-0.249zM8.5 8c-0.275 0-0.5-0.224-0.5-0.5s0.225-0.5 0.5-0.5 0.5 0.224 0.5 0.5-0.225 0.5-0.5 0.5zM8.5 15c-0.275 0-0.5-0.224-0.5-0.5s0.225-0.5 0.5-0.5 0.5 0.224 0.5 0.5-0.225 0.5-0.5 0.5zM14.5 12c-0.275 0-0.5-0.224-0.5-0.5s0.225-0.5 0.5-0.5 0.5 0.224 0.5 0.5-0.225 0.5-0.5 0.5z"></path>
</svg>
