<svg id="Layer_1" data-name="Layer 1" xmlns="http://www.w3.org/2000/svg" width="16" height="16" viewBox="0 0 16 16"><path d="M7.25,8A.75.75,0,1,1,8,8.75.75.75,0,0,1,7.25,8ZM16,8c0,.152-.01.3-.021.45a.587.587,0,0,1-.5.55H11.45a.5.5,0,0,1-.495-.57A3.163,3.163,0,0,0,11,8,2.985,2.985,0,0,0,9.111,5.219.5.5,0,0,1,8.863,4.5l2.009-3.479a.5.5,0,0,1,.654-.2A7.951,7.951,0,0,1,16,8ZM15,8a6.95,6.95,0,0,0-3.5-6.056L10,4.54A3.974,3.974,0,0,1,12,8ZM4.55,9H.525a.5.5,0,0,1-.5-.466C.01,8.3,0,8.152,0,8A7.951,7.951,0,0,1,4.474.827a.5.5,0,0,1,.654.2L7.137,4.5a.5.5,0,0,1-.248.715A2.985,2.985,0,0,0,5,8a2.707,2.707,0,0,0,.037.374.555.555,0,0,1-.113.426A.518.518,0,0,1,4.55,9ZM4,8A3.974,3.974,0,0,1,6,4.54l-1.5-2.6A6.95,6.95,0,0,0,1,8Zm8.607,5.98a.5.5,0,0,1-.154.666,8,8,0,0,1-8.907,0,.5.5,0,0,1-.154-.666L5.41,10.487a.5.5,0,0,1,.743-.142,2.975,2.975,0,0,0,3.694,0,.5.5,0,0,1,.743.142Zm-1.107.082L9.994,11.454a3.966,3.966,0,0,1-3.988,0L4.5,14.062A7.1,7.1,0,0,0,11.5,14.062Z"/></svg>