<svg version="1.1" xmlns="http://www.w3.org/2000/svg" width="16" height="16" viewBox="0 0 16 16">
<title>random</title>
<path d="M13.854 10.146c-0.143-0.143-0.359-0.186-0.545-0.108s-0.309 0.26-0.309 0.462v1.385c-2.165-0.183-3.52-1.511-4.755-3.125l-0.029 0.040-0.584 0.8c1.32 1.68 2.875 3.112 5.368 3.287v1.613c0 0.202 0.122 0.385 0.309 0.462l0.191 0.038c0.13 0 0.258-0.051 0.354-0.146l2-2c0.195-0.195 0.195-0.512 0-0.707l-2-2.001zM0.5 3.921c2.47 0 3.925 1.425 5.255 3.161l0.029-0.040 0.584-0.8c-1.408-1.791-3.070-3.321-5.868-3.321-0.276 0-0.5 0.224-0.5 0.5s0.224 0.5 0.5 0.5zM13 3.966v1.534c0 0.202 0.122 0.385 0.309 0.462l0.191 0.038c0.13 0 0.258-0.051 0.354-0.146l2-2c0.195-0.195 0.195-0.512 0-0.707l-2-2c-0.143-0.143-0.359-0.186-0.545-0.108-0.187 0.076-0.309 0.259-0.309 0.461v1.465c-3.162 0.224-4.819 2.467-6.405 4.663-1.595 2.208-3.101 4.293-6.095 4.293-0.276 0-0.5 0.224-0.5 0.5s0.224 0.5 0.5 0.5c3.506 0 5.234-2.393 6.905-4.707 1.501-2.077 2.939-4.022 5.595-4.248z"></path>
</svg>
