<svg version="1.1" xmlns="http://www.w3.org/2000/svg" width="16" height="16" viewBox="0 0 16 16">
<title>range-chart-area</title>
<path d="M4.531 9.102l4.711 2.827c0.080 0.048 0.169 0.071 0.258 0.071 0.097 0 0.193-0.028 0.277-0.084l2.723-1.815 2.723 1.815c0.154 0.102 0.352 0.112 0.513 0.025 0.162-0.087 0.264-0.256 0.264-0.441v-4c0-0.167-0.083-0.323-0.223-0.416l-3-2c-0.198-0.132-0.462-0.106-0.631 0.062l-1.569 1.569-1.661-2.492c-0.083-0.125-0.218-0.206-0.367-0.22-0.15-0.011-0.297 0.038-0.403 0.144l-1.568 1.568-1.662-2.492c-0.088-0.133-0.235-0.216-0.395-0.223-0.15-0.012-0.312 0.063-0.412 0.188l-3.109 3.886v-5.574c0-0.276-0.224-0.5-0.5-0.5s-0.5 0.224-0.5 0.5v12c0 0.276 0.224 0.5 0.5 0.5h15c0.276 0 0.5-0.224 0.5-0.5s-0.224-0.5-0.5-0.5h-14.5v-1.25l3.531-2.648zM4.463 4.346l1.621 2.431c0.083 0.125 0.218 0.206 0.367 0.22 0.154 0.016 0.297-0.037 0.403-0.143l1.569-1.569 1.662 2.493c0.083 0.125 0.218 0.206 0.367 0.22 0.154 0.015 0.297-0.039 0.403-0.144l1.71-1.71 2.435 1.624v2.798l-2.223-1.482c-0.168-0.112-0.387-0.112-0.555 0l-2.737 1.825-4.728-2.838c-0.079-0.048-0.168-0.071-0.257-0.071-0.106 0-0.211 0.034-0.3 0.1l-3.2 2.4v-1.825l3.463-4.329z"></path>
</svg>
