<svg version="1.1" xmlns="http://www.w3.org/2000/svg" width="16" height="16" viewBox="0 0 16 16">
<title>range-chart-bar</title>
<path d="M15.5 13h-14.5v-11.5c0-0.276-0.224-0.5-0.5-0.5s-0.5 0.224-0.5 0.5v12c0 0.276 0.224 0.5 0.5 0.5h15c0.276 0 0.5-0.224 0.5-0.5s-0.224-0.5-0.5-0.5z"></path>
<path d="M15.5 2h-3c-0.276 0-0.5 0.224-0.5 0.5v5c0 0.276 0.224 0.5 0.5 0.5h3c0.276 0 0.5-0.224 0.5-0.5v-5c0-0.276-0.224-0.5-0.5-0.5zM15 7h-2v-4h2v4z"></path>
<path d="M2.5 10h3c0.276 0 0.5-0.224 0.5-0.5v-5c0-0.276-0.224-0.5-0.5-0.5h-3c-0.276 0-0.5 0.224-0.5 0.5v5c0 0.276 0.224 0.5 0.5 0.5zM3 5h2v4h-2v-4z"></path>
<path d="M7.5 12h3c0.276 0 0.5-0.224 0.5-0.5v-5c0-0.276-0.224-0.5-0.5-0.5h-3c-0.276 0-0.5 0.224-0.5 0.5v5c0 0.276 0.224 0.5 0.5 0.5zM8 7h2v4h-2v-4z"></path>
</svg>
