<svg version="1.1" xmlns="http://www.w3.org/2000/svg" width="16" height="16" viewBox="0 0 16 16">
<title>recycle</title>
<path d="M5.084 4.973c-0.033-0.128-0.116-0.238-0.23-0.306s-0.25-0.087-0.379-0.054l-2.765 0.713c-0.268 0.070-0.428 0.342-0.359 0.61 0.069 0.266 0.338 0.427 0.609 0.359l1.611-0.415-2.27 3.932c-0.505 0.875-0.505 1.919 0 2.793s1.409 1.395 2.418 1.395c0.276 0 0.5-0.224 0.5-0.5s-0.224-0.5-0.5-0.5c-0.647 0-1.228-0.335-1.552-0.896s-0.324-1.231-0.001-1.793l2.255-3.905 0.394 1.529c0.059 0.226 0.262 0.375 0.484 0.375l0.125-0.016c0.268-0.069 0.428-0.342 0.359-0.609l-0.699-2.712zM6.447 2.896c0.324-0.561 0.906-0.896 1.553-0.896s1.229 0.335 1.553 0.896l2.279 3.947-1.522-0.423c-0.268-0.075-0.541 0.082-0.615 0.348s0.081 0.541 0.348 0.615l2.699 0.752 0.134 0.019c0.085 0 0.17-0.021 0.246-0.064 0.115-0.065 0.2-0.174 0.235-0.302l0.766-2.752c0.074-0.266-0.081-0.541-0.348-0.615-0.268-0.075-0.541 0.082-0.615 0.348l-0.446 1.604-2.295-3.975c-0.506-0.876-1.409-1.398-2.419-1.398s-1.913 0.522-2.418 1.396c-0.139 0.24-0.057 0.545 0.183 0.683 0.24 0.139 0.546 0.058 0.682-0.183zM14.699 9.812c-0.138-0.238-0.442-0.322-0.683-0.183-0.239 0.138-0.321 0.443-0.183 0.683 0.323 0.562 0.323 1.231-0.001 1.793-0.323 0.56-0.903 0.895-1.551 0.895h-4.596l1.165-1.143c0.196-0.194 0.2-0.511 0.007-0.708-0.193-0.195-0.509-0.198-0.708-0.007l-2 1.962c-0.093 0.094-0.148 0.22-0.149 0.353s0.050 0.261 0.144 0.355l2 2.038c0.097 0.1 0.226 0.15 0.356 0.15 0.126 0 0.253-0.048 0.351-0.144 0.196-0.193 0.199-0.51 0.006-0.707l-1.129-1.149h4.553c1.009 0 1.913-0.521 2.418-1.396s0.505-1.917 0-2.792z"></path>
</svg>
