<svg version="1.1" xmlns="http://www.w3.org/2000/svg" width="16" height="16" viewBox="0 0 16 16">
<title>redo-alt</title>
<path d="M13.5 1h-11c-0.827 0-1.5 0.673-1.5 1.5v3c0 0.276 0.224 0.5 0.5 0.5s0.5-0.224 0.5-0.5v-3c0-0.275 0.224-0.5 0.5-0.5h11c0.276 0 0.5 0.225 0.5 0.5v11c0 0.275-0.224 0.5-0.5 0.5h-8.5c-0.831 0-1.604-0.332-2.176-0.936s-0.863-1.394-0.819-2.227c0.081-1.564 1.514-2.837 3.193-2.837h5.095l-2.146 2.146c-0.195 0.195-0.195 0.512 0 0.707 0.097 0.098 0.225 0.147 0.353 0.147s0.256-0.049 0.354-0.146l3-3c0.195-0.195 0.195-0.512 0-0.707l-3-3c-0.195-0.195-0.512-0.195-0.707 0s-0.195 0.512 0 0.707l2.146 2.146h-5.095c-2.203 0-4.083 1.698-4.193 3.785-0.058 1.11 0.33 2.164 1.093 2.968s1.794 1.247 2.902 1.247h8.5c0.827 0 1.5-0.673 1.5-1.5v-11c0-0.827-0.673-1.5-1.5-1.5z"></path>
</svg>
