<svg version="1.1" xmlns="http://www.w3.org/2000/svg" width="16" height="16" viewBox="0 0 16 16">
<title>redo-arrow</title>
<path d="M12.146 8.854c0.098 0.097 0.226 0.146 0.354 0.146s0.256-0.049 0.354-0.146l3-3c0.195-0.195 0.195-0.512 0-0.707l-3-3c-0.195-0.195-0.512-0.195-0.707 0s-0.195 0.512 0 0.707l2.075 2.075h-9.495c-2.517 0-4.666 1.94-4.791 4.326-0.067 1.269 0.376 2.473 1.248 3.392s2.050 1.425 3.316 1.425h10c0.315 0 0.571-0.256 0.571-0.571s-0.256-0.571-0.571-0.571h-10c-0.95 0-1.833-0.38-2.487-1.069s-0.986-1.592-0.937-2.544c0.094-1.789 1.731-3.244 3.65-3.244h9.495l-2.075 2.075c-0.195 0.194-0.195 0.51 0 0.706z"></path>
</svg>
