<svg version="1.1" xmlns="http://www.w3.org/2000/svg" width="16" height="16" viewBox="0 0 16 16">
<title>registered</title>
<path d="M8 2c-3.309 0-6 2.691-6 6s2.691 6 6 6 6-2.691 6-6-2.691-6-6-6zM8 13c-2.757 0-5-2.243-5-5s2.243-5 5-5 5 2.243 5 5-2.243 5-5 5zM10 6.5c0-0.827-0.673-1.5-1.5-1.5h-2c-0.277 0-0.5 0.224-0.5 0.5v5c0 0.276 0.223 0.5 0.5 0.5s0.5-0.224 0.5-0.5v-2.5h1.144l0.881 2.657c0.070 0.21 0.265 0.343 0.475 0.343l0.157-0.025c0.262-0.087 0.404-0.37 0.317-0.632l-0.827-2.496c0.502-0.242 0.853-0.753 0.853-1.347zM7 6h1.5c0.275 0 0.5 0.225 0.5 0.5s-0.225 0.5-0.5 0.5h-1.5v-1z"></path>
</svg>
