<svg version="1.1" xmlns="http://www.w3.org/2000/svg" width="16" height="16" viewBox="0 0 16 16">
<title>reorder</title>
<path d="M2.5 4h11c0.276 0 0.5-0.224 0.5-0.5s-0.224-0.5-0.5-0.5h-11c-0.276 0-0.5 0.224-0.5 0.5s0.224 0.5 0.5 0.5zM13.5 6h-11c-0.276 0-0.5 0.224-0.5 0.5s0.224 0.5 0.5 0.5h11c0.276 0 0.5-0.224 0.5-0.5s-0.224-0.5-0.5-0.5zM13.5 9h-11c-0.276 0-0.5 0.224-0.5 0.5s0.224 0.5 0.5 0.5h11c0.276 0 0.5-0.224 0.5-0.5s-0.224-0.5-0.5-0.5zM13.5 12h-11c-0.276 0-0.5 0.224-0.5 0.5s0.224 0.5 0.5 0.5h11c0.276 0 0.5-0.224 0.5-0.5s-0.224-0.5-0.5-0.5z"></path>
</svg>
