<svg version="1.1" xmlns="http://www.w3.org/2000/svg" width="16" height="16" viewBox="0 0 16 16">
<title>reply</title>
<path d="M8.5 5.010h-1.5v-2.51c0-0.197-0.116-0.376-0.297-0.457-0.181-0.079-0.391-0.048-0.538 0.085l-5 4.5c-0.104 0.096-0.165 0.23-0.165 0.372s0.061 0.276 0.165 0.372l5 4.5c0.148 0.133 0.358 0.163 0.538 0.085 0.181-0.081 0.297-0.26 0.297-0.457v-2.5h2.025c2.598 0 4.737 1.949 4.977 4.534 0.024 0.259 0.241 0.454 0.498 0.454l0.023-0.001c0.267-0.011 0.477-0.231 0.477-0.499v-2.988c0-3.335-2.552-5.49-6.5-5.49zM14 10.63c-1.079-1.6-2.905-2.63-4.975-2.63h-2.525c-0.276 0-0.5 0.224-0.5 0.5v1.877l-3.753-3.377 3.753-3.377v1.887c0 0.276 0.224 0.5 0.5 0.5h2c2.659 0 5.5 1.18 5.5 4.49v0.13z"></path>
</svg>
