<svg version="1.1" xmlns="http://www.w3.org/2000/svg" width="16" height="16" viewBox="0 0 16 16">
<title>reply-all</title>
<path d="M9.5 5.010h-0.5v-2.51c0-0.197-0.116-0.376-0.296-0.457-0.18-0.077-0.391-0.046-0.538 0.085l-5 4.5c-0.106 0.096-0.166 0.23-0.166 0.372s0.060 0.276 0.166 0.372l5 4.5c0.146 0.132 0.358 0.162 0.538 0.085 0.18-0.081 0.296-0.26 0.296-0.457v-2.5h1.026c2.598 0 4.738 1.949 4.976 4.534 0.024 0.259 0.241 0.454 0.498 0.454l0.023-0.001c0.267-0.011 0.477-0.231 0.477-0.499v-2.988c0-3.335-2.551-5.49-6.5-5.49zM15 10.63c-1.079-1.6-2.905-2.63-4.974-2.63h-1.526c-0.276 0-0.5 0.224-0.5 0.5v1.877l-3.752-3.377 3.752-3.377v1.887c0 0.276 0.224 0.5 0.5 0.5h1c2.659 0 5.5 1.18 5.5 4.49v0.13zM1.248 7l4.587-4.128c0.205-0.185 0.221-0.501 0.037-0.707s-0.5-0.222-0.706-0.037l-5 4.5c-0.106 0.096-0.166 0.23-0.166 0.372s0.060 0.276 0.166 0.372l5 4.5c0.095 0.086 0.215 0.128 0.334 0.128 0.137 0 0.273-0.056 0.372-0.165 0.185-0.206 0.168-0.521-0.037-0.707l-4.587-4.128z"></path>
</svg>
