<svg version="1.1" xmlns="http://www.w3.org/2000/svg" width="16" height="16" viewBox="0 0 16 16">
<title>retweet</title>
<path d="M15.854 10.146c-0.195-0.195-0.512-0.195-0.707 0l-2.147 2.147v-8.293c0-1.103-0.897-2-2-2h-3.5c-0.276 0-0.5 0.224-0.5 0.5s0.224 0.5 0.5 0.5h3.5c0.551 0 1 0.448 1 1v8.293l-2.146-2.146c-0.195-0.195-0.512-0.195-0.707 0s-0.195 0.512 0 0.707l3 3c0.097 0.097 0.225 0.146 0.353 0.146s0.256-0.049 0.354-0.146l3-3c0.195-0.196 0.195-0.512 0-0.708zM8.5 13h-3.5c-0.551 0-1-0.448-1-1v-8.293l2.146 2.146c0.098 0.098 0.226 0.147 0.354 0.147s0.256-0.049 0.354-0.146c0.195-0.195 0.195-0.512 0-0.707l-3-3c-0.195-0.195-0.512-0.195-0.707 0l-3 3c-0.195 0.195-0.195 0.512 0 0.707s0.512 0.195 0.707 0l2.146-2.147v8.293c0 1.103 0.897 2 2 2h3.5c0.276 0 0.5-0.224 0.5-0.5s-0.224-0.5-0.5-0.5z"></path>
</svg>
