<svg version="1.1" xmlns="http://www.w3.org/2000/svg" width="16" height="16" viewBox="0 0 16 16">
<title>road</title>
<path d="M15.97 13.329l-4-11c-0.072-0.197-0.26-0.329-0.47-0.329h-6c-0.21 0-0.398 0.132-0.47 0.329l-4 11c-0.056 0.153-0.033 0.324 0.061 0.458s0.246 0.213 0.409 0.213h14c0.163 0 0.316-0.079 0.409-0.213s0.116-0.305 0.061-0.458zM9 13v-2.5c0-0.276-0.224-0.5-0.5-0.5s-0.5 0.224-0.5 0.5v2.5h-5.786l3.637-10h2.149v1.5c0 0.276 0.224 0.5 0.5 0.5s0.5-0.224 0.5-0.5v-1.5h2.149l3.637 10h-5.786zM8.5 6c-0.276 0-0.5 0.224-0.5 0.5v2c0 0.276 0.224 0.5 0.5 0.5s0.5-0.224 0.5-0.5v-2c0-0.276-0.224-0.5-0.5-0.5z"></path>
</svg>
