<svg version="1.1" xmlns="http://www.w3.org/2000/svg" width="16" height="16" viewBox="0 0 16 16">
<title>rocket</title>
<path d="M14.687 1.274c-0.277-0.264-0.672-0.342-1.032-0.213l-3.975 1.461c-2.131 0.785-3.868 2.412-4.804 4.478h-0.21c-1.526 0-2.898 0.849-3.579 2.216l-1.027 2.061c-0.077 0.154-0.069 0.339 0.022 0.485 0.091 0.148 0.252 0.238 0.425 0.238h2.785l0.708 0.713v2.787c0 0.173 0.090 0.334 0.237 0.425 0.080 0.050 0.171 0.075 0.263 0.075 0.076 0 0.152-0.018 0.223-0.053l2.062-1.027c1.366-0.681 2.215-2.053 2.215-3.58v-0.335l0.229-0.105c2.272-0.996 3.991-2.928 4.717-5.3l1.011-3.307c0.11-0.365 0.008-0.756-0.27-1.019zM3.169 11h-1.855l0.667-1.339c0.476-0.954 1.403-1.565 2.453-1.645l-1.265 2.984zM6.339 14.025l-1.339 0.667v-1.864l2.991-1.364c-0.044 1.095-0.665 2.069-1.652 2.561zM8.82 9.987l-4.211 1.92-0.518-0.522 1.623-3.825c0.681-1.598 1.91-2.904 3.436-3.702l3.099 3.099c-0.792 1.327-1.979 2.395-3.429 3.030zM12.988 5.308c-0.074 0.244-0.163 0.481-0.261 0.713l-2.597-2.598 3.869-1.422-1.011 3.307z"></path>
</svg>
