<svg version="1.1" xmlns="http://www.w3.org/2000/svg" width="16" height="16" viewBox="0 0 16 16">
<title>rotate-right</title>
<path d="M14.691 1.038c-0.187-0.078-0.402-0.035-0.545 0.108l-1.574 1.574c-1.254-1.084-2.865-1.719-4.572-1.719-3.86 0-7 3.14-7 7s3.14 7 7 7c3.257 0 6.056-2.215 6.806-5.386 0.063-0.269-0.103-0.538-0.372-0.602-0.273-0.061-0.539 0.103-0.602 0.372-0.642 2.718-3.040 4.616-5.832 4.616-3.309 0-6-2.691-6-6s2.691-6 6-6c1.438 0 2.798 0.526 3.866 1.426l-1.719 1.719c-0.144 0.144-0.187 0.358-0.109 0.545s0.26 0.309 0.462 0.309h4c0.276 0 0.5-0.224 0.5-0.5v-4c0-0.202-0.122-0.385-0.309-0.462z"></path>
</svg>
