<svg version="1.1" xmlns="http://www.w3.org/2000/svg" width="16" height="16" viewBox="0 0 16 16">
<title>rss-square</title>
<path d="M6 11c0 0.552-0.448 1-1 1s-1-0.448-1-1c0-0.552 0.448-1 1-1s1 0.448 1 1z"></path>
<path d="M4.5 4c-0.276 0-0.5 0.224-0.5 0.5s0.224 0.5 0.5 0.5v0c3.588 0.005 6.495 2.912 6.5 6.5v0c0 0.276 0.224 0.5 0.5 0.5s0.5-0.224 0.5-0.5v0c-0.005-4.14-3.36-7.495-7.5-7.5h-0z"></path>
<path d="M4.5 7c-0.276 0-0.5 0.224-0.5 0.5s0.224 0.5 0.5 0.5v0c1.933 0 3.5 1.567 3.5 3.5v0c0 0.276 0.224 0.5 0.5 0.5s0.5-0.224 0.5-0.5v0c-0.003-2.484-2.016-4.497-4.5-4.5h-0z"></path>
<path d="M13 1h-10c-1.105 0-2 0.895-2 2v0 10c0 1.105 0.895 2 2 2v0h10c1.105 0 2-0.895 2-2v0-10c0-1.105-0.895-2-2-2v0zM14 13c0 0.552-0.448 1-1 1v0h-10c-0.552 0-1-0.448-1-1v0-10c0-0.552 0.448-1 1-1v0h10c0.552 0 1 0.448 1 1v0z"></path>
</svg>
