<svg version="1.1" xmlns="http://www.w3.org/2000/svg" width="16" height="16" viewBox="0 0 16 16">
<title>rss</title>
<path d="M4 10c-1.105 0-2 0.895-2 2s0.895 2 2 2c1.105 0 2-0.895 2-2v0c0-1.105-0.895-2-2-2v0zM4 13c-0.552 0-1-0.448-1-1s0.448-1 1-1c0.552 0 1 0.448 1 1v0c0 0.552-0.448 1-1 1v0z"></path>
<path d="M2.5 2c-0.276 0-0.5 0.224-0.5 0.5s0.224 0.5 0.5 0.5v0c5.796 0.007 10.493 4.704 10.5 10.499v0.001c0 0.276 0.224 0.5 0.5 0.5s0.5-0.224 0.5-0.5v0c-0.007-6.348-5.152-11.493-11.499-11.5h-0.001z"></path>
<path d="M2.5 6c-0.276 0-0.5 0.224-0.5 0.5s0.224 0.5 0.5 0.5v0c3.588 0.005 6.495 2.912 6.5 6.5v0c0 0.276 0.224 0.5 0.5 0.5s0.5-0.224 0.5-0.5v0c-0.005-4.14-3.36-7.495-7.5-7.5h-0z"></path>
</svg>
