<svg version="1.1" xmlns="http://www.w3.org/2000/svg" width="16" height="16" viewBox="0 0 16 16">
<title>ruble</title>
<path d="M9.5 9c1.93 0 3.5-1.57 3.5-3.5s-1.57-3.5-3.5-3.5h-4c-0.276 0-0.5 0.224-0.5 0.5v5.5h-1.5c-0.276 0-0.5 0.224-0.5 0.5s0.224 0.5 0.5 0.5h1.5v1h-1.5c-0.276 0-0.5 0.224-0.5 0.5s0.224 0.5 0.5 0.5h1.5v2.5c0 0.276 0.224 0.5 0.5 0.5s0.5-0.224 0.5-0.5v-2.5h3.5c0.276 0 0.5-0.224 0.5-0.5s-0.224-0.5-0.5-0.5h-3.5v-1h3.5zM6 3h3.5c1.378 0 2.5 1.122 2.5 2.5s-1.122 2.5-2.5 2.5h-3.5v-5z"></path>
</svg>
