<svg version="1.1" xmlns="http://www.w3.org/2000/svg" width="16" height="16" viewBox="0 0 16 16">
<title>rupee</title>
<path d="M11.5 4h-1.219c-0.133-0.374-0.335-0.711-0.596-1h1.815c0.276 0 0.5-0.224 0.5-0.5s-0.224-0.5-0.5-0.5h-7c-0.276 0-0.5 0.224-0.5 0.5s0.224 0.5 0.5 0.5h2.965c0.737 0 1.375 0.405 1.722 1h-4.687c-0.276 0-0.5 0.224-0.5 0.5s0.224 0.5 0.5 0.5h4.965c0 1.103-0.897 2-2 2h-2.965c-0.194 0-0.37 0.112-0.453 0.288-0.082 0.175-0.056 0.383 0.069 0.532l5 6c0.099 0.119 0.241 0.18 0.384 0.18 0.113 0 0.227-0.038 0.32-0.116 0.212-0.177 0.24-0.492 0.063-0.705l-4.316-5.179h1.897c1.654 0 3-1.346 3-3h1.036c0.276 0 0.5-0.224 0.5-0.5s-0.224-0.5-0.5-0.5z"></path>
</svg>
