<svg version="1.1" xmlns="http://www.w3.org/2000/svg" width="16" height="16" viewBox="0 0 16 16">
<title>save-as</title>
<path d="M9.5 10.001c0.276 0 0.5-0.224 0.5-0.5v-1.001c0-0.276-0.224-0.5-0.5-0.5h-5c-0.276 0-0.5 0.224-0.5 0.5v3.5h-1.23c-0.425 0-0.77-0.345-0.77-0.769v-8.462c0-0.424 0.345-0.769 0.77-0.769h1.23v3.5c0 0.276 0.224 0.5 0.5 0.5h5c0.276 0 0.5-0.224 0.5-0.5v-3.254l1.774 1.774c0.146 0.146 0.226 0.339 0.226 0.544v2.936c0 0.276 0.224 0.5 0.5 0.5s0.5-0.224 0.5-0.5v-2.936c0-0.472-0.185-0.917-0.519-1.251l-1.795-1.794c-0.328-0.33-0.784-0.519-1.25-0.519h-6.666c-0.976 0-1.77 0.793-1.77 1.769v8.462c0 0.976 0.794 1.769 1.77 1.769h4.735c0.276 0 0.5-0.224 0.5-0.5s-0.224-0.5-0.5-0.5h-2.505v-3h4v0.501c0 0.276 0.224 0.5 0.5 0.5zM9 2v3h-4v-3h4z"></path>
<path d="M15.561 9.44c0 0 0 0 0 0-0.586-0.584-1.537-0.585-2.121 0l-2.983 2.984c-0.201 0.2-0.368 0.436-0.482 0.682l-0.903 1.934c-0.127 0.271-0.082 0.575 0.115 0.772 0.125 0.123 0.289 0.188 0.461 0.188 0.104 0 0.21-0.023 0.312-0.071l1.934-0.901c0.245-0.114 0.481-0.281 0.683-0.481l2.984-2.985c0.283-0.284 0.439-0.661 0.439-1.061s-0.156-0.777-0.439-1.061zM14.854 10.854l-2.983 2.984c-0.12 0.119-0.258 0.216-0.398 0.282l-1.108 0.517 0.517-1.108c0.065-0.141 0.163-0.278 0.282-0.397l2.984-2.985c0.098-0.098 0.226-0.146 0.354-0.146s0.256 0.048 0.354 0.146c0 0 0 0 0 0 0.092 0.095 0.144 0.22 0.144 0.354s-0.052 0.259-0.146 0.353z"></path>
</svg>
