<svg version="1.1" xmlns="http://www.w3.org/2000/svg" width="16" height="16" viewBox="0 0 16 16">
<title>save</title>
<path d="M14.414 3.707l-2.121-2.121c-0.372-0.373-0.888-0.586-1.414-0.586h-7.879c-1.103 0-2 0.897-2 2v10c0 1.103 0.897 2 2 2h10c1.103 0 2-0.897 2-2v-7.879c0-0.526-0.214-1.042-0.586-1.414zM10.879 2l0.121 0.024v2.976h-6v-3h5.879zM11 14h-6v-4h6v4zM14 13c0 0.551-0.448 1-1 1h-1v-4.5c0-0.276-0.224-0.5-0.5-0.5h-7c-0.276 0-0.5 0.224-0.5 0.5v4.5h-1c-0.552 0-1-0.449-1-1v-10c0-0.551 0.448-1 1-1h1v3.5c0 0.276 0.224 0.5 0.5 0.5h7c0.276 0 0.5-0.224 0.5-0.5v-2.793l1.707 1.707c0.187 0.186 0.293 0.444 0.293 0.707v7.879z"></path>
</svg>
