<svg version="1.1" xmlns="http://www.w3.org/2000/svg" width="16" height="16" viewBox="0 0 16 16">
<title>scissors</title>
<path d="M10.707 8l5.146-5.146c0.143-0.143 0.186-0.358 0.108-0.545-0.076-0.187-0.259-0.309-0.461-0.309h-1.515c-1.736 0-3.369 0.676-4.596 1.904l-2.389 2.389-2.108-2.108c0.063-0.219 0.108-0.446 0.108-0.685 0-1.378-1.122-2.5-2.5-2.5s-2.5 1.122-2.5 2.5 1.122 2.5 2.5 2.5c0.764 0 1.44-0.352 1.899-0.894l1.942 1.942c-0.355 0.595-0.355 1.308 0 1.903l-1.942 1.942c-0.459-0.541-1.135-0.893-1.899-0.893-1.378 0-2.5 1.122-2.5 2.5s1.122 2.5 2.5 2.5 2.5-1.122 2.5-2.5c0-0.239-0.045-0.466-0.108-0.685l2.108-2.108 2.389 2.389c1.228 1.228 2.86 1.904 4.596 1.904h1.515c0.202 0 0.385-0.122 0.462-0.309 0.078-0.187 0.035-0.402-0.108-0.545l-5.147-5.146zM2.5 5c-0.827 0-1.5-0.673-1.5-1.5s0.673-1.5 1.5-1.5 1.5 0.673 1.5 1.5-0.673 1.5-1.5 1.5zM2.5 14c-0.827 0-1.5-0.673-1.5-1.5s0.673-1.5 1.5-1.5 1.5 0.673 1.5 1.5-0.673 1.5-1.5 1.5zM10.096 4.611c1.039-1.039 2.42-1.611 3.889-1.611h0.308l-4.293 4.293-0.646-0.647c-0.235-0.235-0.52-0.387-0.82-0.473l1.562-1.562zM13.985 13c-1.469 0-2.85-0.572-3.889-1.611l-2.742-2.743c-0.375-0.375-0.375-0.918 0-1.293 0.187-0.186 0.417-0.28 0.646-0.28s0.459 0.094 0.646 0.281l5.647 5.646h-0.308z"></path>
</svg>
