<svg version="1.1" xmlns="http://www.w3.org/2000/svg" width="16" height="16" viewBox="0 0 16 16">
<title>send-o</title>
<path d="M14.831 1.126c-0.139-0.124-0.336-0.159-0.511-0.093l-13 5c-0.172 0.067-0.294 0.223-0.316 0.406s0.058 0.364 0.209 0.47l3.787 2.651v4.94c0 0.202 0.122 0.385 0.309 0.462l0.191 0.038c0.13 0 0.258-0.051 0.354-0.146l2.764-2.761 2.595 1.816c0.086 0.061 0.185 0.091 0.287 0.091l0.175-0.031c0.154-0.058 0.271-0.188 0.311-0.348l3-12c0.044-0.181-0.015-0.372-0.155-0.495zM5.589 8.752l-3.032-2.123 9.555-3.675-6.523 5.798zM6 13.294v-3.034l1.786 1.25-1.786 1.784zM11.191 12.674l-4.76-3.333 7.191-6.391-2.431 9.724z"></path>
</svg>
