<svg version="1.1" xmlns="http://www.w3.org/2000/svg" width="16" height="16" viewBox="0 0 16 16">
<title>send</title>
<path d="M14.831 1.125c-0.139-0.123-0.336-0.159-0.511-0.092l-13 5c-0.172 0.066-0.294 0.223-0.316 0.406s0.058 0.364 0.209 0.47l3.109 2.176c0.167-0.304 0.388-0.578 0.67-0.791l6.206-4.693c0.221-0.167 0.534-0.123 0.7 0.097 0.167 0.22 0.123 0.534-0.097 0.701l-6.205 4.693c-0.374 0.282-0.596 0.729-0.596 1.196v4.212c0 0.202 0.122 0.385 0.309 0.462l0.191 0.038c0.13 0 0.258-0.051 0.354-0.146l2.765-2.761 2.595 1.816c0.135 0.096 0.307 0.115 0.462 0.060 0.154-0.058 0.271-0.188 0.311-0.348l3-12c0.043-0.181-0.016-0.372-0.156-0.496z"></path>
</svg>
