<svg version="1.1" xmlns="http://www.w3.org/2000/svg" width="16" height="16" viewBox="0 0 16 16">
<title>sequence</title>
<path d="M4.5 6h-0.5v-3.5c0-0.276-0.224-0.5-0.5-0.5h-1c-0.276 0-0.5 0.224-0.5 0.5s0.224 0.5 0.5 0.5h0.5v3h-0.5c-0.276 0-0.5 0.224-0.5 0.5s0.224 0.5 0.5 0.5h2c0.276 0 0.5-0.224 0.5-0.5s-0.224-0.5-0.5-0.5z"></path>
<path d="M14.854 10.146c-0.195-0.195-0.512-0.195-0.707 0l-2.147 2.147v-9.793c0-0.276-0.224-0.5-0.5-0.5s-0.5 0.224-0.5 0.5v9.793l-2.146-2.146c-0.195-0.195-0.512-0.195-0.707 0s-0.195 0.512 0 0.707l2.999 2.999c0.046 0.046 0.102 0.083 0.163 0.109s0.126 0.038 0.191 0.038 0.13-0.013 0.191-0.038c0.062-0.025 0.117-0.062 0.163-0.109l2.999-2.999c0.196-0.196 0.196-0.512 0.001-0.708z"></path>
<path d="M3.5 12c0.827 0 1.5-0.673 1.5-1.5s-0.673-1.5-1.5-1.5h-1c-0.276 0-0.5 0.224-0.5 0.5s0.224 0.5 0.5 0.5h1c0.275 0 0.5 0.224 0.5 0.5s-0.225 0.5-0.5 0.5c-0.827 0-1.5 0.673-1.5 1.5v1c0 0.276 0.224 0.5 0.5 0.5h2c0.276 0 0.5-0.224 0.5-0.5s-0.224-0.5-0.5-0.5h-1.5v-0.5c0-0.276 0.225-0.5 0.5-0.5z"></path>
</svg>
