<svg version="1.1" xmlns="http://www.w3.org/2000/svg" width="16" height="16" viewBox="0 0 16 16">
<title>server-new</title>
<path d="M6.5 13h-4.5v-11h12v4.5c0 0.276 0.224 0.5 0.5 0.5s0.5-0.224 0.5-0.5v0-4.5c0-0.552-0.448-1-1-1v0h-12c-0.552 0-1 0.448-1 1v0 11c0 0.552 0.448 1 1 1v0h4.5c0.276 0 0.5-0.224 0.5-0.5s-0.224-0.5-0.5-0.5v0z"></path>
<path d="M4 3.5c0 0.276-0.224 0.5-0.5 0.5s-0.5-0.224-0.5-0.5c0-0.276 0.224-0.5 0.5-0.5s0.5 0.224 0.5 0.5z"></path>
<path d="M6 3.5c0 0.276-0.224 0.5-0.5 0.5s-0.5-0.224-0.5-0.5c0-0.276 0.224-0.5 0.5-0.5s0.5 0.224 0.5 0.5z"></path>
<path d="M12.5 3h-3c-0.276 0-0.5 0.224-0.5 0.5s0.224 0.5 0.5 0.5v0h3c0.276 0 0.5-0.224 0.5-0.5s-0.224-0.5-0.5-0.5v0z"></path>
<path d="M13 5.5c0-0.276-0.224-0.5-0.5-0.5v0h-9c-0.276 0-0.5 0.224-0.5 0.5s0.224 0.5 0.5 0.5v0h9c0.276 0 0.5-0.224 0.5-0.5v0z"></path>
<path d="M6.5 9h-3c-0.276 0-0.5 0.224-0.5 0.5s0.224 0.5 0.5 0.5v0h3c0.276 0 0.5-0.224 0.5-0.5s-0.224-0.5-0.5-0.5v0z"></path>
<path d="M4 7.5c0 0.276-0.224 0.5-0.5 0.5s-0.5-0.224-0.5-0.5c0-0.276 0.224-0.5 0.5-0.5s0.5 0.224 0.5 0.5z"></path>
<path d="M6 7.5c0 0.276-0.224 0.5-0.5 0.5s-0.5-0.224-0.5-0.5c0-0.276 0.224-0.5 0.5-0.5s0.5 0.224 0.5 0.5z"></path>
<path d="M4 11.5c0 0.276-0.224 0.5-0.5 0.5s-0.5-0.224-0.5-0.5c0-0.276 0.224-0.5 0.5-0.5s0.5 0.224 0.5 0.5z"></path>
<path d="M6 11.5c0 0.276-0.224 0.5-0.5 0.5s-0.5-0.224-0.5-0.5c0-0.276 0.224-0.5 0.5-0.5s0.5 0.224 0.5 0.5z"></path>
<path d="M15.348 13.567l-1.848-1.067 1.848-1.067c0.149-0.088 0.247-0.248 0.247-0.431 0-0.276-0.224-0.5-0.5-0.5-0.091 0-0.176 0.024-0.25 0.067l0.002-0.001-1.848 1.067v-2.134c0-0.276-0.224-0.5-0.5-0.5s-0.5 0.224-0.5 0.5v0 2.134l-1.848-1.067c-0.071-0.041-0.156-0.065-0.247-0.065-0.276 0-0.5 0.224-0.5 0.5 0 0.183 0.098 0.343 0.245 0.43l0.002 0.001 1.848 1.067-1.848 1.067c-0.15 0.088-0.25 0.249-0.25 0.433 0 0.276 0.224 0.5 0.5 0.5v0c0 0 0.001 0 0.002 0 0.092 0 0.177-0.025 0.251-0.068l-0.002 0.001 1.848-1.067v2.134c0 0.276 0.224 0.5 0.5 0.5s0.5-0.224 0.5-0.5v0-2.134l1.848 1.067c0.071 0.042 0.157 0.067 0.248 0.067 0.001 0 0.001 0 0.002 0h-0c0.276-0 0.5-0.224 0.5-0.5 0-0.184-0.099-0.345-0.248-0.432l-0.002-0.001z"></path>
</svg>
