<svg version="1.1" xmlns="http://www.w3.org/2000/svg" width="16" height="16" viewBox="0 0 16 16">
<title>server-play</title>
<path d="M6.5 13h-4.5v-11h12v4.5c0 0.276 0.224 0.5 0.5 0.5s0.5-0.224 0.5-0.5v0-4.5c0-0.552-0.448-1-1-1v0h-12c-0.552 0-1 0.448-1 1v0 11c0 0.552 0.448 1 1 1v0h4.5c0.276 0 0.5-0.224 0.5-0.5s-0.224-0.5-0.5-0.5v0z"></path>
<path d="M4 3.5c0 0.276-0.224 0.5-0.5 0.5s-0.5-0.224-0.5-0.5c0-0.276 0.224-0.5 0.5-0.5s0.5 0.224 0.5 0.5z"></path>
<path d="M6 3.5c0 0.276-0.224 0.5-0.5 0.5s-0.5-0.224-0.5-0.5c0-0.276 0.224-0.5 0.5-0.5s0.5 0.224 0.5 0.5z"></path>
<path d="M12.5 3h-3c-0.276 0-0.5 0.224-0.5 0.5s0.224 0.5 0.5 0.5v0h3c0.276 0 0.5-0.224 0.5-0.5s-0.224-0.5-0.5-0.5v0z"></path>
<path d="M13 5.5c0-0.276-0.224-0.5-0.5-0.5v0h-9c-0.276 0-0.5 0.224-0.5 0.5s0.224 0.5 0.5 0.5v0h9c0.276 0 0.5-0.224 0.5-0.5v0z"></path>
<path d="M6.5 9h-3c-0.276 0-0.5 0.224-0.5 0.5s0.224 0.5 0.5 0.5v0h3c0.276 0 0.5-0.224 0.5-0.5s-0.224-0.5-0.5-0.5v0z"></path>
<path d="M4 7.5c0 0.276-0.224 0.5-0.5 0.5s-0.5-0.224-0.5-0.5c0-0.276 0.224-0.5 0.5-0.5s0.5 0.224 0.5 0.5z"></path>
<path d="M6 7.5c0 0.276-0.224 0.5-0.5 0.5s-0.5-0.224-0.5-0.5c0-0.276 0.224-0.5 0.5-0.5s0.5 0.224 0.5 0.5z"></path>
<path d="M4 11.5c0 0.276-0.224 0.5-0.5 0.5s-0.5-0.224-0.5-0.5c0-0.276 0.224-0.5 0.5-0.5s0.5 0.224 0.5 0.5z"></path>
<path d="M6 11.5c0 0.276-0.224 0.5-0.5 0.5s-0.5-0.224-0.5-0.5c0-0.276 0.224-0.5 0.5-0.5s0.5 0.224 0.5 0.5z"></path>
<path d="M15.724 12.553l-5-2.5c-0.065-0.033-0.142-0.053-0.224-0.053-0.276 0-0.5 0.224-0.5 0.5v0 5c0 0.276 0.224 0.5 0.5 0.5 0.082 0 0.159-0.020 0.227-0.054l-0.003 0.001 5-2.5c0.165-0.084 0.276-0.253 0.276-0.447s-0.111-0.363-0.273-0.446l-0.003-0.001zM11 14.691v-3.382l3.382 1.691z"></path>
</svg>
