<svg version="1.1" xmlns="http://www.w3.org/2000/svg" width="16" height="16" viewBox="0 0 16 16">
<title>server-wrench</title>
<path d="M6.5 13h-4.5v-11h12v4.5c0 0.276 0.224 0.5 0.5 0.5s0.5-0.224 0.5-0.5v0-4.5c0-0.552-0.448-1-1-1v0h-12c-0.552 0-1 0.448-1 1v0 11c0 0.552 0.448 1 1 1v0h4.5c0.276 0 0.5-0.224 0.5-0.5s-0.224-0.5-0.5-0.5v0z"></path>
<path d="M4 3.5c0 0.276-0.224 0.5-0.5 0.5s-0.5-0.224-0.5-0.5c0-0.276 0.224-0.5 0.5-0.5s0.5 0.224 0.5 0.5z"></path>
<path d="M6 3.5c0 0.276-0.224 0.5-0.5 0.5s-0.5-0.224-0.5-0.5c0-0.276 0.224-0.5 0.5-0.5s0.5 0.224 0.5 0.5z"></path>
<path d="M12.5 3h-3c-0.276 0-0.5 0.224-0.5 0.5s0.224 0.5 0.5 0.5v0h3c0.276 0 0.5-0.224 0.5-0.5s-0.224-0.5-0.5-0.5v0z"></path>
<path d="M13 5.5c0-0.276-0.224-0.5-0.5-0.5v0h-9c-0.276 0-0.5 0.224-0.5 0.5s0.224 0.5 0.5 0.5v0h9c0.276 0 0.5-0.224 0.5-0.5v0z"></path>
<path d="M6.5 9h-3c-0.276 0-0.5 0.224-0.5 0.5s0.224 0.5 0.5 0.5v0h3c0.276 0 0.5-0.224 0.5-0.5s-0.224-0.5-0.5-0.5v0z"></path>
<path d="M4 7.5c0 0.276-0.224 0.5-0.5 0.5s-0.5-0.224-0.5-0.5c0-0.276 0.224-0.5 0.5-0.5s0.5 0.224 0.5 0.5z"></path>
<path d="M6 7.5c0 0.276-0.224 0.5-0.5 0.5s-0.5-0.224-0.5-0.5c0-0.276 0.224-0.5 0.5-0.5s0.5 0.224 0.5 0.5z"></path>
<path d="M4 11.5c0 0.276-0.224 0.5-0.5 0.5s-0.5-0.224-0.5-0.5c0-0.276 0.224-0.5 0.5-0.5s0.5 0.224 0.5 0.5z"></path>
<path d="M6 11.5c0 0.276-0.224 0.5-0.5 0.5s-0.5-0.224-0.5-0.5c0-0.276 0.224-0.5 0.5-0.5s0.5 0.224 0.5 0.5z"></path>
<path d="M15.948 10.007c-0.027-0.111-0.126-0.193-0.244-0.193-0.069 0-0.132 0.028-0.178 0.074v0l-1.435 1.435c-0.045 0.045-0.108 0.073-0.177 0.073s-0.132-0.028-0.177-0.073v0l-1.060-1.060c-0.045-0.045-0.073-0.108-0.073-0.177s0.028-0.132 0.073-0.177v0l1.435-1.435c0.046-0.045 0.074-0.108 0.074-0.178 0-0.118-0.081-0.217-0.191-0.244l-0.002-0c-0.149-0.033-0.32-0.052-0.495-0.052-0.295 0-0.578 0.053-0.84 0.151l0.017-0.005c-0.713 0.263-1.266 0.816-1.523 1.511l-0.006 0.018c-0.092 0.245-0.146 0.529-0.146 0.825 0 0.273 0.045 0.535 0.129 0.779l-0.005-0.017c0.009 0.024 0.014 0.053 0.014 0.082 0 0.068-0.027 0.129-0.071 0.174l-2.731 2.731c-0.2 0.19-0.324 0.458-0.324 0.755 0 0.245 0.084 0.47 0.226 0.647l-0.002-0.002c0.185 0.215 0.457 0.351 0.761 0.351 0.276 0 0.526-0.112 0.707-0.293l2.774-2.774c0.045-0.044 0.106-0.071 0.174-0.071 0.029 0 0.058 0.005 0.084 0.015l-0.002-0.001c0.228 0.079 0.49 0.124 0.763 0.124 0.296 0 0.58-0.054 0.842-0.151l-0.017 0.005c0.713-0.263 1.266-0.816 1.523-1.511l0.006-0.018c0.093-0.246 0.148-0.531 0.148-0.829 0-0.174-0.018-0.343-0.053-0.506l0.003 0.016z"></path>
</svg>
