<svg version="1.1" xmlns="http://www.w3.org/2000/svg" width="16" height="16" viewBox="0 0 16 16">
<title>server-lock</title>
<path d="M6.5 13h-4.5v-11h12v4.5c0 0.276 0.224 0.5 0.5 0.5s0.5-0.224 0.5-0.5v0-4.5c0-0.552-0.448-1-1-1v0h-12c-0.552 0-1 0.448-1 1v0 11c0 0.552 0.448 1 1 1v0h4.5c0.276 0 0.5-0.224 0.5-0.5s-0.224-0.5-0.5-0.5v0z"></path>
<path d="M4 3.5c0 0.276-0.224 0.5-0.5 0.5s-0.5-0.224-0.5-0.5c0-0.276 0.224-0.5 0.5-0.5s0.5 0.224 0.5 0.5z"></path>
<path d="M6 3.5c0 0.276-0.224 0.5-0.5 0.5s-0.5-0.224-0.5-0.5c0-0.276 0.224-0.5 0.5-0.5s0.5 0.224 0.5 0.5z"></path>
<path d="M12.5 3h-3c-0.276 0-0.5 0.224-0.5 0.5s0.224 0.5 0.5 0.5v0h3c0.276 0 0.5-0.224 0.5-0.5s-0.224-0.5-0.5-0.5v0z"></path>
<path d="M13 5.5c0-0.276-0.224-0.5-0.5-0.5v0h-9c-0.276 0-0.5 0.224-0.5 0.5s0.224 0.5 0.5 0.5v0h9c0.276 0 0.5-0.224 0.5-0.5v0z"></path>
<path d="M6.5 9h-3c-0.276 0-0.5 0.224-0.5 0.5s0.224 0.5 0.5 0.5v0h3c0.276 0 0.5-0.224 0.5-0.5s-0.224-0.5-0.5-0.5v0z"></path>
<path d="M4 7.5c0 0.276-0.224 0.5-0.5 0.5s-0.5-0.224-0.5-0.5c0-0.276 0.224-0.5 0.5-0.5s0.5 0.224 0.5 0.5z"></path>
<path d="M6 7.5c0 0.276-0.224 0.5-0.5 0.5s-0.5-0.224-0.5-0.5c0-0.276 0.224-0.5 0.5-0.5s0.5 0.224 0.5 0.5z"></path>
<path d="M4 11.5c0 0.276-0.224 0.5-0.5 0.5s-0.5-0.224-0.5-0.5c0-0.276 0.224-0.5 0.5-0.5s0.5 0.224 0.5 0.5z"></path>
<path d="M6 11.5c0 0.276-0.224 0.5-0.5 0.5s-0.5-0.224-0.5-0.5c0-0.276 0.224-0.5 0.5-0.5s0.5 0.224 0.5 0.5z"></path>
<path d="M15 12v-1c0-1.105-0.895-2-2-2s-2 0.895-2 2v0 1c-0.552 0-1 0.448-1 1v0 2c0 0.552 0.448 1 1 1v0h4c0.552 0 1-0.448 1-1v0-2c0-0.552-0.448-1-1-1v0zM12 11c0-0.552 0.448-1 1-1s1 0.448 1 1v0 1h-2zM15 15h-4v-2h4z"></path>
</svg>
