<svg version="1.1" xmlns="http://www.w3.org/2000/svg" width="16" height="16" viewBox="0 0 16 16">
<title>share-square</title>
<path d="M13 1h-10c-1.103 0-2 0.897-2 2v10c0 1.103 0.897 2 2 2h10c1.103 0 2-0.897 2-2v-10c0-1.103-0.897-2-2-2zM12.854 6.854l-3 3c-0.098 0.097-0.226 0.146-0.354 0.146s-0.256-0.049-0.354-0.146c-0.195-0.195-0.195-0.512 0-0.707l2.147-2.147-4.851-0.003c-1.351 0.029-2.442 1.139-2.442 2.498 0 0.668 0.26 1.296 0.732 1.768 0.195 0.194 0.195 0.512 0 0.707-0.098 0.098-0.226 0.146-0.354 0.146s-0.256-0.049-0.354-0.146c-0.66-0.66-1.024-1.539-1.024-2.475 0-1.93 1.57-3.5 3.5-3.5l0.062 0.004h4.729l-2.145-2.145c-0.195-0.195-0.195-0.512 0-0.707s0.512-0.195 0.707 0l3 3c0.196 0.195 0.196 0.511 0.001 0.707z"></path>
</svg>
