<svg version="1.1" xmlns="http://www.w3.org/2000/svg" width="16" height="16" viewBox="0 0 16 16">
<title>share-square-o</title>
<path d="M14.5 9c-0.276 0-0.5 0.224-0.5 0.5v3.5c0 0.551-0.449 1-1 1h-10c-0.551 0-1-0.449-1-1v-10c0-0.551 0.449-1 1-1h4.5c0.276 0 0.5-0.224 0.5-0.5s-0.224-0.5-0.5-0.5h-4.5c-1.103 0-2 0.897-2 2v10c0 1.103 0.897 2 2 2h10c1.103 0 2-0.897 2-2v-3.5c0-0.276-0.224-0.5-0.5-0.5zM8 3.995c-2.206 0-4 1.794-4 4 0 1.069 0.416 2.073 1.171 2.829 0.098 0.098 0.226 0.146 0.354 0.146s0.256-0.049 0.354-0.146c0.195-0.195 0.195-0.512 0-0.707-0.567-0.567-0.879-1.32-0.879-2.122 0-1.632 1.311-2.965 2.935-3l0.065 0.005h5.293l-2.146 2.146c-0.195 0.195-0.195 0.512 0 0.707 0.097 0.098 0.225 0.147 0.353 0.147s0.256-0.049 0.354-0.146l3-3c0.195-0.195 0.195-0.512 0-0.707l-3-3c-0.195-0.195-0.512-0.195-0.707 0s-0.195 0.512 0 0.707l2.146 2.146-5.293-0.005z"></path>
</svg>
