<svg version="1.1" xmlns="http://www.w3.org/2000/svg" width="16" height="16" viewBox="0 0 16 16">
<title>share2</title>
<path d="M12 9c-0.992 0-1.867 0.49-2.413 1.234l-2.73-1.365c0.084-0.277 0.143-0.565 0.143-0.869s-0.059-0.592-0.144-0.869l2.73-1.365c0.547 0.744 1.422 1.234 2.414 1.234 1.654 0 3-1.346 3-3s-1.346-3-3-3-3 1.346-3 3c0 0.304 0.059 0.592 0.144 0.869l-2.73 1.365c-0.547-0.744-1.422-1.234-2.414-1.234-1.654 0-3 1.346-3 3s1.346 3 3 3c0.992 0 1.867-0.49 2.413-1.234l2.73 1.365c-0.084 0.277-0.143 0.565-0.143 0.869 0 1.654 1.346 3 3 3s3-1.346 3-3-1.346-3-3-3zM12 2c1.103 0 2 0.897 2 2s-0.897 2-2 2-2-0.897-2-2 0.897-2 2-2zM4 10c-1.103 0-2-0.897-2-2s0.897-2 2-2 2 0.897 2 2-0.897 2-2 2zM12 14c-1.103 0-2-0.897-2-2s0.897-2 2-2 2 0.897 2 2-0.897 2-2 2z"></path>
</svg>
