<svg version="1.1" xmlns="http://www.w3.org/2000/svg" width="16" height="16" viewBox="0 0 16 16">
<title>share</title>
<path d="M14.834 6.628l-5-4.5c-0.146-0.132-0.357-0.163-0.538-0.085-0.18 0.081-0.296 0.26-0.296 0.457v2.51h-1.5c-3.949 0-6.5 2.155-6.5 5.49v2.988c0 0.268 0.21 0.487 0.477 0.499l0.023 0.001c0.257 0 0.474-0.195 0.498-0.454 0.238-2.585 2.378-4.534 4.976-4.534h2.026v2.5c0 0.197 0.116 0.376 0.296 0.457 0.181 0.079 0.391 0.047 0.538-0.085l5-4.5c0.106-0.096 0.166-0.23 0.166-0.372s-0.060-0.276-0.166-0.372zM10 10.377v-1.877c0-0.276-0.224-0.5-0.5-0.5h-2.526c-2.069 0-3.895 1.030-4.974 2.63v-0.13c0-3.311 2.841-4.49 5.5-4.49h2c0.276 0 0.5-0.224 0.5-0.5v-1.887l3.752 3.377-3.752 3.377z"></path>
</svg>
