<svg version="1.1" xmlns="http://www.w3.org/2000/svg" width="16" height="16" viewBox="0 0 16 16">
<title>sheqel</title>
<path d="M9 6.5v3c0 0.276 0.224 0.5 0.5 0.5s0.5-0.224 0.5-0.5v-3c0-2.481-2.019-4.5-4.5-4.5h-2c-0.276 0-0.5 0.224-0.5 0.5v11c0 0.276 0.224 0.5 0.5 0.5s0.5-0.224 0.5-0.5v-10.5h1.5c1.93 0 3.5 1.57 3.5 3.5zM12.5 2c-0.276 0-0.5 0.224-0.5 0.5v7c0 1.93-1.57 3.5-3.5 3.5h-1.5v-6.5c0-0.276-0.224-0.5-0.5-0.5s-0.5 0.224-0.5 0.5v7c0 0.276 0.224 0.5 0.5 0.5h2c2.481 0 4.5-2.019 4.5-4.5v-7c0-0.276-0.224-0.5-0.5-0.5z"></path>
</svg>
