<svg version="1.1" xmlns="http://www.w3.org/2000/svg" width="16" height="16" viewBox="0 0 16 16">
<title>shield</title>
<path d="M15 3.5c0-0.276-0.224-0.5-0.5-0.5v0c-3.134 0-5.339-1.42-6.062-2.74-0.094-0.146-0.255-0.241-0.438-0.241s-0.344 0.095-0.437 0.239l-0.001 0.002c-0.723 1.32-2.928 2.74-6.062 2.74-0.276 0-0.5 0.224-0.5 0.5v0l-0.007 4.344c0.024 2.629 1.439 4.922 3.543 6.182l0.033 0.018 3.176 1.886c0.073 0.044 0.161 0.070 0.255 0.070s0.182-0.026 0.257-0.071l-0.002 0.001 3.176-1.888c2.138-1.278 3.552-3.571 3.576-6.197l0-0.003zM10.92 13.184l-2.92 1.734-2.92-1.734c-1.854-1.089-3.080-3.070-3.087-5.338v-0.001l0.007-3.857c2.363-0.006 4.493-1.003 5.996-2.596l0.004-0.004c1.507 1.597 3.637 2.593 5.999 2.6h0.001v3.856c-0.004 2.268-1.229 4.249-3.051 5.323l-0.029 0.016z"></path>
</svg>
