<svg version="1.1" xmlns="http://www.w3.org/2000/svg" width="16" height="16" viewBox="0 0 16 16">
<title>ship</title>
<path d="M4.025 13.658c0.088 0.262 0.371 0.403 0.633 0.316s0.403-0.37 0.316-0.632l-1.83-5.492 4.856-1.263v6.913c0 0.276 0.224 0.5 0.5 0.5s0.5-0.224 0.5-0.5v-6.913l4.856 1.262-1.831 5.492c-0.087 0.262 0.055 0.545 0.316 0.632l0.159 0.027c0.209 0 0.404-0.132 0.475-0.342l2-6c0.044-0.131 0.031-0.275-0.035-0.397s-0.18-0.21-0.313-0.245l-1.627-0.422v-1.594c0-1.103-0.897-2-2-2h-1v-2.5c0-0.276-0.224-0.5-0.5-0.5h-2c-0.276 0-0.5 0.224-0.5 0.5v2.5h-1c-1.103 0-2 0.897-2 2v1.594l-1.626 0.422c-0.134 0.035-0.247 0.124-0.313 0.245s-0.080 0.266-0.036 0.397l2 6zM8 1h1v2h-1v-2zM5 5c0-0.551 0.448-1 1-1h5c0.552 0 1 0.449 1 1v1.334l-2.997-0.779c-0.328-0.086-0.678-0.086-1.006 0l-2.997 0.779v-1.334zM14.831 14.125c-0.206-0.182-0.523-0.165-0.706 0.043-0.335 0.38-0.889 0.832-1.625 0.832s-1.29-0.452-1.625-0.831c-0.189-0.215-0.561-0.215-0.75 0-0.335 0.379-0.889 0.831-1.625 0.831s-1.29-0.452-1.625-0.831c-0.189-0.215-0.561-0.215-0.75 0-0.335 0.379-0.889 0.831-1.625 0.831s-1.29-0.452-1.625-0.831c-0.184-0.207-0.5-0.226-0.706-0.043-0.207 0.183-0.227 0.499-0.044 0.706 1.213 1.373 3.057 1.52 4.375 0.373 1.189 1.033 2.811 1.033 4 0 0.595 0.515 1.29 0.795 2 0.795 0.865 0 1.709-0.415 2.375-1.169 0.183-0.207 0.163-0.523-0.044-0.706z"></path>
</svg>
