<svg version="1.1" xmlns="http://www.w3.org/2000/svg" width="16" height="16" viewBox="0 0 16 16">
<title>shopping-bag</title>
<path d="M14.5 5h-3.5v-1c0-1.657-1.343-3-3-3s-3 1.343-3 3v0 1h-3.5c-0.276 0-0.5 0.224-0.5 0.5v0 9c0 0.276 0.224 0.5 0.5 0.5v0h13c0.276 0 0.5-0.224 0.5-0.5v0-9c0-0.276-0.224-0.5-0.5-0.5v0zM6 4c0-1.105 0.895-2 2-2s2 0.895 2 2v0 1h-4zM14 14h-12v-8h12z"></path>
<path d="M6 7.5c0 0.276-0.224 0.5-0.5 0.5s-0.5-0.224-0.5-0.5c0-0.276 0.224-0.5 0.5-0.5s0.5 0.224 0.5 0.5z"></path>
<path d="M11 7.5c0 0.276-0.224 0.5-0.5 0.5s-0.5-0.224-0.5-0.5c0-0.276 0.224-0.5 0.5-0.5s0.5 0.224 0.5 0.5z"></path>
</svg>
