<svg version="1.1" xmlns="http://www.w3.org/2000/svg" width="16" height="16" viewBox="0 0 16 16">
<title>shopping-basket</title>
<path d="M15.5 6h-0.982c-0.015 0-0.029 0-0.043 0h-2.475v-2c0-1.105-0.895-2-2-2v0h-4c-1.105 0-2 0.895-2 2v0 2h-3.5c-0.276 0-0.5 0.224-0.5 0.5s0.224 0.5 0.5 0.5v0h0.623l1.585 5.55c0.25 0.842 1.015 1.447 1.923 1.45h6.738c0.908-0.003 1.673-0.608 1.919-1.436l0.004-0.014 1.585-5.55h0.623c0.276 0 0.5-0.224 0.5-0.5s-0.224-0.5-0.5-0.5v0zM5 4c0-0.552 0.448-1 1-1v0h4c0.552 0 1 0.448 1 1v0 2h-6zM12.33 12.274c-0.123 0.422-0.507 0.726-0.961 0.726h-6.738c-0.454-0-0.838-0.304-0.959-0.719l-0.002-0.007-1.507-5.274h11.674z"></path>
<path d="M6.475 8c-0.276 0-0.5 0.224-0.5 0.5v0 3c0 0.276 0.224 0.5 0.5 0.5s0.5-0.224 0.5-0.5v0-3c0-0.276-0.224-0.5-0.5-0.5v0z"></path>
<path d="M9.475 8c-0.276 0-0.5 0.224-0.5 0.5v0 3c0 0.276 0.224 0.5 0.5 0.5s0.5-0.224 0.5-0.5v0-3c0-0.276-0.224-0.5-0.5-0.5v0z"></path>
</svg>
