<svg version="1.1" xmlns="http://www.w3.org/2000/svg" width="16" height="16" viewBox="0 0 16 16">
<title>shopping-cart</title>
<path d="M15.712 4.347c-0.158-0.212-0.408-0.347-0.69-0.347-0.008 0-0.015 0-0.023 0l0.001-0h-12.11l-0.284-1.136c-0.136-0.495-0.578-0.854-1.105-0.864l-0.001-0h-1c-0.276 0-0.5 0.224-0.5 0.5s0.224 0.5 0.5 0.5v0h1c0.061 0.012 0.11 0.051 0.136 0.105l0 0.001 1.758 7.030c0.136 0.495 0.578 0.854 1.105 0.864l0.001 0h8.5c0.52-0.014 0.958-0.346 1.129-0.807l0.003-0.009 1.684-5.052c0.032-0.087 0.051-0.187 0.051-0.292 0-0.184-0.058-0.355-0.157-0.495l0.002 0.003zM13.184 9.868c-0.038 0.069-0.104 0.118-0.182 0.132l-0.002 0h-8.5c-0.061-0.012-0.11-0.052-0.136-0.105l-0-0.001-1.224-4.894h11.666z"></path>
<path d="M6 13c0 0.552-0.448 1-1 1s-1-0.448-1-1c0-0.552 0.448-1 1-1s1 0.448 1 1z"></path>
<path d="M13 13c0 0.552-0.448 1-1 1s-1-0.448-1-1c0-0.552 0.448-1 1-1s1 0.448 1 1z"></path>
</svg>
