<svg version="1.1" xmlns="http://www.w3.org/2000/svg" width="16" height="16" viewBox="0 0 16 16">
<title>shower</title>
<path d="M14.9 8.2l-2.4-3.2c-0.368-0.483-0.898-0.826-1.507-0.949l-0.016-0.003c-0.24-2.282-2.152-4.045-4.477-4.048h-1c-2.484 0.003-4.497 2.016-4.5 4.5v10c0 0.276 0.224 0.5 0.5 0.5s0.5-0.224 0.5-0.5v0-10c0-1.933 1.567-3.5 3.5-3.5v0h1c1.776 0.002 3.242 1.325 3.47 3.039l0.002 0.018c-0.604 0.136-1.114 0.473-1.467 0.937l-0.005 0.006-2.4 3.2c-0.062 0.083-0.1 0.187-0.1 0.3 0 0.276 0.224 0.5 0.5 0.5h8c0.276 0 0.5-0.224 0.5-0.5 0-0.113-0.038-0.217-0.101-0.301l0.001 0.001zM7.5 8l1.8-2.4c0.288-0.345 0.719-0.563 1.2-0.563s0.912 0.218 1.198 0.561l0.002 0.002 1.8 2.4z"></path>
<path d="M13.5 10c-0.276 0-0.5 0.224-0.5 0.5v0 1c0 0.276 0.224 0.5 0.5 0.5s0.5-0.224 0.5-0.5v0-1c0-0.276-0.224-0.5-0.5-0.5v0z"></path>
<path d="M13.5 13c-0.276 0-0.5 0.224-0.5 0.5v0 1c0 0.276 0.224 0.5 0.5 0.5s0.5-0.224 0.5-0.5v0-1c0-0.276-0.224-0.5-0.5-0.5v0z"></path>
<path d="M10.5 10c-0.276 0-0.5 0.224-0.5 0.5v0 1c0 0.276 0.224 0.5 0.5 0.5s0.5-0.224 0.5-0.5v0-1c0-0.276-0.224-0.5-0.5-0.5v0z"></path>
<path d="M10.5 13c-0.276 0-0.5 0.224-0.5 0.5v0 1c0 0.276 0.224 0.5 0.5 0.5s0.5-0.224 0.5-0.5v0-1c0-0.276-0.224-0.5-0.5-0.5v0z"></path>
<path d="M7.5 10c-0.276 0-0.5 0.224-0.5 0.5v0 1c0 0.276 0.224 0.5 0.5 0.5s0.5-0.224 0.5-0.5v0-1c0-0.276-0.224-0.5-0.5-0.5v0z"></path>
<path d="M7.5 13c-0.276 0-0.5 0.224-0.5 0.5v0 1c0 0.276 0.224 0.5 0.5 0.5s0.5-0.224 0.5-0.5v0-1c0-0.276-0.224-0.5-0.5-0.5v0z"></path>
</svg>
