<svg version="1.1" xmlns="http://www.w3.org/2000/svg" width="16" height="16" viewBox="0 0 16 16">
<title>sign-in</title>
<path d="M13 1h-5c-1.105 0-2 0.895-2 2v0 1.5c0 0.276 0.224 0.5 0.5 0.5s0.5-0.224 0.5-0.5v0-1.5c0-0.552 0.448-1 1-1v0h5c0.552 0 1 0.448 1 1v0 10c0 0.552-0.448 1-1 1v0h-5c-0.552 0-1-0.448-1-1v0-1.5c0-0.276-0.224-0.5-0.5-0.5s-0.5 0.224-0.5 0.5v0 1.5c0 1.105 0.895 2 2 2v0h5c1.105 0 2-0.895 2-2v0-10c0-1.105-0.895-2-2-2v0z"></path>
<path d="M8.47 10.47c-0.147 0.137-0.239 0.332-0.239 0.549 0 0.414 0.336 0.75 0.75 0.75 0.216 0 0.411-0.092 0.548-0.238l0-0 3-3c0.136-0.136 0.22-0.323 0.22-0.53s-0.084-0.394-0.22-0.53l-3-3c-0.134-0.125-0.313-0.201-0.511-0.201-0.414 0-0.75 0.336-0.75 0.75 0 0.198 0.077 0.378 0.202 0.512l-0-0 1.719 1.72h-9.189c-0.414 0-0.75 0.336-0.75 0.75s0.336 0.75 0.75 0.75v0h9.189z"></path>
</svg>
