<svg version="1.1" xmlns="http://www.w3.org/2000/svg" width="16" height="16" viewBox="0 0 16 16">
<title>sign-language</title>
<path d="M5 5.5c0 0.276 0.224 0.5 0.5 0.5s0.5-0.224 0.5-0.5v0-4c0-0.276 0.224-0.5 0.5-0.5s0.5 0.224 0.5 0.5v0 4c0 0.276 0.224 0.5 0.5 0.5s0.5-0.224 0.5-0.5v0-3c0-0.276 0.224-0.5 0.5-0.5s0.5 0.224 0.5 0.5v0 3c0 0.276 0.224 0.5 0.5 0.5s0.5-0.224 0.5-0.5v0-3c0-0.828-0.672-1.5-1.5-1.5v0c-0.201 0-0.393 0.041-0.568 0.114l0.010-0.004c-0.175-0.644-0.754-1.109-1.442-1.109s-1.267 0.465-1.44 1.099l-0.002 0.010c-0.165-0.069-0.357-0.11-0.558-0.11h-0c-0.828 0-1.5 0.672-1.5 1.5v0 3.379l-0.439-0.44c-0.272-0.272-0.647-0.439-1.061-0.439-0.829 0-1.5 0.672-1.5 1.5 0 0.414 0.168 0.789 0.439 1.061l2.707 2.706c0.090 0.087 0.212 0.14 0.347 0.14 0.276 0 0.5-0.224 0.5-0.5 0-0.135-0.054-0.258-0.14-0.348l-2.707-2.706c-0.091-0.091-0.147-0.216-0.147-0.354 0-0.276 0.224-0.501 0.501-0.501 0.138 0 0.263 0.056 0.354 0.147l1.292 1.293c0.091 0.091 0.216 0.147 0.354 0.147 0.276 0 0.5-0.224 0.5-0.5v0-4.586c0-0.276 0.224-0.5 0.5-0.5s0.5 0.224 0.5 0.5v0z"></path>
<path d="M15.561 9.267c-0.133-0.13-0.29-0.236-0.464-0.309l-0.010-0.004c0.129-0.216 0.206-0.476 0.206-0.754 0-0.412-0.168-0.785-0.439-1.054l-0-0c-0.271-0.255-0.638-0.411-1.041-0.411-0.277 0-0.537 0.074-0.761 0.203l0.007-0.004c-0.229-0.554-0.765-0.937-1.39-0.937-0.413 0-0.787 0.167-1.059 0.437l0-0-2.611 2.616v-0.55c0-0.828-0.672-1.5-1.5-1.5s-1.5 0.672-1.5 1.5v0 5c0 0.276 0.224 0.5 0.5 0.5s0.5-0.224 0.5-0.5v0-5c0-0.276 0.224-0.5 0.5-0.5s0.5 0.224 0.5 0.5v0 1.829c0 0.276 0.224 0.5 0.5 0.5v0c0.228-0.002 0.419-0.158 0.473-0.37l0.001-0.003c0.038-0.019 0.071-0.042 0.101-0.067l-0.001 0 3.243-3.243c0.091-0.090 0.215-0.146 0.354-0.146 0.276 0 0.5 0.224 0.5 0.5 0 0.138-0.056 0.263-0.147 0.354l-2.124 2.121c-0.087 0.090-0.14 0.212-0.14 0.347 0 0.276 0.224 0.5 0.5 0.5 0.135 0 0.258-0.054 0.348-0.14l2.829-2.827c0.091-0.088 0.216-0.142 0.353-0.142s0.262 0.054 0.353 0.142l-0-0c0.090 0.090 0.146 0.215 0.146 0.354s-0.056 0.263-0.146 0.354v0l-0.7 0.705-2.12 2.12c-0.094 0.091-0.153 0.219-0.153 0.36 0 0.276 0.224 0.5 0.5 0.5 0.141 0 0.269-0.058 0.36-0.152l2.121-2.121c0.091-0.091 0.216-0.147 0.354-0.147 0.276 0 0.5 0.224 0.5 0.5 0 0.138-0.056 0.263-0.146 0.354v0l-4.465 4.464c-0.091 0.091-0.147 0.216-0.147 0.354 0 0.276 0.224 0.5 0.5 0.5 0.138 0 0.263-0.056 0.354-0.146v0l4.465-4.465c0.27-0.271 0.437-0.645 0.437-1.058 0-0.415-0.168-0.79-0.441-1.062l-0-0z"></path>
</svg>
