<svg id="Layer_1" data-name="Layer 1" xmlns="http://www.w3.org/2000/svg" width="16" height="16" viewBox="0 0 16 16"><path d="M9.757,5.071a.5.5,0,0,0-.686.172L8,7.028,6.929,5.243a.5.5,0,1,0-.858.514L7.417,8,6.071,10.243a.5.5,0,0,0,.858.514L8,8.972l1.071,1.785a.5.5,0,0,0,.858-.514L8.583,8,9.929,5.757A.5.5,0,0,0,9.757,5.071Z"/><path d="M4.757,5.071a.5.5,0,0,0-.686.172L3,7.028,1.929,5.243a.5.5,0,1,0-.858.514L2.417,8,1.071,10.243a.5.5,0,0,0,.858.514L3,8.972l1.071,1.785a.5.5,0,1,0,.858-.514L3.583,8,4.929,5.757A.5.5,0,0,0,4.757,5.071Z"/><path d="M15.5,10H13V5.5a.5.5,0,0,0-1,0v5a.5.5,0,0,0,.5.5h3a.5.5,0,0,0,0-1Z"/></svg>