<svg id="Layer_1" data-name="Layer 1" xmlns="http://www.w3.org/2000/svg" width="16" height="16" viewBox="0 0 16 16"><path d="M12.091,7.957l-1.754-.833A.582.582,0,0,1,10,6.572.6.6,0,0,1,10.625,6h.75A.6.6,0,0,1,12,6.572a.5.5,0,0,0,1,0A1.6,1.6,0,0,0,11.375,5h-.75A1.61,1.61,0,0,0,9,6.617a1.578,1.578,0,0,0,.909,1.411l1.754.832A.591.591,0,0,1,12,9.429a.6.6,0,0,1-.625.571h-.75A.6.6,0,0,1,10,9.429a.5.5,0,0,0-1,0A1.6,1.6,0,0,0,10.625,11h.75A1.613,1.613,0,0,0,13,9.367,1.555,1.555,0,0,0,12.091,7.957Z"/><path d="M6.757,5.072a.5.5,0,0,0-.686.171L5,7.028,3.929,5.243a.5.5,0,0,0-.858.515L4.417,8,3.071,10.243a.5.5,0,0,0,.858.514L5,8.972l1.071,1.785a.5.5,0,1,0,.858-.514L5.583,8,6.929,5.758A.5.5,0,0,0,6.757,5.072Z"/></svg>