<svg version="1.1" xmlns="http://www.w3.org/2000/svg" width="16" height="16" viewBox="0 0 16 16">
<title>sliders</title>
<path d="M0.5 5h7.55c0.24 1.151 1.245 2.002 2.45 2.002s2.21-0.852 2.447-1.986l0.003-0.016h2.55c0.276 0 0.5-0.224 0.5-0.5s-0.224-0.5-0.5-0.5v0h-2.55c-0.24-1.151-1.245-2.002-2.45-2.002s-2.21 0.852-2.447 1.986l-0.003 0.016h-7.55c-0.276 0-0.5 0.224-0.5 0.5s0.224 0.5 0.5 0.5v0zM10.5 3c0.828 0 1.5 0.672 1.5 1.5s-0.672 1.5-1.5 1.5c-0.828 0-1.5-0.672-1.5-1.5v0c0-0.828 0.672-1.5 1.5-1.5v0z"></path>
<path d="M15.5 11h-7.55c-0.24-1.151-1.245-2.002-2.45-2.002s-2.21 0.852-2.447 1.986l-0.003 0.016h-2.55c-0.276 0-0.5 0.224-0.5 0.5s0.224 0.5 0.5 0.5v0h2.55c0.24 1.151 1.245 2.002 2.45 2.002s2.21-0.852 2.447-1.986l0.003-0.016h7.55c0.276 0 0.5-0.224 0.5-0.5s-0.224-0.5-0.5-0.5v0zM5.5 13c-0.828 0-1.5-0.672-1.5-1.5s0.672-1.5 1.5-1.5c0.828 0 1.5 0.672 1.5 1.5v0c0 0.828-0.672 1.5-1.5 1.5v0z"></path>
</svg>
