<svg version="1.1" xmlns="http://www.w3.org/2000/svg" width="16" height="16" viewBox="0 0 16 16">
<title>smile-o</title>
<path d="M8 0c-4.411 0-8 3.589-8 8s3.589 8 8 8 8-3.589 8-8-3.589-8-8-8zM8 15c-3.859 0-7-3.14-7-7s3.141-7 7-7 7 3.14 7 7-3.141 7-7 7zM10.615 9.681c-0.705 0.851-1.634 1.319-2.615 1.319s-1.91-0.468-2.615-1.319c-0.176-0.214-0.491-0.242-0.704-0.066-0.212 0.176-0.242 0.492-0.065 0.704 0.897 1.084 2.099 1.681 3.384 1.681s2.487-0.597 3.385-1.681c0.177-0.212 0.146-0.528-0.065-0.704-0.215-0.176-0.529-0.147-0.705 0.066z"></path>
<path d="M6 6c0 0.552-0.448 1-1 1s-1-0.448-1-1c0-0.552 0.448-1 1-1s1 0.448 1 1z"></path>
<path d="M12 6c0 0.552-0.448 1-1 1s-1-0.448-1-1c0-0.552 0.448-1 1-1s1 0.448 1 1z"></path>
</svg>
