<svg version="1.1" xmlns="http://www.w3.org/2000/svg" width="16" height="16" viewBox="0 0 16 16">
<title>snowflake</title>
<path d="M15.346 9.735l-1.932 0.518c-0.386 0.104-0.791 0.051-1.138-0.15l-2.776-1.603 2.776-1.603c0.348-0.201 0.751-0.254 1.139-0.15l1.932 0.518c0.043 0.012 0.087 0.017 0.13 0.017 0.221 0 0.423-0.147 0.482-0.371 0.071-0.267-0.087-0.541-0.354-0.612l-1.931-0.518c-0.116-0.031-0.232-0.054-0.349-0.068 0.047-0.108 0.085-0.22 0.116-0.334l0.518-1.932c0.071-0.267-0.087-0.541-0.354-0.612-0.265-0.070-0.541 0.087-0.612 0.354l-0.518 1.932c-0.102 0.381-0.357 0.713-0.699 0.911l-2.776 1.602v-3.305c0-0.401 0.156-0.778 0.439-1.061l1.414-1.414c0.195-0.195 0.195-0.512 0-0.707s-0.512-0.195-0.707 0l-1.414 1.414c-0.084 0.084-0.162 0.173-0.232 0.267-0.070-0.094-0.148-0.183-0.232-0.267l-1.414-1.415c-0.195-0.195-0.512-0.195-0.707 0s-0.195 0.512 0 0.707l1.414 1.414c0.283 0.284 0.439 0.661 0.439 1.062v3.305l-2.776-1.603c-0.342-0.197-0.597-0.529-0.699-0.91l-0.518-1.933c-0.071-0.267-0.346-0.424-0.612-0.353s-0.425 0.346-0.353 0.612l0.518 1.932c0.030 0.115 0.068 0.226 0.115 0.335-0.116 0.014-0.233 0.036-0.348 0.068l-1.932 0.517c-0.267 0.072-0.425 0.346-0.353 0.613 0.060 0.224 0.262 0.371 0.482 0.371 0.043 0 0.086-0.005 0.13-0.017l1.932-0.518c0.386-0.104 0.791-0.051 1.138 0.15l2.776 1.602-2.776 1.603c-0.348 0.201-0.752 0.253-1.139 0.15l-1.931-0.518c-0.266-0.070-0.541 0.087-0.612 0.354s0.087 0.541 0.354 0.612l1.931 0.518c0.116 0.031 0.232 0.054 0.349 0.068-0.047 0.108-0.085 0.22-0.116 0.334l-0.518 1.932c-0.071 0.267 0.087 0.541 0.354 0.612 0.043 0.012 0.087 0.017 0.13 0.017 0.221 0 0.423-0.147 0.482-0.371l0.518-1.932c0.102-0.381 0.357-0.713 0.699-0.911l2.775-1.602v3.305c0 0.401-0.156 0.778-0.439 1.061l-1.414 1.414c-0.195 0.195-0.195 0.512 0 0.707s0.512 0.195 0.707 0l1.414-1.414c0.084-0.084 0.162-0.173 0.232-0.267 0.070 0.094 0.148 0.183 0.232 0.267l1.414 1.414c0.098 0.098 0.226 0.147 0.354 0.147s0.256-0.049 0.354-0.146c0.195-0.195 0.195-0.512 0-0.707l-1.414-1.414c-0.284-0.284-0.44-0.661-0.44-1.062v-3.305l2.776 1.603c0.342 0.197 0.597 0.529 0.699 0.911l0.518 1.932c0.060 0.224 0.262 0.371 0.482 0.371 0.043 0 0.086-0.005 0.13-0.017 0.267-0.071 0.425-0.346 0.354-0.612l-0.518-1.932c-0.031-0.114-0.069-0.226-0.116-0.334 0.117-0.014 0.233-0.037 0.349-0.068l1.932-0.518c0.267-0.071 0.425-0.346 0.354-0.612-0.072-0.269-0.347-0.425-0.614-0.355z"></path>
</svg>
