<svg version="1.1" xmlns="http://www.w3.org/2000/svg" width="16" height="16" viewBox="0 0 16 16">
<title>soccer-ball-o</title>
<path d="M8.287 5.449c-0.17-0.12-0.396-0.123-0.567-0.005l-2.378 1.608c-0.181 0.122-0.262 0.347-0.198 0.557l0.908 3.034c0.062 0.212 0.258 0.357 0.478 0.357h2.939c0.22 0 0.414-0.144 0.479-0.354l0.908-2.975c0.062-0.207-0.015-0.432-0.191-0.556l-2.378-1.666zM8 0c-4.411 0-8 3.589-8 8s3.589 8 8 8 8-3.589 8-8-3.589-8-8-8zM11.007 11.639c-0.217 0-0.408 0.14-0.476 0.346l-0.916 2.82c-0.519 0.123-1.058 0.195-1.615 0.195s-1.096-0.072-1.615-0.196l-0.916-2.82c-0.067-0.206-0.259-0.346-0.476-0.346h-2.961c-0.557-0.909-0.912-1.952-1.003-3.071l2.4-1.744c0.175-0.127 0.248-0.352 0.181-0.558l-0.915-2.818c0.706-0.821 1.595-1.48 2.607-1.904l2.404 1.747c0.088 0.063 0.19 0.095 0.294 0.095s0.206-0.032 0.294-0.096l2.404-1.747c1.013 0.425 1.901 1.083 2.607 1.904l-0.915 2.819c-0.066 0.206 0.007 0.432 0.182 0.559l2.4 1.744c-0.091 1.119-0.446 2.162-1.003 3.071h-2.962z"></path>
</svg>
