<svg version="1.1" xmlns="http://www.w3.org/2000/svg" width="16" height="16" viewBox="0 0 16 16">
<title>sort-numeric-desc</title>
<path d="M14.5 1h-3c-0.276 0-0.5 0.224-0.5 0.5v3c0 0.276 0.224 0.5 0.5 0.5h2.5v1.5c0 0.276 0.224 0.5 0.5 0.5s0.5-0.224 0.5-0.5v-5c0-0.276-0.224-0.5-0.5-0.5zM14 4h-2v-2h2v2zM13.276 9.053l-2 1c-0.247 0.124-0.347 0.424-0.224 0.671 0.124 0.247 0.423 0.346 0.671 0.224l1.277-0.639v4.191c0 0.276 0.224 0.5 0.5 0.5s0.5-0.224 0.5-0.5v-5c0-0.173-0.090-0.334-0.237-0.425s-0.331-0.1-0.487-0.022zM6.146 11.146l-2.146 2.147v-11.793c0-0.276-0.224-0.5-0.5-0.5s-0.5 0.224-0.5 0.5v11.793l-2.146-2.146c-0.195-0.195-0.512-0.195-0.707 0s-0.195 0.512 0 0.707l3 3c0.097 0.097 0.225 0.146 0.353 0.146s0.256-0.049 0.354-0.146l3-3c0.195-0.195 0.195-0.512 0-0.707s-0.512-0.196-0.708-0.001z"></path>
</svg>
