<svg version="1.1" xmlns="http://www.w3.org/2000/svg" width="16" height="16" viewBox="0 0 16 16">
<title>sort-amount-asc</title>
<path d="M15.507 11h-6.007c-0.276 0-0.5 0.224-0.5 0.5s0.224 0.5 0.5 0.5h6.007c0.276 0 0.5-0.224 0.5-0.5s-0.223-0.5-0.5-0.5z"></path>
<path d="M9.5 9h4c0.276 0 0.5-0.224 0.5-0.5s-0.224-0.5-0.5-0.5h-4c-0.276 0-0.5 0.224-0.5 0.5s0.224 0.5 0.5 0.5z"></path>
<path d="M9.5 6h2c0.276 0 0.5-0.224 0.5-0.5s-0.224-0.5-0.5-0.5h-2c-0.276 0-0.5 0.224-0.5 0.5s0.224 0.5 0.5 0.5z"></path>
<path d="M3.854 2.146c-0.195-0.195-0.512-0.195-0.707 0l-3 3c-0.195 0.195-0.195 0.512 0 0.707s0.512 0.195 0.707 0l2.146-2.146v10.793c0 0.276 0.224 0.5 0.5 0.5s0.5-0.224 0.5-0.5v-10.793l2.146 2.146c0.098 0.098 0.226 0.147 0.354 0.147s0.256-0.049 0.354-0.146c0.195-0.195 0.195-0.512 0-0.707l-3-3.001z"></path>
</svg>
