<svg version="1.1" xmlns="http://www.w3.org/2000/svg" width="16" height="16" viewBox="0 0 16 16">
<title>sort-alpha-desc</title>
<path d="M10.5 2h2.117l-2.546 4.243c-0.092 0.154-0.094 0.347-0.007 0.504 0.089 0.156 0.256 0.253 0.436 0.253h3c0.276 0 0.5-0.224 0.5-0.5s-0.224-0.5-0.5-0.5h-2.117l2.546-4.243c0.093-0.155 0.095-0.347 0.007-0.504-0.089-0.156-0.256-0.253-0.436-0.253h-3c-0.276 0-0.5 0.224-0.5 0.5s0.224 0.5 0.5 0.5zM13.5 9h-3c-0.276 0-0.5 0.224-0.5 0.5v5c0 0.276 0.224 0.5 0.5 0.5s0.5-0.224 0.5-0.5v-1.5h2v1.5c0 0.276 0.224 0.5 0.5 0.5s0.5-0.224 0.5-0.5v-5c0-0.276-0.224-0.5-0.5-0.5zM11 12v-2h2v2h-2zM6.146 11.146l-2.146 2.147v-11.793c0-0.276-0.224-0.5-0.5-0.5s-0.5 0.224-0.5 0.5v11.793l-2.146-2.146c-0.195-0.195-0.512-0.195-0.707 0s-0.195 0.512 0 0.707l3 3c0.097 0.097 0.225 0.146 0.353 0.146s0.256-0.049 0.354-0.146l3-3c0.195-0.195 0.195-0.512 0-0.707s-0.512-0.196-0.708-0.001z"></path>
</svg>
