<svg version="1.1" xmlns="http://www.w3.org/2000/svg" width="16" height="16" viewBox="0 0 16 16">
<title>space-shuttle</title>
<path d="M15.433 7.493l-1.898-1.137c-0.389-0.233-0.833-0.356-1.285-0.356h-2.537l-2.835-2.831c-0.755-0.753-1.759-1.169-2.826-1.169h-1.552c-0.276 0-0.5 0.224-0.5 0.5v1.5h-1.5c-0.276 0-0.5 0.224-0.5 0.5v2c0 0.276 0.224 0.5 0.5 0.5h1.5v3h-1.5c-0.276 0-0.5 0.224-0.5 0.5v2c0 0.276 0.224 0.5 0.5 0.5h1.5v1.5c0 0.276 0.224 0.5 0.5 0.5h1.55c1.068 0 2.073-0.416 2.828-1.171l2.829-2.829h2.538c0.457 0 0.904-0.125 1.293-0.361l1.898-1.147c0.355-0.214 0.565-0.588 0.564-1.001s-0.213-0.787-0.567-0.998zM1 6v-1h1v1h-1zM1 12v-1h1v1h-1zM14.919 8.636l-1.898 1.148c-0.234 0.141-0.502 0.216-0.776 0.216h-6.745c-0.276 0-0.5 0.224-0.5 0.5s0.224 0.5 0.5 0.5h2.793l-2.122 2.122c-0.566 0.566-1.319 0.878-2.121 0.878h-1.050v-11h1.052c0.8 0 1.553 0.312 2.12 0.877l2.126 2.123h-2.798c-0.276 0-0.5 0.224-0.5 0.5s0.224 0.5 0.5 0.5h6.75c0.271 0 0.538 0.074 0.771 0.213l1.898 1.138c0.070 0.042 0.081 0.107 0.081 0.142s-0.010 0.1-0.081 0.143zM11.5 7.421c-0.276 0-0.5 0.224-0.5 0.5v1c0 0.276 0.224 0.5 0.5 0.5s0.5-0.224 0.5-0.5v-1c0-0.276-0.224-0.5-0.5-0.5z"></path>
</svg>
