<svg version="1.1" xmlns="http://www.w3.org/2000/svg" width="16" height="16" viewBox="0 0 16 16">
<title>spinner</title>
<path d="M8 4c1.103 0 2-0.897 2-2s-0.897-2-2-2-2 0.897-2 2 0.897 2 2 2zM8 1c0.551 0 1 0.449 1 1s-0.449 1-1 1-1-0.449-1-1 0.449-1 1-1zM12.11 3.636c-0.201-0.19-0.518-0.18-0.707 0.021s-0.18 0.517 0.021 0.707c1.016 0.957 1.576 2.249 1.576 3.636 0 2.757-2.243 5-5 5s-5-2.243-5-5c0-1.387 0.56-2.679 1.576-3.636 0.201-0.189 0.21-0.506 0.021-0.707s-0.506-0.211-0.707-0.021c-1.219 1.149-1.89 2.698-1.89 4.364 0 3.309 2.691 6 6 6s6-2.691 6-6c0-1.666-0.671-3.215-1.89-4.364z"></path>
</svg>
