<svg version="1.1" xmlns="http://www.w3.org/2000/svg" width="16" height="16" viewBox="0 0 16 16">
<title>spoon</title>
<path d="M8.5 0c-1.654 0-3 1.794-3 4.005 0 1.080 0.354 2.1 1.018 2.896l0.187 0.196c0.195 0.187 0.295 0.491 0.295 0.903v6.5c0 0.827 0.673 1.5 1.5 1.5s1.5-0.673 1.5-1.5v-6.5c0-0.412 0.1-0.716 0.313-0.921l0.189-0.202c0.644-0.772 0.998-1.792 0.998-2.877 0-2.206-1.346-4-3-4zM9.756 6.213l-0.152 0.161c-0.401 0.383-0.604 0.931-0.604 1.626v6.5c0 0.276-0.225 0.5-0.5 0.5s-0.5-0.224-0.5-0.5v-6.5c0-0.695-0.203-1.243-0.587-1.608l-0.148-0.155c-0.486-0.584-0.765-1.398-0.765-2.237 0-1.626 0.916-3 2-3s2 1.374 2 3.005c0 0.834-0.279 1.648-0.744 2.208z"></path>
</svg>
