<svg version="1.1" xmlns="http://www.w3.org/2000/svg" width="16" height="16" viewBox="0 0 16 16">
<title>star-half-o</title>
<path d="M15.311 6.347c-0.067-0.207-0.259-0.347-0.477-0.347h-4.856l-1.502-4.653c-0.134-0.413-0.818-0.413-0.952 0l-1.502 4.653h-4.856c-0.218 0-0.41 0.14-0.477 0.347-0.066 0.207 0.008 0.433 0.185 0.56l3.927 2.821-1.501 4.617c-0.067 0.206 0.006 0.432 0.182 0.559 0.176 0.128 0.412 0.128 0.588 0l3.93-2.855 3.93 2.855c0.088 0.064 0.191 0.096 0.294 0.096s0.206-0.032 0.294-0.096c0.175-0.127 0.249-0.353 0.182-0.559l-1.501-4.618 3.927-2.821c0.177-0.127 0.251-0.353 0.185-0.559zM10.319 9.128c-0.177 0.127-0.251 0.354-0.184 0.561l1.138 3.501-2.979-2.164c-0.088-0.063-0.191-0.095-0.294-0.095v-7.803l1.137 3.525c0.067 0.207 0.259 0.347 0.476 0.347h3.668l-2.962 2.128z"></path>
</svg>
