<svg version="1.1" xmlns="http://www.w3.org/2000/svg" width="16" height="16" viewBox="0 0 16 16">
<title>step-backward</title>
<path d="M11.73 4.057c-0.165-0.086-0.364-0.074-0.518 0.034l-5 3.5c-0.132 0.093-0.212 0.246-0.212 0.409s0.080 0.316 0.213 0.41l5 3.5c0.086 0.060 0.186 0.090 0.287 0.090 0.079 0 0.158-0.019 0.23-0.057 0.166-0.086 0.27-0.256 0.27-0.443v-7c0-0.187-0.104-0.357-0.27-0.443zM11 10.54l-3.628-2.54 3.628-2.54v5.080zM4.5 4c-0.276 0-0.5 0.224-0.5 0.5v7c0 0.276 0.224 0.5 0.5 0.5s0.5-0.224 0.5-0.5v-7c0-0.276-0.224-0.5-0.5-0.5z"></path>
</svg>
