<svg version="1.1" xmlns="http://www.w3.org/2000/svg" width="16" height="16" viewBox="0 0 16 16">
<title>step-forward</title>
<path d="M4.787 4.090c-0.152-0.107-0.353-0.12-0.518-0.033s-0.269 0.256-0.269 0.443v7c0 0.187 0.104 0.357 0.269 0.443 0.073 0.038 0.152 0.057 0.231 0.057 0.101 0 0.201-0.030 0.287-0.090l5-3.5c0.133-0.094 0.213-0.247 0.213-0.41s-0.080-0.316-0.213-0.41l-5-3.5zM5 10.54v-5.080l3.628 2.54-3.628 2.54zM11.5 4c-0.276 0-0.5 0.224-0.5 0.5v7c0 0.276 0.224 0.5 0.5 0.5s0.5-0.224 0.5-0.5v-7c0-0.276-0.224-0.5-0.5-0.5z"></path>
</svg>
