<svg version="1.1" xmlns="http://www.w3.org/2000/svg" width="16" height="16" viewBox="0 0 16 16">
<title>stethoscope</title>
<path d="M14 13.092v-1.592c0-1.378-1.122-2.5-2.5-2.5s-2.5 1.122-2.5 2.5v2c0 0.827-0.673 1.5-1.5 1.5s-1.5-0.673-1.5-1.5v-2.56c0.762-0.132 1.459-0.544 1.957-1.205l2.316-3.075c0.825-1.095 0.956-2.608 0.333-3.856-0.532-1.070-1.499-1.724-2.606-1.791v-0.513c0-0.276-0.224-0.5-0.5-0.5s-0.5 0.224-0.5 0.5v2c0 0.276 0.224 0.5 0.5 0.5s0.5-0.224 0.5-0.5v-0.473c0.719 0.068 1.353 0.502 1.712 1.223 0.455 0.911 0.361 2.014-0.237 2.808l-2.026 2.69c-0.554-0.471-1.236-0.74-1.949-0.74s-1.395 0.269-1.948 0.74l-2.026-2.69c-0.599-0.794-0.693-1.897-0.238-2.808 0.359-0.721 0.993-1.155 1.712-1.223v0.473c0 0.276 0.224 0.5 0.5 0.5s0.5-0.224 0.5-0.5v-2c0-0.276-0.224-0.5-0.5-0.5s-0.5 0.224-0.5 0.5v0.513c-1.107 0.067-2.074 0.721-2.607 1.791-0.622 1.248-0.491 2.761 0.334 3.856l2.316 3.075c0.498 0.661 1.195 1.073 1.957 1.205v2.56c0 1.378 1.122 2.5 2.5 2.5s2.5-1.122 2.5-2.5v-2c0-0.827 0.673-1.5 1.5-1.5s1.5 0.673 1.5 1.5v1.592c-0.581 0.207-1 0.757-1 1.408 0 0.827 0.673 1.5 1.5 1.5s1.5-0.673 1.5-1.5c0-0.651-0.419-1.201-1-1.408zM6.795 9.505c-0.753 0.603-1.838 0.603-2.59 0 0.756-0.622 1.834-0.622 2.59 0zM13.5 15c-0.276 0-0.5-0.224-0.5-0.5s0.224-0.5 0.5-0.5 0.5 0.224 0.5 0.5-0.224 0.5-0.5 0.5z"></path>
</svg>
