<svg version="1.1" xmlns="http://www.w3.org/2000/svg" width="16" height="16" viewBox="0 0 16 16">
<title>street-view</title>
<path d="M8 4.056c1.12 0 2.028-0.908 2.028-2.028s-0.908-2.028-2.028-2.028c-1.12 0-2.028 0.908-2.028 2.028v0c0.002 1.119 0.909 2.026 2.028 2.028h0zM8 1c0.568 0 1.028 0.46 1.028 1.028s-0.46 1.028-1.028 1.028c-0.568 0-1.028-0.46-1.028-1.028v0c0.001-0.568 0.46-1.027 1.028-1.028h0z"></path>
<path d="M5.9 10.773c0.063 0.186 0.1 0.401 0.1 0.625 0 0.003 0 0.005-0 0.008v-0 2.1c0 0.276 0.224 0.5 0.5 0.5v0h3c0.276 0 0.5-0.224 0.5-0.5v0-2.1c-0-0.002-0-0.005-0-0.007 0-0.223 0.037-0.438 0.104-0.639l-0.004 0.014 0.743-2.231c0.099-0.283 0.156-0.609 0.157-0.949v-1.593c0-0.552-0.448-1-1-1v0h-4c-0.552 0-1 0.448-1 1v0 1.593c0 0 0 0 0 0 0 0.339 0.056 0.666 0.16 0.97l-0.006-0.021zM6 6h4v1.593c0 0.003 0 0.005 0 0.008 0 0.223-0.037 0.438-0.104 0.639l0.004-0.014-0.743 2.231c-0.098 0.283-0.156 0.608-0.157 0.947v1.596h-2v-1.6c-0-0.339-0.056-0.665-0.16-0.969l0.006 0.021-0.746-2.226c-0.063-0.186-0.1-0.401-0.1-0.625 0-0.003 0-0.006 0-0.009v0z"></path>
<path d="M11.676 10.6c-0.058-0.025-0.125-0.040-0.196-0.040-0.276 0-0.5 0.224-0.5 0.5 0 0.22 0.143 0.408 0.341 0.474l0.004 0.001c1.034 0.393 1.676 0.952 1.676 1.465 0 0.944-2.138 2-5 2s-5-1.056-5-2c0-0.513 0.642-1.072 1.676-1.461 0.202-0.068 0.344-0.255 0.344-0.475 0-0.276-0.224-0.5-0.5-0.5-0.071 0-0.138 0.015-0.199 0.041l0.003-0.001c-1.477 0.554-2.324 1.427-2.324 2.396 0 1.71 2.58 3 6 3s6-1.29 6-3c0-0.969-0.847-1.842-2.324-2.4z"></path>
</svg>
