<svg version="1.1" xmlns="http://www.w3.org/2000/svg" width="16" height="16" viewBox="0 0 16 16">
<title>strikethrough</title>
<path d="M2.5 8h12c0.276 0 0.5-0.224 0.5-0.5s-0.224-0.5-0.5-0.5h-7.018c-0.938-0.47-1.482-0.951-1.482-1.75 0-1.241 1.122-2.25 2.5-2.25 1.1 0 2.059 0.635 2.387 1.58 0.090 0.26 0.371 0.398 0.636 0.308 0.261-0.090 0.399-0.375 0.308-0.636-0.466-1.347-1.805-2.252-3.331-2.252-1.93 0-3.5 1.458-3.5 3.25 0 0.745 0.294 1.302 0.738 1.75h-3.238c-0.276 0-0.5 0.224-0.5 0.5s0.224 0.5 0.5 0.5zM11.267 9h-1.75c0.939 0.47 1.483 0.951 1.483 1.75 0 1.241-1.122 2.25-2.5 2.25-1.1 0-2.059-0.635-2.387-1.58-0.090-0.261-0.373-0.4-0.636-0.308-0.261 0.090-0.399 0.375-0.308 0.636 0.466 1.347 1.805 2.252 3.331 2.252 1.93 0 3.5-1.458 3.5-3.25 0-0.744-0.29-1.303-0.733-1.75z"></path>
</svg>
