<svg version="1.1" xmlns="http://www.w3.org/2000/svg" width="16" height="16" viewBox="0 0 16 16">
<title>suitcase</title>
<path d="M14 3h-3.002v-1c0-1.103-0.897-2-2-2h-2c-1.103 0-2 0.897-2 2v1h-2.998c-1.103 0-2 0.897-2 2v7c0 1.103 0.897 2 2 2h12c1.103 0 2-0.897 2-2v-7c0-1.103-0.897-2-2-2zM5.998 2c0-0.551 0.448-1 1-1h2c0.552 0 1 0.449 1 1v1h-4v-1zM2 13c-0.552 0-1-0.449-1-1v-7c0-0.551 0.448-1 1-1h1v9h-1zM4 13v-9h8v9h-8zM15 12c0 0.551-0.448 1-1 1h-1v-9h1c0.552 0 1 0.449 1 1v7zM8.5 6h-1c-0.276 0-0.5 0.224-0.5 0.5s0.224 0.5 0.5 0.5h1c0.276 0 0.5-0.224 0.5-0.5s-0.224-0.5-0.5-0.5z"></path>
</svg>
