<svg version="1.1" xmlns="http://www.w3.org/2000/svg" width="16" height="16" viewBox="0 0 16 16">
<title>sun-o</title>
<path d="M8.5 5c-1.933 0-3.5 1.567-3.5 3.5s1.567 3.5 3.5 3.5c1.933 0 3.5-1.567 3.5-3.5v0c0-1.933-1.567-3.5-3.5-3.5v0zM8.5 11c-1.381 0-2.5-1.119-2.5-2.5s1.119-2.5 2.5-2.5c1.381 0 2.5 1.119 2.5 2.5v0c0 1.381-1.119 2.5-2.5 2.5v0z"></path>
<path d="M8.5 13c-0.276 0-0.5 0.224-0.5 0.5v0 2c0 0.276 0.224 0.5 0.5 0.5s0.5-0.224 0.5-0.5v0-2c0-0.276-0.224-0.5-0.5-0.5v0z"></path>
<path d="M8.5 4c0.276 0 0.5-0.224 0.5-0.5v0-2c0-0.276-0.224-0.5-0.5-0.5s-0.5 0.224-0.5 0.5v0 2c0 0.276 0.224 0.5 0.5 0.5v0z"></path>
<path d="M4 8.5c0-0.276-0.224-0.5-0.5-0.5v0h-2c-0.276 0-0.5 0.224-0.5 0.5s0.224 0.5 0.5 0.5v0h2c0.276 0 0.5-0.224 0.5-0.5v0z"></path>
<path d="M15.5 8h-2c-0.276 0-0.5 0.224-0.5 0.5s0.224 0.5 0.5 0.5v0h2c0.276 0 0.5-0.224 0.5-0.5s-0.224-0.5-0.5-0.5v0z"></path>
<path d="M4.611 5.318c0.090 0.090 0.215 0.146 0.354 0.146s0.263-0.056 0.354-0.146v0c0.090-0.090 0.146-0.215 0.146-0.354s-0.056-0.263-0.146-0.354v0l-1.418-1.411c-0.083-0.062-0.187-0.1-0.3-0.1-0.276 0-0.5 0.224-0.5 0.5 0 0.113 0.038 0.217 0.101 0.301l-0.001-0.001z"></path>
<path d="M12.389 11.682c-0.091-0.094-0.219-0.153-0.36-0.153-0.276 0-0.5 0.224-0.5 0.5 0 0.141 0.058 0.269 0.152 0.36l0 0 1.418 1.411c0.083 0.062 0.187 0.1 0.3 0.1 0.276 0 0.5-0.224 0.5-0.5 0-0.113-0.038-0.217-0.101-0.301l0.001 0.001z"></path>
<path d="M12.036 5.465c0.138-0 0.263-0.056 0.353-0.147l0-0 1.411-1.418c0.122-0.092 0.2-0.237 0.2-0.4 0-0.276-0.224-0.5-0.5-0.5-0.163 0-0.308 0.078-0.399 0.199l-0.001 0.001-1.418 1.411c-0.091 0.091-0.147 0.216-0.147 0.354 0 0.276 0.224 0.5 0.5 0.5 0 0 0.001 0 0.001 0h-0z"></path>
<path d="M4.611 11.682l-1.411 1.418c-0.062 0.083-0.1 0.187-0.1 0.3 0 0.276 0.224 0.5 0.5 0.5 0.113 0 0.217-0.038 0.301-0.101l-0.001 0.001 1.414-1.415c0.094-0.091 0.153-0.219 0.153-0.36 0-0.276-0.224-0.5-0.5-0.5-0.141 0-0.269 0.058-0.36 0.152l-0 0z"></path>
</svg>
