<svg version="1.1" xmlns="http://www.w3.org/2000/svg" width="16" height="16" viewBox="0 0 16 16">
<title>superscript</title>
<path d="M9.832 3.126c-0.205-0.184-0.523-0.165-0.706 0.042l-3.626 4.079-3.626-4.079c-0.184-0.207-0.502-0.226-0.706-0.042-0.206 0.183-0.226 0.5-0.042 0.706l3.705 4.168-3.705 4.168c-0.184 0.206-0.164 0.522 0.042 0.706 0.095 0.084 0.214 0.126 0.332 0.126 0.138 0 0.275-0.057 0.374-0.168l3.626-4.079 3.626 4.079c0.099 0.111 0.236 0.168 0.374 0.168 0.118 0 0.237-0.042 0.332-0.126 0.206-0.183 0.226-0.5 0.042-0.706l-3.705-4.168 3.705-4.168c0.184-0.206 0.164-0.522-0.042-0.706zM14.5 5c0.276 0 0.5-0.224 0.5-0.5v-2c0-0.276-0.224-0.5-0.5-0.5h-2c-0.276 0-0.5 0.224-0.5 0.5s0.224 0.5 0.5 0.5h1.5v1h-1.5c-0.276 0-0.5 0.224-0.5 0.5v2c0 0.276 0.224 0.5 0.5 0.5h2c0.276 0 0.5-0.224 0.5-0.5s-0.224-0.5-0.5-0.5h-1.5v-1h1.5z"></path>
</svg>
