<svg version="1.1" xmlns="http://www.w3.org/2000/svg" width="16" height="16" viewBox="0 0 16 16">
<title>support</title>
<path d="M8 0c-4.418 0-8 3.582-8 8s3.582 8 8 8c4.418 0 8-3.582 8-8v0c-0.005-4.416-3.584-7.995-8-8h-0zM11.159 10.452c0.524-0.669 0.839-1.523 0.839-2.45s-0.316-1.781-0.846-2.459l0.007 0.009 2.129-2.13c1.063 1.22 1.712 2.825 1.712 4.582s-0.648 3.363-1.719 4.59l0.007-0.008zM5 8c0-1.657 1.343-3 3-3s3 1.343 3 3c0 1.657-1.343 3-3 3v0c-1.657 0-3-1.343-3-3v0zM12.581 2.711l-2.13 2.13c-0.669-0.524-1.523-0.84-2.45-0.84s-1.781 0.316-2.459 0.847l0.009-0.007-2.13-2.13c1.219-1.063 2.825-1.711 4.581-1.711s3.362 0.648 4.589 1.718l-0.008-0.007zM2.712 3.418l2.129 2.13c-0.524 0.669-0.839 1.523-0.839 2.45s0.316 1.781 0.846 2.459l-0.007-0.009-2.129 2.13c-1.063-1.22-1.712-2.825-1.712-4.582s0.648-3.362 1.719-4.59l-0.007 0.008zM3.419 13.289l2.13-2.13c0.669 0.524 1.523 0.84 2.45 0.84s1.781-0.316 2.459-0.847l-0.009 0.007 2.13 2.13c-1.219 1.063-2.825 1.711-4.581 1.711s-3.362-0.648-4.589-1.718l0.008 0.007z"></path>
</svg>
