<svg id="Layer_1" data-name="Layer 1" xmlns="http://www.w3.org/2000/svg" width="16" height="16" viewBox="0 0 16 16"><path d="M15.854,4.146l-4-4a.5.5,0,0,0-.708.708l.647.646L10,3.293,8.854,2.146a.5.5,0,0,0-.708.708l.647.646L3.864,8.429a3.04,3.04,0,0,0-.451.577l-1.142,1.9a1,1,0,0,0,.151,1.221l.371.371L.146,15.146a.5.5,0,0,0,.708.708L3.5,13.207l.371.371a1,1,0,0,0,1.221.15l1.9-1.141a3.04,3.04,0,0,0,.577-.451L12.5,7.207l.646.647a.5.5,0,0,0,.708-.708L12.707,6,14.5,4.207l.646.647a.5.5,0,0,0,.708-.708ZM10,8.293l-.646-.647a.5.5,0,0,0-.708.708L9.293,9,8,10.293l-.646-.647a.5.5,0,0,0-.708.708L7.293,11l-.429.429a1.963,1.963,0,0,1-.385.3l-1.9,1.142L3.129,11.422l1.142-1.9a1.963,1.963,0,0,1,.3-.385L9.5,4.207,11.793,6.5Zm2-3L10.707,4,12.5,2.207,13.793,3.5Z"/></svg>