<svg version="1.1" xmlns="http://www.w3.org/2000/svg" width="16" height="16" viewBox="0 0 16 16">
<title>table-new</title>
<path d="M15 2h-14c-0.552 0-1 0.448-1 1v0 8c0 0.552 0.448 1 1 1v0h6.5c0.276 0 0.5-0.224 0.5-0.5s-0.224-0.5-0.5-0.5v0h-3.5v-2h3.5c0.276 0 0.5-0.224 0.5-0.5s-0.224-0.5-0.5-0.5v0h-3.5v-2h5v1.5c0 0.276 0.224 0.5 0.5 0.5s0.5-0.224 0.5-0.5v0-1.5h5v1.5c0 0.276 0.224 0.5 0.5 0.5s0.5-0.224 0.5-0.5v0-4.5c0-0.552-0.448-1-1-1v0zM3 11h-2v-2h2zM3 8h-2v-2h2zM3 5h-2v-2h2zM9 5h-5v-2h5zM15 5h-5v-2h5z"></path>
<path d="M15.531 10.75c-0.088-0.15-0.249-0.25-0.433-0.25-0.092 0-0.178 0.025-0.252 0.068l0.002-0.001-1.848 1.067v-2.134c0-0.276-0.224-0.5-0.5-0.5s-0.5 0.224-0.5 0.5v0 2.134l-1.848-1.067c-0.071-0.041-0.156-0.065-0.247-0.065-0.276 0-0.5 0.224-0.5 0.5 0 0.183 0.098 0.343 0.245 0.43l0.002 0.001 1.848 1.067-1.848 1.067c-0.15 0.088-0.25 0.249-0.25 0.433 0 0.276 0.224 0.5 0.5 0.5v0c0 0 0.001 0 0.002 0 0.092 0 0.177-0.025 0.251-0.068l-0.002 0.001 1.848-1.067v2.134c0 0.276 0.224 0.5 0.5 0.5s0.5-0.224 0.5-0.5v0-2.134l1.848 1.067c0.071 0.042 0.157 0.067 0.248 0.067 0.001 0 0.001 0 0.002 0h-0c0.276-0 0.5-0.224 0.5-0.5 0-0.184-0.099-0.345-0.248-0.432l-0.002-0.001-1.848-1.067 1.848-1.067c0.15-0.088 0.25-0.249 0.25-0.433 0-0.092-0.025-0.178-0.068-0.252l0.001 0.002z"></path>
</svg>
