<svg version="1.1" xmlns="http://www.w3.org/2000/svg" width="16" height="16" viewBox="0 0 16 16">
<title>table-lock</title>
<path d="M15 2h-14c-0.552 0-1 0.448-1 1v0 8c0 0.552 0.448 1 1 1v0h6.5c0.276 0 0.5-0.224 0.5-0.5s-0.224-0.5-0.5-0.5v0h-3.5v-2h3.5c0.276 0 0.5-0.224 0.5-0.5s-0.224-0.5-0.5-0.5v0h-3.5v-2h5v1.5c0 0.276 0.224 0.5 0.5 0.5s0.5-0.224 0.5-0.5v0-1.5h5v1.5c0 0.276 0.224 0.5 0.5 0.5s0.5-0.224 0.5-0.5v0-4.5c0-0.552-0.448-1-1-1v0zM3 11h-2v-2h2zM3 8h-2v-2h2zM3 5h-2v-2h2zM9 5h-5v-2h5zM15 5h-5v-2h5z"></path>
<path d="M15 12v-1c0-1.105-0.895-2-2-2s-2 0.895-2 2v0 1c-0.552 0-1 0.448-1 1v0 2c0 0.552 0.448 1 1 1v0h4c0.552 0 1-0.448 1-1v0-2c0-0.552-0.448-1-1-1v0zM12 11c0-0.552 0.448-1 1-1s1 0.448 1 1v0 1h-2zM15 13v2h-4v-2z"></path>
</svg>
