<svg version="1.1" xmlns="http://www.w3.org/2000/svg" width="16" height="16" viewBox="0 0 16 16">
<title>table-ban</title>
<path d="M12.5 9c-1.933 0-3.5 1.567-3.5 3.5s1.567 3.5 3.5 3.5c1.933 0 3.5-1.567 3.5-3.5v0c0-1.933-1.567-3.5-3.5-3.5v0zM10 12.5c0-1.381 1.119-2.5 2.5-2.5v0c0.001 0 0.001 0 0.002 0 0.512 0 0.988 0.156 1.383 0.423l-0.009-0.006-3.459 3.459c-0.261-0.386-0.417-0.862-0.417-1.374 0-0.001 0-0.001 0-0.002v0zM12.5 15c-0.001 0-0.001 0-0.002 0-0.512 0-0.988-0.156-1.383-0.423l0.009 0.006 3.459-3.459c0.261 0.386 0.417 0.862 0.417 1.374 0 0.001 0 0.001 0 0.002v-0c0 1.381-1.119 2.5-2.5 2.5v0z"></path>
<path d="M15 2h-14c-0.552 0-1 0.448-1 1v0 8c0 0.552 0.448 1 1 1v0h6.5c0.276 0 0.5-0.224 0.5-0.5s-0.224-0.5-0.5-0.5v0h-3.5v-2h3.5c0.276 0 0.5-0.224 0.5-0.5s-0.224-0.5-0.5-0.5v0h-3.5v-2h5v1.5c0 0.276 0.224 0.5 0.5 0.5s0.5-0.224 0.5-0.5v0-1.5h5v1.5c0 0.276 0.224 0.5 0.5 0.5s0.5-0.224 0.5-0.5v0-4.5c0-0.552-0.448-1-1-1v0zM3 11h-2v-2h2zM3 8h-2v-2h2zM3 5h-2v-2h2zM9 5h-5v-2h5zM15 5h-5v-2h5z"></path>
</svg>
