<svg version="1.1" xmlns="http://www.w3.org/2000/svg" width="16" height="16" viewBox="0 0 16 16">
<title>tablet</title>
<path d="M13 0h-9c-1.105 0-2 0.895-2 2v0 12c0 1.105 0.895 2 2 2v0h9c1.105 0 2-0.895 2-2v0-12c0-1.105-0.895-2-2-2v0zM4 1h9c0.552 0 1 0.448 1 1v0h-11c0-0.552 0.448-1 1-1v0zM14 3v8h-11v-8zM13 15h-9c-0.552 0-1-0.448-1-1v0-2h11v2c0 0.552-0.448 1-1 1v0z"></path>
<path d="M9 13.5c0 0.276-0.224 0.5-0.5 0.5s-0.5-0.224-0.5-0.5c0-0.276 0.224-0.5 0.5-0.5s0.5 0.224 0.5 0.5z"></path>
</svg>
