<svg version="1.1" xmlns="http://www.w3.org/2000/svg" width="16" height="16" viewBox="0 0 16 16">
<title>table-play</title>
<path d="M15 2h-14c-0.552 0-1 0.448-1 1v0 8c0 0.552 0.448 1 1 1v0h6.5c0.276 0 0.5-0.224 0.5-0.5s-0.224-0.5-0.5-0.5v0h-3.5v-2h3.5c0.276 0 0.5-0.224 0.5-0.5s-0.224-0.5-0.5-0.5v0h-3.5v-2h5v1.5c0 0.276 0.224 0.5 0.5 0.5s0.5-0.224 0.5-0.5v0-1.5h5v1.5c0 0.276 0.224 0.5 0.5 0.5s0.5-0.224 0.5-0.5v0-4.5c0-0.552-0.448-1-1-1v0zM3 11h-2v-2h2zM3 8h-2v-2h2zM3 5h-2v-2h2zM9 5h-5v-2h5zM15 5h-5v-2h5z"></path>
<path d="M15.724 12.553l-5-2.5c-0.065-0.033-0.142-0.053-0.224-0.053-0.276 0-0.5 0.224-0.5 0.5v0 5c0 0.276 0.224 0.5 0.5 0.5 0.082 0 0.159-0.020 0.227-0.054l-0.003 0.001 5-2.5c0.165-0.084 0.276-0.253 0.276-0.447s-0.111-0.363-0.273-0.446l-0.003-0.001zM11 14.691v-3.382l3.382 1.691z"></path>
</svg>
