<svg version="1.1" xmlns="http://www.w3.org/2000/svg" width="16" height="16" viewBox="0 0 16 16">
<title>table-x</title>
<path d="M15 2h-14c-0.552 0-1 0.448-1 1v0 8c0 0.552 0.448 1 1 1v0h6.5c0.276 0 0.5-0.224 0.5-0.5s-0.224-0.5-0.5-0.5v0h-3.5v-2h3.5c0.276 0 0.5-0.224 0.5-0.5s-0.224-0.5-0.5-0.5v0h-3.5v-2h5v1.5c0 0.276 0.224 0.5 0.5 0.5s0.5-0.224 0.5-0.5v0-1.5h5v1.5c0 0.276 0.224 0.5 0.5 0.5s0.5-0.224 0.5-0.5v0-4.5c0-0.552-0.448-1-1-1v0zM3 11h-2v-2h2zM3 8h-2v-2h2zM3 5h-2v-2h2zM9 5h-5v-2h5zM15 5h-5v-2h5z"></path>
<path d="M14.854 10.146c-0.091-0.091-0.216-0.147-0.354-0.147s-0.263 0.056-0.354 0.147l-1.646 1.646-1.646-1.646c-0.091-0.091-0.216-0.147-0.354-0.147-0.276 0-0.5 0.224-0.5 0.5 0 0.138 0.056 0.263 0.146 0.354v0l1.647 1.647-1.647 1.647c-0.090 0.091-0.146 0.215-0.146 0.354 0 0.276 0.224 0.5 0.5 0.5 0.138 0 0.263-0.056 0.354-0.147l1.646-1.648 1.646 1.647c0.091 0.091 0.216 0.147 0.354 0.147 0.276 0 0.5-0.224 0.5-0.5 0-0.138-0.056-0.263-0.146-0.354v0l-1.647-1.646 1.647-1.646c0.091-0.091 0.147-0.216 0.147-0.354s-0.056-0.263-0.147-0.354l-0-0z"></path>
</svg>
