<svg version="1.1" xmlns="http://www.w3.org/2000/svg" width="16" height="16" viewBox="0 0 16 16">
<title>tachometer</title>
<path d="M11.807 4.105c-0.084-0.065-0.19-0.104-0.306-0.104-0.16 0-0.302 0.075-0.393 0.191l-0.001 0.001-2.97 3.817c-0.040-0.006-0.086-0.010-0.133-0.010-0.002 0-0.003 0-0.005 0h0c-0.552 0-1 0.448-1 1s0.448 1 1 1c0.552 0 1-0.448 1-1v0c0-0.001 0-0.001 0-0.002 0-0.135-0.027-0.264-0.076-0.381l0.002 0.007 2.974-3.816c0.065-0.083 0.104-0.189 0.104-0.305 0-0.161-0.077-0.305-0.195-0.396l-0.001-0.001z"></path>
<path d="M7.5 3h1c0.276 0 0.5-0.224 0.5-0.5s-0.224-0.5-0.5-0.5v0h-1c-0.276 0-0.5 0.224-0.5 0.5s0.224 0.5 0.5 0.5v0z"></path>
<path d="M2.5 7c-0.276 0-0.5 0.224-0.5 0.5v0 1c0 0.276 0.224 0.5 0.5 0.5s0.5-0.224 0.5-0.5v0-1c0-0.276-0.224-0.5-0.5-0.5v0z"></path>
<path d="M13.5 7c-0.276 0-0.5 0.224-0.5 0.5v0 1c0 0.276 0.224 0.5 0.5 0.5s0.5-0.224 0.5-0.5v0-1c0-0.276-0.224-0.5-0.5-0.5v0z"></path>
<path d="M15.9 6.718c-0.608-3.517-3.427-6.226-6.95-6.663l-0.039-0.004c-0.273-0.033-0.59-0.052-0.911-0.052-4.418 0-8 3.582-8 8 0 0 0 0.001 0 0.001v-0c0.006 2.947 1.598 5.521 3.968 6.913l0.038 0.020c0.071 0.042 0.156 0.067 0.247 0.067 0.001 0 0.002 0 0.002 0h-0c0 0 0 0 0 0 0.178 0 0.335-0.093 0.423-0.234l0.001-0.002 0.8-1.292c0.179-0.285 0.493-0.472 0.849-0.472 0.001 0 0.003 0 0.004 0h3.334c0.357 0 0.67 0.187 0.847 0.468l0.002 0.004 0.8 1.292c0.090 0.143 0.246 0.236 0.425 0.236 0.092 0 0.178-0.025 0.253-0.068l-0.002 0.001c2.415-1.406 4.013-3.982 4.013-6.931 0-0.453-0.038-0.898-0.11-1.33l0.006 0.047zM11.9 13.812l-0.539-0.868c-0.356-0.57-0.98-0.944-1.692-0.944-0.001 0-0.002 0-0.002 0h-3.334c-0.002-0-0.005-0-0.008-0-0.711 0-1.336 0.374-1.687 0.936l-0.005 0.008-0.539 0.867c-1.878-1.275-3.096-3.4-3.096-5.81 0-2.070 0.899-3.931 2.327-5.212l0.007-0.006c1.225-1.108 2.857-1.787 4.647-1.787 0.289 0 0.575 0.018 0.855 0.052l-0.034-0.003c3.506 0.415 6.2 3.37 6.2 6.954 0 2.412-1.219 4.538-3.075 5.797l-0.025 0.016z"></path>
</svg>
