<svg version="1.1" xmlns="http://www.w3.org/2000/svg" width="16" height="16" viewBox="0 0 16 16">
<title>tag</title>
<path d="M13.815 7.108l-5.522-5.522c-0.372-0.373-0.888-0.586-1.414-0.586h-3.879c-1.103 0-2 0.897-2 2v3.863c0 0.54 0.223 1.064 0.61 1.439l5.709 5.512c0.376 0.363 0.868 0.561 1.389 0.561h0.039c0.535-0.010 1.035-0.229 1.406-0.616l3.692-3.853c0.748-0.78 0.734-2.034-0.030-2.798zM13.123 9.214l-3.691 3.853c-0.187 0.193-0.436 0.303-0.704 0.308-0.225 0.006-0.521-0.094-0.713-0.281l-5.709-5.511c-0.195-0.187-0.306-0.45-0.306-0.72v-3.863c0-0.551 0.448-1 1-1h3.879c0.263 0 0.521 0.107 0.707 0.293l5.522 5.522c0.382 0.382 0.389 1.009 0.015 1.399z"></path>
<path d="M5 4c0 0.552-0.448 1-1 1s-1-0.448-1-1c0-0.552 0.448-1 1-1s1 0.448 1 1z"></path>
</svg>
