<svg version="1.1" xmlns="http://www.w3.org/2000/svg" width="16" height="16" viewBox="0 0 16 16">
<title>tags</title>
<path d="M11.815 7.108l-4.522-4.522c-0.373-0.373-0.888-0.586-1.414-0.586h-3.879c-1.103 0-2 0.897-2 2v3.861c0 0.542 0.224 1.067 0.615 1.443l4.706 4.518c0.375 0.36 0.865 0.557 1.384 0.557h0.043c0.535-0.011 1.032-0.23 1.402-0.616l3.695-3.856c0.747-0.781 0.734-2.035-0.030-2.799zM11.123 9.214l-3.696 3.856c-0.185 0.193-0.434 0.302-0.701 0.308-0.264-0.009-0.521-0.094-0.713-0.278l-4.705-4.518c-0.196-0.187-0.308-0.451-0.308-0.721v-3.861c0-0.551 0.449-1 1-1h3.879c0.263 0 0.521 0.107 0.707 0.293l4.522 4.522c0.382 0.382 0.389 1.009 0.015 1.399zM15.429 7.078l-4.825-4.928c-0.193-0.198-0.51-0.201-0.707-0.008s-0.2 0.51-0.007 0.708l4.825 4.928c0.187 0.19 0.289 0.443 0.286 0.71s-0.11 0.517-0.301 0.704l-4.552 4.451c-0.197 0.193-0.201 0.51-0.008 0.707 0.098 0.1 0.228 0.15 0.357 0.15 0.126 0 0.252-0.047 0.35-0.143l4.552-4.451c0.381-0.373 0.595-0.873 0.601-1.407s-0.197-1.040-0.571-1.421z"></path>
<path d="M4 5c0 0.552-0.448 1-1 1s-1-0.448-1-1c0-0.552 0.448-1 1-1s1 0.448 1 1z"></path>
</svg>
