<svg version="1.1" xmlns="http://www.w3.org/2000/svg" width="16" height="16" viewBox="0 0 16 16">
<title>tank</title>
<path d="M4 11.5c0 0.276-0.224 0.5-0.5 0.5s-0.5-0.224-0.5-0.5c0-0.276 0.224-0.5 0.5-0.5s0.5 0.224 0.5 0.5z"></path>
<path d="M7 11.5c0 0.276-0.224 0.5-0.5 0.5s-0.5-0.224-0.5-0.5c0-0.276 0.224-0.5 0.5-0.5s0.5 0.224 0.5 0.5z"></path>
<path d="M10 11.5c0 0.276-0.224 0.5-0.5 0.5s-0.5-0.224-0.5-0.5c0-0.276 0.224-0.5 0.5-0.5s0.5 0.224 0.5 0.5z"></path>
<path d="M13 11.5c0 0.276-0.224 0.5-0.5 0.5s-0.5-0.224-0.5-0.5c0-0.276 0.224-0.5 0.5-0.5s0.5 0.224 0.5 0.5z"></path>
<path d="M15.5 4c-0.276 0-0.5 0.224-0.5 0.5v0.5h-5.293l-0.561-0.561c-0.283-0.283-0.66-0.439-1.060-0.439h-0.086v-0.5c0-0.827-0.673-1.5-1.5-1.5h-0.862c-0.827 0-1.5 0.673-1.5 1.5v0.5h-0.638c-0.827 0-1.5 0.673-1.5 1.5v0.586c0 0.4 0.156 0.777 0.439 1.061l0.561 0.56v0.293c-1.654 0-3 1.346-3 3s1.346 3 3 3h10c1.654 0 3-1.346 3-3s-1.346-3-3-3h-2v-1.086c0-0.336-0.116-0.652-0.319-0.914h4.319v0.5c0 0.276 0.224 0.5 0.5 0.5s0.5-0.224 0.5-0.5v-2c0-0.276-0.224-0.5-0.5-0.5zM5.138 3.5c0-0.276 0.224-0.5 0.5-0.5h0.862c0.276 0 0.5 0.224 0.5 0.5v0.5h-1.862v-0.5zM15 11c0 1.103-0.897 2-2 2h-10c-1.103 0-2-0.897-2-2s0.897-2 2-2h10c1.103 0 2 0.897 2 2zM4 8v-0.5c0-0.133-0.053-0.26-0.146-0.354l-0.708-0.707c-0.093-0.093-0.146-0.222-0.146-0.353v-0.586c0-0.276 0.224-0.5 0.5-0.5h4.586c0.131 0 0.26 0.053 0.354 0.146l1.414 1.414c0.093 0.094 0.146 0.223 0.146 0.354v1.086h-6z"></path>
<path d="M7.5 6h-2c-0.276 0-0.5 0.224-0.5 0.5s0.224 0.5 0.5 0.5h2c0.276 0 0.5-0.224 0.5-0.5s-0.224-0.5-0.5-0.5z"></path>
</svg>
