<svg version="1.1" xmlns="http://www.w3.org/2000/svg" width="16" height="16" viewBox="0 0 16 16">
<title>tasks</title>
<path d="M6.146 2.146l-3.646 3.647-1.646-1.647c-0.091-0.091-0.216-0.147-0.354-0.147-0.276 0-0.501 0.224-0.501 0.501 0 0.138 0.056 0.263 0.147 0.354l2 2c0.091 0.091 0.216 0.147 0.354 0.147s0.263-0.056 0.354-0.147l4-4c0.091-0.091 0.147-0.216 0.147-0.354 0-0.276-0.224-0.501-0.501-0.501-0.138 0-0.263 0.056-0.354 0.147v0z"></path>
<path d="M6.146 10.146l-3.646 3.647-1.646-1.647c-0.091-0.091-0.216-0.147-0.354-0.147-0.276 0-0.501 0.224-0.501 0.501 0 0.138 0.056 0.263 0.147 0.354l2 2c0.091 0.091 0.216 0.147 0.354 0.147s0.263-0.056 0.354-0.147l4-4c0.091-0.091 0.147-0.216 0.147-0.354 0-0.276-0.224-0.501-0.501-0.501-0.138 0-0.263 0.056-0.354 0.147v0z"></path>
<path d="M9.5 5h6c0.276 0 0.5-0.224 0.5-0.5s-0.224-0.5-0.5-0.5v0h-6c-0.276 0-0.5 0.224-0.5 0.5s0.224 0.5 0.5 0.5v0z"></path>
<path d="M15.5 12h-6c-0.276 0-0.5 0.224-0.5 0.5s0.224 0.5 0.5 0.5v0h6c0.276 0 0.5-0.224 0.5-0.5s-0.224-0.5-0.5-0.5v0z"></path>
</svg>
