<svg id="Layer_1" data-name="Layer 1" xmlns="http://www.w3.org/2000/svg" width="16" height="16" viewBox="0 0 16 16"><path d="M5.146,6.146,2.485,8.808,1.358,7.651a.5.5,0,0,0-.716.7L2.123,9.868a.537.537,0,0,0,.358.151.5.5,0,0,0,.353-.146l3.02-3.019a.5.5,0,0,0-.708-.708Z"/><path d="M5.146.146,2.485,2.808,1.358,1.651a.5.5,0,0,0-.716.7L2.123,3.868a.649.649,0,0,0,.358.151.5.5,0,0,0,.353-.146L5.854.854A.5.5,0,0,0,5.146.146Z"/><path d="M8.5,2h6a.5.5,0,0,0,0-1h-6a.5.5,0,0,0,0,1Z"/><path d="M14.5,7h-6a.5.5,0,0,0,0,1h6a.5.5,0,0,0,0-1Z"/><path d="M14.5,13h-6a.5.5,0,0,0,0,1h6a.5.5,0,0,0,0-1Z"/><path d="M3,12a2,2,0,1,0,2,2A2,2,0,0,0,3,12Zm0,3a1,1,0,1,1,1-1A1,1,0,0,1,3,15Z"/></svg>