<svg version="1.1" xmlns="http://www.w3.org/2000/svg" width="16" height="16" viewBox="0 0 16 16">
<title>taxi</title>
<path d="M4 10c0 0.552-0.448 1-1 1s-1-0.448-1-1c0-0.552 0.448-1 1-1s1 0.448 1 1z"></path>
<path d="M14 10c0 0.552-0.448 1-1 1s-1-0.448-1-1c0-0.552 0.448-1 1-1s1 0.448 1 1z"></path>
<path d="M14.36 7.036l-1.027-2.739c-0.291-0.776-1.043-1.297-1.872-1.297h-0.461v-1.5c0-0.276-0.224-0.5-0.5-0.5h-5c-0.276 0-0.5 0.224-0.5 0.5v1.5h-0.461c-0.829 0-1.581 0.521-1.872 1.298l-1.027 2.738c-0.931 0.171-1.64 0.985-1.64 1.964v3.5c0 0.276 0.224 0.5 0.5 0.5h0.5v1.5c0 0.276 0.224 0.5 0.5 0.5h3c0.276 0 0.5-0.224 0.5-0.5v-1.5h6v1.5c0 0.276 0.224 0.5 0.5 0.5h3c0.276 0 0.5-0.224 0.5-0.5v-1.5h0.5c0.276 0 0.5-0.224 0.5-0.5v-3.5c0-0.979-0.709-1.793-1.64-1.964zM6 2h4v1h-4v-1zM3.603 4.649c0.146-0.388 0.522-0.649 0.936-0.649h6.922c0.414 0 0.79 0.261 0.937 0.649l0.881 2.351h-10.558l0.882-2.351zM4 14h-2v-1h2v1zM14 14h-2v-1h2v1zM15 12h-14v-3c0-0.552 0.448-1 1-1h12c0.552 0 1 0.448 1 1v3z"></path>
</svg>
