<svg version="1.1" xmlns="http://www.w3.org/2000/svg" width="16" height="16" viewBox="0 0 16 16">
<title>text-height</title>
<path d="M5.147 3.854c0.098 0.098 0.226 0.146 0.353 0.146 0.128 0 0.257-0.049 0.354-0.147 0.195-0.196 0.194-0.513-0.001-0.707l-2.012-2c-0.195-0.194-0.51-0.194-0.705 0l-1.989 1.976c-0.195 0.194-0.196 0.511-0.001 0.707 0.194 0.195 0.511 0.197 0.707 0.002l1.135-1.128v10.571l-1.135-1.128c-0.195-0.194-0.512-0.193-0.707 0.002s-0.194 0.513 0.002 0.707l2.012 2c0.097 0.097 0.225 0.145 0.352 0.145s0.255-0.048 0.353-0.146l1.988-1.976c0.196-0.194 0.197-0.511 0.002-0.707s-0.511-0.197-0.707-0.002l-1.16 1.153v-10.621l1.159 1.153zM15.5 4h-6c-0.276 0-0.5 0.224-0.5 0.5s0.224 0.5 0.5 0.5h2.5v6.5c0 0.276 0.224 0.5 0.5 0.5s0.5-0.224 0.5-0.5v-6.5h2.5c0.276 0 0.5-0.224 0.5-0.5s-0.224-0.5-0.5-0.5z"></path>
</svg>
