<svg id="Layer_1" data-name="Layer 1" xmlns="http://www.w3.org/2000/svg" width="16" height="16" viewBox="0 0 16 16"><path d="M5.967,1.32a.522.522,0,0,0-.934,0l-5,13a.5.5,0,1,0,.934.36L2.382,11H8.618l1.415,3.68A.5.5,0,0,0,10.5,15a.516.516,0,0,0,.18-.033.5.5,0,0,0,.287-.647ZM2.767,10,5.5,2.893,8.233,10Z"/><path d="M15.674,4.3l-1.74-3.044a.519.519,0,0,0-.868,0L11.326,4.3A2.476,2.476,0,0,0,13.476,8h.048a2.476,2.476,0,0,0,2.15-3.7ZM13.524,7h-.048a1.476,1.476,0,0,1-1.282-2.208L13.5,2.508l1.306,2.284A1.476,1.476,0,0,1,13.524,7Z"/></svg>