<svg version="1.1" xmlns="http://www.w3.org/2000/svg" width="16" height="16" viewBox="0 0 16 16">
<title>thermometer</title>
<path d="M8.12 11.141c-0.072-0.033-0.12-0.099-0.12-0.177v-8.464c0-0.276-0.224-0.5-0.5-0.5s-0.5 0.224-0.5 0.5v8.464c0 0.078-0.048 0.144-0.12 0.177-0.517 0.236-0.88 0.754-0.88 1.359 0 0.827 0.673 1.5 1.5 1.5s1.5-0.673 1.5-1.5c0-0.605-0.363-1.123-0.88-1.359z"></path>
<path d="M11.5 5c0.276 0 0.5-0.224 0.5-0.5s-0.224-0.5-0.5-0.5h-1.5v-1h1.5c0.276 0 0.5-0.224 0.5-0.5s-0.224-0.5-0.5-0.5h-1.554c-0.249-1.221-1.387-2.121-2.707-1.987-1.301 0.133-2.239 1.327-2.239 2.635v7.344c0 0.048-0.019 0.093-0.051 0.128-0.607 0.648-0.949 1.5-0.949 2.38 0 1.93 1.57 3.5 3.5 3.5s3.5-1.57 3.5-3.5c0-0.88-0.342-1.732-0.949-2.38-0.032-0.035-0.051-0.080-0.051-0.128v-0.992h1.5c0.276 0 0.5-0.224 0.5-0.5s-0.224-0.5-0.5-0.5h-1.5v-1h1.5c0.276 0 0.5-0.224 0.5-0.5s-0.224-0.5-0.5-0.5h-1.5v-1h1.5zM7.5 15c-1.378 0-2.5-1.122-2.5-2.5 0-0.708 0.296-1.365 0.835-1.85 0.105-0.095 0.165-0.23 0.165-0.372v-7.778c0-0.827 0.673-1.5 1.5-1.5s1.5 0.673 1.5 1.5v7.778c0 0.142 0.060 0.276 0.165 0.372 0.539 0.485 0.835 1.142 0.835 1.85 0 1.378-1.122 2.5-2.5 2.5z"></path>
</svg>
