<svg version="1.1" xmlns="http://www.w3.org/2000/svg" width="16" height="16" viewBox="0 0 16 16">
<title>thumbs-o-down</title>
<path d="M2.1 8.9c-0.1 0.2-0.1 0.4-0.1 0.6 0 0.8 0.7 1.5 1.5 1.5h3.5v2.5c0 0.8 0.7 1.5 1.5 1.5s1.5-0.7 1.5-1.5v-0.5c0-0.8 0.3-1.6 0.9-2.1l0.9-0.9c0.6-0.7 1.3-1 2.1-1h0.6c0.3 0 0.5-0.2 0.5-0.5v-4c0-0.3-0.2-0.5-0.5-0.5h-1c-0.5 0-1-0.2-1.4-0.5l-0.7-0.6c-0.5-0.6-1.2-0.9-2-0.9h-4.9c-0.8 0-1.5 0.7-1.5 1.5 0 0.2 0 0.4 0.1 0.6-0.6 0.1-1.1 0.7-1.1 1.4 0 0.2 0 0.4 0.1 0.6-0.6 0.1-1.1 0.7-1.1 1.4s0.5 1.3 1.1 1.4zM2 7.5c0-0.3 0.2-0.5 0.5-0.5h1c0.3 0 0.5-0.2 0.5-0.5s-0.2-0.5-0.5-0.5c-0.3 0-0.5-0.2-0.5-0.5s0.2-0.5 0.5-0.5h1c0.3 0 0.5-0.2 0.5-0.5s-0.2-0.5-0.5-0.5c-0.3 0-0.5-0.2-0.5-0.5s0.2-0.5 0.5-0.5h4.9c0.5 0 1 0.2 1.4 0.5l0.7 0.6c0.5 0.6 1.2 0.9 2 0.9h0.5v3h-0.1c-1.1 0-2.1 0.4-2.8 1.2l-0.9 0.9c-0.8 0.8-1.2 1.8-1.2 2.9v0.5c0 0.3-0.2 0.5-0.5 0.5s-0.5-0.2-0.5-0.5v-3c0-0.3-0.2-0.5-0.5-0.5h-4c-0.3 0-0.5-0.2-0.5-0.5s0.2-0.5 0.5-0.5c0.3 0 0.5-0.2 0.5-0.5s-0.2-0.5-0.5-0.5h-1c-0.3 0-0.5-0.2-0.5-0.5z"></path>
</svg>
