<svg version="1.1" xmlns="http://www.w3.org/2000/svg" width="16" height="16" viewBox="0 0 16 16">
<title>thumbs-o-up</title>
<path d="M15 8.5c0-0.69-0.469-1.273-1.105-1.447 0.067-0.171 0.105-0.358 0.105-0.553 0-0.827-0.673-1.5-1.5-1.5h-3.5l-0.004-2.5c0-0.827-0.673-1.5-1.5-1.5s-1.5 0.673-1.5 1.504l0.004 0.526c0.005 0.798-0.315 1.578-0.879 2.142l-0.95 0.949c-0.567 0.567-1.32 0.879-2.121 0.879h-0.55c-0.276 0-0.5 0.224-0.5 0.5v4c0 0.276 0.224 0.5 0.5 0.5h1.007c0.512 0 1 0.193 1.372 0.544l0.677 0.639c0.558 0.527 1.289 0.817 2.058 0.817h4.886c0.827 0 1.5-0.673 1.5-1.5 0-0.195-0.038-0.382-0.105-0.553 0.636-0.174 1.105-0.757 1.105-1.447 0-0.195-0.038-0.382-0.105-0.553 0.636-0.174 1.105-0.757 1.105-1.447zM13.5 9h-1c-0.276 0-0.5 0.224-0.5 0.5s0.224 0.5 0.5 0.5 0.5 0.225 0.5 0.5-0.224 0.5-0.5 0.5h-1c-0.276 0-0.5 0.224-0.5 0.5s0.224 0.5 0.5 0.5 0.5 0.225 0.5 0.5-0.224 0.5-0.5 0.5h-4.886c-0.513 0-1-0.193-1.372-0.544l-0.677-0.639c-0.558-0.527-1.289-0.817-2.058-0.817h-0.507v-3h0.050c1.068 0 2.072-0.416 2.828-1.172l0.949-0.949c0.752-0.751 1.179-1.792 1.173-2.856l-0.004-0.523c0-0.275 0.224-0.5 0.5-0.5s0.5 0.225 0.5 0.504l0.004 2.996c0 0.276 0.224 0.5 0.5 0.5h4c0.276 0 0.5 0.225 0.5 0.5s-0.224 0.5-0.5 0.5-0.5 0.224-0.5 0.5 0.224 0.5 0.5 0.5h1c0.276 0 0.5 0.225 0.5 0.5s-0.224 0.5-0.5 0.5z"></path>
</svg>
