<svg version="1.1" xmlns="http://www.w3.org/2000/svg" width="16" height="16" viewBox="0 0 16 16">
<title>thumb-tack</title>
<path d="M15.314 2.607l-1.921-1.921c-0.487-0.487-1.161-0.73-1.847-0.672-0.687 0.061-1.308 0.419-1.703 0.984l-2.872 4.113c-0.347-0.075-0.663-0.111-0.975-0.111-1.049 0-2.060 0.332-2.926 0.959-0.118 0.086-0.193 0.22-0.205 0.365s0.042 0.29 0.145 0.393l2.783 2.783-4.646 4.646c-0.195 0.195-0.195 0.512 0 0.707 0.097 0.098 0.225 0.147 0.353 0.147s0.256-0.049 0.354-0.146l4.646-4.647 2.778 2.778c0.094 0.094 0.222 0.146 0.354 0.146l0.040-0.002c0.146-0.011 0.279-0.086 0.365-0.204 0.627-0.866 0.959-1.877 0.959-2.926 0-0.312-0.035-0.625-0.11-0.969l4.115-2.875c0.565-0.395 0.924-1.015 0.985-1.702 0.060-0.685-0.185-1.359-0.672-1.846zM14.429 5.337l-4.396 3.070c-0.174 0.122-0.252 0.339-0.196 0.543 0.108 0.396 0.159 0.73 0.159 1.050 0 0.641-0.156 1.265-0.455 1.834l-5.379-5.379c0.569-0.299 1.193-0.455 1.834-0.455 0.32 0 0.656 0.051 1.056 0.161 0.204 0.054 0.421-0.023 0.542-0.196l3.068-4.393c0.225-0.322 0.579-0.527 0.971-0.562 0.387-0.038 0.775 0.104 1.053 0.383l1.921 1.921c0.278 0.278 0.417 0.662 0.383 1.053s-0.239 0.745-0.561 0.97z"></path>
</svg>
