<svg version="1.1" xmlns="http://www.w3.org/2000/svg" width="16" height="16" viewBox="0 0 16 16">
<title>thumbs-up</title>
<path d="M13.5 5.993h-2.501c-0.552 0-0.999-0.447-1-0.999l-0.003-1.994c0-0.552-0.448-1-1-1s-1 0.448-1 1l0.004 0.527c0.006 0.936-0.363 1.836-1.025 2.498l-0.95 0.95c-0.298 0.298-0.648 0.526-1.025 0.694v4.543c0.263 0.114 0.51 0.268 0.722 0.469l0.755 0.712c0.412 0.388 0.957 0.604 1.523 0.604l4.199-0.002c1.074-0.001 2.028-0.688 2.369-1.706l0.25-0.748c0.121-0.358 0.182-0.734 0.182-1.111v-2.937c0-0.829-0.672-1.5-1.5-1.5zM4 7.956v-0.956c0-0.552-0.448-1-1-1h-2v8h2c0.552 0 1-0.448 1-1v-5.044z"></path>
</svg>
