<svg version="1.1" xmlns="http://www.w3.org/2000/svg" width="16" height="16" viewBox="0 0 16 16">
<title>ticket</title>
<path d="M15 7h0.5c0.276 0 0.5-0.224 0.5-0.5v-3c0-0.276-0.224-0.5-0.5-0.5h-15c-0.276 0-0.5 0.224-0.5 0.5v3c0 0.276 0.224 0.5 0.5 0.5h0.5c0.552 0 1 0.448 1 1s-0.448 1-1 1h-0.5c-0.276 0-0.5 0.224-0.5 0.5v3c0 0.276 0.224 0.5 0.5 0.5h15c0.276 0 0.5-0.224 0.5-0.5v-3c0-0.276-0.224-0.5-0.5-0.5h-0.5c-0.552 0-1-0.448-1-1s0.448-1 1-1zM15 10v2h-14v-2c1.103 0 2-0.897 2-2s-0.897-2-2-2v-2h14v2c-1.103 0-2 0.897-2 2s0.897 2 2 2zM11.49 5h-7c-0.276 0-0.5 0.224-0.5 0.5v5c0 0.276 0.224 0.5 0.5 0.5h7c0.276 0 0.5-0.224 0.5-0.5v-5c0-0.276-0.223-0.5-0.5-0.5zM10.99 10h-6v-4h6v4z"></path>
</svg>
