<svg version="1.1" xmlns="http://www.w3.org/2000/svg" width="16" height="16" viewBox="0 0 16 16">
<title>tiles-2x2</title>
<path d="M6 1h-4c-0.55 0-1 0.45-1 1v4c0 0.55 0.45 1 1 1h4c0.55 0 1-0.45 1-1v-4c0-0.55-0.45-1-1-1zM6 6h-4v-4h4v4z"></path>
<path d="M14 1h-4c-0.55 0-1 0.45-1 1v4c0 0.55 0.45 1 1 1h4c0.55 0 1-0.45 1-1v-4c0-0.55-0.45-1-1-1zM14 6h-4v-4h4v4z"></path>
<path d="M6 9h-4c-0.55 0-1 0.45-1 1v4c0 0.55 0.45 1 1 1h4c0.55 0 1-0.45 1-1v-4c0-0.55-0.45-1-1-1zM6 14h-4v-4h4v4z"></path>
<path d="M14 9h-4c-0.55 0-1 0.45-1 1v4c0 0.55 0.45 1 1 1h4c0.55 0 1-0.45 1-1v-4c0-0.55-0.45-1-1-1zM14 14h-4v-4h4v4z"></path>
</svg>
