<svg version="1.1" xmlns="http://www.w3.org/2000/svg" width="16" height="16" viewBox="0 0 16 16">
<title>times-rectangle</title>
<path d="M14 2h-12c-1.105 0-2 0.895-2 2v0 8c0 1.105 0.895 2 2 2v0h12c1.105 0 2-0.895 2-2v0-8c0-1.105-0.895-2-2-2v0zM10.854 10.146c0.091 0.091 0.147 0.216 0.147 0.354 0 0.276-0.224 0.501-0.501 0.501-0.138 0-0.263-0.056-0.354-0.147v0l-2.146-2.147-2.146 2.147c-0.091 0.091-0.216 0.147-0.354 0.147-0.276 0-0.501-0.224-0.501-0.501 0-0.138 0.056-0.263 0.147-0.354v0l2.147-2.146-2.147-2.146c-0.091-0.091-0.147-0.216-0.147-0.354 0-0.276 0.224-0.501 0.501-0.501 0.138 0 0.263 0.056 0.354 0.147v0l2.146 2.147 2.146-2.147c0.091-0.091 0.216-0.147 0.354-0.147 0.276 0 0.501 0.224 0.501 0.501 0 0.138-0.056 0.263-0.147 0.354v0l-2.147 2.146z"></path>
</svg>
