<svg version="1.1" xmlns="http://www.w3.org/2000/svg" width="16" height="16" viewBox="0 0 16 16">
<title>times</title>
<path d="M9.061 8l3.469-3.47c0.147-0.137 0.239-0.332 0.239-0.549 0-0.414-0.336-0.75-0.75-0.75-0.216 0-0.411 0.092-0.548 0.238l-0 0-3.47 3.469-3.47-3.469c-0.137-0.147-0.332-0.239-0.549-0.239-0.414 0-0.75 0.336-0.75 0.75 0 0.216 0.092 0.411 0.238 0.548l0 0 3.469 3.47-3.469 3.47c-0.147 0.137-0.239 0.332-0.239 0.549 0 0.414 0.336 0.75 0.75 0.75 0.216 0 0.411-0.092 0.548-0.238l0-0 3.47-3.469 3.47 3.469c0.134 0.125 0.313 0.201 0.511 0.201 0.414 0 0.75-0.336 0.75-0.75 0-0.198-0.077-0.378-0.202-0.512l0 0z"></path>
</svg>
