<svg version="1.1" xmlns="http://www.w3.org/2000/svg" width="16" height="16" viewBox="0 0 16 16">
<title>toggle-up</title>
<path d="M13 1h-10c-1.105 0-2 0.895-2 2v0 10c0 1.105 0.895 2 2 2v0h10c1.105 0 2-0.895 2-2v0-10c0-1.105-0.895-2-2-2v0zM14 13c0 0.552-0.448 1-1 1v0h-10c-0.552 0-1-0.448-1-1v0-10c0-0.552 0.448-1 1-1v0h10c0.552 0 1 0.448 1 1v0z"></path>
<path d="M8.624 5.584c-0.143-0.191-0.369-0.313-0.624-0.313s-0.481 0.122-0.623 0.311l-0.001 0.002-2 3c-0.079 0.117-0.126 0.261-0.126 0.416 0 0.414 0.336 0.75 0.75 0.75h4c0.414-0 0.75-0.336 0.75-0.75 0-0.155-0.047-0.299-0.128-0.419l0.002 0.003z"></path>
</svg>
