<svg version="1.1" xmlns="http://www.w3.org/2000/svg" width="16" height="16" viewBox="0 0 16 16">
<title>toggle-right</title>
<path d="M7.416 5.376c-0.117-0.079-0.261-0.126-0.416-0.126-0.414 0-0.75 0.336-0.75 0.75v0 4c0.001 0.285 0.161 0.533 0.396 0.659l0.004 0.002c0.102 0.056 0.224 0.089 0.354 0.089 0.155 0 0.299-0.047 0.418-0.128l-0.003 0.002 3-2c0.203-0.136 0.334-0.365 0.334-0.624s-0.131-0.488-0.331-0.622l-0.003-0.002z"></path>
<path d="M13 1h-10c-1.105 0-2 0.895-2 2v0 10c0 1.105 0.895 2 2 2v0h10c1.105 0 2-0.895 2-2v0-10c0-1.105-0.895-2-2-2v0zM14 13c0 0.552-0.448 1-1 1v0h-10c-0.552 0-1-0.448-1-1v0-10c0-0.552 0.448-1 1-1v0h10c0.552 0 1 0.448 1 1v0z"></path>
</svg>
