<svg version="1.1" xmlns="http://www.w3.org/2000/svg" width="16" height="16" viewBox="0 0 16 16">
<title>toggle-down</title>
<path d="M13 1h-10c-1.105 0-2 0.895-2 2v0 10c0 1.105 0.895 2 2 2v0h10c1.105 0 2-0.895 2-2v0-10c0-1.105-0.895-2-2-2v0zM14 13c0 0.552-0.448 1-1 1v0h-10c-0.552 0-1-0.448-1-1v0-10c0-0.552 0.448-1 1-1v0h10c0.552 0 1 0.448 1 1v0z"></path>
<path d="M10 6.25h-4c-0.414 0-0.75 0.336-0.75 0.75 0 0.155 0.047 0.299 0.128 0.419l-0.002-0.003 2 3c0.136 0.203 0.365 0.334 0.624 0.334s0.488-0.131 0.622-0.331l0.002-0.003 2-3c0.079-0.117 0.126-0.261 0.126-0.416 0-0.414-0.336-0.75-0.75-0.75v0z"></path>
</svg>
