<svg version="1.1" xmlns="http://www.w3.org/2000/svg" width="16" height="16" viewBox="0 0 16 16">
<title>tools</title>
<path d="M14.978 13.456c0.002-0.416-0.16-0.807-0.456-1.1l-4.604-4.567 3.187-3.187c0.11-0.11 0.244-0.193 0.391-0.242l0.414-0.138c0.125-0.042 0.229-0.132 0.289-0.25l0.5-1-0.003 0.003c0.096-0.192 0.059-0.425-0.094-0.577s-0.384-0.189-0.577-0.094l-1 0.5c-0.119 0.060-0.209 0.164-0.25 0.289l-0.138 0.414c-0.049 0.147-0.132 0.281-0.242 0.391l-3.187 3.187-1.030-1.022c-0.227-0.227-0.318-0.569-0.25-0.938 0.256-1.389-0.318-2.746-1.498-3.542-1.012-0.684-2.333-0.777-3.446-0.242-0.146 0.070-0.25 0.207-0.277 0.366s0.025 0.323 0.14 0.438l1.591 1.591c0.063 0.064 0.073 0.138 0.073 0.177s-0.010 0.113-0.073 0.177l-0.354 0.353c-0.128 0.127-0.226 0.128-0.354 0l-1.591-1.591c-0.115-0.115-0.276-0.167-0.438-0.139-0.159 0.027-0.296 0.13-0.367 0.277-0.523 1.094-0.423 2.453 0.257 3.461 0.796 1.18 2.152 1.753 3.542 1.498 0.368-0.069 0.711 0.022 0.936 0.247l0.262 0.265-3.874 3.873c-0.608 0.608-0.608 1.598 0.001 2.207 0.294 0.295 0.687 0.457 1.103 0.457s0.808-0.162 1.103-0.457l3.862-3.86 3.812 3.856c0.3 0.304 0.698 0.456 1.096 0.456 0.389 0 0.778-0.145 1.076-0.437l-0.35-0.357 0.354 0.354c0.298-0.292 0.463-0.681 0.464-1.097zM3.957 13.834c-0.218 0.219-0.573 0.217-0.793-0.001-0.106-0.106-0.164-0.247-0.164-0.396s0.058-0.29 0.164-0.396l3.836-3.834 0.793 0.793-3.836 3.834zM13.812 13.84l-0.002 0.002c-0.212 0.205-0.553 0.202-0.76-0.009l-6.272-6.342c-0.368-0.368-0.865-0.565-1.405-0.565-0.138 0-0.279 0.013-0.422 0.039-0.987 0.184-1.961-0.229-2.531-1.074-0.343-0.507-0.48-1.14-0.399-1.743l1.001 1.001c0.472 0.473 1.295 0.474 1.768 0l0.354-0.354c0.487-0.487 0.487-1.28 0-1.768l-1.003-1.002c0.606-0.083 1.23 0.049 1.73 0.386 0.845 0.57 1.257 1.54 1.074 2.531-0.128 0.699 0.064 1.365 0.528 1.829l6.345 6.295c0.104 0.103 0.161 0.24 0.16 0.386s-0.058 0.282-0.166 0.388z"></path>
</svg>
