<svg version="1.1" xmlns="http://www.w3.org/2000/svg" width="16" height="16" viewBox="0 0 16 16">
<title>trademark</title>
<path d="M6.5 4h-6c-0.276 0-0.5 0.224-0.5 0.5s0.224 0.5 0.5 0.5v0h2.5v6.5c0 0.276 0.224 0.5 0.5 0.5s0.5-0.224 0.5-0.5v0-6.5h2.5c0.276 0 0.5-0.224 0.5-0.5s-0.224-0.5-0.5-0.5v0z"></path>
<path d="M14.66 4.026c-0.048-0.017-0.103-0.026-0.16-0.026-0.163 0-0.308 0.078-0.399 0.199l-0.001 0.001-2.6 3.424-2.6-3.424c-0.092-0.122-0.237-0.2-0.4-0.2-0.276 0-0.5 0.224-0.5 0.5v7c0 0.276 0.224 0.5 0.5 0.5s0.5-0.224 0.5-0.5v0-5.515l2.1 2.769c0.096 0.115 0.239 0.188 0.4 0.188s0.304-0.073 0.399-0.187l0.001-0.001 2.1-2.769v5.515c0 0.276 0.224 0.5 0.5 0.5s0.5-0.224 0.5-0.5v0-7c0-0 0-0 0-0 0-0.219-0.141-0.405-0.336-0.473l-0.004-0.001z"></path>
</svg>
