<svg id="Layer_1" data-name="Layer 1" xmlns="http://www.w3.org/2000/svg" width="16" height="16" viewBox="0 0 16 16"><path d="M8,9a2,2,0,1,0,2,2A2,2,0,0,0,8,9Zm0,3a1,1,0,1,1,1-1A1,1,0,0,1,8,12Z"/><path d="M8,3a2,2,0,1,0,2,2A2,2,0,0,0,8,3ZM8,6A1,1,0,1,1,9,5,1,1,0,0,1,8,6Z"/><path d="M15.5,9H13V6.891A3.7,3.7,0,0,0,16,3.5a.5.5,0,0,0-.5-.5H13V2a2,2,0,0,0-2-2H5A2,2,0,0,0,3,2V3H.5a.5.5,0,0,0-.5.5A3.7,3.7,0,0,0,3,6.891V9H.5a.5.5,0,0,0-.5.5,3.7,3.7,0,0,0,3,3.391V14a2,2,0,0,0,2,2h6a2,2,0,0,0,2-2V12.891A3.7,3.7,0,0,0,16,9.5.5.5,0,0,0,15.5,9ZM1.063,4H3V5.858A2.824,2.824,0,0,1,1.063,4Zm0,6H3v1.858A2.824,2.824,0,0,1,1.063,10ZM12,14a1,1,0,0,1-1,1H5a1,1,0,0,1-1-1V2A1,1,0,0,1,5,1h6a1,1,0,0,1,1,1ZM14.937,4A2.824,2.824,0,0,1,13,5.858V4ZM13,11.858V10h1.937A2.824,2.824,0,0,1,13,11.858Z"/></svg>