<svg version="1.1" xmlns="http://www.w3.org/2000/svg" width="16" height="16" viewBox="0 0 16 16">
<title>train</title>
<path d="M8.5 5c-0.827 0-1.5 0.673-1.5 1.5s0.673 1.5 1.5 1.5 1.5-0.673 1.5-1.5-0.673-1.5-1.5-1.5zM8.5 7c-0.275 0-0.5-0.224-0.5-0.5s0.225-0.5 0.5-0.5 0.5 0.224 0.5 0.5-0.225 0.5-0.5 0.5zM14 4.275v-1.715c0-0.868-0.563-1.635-1.401-1.909-2.646-0.864-5.551-0.864-8.197 0-0.839 0.273-1.402 1.040-1.402 1.909v1.716c-0.606 0.36-1 1.002-1 1.713v4.011c0 1.103 0.897 2 2 2h0.182v1.74c0 0.933 0.654 1.755 1.557 1.956 0.909 0.201 1.838 0.304 2.761 0.304s1.852-0.103 2.762-0.304c0.902-0.201 1.557-1.023 1.557-1.956v-1.74h0.181c1.103 0 2-0.897 2-2v-4.011c0-0.711-0.394-1.353-1-1.714zM13 2.56v1.276c-1.283-0.483-2.635-0.751-4-0.803v-2.010c1.115 0.045 2.224 0.232 3.288 0.579 0.426 0.138 0.712 0.523 0.712 0.958zM4.712 1.601c1.064-0.347 2.173-0.534 3.288-0.579v2.010c-1.365 0.053-2.717 0.32-4 0.803v-1.275c0-0.435 0.286-0.82 0.712-0.959zM6.567 14.821l0.832-0.621c0.175-0.131 0.382-0.2 0.599-0.2h1c0.219 0 0.427 0.069 0.602 0.202l0.824 0.621c-1.279 0.212-2.578 0.212-3.857-0.002zM11.818 13.74c0 0.26-0.107 0.495-0.272 0.676l-1.344-1.013c-0.345-0.26-0.772-0.403-1.204-0.403h-1c-0.435 0-0.848 0.138-1.196 0.397l-1.356 1.013c-0.161-0.18-0.265-0.414-0.265-0.67v-1.74h6.637v1.74zM14 10c0 0.551-0.448 1-1 1h-9c-0.552 0-1-0.449-1-1v-4.011c0-0.393 0.233-0.753 0.595-0.92 1.538-0.71 3.188-1.069 4.905-1.069s3.367 0.359 4.905 1.069c0.362 0.166 0.595 0.527 0.595 0.92v4.011z"></path>
</svg>
