<svg version="1.1" xmlns="http://www.w3.org/2000/svg" width="16" height="16" viewBox="0 0 16 16">
<title>transgender</title>
<path d="M14.5 1h-3c-0.276 0-0.5 0.224-0.5 0.5s0.224 0.5 0.5 0.5h1.793l-1.998 1.998c-0.77-0.617-1.734-1.001-2.795-1.001-2.481 0-4.5 2.019-4.5 4.5 0 2.31 1.756 4.197 4 4.449v1.054h-1.5c-0.276 0-0.5 0.224-0.5 0.5s0.224 0.5 0.5 0.5h1.5v1.497c0 0.276 0.224 0.5 0.5 0.5s0.5-0.224 0.5-0.5v-1.497h1.5c0.276 0 0.5-0.224 0.5-0.5s-0.224-0.5-0.5-0.5h-1.5v-1.054c2.244-0.252 4-2.139 4-4.449 0-1.060-0.383-2.022-0.998-2.791l1.998-1.999v1.793c0 0.276 0.224 0.5 0.5 0.5s0.5-0.224 0.5-0.5v-3c0-0.276-0.224-0.5-0.5-0.5zM8.5 10.997c-1.93 0-3.5-1.57-3.5-3.5s1.57-3.5 3.5-3.5 3.5 1.57 3.5 3.5-1.57 3.5-3.5 3.5z"></path>
</svg>
