<svg version="1.1" xmlns="http://www.w3.org/2000/svg" width="16" height="16" viewBox="0 0 16 16">
<title>trash-o</title>
<path d="M14.5 2h-3.5v-1.5c0-0.276-0.224-0.5-0.5-0.5h-5c-0.276 0-0.5 0.224-0.5 0.5v1.5h-3.5c-0.276 0-0.5 0.224-0.5 0.5s0.224 0.5 0.5 0.5h1.037l0.964 12.538c0.020 0.261 0.237 0.462 0.499 0.462h8c0.262 0 0.479-0.201 0.498-0.462l0.965-12.538h1.037c0.276 0 0.5-0.224 0.5-0.5s-0.224-0.5-0.5-0.5zM6 1h4v1h-4v-1zM11.537 15h-7.074l-0.923-12h8.92l-0.923 12zM6.5 14c0.276 0 0.5-0.224 0.5-0.5v-8c0-0.276-0.224-0.5-0.5-0.5s-0.5 0.224-0.5 0.5v8c0 0.276 0.224 0.5 0.5 0.5zM9.5 14c0.276 0 0.5-0.224 0.5-0.5v-8c0-0.276-0.224-0.5-0.5-0.5s-0.5 0.224-0.5 0.5v8c0 0.276 0.224 0.5 0.5 0.5z"></path>
</svg>
