<svg version="1.1" xmlns="http://www.w3.org/2000/svg" width="16" height="16" viewBox="0 0 16 16">
<title>tree</title>
<path d="M14.354 12.146l-3.147-3.146h1.793c0.202 0 0.385-0.122 0.462-0.309s0.035-0.402-0.108-0.545l-3.147-3.146h1.793c0.202 0 0.385-0.122 0.462-0.309s0.035-0.402-0.108-0.545l-4-4c-0.195-0.195-0.512-0.195-0.707 0l-4 4c-0.144 0.143-0.187 0.359-0.109 0.545 0.077 0.187 0.26 0.309 0.462 0.309h1.793l-3.147 3.146c-0.143 0.143-0.186 0.359-0.108 0.545s0.26 0.309 0.462 0.309h1.793l-3.146 3.146c-0.143 0.143-0.186 0.358-0.108 0.545 0.076 0.187 0.259 0.309 0.461 0.309h5.042v2.5c0 0.276 0.224 0.5 0.5 0.5h1c0.276 0 0.5-0.224 0.5-0.5v-2.5h4.958c0.202 0 0.385-0.122 0.462-0.309s0.035-0.402-0.108-0.545zM8.542 12h-5.335l3.146-3.146c0.144-0.143 0.187-0.359 0.109-0.545-0.077-0.187-0.26-0.309-0.462-0.309h-1.793l3.146-3.146c0.144-0.143 0.187-0.359 0.109-0.545-0.077-0.187-0.26-0.309-0.462-0.309h-1.793l2.793-2.793 2.793 2.793h-1.793c-0.202 0-0.385 0.122-0.462 0.309-0.078 0.186-0.035 0.402 0.108 0.545l3.147 3.146h-1.793c-0.202 0-0.385 0.122-0.462 0.309s-0.035 0.402 0.108 0.545l3.147 3.146h-4.251z"></path>
</svg>
