<svg version="1.1" xmlns="http://www.w3.org/2000/svg" width="16" height="16" viewBox="0 0 16 16">
<title>tree-org</title>
<path d="M6.5 8h8c0.276 0 0.5-0.224 0.5-0.5v-4c0-0.276-0.224-0.5-0.5-0.5h-8c-0.276 0-0.5 0.224-0.5 0.5v1.5h-4v-3.5c0-0.276-0.224-0.5-0.5-0.5s-0.5 0.224-0.5 0.5v11c0 0.276 0.224 0.5 0.5 0.5h4.5v1.5c0 0.276 0.224 0.5 0.5 0.5h8c0.276 0 0.5-0.224 0.5-0.5v-4c0-0.276-0.224-0.5-0.5-0.5h-8c-0.276 0-0.5 0.224-0.5 0.5v1.5h-4v-6h4v1.5c0 0.276 0.224 0.5 0.5 0.5zM7 4h7v3h-7v-3zM7 11h7v3h-7v-3z"></path>
</svg>
