<svg version="1.1" xmlns="http://www.w3.org/2000/svg" width="16" height="16" viewBox="0 0 16 16">
<title>trigger</title>
<path d="M16 4.5c0-0.276-0.224-0.5-0.5-0.5s-0.5 0.224-0.5 0.5v2.793l-4.146-4.146c-0.195-0.195-0.512-0.195-0.707 0l-4.56 4.56c-0.585-0.438-1.302-0.707-2.087-0.707-1.93 0-3.5 1.57-3.5 3.5s1.57 3.5 3.5 3.5 3.5-1.57 3.5-3.5c0-0.785-0.269-1.502-0.707-2.086l4.207-4.207 3.793 3.793h-2.793c-0.276 0-0.5 0.224-0.5 0.5s0.224 0.5 0.5 0.5h4c0.065 0 0.13-0.013 0.191-0.038 0.122-0.051 0.22-0.148 0.271-0.271 0.025-0.061 0.038-0.126 0.038-0.191v-4zM3.5 13c-1.378 0-2.5-1.122-2.5-2.5s1.122-2.5 2.5-2.5c0.687 0 1.31 0.279 1.762 0.729 0.002 0.002 0.002 0.004 0.003 0.005s0.004 0.002 0.005 0.003c0.451 0.453 0.73 1.076 0.73 1.763 0 1.378-1.122 2.5-2.5 2.5z"></path>
</svg>
