<svg version="1.1" xmlns="http://www.w3.org/2000/svg" width="16" height="16" viewBox="0 0 16 16">
<title>truck</title>
<path d="M15.5 2h-10c-0.276 0-0.5 0.224-0.5 0.5v2.5h-2c-0.148 0-0.289 0.065-0.384 0.18l-2.5 3-0.045 0.078-0.034 0.060-0.037 0.182v4c0 0.276 0.224 0.5 0.5 0.5h1.5c0 1.103 0.897 2 2 2s2-0.897 2-2h4c0 1.103 0.897 2 2 2s2-0.897 2-2h1.5c0.276 0 0.5-0.224 0.5-0.5v-10c0-0.276-0.224-0.5-0.5-0.5zM3.234 6h1.766v2h-3.433l1.667-2zM4 14c-0.552 0-1-0.448-1-1s0.448-1 1-1 1 0.448 1 1-0.448 1-1 1zM12 14c-0.552 0-1-0.448-1-1s0.448-1 1-1 1 0.448 1 1-0.448 1-1 1zM15 12h-1c-0.089 0-0.168 0.029-0.24 0.070-0.336-0.633-0.995-1.070-1.76-1.070-0.737 0-1.375 0.405-1.722 1h-4.556c-0.347-0.595-0.985-1-1.722-1s-1.375 0.405-1.722 1h-1.278v-3h4.5c0.276 0 0.5-0.224 0.5-0.5v-5.5h9v9z"></path>
</svg>
