<svg version="1.1" xmlns="http://www.w3.org/2000/svg" width="16" height="16" viewBox="0 0 16 16">
<title>tty</title>
<path d="M15.877 4.136c-2.049-1.942-4.824-3.136-7.877-3.136s-5.828 1.194-7.882 3.141l0.005-0.005c-0.097 0.091-0.158 0.221-0.158 0.364 0 0.102 0.030 0.197 0.083 0.276l-0.001-0.002 1.745 2.663c0.091 0.137 0.244 0.226 0.418 0.226 0.098 0 0.19-0.028 0.267-0.077l-0.002 0.001c0.903-0.572 1.951-1.021 3.069-1.291l0.071-0.015c0.222-0.054 0.385-0.251 0.385-0.487 0-0 0-0 0-0v0-1.52c0.599-0.173 1.288-0.273 2-0.273s1.401 0.1 2.053 0.286l-0.053-0.013v1.52c0 0 0 0 0 0 0 0.235 0.163 0.433 0.382 0.486l0.003 0.001c1.189 0.285 2.237 0.734 3.183 1.331l-0.043-0.025c0.074 0.048 0.165 0.076 0.263 0.076 0 0 0.001 0 0.001 0h-0c0 0 0.001 0 0.001 0 0.174 0 0.328-0.089 0.417-0.224l0.001-0.002 1.745-2.663c0.051-0.077 0.082-0.172 0.082-0.274 0-0.144-0.060-0.273-0.157-0.364l-0-0zM13.633 6.489c-0.756-0.437-1.631-0.807-2.553-1.064l-0.080-0.019v-1.506c-0-0.22-0.143-0.407-0.34-0.474l-0.004-0.001c-0.793-0.271-1.706-0.428-2.656-0.428s-1.863 0.156-2.716 0.445l0.060-0.018c-0.201 0.068-0.344 0.255-0.344 0.475v0 1.5c-1.002 0.278-1.877 0.65-2.688 1.118l0.055-0.029-1.249-1.906c1.829-1.604 4.241-2.583 6.882-2.583s5.053 0.979 6.894 2.593l-0.012-0.010z"></path>
<path d="M2.5 10h-1c-0.276 0-0.5 0.224-0.5 0.5s0.224 0.5 0.5 0.5v0h1c0.276 0 0.5-0.224 0.5-0.5s-0.224-0.5-0.5-0.5v0z"></path>
<path d="M4.5 11h1c0.276 0 0.5-0.224 0.5-0.5s-0.224-0.5-0.5-0.5v0h-1c-0.276 0-0.5 0.224-0.5 0.5s0.224 0.5 0.5 0.5v0z"></path>
<path d="M7.5 11h1c0.276 0 0.5-0.224 0.5-0.5s-0.224-0.5-0.5-0.5v0h-1c-0.276 0-0.5 0.224-0.5 0.5s0.224 0.5 0.5 0.5v0z"></path>
<path d="M11.5 10h-1c-0.276 0-0.5 0.224-0.5 0.5s0.224 0.5 0.5 0.5v0h1c0.276 0 0.5-0.224 0.5-0.5s-0.224-0.5-0.5-0.5v0z"></path>
<path d="M14.5 10h-1c-0.276 0-0.5 0.224-0.5 0.5s0.224 0.5 0.5 0.5v0h1c0.276 0 0.5-0.224 0.5-0.5s-0.224-0.5-0.5-0.5v0z"></path>
<path d="M2.5 12h-1c-0.276 0-0.5 0.224-0.5 0.5s0.224 0.5 0.5 0.5v0h1c0.276 0 0.5-0.224 0.5-0.5s-0.224-0.5-0.5-0.5v0z"></path>
<path d="M4.5 13h1c0.276 0 0.5-0.224 0.5-0.5s-0.224-0.5-0.5-0.5v0h-1c-0.276 0-0.5 0.224-0.5 0.5s0.224 0.5 0.5 0.5v0z"></path>
<path d="M7.5 13h1c0.276 0 0.5-0.224 0.5-0.5s-0.224-0.5-0.5-0.5v0h-1c-0.276 0-0.5 0.224-0.5 0.5s0.224 0.5 0.5 0.5v0z"></path>
<path d="M11.5 12h-1c-0.276 0-0.5 0.224-0.5 0.5s0.224 0.5 0.5 0.5v0h1c0.276 0 0.5-0.224 0.5-0.5s-0.224-0.5-0.5-0.5v0z"></path>
<path d="M14.5 12h-1c-0.276 0-0.5 0.224-0.5 0.5s0.224 0.5 0.5 0.5v0h1c0.276 0 0.5-0.224 0.5-0.5s-0.224-0.5-0.5-0.5v0z"></path>
<path d="M2.5 14h-1c-0.276 0-0.5 0.224-0.5 0.5s0.224 0.5 0.5 0.5v0h1c0.276 0 0.5-0.224 0.5-0.5s-0.224-0.5-0.5-0.5v0z"></path>
<path d="M14.5 14h-1c-0.276 0-0.5 0.224-0.5 0.5s0.224 0.5 0.5 0.5v0h1c0.276 0 0.5-0.224 0.5-0.5s-0.224-0.5-0.5-0.5v0z"></path>
<path d="M11.5 14h-7c-0.276 0-0.5 0.224-0.5 0.5s0.224 0.5 0.5 0.5v0h7c0.276 0 0.5-0.224 0.5-0.5s-0.224-0.5-0.5-0.5v0z"></path>
</svg>
