<svg version="1.1" xmlns="http://www.w3.org/2000/svg" width="16" height="16" viewBox="0 0 16 16">
<title>turkish-lira</title>
<path d="M12.508 8c-0.276 0-0.5 0.224-0.5 0.5 0 2.344-2.201 4.275-5.008 4.481v-5.441l3.697-1.589c0.254-0.109 0.371-0.403 0.262-0.657s-0.404-0.37-0.656-0.262l-3.303 1.42v-0.912l3.697-1.589c0.254-0.109 0.371-0.403 0.262-0.657s-0.404-0.37-0.656-0.262l-3.303 1.42v-1.952c0-0.276-0.224-0.5-0.5-0.5s-0.5 0.224-0.5 0.5v2.381l-2.697 1.16c-0.254 0.108-0.371 0.403-0.262 0.656 0.081 0.19 0.266 0.303 0.459 0.303l0.197-0.041 2.303-0.989v0.911l-2.697 1.16c-0.254 0.108-0.371 0.403-0.262 0.656 0.081 0.19 0.266 0.303 0.459 0.303l0.197-0.041 2.303-0.989v5.53c0 0.276 0.231 0.5 0.508 0.5 3.584 0 6.5-2.467 6.5-5.5 0-0.276-0.224-0.5-0.5-0.5z"></path>
</svg>
