<svg version="1.1" xmlns="http://www.w3.org/2000/svg" width="16" height="16" viewBox="0 0 16 16">
<title>umbrella</title>
<path d="M9 1.023v-0.523c0-0.276-0.224-0.5-0.5-0.5s-0.5 0.224-0.5 0.5v0.523c-3.485 0.236-6.414 2.907-6.916 6.406-0.020 0.143 0.023 0.289 0.118 0.398 0.095 0.111 0.233 0.173 0.378 0.173h6.42v6c0 0.552-0.449 1-1 1s-1-0.448-1-1v-0.5c0-0.276-0.224-0.5-0.5-0.5s-0.5 0.224-0.5 0.5v0.5c0 1.103 0.897 2 2 2s2-0.897 2-2v-6h6.42c0.145 0 0.283-0.062 0.378-0.173 0.095-0.109 0.138-0.255 0.117-0.398-0.501-3.499-3.43-6.17-6.915-6.406zM2.183 7c0.685-2.888 3.305-5 6.317-5s5.632 2.112 6.317 5h-12.634z"></path>
</svg>
