<svg version="1.1" xmlns="http://www.w3.org/2000/svg" width="16" height="16" viewBox="0 0 16 16">
<title>undo</title>
<path d="M8 1.001c-1.707 0-3.318 0.635-4.572 1.72l-1.574-1.575c-0.144-0.143-0.359-0.185-0.545-0.108s-0.309 0.26-0.309 0.462v4c0 0.276 0.224 0.5 0.5 0.5h4c0.202 0 0.385-0.122 0.462-0.309s0.034-0.401-0.108-0.545l-1.72-1.719c1.068-0.9 2.428-1.426 3.866-1.426 3.309 0 6 2.691 6 6s-2.691 6-6 6c-2.792 0-5.19-1.898-5.833-4.616-0.063-0.269-0.332-0.433-0.602-0.372-0.268 0.064-0.434 0.333-0.371 0.602 0.75 3.171 3.548 5.386 6.806 5.386 3.859 0 7-3.14 7-7s-3.141-7-7-7z"></path>
</svg>
