<svg version="1.1" xmlns="http://www.w3.org/2000/svg" width="16" height="16" viewBox="0 0 16 16">
<title>undo-alt</title>
<path d="M14.5 6c0.276 0 0.5-0.224 0.5-0.5v-3c0-0.827-0.673-1.5-1.5-1.5h-11c-0.827 0-1.5 0.673-1.5 1.5v11c0 0.827 0.673 1.5 1.5 1.5h8.5c1.108 0 2.139-0.442 2.901-1.247s1.151-1.857 1.093-2.968c-0.109-2.087-1.99-3.785-4.192-3.785h-5.095l2.146-2.146c0.195-0.195 0.195-0.512 0-0.707s-0.512-0.195-0.707 0l-3 3c-0.195 0.195-0.195 0.512 0 0.707l3 3c0.098 0.097 0.226 0.146 0.354 0.146s0.256-0.049 0.354-0.146c0.195-0.195 0.195-0.512 0-0.707l-2.147-2.147h5.095c1.679 0 3.112 1.273 3.194 2.838 0.044 0.833-0.248 1.624-0.819 2.227-0.573 0.603-1.346 0.935-2.177 0.935h-8.5c-0.276 0-0.5-0.225-0.5-0.5v-11c0-0.275 0.224-0.5 0.5-0.5h11c0.276 0 0.5 0.225 0.5 0.5v3c0 0.276 0.224 0.5 0.5 0.5z"></path>
</svg>
