<svg version="1.1" xmlns="http://www.w3.org/2000/svg" width="16" height="16" viewBox="0 0 16 16">
<title>undo-arrow</title>
<path d="M11.273 4.929h-9.495l2.075-2.075c0.195-0.195 0.195-0.512 0-0.707s-0.512-0.195-0.707 0l-3 3c-0.195 0.195-0.195 0.512 0 0.707l3 3c0.098 0.097 0.226 0.146 0.354 0.146s0.256-0.049 0.354-0.146c0.195-0.195 0.195-0.512 0-0.707l-2.076-2.076h9.495c1.919 0 3.557 1.455 3.65 3.244 0.050 0.952-0.283 1.855-0.937 2.544s-1.537 1.069-2.487 1.069h-10c-0.315 0-0.571 0.256-0.571 0.571s0.256 0.571 0.571 0.571h10c1.267 0 2.444-0.506 3.316-1.425s1.315-2.123 1.248-3.392c-0.124-2.384-2.273-4.324-4.79-4.324z"></path>
</svg>
