<svg version="1.1" xmlns="http://www.w3.org/2000/svg" width="16" height="16" viewBox="0 0 16 16">
<title>universal-access</title>
<path d="M9 4c0 0.552-0.448 1-1 1s-1-0.448-1-1c0-0.552 0.448-1 1-1s1 0.448 1 1z"></path>
<path d="M8 0c-4.418 0-8 3.582-8 8s3.582 8 8 8c4.418 0 8-3.582 8-8v0c-0.005-4.416-3.584-7.995-8-8h-0zM8 15c-3.866 0-7-3.134-7-7s3.134-7 7-7c3.866 0 7 3.134 7 7v0c-0.005 3.864-3.136 6.995-7 7h-0z"></path>
<path d="M11.327 5.031l-1.554 0.574c-0.527 0.204-1.137 0.322-1.774 0.322s-1.247-0.118-1.809-0.334l0.035 0.012-1.552-0.574c-0.054-0.022-0.117-0.035-0.183-0.035-0.276 0-0.5 0.224-0.5 0.5 0 0.218 0.139 0.403 0.333 0.472l0.003 0.001 1.549 0.573c0.319 0.122 0.697 0.225 1.088 0.291l0.036 0.005v0.168c-0.002 0.518-0.095 1.014-0.266 1.473l0.010-0.030-1.215 3.382c-0.019 0.050-0.029 0.108-0.029 0.169 0 0.276 0.224 0.5 0.5 0.5 0.216 0 0.4-0.137 0.47-0.328l0.001-0.003 0.986-2.748c0.079-0.178 0.254-0.3 0.458-0.3 0.007 0 0.014 0 0.021 0l-0.001-0h0.13c0.006-0 0.013-0 0.020-0 0.204 0 0.379 0.122 0.457 0.297l0.001 0.003 0.986 2.748c0.071 0.195 0.255 0.331 0.471 0.331 0.276 0 0.5-0.224 0.5-0.5 0-0.061-0.011-0.119-0.031-0.172l0.001 0.003-1.215-3.382c-0.161-0.429-0.254-0.925-0.256-1.442v-0.168c0.426-0.072 0.803-0.176 1.164-0.314l-0.042 0.014 1.551-0.573c0.187-0.075 0.317-0.255 0.317-0.465 0-0.276-0.224-0.5-0.5-0.5-0.058 0-0.115 0.010-0.167 0.028l0.004-0.001z"></path>
</svg>
