<svg version="1.1" xmlns="http://www.w3.org/2000/svg" width="16" height="16" viewBox="0 0 16 16">
<title>university</title>
<path d="M15.5 7c0.276 0 0.5-0.224 0.5-0.5v0-1c0-0 0-0.001 0-0.001 0-0.185-0.1-0.346-0.25-0.433l-0.002-0.001-7-4c-0.072-0.042-0.158-0.067-0.25-0.067s-0.178 0.025-0.252 0.068l0.002-0.001-7 4c-0.149 0.088-0.248 0.249-0.248 0.432 0 0.001 0 0.002 0 0.003v-0 1c0 0.276 0.224 0.5 0.5 0.5v0h0.5v5.382l-0.947 1.894c-0.033 0.065-0.053 0.142-0.053 0.224 0 0.276 0.224 0.5 0.5 0.5h14c0.276-0 0.5-0.224 0.5-0.5 0-0.082-0.020-0.159-0.054-0.227l0.001 0.003-0.947-1.894v-5.382zM2 5.79l6.5-3.714 6.5 3.714v0.21h-13zM9 12v-5h2v5zM8 7v5h-2v-5zM5 7v5h-2v-5zM2.309 14l0.5-1h11.382l0.5 1zM14 12h-2v-5h2z"></path>
</svg>
