<svg version="1.1" xmlns="http://www.w3.org/2000/svg" width="16" height="16" viewBox="0 0 16 16">
<title>unlink</title>
<path d="M4.861 8.146l-2.18-2.18c-0.439-0.439-0.681-1.022-0.681-1.643s0.242-1.204 0.681-1.643c0.879-0.878 2.409-0.877 3.286 0l2.18 2.18c0.195 0.195 0.512 0.195 0.707 0s0.195-0.512 0-0.707l-2.18-2.18c-1.255-1.256-3.445-1.257-4.7 0-0.628 0.628-0.974 1.463-0.974 2.351s0.346 1.722 0.974 2.35l2.18 2.18c0.097 0.097 0.225 0.146 0.353 0.146s0.256-0.049 0.354-0.146c0.195-0.196 0.195-0.512 0-0.708zM11.846 7.146c-0.195-0.195-0.512-0.195-0.707 0s-0.195 0.512 0 0.707l2.18 2.181c0.439 0.439 0.681 1.023 0.681 1.643s-0.242 1.204-0.681 1.643c-0.906 0.907-2.379 0.906-3.286 0l-2.18-2.18c-0.195-0.195-0.512-0.195-0.707 0s-0.195 0.512 0 0.707l2.18 2.18c0.648 0.648 1.499 0.972 2.35 0.972s1.702-0.324 2.35-0.972c0.628-0.629 0.974-1.463 0.974-2.35s-0.346-1.722-0.974-2.35l-2.18-2.181zM2.646 12.646l-1.5 1.5c-0.195 0.195-0.195 0.512 0 0.707 0.098 0.098 0.226 0.147 0.354 0.147s0.256-0.049 0.354-0.146l1.5-1.5c0.195-0.195 0.195-0.512 0-0.707s-0.512-0.196-0.708-0.001zM3 10.5c0-0.276-0.224-0.5-0.5-0.5h-2c-0.276 0-0.5 0.224-0.5 0.5s0.224 0.5 0.5 0.5h2c0.276 0 0.5-0.224 0.5-0.5zM5.5 13c-0.276 0-0.5 0.224-0.5 0.5v2c0 0.276 0.224 0.5 0.5 0.5s0.5-0.224 0.5-0.5v-2c0-0.276-0.224-0.5-0.5-0.5zM13 3.5c0.128 0 0.256-0.049 0.354-0.146l1.5-1.5c0.195-0.195 0.195-0.512 0-0.707s-0.512-0.195-0.707 0l-1.5 1.5c-0.195 0.195-0.195 0.512 0 0.707 0.097 0.097 0.225 0.146 0.353 0.146zM15.5 5h-2c-0.276 0-0.5 0.224-0.5 0.5s0.224 0.5 0.5 0.5h2c0.276 0 0.5-0.224 0.5-0.5s-0.224-0.5-0.5-0.5zM10.5 3c0.276 0 0.5-0.224 0.5-0.5v-2c0-0.276-0.224-0.5-0.5-0.5s-0.5 0.224-0.5 0.5v2c0 0.276 0.224 0.5 0.5 0.5z"></path>
</svg>
