<svg version="1.1" xmlns="http://www.w3.org/2000/svg" width="16" height="16" viewBox="0 0 16 16">
<title>unlock-alt</title>
<path d="M13 6h-1v-2c0-0 0-0.001 0-0.001 0-2.209-1.791-4-4-4-1.105 0-2.105 0.448-2.829 1.172l-0 0c-0.094 0.091-0.153 0.219-0.153 0.36 0 0.276 0.224 0.5 0.5 0.5 0.141 0 0.269-0.058 0.36-0.153l0-0c0.543-0.543 1.293-0.879 2.122-0.879 1.657 0 3 1.343 3 3 0 0 0 0.001 0 0.001v-0 2h-8c-1.105 0-2 0.895-2 2v0 6c0 1.105 0.895 2 2 2v0h10c1.105 0 2-0.895 2-2v0-6c0-1.105-0.895-2-2-2v0zM14 14c0 0.552-0.448 1-1 1v0h-10c-0.552 0-1-0.448-1-1v0-6c0-0.552 0.448-1 1-1v0h10c0.552 0 1 0.448 1 1v0z"></path>
</svg>
