<svg version="1.1" xmlns="http://www.w3.org/2000/svg" width="16" height="16" viewBox="0 0 16 16">
<title>upload-alt</title>
<path d="M14.5 6h-2c-0.276 0-0.5 0.224-0.5 0.5s0.224 0.5 0.5 0.5h1.5v8h-11v-8h1.5c0.276 0 0.5-0.224 0.5-0.5s-0.224-0.5-0.5-0.5h-2c-0.276 0-0.5 0.224-0.5 0.5v9c0 0.276 0.224 0.5 0.5 0.5h12c0.276 0 0.5-0.224 0.5-0.5v-9c0-0.276-0.224-0.5-0.5-0.5z"></path>
<path d="M5.854 3.854l2.146-2.147v10.793c0 0.276 0.224 0.5 0.5 0.5s0.5-0.224 0.5-0.5v-10.793l2.146 2.146c0.098 0.098 0.226 0.147 0.354 0.147s0.256-0.049 0.354-0.146c0.195-0.195 0.195-0.512 0-0.707l-3-3c-0.195-0.195-0.512-0.195-0.707 0l-3 3c-0.195 0.195-0.195 0.512 0 0.707s0.511 0.195 0.707 0z"></path>
</svg>
