<svg version="1.1" xmlns="http://www.w3.org/2000/svg" width="16" height="16" viewBox="0 0 16 16">
<title>upload</title>
<path d="M15.5 10c-0.276 0-0.5 0.224-0.5 0.5v3.5h-13v-3.5c0-0.276-0.224-0.5-0.5-0.5s-0.5 0.224-0.5 0.5v4c0 0.276 0.224 0.5 0.5 0.5h14c0.276 0 0.5-0.224 0.5-0.5v-4c0-0.276-0.224-0.5-0.5-0.5zM4.854 4.854l3.146-3.147v8.793c0 0.276 0.224 0.5 0.5 0.5s0.5-0.224 0.5-0.5v-8.793l3.146 3.146c0.098 0.098 0.226 0.147 0.354 0.147s0.256-0.049 0.354-0.146c0.195-0.195 0.195-0.512 0-0.707l-4-4c-0.195-0.195-0.512-0.195-0.707 0l-4 4c-0.195 0.195-0.195 0.512 0 0.707s0.511 0.195 0.707 0z"></path>
</svg>
