<svg version="1.1" xmlns="http://www.w3.org/2000/svg" width="16" height="16" viewBox="0 0 16 16">
<title>user-circle-o</title>
<path d="M8 0c-4.411 0-8 3.589-8 8s3.589 8 8 8 8-3.589 8-8-3.589-8-8-8zM4.5 14.053l1.261-0.558c0.657-0.291 1.089-0.93 1.194-1.67 0.335 0.102 0.681 0.175 1.045 0.175s0.71-0.073 1.045-0.176c0.105 0.74 0.538 1.379 1.195 1.67l1.261 0.558c-1.032 0.599-2.225 0.948-3.501 0.948s-2.469-0.349-3.5-0.947zM8 11c-1.654 0-3-1.57-3-3.5s1.346-3.5 3-3.5 3 1.57 3 3.5c0 1.93-1.346 3.5-3 3.5zM12.465 13.386l-1.82-0.806c-0.386-0.17-0.645-0.604-0.645-1.080v-0.126c1.19-0.781 2-2.216 2-3.874 0-2.481-1.794-4.5-4-4.5s-4 2.019-4 4.5v0c0 1.658 0.81 3.093 2 3.874v0.126c0 0.476-0.259 0.91-0.644 1.081l-1.821 0.806c-1.547-1.286-2.535-3.223-2.535-5.387 0-3.86 3.14-7 7-7s7 3.14 7 7c0 2.164-0.988 4.101-2.535 5.386z"></path>
</svg>
