<svg version="1.1" xmlns="http://www.w3.org/2000/svg" width="16" height="16" viewBox="0 0 16 16">
<title>user-pointer</title>
<path d="M6 0c-2.206 0-4 2.019-4 4.5 0 1.658 0.81 3.093 2 3.874v0.126c0 0.476-0.259 0.91-0.644 1.081l-2.117 0.937c-0.753 0.333-1.239 1.116-1.239 1.994v0.988c0 0.276 0.224 0.5 0.5 0.5s0.5-0.224 0.5-0.5v-0.988c0-0.476 0.259-0.91 0.644-1.081l2.117-0.937c0.657-0.291 1.089-0.93 1.194-1.67 0.335 0.103 0.681 0.176 1.045 0.176s0.709-0.073 1.044-0.175c0.044 0.306 0.127 0.604 0.288 0.865 0.094 0.154 0.258 0.238 0.426 0.238 0.089 0 0.18-0.024 0.261-0.074 0.236-0.144 0.31-0.452 0.165-0.687-0.121-0.196-0.184-0.427-0.184-0.667v-0.126c1.19-0.781 2-2.216 2-3.874 0-2.481-1.794-4.5-4-4.5zM9 4.5c0 1.93-1.346 3.5-3 3.5s-3-1.57-3-3.5c0-1.93 1.346-3.5 3-3.5s3 1.57 3 3.5v0z"></path>
<path d="M14.854 12.147l-3-3c-0.143-0.144-0.357-0.186-0.545-0.108-0.187 0.076-0.309 0.259-0.309 0.461v4.243c0 0.202 0.122 0.385 0.309 0.462 0.062 0.026 0.127 0.038 0.191 0.038 0.13 0 0.258-0.051 0.354-0.146l0.751-0.751 1.008 2.351c0.080 0.19 0.264 0.303 0.458 0.303 0.066 0 0.133-0.013 0.197-0.041 0.254-0.109 0.372-0.403 0.263-0.656l-0.994-2.32 0.954 0.017c0.2-0.015 0.39-0.117 0.469-0.305 0.080-0.187 0.038-0.404-0.106-0.548z"></path>
</svg>
