<svg version="1.1" xmlns="http://www.w3.org/2000/svg" width="16" height="16" viewBox="0 0 16 16">
<title>user</title>
<path d="M12.76 11.517l-2.116-0.937c-0.385-0.17-0.644-0.604-0.644-1.080v-0.126c1.19-0.781 2-2.216 2-3.874 0-2.481-1.794-4.5-4-4.5s-4 2.019-4 4.5c0 1.658 0.81 3.093 2 3.874v0.126c0 0.476-0.259 0.91-0.644 1.081l-2.117 0.937c-0.753 0.333-1.239 1.116-1.239 1.994v0.988c0 0.276 0.224 0.5 0.5 0.5s0.5-0.224 0.5-0.5v-0.988c0-0.476 0.259-0.91 0.644-1.081l2.117-0.937c0.657-0.291 1.089-0.93 1.194-1.67 0.335 0.103 0.681 0.176 1.045 0.176s0.71-0.073 1.045-0.176c0.105 0.74 0.538 1.379 1.195 1.67l2.116 0.937c0.385 0.171 0.644 0.606 0.644 1.081v0.988c0 0.276 0.224 0.5 0.5 0.5s0.5-0.224 0.5-0.5v-0.988c0-0.878-0.486-1.661-1.24-1.995zM5 5.5c0-1.93 1.346-3.5 3-3.5s3 1.57 3 3.5v0c0 1.93-1.346 3.5-3 3.5s-3-1.57-3-3.5z"></path>
</svg>
