<svg version="1.1" xmlns="http://www.w3.org/2000/svg" width="16" height="16" viewBox="0 0 16 16">
<title>user-edit</title>
<path d="M10 4.5c0-2.481-1.794-4.5-4-4.5s-4 2.019-4 4.5c0 1.658 0.81 3.093 2 3.874v0.126c0 0.476-0.259 0.91-0.644 1.081l-2.117 0.937c-0.753 0.333-1.239 1.116-1.239 1.994v0.988c0 0.276 0.224 0.5 0.5 0.5s0.5-0.224 0.5-0.5v-0.988c0-0.476 0.259-0.91 0.644-1.081l2.117-0.937c0.657-0.291 1.089-0.93 1.194-1.67 0.335 0.103 0.681 0.176 1.045 0.176s0.709-0.073 1.044-0.175c0.044 0.306 0.127 0.604 0.288 0.865 0.094 0.154 0.258 0.238 0.426 0.238 0.089 0 0.18-0.024 0.261-0.074 0.236-0.144 0.31-0.452 0.165-0.687-0.121-0.196-0.184-0.427-0.184-0.667v-0.126c1.19-0.781 2-2.216 2-3.874zM3 4.5c0-1.93 1.346-3.5 3-3.5s3 1.57 3 3.5v0c0 1.93-1.346 3.5-3 3.5s-3-1.57-3-3.5z"></path>
<path d="M15.561 9.44c0 0 0 0 0 0-0.585-0.584-1.537-0.585-2.121 0l-2.985 2.985c-0.2 0.2-0.366 0.436-0.481 0.682l-0.902 1.935c-0.126 0.271-0.080 0.574 0.118 0.771 0.122 0.123 0.287 0.187 0.458 0.187 0.104 0 0.21-0.023 0.312-0.071l1.934-0.901c0.246-0.115 0.482-0.281 0.682-0.481l2.985-2.985c0.283-0.284 0.439-0.661 0.439-1.061s-0.156-0.777-0.439-1.061zM14.854 10.854l-2.985 2.985c-0.118 0.118-0.256 0.216-0.397 0.282l-1.108 0.517 0.517-1.108c0.066-0.142 0.164-0.279 0.282-0.397l2.985-2.985c0.098-0.098 0.226-0.146 0.354-0.146s0.256 0.048 0.354 0.146c0 0 0 0 0 0 0.092 0.094 0.144 0.219 0.144 0.353 0 0.133-0.052 0.259-0.146 0.353z"></path>
</svg>
