<svg version="1.1" xmlns="http://www.w3.org/2000/svg" width="16" height="16" viewBox="0 0 16 16">
<title>user-wrench</title>
<path d="M8.184 9.167c-0.121-0.196-0.184-0.427-0.184-0.667v-0.126c1.19-0.781 2-2.216 2-3.874 0-2.481-1.794-4.5-4-4.5s-4 2.019-4 4.5c0 1.658 0.81 3.093 2 3.874v0.126c0 0.476-0.259 0.91-0.644 1.081l-2.117 0.937c-0.753 0.333-1.239 1.116-1.239 1.994v0.988c0 0.276 0.224 0.5 0.5 0.5s0.5-0.224 0.5-0.5v-0.988c0-0.476 0.259-0.91 0.644-1.081l2.117-0.937c0.657-0.291 1.089-0.93 1.194-1.67 0.335 0.103 0.681 0.176 1.045 0.176s0.709-0.073 1.044-0.175c0.044 0.306 0.127 0.604 0.288 0.865 0.094 0.154 0.258 0.238 0.426 0.238 0.089 0 0.18-0.024 0.261-0.074 0.236-0.144 0.31-0.452 0.165-0.687zM3 4.5c0-1.93 1.346-3.5 3-3.5s3 1.57 3 3.5v0c0 1.93-1.346 3.5-3 3.5s-3-1.57-3-3.5z"></path>
<path d="M15.948 10.007c-0.040-0.192-0.284-0.257-0.423-0.119l-1.435 1.435c-0.098 0.098-0.256 0.098-0.354 0l-1.061-1.060c-0.098-0.098-0.098-0.256 0-0.354l1.435-1.435c0.139-0.139 0.073-0.382-0.119-0.423-0.408-0.086-0.853-0.072-1.318 0.094-0.706 0.252-1.277 0.823-1.529 1.529-0.203 0.57-0.179 1.109-0.022 1.588 0.030 0.090 0.010 0.189-0.057 0.256l-2.729 2.732c-0.377 0.377-0.444 0.995-0.097 1.399 0.201 0.234 0.481 0.351 0.761 0.351 0.256 0 0.512-0.098 0.707-0.293l2.774-2.774c0.067-0.067 0.166-0.087 0.256-0.057 0.479 0.157 1.018 0.182 1.588-0.022 0.706-0.252 1.277-0.823 1.529-1.529 0.166-0.465 0.18-0.91 0.094-1.318z"></path>
</svg>
