<svg version="1.1" xmlns="http://www.w3.org/2000/svg" width="16" height="16" viewBox="0 0 16 16">
<title>user-headset</title>
<path d="M11 7.5c0 0.276-0.224 0.5-0.5 0.5s-0.5-0.224-0.5-0.5c0-0.276 0.224-0.5 0.5-0.5s0.5 0.224 0.5 0.5z"></path>
<path d="M15.9 9.2l-1.92-2.562c-0.054-1.060-0.342-2.084-0.841-2.999 0.615-0.421 0.955-1.16 0.84-1.939-0.144-0.969-1.029-1.7-2.061-1.7h-4.27c-4.187 0-7.471 2.873-7.641 6.682-0.111 2.495 1.128 4.88 3.233 6.223 0.476 0.302 0.76 0.787 0.76 1.296v1.299c0 0.276 0.224 0.5 0.5 0.5s0.5-0.224 0.5-0.5v-1.299c0-0.853-0.457-1.652-1.222-2.141-1.805-1.151-2.867-3.195-2.772-5.334 0.123-2.751 2.173-4.926 4.994-5.544v4.818c-1.103 0-2 0.897-2 2s0.897 2 2 2c0.37 0 0.712-0.108 1.010-0.283l2.137 2.137c0.097 0.097 0.225 0.146 0.353 0.146s0.256-0.049 0.354-0.146c0.195-0.195 0.195-0.512 0-0.707l-2.137-2.137c0.175-0.298 0.283-0.64 0.283-1.010 0-0.737-0.405-1.375-1-1.722v-5.251c0.213-0.017 0.429-0.027 0.648-0.027h4.27c0.539 0 1 0.364 1.070 0.847 0.083 0.562-0.291 0.98-0.703 1.104-0.152 0.046-0.273 0.16-0.327 0.309s-0.035 0.313 0.052 0.446c0.605 0.919 0.943 2 0.975 3.124 0.003 0.103 0.038 0.203 0.1 0.285l1.598 2.131-1.342 0.447c-0.203 0.068-0.341 0.259-0.341 0.474v1.333c0 1.379-1.122 2.5-2.5 2.5h-1c-0.276 0-0.5 0.224-0.5 0.5v1c0 0.276 0.224 0.5 0.5 0.5s0.5-0.224 0.5-0.5v-0.5h0.5c1.93 0 3.5-1.57 3.5-3.5v-0.973l1.658-0.553c0.152-0.051 0.271-0.172 0.319-0.325s0.020-0.32-0.077-0.449zM6 9c-0.551 0-1-0.448-1-1s0.449-1 1-1 1 0.448 1 1-0.449 1-1 1z"></path>
</svg>
