<svg id="Layer_1" data-name="Layer 1" xmlns="http://www.w3.org/2000/svg" width="16" height="16" viewBox="0 0 16 16"><path d="M14,13.51172V14.5a.5.5,0,0,1-1,0v-.98828a1.17277,1.17277,0,0,0-.64453-1.08057l-2.11572-.93652A2.15532,2.15532,0,0,1,9,9.5V9.1001a.49977.49977,0,0,1,.26074-.439,3.40926,3.40926,0,0,0,1.60547-2.13379.49982.49982,0,0,1,.96582.25782A4.45719,4.45719,0,0,1,10,9.3833V9.5a1.17277,1.17277,0,0,0,.64453,1.08057l2.11572.93652A2.15532,2.15532,0,0,1,14,13.51172ZM13.90332.7959l-11,15a.50022.50022,0,1,1-.80664-.5918l2.267-3.09137-.71961.31842a.4929.4929,0,0,1-.20166.043.49991.49991,0,0,1-.20263-.957L5.356,10.58057a.97938.97938,0,0,0,.30633-.23865l.18146-.24744A1.2594,1.2594,0,0,0,6,9.5V9.38379a4.58065,4.58065,0,0,1-2-3.8833A4.27742,4.27742,0,0,1,8,1a3.82579,3.82579,0,0,1,3.1842,1.812L13.09668.2041a.50022.50022,0,1,1,.80664.5918ZM10.54205,3.68774A2.917,2.917,0,0,0,8,2,3.28242,3.28242,0,0,0,5,5.49951,3.58862,3.58862,0,0,0,6.73926,8.66113l.11114.06061Z"/></svg>