<svg version="1.1" xmlns="http://www.w3.org/2000/svg" width="16" height="16" viewBox="0 0 16 16">
<title>user-md</title>
<path d="M12.463 10.423c-1.123-0.531-1.871-0.937-1.948-1.567 0.899-0.918 1.485-2.296 1.485-3.856v-3c0-1.103-0.897-2-2-2h-4c-1.103 0-2 0.897-2 2v3c0 1.56 0.586 2.938 1.485 3.856-0.077 0.63-0.825 1.036-1.948 1.567-1.189 0.561-2.537 1.198-2.537 2.577v1.5c0 0.276 0.224 0.5 0.5 0.5s0.5-0.224 0.5-0.5v-1.5c0-0.693 0.777-1.112 1.963-1.673 0.938-0.443 1.964-0.939 2.36-1.803 0.512 0.298 1.076 0.476 1.677 0.476s1.165-0.178 1.677-0.476c0.396 0.864 1.422 1.36 2.36 1.803 1.186 0.561 1.963 0.98 1.963 1.673v1.5c0 0.276 0.224 0.5 0.5 0.5s0.5-0.224 0.5-0.5v-1.5c0-1.379-1.348-2.016-2.537-2.577zM6 1h4c0.551 0 1 0.448 1 1v1.938h-6v-1.938c0-0.552 0.449-1 1-1zM5 5v-0.062h6v0.062c0 2.206-1.346 4-3 4s-3-1.794-3-4z"></path>
<path d="M11 12h-1v1h-1v1h1v1h1v-1h1v-1h-1z"></path>
</svg>
