<svg version="1.1" xmlns="http://www.w3.org/2000/svg" width="16" height="16" viewBox="0 0 16 16">
<title>user-heart</title>
<path d="M10 4.5c0-2.481-1.794-4.5-4-4.5s-4 2.019-4 4.5c0 1.658 0.81 3.093 2 3.874v0.126c0 0.476-0.259 0.91-0.644 1.081l-2.117 0.937c-0.753 0.333-1.239 1.116-1.239 1.994v0.988c0 0.276 0.224 0.5 0.5 0.5s0.5-0.224 0.5-0.5v-0.988c0-0.476 0.259-0.91 0.644-1.081l2.117-0.937c0.657-0.291 1.089-0.93 1.194-1.67 0.335 0.103 0.681 0.176 1.045 0.176s0.709-0.073 1.044-0.175c0.044 0.306 0.127 0.604 0.288 0.865 0.094 0.154 0.258 0.238 0.426 0.238 0.089 0 0.18-0.024 0.261-0.074 0.236-0.144 0.31-0.452 0.165-0.687-0.121-0.196-0.184-0.427-0.184-0.667v-0.126c1.19-0.781 2-2.216 2-3.874zM3 4.5c0-1.93 1.346-3.5 3-3.5s3 1.57 3 3.5v0c0 1.93-1.346 3.5-3 3.5s-3-1.57-3-3.5z"></path>
<path d="M15.416 10.569c-0.772-0.757-2.028-0.756-2.799 0l-0.117 0.114-0.116-0.114c-0.772-0.757-2.028-0.756-2.799 0-0.377 0.37-0.585 0.862-0.585 1.386s0.208 1.017 0.584 1.386l2.565 2.516c0.098 0.095 0.225 0.143 0.351 0.143s0.253-0.048 0.35-0.143l2.565-2.516c0.377-0.369 0.585-0.862 0.585-1.386s-0.208-1.016-0.584-1.386zM14.715 12.627l-2.215 2.173-2.215-2.172c-0.184-0.181-0.285-0.42-0.285-0.673s0.101-0.492 0.285-0.672c0.193-0.189 0.446-0.284 0.7-0.284s0.506 0.095 0.699 0.284l0.466 0.458c0.194 0.19 0.506 0.19 0.7 0l0.466-0.458c0.386-0.377 1.013-0.378 1.399 0 0.184 0.18 0.285 0.419 0.285 0.672s-0.101 0.492-0.285 0.672z"></path>
</svg>
