<svg id="Layer_1" data-name="Layer 1" xmlns="http://www.w3.org/2000/svg" width="16" height="16" viewBox="0 0 16 16"><path d="M12.5,13.5a.5.5,0,0,1-.5.5H11v1a.5.5,0,0,1-1,0V14H9a.5.5,0,0,1,0-1h1V12a.5.5,0,0,1,1,0v1h1A.5.5,0,0,1,12.5,13.5Zm3.5-.39V15.5a.5.5,0,0,1-1,0V13.11a2,2,0,0,0-1.172-1.821L9.836,9.474a3.467,3.467,0,0,1-3.672,0L2.172,11.289A2,2,0,0,0,1,13.11V15.5a.5.5,0,0,1-1,0V13.11a3,3,0,0,1,1.758-2.731l3.521-1.6A4.748,4.748,0,0,1,4,5.5V2A2,2,0,0,1,6,0h4a2,2,0,0,1,2,2V5.5a4.748,4.748,0,0,1-1.279,3.279l3.521,1.6A3,3,0,0,1,16,13.11ZM5,2V3.687a7.025,7.025,0,0,1,6,0V2a1,1,0,0,0-1-1H6A1,1,0,0,0,5,2ZM8,9a3.283,3.283,0,0,0,3-3.5V4.806a6.1,6.1,0,0,0-6,0V5.5A3.283,3.283,0,0,0,8,9Z"/></svg>