<svg version="1.1" xmlns="http://www.w3.org/2000/svg" width="16" height="16" viewBox="0 0 16 16">
<title>user-circle</title>
<path d="M8 0c-4.411 0-8 3.589-8 8s3.589 8 8 8 8-3.589 8-8-3.589-8-8-8zM8 4c1.654 0 3 1.57 3 3.5s-1.346 3.5-3 3.5-3-1.57-3-3.5c0-1.93 1.346-3.5 3-3.5zM8 15c-1.491 0-2.871-0.472-4.008-1.269l1.566-0.693c0.523-0.232 0.866-0.769 0.92-1.38 0.47 0.218 0.983 0.342 1.522 0.342s1.052-0.124 1.522-0.342c0.054 0.611 0.397 1.148 0.92 1.38l1.566 0.693c-1.137 0.797-2.517 1.269-4.008 1.269z"></path>
</svg>
