<svg version="1.1" xmlns="http://www.w3.org/2000/svg" width="16" height="16" viewBox="0 0 16 16">
<title>user-man</title>
<path d="M13.11 11.678l-2.467-1.101c-0.385-0.17-0.643-0.604-0.643-1.079v-0.334c0-0.149 0.055-0.247 0.178-0.452 0.176-0.292 0.408-0.679 0.46-1.381 0.41-0.3 0.662-0.795 0.662-1.339 0-0.353-0.105-0.689-0.3-0.969v-1.026c0-1.654-1.234-3-2.75-3-0.548 0-1.083 0.184-1.536 0.521-0.066-0.013-0.138-0.021-0.214-0.021-0.827 0-1.5 0.77-1.5 1.716v1.811c-0.194 0.279-0.3 0.616-0.3 0.968 0 0.543 0.252 1.039 0.663 1.338 0.051 0.704 0.284 1.092 0.459 1.384 0.124 0.206 0.178 0.303 0.178 0.453v0.333c0 0.476-0.259 0.91-0.646 1.081l-2.465 1.1c-0.54 0.241-0.889 0.778-0.889 1.37v1.449c0 0.133 0.053 0.26 0.146 0.354s0.223 0.146 0.355 0.146l10.998-0.003c0.276 0 0.5-0.224 0.5-0.5v-1.449c0-0.591-0.349-1.129-0.889-1.37zM12.999 13.997l-9.998 0.003v-0.949c0-0.197 0.116-0.376 0.296-0.457l2.464-1.1c0.753-0.333 1.239-1.116 1.239-1.996v-0.333c0-0.432-0.17-0.715-0.32-0.965-0.168-0.28-0.327-0.545-0.327-1.162 0-0.199-0.118-0.379-0.3-0.458-0.211-0.092-0.353-0.328-0.353-0.588 0-0.175 0.061-0.338 0.171-0.459 0.083-0.093 0.129-0.212 0.129-0.336v-1.984c0-0.388 0.229-0.716 0.5-0.716 0.023 0 0.067 0.014 0.13 0.041 0.182 0.077 0.391 0.040 0.535-0.095 0.219-0.203 0.585-0.446 1.085-0.446 0.965 0 1.75 0.897 1.75 2v1.2c0 0.124 0.046 0.244 0.129 0.336 0.11 0.121 0.17 0.284 0.17 0.459 0 0.26-0.142 0.496-0.352 0.587-0.183 0.080-0.3 0.26-0.3 0.458 0 0.614-0.159 0.878-0.327 1.159-0.15 0.251-0.32 0.534-0.32 0.967v0.334c0 0.878 0.486 1.661 1.238 1.994l2.465 1.1c0.18 0.081 0.297 0.26 0.297 0.457v0.949z"></path>
</svg>
