<svg version="1.1" xmlns="http://www.w3.org/2000/svg" width="16" height="16" viewBox="0 0 16 16">
<title>users-chat</title>
<path d="M6.11 12.139l-0.491-0.327c0.237-0.383 0.381-0.83 0.381-1.312 0-1.378-1.122-2.5-2.5-2.5s-2.5 1.122-2.5 2.5c0 0.482 0.144 0.929 0.381 1.311l-0.491 0.328c-0.557 0.372-0.89 0.994-0.89 1.663v0.695c0 0.276 0.224 0.5 0.5 0.5s0.5-0.224 0.5-0.5v-0.695c0-0.335 0.167-0.646 0.445-0.832l0.631-0.421c0.405 0.283 0.894 0.451 1.424 0.451s1.019-0.168 1.424-0.45l0.631 0.421c0.278 0.186 0.445 0.496 0.445 0.831v0.695c0 0.276 0.224 0.5 0.5 0.5s0.5-0.224 0.5-0.5v-0.695c0-0.669-0.333-1.291-0.89-1.663zM2 10.5c0-0.827 0.673-1.5 1.5-1.5s1.5 0.673 1.5 1.5-0.673 1.5-1.5 1.5-1.5-0.673-1.5-1.5z"></path>
<path d="M15.11 12.139l-0.491-0.327c0.237-0.383 0.381-0.83 0.381-1.312 0-1.378-1.122-2.5-2.5-2.5s-2.5 1.122-2.5 2.5c0 0.482 0.144 0.929 0.381 1.311l-0.491 0.328c-0.557 0.372-0.89 0.994-0.89 1.663v0.695c0 0.276 0.224 0.5 0.5 0.5s0.5-0.224 0.5-0.5v-0.695c0-0.335 0.167-0.646 0.445-0.832l0.631-0.421c0.405 0.283 0.894 0.451 1.424 0.451s1.019-0.168 1.424-0.45l0.631 0.421c0.278 0.186 0.445 0.496 0.445 0.831v0.695c0 0.276 0.224 0.5 0.5 0.5s0.5-0.224 0.5-0.5v-0.695c0-0.669-0.333-1.291-0.89-1.663zM11 10.5c0-0.827 0.673-1.5 1.5-1.5s1.5 0.673 1.5 1.5-0.673 1.5-1.5 1.5-1.5-0.673-1.5-1.5z"></path>
<path d="M9 6h4c1.103 0 2-0.897 2-2v-2c0-1.103-0.897-2-2-2h-10c-1.103 0-2 0.897-2 2v2c0 1.103 0.897 2 2 2h2.293l2.854 2.854c0.095 0.095 0.223 0.146 0.353 0.146 0.064 0 0.129-0.012 0.191-0.038 0.187-0.077 0.309-0.26 0.309-0.462v-2.5zM8.5 5c-0.276 0-0.5 0.224-0.5 0.5v1.793l-2.146-2.147c-0.094-0.093-0.221-0.146-0.354-0.146h-2.5c-0.551 0-1-0.449-1-1v-2c0-0.551 0.449-1 1-1h10c0.551 0 1 0.449 1 1v2c0 0.551-0.449 1-1 1h-4.5z"></path>
</svg>
