<svg version="1.1" xmlns="http://www.w3.org/2000/svg" width="16" height="16" viewBox="0 0 16 16">
<title>user-play</title>
<path d="M10 4.5c0-2.481-1.794-4.5-4-4.5s-4 2.019-4 4.5c0 1.658 0.81 3.093 2 3.874v0.126c0 0.476-0.259 0.91-0.644 1.081l-2.117 0.937c-0.753 0.333-1.239 1.116-1.239 1.994v0.988c0 0.276 0.224 0.5 0.5 0.5s0.5-0.224 0.5-0.5v-0.988c0-0.476 0.259-0.91 0.644-1.081l2.117-0.937c0.657-0.291 1.089-0.93 1.194-1.67 0.335 0.103 0.681 0.176 1.045 0.176s0.709-0.073 1.044-0.175c0.044 0.306 0.127 0.604 0.288 0.865 0.094 0.154 0.258 0.238 0.426 0.238 0.089 0 0.18-0.024 0.261-0.074 0.236-0.144 0.31-0.452 0.165-0.687-0.121-0.196-0.184-0.427-0.184-0.667v-0.126c1.19-0.781 2-2.216 2-3.874zM3 4.5c0-1.93 1.346-3.5 3-3.5s3 1.57 3 3.5v0c0 1.93-1.346 3.5-3 3.5s-3-1.57-3-3.5z"></path>
<path d="M15.724 12.553l-5-2.5c-0.155-0.078-0.339-0.070-0.486 0.022-0.148 0.091-0.238 0.252-0.238 0.425v5c0 0.173 0.090 0.334 0.237 0.425 0.080 0.050 0.172 0.075 0.263 0.075 0.077 0 0.153-0.018 0.224-0.053l5-2.5c0.169-0.085 0.276-0.258 0.276-0.447s-0.107-0.362-0.276-0.447zM11 14.691v-3.382l3.382 1.691-3.382 1.691z"></path>
</svg>
