<svg version="1.1" xmlns="http://www.w3.org/2000/svg" width="16" height="16" viewBox="0 0 16 16">
<title>user-graduate</title>
<path d="M12.463 10.423c-1.123-0.531-1.871-0.937-1.948-1.567 0.899-0.918 1.485-2.296 1.485-3.856 0-0.443-0.018-0.829-0.044-1.194l2.691-0.828c0.21-0.065 0.353-0.258 0.353-0.478s-0.143-0.413-0.353-0.478l-6.5-2c-0.096-0.029-0.198-0.029-0.294 0l-6.5 2c-0.006 0.002-0.009 0.009-0.015 0.011-0.090 0.031-0.164 0.085-0.222 0.157-0.011 0.014-0.018 0.028-0.028 0.043-0.050 0.076-0.084 0.162-0.085 0.259 0 0.003-0.003 0.005-0.003 0.008 0 0.001 0.001 0.001 0.001 0.002s-0.001 0.003-0.001 0.004l0.036 3c0.003 0.274 0.226 0.494 0.5 0.494 0.002 0 0.004 0 0.006 0 0.276-0.003 0.498-0.229 0.494-0.506l-0.028-2.315 2.036 0.626c-0.026 0.366-0.044 0.752-0.044 1.195 0 1.56 0.586 2.938 1.485 3.856-0.077 0.63-0.825 1.036-1.948 1.567-1.189 0.561-2.537 1.198-2.537 2.577v1.5c0 0.276 0.224 0.5 0.5 0.5s0.5-0.224 0.5-0.5v-1.5c0-0.693 0.777-1.112 1.963-1.673 0.938-0.443 1.964-0.939 2.36-1.803 0.512 0.298 1.076 0.476 1.677 0.476s1.165-0.178 1.677-0.476c0.396 0.864 1.422 1.36 2.36 1.803 1.186 0.561 1.963 0.98 1.963 1.673v1.5c0 0.276 0.224 0.5 0.5 0.5s0.5-0.224 0.5-0.5v-1.5c0-1.379-1.348-2.016-2.537-2.577zM8 1.023l4.8 1.477-4.8 1.477-4.8-1.477 4.8-1.477zM5 5c0-0.325 0.011-0.615 0.026-0.892l2.827 0.87c0.048 0.014 0.097 0.022 0.147 0.022s0.099-0.008 0.147-0.022l2.827-0.87c0.015 0.277 0.026 0.567 0.026 0.892 0 2.206-1.346 4-3 4s-3-1.794-3-4z"></path>
</svg>
