<svg id="Layer_1" data-name="Layer 1" xmlns="http://www.w3.org/2000/svg" width="16" height="16" viewBox="0 0 16 16"><path d="M11.9,12.638l-1.33-.67a1,1,0,0,1-.382-.339l-.06-.09A3.381,3.381,0,0,0,11,9.25,3.136,3.136,0,0,0,8,6,3.136,3.136,0,0,0,5,9.25a3.381,3.381,0,0,0,.873,2.289l-.06.09a1,1,0,0,1-.382.339l-1.33.67A1.989,1.989,0,0,0,3,14.424V15.5a.5.5,0,0,0,1,0V14.424a.994.994,0,0,1,.551-.893l1.329-.669a2,2,0,0,0,.765-.678l.024-.036a2.692,2.692,0,0,0,2.662,0l.024.036a2,2,0,0,0,.765.678l1.33.669a1,1,0,0,1,.55.893V15.5a.5.5,0,0,0,1,0V14.424A1.989,1.989,0,0,0,11.9,12.638ZM6,9.25A2.138,2.138,0,0,1,8,7a2.138,2.138,0,0,1,2,2.25A2.138,2.138,0,0,1,8,11.5,2.138,2.138,0,0,1,6,9.25ZM3.551,5.292A2.3,2.3,0,0,0,4.5,5.5,2.637,2.637,0,0,0,7,2.75,2.637,2.637,0,0,0,4.5,0,2.637,2.637,0,0,0,2,2.75a2.881,2.881,0,0,0,.747,1.956,1,1,0,0,1-.317.262L1.1,5.638A1.989,1.989,0,0,0,0,7.424V8.5a.5.5,0,0,0,1,0V7.424a1,1,0,0,1,.55-.893l1.33-.669A1.992,1.992,0,0,0,3.551,5.292ZM4.5,1A1.641,1.641,0,0,1,6,2.75,1.641,1.641,0,0,1,4.5,4.5,1.641,1.641,0,0,1,3,2.75,1.641,1.641,0,0,1,4.5,1ZM14.9,5.638l-1.33-.67a.993.993,0,0,1-.315-.262A2.881,2.881,0,0,0,14,2.75,2.637,2.637,0,0,0,11.5,0,2.637,2.637,0,0,0,9,2.75,2.637,2.637,0,0,0,11.5,5.5a2.3,2.3,0,0,0,.949-.208,1.992,1.992,0,0,0,.671.57l1.33.669a1,1,0,0,1,.55.893V8.5a.5.5,0,0,0,1,0V7.424A1.989,1.989,0,0,0,14.9,5.638ZM10,2.75A1.641,1.641,0,0,1,11.5,1,1.641,1.641,0,0,1,13,2.75,1.641,1.641,0,0,1,11.5,4.5,1.641,1.641,0,0,1,10,2.75Z"/></svg>