<svg version="1.1" xmlns="http://www.w3.org/2000/svg" width="16" height="16" viewBox="0 0 16 16">
<title>user-secret</title>
<path d="M13.675 12.14c0.325-0.303 0.688-0.578 1.087-0.823 0.131-0.080 0.218-0.217 0.235-0.37s-0.038-0.307-0.148-0.414c-1.009-0.983-2.389-1.579-3.457-1.93 0.296-0.599 0.485-1.279 0.556-2.009 1.773-0.405 3.052-1.106 3.052-2.094 0-1.313-2.082-1.927-3.534-2.198l-0.481-1.924c-0.041-0.165-0.164-0.298-0.325-0.353s-0.34-0.022-0.472 0.083l-2.188 1.751-2.188-1.75c-0.133-0.105-0.313-0.137-0.472-0.083-0.161 0.055-0.284 0.188-0.325 0.353l-0.481 1.923c-1.452 0.271-3.534 0.885-3.534 2.198 0 0.988 1.279 1.689 3.052 2.094 0.071 0.73 0.26 1.41 0.556 2.009-1.068 0.351-2.448 0.947-3.457 1.929-0.111 0.107-0.166 0.261-0.148 0.414s0.104 0.29 0.235 0.37c0.399 0.246 0.762 0.521 1.087 0.824-0.742 0.43-1.325 0.985-1.325 1.86v0.5c0 0.276 0.224 0.5 0.5 0.5s0.5-0.224 0.5-0.5v-0.5c0-0.45 0.382-0.808 1.364-1.274 0.142-0.066 0.243-0.196 0.275-0.349s-0.009-0.312-0.112-0.431c-0.352-0.404-0.754-0.773-1.203-1.104 0.72-0.545 1.697-1.021 2.817-1.368 0.728 0.937 1.74 1.526 2.859 1.526s2.131-0.589 2.858-1.525c1.12 0.347 2.097 0.823 2.817 1.368-0.449 0.33-0.852 0.699-1.203 1.104-0.103 0.118-0.144 0.277-0.112 0.431 0.032 0.152 0.133 0.282 0.275 0.349 0.983 0.465 1.365 0.823 1.365 1.273v0.5c0 0.276 0.224 0.5 0.5 0.5s0.5-0.224 0.5-0.5v-0.5c0-0.875-0.583-1.43-1.325-1.86zM2 4.5c0-0.213 0.589-0.746 2.266-1.124l-0.251 1.003c-0.067 0.267 0.096 0.539 0.364 0.606 0.267 0.065 0.539-0.096 0.606-0.364l0.811-3.244 1.892 1.514c0.183 0.146 0.442 0.146 0.625 0l1.892-1.514 0.811 3.244c0.056 0.228 0.259 0.379 0.484 0.379 0.040 0 0.081-0.005 0.122-0.015 0.268-0.067 0.431-0.339 0.364-0.606l-0.251-1.003c1.676 0.378 2.265 0.911 2.265 1.124 0 0.529-2.278 1.5-6 1.5s-6-0.971-6-1.5zM8 10c-1.445 0-2.659-1.387-2.935-3.215 0.926 0.141 1.931 0.215 2.935 0.215s2.009-0.074 2.935-0.215c-0.276 1.828-1.49 3.215-2.935 3.215z"></path>
</svg>
