<svg version="1.1" xmlns="http://www.w3.org/2000/svg" width="16" height="16" viewBox="0 0 16 16">
<title>user-woman</title>
<path d="M12.045 11.542l-1.801-1.062c-0.151-0.090-0.246-0.255-0.246-0.431v-0.081c0.927-0.105 1.806-0.504 2.517-1.149 0.166-0.15 0.211-0.392 0.112-0.592l-0.104-0.209c-0.272-0.556-0.394-1.128-0.394-1.855 0-3.042-1.697-5.166-4.128-5.166s-4.128 2.124-4.128 5.165c0 0.728-0.122 1.3-0.392 1.852l-0.106 0.212c-0.1 0.2-0.055 0.443 0.111 0.593 0.71 0.645 1.589 1.043 2.516 1.149v0.082c0 0.176-0.094 0.341-0.246 0.431l-1.802 1.063c-0.578 0.342-0.952 1.114-0.952 1.969v0.987c0 0.133 0.053 0.26 0.146 0.354s0.222 0.146 0.354 0.146l8.996-0.001c0.276 0 0.5-0.224 0.5-0.5v-0.988c0-0.854-0.374-1.627-0.953-1.969zM11.998 13.999l-7.996 0.001v-0.488c0-0.574 0.239-0.977 0.46-1.107l1.802-1.063c0.455-0.269 0.737-0.764 0.737-1.292v-0.554c0-0.276-0.224-0.499-0.5-0.499-0.737 0-1.455-0.241-2.056-0.684 0.292-0.647 0.428-1.336 0.428-2.151 0-2.073 0.967-4.166 3.128-4.166s3.128 2.092 3.128 4.166c0 0.813 0.136 1.501 0.428 2.15-0.601 0.443-1.319 0.684-2.056 0.684-0.275 0-0.499 0.222-0.5 0.498l-0.003 0.552c0 0 0 0.001 0 0.002 0 0.528 0.283 1.023 0.738 1.292l1.801 1.063c0.222 0.131 0.461 0.533 0.461 1.107v0.489z"></path>
</svg>
