<svg version="1.1" xmlns="http://www.w3.org/2000/svg" width="16" height="16" viewBox="0 0 16 16">
<title>variable</title>
<path d="M10.312 5.109c-0.216-0.172-0.53-0.135-0.703 0.078l-1.609 2.012-1.609-2.011c-0.174-0.215-0.487-0.251-0.703-0.079-0.215 0.173-0.25 0.487-0.078 0.703l1.749 2.188-1.75 2.188c-0.172 0.216-0.137 0.53 0.078 0.703 0.093 0.073 0.203 0.109 0.313 0.109 0.147 0 0.292-0.064 0.391-0.188l1.609-2.011 1.609 2.012c0.099 0.123 0.245 0.187 0.391 0.187 0.109 0 0.22-0.036 0.312-0.109 0.215-0.173 0.25-0.487 0.078-0.703l-1.749-2.188 1.75-2.188c0.172-0.215 0.137-0.53-0.079-0.703z"></path>
<path d="M14.48 2.291c-0.139-0.238-0.444-0.318-0.684-0.179-0.238 0.139-0.318 0.446-0.179 0.684 0.904 1.548 1.383 3.348 1.383 5.204 0 1.896-0.494 3.724-1.427 5.287-0.142 0.237-0.064 0.544 0.173 0.686 0.080 0.048 0.168 0.071 0.256 0.071 0.17 0 0.336-0.087 0.43-0.244 1.026-1.718 1.568-3.723 1.568-5.8 0-2.034-0.525-4.008-1.52-5.709z"></path>
<path d="M1 8c0-1.856 0.479-3.656 1.385-5.205 0.139-0.238 0.059-0.544-0.179-0.684-0.238-0.139-0.544-0.060-0.684 0.179-0.996 1.702-1.522 3.677-1.522 5.71 0 2.076 0.543 4.082 1.571 5.8 0.094 0.156 0.26 0.243 0.43 0.243 0.087 0 0.176-0.023 0.256-0.071 0.237-0.142 0.314-0.449 0.172-0.686-0.935-1.562-1.429-3.39-1.429-5.286z"></path>
</svg>
