<svg version="1.1" xmlns="http://www.w3.org/2000/svg" width="16" height="16" viewBox="0 0 16 16">
<title>venus</title>
<path d="M13 5.497c0-2.481-2.019-4.5-4.5-4.5s-4.5 2.018-4.5 4.5c0 2.31 1.756 4.197 4 4.449v2.054h-1.5c-0.276 0-0.5 0.224-0.5 0.5s0.224 0.5 0.5 0.5h1.5v1.497c0 0.276 0.224 0.5 0.5 0.5s0.5-0.224 0.5-0.5v-1.497h1.5c0.276 0 0.5-0.224 0.5-0.5s-0.224-0.5-0.5-0.5h-1.5v-2.054c2.244-0.252 4-2.139 4-4.449zM5 5.497c0-1.93 1.57-3.5 3.5-3.5s3.5 1.57 3.5 3.5-1.57 3.5-3.5 3.5-3.5-1.571-3.5-3.5z"></path>
</svg>
