<svg version="1.1" xmlns="http://www.w3.org/2000/svg" width="16" height="16" viewBox="0 0 16 16">
<title>venus-double</title>
<path d="M15 6.5c0-2.481-2.019-4.5-4.5-4.5-0.406 0-0.793 0.072-1.168 0.173-0.79-1.297-2.205-2.173-3.832-2.173-2.481 0-4.5 2.019-4.5 4.5 0 2.31 1.756 4.197 4 4.449v2.054h-1.5c-0.276 0-0.5 0.224-0.5 0.5s0.224 0.5 0.5 0.5h1.5v1.497c0 0.276 0.224 0.5 0.5 0.5s0.5-0.224 0.5-0.5v-1.497h1.5c0.276 0 0.5-0.224 0.5-0.5s-0.224-0.5-0.5-0.5h-1.5v-2.054c0.228-0.026 0.451-0.064 0.668-0.122 0.707 1.16 1.918 1.963 3.332 2.122v2.054h-1.5c-0.276 0-0.5 0.224-0.5 0.5s0.224 0.5 0.5 0.5h1.5v1.497c0 0.276 0.224 0.5 0.5 0.5s0.5-0.224 0.5-0.5v-1.497h1.5c0.276 0 0.5-0.224 0.5-0.5s-0.224-0.5-0.5-0.5h-1.5v-2.054c2.244-0.252 4-2.139 4-4.449zM5.5 8c-1.93 0-3.5-1.57-3.5-3.5s1.57-3.5 3.5-3.5c1.206 0 2.271 0.613 2.901 1.544-1.421 0.757-2.401 2.237-2.401 3.956 0 0.497 0.1 0.967 0.25 1.415-0.242 0.053-0.492 0.085-0.75 0.085zM9 4.5c0 1.318-0.741 2.455-1.821 3.052-0.106-0.335-0.179-0.683-0.179-1.052 0-1.318 0.741-2.455 1.821-3.052 0.106 0.335 0.179 0.683 0.179 1.052zM7.599 8.456c1.421-0.757 2.401-2.237 2.401-3.956 0-0.497-0.1-0.967-0.25-1.415 0.242-0.053 0.492-0.085 0.75-0.085 1.93 0 3.5 1.57 3.5 3.5s-1.57 3.5-3.5 3.5c-1.206 0-2.271-0.613-2.901-1.544z"></path>
</svg>
