<svg version="1.1" xmlns="http://www.w3.org/2000/svg" width="16" height="16" viewBox="0 0 16 16">
<title>venus-mars</title>
<path d="M15.962 0.309c-0.051-0.122-0.148-0.22-0.271-0.271l-0.191-0.038h-3c-0.276 0-0.5 0.224-0.5 0.5s0.224 0.5 0.5 0.5h1.793l-1.998 1.998c-0.77-0.617-1.734-1.001-2.795-1.001-0.926 0-1.787 0.282-2.503 0.763-0.715-0.479-1.574-0.76-2.497-0.76-2.481 0-4.5 2.019-4.5 4.5 0 2.31 1.756 4.197 4 4.449v2.054h-1.5c-0.276 0-0.5 0.224-0.5 0.5s0.224 0.5 0.5 0.5h1.5v1.497c0 0.276 0.224 0.5 0.5 0.5s0.5-0.224 0.5-0.5v-1.497h1.5c0.276 0 0.5-0.224 0.5-0.5s-0.224-0.5-0.5-0.5h-1.5v-2.054c0.733-0.082 1.419-0.321 2.003-0.713 0.715 0.479 1.573 0.76 2.497 0.76 2.481 0 4.5-2.019 4.5-4.5 0-1.060-0.383-2.022-0.998-2.791l1.998-1.998v1.793c0 0.276 0.224 0.5 0.5 0.5s0.5-0.224 0.5-0.5v-3l-0.038-0.191zM7.001 8.94c-0.617-0.631-1.001-1.493-1.001-2.443s0.383-1.809 0.999-2.44c0.617 0.631 1.001 1.492 1.001 2.443 0 0.949-0.383 1.809-0.999 2.44zM1 6.5c0-1.93 1.57-3.5 3.5-3.5 0.62 0 1.195 0.176 1.701 0.46-0.739 0.802-1.201 1.863-1.201 3.037 0 1.176 0.464 2.239 1.204 3.041-0.506 0.285-1.082 0.462-1.704 0.462-1.93 0-3.5-1.57-3.5-3.5zM9.5 9.997c-0.62 0-1.195-0.176-1.701-0.46 0.739-0.802 1.201-1.863 1.201-3.037 0-1.176-0.464-2.239-1.204-3.041 0.506-0.286 1.082-0.462 1.704-0.462 1.93 0 3.5 1.57 3.5 3.5s-1.57 3.5-3.5 3.5z"></path>
</svg>
