<svg version="1.1" xmlns="http://www.w3.org/2000/svg" width="16" height="16" viewBox="0 0 16 16">
<title>video-camera</title>
<path d="M15.5 6h-1c-0.078 0-0.154 0.019-0.224 0.053l-2.276 1.138v-1.191c0-1.103-0.897-2-2-2h-8c-1.103 0-2 0.897-2 2v6c0 1.103 0.897 2 2 2h8c1.103 0 2-0.897 2-2v-1.191l2.276 1.138c0.070 0.034 0.146 0.053 0.224 0.053h1c0.276 0 0.5-0.224 0.5-0.5v-5c0-0.276-0.224-0.5-0.5-0.5zM11 12c0 0.552-0.449 1-1 1h-8c-0.551 0-1-0.448-1-1v-6c0-0.552 0.449-1 1-1h8c0.551 0 1 0.448 1 1v6zM15 11h-0.382l-2.618-1.309v-1.382l2.618-1.309h0.382v4zM7.5 3h2c0.276 0 0.5-0.224 0.5-0.5s-0.224-0.5-0.5-0.5h-2c-0.276 0-0.5 0.224-0.5 0.5s0.224 0.5 0.5 0.5z"></path>
</svg>
