<svg version="1.1" xmlns="http://www.w3.org/2000/svg" width="16" height="16" viewBox="0 0 16 16">
<title>volume-control-phone</title>
<path d="M12.657 2.343c-0.090-0.087-0.212-0.14-0.347-0.14-0.276 0-0.5 0.224-0.5 0.5 0 0.135 0.054 0.258 0.14 0.348l-0-0c1.267 1.267 2.050 3.017 2.050 4.95s-0.784 3.683-2.050 4.95v0c-0.087 0.090-0.14 0.212-0.14 0.347 0 0.276 0.224 0.5 0.5 0.5 0.135 0 0.258-0.054 0.348-0.14l-0 0c1.448-1.448 2.343-3.448 2.343-5.657s-0.895-4.209-2.343-5.657v0z"></path>
<path d="M10.536 4.464c-0.090-0.087-0.212-0.14-0.347-0.14-0.276 0-0.5 0.224-0.5 0.5 0 0.135 0.054 0.258 0.14 0.348l-0-0c0.723 0.725 1.169 1.725 1.169 2.829s-0.447 2.104-1.169 2.829l0-0c-0.087 0.090-0.14 0.212-0.14 0.347 0 0.276 0.224 0.5 0.5 0.5 0.135 0 0.258-0.054 0.348-0.14l-0 0c0.903-0.906 1.462-2.156 1.462-3.536s-0.558-2.63-1.462-3.536l0 0z"></path>
<path d="M5.794 6c0 0 0 0 0 0 0.235 0 0.433-0.163 0.486-0.382l0.001-0.003c0.285-1.189 0.734-2.237 1.331-3.183l-0.025 0.043c0.048-0.075 0.076-0.167 0.076-0.265 0-0.174-0.089-0.327-0.224-0.417l-0.002-0.001-2.663-1.745c-0.077-0.051-0.172-0.082-0.274-0.082-0.144 0-0.273 0.060-0.364 0.157l-0 0c-1.942 2.049-3.136 4.824-3.136 7.877s1.194 5.828 3.141 7.882l-0.005-0.005c0.091 0.097 0.221 0.157 0.364 0.157 0 0 0 0 0 0h-0c0.102-0 0.197-0.030 0.276-0.082l-0.002 0.001 2.663-1.745c0.137-0.091 0.226-0.244 0.226-0.418 0-0.098-0.028-0.19-0.077-0.267l0.001 0.002c-0.572-0.903-1.021-1.951-1.291-3.069l-0.015-0.071c-0.054-0.222-0.251-0.385-0.487-0.385-0 0-0 0-0 0h-1.52c-0.174-0.599-0.274-1.288-0.274-2s0.1-1.401 0.287-2.052l-0.013 0.052zM3.429 10.656c0.067 0.2 0.252 0.342 0.471 0.344h1.5c0.276 1.002 0.646 1.877 1.112 2.69l-0.029-0.056-1.9 1.248c-1.604-1.829-2.583-4.241-2.583-6.882s0.979-5.053 2.593-6.894l-0.010 0.012 1.906 1.249c-0.437 0.756-0.807 1.631-1.064 2.553l-0.019 0.080h-1.506c-0.22 0-0.407 0.143-0.474 0.34l-0.001 0.004c-0.272 0.793-0.429 1.706-0.429 2.656s0.157 1.863 0.447 2.715l-0.018-0.059z"></path>
</svg>
