<svg version="1.1" xmlns="http://www.w3.org/2000/svg" width="16" height="16" viewBox="0 0 16 16">
<title>volume-up</title>
<path d="M13.575 2.146c-0.195-0.195-0.512-0.195-0.707 0s-0.195 0.512 0 0.707c1.375 1.376 2.132 3.203 2.132 5.147s-0.757 3.771-2.132 5.146c-0.195 0.195-0.195 0.512 0 0.707 0.098 0.098 0.226 0.147 0.354 0.147s0.256-0.049 0.354-0.146c1.563-1.564 2.424-3.642 2.424-5.854s-0.861-4.29-2.425-5.854zM10.989 3.146c-0.195-0.195-0.512-0.195-0.707 0s-0.195 0.512 0 0.707c2.286 2.286 2.286 6.007 0 8.293-0.195 0.195-0.195 0.512 0 0.707 0.098 0.098 0.226 0.147 0.354 0.147s0.256-0.049 0.354-0.146c2.676-2.676 2.676-7.032-0.001-9.708zM7.696 4.146c-0.195 0.195-0.195 0.512 0 0.707 0.841 0.841 1.304 1.959 1.304 3.147s-0.463 2.306-1.304 3.146c-0.195 0.195-0.195 0.512 0 0.707 0.098 0.098 0.226 0.147 0.354 0.147s0.256-0.049 0.354-0.146c1.029-1.030 1.596-2.398 1.596-3.854s-0.567-2.824-1.597-3.854c-0.195-0.195-0.511-0.195-0.707 0zM5.691 3.038c-0.184-0.077-0.401-0.035-0.545 0.108l-2.853 2.854h-1.793c-0.276 0-0.5 0.224-0.5 0.5v3c0 0.276 0.224 0.5 0.5 0.5h1.793l2.854 2.854c0.095 0.095 0.223 0.146 0.353 0.146l0.191-0.038c0.187-0.077 0.309-0.26 0.309-0.462v-9c0-0.202-0.122-0.385-0.309-0.462z"></path>
</svg>
