<svg version="1.1" xmlns="http://www.w3.org/2000/svg" width="16" height="16" viewBox="0 0 16 16">
<title>volume-down</title>
<path d="M11.404 4.146c-0.195-0.195-0.512-0.195-0.707 0s-0.195 0.512 0 0.707c0.84 0.841 1.303 1.959 1.303 3.147s-0.463 2.306-1.303 3.146c-0.195 0.195-0.195 0.512 0 0.707 0.097 0.098 0.225 0.147 0.353 0.147s0.256-0.049 0.354-0.146c1.029-1.030 1.596-2.398 1.596-3.854s-0.567-2.824-1.596-3.854zM8.691 3.038c-0.186-0.077-0.401-0.035-0.545 0.108l-2.853 2.854h-1.793c-0.276 0-0.5 0.224-0.5 0.5v3c0 0.276 0.224 0.5 0.5 0.5h1.793l2.854 2.854c0.095 0.095 0.223 0.146 0.353 0.146l0.191-0.038c0.187-0.077 0.309-0.26 0.309-0.462v-9c0-0.202-0.122-0.385-0.309-0.462z"></path>
</svg>
