<svg version="1.1" xmlns="http://www.w3.org/2000/svg" width="16" height="16" viewBox="0 0 16 16">
<title>warning</title>
<path d="M15.718 11.972l-6-10c-0.356-0.586-0.99-0.971-1.715-0.971s-1.359 0.385-1.71 0.962l-0.005 0.009-6 10c-0.179 0.293-0.284 0.648-0.284 1.028 0 1.105 0.895 2 2 2 0.003 0 0.005 0 0.008-0h11.989c0 0 0 0 0 0 1.105 0 2-0.895 2-2 0-0.38-0.106-0.735-0.289-1.037l0.005 0.009zM8 13c-0.552 0-1-0.448-1-1s0.448-1 1-1c0.552 0 1 0.448 1 1v0c0 0.552-0.448 1-1 1v0zM9 9c0 0.552-0.448 1-1 1s-1-0.448-1-1v0-3c0-0.552 0.448-1 1-1s1 0.448 1 1v0z"></path>
</svg>
