<svg version="1.1" xmlns="http://www.w3.org/2000/svg" width="16" height="16" viewBox="0 0 16 16">
<title>wheelchair</title>
<path d="M7 4c1.105 0 2-0.895 2-2s-0.895-2-2-2c-1.105 0-2 0.895-2 2v0c0 1.105 0.895 2 2 2v0zM7 1c0.552 0 1 0.448 1 1s-0.448 1-1 1c-0.552 0-1-0.448-1-1v0c0-0.552 0.448-1 1-1v0z"></path>
<path d="M14.5 14h-0.691l-1.862-3.724c-0.084-0.165-0.253-0.276-0.447-0.276h-4.5v-2h3.5c0.276 0 0.5-0.224 0.5-0.5s-0.224-0.5-0.5-0.5v0h-3.5v-1.5c0-0.276-0.224-0.5-0.5-0.5s-0.5 0.224-0.5 0.5v0 5c0 0.276 0.224 0.5 0.5 0.5v0h4.691l1.862 3.724c0.084 0.165 0.253 0.276 0.447 0.276h1c0.276 0 0.5-0.224 0.5-0.5s-0.224-0.5-0.5-0.5v0z"></path>
<path d="M9.484 12.016c-0.037-0.010-0.081-0.016-0.125-0.016-0.232 0-0.427 0.158-0.483 0.371l-0.001 0.003c-0.4 1.521-1.762 2.625-3.383 2.625-1.929 0-3.492-1.563-3.492-3.492 0-1.62 1.104-2.983 2.6-3.377l0.024-0.005c0.229-0.049 0.399-0.249 0.399-0.49 0-0.276-0.224-0.5-0.5-0.5-0.053 0-0.104 0.008-0.152 0.024l0.004-0.001c-1.955 0.514-3.374 2.266-3.374 4.35 0 2.48 2.011 4.491 4.491 4.491 2.083 0 3.835-1.419 4.343-3.343l0.007-0.031c0.010-0.038 0.016-0.081 0.016-0.125 0-0.231-0.157-0.426-0.37-0.483l-0.004-0.001z"></path>
</svg>
