<svg version="1.1" xmlns="http://www.w3.org/2000/svg" width="16" height="16" viewBox="0 0 16 16">
<title>wheelchair-alt</title>
<path d="M12 4c1.105 0 2-0.895 2-2s-0.895-2-2-2c-1.105 0-2 0.895-2 2v0c0 1.105 0.895 2 2 2v0zM12 1c0.552 0 1 0.448 1 1s-0.448 1-1 1c-0.552 0-1-0.448-1-1v0c0-0.552 0.448-1 1-1v0z"></path>
<path d="M5 11.5c0 0.276-0.224 0.5-0.5 0.5s-0.5-0.224-0.5-0.5c0-0.276 0.224-0.5 0.5-0.5s0.5 0.224 0.5 0.5z"></path>
<path d="M4.5 7c-2.485 0-4.5 2.015-4.5 4.5s2.015 4.5 4.5 4.5c2.485 0 4.5-2.015 4.5-4.5v0c-0.003-2.484-2.016-4.497-4.5-4.5h-0zM4.5 15c-1.933 0-3.5-1.567-3.5-3.5s1.567-3.5 3.5-3.5c1.933 0 3.5 1.567 3.5 3.5v0c0 1.933-1.567 3.5-3.5 3.5v0z"></path>
<path d="M4.354 5.354l1.235-1.236c0.181-0.181 0.431-0.293 0.707-0.293 0.163 0 0.317 0.039 0.453 0.108l-0.006-0.003 2.413 1.206-1.309 1.309c-0.094 0.091-0.153 0.219-0.153 0.36 0 0.276 0.224 0.5 0.5 0.5 0.141 0 0.269-0.058 0.36-0.152l1.8-1.8c0.090-0.090 0.146-0.215 0.146-0.353 0-0.194-0.111-0.363-0.273-0.446l-0.003-0.001-3.034-1.517c-0.261-0.134-0.569-0.212-0.895-0.212-0.552 0-1.052 0.224-1.413 0.587l-1.236 1.235c-0.091 0.091-0.147 0.216-0.147 0.354 0 0.276 0.224 0.501 0.501 0.501 0.138 0 0.263-0.056 0.354-0.147v0z"></path>
<path d="M14 14h-0.591l-0.679-3.391c-0.189-0.923-0.994-1.608-1.959-1.609h-0.271c-0.276 0-0.5 0.224-0.5 0.5s0.224 0.5 0.5 0.5v0h0.271c0 0 0 0 0 0 0.481 0 0.883 0.34 0.979 0.793l0.001 0.007 0.759 3.8c0.048 0.23 0.249 0.4 0.49 0.4 0 0 0 0 0 0h1c0.276 0 0.5-0.224 0.5-0.5s-0.224-0.5-0.5-0.5v0z"></path>
</svg>
