<svg version="1.1" xmlns="http://www.w3.org/2000/svg" width="16" height="16" viewBox="0 0 16 16">
<title>wifi</title>
<path d="M8 11c-0.828 0-1.5 0.672-1.5 1.5s0.672 1.5 1.5 1.5c0.828 0 1.5-0.672 1.5-1.5v0c0-0.828-0.672-1.5-1.5-1.5v0zM8 13c-0.276 0-0.5-0.224-0.5-0.5s0.224-0.5 0.5-0.5c0.276 0 0.5 0.224 0.5 0.5v0c0 0.276-0.224 0.5-0.5 0.5v0z"></path>
<path d="M8 8c-0.003-0-0.007-0-0.012-0-1.377 0-2.624 0.56-3.524 1.465l-0 0c-0.087 0.090-0.14 0.212-0.14 0.347 0 0.276 0.224 0.5 0.5 0.5 0.135 0 0.258-0.054 0.348-0.14l-0 0c0.734-0.701 1.731-1.132 2.829-1.132s2.095 0.431 2.831 1.134l-0.002-0.002c0.090 0.090 0.215 0.146 0.354 0.146s0.263-0.056 0.354-0.146v0c0.090-0.090 0.146-0.215 0.146-0.354s-0.056-0.263-0.146-0.354v0c-0.901-0.905-2.147-1.465-3.524-1.465-0.004 0-0.008 0-0.012 0h0.001z"></path>
<path d="M2.343 7.343c-0.087 0.090-0.14 0.212-0.14 0.347 0 0.276 0.224 0.5 0.5 0.5 0.135 0 0.258-0.054 0.348-0.14l-0 0c1.268-1.265 3.018-2.047 4.95-2.047s3.682 0.782 4.95 2.047l-0-0c0.090 0.087 0.212 0.14 0.347 0.14 0.276 0 0.5-0.224 0.5-0.5 0-0.135-0.054-0.258-0.14-0.348l0 0c-1.449-1.445-3.449-2.339-5.657-2.339s-4.208 0.894-5.657 2.339l0-0z"></path>
<path d="M15.778 5.222c-1.992-1.988-4.741-3.217-7.778-3.217s-5.786 1.229-7.778 3.217l0-0c-0.087 0.090-0.14 0.212-0.14 0.347 0 0.276 0.224 0.5 0.5 0.5 0.135 0 0.258-0.054 0.347-0.14l-0 0c1.811-1.807 4.31-2.924 7.071-2.924s5.26 1.117 7.071 2.925l-0-0c0.090 0.087 0.212 0.14 0.347 0.14 0.276 0 0.5-0.224 0.5-0.5 0-0.135-0.054-0.258-0.14-0.348l0 0z"></path>
</svg>
