<svg version="1.1" xmlns="http://www.w3.org/2000/svg" width="16" height="16" viewBox="0 0 16 16">
<title>window-bookmark</title>
<path d="M15 2h-14c-0.552 0-1 0.448-1 1v0 10c0 0.552 0.448 1 1 1v0h5.5c0.276 0 0.5-0.224 0.5-0.5s-0.224-0.5-0.5-0.5v0h-5.5v-8h14v1.5c0 0.276 0.224 0.5 0.5 0.5s0.5-0.224 0.5-0.5v0-3.5c0-0.552-0.448-1-1-1v0zM1 4v-1h14v1z"></path>
<path d="M14.5 9h-4c-0.276 0-0.5 0.224-0.5 0.5v0 6c0 0 0 0.001 0 0.001 0 0.276 0.224 0.5 0.5 0.5 0.138 0 0.263-0.056 0.354-0.147l1.646-1.647 1.646 1.647c0.090 0.090 0.215 0.146 0.353 0.146 0 0 0.001 0 0.001 0h-0c0 0 0.001 0 0.001 0 0.069 0 0.134-0.014 0.193-0.039l-0.003 0.001c0.183-0.077 0.309-0.255 0.309-0.462v0-6c0-0.276-0.224-0.5-0.5-0.5v0zM14 10v4.293l-1.146-1.147c-0.091-0.091-0.216-0.147-0.354-0.147s-0.263 0.056-0.354 0.147l-1.146 1.147v-4.293z"></path>
</svg>
