<svg version="1.1" xmlns="http://www.w3.org/2000/svg" width="16" height="16" viewBox="0 0 16 16">
<title>window-arrow-up</title>
<path d="M15 2h-14c-0.552 0-1 0.448-1 1v0 10c0 0.552 0.448 1 1 1v0h5.5c0.276 0 0.5-0.224 0.5-0.5s-0.224-0.5-0.5-0.5v0h-5.5v-8h14v1.5c0 0.276 0.224 0.5 0.5 0.5s0.5-0.224 0.5-0.5v0-3.5c0-0.552-0.448-1-1-1v0zM1 4v-1h14v1z"></path>
<path d="M12.854 9.146c-0.091-0.091-0.216-0.147-0.354-0.147s-0.263 0.056-0.354 0.147l-2.5 2.5c-0.091 0.091-0.147 0.216-0.147 0.354 0 0.276 0.224 0.501 0.501 0.501 0.138 0 0.263-0.056 0.354-0.147v0l1.646-1.647v4.793c0 0.276 0.224 0.5 0.5 0.5s0.5-0.224 0.5-0.5v0-4.793l1.646 1.647c0.091 0.091 0.216 0.147 0.354 0.147 0.276 0 0.501-0.224 0.501-0.501 0-0.138-0.056-0.263-0.147-0.354v0z"></path>
</svg>
