<svg version="1.1" xmlns="http://www.w3.org/2000/svg" width="16" height="16" viewBox="0 0 16 16">
<title>window-restore</title>
<path d="M11.5 12c-0.276 0-0.5 0.224-0.5 0.5v0 0.5h-10v-5h1.5c0.276 0 0.5-0.224 0.5-0.5s-0.224-0.5-0.5-0.5v0h-1.5v-1h1.5c0.276 0 0.5-0.224 0.5-0.5s-0.224-0.5-0.5-0.5v0h-1.5c-0.552 0-1 0.448-1 1v0 7c0 0.552 0.448 1 1 1v0h10c0.552 0 1-0.448 1-1v0-0.5c0-0.276-0.224-0.5-0.5-0.5v0z"></path>
<path d="M15 2h-10c-0.552 0-1 0.448-1 1v0 7c0 0.552 0.448 1 1 1v0h10c0.552 0 1-0.448 1-1v0-7c0-0.552-0.448-1-1-1v0zM15 3v1h-10v-1zM15 10.5v-0.5h-10v-5h10v5z"></path>
</svg>
