<svg version="1.1" xmlns="http://www.w3.org/2000/svg" width="16" height="16" viewBox="0 0 16 16">
<title>window-file</title>
<path d="M15 2h-14c-0.552 0-1 0.448-1 1v0 10c0 0.552 0.448 1 1 1v0h5.5c0.276 0 0.5-0.224 0.5-0.5s-0.224-0.5-0.5-0.5v0h-5.5v-8h14v1.5c0 0.276 0.224 0.5 0.5 0.5s0.5-0.224 0.5-0.5v0-3.5c0-0.552-0.448-1-1-1v0zM1 4v-1h14v1z"></path>
<path d="M13.146 9.439c-0.27-0.271-0.643-0.439-1.056-0.439-0.001 0-0.003 0-0.004 0h-2.086c-0.552 0-1 0.448-1 1v0 5.5c0 0.276 0.224 0.5 0.5 0.5s0.5-0.224 0.5-0.5v0-5.5h2v2c0 0.552 0.448 1 1 1v0h2v2.5c0 0.276 0.224 0.5 0.5 0.5s0.5-0.224 0.5-0.5v0-2.586c0-0.001 0-0.002 0-0.004 0-0.413-0.168-0.786-0.439-1.056l-0-0zM13 12v-1.293l1.293 1.293z"></path>
</svg>
