<svg version="1.1" xmlns="http://www.w3.org/2000/svg" width="16" height="16" viewBox="0 0 16 16">
<title>window-terminal</title>
<path d="M14 2h-12c-1.105 0-2 0.895-2 2v0 8c0 1.105 0.895 2 2 2v0h12c1.105 0 2-0.895 2-2v0-8c0-1.105-0.895-2-2-2v0zM15 12c0 0.552-0.448 1-1 1v0h-12c-0.552 0-1-0.448-1-1v0-8c0-0.552 0.448-1 1-1v0h12c0.552 0 1 0.448 1 1v0z"></path>
<path d="M3.777 5.084c-0.075-0.048-0.167-0.076-0.265-0.076-0.276 0-0.5 0.224-0.5 0.5 0 0.168 0.083 0.316 0.209 0.407l0.002 0.001 2.377 1.584-2.377 1.584c-0.135 0.091-0.223 0.243-0.223 0.416 0 0.276 0.224 0.5 0.5 0.5h0c0 0 0.001 0 0.001 0 0.103 0 0.198-0.031 0.277-0.085l-0.002 0.001 3-2c0.135-0.091 0.223-0.243 0.223-0.416s-0.088-0.325-0.221-0.415l-0.002-0.001z"></path>
<path d="M12.5 10h-4c-0.276 0-0.5 0.224-0.5 0.5s0.224 0.5 0.5 0.5v0h4c0.276 0 0.5-0.224 0.5-0.5s-0.224-0.5-0.5-0.5v0z"></path>
</svg>
