<svg version="1.1" xmlns="http://www.w3.org/2000/svg" width="16" height="16" viewBox="0 0 16 16">
<title>window-chart</title>
<path d="M15 2h-14c-0.552 0-1 0.448-1 1v0 10c0 0.552 0.448 1 1 1v0h5.5c0.276 0 0.5-0.224 0.5-0.5s-0.224-0.5-0.5-0.5v0h-5.5v-8h14v1.5c0 0.276 0.224 0.5 0.5 0.5s0.5-0.224 0.5-0.5v0-3.5c0-0.552-0.448-1-1-1v0zM1 4v-1h14v1z"></path>
<path d="M15.5 11h-1.5v-1.5c0-0.276-0.224-0.5-0.5-0.5v0h-2c-0.276 0-0.5 0.224-0.5 0.5v0 2.5h-1.5c-0.276 0-0.5 0.224-0.5 0.5v0 3c0 0.276 0.224 0.5 0.5 0.5v0h6c0.276 0 0.5-0.224 0.5-0.5v0-4c0-0.276-0.224-0.5-0.5-0.5v0zM11 15h-1v-2h1zM13 11.5v3.5h-1v-5h1zM15 15h-1v-3h1z"></path>
</svg>
