<svg version="1.1" xmlns="http://www.w3.org/2000/svg" width="16" height="16" viewBox="0 0 16 16">
<title>wizard</title>
<path d="M14.5 3c-0.649 0-1.202 0.412-1.411 0.99l-0.003 0.010h-3.172c-0.212-0.587-0.765-0.999-1.414-0.999s-1.202 0.412-1.411 0.989l-0.003 0.010h-2.136c-0.241-1.149-1.246-2-2.449-2-1.381 0-2.5 1.119-2.5 2.5s1.119 2.5 2.5 2.5c1.204 0 2.209-0.851 2.447-1.984l0.003-0.016h2.136c0.212 0.587 0.765 0.999 1.414 0.999s1.202-0.412 1.411-0.989l0.003-0.010h3.172c0.212 0.588 0.765 1 1.414 1 0.828 0 1.5-0.672 1.5-1.5s-0.672-1.5-1.5-1.5c-0 0-0 0-0 0h0zM2.5 6c-0.828 0-1.5-0.672-1.5-1.5s0.672-1.5 1.5-1.5c0.828 0 1.5 0.672 1.5 1.5v0c0 0.828-0.672 1.5-1.5 1.5v0zM8.5 5c-0.276 0-0.5-0.224-0.5-0.5s0.224-0.5 0.5-0.5c0.276 0 0.5 0.224 0.5 0.5v0c0 0.276-0.224 0.5-0.5 0.5v0zM14.5 5c-0.276 0-0.5-0.224-0.5-0.5s0.224-0.5 0.5-0.5c0.276 0 0.5 0.224 0.5 0.5v0c0 0.276-0.224 0.5-0.5 0.5v0z"></path>
<path d="M13.5 10h-11c-0.276 0-0.5 0.224-0.5 0.5s0.224 0.5 0.5 0.5v0h11c0.276 0 0.5-0.224 0.5-0.5s-0.224-0.5-0.5-0.5v0z"></path>
<path d="M13.5 13h-11c-0.276 0-0.5 0.224-0.5 0.5s0.224 0.5 0.5 0.5v0h11c0.276 0 0.5-0.224 0.5-0.5s-0.224-0.5-0.5-0.5v0z"></path>
</svg>
