<svg version="1.1" xmlns="http://www.w3.org/2000/svg" width="16" height="16" viewBox="0 0 16 16">
<title>won</title>
<path d="M14.5 8h-1.982l0.273-1h1.709c0.276 0 0.5-0.224 0.5-0.5s-0.224-0.5-0.5-0.5h-1.436l0.919-3.369c0.073-0.266-0.084-0.541-0.351-0.614-0.263-0.072-0.541 0.084-0.614 0.351l-0.991 3.632h-2.719l-0.82-3.611c-0.052-0.227-0.255-0.389-0.488-0.389s-0.436 0.162-0.488 0.389l-0.82 3.611h-2.719l-0.99-3.631c-0.073-0.267-0.351-0.423-0.614-0.351-0.267 0.072-0.424 0.347-0.351 0.613l0.918 3.369h-1.436c-0.276 0-0.5 0.224-0.5 0.5s0.224 0.5 0.5 0.5h1.709l0.273 1h-1.982c-0.276 0-0.5 0.224-0.5 0.5s0.224 0.5 0.5 0.5h2.254l1.263 4.631c0.060 0.222 0.27 0.36 0.493 0.369 0.229-0.005 0.426-0.166 0.477-0.389l1.049-4.611h1.929l1.048 4.611c0.051 0.224 0.248 0.384 0.477 0.389h0.011c0.225 0 0.423-0.15 0.482-0.369l1.263-4.631h2.254c0.276 0 0.5-0.224 0.5-0.5s-0.224-0.5-0.5-0.5zM5.456 11.438l-0.665-2.438h1.219l-0.554 2.438zM6.237 8h-1.719l-0.272-1h2.219l-0.228 1zM8 4.756l0.283 1.244h-0.566l0.283-1.244zM7.263 8l0.227-1h1.020l0.227 1h-1.474zM10.544 11.438l-0.554-2.438h1.219l-0.665 2.438zM11.482 8h-1.719l-0.227-1h2.219l-0.273 1z"></path>
</svg>
