<svg id="Layer_1" data-name="Layer 1" xmlns="http://www.w3.org/2000/svg" width="16" height="16" viewBox="0 0 16 16"><path d="M8.5,6h6a.5.5,0,0,0,.5-.5V.5a.5.5,0,0,0-.5-.5h-6A.5.5,0,0,0,8,.5V1.99H3.5a.5.5,0,0,0-.5.5v2.3L.146,7.646a.5.5,0,0,0,0,.708L3,11.207V13.49a.5.5,0,0,0,.5.5H8V15.5a.5.5,0,0,0,.5.5h6a.5.5,0,0,0,.5-.5v-5a.5.5,0,0,0-.5-.5h-6a.5.5,0,0,0-.5.5v2.49H4V11.207L6.854,8.354a.5.5,0,0,0,0-.708L4,4.793V2.99H8V5.5A.5.5,0,0,0,8.5,6ZM9,11h5v4H9Zm-5.5-.707L1.207,8,3.5,5.707,5.793,8ZM9,1h5V5H9Z"/></svg>