<svg version="1.1" xmlns="http://www.w3.org/2000/svg" width="16" height="16" viewBox="0 0 16 16">
<title>wrench</title>
<path d="M0.708 12.172l4.988-4.988c0.34-0.34 0.482-0.85 0.392-1.4-0.262-1.588 0.26-3.214 1.394-4.349 0.756-0.756 1.718-1.238 2.78-1.394 0.842-0.121 1.719 0.167 2.336 0.781 0.093 0.094 0.146 0.221 0.146 0.354s-0.053 0.26-0.146 0.354l-2.373 2.375 1.859 1.859 2.374-2.373c0.195-0.195 0.512-0.195 0.707 0 0.614 0.614 0.906 1.487 0.781 2.335-0.156 1.062-0.637 2.024-1.393 2.78-1.135 1.136-2.761 1.655-4.348 1.394-0.551-0.089-1.062 0.053-1.401 0.392l-5.053 5.053c-0.414 0.414-0.972 0.644-1.554 0.644l-0.179-0.007c-0.644-0.053-1.23-0.387-1.612-0.916-0.617-0.86-0.488-2.103 0.302-2.894zM1.219 14.48c0.212 0.296 0.525 0.474 0.881 0.503 0.351 0.030 0.695-0.099 0.944-0.347l5.053-5.052c0.463-0.463 1.095-0.711 1.785-0.711 0.159 0 0.322 0.013 0.486 0.040 1.266 0.212 2.569-0.206 3.478-1.114 0.602-0.603 0.986-1.369 1.111-2.219 0.055-0.371-0.018-0.75-0.196-1.078l-2.323 2.322c-0.195 0.195-0.512 0.195-0.707 0l-2.566-2.566c-0.195-0.195-0.195-0.512 0-0.707l2.32-2.323c-0.327-0.179-0.706-0.254-1.079-0.196-0.848 0.124-1.614 0.508-2.218 1.11-0.907 0.907-1.323 2.208-1.114 3.478 0.146 0.873-0.1 1.7-0.671 2.271l-4.988 4.988c-0.447 0.447-0.531 1.137-0.196 1.601z"></path>
</svg>
