<svg version="1.1" xmlns="http://www.w3.org/2000/svg" width="16" height="16" viewBox="0 0 16 16">
<title>x-axis</title>
<path d="M14.5 13c-0.276 0-0.5 0.224-0.5 0.5v1.5h-12v-1.5c0-0.276-0.224-0.5-0.5-0.5s-0.5 0.224-0.5 0.5v2c0 0.276 0.224 0.5 0.5 0.5h13c0.276 0 0.5-0.224 0.5-0.5v-2c0-0.276-0.224-0.5-0.5-0.5z"></path>
<path d="M5.18 11.884c0.093 0.078 0.207 0.116 0.32 0.116 0.143 0 0.285-0.061 0.384-0.18l2.116-2.539 2.116 2.539c0.099 0.119 0.241 0.18 0.384 0.18 0.113 0 0.227-0.038 0.32-0.116 0.212-0.177 0.24-0.492 0.063-0.705l-2.232-2.679 2.233-2.68c0.177-0.212 0.148-0.528-0.063-0.705-0.211-0.174-0.526-0.148-0.704 0.064l-2.117 2.54-2.116-2.539c-0.178-0.214-0.493-0.24-0.704-0.064-0.212 0.176-0.241 0.492-0.064 0.704l2.233 2.68-2.233 2.68c-0.177 0.212-0.148 0.528 0.064 0.704z"></path>
</svg>
