<svg id="Layer_1" data-name="Layer 1" xmlns="http://www.w3.org/2000/svg" width="16" height="16" viewBox="0 0 16 16"><path d="M15.5,8H13.956a3.065,3.065,0,0,0-1.9-2.352l-1.4-.539A3.92,3.92,0,0,0,11,3.5,3.283,3.283,0,0,0,8,0,3.283,3.283,0,0,0,5,3.5a3.92,3.92,0,0,0,.352,1.609l-1.4.539A3.065,3.065,0,0,0,2.044,8H.5a.5.5,0,0,0-.5.5v7a.5.5,0,0,0,1,0V9H15v6.5a.5.5,0,0,0,1,0v-7A.5.5,0,0,0,15.5,8ZM8,1a2.3,2.3,0,0,1,2,2.5A2.3,2.3,0,0,1,8,6,2.3,2.3,0,0,1,6,3.5,2.3,2.3,0,0,1,8,1ZM4.307,6.582l1.576-.6A2.792,2.792,0,0,0,8,7a2.792,2.792,0,0,0,2.117-1.023l1.576.6A2.04,2.04,0,0,1,12.923,8H3.077A2.04,2.04,0,0,1,4.307,6.582Z"/><path d="M11.231,12.922a.5.5,0,0,0,.538-.844A6.96,6.96,0,0,0,8.5,11.053V10.5a.5.5,0,0,0-1,0v.553a6.96,6.96,0,0,0-3.269,1.025.5.5,0,0,0,.538.844A5.948,5.948,0,0,1,7.5,12.05v2a6.96,6.96,0,0,0-3.269,1.025.5.5,0,0,0,.538.844A5.948,5.948,0,0,1,7.5,15.05v.45a.5.5,0,0,0,1,0v-.45a5.948,5.948,0,0,1,2.731.872.5.5,0,1,0,.538-.844A6.96,6.96,0,0,0,8.5,14.053v-2A5.948,5.948,0,0,1,11.231,12.922Z"/></svg>