<svg version="1.1" xmlns="http://www.w3.org/2000/svg" width="16" height="16" viewBox="0 0 16 16">
<title>y1-axis</title>
<path d="M13.5 14h-0.5v-3.5c0-0.276-0.224-0.5-0.5-0.5h-1c-0.276 0-0.5 0.224-0.5 0.5s0.224 0.5 0.5 0.5h0.5v3h-0.5c-0.276 0-0.5 0.224-0.5 0.5s0.224 0.5 0.5 0.5h2c0.276 0 0.5-0.224 0.5-0.5s-0.224-0.5-0.5-0.5z"></path>
<path d="M2.5 3c0.276 0 0.5-0.224 0.5-0.5s-0.224-0.5-0.5-0.5h-2c-0.276 0-0.5 0.224-0.5 0.5v12c0 0.276 0.224 0.5 0.5 0.5h2c0.276 0 0.5-0.224 0.5-0.5s-0.224-0.5-0.5-0.5h-1.5v-11h1.5z"></path>
<path d="M10.116 5.18l-2.116 2.539-2.116-2.539c-0.176-0.212-0.491-0.241-0.704-0.064-0.212 0.176-0.241 0.492-0.064 0.704l2.384 2.861v2.819c0 0.276 0.224 0.5 0.5 0.5s0.5-0.224 0.5-0.5v-2.819l2.384-2.861c0.177-0.212 0.148-0.528-0.064-0.705s-0.528-0.147-0.704 0.065z"></path>
</svg>
