<svg version="1.1" xmlns="http://www.w3.org/2000/svg" width="16" height="16" viewBox="0 0 16 16">
<title>yen</title>
<path d="M12.891 2.812c0.172-0.216 0.137-0.53-0.078-0.703-0.216-0.172-0.53-0.137-0.703 0.078l-3.61 4.513-3.609-4.512c-0.173-0.215-0.487-0.25-0.703-0.078-0.215 0.173-0.25 0.487-0.078 0.703l3.89 4.863v0.324h-2.5c-0.276 0-0.5 0.224-0.5 0.5s0.224 0.5 0.5 0.5h2.5v1h-2.5c-0.276 0-0.5 0.224-0.5 0.5s0.224 0.5 0.5 0.5h2.5v2.5c0 0.276 0.224 0.5 0.5 0.5s0.5-0.224 0.5-0.5v-2.5h2.5c0.276 0 0.5-0.224 0.5-0.5s-0.224-0.5-0.5-0.5h-2.5v-1h2.5c0.276 0 0.5-0.224 0.5-0.5s-0.224-0.5-0.5-0.5h-2.5v-0.324l3.891-4.864z"></path>
</svg>
