<?xml version="1.0" standalone="no"?>
<!DOCTYPE svg PUBLIC "-//W3C//DTD SVG 1.1//EN" "http://www.w3.org/Graphics/SVG/1.1/DTD/svg11.dtd" >
<svg xmlns="http://www.w3.org/2000/svg">
<metadata></metadata>
<defs>
<font id="Font-APEX-Small" horiz-adv-x="1024">
<font-face units-per-em="1024" ascent="960" descent="-64" />
<missing-glyph horiz-adv-x="1024" />
<glyph unicode="&#x20;" horiz-adv-x="512" d="" />
<glyph unicode="&#x2639;" glyph-name="emoji-frown" d="M512 960c-282.304 0-512-229.696-512-512s229.696-512 512-512 512 229.696 512 512-229.696 512-512 512zM512 0c-247.040 0-448 200.96-448 448s200.96 448 448 448 448-200.96 448-448-200.96-448-448-448zM384 576c0-35.346-28.654-64-64-64s-64 28.654-64 64c0 35.346 28.654 64 64 64s64-28.654 64-64zM768 576c0-35.346-28.654-64-64-64s-64 28.654-64 64c0 35.346 28.654 64 64 64s64-28.654 64-64zM512 384c-97.792 0-186.88-57.664-226.944-146.88-7.232-16.128 0-35.072 16.064-42.304 16.32-7.36 35.136-0.064 42.304 16.064 29.824 66.304 95.936 109.12 168.576 109.12s138.752-42.816 168.576-109.12c5.312-11.84 16.96-18.88 29.184-18.88 4.352 0 8.832 0.896 13.12 2.816 16.064 7.232 23.296 26.176 16.064 42.304-40.064 89.216-129.152 146.88-226.944 146.88z" />
<glyph unicode="&#x263a;" glyph-name="emoji-pleased" d="M512 960c-282.304 0-512-229.696-512-512s229.696-512 512-512 512 229.696 512 512-229.696 512-512 512zM512 0c-246.976 0-448 201.024-448 448 0 247.040 201.024 448 448 448s448-200.96 448-448c0-246.976-201.024-448-448-448zM615.36 308.352c-56-67.52-150.72-67.52-206.72 0-11.328 13.76-31.488 15.488-44.992 4.224-13.632-11.264-15.552-31.424-4.224-44.992 40.256-48.704 94.528-75.584 152.576-75.584s112.32 26.88 152.64 75.648c11.328 13.568 9.344 33.728-4.224 44.992-13.632 11.2-33.792 9.408-45.056-4.288zM384 672c0 17.664-14.336 32-32 32-58.048 0-112.256-26.816-152.64-75.584-11.328-13.632-9.344-33.792 4.224-45.056 5.952-4.928 13.248-7.36 20.416-7.36 9.216 0 18.304 3.968 24.64 11.584 27.968 33.792 64.704 52.416 103.36 52.416 17.664 0 32 14.336 32 32zM824.64 628.416c-40.384 48.768-94.592 75.584-152.64 75.584-17.664 0-32-14.336-32-32s14.336-32 32-32c38.656 0 75.392-18.624 103.36-52.416 6.336-7.616 15.424-11.584 24.64-11.584 7.168 0 14.464 2.432 20.416 7.36 13.568 11.264 15.552 31.424 4.224 45.056zM384 416c0-17.664 14.336-32 32-32s32 14.336 32 32c0 52.928-43.072 96-96 96s-96-43.072-96-96c0-17.664 14.336-32 32-32s32 14.336 32 32c0 17.664 14.4 32 32 32s32-14.336 32-32zM672 512c-52.928 0-96-43.072-96-96 0-17.664 14.336-32 32-32s32 14.336 32 32c0 17.664 14.4 32 32 32s32-14.336 32-32c0-17.664 14.336-32 32-32s32 14.336 32 32c0 52.928-43.072 96-96 96z" />
<glyph unicode="&#xe903;" glyph-name="apex" d="M271.36 501.696l53.184 53.184-184.32 184.32 81.536 81.536 184.32-184.32 53.184 53.184-184.32 184.384c-14.656 14.656-33.92 22.016-53.184 22.016s-38.464-7.36-53.184-22.016l-81.536-81.6c-29.376-29.376-29.376-76.992 0-106.368l184.32-184.32zM937.984 210.944l-184.32 184.32-53.184-53.184 184.32-184.32-81.536-81.536-184.32 184.32-53.248-53.184 184.32-184.32c14.656-14.656 33.92-22.016 53.184-22.016s38.528 7.36 53.184 22.016l81.536 81.536c29.44 29.376 29.44 76.992 0.064 106.368zM919.744 855.744c-51.392 51.392-135.616 52.288-187.072 0.896l-531.392-531.392c-26.112-26.112-47.168-56.832-62.208-90.56l-73.984-209.6c-5.248-14.912 9.088-29.248 24-24l209.6 73.984c33.728 14.976 64.448 36.096 90.56 62.208l531.392 531.392c51.392 51.392 50.496 135.68-0.896 187.072zM867.456 721.856l-531.392-531.392c-19.648-19.648-42.496-35.328-65.728-45.696l-103.872-42.304 42.304 103.872c10.368 23.232 26.048 46.080 45.696 65.728l531.392 531.392c10.688 10.688 24.832 16.512 39.872 16.512s30.144-6.72 40.768-17.408c10.688-10.688 17.408-25.728 17.408-40.768 0.064-15.104-5.824-29.248-16.448-39.936z" />
<glyph unicode="&#xe904;" glyph-name="apex-square" d="M832 896h-640c-70.72 0-128-57.28-128-128v-640c0-70.72 57.28-128 128-128h640c70.72 0 128 57.28 128 128v640c0 70.72-57.28 128-128 128zM208.448 694.016l58.24 58.24c10.496 10.496 24.256 15.744 38.016 15.744s27.52-5.248 38.016-15.744l131.712-131.712-38.080-37.952-131.712 131.648-58.176-58.24 131.648-131.648-38.016-38.016-131.648 131.712c-20.992 20.928-20.992 54.976 0 75.968zM359.616 181.632l-149.696-52.864c-10.624-3.776-20.928 6.528-17.152 17.152l52.864 149.696c10.688 24.128 25.792 46.016 44.416 64.64l379.584 379.584c36.736 36.736 96.896 36.096 133.632-0.64s37.376-96.896 0.64-133.632l-379.584-379.52c-18.688-18.624-40.576-33.664-64.704-44.416zM816.256 202.688l-58.24-58.24c-10.496-10.496-24.256-15.744-38.016-15.744s-27.52 5.248-38.016 15.744l-131.648 131.648 38.016 38.016 131.648-131.648 58.24 58.24-131.648 131.648 38.016 38.016 131.648-131.648c20.992-20.992 20.992-55.040 0-76.032zM765.248 701.248c-7.616 7.616-18.368 12.416-29.12 12.416s-20.864-4.16-28.48-11.776l-379.584-379.584c-14.016-14.016-25.28-30.336-32.64-46.912l-30.208-74.176 74.176 30.208c16.576 7.424 32.896 18.624 46.912 32.64l379.584 379.584c7.616 7.616 11.776 17.728 11.776 28.48s-4.8 21.504-12.416 29.12z" />
<glyph unicode="&#xe905;" glyph-name="bar-chart-horizontal" d="M992 128h-928v128h480c17.664 0 32 14.336 32 32v192c0 17.664-14.336 32-32 32h-480v128h864c17.664 0 32 14.336 32 32v192c0 17.664-14.336 32-32 32h-896c-17.664 0-32-14.336-32-32v-768c0-17.664 14.336-32 32-32h960c17.664 0 32 14.336 32 32s-14.336 32-32 32zM64 832h832v-128h-832v128zM64 448h448v-128h-448v128z" />
<glyph unicode="&#xe906;" glyph-name="bubble-chart" d="M992 128h-928v736c0 17.664-14.336 32-32 32s-32-14.336-32-32v-768c0-17.664 14.336-32 32-32h960c17.664 0 32 14.336 32 32s-14.336 32-32 32zM384 320c0-70.592 57.408-128 128-128s128 57.408 128 128-57.408 128-128 128-128-57.408-128-128zM576 320c0-35.264-28.672-64-64-64s-64 28.736-64 64 28.672 64 64 64 64-28.736 64-64zM256 384c70.592 0 128 57.408 128 128s-57.408 128-128 128-128-57.408-128-128 57.408-128 128-128zM256 576c35.328 0 64-28.736 64-64s-28.672-64-64-64-64 28.736-64 64 28.672 64 64 64zM832 320c70.592 0 128 57.408 128 128s-57.408 128-128 128-128-57.408-128-128 57.408-128 128-128zM832 512c35.328 0 64-28.736 64-64s-28.672-64-64-64-64 28.736-64 64 28.672 64 64 64zM544 512c88.256 0 160 71.808 160 160s-71.744 160-160 160-160-71.808-160-160 71.744-160 160-160zM544 768c52.928 0 96-43.072 96-96s-43.072-96-96-96-96 43.072-96 96 43.072 96 96 96z" />
<glyph unicode="&#xe907;" glyph-name="combo-chart" d="M992 640h-192c-17.664 0-32-14.336-32-32v-480h-64v352c0 17.664-14.336 32-32 32h-192c-17.664 0-32-14.336-32-32v-352h-64v224c0 17.664-14.336 32-32 32h-192c-17.664 0-32-14.336-32-32v-224h-64v736c0 17.664-14.336 32-32 32s-32-14.336-32-32v-768c0-17.664 14.336-32 32-32h960c17.664 0 32 14.336 32 32v512c0 17.664-14.336 32-32 32zM320 128h-128v192h128v-192zM640 128h-128v320h128v-320zM960 128h-128v448h128v-448zM160 505.536c3.968 0 8 0.704 11.904 2.304l832 332.864c16.448 6.592 24.384 25.216 17.792 41.6s-25.216 24.448-41.536 17.856l-832-332.864c-16.448-6.592-24.384-25.216-17.856-41.6 4.992-12.544 17.024-20.16 29.696-20.16z" />
<glyph unicode="&#xe908;" glyph-name="dial-gauge-chart" d="M789.568 681.472c12.48 12.48 12.48 32.768 0 45.248s-32.768 12.48-45.248 0l-167.488-167.424c-19.328 11.648-41.728 18.816-65.92 18.816-70.72 0-128-57.28-128-128s57.28-128 128-128 128 57.28 128 128c0 23.168-6.656 44.608-17.408 63.36l168.064 168zM510.976 386.112c-35.264 0-64 28.736-64 64s28.736 64 64 64 64-28.736 64-64-28.736-64-64-64zM480 768h64c17.664 0 32 14.336 32 32s-14.336 32-32 32h-64c-17.664 0-32-14.336-32-32s14.336-32 32-32zM160 512c-17.664 0-32-14.336-32-32v-64c0-17.664 14.336-32 32-32s32 14.336 32 32v64c0 17.664-14.336 32-32 32zM864 512c-17.664 0-32-14.336-32-32v-64c0-17.664 14.336-32 32-32s32 14.336 32 32v64c0 17.664-14.336 32-32 32zM263.104 742.144l-45.248-45.248c-12.48-12.48-12.48-32.768 0-45.248 6.272-6.272 14.464-9.344 22.656-9.344s16.384 3.136 22.656 9.344l45.248 45.248c12.48 12.48 12.48 32.768 0 45.248s-32.832 12.544-45.312 0zM760.896 244.352l-45.248-45.248c-12.48-12.48-12.48-32.768 0-45.248 6.272-6.272 14.464-9.344 22.656-9.344s16.384 3.136 22.656 9.344l45.248 45.248c12.48 12.48 12.48 32.768 0 45.248s-32.832 12.48-45.312 0zM263.104 244.352c-12.48 12.48-32.768 12.48-45.248 0s-12.48-32.768 0-45.248l45.248-45.248c6.272-6.272 14.464-9.344 22.656-9.344s16.384 3.136 22.656 9.344c12.48 12.48 12.48 32.768 0 45.248l-45.312 45.248zM512 960c-282.304 0-512-230.208-512-513.152 0-180.992 97.152-350.528 253.568-442.496 4.928-2.816 10.496-4.352 16.192-4.352h484.416c5.696 0 11.328 1.536 16.192 4.416 156.48 91.904 253.632 261.504 253.632 442.432 0 282.944-229.696 513.152-512 513.152zM745.344 64h-466.688c-132.608 81.408-214.656 227.328-214.656 382.848 0 247.68 200.96 449.152 448 449.152s448-201.472 448-449.152c0-155.52-82.048-301.44-214.656-382.848z" />
<glyph unicode="&#xe909;" glyph-name="donut-chart" d="M800 384h-192c-17.664 0-32-14.336-32-32 0-88.192-71.744-160-160-160s-160 71.808-160 160 71.744 160 160 160c17.664 0 32 14.336 32 32v192c0 17.664-14.336 32-32 32-229.376 0-416-186.624-416-416s186.624-416 416-416 416 186.624 416 416c0 17.664-14.336 32-32 32zM64 352c0 183.296 140.8 334.336 320 350.592v-128.832c-108.416-15.616-192-109.12-192-221.76 0-50.24 17.216-96.128 45.248-133.504l-91.584-91.584c-50.944 61.056-81.664 139.52-81.664 225.088zM416 0c-85.568 0-164.032 30.72-225.088 81.664l91.52 91.52c37.44-27.968 83.328-45.184 133.568-45.184 50.176 0 96.064 17.28 133.504 45.312l90.88-90.88c-61.056-50.88-138.88-82.432-224.384-82.432zM685.632 127.68l-90.688 90.688c21.952 29.248 37.376 63.744 42.816 101.632h128.832c-6.656-73.024-36.48-139.008-80.96-192.32zM608 956.224c-17.664 0-32-14.336-32-32v-192c0-17.664 14.336-32 32-32 88.256 0 160-71.808 160-160 0-17.664 14.336-32 32-32h192c17.664 0 32 14.336 32 32 0 229.376-186.624 416-416 416zM829.76 572.224c-14.144 97.984-91.84 175.68-189.76 189.696v128.832c168.64-15.232 303.296-149.952 318.592-318.592h-128.832z" />
<glyph unicode="&#xe90a;" glyph-name="funnel-chart" d="M992 128h-928v736c0 17.664-14.336 32-32 32s-32-14.336-32-32v-768c0-17.664 14.336-32 32-32h960c17.664 0 32 14.336 32 32s-14.336 32-32 32zM364.16 556.992c55.808-75.328 91.84-162.496 104.256-252.032l11.84-85.312c2.24-15.872 15.744-27.648 31.744-27.648h192c16 0 29.504 11.776 31.68 27.584l11.84 85.312c12.416 89.6 48.512 176.768 104.256 252.032l165.888 224c7.168 9.728 8.32 22.656 2.88 33.472-5.376 10.816-16.448 17.6-28.544 17.6h-768c-12.096 0-23.168-6.784-28.608-17.6s-4.288-23.744 2.88-33.472l165.888-223.936zM719.936 448h-223.808c-17.408 44.8-40.384 87.68-68.096 128h359.936c-27.648-40.32-50.688-83.2-68.032-128zM676.096 256h-136.192l-8.064 57.728c-3.264 23.68-8.256 47.104-14.4 70.272h181.184c-6.144-23.168-11.136-46.592-14.464-70.272l-8.064-57.728zM928.448 768l-94.784-128h-451.328l-94.784 128h640.896z" />
<glyph unicode="&#xe90b;" glyph-name="gantt-chart" d="M160 704h384c17.664 0 32 14.336 32 32v128c0 17.664-14.336 32-32 32h-384c-17.664 0-32-14.336-32-32v-128c0-17.664 14.336-32 32-32zM192 832h320v-64h-320v64zM384 608v-128c0-17.664 14.336-32 32-32h256c17.664 0 32 14.336 32 32v128c0 17.664-14.336 32-32 32h-256c-17.664 0-32-14.336-32-32zM448 576h192v-64h-192v64zM512 352v-128c0-17.664 14.336-32 32-32h384c17.664 0 32 14.336 32 32v128c0 17.664-14.336 32-32 32h-384c-17.664 0-32-14.336-32-32zM576 320h320v-64h-320v64zM992 128h-928v736c0 17.664-14.336 32-32 32s-32-14.336-32-32v-768c0-17.664 14.336-32 32-32h960c17.664 0 32 14.336 32 32s-14.336 32-32 32z" />
<glyph unicode="&#xe90c;" glyph-name="line-area-chart" d="M1004.224 829.568c-11.968 4.992-25.728 2.24-34.88-6.912l-173.44-173.44-170.176 113.408c-12.608 8.512-29.504 6.784-40.384-3.968l-173.44-173.44-170.176 113.408c-13.504 8.96-31.488 6.464-42.048-5.824l-135.68-158.336v329.536c0 17.664-14.336 32-32 32s-32-14.336-32-32v-768c0-17.664 14.336-32 32-32h960c17.664 0 32 14.336 32 32v704c0 12.928-7.808 24.64-19.776 29.568zM229.824 629.632l168.384-112.256c12.672-8.512 29.568-6.72 40.384 3.968l173.44 173.44 170.176-113.408c12.672-8.512 29.568-6.784 40.384 3.968l137.408 137.408v-165.504l-164.032-164.032-170.24 113.408c-12.608 8.448-29.504 6.784-40.384-3.968l-173.44-173.44-170.176 113.408c-13.504 8.96-31.488 6.464-42.048-5.824l-135.68-158.336v157.696l165.824 193.472zM64 128v52.16l165.824 193.472 168.384-112.256c12.672-8.512 29.568-6.784 40.384 3.968l173.44 173.44 170.176-113.408c12.672-8.448 29.568-6.784 40.384 3.968l137.408 137.408v-338.752h-896z" />
<glyph unicode="&#xe90d;" glyph-name="page-bottom" d="M478.080 414.080c8.67-8.705 20.666-14.091 33.92-14.091s25.25 5.386 33.918 14.089l384.002 384.002c7.982 8.549 12.883 20.063 12.883 32.723 0 26.51-21.49 48-48 48-12.659 0-24.174-4.901-32.751-12.908l0.028 0.026-350.080-350.016-350.080 350.016c-8.549 7.982-20.063 12.883-32.723 12.883-26.51 0-48-21.49-48-48 0-12.659 4.901-24.174 12.908-32.751l-0.026 0.028zM896 112h-768c-26.51 0-48-21.49-48-48s21.49-48 48-48v0h768c26.51 0 48 21.49 48 48s-21.49 48-48 48v0z" />
<glyph unicode="&#xe90e;" glyph-name="page-first" d="M579.904 448l350.016 350.080c7.982 8.549 12.883 20.063 12.883 32.723 0 26.51-21.49 48-48 48-12.659 0-24.174-4.901-32.751-12.908l0.028 0.026-384-384c-8.689-8.677-14.064-20.671-14.064-33.92s5.375-25.243 14.064-33.919l384.001-384.001c8.549-7.982 20.063-12.883 32.723-12.883 26.51 0 48 21.49 48 48 0 12.659-4.901 24.174-12.908 32.751l0.026-0.028zM128 880c-26.51 0-48-21.49-48-48v0-768c0-26.51 21.49-48 48-48s48 21.49 48 48v0 768c0 26.51-21.49 48-48 48v0z" />
<glyph unicode="&#xe90f;" glyph-name="page-last" d="M161.92 865.92c-8.549 7.982-20.063 12.883-32.723 12.883-26.51 0-48-21.49-48-48 0-12.659 4.901-24.174 12.908-32.751l-0.026 0.028 350.016-350.080-350.016-350.080c-9.411-8.787-15.277-21.267-15.277-35.117 0-26.51 21.49-48 48-48 13.85 0 26.33 5.866 35.092 15.249l0.026 0.028 384 384c8.689 8.677 14.064 20.671 14.064 33.92s-5.375 25.243-14.064 33.919l-0.001 0.001zM896 880c-26.51 0-48-21.49-48-48v0-768c0-26.51 21.49-48 48-48s48 21.49 48 48v0 768c0 26.51-21.49 48-48 48v0z" />
<glyph unicode="&#xe910;" glyph-name="page-top" d="M545.92 481.92c-8.677 8.689-20.671 14.064-33.92 14.064s-25.243-5.375-33.919-14.064l-384.001-384.001c-7.982-8.549-12.883-20.063-12.883-32.723 0-26.51 21.49-48 48-48 12.659 0 24.174 4.901 32.751 12.908l-0.028-0.026 350.080 350.016 350.080-350.016c8.549-7.982 20.063-12.883 32.723-12.883 26.51 0 48 21.49 48 48 0 12.659-4.901 24.174-12.908 32.751l0.026-0.028zM128 784h768c26.51 0 48 21.49 48 48s-21.49 48-48 48v0h-768c-26.51 0-48-21.49-48-48s21.49-48 48-48v0z" />
<glyph unicode="&#xe911;" glyph-name="polar-chart" d="M992 448h-161.6c-16.64 249.344-224.512 447.552-478.336 448-7.040-0.448-16.64-3.328-22.656-9.344s-9.408-14.144-9.408-22.656v-97.536c-179.008-15.744-320-166.784-320-350.464 0-194.112 157.376-352 350.784-352 83.84 0 162.368 30.784 225.6 84.608l205.312-203.392c6.336-6.144 14.464-9.216 22.592-9.216s16.256 3.072 22.528 9.28c127.168 125.696 197.184 292.864 197.184 470.72 0 17.664-14.336 32-32 32zM384 830.72c203.904-15.936 367.168-179.136 382.784-382.72h-382.784v382.72zM350.784 128c-158.144 0-286.784 129.216-286.784 288 0 148.224 112.512 269.184 256 284.864v-284.864c0-8.896 3.648-16.896 9.472-22.72v-0.064l201.472-199.552c-51.008-41.792-113.472-65.664-180.16-65.664zM803.776 13.568l-374.016 370.432h529.408c-7.296-138.176-61.632-267.712-155.392-370.432z" />
<glyph unicode="&#xe912;" glyph-name="radar-chart" d="M960 314.112v267.776c37.184 13.248 64 48.448 64 90.112 0 52.928-43.072 96-96 96-25.792 0-49.152-10.368-66.432-27.008l-222.72 111.36c0.448 3.904 1.152 7.68 1.152 11.648 0 52.928-43.072 96-96 96s-96-43.072-96-96c0-3.584 0.704-7.040 1.088-10.496l-226.112-109.632c-16.896 14.848-38.784 24.128-62.976 24.128-52.928 0-96-43.072-96-96s43.072-96 96-96c26.176 0 49.856 10.56 67.2 27.584l222.016-111.744c-0.512-3.904-1.216-7.744-1.216-11.84 0-41.664 26.816-76.864 64-90.112v-267.776c-37.184-13.248-64-48.448-64-90.112 0-52.928 43.072-96 96-96s96 43.072 96 96c0 3.968-0.704 7.744-1.152 11.648l222.72 111.36c17.28-16.64 40.64-27.008 66.432-27.008 52.928 0 96 43.072 96 96 0 41.664-26.816 76.864-64 90.112zM160 640c-17.6 0-32 14.336-32 32s14.4 32 32 32 32-14.336 32-32-14.4-32-32-32zM928 704c17.6 0 32-14.336 32-32s-14.4-32-32-32-32 14.336-32 32 14.4 32 32 32zM544 896c17.6 0 32-14.336 32-32s-14.4-32-32-32-32 14.336-32 32 14.4 32 32 32zM254.4 687.936l222.272 107.776c17.28-17.088 41.088-27.712 67.328-27.712 25.856 0 49.216 10.368 66.496 27.008l222.72-111.36c-0.512-3.84-1.216-7.68-1.216-11.648 0-41.664 26.816-76.864 64-90.112v-267.776c-37.184-13.248-64-48.448-64-90.112 0-3.968 0.704-7.744 1.152-11.648l-222.72-111.36c-9.728 9.408-21.44 16.512-34.432 21.12v267.776c37.184 13.248 64 48.448 64 90.112 0 52.928-43.072 96-96 96-25.728 0-49.024-10.304-66.24-26.816l-222.848 112.128c0.384 3.52 1.088 7.040 1.088 10.688 0 5.44-0.704 10.752-1.6 15.936zM544 448c-17.6 0-32 14.336-32 32s14.4 32 32 32 32-14.336 32-32-14.4-32-32-32zM544 0c-17.6 0-32 14.336-32 32s14.4 32 32 32 32-14.336 32-32-14.4-32-32-32zM928 192c-17.6 0-32 14.336-32 32s14.4 32 32 32 32-14.336 32-32-14.4-32-32-32z" />
<glyph unicode="&#xe913;" glyph-name="range-chart-area" d="M289.984 377.472l301.504-180.928c5.12-3.072 10.816-4.544 16.512-4.544 6.208 0 12.352 1.792 17.728 5.376l174.272 116.16 174.272-116.16c9.856-6.528 22.528-7.168 32.832-1.6 10.368 5.568 16.896 16.384 16.896 28.224v256c0 10.688-5.312 20.672-14.272 26.624l-192 128c-12.672 8.448-29.568 6.784-40.384-3.968l-100.416-100.416-106.304 159.488c-5.312 8-13.952 13.184-23.488 14.080-9.6 0.704-19.008-2.432-25.792-9.216l-100.352-100.352-106.368 159.488c-5.632 8.512-15.040 13.824-25.28 14.272-9.6 0.768-19.968-4.032-26.368-12.032l-198.976-248.704v356.736c0 17.664-14.336 32-32 32s-32-14.336-32-32v-768c0-17.664 14.336-32 32-32h960c17.664 0 32 14.336 32 32s-14.336 32-32 32h-928v80l225.984 169.472zM285.632 681.856l103.744-155.584c5.312-8 13.952-13.184 23.488-14.080 9.856-1.024 19.008 2.368 25.792 9.152l100.416 100.416 106.368-159.552c5.312-8 13.952-13.184 23.488-14.080 9.856-0.96 19.008 2.496 25.792 9.216l109.44 109.44 155.84-103.936v-179.072l-142.272 94.848c-10.752 7.168-24.768 7.168-35.52 0l-175.168-116.8-302.592 181.632c-5.056 3.072-10.752 4.544-16.448 4.544-6.784 0-13.504-2.176-19.2-6.4l-204.8-153.6v116.8l221.632 277.056z" />
<glyph unicode="&#xe914;" glyph-name="range-chart-bar" d="M992 128h-928v736c0 17.664-14.336 32-32 32s-32-14.336-32-32v-768c0-17.664 14.336-32 32-32h960c17.664 0 32 14.336 32 32s-14.336 32-32 32zM992 832h-192c-17.664 0-32-14.336-32-32v-320c0-17.664 14.336-32 32-32h192c17.664 0 32 14.336 32 32v320c0 17.664-14.336 32-32 32zM960 512h-128v256h128v-256zM160 320h192c17.664 0 32 14.336 32 32v320c0 17.664-14.336 32-32 32h-192c-17.664 0-32-14.336-32-32v-320c0-17.664 14.336-32 32-32zM192 640h128v-256h-128v256zM480 192h192c17.664 0 32 14.336 32 32v320c0 17.664-14.336 32-32 32h-192c-17.664 0-32-14.336-32-32v-320c0-17.664 14.336-32 32-32zM512 512h128v-256h-128v256z" />
<glyph unicode="&#xe915;" glyph-name="scatter-chart" d="M992 128h-928v736c0 17.664-14.336 32-32 32s-32-14.336-32-32v-768c0-17.664 14.336-32 32-32h960c17.664 0 32 14.336 32 32s-14.336 32-32 32zM928 448c52.928 0 96 43.072 96 96s-43.072 96-96 96-96-43.072-96-96 43.072-96 96-96zM928 576c17.664 0 32-14.336 32-32s-14.336-32-32-32-32 14.336-32 32 14.336 32 32 32zM672 704c52.928 0 96 43.072 96 96s-43.072 96-96 96-96-43.072-96-96 43.072-96 96-96zM672 832c17.664 0 32-14.336 32-32s-14.336-32-32-32-32 14.336-32 32 14.336 32 32 32zM416 512c52.928 0 96 43.072 96 96s-43.072 96-96 96-96-43.072-96-96 43.072-96 96-96zM416 640c17.664 0 32-14.336 32-32s-14.336-32-32-32-32 14.336-32 32 14.336 32 32 32zM224 256c52.928 0 96 43.072 96 96s-43.072 96-96 96-96-43.072-96-96 43.072-96 96-96zM224 384c17.664 0 32-14.336 32-32s-14.336-32-32-32-32 14.336-32 32 14.336 32 32 32z" />
<glyph unicode="&#xe916;" glyph-name="stock-chart" d="M992 64h-960c-17.664 0-32 14.336-32 32v768c0 17.664 14.336 32 32 32s32-14.336 32-32v-736h928c17.664 0 32-14.336 32-32s-14.336-32-32-32zM352 640h-32v96c0 17.664-14.336 32-32 32s-32-14.336-32-32v-96h-32c-17.664 0-32-14.336-32-32v-256c0-17.664 14.336-32 32-32h32v-96c0-17.664 14.336-32 32-32s32 14.336 32 32v96h32c17.664 0 32 14.336 32 32v256c0 17.664-14.336 32-32 32zM320 384h-64v192h64v-192zM992 640h-32v96c0 17.664-14.336 32-32 32s-32-14.336-32-32v-96h-32c-17.664 0-32-14.336-32-32v-256c0-17.664 14.336-32 32-32h32v-96c0-17.664 14.336-32 32-32s32 14.336 32 32v96h32c17.664 0 32 14.336 32 32v256c0 17.664-14.336 32-32 32zM960 384h-64v192h64v-192zM672 768h-32v96c0 17.664-14.336 32-32 32s-32-14.336-32-32v-96h-32c-17.664 0-32-14.336-32-32v-256c0-17.664 14.336-32 32-32h32v-96c0-17.664 14.336-32 32-32s32 14.336 32 32v96h32c17.664 0 32 14.336 32 32v256c0 17.664-14.336 32-32 32zM640 512h-64v192h64v-192z" />
<glyph unicode="&#xe917;" glyph-name="x-axis" d="M928 128c-17.664 0-32-14.336-32-32v-96h-768v96c0 17.664-14.336 32-32 32s-32-14.336-32-32v-128c0-17.664 14.336-32 32-32h832c17.664 0 32 14.336 32 32v128c0 17.664-14.336 32-32 32zM331.52 199.424c5.952-4.992 13.248-7.424 20.48-7.424 9.152 0 18.24 3.904 24.576 11.52l135.424 162.496 135.424-162.496c6.336-7.616 15.424-11.52 24.576-11.52 7.232 0 14.528 2.432 20.48 7.424 13.568 11.328 15.36 31.488 4.032 45.12l-142.848 171.456 142.912 171.52c11.328 13.568 9.472 33.792-4.032 45.12-13.504 11.136-33.664 9.472-45.056-4.096l-135.488-162.56-135.424 162.496c-11.392 13.696-31.552 15.36-45.056 4.096-13.568-11.264-15.424-31.488-4.096-45.056l142.912-171.52-142.912-171.52c-11.328-13.568-9.472-33.792 4.096-45.056z" />
<glyph unicode="&#xe918;" glyph-name="y-axis" d="M160 768c17.664 0 32 14.336 32 32s-14.336 32-32 32h-128c-17.664 0-32-14.336-32-32v-768c0-17.664 14.336-32 32-32h128c17.664 0 32 14.336 32 32s-14.336 32-32 32h-96v704h96zM692.48 632.576c-13.568 11.136-33.664 9.472-45.056-4.096l-135.424-162.496-135.424 162.496c-11.328 13.696-31.552 15.36-45.056 4.096-13.568-11.264-15.424-31.488-4.096-45.056l152.576-183.104v-180.416c0-17.664 14.336-32 32-32s32 14.336 32 32v180.416l152.576 183.104c11.328 13.568 9.472 33.792-4.096 45.056z" />
<glyph unicode="&#xe919;" glyph-name="y1-axis" d="M864 64h-32v224c0 17.664-14.336 32-32 32h-64c-17.664 0-32-14.336-32-32s14.336-32 32-32h32v-192h-32c-17.664 0-32-14.336-32-32s14.336-32 32-32h128c17.664 0 32 14.336 32 32s-14.336 32-32 32zM160 768c17.664 0 32 14.336 32 32s-14.336 32-32 32h-128c-17.664 0-32-14.336-32-32v-768c0-17.664 14.336-32 32-32h128c17.664 0 32 14.336 32 32s-14.336 32-32 32h-96v704h96zM647.424 628.48l-135.424-162.496-135.424 162.496c-11.264 13.568-31.424 15.424-45.056 4.096-13.568-11.264-15.424-31.488-4.096-45.056l152.576-183.104v-180.416c0-17.664 14.336-32 32-32s32 14.336 32 32v180.416l152.576 183.104c11.328 13.568 9.472 33.792-4.096 45.12-13.632 11.264-33.792 9.408-45.056-4.16z" />
<glyph unicode="&#xe91a;" glyph-name="y2-axis" d="M832 128c35.264 0 64 28.736 64 64v64c0 35.264-28.736 64-64 64h-96c-17.664 0-32-14.336-32-32s14.336-32 32-32h96v-64h-64c-35.264 0-64-28.736-64-64v-96c0-17.664 14.336-32 32-32h128c17.664 0 32 14.336 32 32s-14.336 32-32 32h-96v64h64zM160 768c17.664 0 32 14.336 32 32s-14.336 32-32 32h-128c-17.664 0-32-14.336-32-32v-768c0-17.664 14.336-32 32-32h128c17.664 0 32 14.336 32 32s-14.336 32-32 32h-96v704h96zM647.424 628.48l-135.424-162.496-135.424 162.496c-11.264 13.568-31.424 15.424-45.056 4.096-13.568-11.264-15.424-31.488-4.096-45.056l152.576-183.104v-180.416c0-17.664 14.336-32 32-32s32 14.336 32 32v180.416l152.576 183.104c11.328 13.568 9.472 33.792-4.096 45.12-13.632 11.264-33.792 9.408-45.056-4.16z" />
<glyph unicode="&#xe91b;" glyph-name="user-arrow-down" d="M640 672c0 158.784-114.816 288-256 288s-256-129.216-256-288c0-106.112 51.84-197.952 128-247.936v-8.064c0-30.464-16.576-58.24-41.216-69.184l-135.488-59.968c-48.192-21.312-79.296-71.424-79.296-127.616v-63.232c0-17.664 14.336-32 32-32s32 14.336 32 32v63.232c0 30.464 16.576 58.24 41.216 69.184l135.488 59.968c42.048 18.624 69.696 59.52 76.416 106.88 21.44-6.592 43.584-11.264 66.88-11.264s45.376 4.672 66.816 11.2c2.816-19.584 8.128-38.656 18.432-55.36 6.016-9.856 16.512-15.232 27.264-15.232 5.696 0 11.52 1.536 16.704 4.736 15.104 9.216 19.84 28.928 10.56 43.968-7.744 12.544-11.776 27.328-11.776 42.688v8.064c76.16 49.984 128 141.824 128 247.936zM192 672c0 123.52 86.144 224 192 224s192-100.48 192-224v0c0-123.52-86.144-224-192-224s-192 100.48-192 224zM982.656 150.656c-12.48 12.48-32.768 12.48-45.248 0l-105.408-105.408v306.752c0 17.664-14.336 32-32 32s-32-14.336-32-32v-306.752l-105.344 105.344c-6.272 6.272-14.464 9.408-22.656 9.408s-16.384-3.136-22.656-9.344c-12.48-12.48-12.48-32.768 0-45.248l160-160c12.48-12.48 32.768-12.48 45.248 0l160 160c12.544 12.48 12.544 32.704 0.064 45.248z" />
<glyph unicode="&#xe91c;" glyph-name="user-arrow-up" d="M640 672c0 158.784-114.816 288-256 288s-256-129.216-256-288c0-106.112 51.84-197.952 128-247.936v-8.064c0-30.464-16.576-58.24-41.216-69.184l-135.488-59.968c-48.192-21.312-79.296-71.424-79.296-127.616v-63.232c0-17.664 14.336-32 32-32s32 14.336 32 32v63.232c0 30.464 16.576 58.24 41.216 69.184l135.488 59.968c42.048 18.624 69.696 59.52 76.416 106.88 21.44-6.592 43.584-11.264 66.88-11.264s45.376 4.672 66.816 11.2c2.816-19.584 8.128-38.656 18.432-55.36 6.016-9.856 16.512-15.232 27.264-15.232 5.696 0 11.52 1.536 16.704 4.736 15.104 9.216 19.84 28.928 10.56 43.968-7.744 12.544-11.776 27.328-11.776 42.688v8.064c76.16 49.984 128 141.824 128 247.936zM192 672c0 123.52 86.144 224 192 224s192-100.48 192-224v0c0-123.52-86.144-224-192-224s-192 100.48-192 224zM982.656 214.656l-160 160c-12.48 12.48-32.768 12.48-45.248 0l-160-160c-12.48-12.48-12.48-32.768 0-45.248s32.768-12.48 45.248 0l105.344 105.344v-306.752c0-17.664 14.336-32 32-32s32 14.336 32 32v306.752l105.344-105.344c6.272-6.272 14.464-9.408 22.656-9.408s16.384 3.136 22.656 9.344c12.48 12.544 12.48 32.768 0 45.312z" />
<glyph unicode="&#xe91d;" glyph-name="user-chart" d="M640 672c0 158.784-114.816 288-256 288s-256-129.216-256-288c0-106.112 51.84-197.952 128-247.936v-8.064c0-30.464-16.576-58.24-41.216-69.184l-135.488-59.968c-48.192-21.312-79.296-71.424-79.296-127.616v-63.232c0-17.664 14.336-32 32-32s32 14.336 32 32v63.232c0 30.464 16.576 58.24 41.216 69.184l135.488 59.968c42.048 18.624 69.696 59.52 76.416 106.88 21.44-6.592 43.584-11.264 66.88-11.264s45.376 4.672 66.816 11.2c2.816-19.584 8.128-38.656 18.432-55.36 6.016-9.856 16.512-15.232 27.264-15.232 5.696 0 11.52 1.536 16.704 4.736 15.104 9.216 19.84 28.928 10.56 43.968-7.744 12.544-11.776 27.328-11.776 42.688v8.064c76.16 49.984 128 141.824 128 247.936zM192 672c0 123.52 86.144 224 192 224s192-100.48 192-224v0c0-123.52-86.144-224-192-224s-192 100.48-192 224zM992 256h-96v96c0 17.664-14.336 32-32 32h-128c-17.664 0-32-14.336-32-32v-160h-96c-17.664 0-32-14.336-32-32v-192c0-17.664 14.336-32 32-32h384c17.664 0 32 14.336 32 32v256c0 17.664-14.336 32-32 32zM704 0h-64v128h64v-128zM832 224v-224h-64v320h64v-96zM960 0h-64v192h64v-192z" />
<glyph unicode="&#xe91e;" glyph-name="user-circle-o" d="M512 960c-282.304 0-512-229.696-512-512s229.696-512 512-512 512 229.696 512 512-229.696 512-512 512zM288 60.608l80.704 35.712c42.048 18.624 69.696 59.52 76.416 106.88 21.44-6.528 43.584-11.2 66.88-11.2s45.44 4.672 66.88 11.264c6.72-47.36 34.432-88.256 76.48-106.88l80.704-35.712c-66.048-38.336-142.4-60.672-224.064-60.672s-158.016 22.336-224 60.608zM512 256c-105.856 0-192 100.48-192 224s86.144 224 192 224 192-100.48 192-224c0-123.52-86.144-224-192-224zM797.76 103.296l-116.48 51.584c-24.704 10.88-41.28 38.656-41.28 69.12v8.064c76.16 49.984 128 141.824 128 247.936 0 158.784-114.816 288-256 288s-256-129.216-256-288v0c0-106.112 51.84-197.952 128-247.936v-8.064c0-30.464-16.576-58.24-41.216-69.184l-116.544-51.584c-99.008 82.304-162.24 206.272-162.24 344.768 0 247.040 200.96 448 448 448s448-200.96 448-448c0-138.496-63.232-262.464-162.24-344.704z" />
<glyph unicode="&#xe91f;" glyph-name="cloud-wrench" d="M832 514.048v0c0 0.077 0 0.167 0 0.258 0 106.193-85.868 192.33-191.959 192.766h-0.042c-27.827-0.003-54.233-6.085-77.963-16.991l1.163 0.479c-34.085 82.91-114.221 140.224-207.744 140.224-123.712 0-224-100.288-224-224v0c0.053-16.609 1.962-32.744 5.531-48.245l-0.283 1.461c-81.067-35.227-136.73-114.602-136.73-206.978 0-123.926 100.179-224.455 223.972-225.022h0.054c17.673 0 32 14.327 32 32s-14.327 32-32 32v0c-88.514 0.502-160.075 72.373-160.075 160.958 0 74.408 50.489 137.024 119.077 155.457l1.126 0.258c13.823 3.741 23.826 16.171 23.826 30.938 0 3.869-0.687 7.578-1.945 11.012l0.071-0.222c-6.595 16.618-10.482 35.867-10.624 56.005v0.059c0.693 87.838 72.060 158.777 159.995 158.777 77.449 0 142.045-55.028 156.823-128.119l0.173-1.026c2.771-15.086 15.818-26.367 31.5-26.367 7.461 0 14.326 2.554 19.768 6.835l-0.069-0.052c20.84 16.427 47.397 26.452 76.284 26.751l0.068 0.001c70.77-0.363 128.001-57.817 128.001-128.638 0-0.136 0-0.271-0.001-0.406v0.021c-0.105-10.523-1.476-20.678-3.967-30.383l0.191 0.879c-0.525-2.171-0.827-4.664-0.827-7.227 0-17.673 14.327-32 32-32 2.563 0 5.056 0.301 7.444 0.87l-0.218-0.044c8.795 2.281 18.909 3.63 29.325 3.712h0.051c70.906-0.509 128.19-58.107 128.19-129.085 0-61.91-43.583-113.641-101.741-126.186l-0.849-0.154c-14.714-3.082-25.606-15.949-25.606-31.36 0-17.677 14.33-32.006 32.006-32.006 2.265 0 4.476 0.235 6.608 0.683l-0.208-0.037c88.456 18.841 153.844 96.313 153.844 189.058 0 106.343-85.968 192.607-192.198 193.086h-0.046zM737.664 327.168l-91.84-91.84c-2.897-2.904-6.903-4.701-11.328-4.701s-8.431 1.797-11.328 4.7v0l-67.84 67.84c-2.904 2.897-4.701 6.903-4.701 11.328s1.797 8.431 4.7 11.328v0l91.84 91.84c2.92 2.909 4.727 6.934 4.727 11.381 0 7.552-5.211 13.886-12.233 15.604l-0.11 0.023c-9.52 2.099-20.455 3.301-31.671 3.301-18.906 0-37.015-3.416-53.742-9.664l1.061 0.347c-45.648-16.848-81.008-52.208-97.49-96.727l-0.366-1.129c-5.917-15.711-9.342-33.871-9.342-52.83 0-17.459 2.904-34.24 8.257-49.886l-0.322 1.084c0.569-1.568 0.898-3.378 0.898-5.264 0-4.332-1.735-8.258-4.549-11.122l-174.782-174.782c-12.787-12.163-20.741-29.306-20.741-48.306 0-15.659 5.402-30.057 14.445-41.43l-0.105 0.136c11.81-13.784 29.237-22.464 48.69-22.464 17.676 0 33.679 7.166 45.261 18.752l177.536 177.536c2.862 2.811 6.788 4.546 11.12 4.546 1.887 0 3.696-0.329 5.375-0.933l-0.111 0.035c14.561-5.030 31.342-7.934 48.802-7.934 18.96 0 37.12 3.425 53.894 9.691l-1.064-0.348c45.648 16.848 81.008 52.208 97.49 96.727l0.366 1.129c5.901 15.666 9.317 33.775 9.317 52.681 0 11.216-1.202 22.151-3.485 32.683l0.184-1.012c-1.778 7.081-8.088 12.241-15.603 12.241-4.364 0-8.322-1.74-11.217-4.565l0.003 0.003z" />
<glyph unicode="&#xe920;" glyph-name="cloud-x" d="M832 514.048v0c0 0.077 0 0.167 0 0.258 0 106.193-85.868 192.33-191.959 192.766h-0.042c-27.827-0.003-54.233-6.085-77.963-16.991l1.163 0.479c-34.085 82.91-114.221 140.224-207.744 140.224-123.712 0-224-100.288-224-224v0c0.053-16.609 1.962-32.744 5.531-48.245l-0.283 1.461c-81.067-35.227-136.73-114.602-136.73-206.978 0-123.926 100.179-224.455 223.972-225.022h0.054c17.673 0 32 14.327 32 32s-14.327 32-32 32v0c-88.514 0.502-160.075 72.373-160.075 160.958 0 74.408 50.489 137.024 119.077 155.457l1.126 0.258c13.823 3.741 23.826 16.171 23.826 30.938 0 3.869-0.687 7.578-1.945 11.012l0.071-0.222c-6.595 16.618-10.482 35.867-10.624 56.005v0.059c0.693 87.838 72.060 158.777 159.995 158.777 77.449 0 142.045-55.028 156.823-128.119l0.173-1.026c2.104-11.047 9.651-19.95 19.687-23.924l0.217-0.076c3.323-1.278 7.167-2.018 11.185-2.018 7.445 0 14.296 2.543 19.733 6.807l-0.070-0.053c20.986 16.404 47.724 26.337 76.778 26.432h0.022c70.77-0.363 128.001-57.817 128.001-128.638 0-0.136 0-0.271-0.001-0.406v0.021c-0.105-10.523-1.476-20.678-3.967-30.383l0.191 0.879c-0.525-2.171-0.827-4.664-0.827-7.227 0-17.673 14.327-32 32-32 2.563 0 5.056 0.301 7.444 0.87l-0.218-0.044c8.795 2.281 18.909 3.63 29.325 3.712h0.051c70.906-0.509 128.19-58.107 128.19-129.085 0-61.91-43.583-113.641-101.741-126.186l-0.849-0.154c-14.714-3.082-25.606-15.949-25.606-31.36 0-17.677 14.33-32.006 32.006-32.006 2.265 0 4.476 0.235 6.608 0.683l-0.208-0.037c88.456 18.841 153.844 96.313 153.844 189.058 0 106.343-85.968 192.607-192.198 193.086h-0.046zM694.656 310.656c-5.794 5.808-13.805 9.401-22.656 9.401s-16.862-3.593-22.655-9.401l-105.345-105.345-105.344 105.344c-5.796 5.804-13.807 9.394-22.656 9.394-17.683 0-32.018-14.335-32.018-32.018 0-8.834 3.577-16.832 9.362-22.624v0l105.408-105.408-105.408-105.344c-5.785-5.792-9.362-13.79-9.362-22.624 0-17.683 14.335-32.018 32.018-32.018 8.849 0 16.86 3.59 22.656 9.393l105.344 105.408 105.344-105.408c5.796-5.804 13.807-9.394 22.656-9.394 17.683 0 32.018 14.335 32.018 32.018 0 8.834-3.577 16.832-9.362 22.624v0l-105.408 105.344 105.408 105.344c5.808 5.794 9.401 13.805 9.401 22.656s-3.593 16.862-9.401 22.655l-0.001 0.001z" />
<glyph unicode="&#xe921;" glyph-name="user-check" d="M640 672c0 158.784-114.816 288-256 288s-256-129.216-256-288c0-106.112 51.84-197.952 128-247.936v-8.064c0-30.464-16.576-58.24-41.216-69.184l-135.488-59.968c-48.192-21.312-79.296-71.424-79.296-127.616v-63.232c0-17.664 14.336-32 32-32s32 14.336 32 32v63.232c0 30.464 16.576 58.24 41.216 69.184l135.488 59.968c42.048 18.624 69.696 59.52 76.416 106.88 21.44-6.592 43.584-11.264 66.88-11.264s45.376 4.672 66.816 11.2c2.816-19.584 8.128-38.656 18.432-55.36 6.016-9.856 16.512-15.232 27.264-15.232 5.696 0 11.52 1.536 16.704 4.736 15.104 9.216 19.84 28.928 10.56 43.968-7.744 12.544-11.776 27.328-11.776 42.688v8.064c76.16 49.984 128 141.824 128 247.936zM192 672c0 123.52 86.144 224 192 224s192-100.48 192-224v0c0-123.52-86.144-224-192-224s-192 100.48-192 224zM1014.656 310.656c-12.48 12.48-32.768 12.48-45.248 0l-233.408-233.408-105.344 105.344c-12.48 12.48-32.768 12.48-45.248 0s-12.48-32.768 0-45.248l128-128c6.208-6.208 14.4-9.344 22.592-9.344s16.384 3.136 22.656 9.344l256 256c12.48 12.544 12.48 32.768 0 45.312z" />
<glyph unicode="&#xe922;" glyph-name="user-clock" d="M640 672c0 158.784-114.816 288-256 288s-256-129.216-256-288c0-106.112 51.84-197.952 128-247.936v-8.064c0-30.464-16.576-58.24-41.216-69.184l-135.488-59.968c-48.192-21.312-79.296-71.424-79.296-127.616v-63.232c0-17.664 14.336-32 32-32s32 14.336 32 32v63.232c0 30.464 16.576 58.24 41.216 69.184l135.488 59.968c42.048 18.624 69.696 59.52 76.416 106.88 21.44-6.592 43.584-11.264 66.88-11.264s45.376 4.672 66.816 11.2c2.816-19.584 8.128-38.656 18.432-55.36 6.016-9.856 16.512-15.232 27.264-15.232 5.696 0 11.52 1.536 16.704 4.736 15.104 9.216 19.84 28.928 10.56 43.968-7.744 12.544-11.776 27.328-11.776 42.688v8.064c76.16 49.984 128 141.824 128 247.936zM192 672c0 123.52 86.144 224 192 224s192-100.48 192-224v0c0-123.52-86.144-224-192-224s-192 100.48-192 224zM800 384c-123.52 0-224-100.48-224-224s100.48-224 224-224 224 100.48 224 224-100.48 224-224 224zM800 0c-88.192 0-160 71.808-160 160s71.808 160 160 160 160-71.808 160-160-71.808-160-160-160zM832 173.248v50.752c0 17.664-14.336 32-32 32s-32-14.336-32-32v-64c0-8.512 3.392-16.64 9.344-22.656l64-64c6.272-6.208 14.464-9.344 22.656-9.344s16.384 3.136 22.656 9.344c12.48 12.48 12.48 32.768 0 45.248l-54.656 54.656z" />
<glyph unicode="&#xe923;" glyph-name="user-graduate" d="M797.632 292.928c-71.872 33.984-119.744 59.968-124.672 100.288 57.536 58.752 95.040 146.944 95.040 246.784 0 28.352-1.152 53.056-2.816 76.416l172.224 52.992c13.44 4.16 22.592 16.512 22.592 30.592s-9.152 26.432-22.592 30.592l-416 128c-6.144 1.856-12.672 1.856-18.816 0l-416-128c-0.384-0.128-0.576-0.576-0.96-0.704-5.76-1.984-10.496-5.44-14.208-10.048-0.704-0.896-1.152-1.792-1.792-2.752-3.2-4.864-5.376-10.368-5.44-16.576 0-0.192-0.192-0.32-0.192-0.512 0-0.064 0.064-0.064 0.064-0.128s-0.064-0.192-0.064-0.256l2.304-192c0.192-17.536 14.464-31.616 32-31.616 0.128 0 0.256 0 0.384 0 17.664 0.192 31.872 14.656 31.616 32.384l-1.792 148.16 130.304-40.064c-1.664-23.424-2.816-48.128-2.816-76.48 0-99.84 37.504-188.032 95.040-246.784-4.928-40.32-52.8-66.304-124.672-100.288-76.096-35.904-162.368-76.672-162.368-164.928v-96c0-17.664 14.336-32 32-32s32 14.336 32 32v96c0 44.352 49.728 71.168 125.632 107.072 60.032 28.352 125.696 60.096 151.040 115.392 32.768-19.072 68.864-30.464 107.328-30.464s74.56 11.392 107.328 30.464c25.344-55.296 91.008-87.040 151.040-115.392 75.904-35.904 125.632-62.72 125.632-107.072v-96c0-17.664 14.336-32 32-32s32 14.336 32 32v96c0 88.256-86.272 129.024-162.368 164.928zM512 894.528l307.2-94.528-307.2-94.528-307.2 94.528 307.2 94.528zM320 640c0 20.8 0.704 39.36 1.664 57.088l180.928-55.68c3.072-0.896 6.208-1.408 9.408-1.408s6.336 0.512 9.408 1.408l180.928 55.68c0.96-17.728 1.664-36.288 1.664-57.088 0-141.184-86.144-256-192-256s-192 114.816-192 256z" />
<glyph unicode="&#xe924;" glyph-name="user-heart" d="M640 672c0 158.784-114.816 288-256 288s-256-129.216-256-288c0-106.112 51.84-197.952 128-247.936v-8.064c0-30.464-16.576-58.24-41.216-69.184l-135.488-59.968c-48.192-21.312-79.296-71.424-79.296-127.616v-63.232c0-17.664 14.336-32 32-32s32 14.336 32 32v63.232c0 30.464 16.576 58.24 41.216 69.184l135.488 59.968c42.048 18.624 69.696 59.52 76.416 106.88 21.44-6.592 43.584-11.264 66.88-11.264s45.376 4.672 66.816 11.2c2.816-19.584 8.128-38.656 18.432-55.36 6.016-9.856 16.512-15.232 27.264-15.232 5.696 0 11.52 1.536 16.704 4.736 15.104 9.216 19.84 28.928 10.56 43.968-7.744 12.544-11.776 27.328-11.776 42.688v8.064c76.16 49.984 128 141.824 128 247.936zM192 672c0 123.52 86.144 224 192 224s192-100.48 192-224v0c0-123.52-86.144-224-192-224s-192 100.48-192 224zM986.624 283.584c-49.408 48.448-129.792 48.384-179.136 0l-7.488-7.296-7.424 7.296c-49.408 48.448-129.792 48.384-179.136 0-24.128-23.68-37.44-55.168-37.44-88.704s13.312-65.088 37.376-88.704l164.16-161.024c6.272-6.080 14.4-9.152 22.464-9.152s16.192 3.072 22.4 9.152l164.16 161.024c24.128 23.616 37.44 55.168 37.44 88.704s-13.312 65.024-37.376 88.704zM941.76 151.872l-141.76-139.072-141.76 139.008c-11.776 11.584-18.24 26.88-18.24 43.072s6.464 31.488 18.24 43.008c12.352 12.096 28.544 18.176 44.8 18.176 16.192 0 32.384-6.080 44.736-18.176l29.824-29.312c12.416-12.16 32.384-12.16 44.8 0l29.824 29.312c24.704 24.128 64.832 24.192 89.536 0 11.776-11.52 18.24-26.816 18.24-43.008s-6.464-31.488-18.24-43.008z" />
<glyph unicode="&#xe925;" glyph-name="user-lock" d="M640 672c0 158.784-114.816 288-256 288s-256-129.216-256-288c0-106.112 51.84-197.952 128-247.936v-8.064c0-30.464-16.576-58.24-41.216-69.184l-135.488-59.968c-48.192-21.312-79.296-71.424-79.296-127.616v-63.232c0-17.664 14.336-32 32-32s32 14.336 32 32v63.232c0 30.464 16.576 58.24 41.216 69.184l135.488 59.968c42.048 18.624 69.696 59.52 76.416 106.88 21.44-6.592 43.584-11.264 66.88-11.264s45.376 4.672 66.816 11.2c2.816-19.584 8.128-38.656 18.432-55.36 6.016-9.856 16.512-15.232 27.264-15.232 5.696 0 11.52 1.536 16.704 4.736 15.104 9.216 19.84 28.928 10.56 43.968-7.744 12.544-11.776 27.328-11.776 42.688v8.064c76.16 49.984 128 141.824 128 247.936zM192 672c0 123.52 86.144 224 192 224s192-100.48 192-224v0c0-123.52-86.144-224-192-224s-192 100.48-192 224zM960 192v64c0 70.592-57.408 128-128 128s-128-57.408-128-128v-64c-35.264 0-64-28.736-64-64v-128c0-35.264 28.736-64 64-64h256c35.264 0 64 28.736 64 64v128c0 35.264-28.736 64-64 64zM768 256c0 35.264 28.736 64 64 64s64-28.736 64-64v-64h-128v64zM960 0h-256v128h256v-128z" />
<glyph unicode="&#xe926;" glyph-name="user-magnifying-glass, user-search" d="M640 672c0 158.784-114.816 288-256 288s-256-129.216-256-288c0-106.112 51.84-197.952 128-247.936v-8.064c0-30.464-16.576-58.24-41.216-69.184l-135.488-59.968c-48.192-21.312-79.296-71.424-79.296-127.616v-63.232c0-17.664 14.336-32 32-32s32 14.336 32 32v63.232c0 30.464 16.576 58.24 41.216 69.184l135.488 59.968c42.048 18.624 69.696 59.52 76.416 106.88 21.44-6.592 43.584-11.264 66.88-11.264s45.376 4.672 66.816 11.2c2.816-19.584 8.128-38.656 18.432-55.36 6.016-9.856 16.512-15.232 27.264-15.232 5.696 0 11.52 1.536 16.704 4.736 15.104 9.216 19.84 28.928 10.56 43.968-7.744 12.544-11.776 27.328-11.776 42.688v8.064c76.16 49.984 128 141.824 128 247.936zM192 672c0 123.52 86.144 224 192 224s192-100.48 192-224v0c0-123.52-86.144-224-192-224s-192 100.48-192 224zM1014.656-9.344l-81.28 81.28c16.768 25.28 26.624 55.488 26.624 88.064 0 88.192-71.808 160-160 160s-160-71.808-160-160 71.808-160 160-160c32.576 0 62.784 9.856 88.064 26.688l81.28-81.28c6.272-6.272 14.464-9.408 22.656-9.408s16.384 3.136 22.656 9.344c12.48 12.544 12.48 32.768 0 45.312zM800 64c-52.928 0-96 43.072-96 96s43.072 96 96 96 96-43.072 96-96-43.072-96-96-96z" />
<glyph unicode="&#xe927;" glyph-name="user-edit" d="M640 672c0 158.784-114.816 288-256 288s-256-129.216-256-288c0-106.112 51.84-197.952 128-247.936v-8.064c0-30.464-16.576-58.24-41.216-69.184l-135.488-59.968c-48.192-21.312-79.296-71.424-79.296-127.616v-63.232c0-17.664 14.336-32 32-32s32 14.336 32 32v63.232c0 30.464 16.576 58.24 41.216 69.184l135.488 59.968c42.048 18.624 69.696 59.52 76.416 106.88 21.44-6.592 43.584-11.264 66.88-11.264s45.376 4.672 66.816 11.2c2.816-19.584 8.128-38.656 18.432-55.36 6.016-9.856 16.512-15.232 27.264-15.232 5.696 0 11.52 1.536 16.704 4.736 15.104 9.216 19.84 28.928 10.56 43.968-7.744 12.544-11.776 27.328-11.776 42.688v8.064c76.16 49.984 128 141.824 128 247.936zM192 672c0 123.52 86.144 224 192 224s192-100.48 192-224v0c0-123.52-86.144-224-192-224s-192 100.48-192 224zM995.904 355.84c0 0 0 0 0 0-37.44 37.376-98.368 37.44-135.744 0l-191.040-191.040c-12.8-12.8-23.424-27.904-30.784-43.648l-57.728-123.84c-8.064-17.344-5.12-36.736 7.552-49.344 7.808-7.872 18.368-11.968 29.312-11.968 6.656 0 13.44 1.472 19.968 4.544l123.776 57.664c15.744 7.36 30.848 17.984 43.648 30.784l191.040 191.040c18.112 18.176 28.096 42.304 28.096 67.904 0 25.664-9.984 49.728-28.096 67.904zM950.656 265.344l-191.040-191.040c-7.552-7.552-16.384-13.824-25.408-18.048l-70.912-33.088 33.088 70.912c4.224 9.088 10.496 17.856 18.048 25.408l191.040 191.040c6.272 6.272 14.464 9.344 22.656 9.344s16.384-3.072 22.656-9.344c0 0 0 0 0 0 5.888-6.016 9.216-14.016 9.216-22.592 0-8.512-3.328-16.576-9.344-22.592z" />
<glyph unicode="&#xe928;" glyph-name="user-wrench" d="M523.776 373.312c-7.744 12.544-11.776 27.328-11.776 42.688v8.064c76.16 49.984 128 141.824 128 247.936 0 158.784-114.816 288-256 288s-256-129.216-256-288c0-106.112 51.84-197.952 128-247.936v-8.064c0-30.464-16.576-58.24-41.216-69.184l-135.488-59.968c-48.192-21.312-79.296-71.424-79.296-127.616v-63.232c0-17.664 14.336-32 32-32s32 14.336 32 32v63.232c0 30.464 16.576 58.24 41.216 69.184l135.488 59.968c42.048 18.624 69.696 59.52 76.416 106.88 21.44-6.592 43.584-11.264 66.88-11.264s45.376 4.672 66.816 11.2c2.816-19.584 8.128-38.656 18.432-55.36 6.016-9.856 16.512-15.232 27.264-15.232 5.696 0 11.52 1.536 16.704 4.736 15.104 9.216 19.84 28.928 10.56 43.968zM192 672c0 123.52 86.144 224 192 224s192-100.48 192-224v0c0-123.52-86.144-224-192-224s-192 100.48-192 224zM1020.672 319.552c-2.56 12.288-18.176 16.448-27.072 7.616l-91.84-91.84c-6.272-6.272-16.384-6.272-22.656 0l-67.904 67.84c-6.272 6.272-6.272 16.384 0 22.656l91.84 91.84c8.896 8.896 4.672 24.448-7.616 27.072-26.112 5.504-54.592 4.608-84.352-6.016-45.184-16.128-81.728-52.672-97.856-97.856-12.992-36.48-11.456-70.976-1.408-101.632 1.92-5.76 0.64-12.096-3.648-16.384l-174.656-174.848c-24.128-24.128-28.416-63.68-6.208-89.536 12.864-14.976 30.784-22.464 48.704-22.464 16.384 0 32.768 6.272 45.248 18.752l177.536 177.536c4.288 4.288 10.624 5.568 16.384 3.648 30.656-10.048 65.152-11.648 101.632 1.408 45.184 16.128 81.728 52.672 97.856 97.856 10.624 29.76 11.52 58.24 6.016 84.352z" />
<glyph unicode="&#xe929;" glyph-name="user-ban" d="M640 672c0 158.784-114.816 288-256 288s-256-129.216-256-288c0-106.112 51.84-197.952 128-247.936v-8.064c0-30.464-16.576-58.24-41.216-69.184l-135.488-59.968c-48.192-21.312-79.296-71.424-79.296-127.616v-63.232c0-17.664 14.336-32 32-32s32 14.336 32 32v63.232c0 30.464 16.576 58.24 41.216 69.184l135.488 59.968c42.048 18.624 69.696 59.52 76.416 106.88 21.44-6.592 43.584-11.264 66.88-11.264s45.376 4.672 66.816 11.2c2.816-19.584 8.128-38.656 18.432-55.36 6.016-9.856 16.512-15.232 27.264-15.232 5.696 0 11.52 1.536 16.704 4.736 15.104 9.216 19.84 28.928 10.56 43.968-7.744 12.544-11.776 27.328-11.776 42.688v8.064c76.16 49.984 128 141.824 128 247.936zM192 672c0 123.52 86.144 224 192 224s192-100.48 192-224v0c0-123.52-86.144-224-192-224s-192 100.48-192 224zM800 384c-123.52 0-224-100.48-224-224s100.48-224 224-224 224 100.48 224 224-100.48 224-224 224zM640 160c0 88.192 71.808 160 160 160 32.576 0 62.784-9.856 88.064-26.688l-221.44-221.44c-16.768 25.344-26.624 55.552-26.624 88.128zM800 0c-32.576 0-62.784 9.856-88.064 26.688l221.44 221.44c16.768-25.344 26.624-55.552 26.624-88.128 0-88.192-71.808-160-160-160z" />
<glyph unicode="&#xe92a;" glyph-name="user-cursor" d="M640 672c0 158.784-114.816 288-256 288s-256-129.216-256-288c0-106.112 51.84-197.952 128-247.936v-8.064c0-30.464-16.576-58.24-41.216-69.184l-135.488-59.968c-48.192-21.312-79.296-71.424-79.296-127.616v-63.232c0-17.664 14.336-32 32-32s32 14.336 32 32v63.232c0 30.464 16.576 58.24 41.216 69.184l135.488 59.968c42.048 18.624 69.696 59.52 76.416 106.88 21.44-6.592 43.584-11.264 66.88-11.264s45.376 4.672 66.816 11.2c2.816-19.584 8.128-38.656 18.432-55.36 6.016-9.856 16.512-15.232 27.264-15.232 5.696 0 11.52 1.536 16.704 4.736 15.104 9.216 19.84 28.928 10.56 43.968-7.744 12.544-11.776 27.328-11.776 42.688v8.064c76.16 49.984 128 141.824 128 247.936zM192 672c0 123.52 86.144 224 192 224s192-100.48 192-224v0c0-123.52-86.144-224-192-224s-192 100.48-192 224zM928 0h-32c-35.264 0-64 28.736-64 64v64h32c17.664 0 32 14.336 32 32s-14.336 32-32 32h-32v64c0 35.264 28.736 64 64 64h32c17.664 0 32 14.336 32 32s-14.336 32-32 32h-32c-38.208 0-72.512-16.832-96-43.456-23.488 26.624-57.792 43.456-96 43.456h-32c-17.664 0-32-14.336-32-32s14.336-32 32-32h32c35.264 0 64-28.736 64-64v-64h-32c-17.664 0-32-14.336-32-32s14.336-32 32-32h32v-64c0-35.264-28.736-64-64-64h-32c-17.664 0-32-14.336-32-32s14.336-32 32-32h32c38.208 0 72.512 16.832 96 43.456 23.488-26.624 57.792-43.456 96-43.456h32c17.664 0 32 14.336 32 32s-14.336 32-32 32z" />
<glyph unicode="&#xe92b;" glyph-name="cart-arrow-up" d="M1002.125 638.342c-3.033 1.053-6.528 1.662-10.165 1.662-14.038 0-25.96-9.061-30.236-21.654l-0.066-0.225-117.875-353.658c-2.399-4.425-6.65-7.584-11.685-8.453l-0.098-0.014h-544c-3.887 0.766-7.058 3.3-8.685 6.711l-0.032 0.073-112.474 449.92c-8.742 31.668-37.005 54.65-70.737 55.295l-0.073 0.001h-64c-17.673 0-32-14.327-32-32s14.327-32 32-32v0h64c3.887-0.766 7.058-3.3 8.685-6.711l0.032-0.073 112.474-449.92c8.742-31.668 37.005-54.65 70.737-55.295l0.073-0.001h544c33.25 0.896 61.32 22.128 72.289 51.669l0.178 0.548 117.875 353.658c1.040 3.019 1.641 6.498 1.641 10.117 0 14.045-9.048 25.977-21.634 30.284l-0.225 0.067zM384 64c0-35.346-28.654-64-64-64s-64 28.654-64 64c0 35.346 28.654 64 64 64s64-28.654 64-64zM832 64c0-35.346-28.654-64-64-64s-64 28.654-64 64c0 35.346 28.654 64 64 64s64-28.654 64-64zM406.624 681.376l105.376 105.376v-306.752c0-17.673 14.327-32 32-32s32 14.327 32 32v0 306.752l105.376-105.376c5.749-5.558 13.59-8.983 22.231-8.983 17.673 0 32 14.327 32 32 0 8.641-3.425 16.482-8.991 22.24l-159.991 159.991c-5.791 5.789-13.789 9.369-22.624 9.369s-16.833-3.58-22.624-9.369l-160-160c-5.558-5.749-8.983-13.59-8.983-22.231 0-17.673 14.327-32 32-32 8.641 0 16.482 3.425 22.24 8.991l-0.009-0.009z" />
<glyph unicode="&#xe92c;" glyph-name="cart-check" d="M1002.125 638.342c-3.033 1.053-6.528 1.662-10.165 1.662-14.038 0-25.96-9.061-30.236-21.654l-0.066-0.225-117.875-353.658c-2.399-4.425-6.65-7.584-11.685-8.453l-0.098-0.014h-544c-3.887 0.766-7.058 3.3-8.685 6.711l-0.032 0.073-112.474 449.92c-8.742 31.668-37.005 54.65-70.737 55.295l-0.073 0.001h-64c-17.673 0-32-14.327-32-32s14.327-32 32-32v0h64c3.887-0.766 7.058-3.3 8.685-6.711l0.032-0.073 112.474-449.92c8.742-31.668 37.005-54.65 70.737-55.295l0.073-0.001h544c33.25 0.896 61.32 22.128 72.289 51.669l0.178 0.548 117.875 353.658c1.040 3.019 1.641 6.498 1.641 10.117 0 14.045-9.048 25.977-21.634 30.284l-0.225 0.067zM384 64c0-35.346-28.654-64-64-64s-64 28.654-64 64c0 35.346 28.654 64 64 64s64-28.654 64-64zM832 64c0-35.346-28.654-64-64-64s-64 28.654-64 64c0 35.346 28.654 64 64 64s64-28.654 64-64zM521.376 521.376c5.791-5.789 13.789-9.369 22.624-9.369s16.833 3.58 22.624 9.369l256 256c6.027 5.827 9.769 13.985 9.769 23.017 0 17.673-14.327 32-32 32-9.032 0-17.19-3.742-23.009-9.76l-233.385-233.385-105.376 105.376c-5.749 5.558-13.59 8.983-22.231 8.983-17.673 0-32-14.327-32-32 0-8.641 3.425-16.482 8.991-22.24l-0.009 0.009z" />
<glyph unicode="&#xe92d;" glyph-name="cart-empty" d="M1002.112 638.336c-3.013 1.036-6.485 1.635-10.097 1.635-14.045 0-25.977-9.048-30.284-21.634l-0.067-0.225-117.888-353.664c-2.402-4.415-6.649-7.566-11.678-8.434l-0.098-0.014h-544c-3.887 0.76-7.055 3.296-8.673 6.711l-0.031 0.073-112.512 449.92c-8.734 31.664-36.988 54.645-70.711 55.295l-0.073 0.001h-64c-17.673 0-32-14.327-32-32s14.327-32 32-32v0h64c3.887-0.76 7.055-3.296 8.673-6.711l0.031-0.073 112.512-449.92c8.734-31.664 36.988-54.645 70.711-55.295l0.073-0.001h544c33.25 0.887 61.32 22.126 72.27 51.676l0.178 0.548 117.888 353.664c1.036 3.013 1.635 6.485 1.635 10.097 0 14.045-9.048 25.977-21.634 30.284l-0.225 0.067zM384 64c0-35.346-28.654-64-64-64s-64 28.654-64 64c0 35.346 28.654 64 64 64s64-28.654 64-64zM832 64c0-35.346-28.654-64-64-64s-64 28.654-64 64c0 35.346 28.654 64 64 64s64-28.654 64-64z" />
<glyph unicode="&#xe92e;" glyph-name="cart-full" d="M1005.594 681.779c-10.156 13.558-26.182 22.238-44.236 22.238-0.477 0-0.953-0.006-1.428-0.018l0.070 0.001h-178.752l-182.624 182.624c-5.791 5.789-13.789 9.369-22.624 9.369s-16.833-3.58-22.624-9.369l-182.624-182.624h-185.792l-18.15 72.717c-8.747 31.663-37.009 54.639-70.737 55.282l-0.072 0.001h-64c-17.673 0-32-14.327-32-32s14.327-32 32-32v0h64c3.887-0.766 7.058-3.3 8.685-6.711l0.032-0.073 23.040-92.25c0.313-3.441 1.133-6.61 2.388-9.549l-0.078 0.205 87.098-348.339c8.749-31.671 37.024-54.651 70.764-55.282l0.071-0.001h544c33.25 0.896 61.32 22.128 72.289 51.669l0.178 0.548 107.75 323.315c2.082 5.574 3.288 12.015 3.288 18.737 0 11.795-3.71 22.724-10.028 31.683l0.116-0.174zM576 818.752l114.752-114.752h-229.504zM843.782 328.467c-2.399-4.425-6.65-7.584-11.685-8.453l-0.098-0.014h-544c-3.887 0.766-7.058 3.3-8.685 6.711l-0.032 0.073-78.323 313.216h746.637zM384 128c0-35.346-28.654-64-64-64s-64 28.654-64 64c0 35.346 28.654 64 64 64s64-28.654 64-64zM832 128c0-35.346-28.654-64-64-64s-64 28.654-64 64c0 35.346 28.654 64 64 64s64-28.654 64-64z" />
<glyph unicode="&#xe92f;" glyph-name="cart-heart" d="M1002.125 638.342c-3.033 1.053-6.528 1.662-10.165 1.662-14.038 0-25.96-9.061-30.236-21.654l-0.066-0.225-117.875-353.658c-2.399-4.425-6.65-7.584-11.685-8.453l-0.098-0.014h-544c-3.887 0.766-7.058 3.3-8.685 6.711l-0.032 0.073-112.474 449.92c-8.742 31.668-37.005 54.65-70.737 55.295l-0.073 0.001h-64c-17.673 0-32-14.327-32-32s14.327-32 32-32v0h64c3.887-0.766 7.058-3.3 8.685-6.711l0.032-0.073 112.474-449.92c8.742-31.668 37.005-54.65 70.737-55.295l0.073-0.001h544c33.25 0.896 61.32 22.128 72.289 51.669l0.178 0.548 117.875 353.658c1.040 3.019 1.641 6.498 1.641 10.117 0 14.045-9.048 25.977-21.634 30.284l-0.225 0.067zM384 64c0-35.346-28.654-64-64-64s-64 28.654-64 64c0 35.346 28.654 64 64 64s64-28.654 64-64zM832 64c0-35.346-28.654-64-64-64s-64 28.654-64 64c0 35.346 28.654 64 64 64s64-28.654 64-64zM521.6 457.158c5.767-5.656 13.676-9.147 22.4-9.147s16.633 3.491 22.405 9.152l-0.005-0.005 164.186 160.998c23.089 22.522 37.409 53.941 37.409 88.704s-14.32 66.182-37.383 88.679l-0.025 0.025c-23.133 22.464-54.738 36.314-89.578 36.314s-66.444-13.85-89.609-36.344l0.031 0.030-7.43-7.283-7.437 7.283c-23.133 22.464-54.738 36.314-89.578 36.314s-66.444-13.85-89.609-36.344l0.031 0.030c-23.089-22.522-37.409-53.941-37.409-88.704s14.32-66.182 37.383-88.679l0.025-0.025zM402.221 749.875c11.558 11.231 27.353 18.156 44.765 18.156s33.207-6.925 44.78-18.171l-0.015 0.015 29.843-29.28c5.767-5.656 13.676-9.147 22.4-9.147s16.633 3.491 22.405 9.152l-0.005-0.005 29.843 29.28c11.568 11.209 27.359 18.119 44.765 18.119s33.197-6.909 44.782-18.135l-0.017 0.016c11.242-10.9 18.22-26.142 18.22-43.014s-6.978-32.115-18.205-43l-0.015-0.015-141.766-139.046-141.779 139.046c-11.242 10.9-18.22 26.142-18.22 43.014s6.978 32.115 18.205 43l0.015 0.015z" />
<glyph unicode="&#xe930;" glyph-name="cart-lock" d="M1002.125 638.342c-3.046 1.066-6.558 1.682-10.214 1.682-14.032 0-25.944-9.075-30.188-21.675l-0.066-0.225-117.875-353.658c-2.399-4.425-6.65-7.584-11.685-8.453l-0.098-0.014h-544c-3.887 0.766-7.058 3.3-8.685 6.711l-0.032 0.073-112.474 449.92c-8.742 31.668-37.005 54.65-70.737 55.295l-0.073 0.001h-64c-17.673 0-32-14.327-32-32s14.327-32 32-32v0h64c3.887-0.766 7.058-3.3 8.685-6.711l0.032-0.073 112.474-449.92c8.742-31.668 37.005-54.65 70.737-55.295l0.073-0.001h544c33.25 0.896 61.32 22.128 72.289 51.669l0.178 0.548 117.875 353.658c1.040 3.019 1.641 6.498 1.641 10.117 0 14.045-9.048 25.977-21.634 30.284l-0.225 0.067zM384 64c0-35.346-28.654-64-64-64s-64 28.654-64 64c0 35.346 28.654 64 64 64s64-28.654 64-64zM832 64c0-35.346-28.654-64-64-64s-64 28.654-64 64c0 35.346 28.654 64 64 64s64-28.654 64-64zM448 384h256c35.327 0.047 63.953 28.673 64 63.995v128.005c-0.047 35.327-28.673 63.953-63.995 64h-0.005v64c0 70.692-57.308 128-128 128s-128-57.308-128-128v0-64c-35.327-0.047-63.953-28.673-64-63.995v-128.005c0.047-35.327 28.673-63.953 63.995-64h0.005zM512 704c0 35.346 28.654 64 64 64s64-28.654 64-64v0-64h-128zM448 576h256v-128h-256z" />
<glyph unicode="&#xe931;" glyph-name="cart-magnifying-glass, cart-search" d="M1002.125 638.342c-3.033 1.053-6.528 1.662-10.165 1.662-14.038 0-25.96-9.061-30.236-21.654l-0.066-0.225-117.875-353.658c-2.399-4.425-6.65-7.584-11.685-8.453l-0.098-0.014h-544c-3.887 0.766-7.058 3.3-8.685 6.711l-0.032 0.073-112.474 449.92c-8.742 31.668-37.005 54.65-70.737 55.295l-0.073 0.001h-64c-17.673 0-32-14.327-32-32s14.327-32 32-32v0h64c3.887-0.766 7.058-3.3 8.685-6.711l0.032-0.073 112.474-449.92c8.742-31.668 37.005-54.65 70.737-55.295l0.073-0.001h544c33.25 0.896 61.32 22.128 72.289 51.669l0.178 0.548 117.875 353.658c1.040 3.019 1.641 6.498 1.641 10.117 0 14.045-9.048 25.977-21.634 30.284l-0.225 0.067zM384 64c0-35.346-28.654-64-64-64s-64 28.654-64 64c0 35.346 28.654 64 64 64s64-28.654 64-64zM832 64c0-35.346-28.654-64-64-64s-64 28.654-64 64c0 35.346 28.654 64 64 64s64-28.654 64-64zM480 576c32.831 0.002 63.337 9.958 88.663 27.016l-0.567-0.36 81.28-81.28c5.749-5.558 13.59-8.983 22.231-8.983 17.673 0 32 14.327 32 32 0 8.641-3.425 16.482-8.991 22.24l-81.271 81.271c16.526 24.763 26.372 55.209 26.372 87.955 0 88.288-71.571 159.859-159.859 159.859s-159.859-71.571-159.859-159.859c0-88.288 71.571-159.859 159.859-159.859 0.050 0 0.101 0 0.151 0h-0.008zM480 832c53.019 0 96-42.981 96-96s-42.981-96-96-96c-53.019 0-96 42.981-96 96v0c0.062 52.994 43.005 95.938 95.994 96h0.006z" />
<glyph unicode="&#xe932;" glyph-name="cart-edit" d="M1004.8 640c-19.2 6.4-32-6.4-38.4-19.2 0 0 0 0 0 0l-115.2-352c0-6.4-6.4-6.4-12.8-6.4h-550.4c-6.4 0-6.4 6.4-6.4 6.4l-115.2 448c-6.4 25.6-38.4 51.2-70.4 51.2h-64c-19.2 0-32-12.8-32-32s12.8-32 32-32h64c6.4 0 6.4-6.4 6.4-6.4l115.2-448c6.4-32 38.4-57.6 70.4-57.6h544c32 0 64 19.2 70.4 51.2l121.6 352c6.4 19.2-6.4 38.4-19.2 44.8zM384 64c0-35.346-28.654-64-64-64s-64 28.654-64 64c0 35.346 28.654 64 64 64s64-28.654 64-64zM832 64c0-35.346-28.654-64-64-64s-64 28.654-64 64c0 35.346 28.654 64 64 64s64-28.654 64-64zM422.4 441.6c6.4 0 12.8 0 19.2 6.4l121.6 57.6c19.2 6.4 32 19.2 44.8 32l192 192c38.4 38.4 38.4 96 0 134.4v0c-38.4 38.4-96 38.4-134.4 0l-192-192c-12.8-12.8-25.6-25.6-32-44.8l-57.6-121.6c-6.4-19.2-6.4-38.4 6.4-51.2 12.8-6.4 19.2-12.8 32-12.8zM499.2 601.6c6.4 12.8 12.8 19.2 19.2 25.6l192 192c12.8 12.8 32 12.8 44.8 0v0c6.4-6.4 12.8-12.8 12.8-25.6 0-6.4-6.4-19.2-6.4-25.6l-192-192c-12.8 0-19.2-6.4-32-12.8l-70.4-32 32 70.4z" />
<glyph unicode="&#xe933;" glyph-name="cart-times, cart-x" d="M1002.125 638.342c-3.033 1.053-6.528 1.662-10.165 1.662-14.038 0-25.96-9.061-30.236-21.654l-0.066-0.225-117.875-353.658c-2.399-4.425-6.65-7.584-11.685-8.453l-0.098-0.014h-544c-3.887 0.766-7.058 3.3-8.685 6.711l-0.032 0.073-112.474 449.92c-8.742 31.668-37.005 54.65-70.737 55.295l-0.073 0.001h-64c-17.673 0-32-14.327-32-32s14.327-32 32-32v0h64c3.887-0.766 7.058-3.3 8.685-6.711l0.032-0.073 112.474-449.92c8.742-31.668 37.005-54.65 70.737-55.295l0.073-0.001h544c33.25 0.896 61.32 22.128 72.289 51.669l0.178 0.548 117.875 353.658c1.040 3.019 1.641 6.498 1.641 10.117 0 14.045-9.048 25.977-21.634 30.284l-0.225 0.067zM384 64c0-35.346-28.654-64-64-64s-64 28.654-64 64c0 35.346 28.654 64 64 64s64-28.654 64-64zM832 64c0-35.346-28.654-64-64-64s-64 28.654-64 64c0 35.346 28.654 64 64 64s64-28.654 64-64zM393.376 521.44c5.791-5.789 13.789-9.369 22.624-9.369s16.833 3.58 22.624 9.369l105.376 105.37 105.376-105.37c5.827-6.027 13.985-9.769 23.017-9.769 17.673 0 32 14.327 32 32 0 9.032-3.742 17.19-9.76 23.009l-105.385 105.385 105.376 105.376c6.027 5.827 9.769 13.985 9.769 23.017 0 17.673-14.327 32-32 32-9.032 0-17.19-3.742-23.009-9.76l-105.385-105.385-105.376 105.376c-5.749 5.558-13.59 8.983-22.231 8.983-17.673 0-32-14.327-32-32 0-8.641 3.425-16.482 8.991-22.24l105.367-105.367-105.376-105.376c-5.789-5.791-9.369-13.789-9.369-22.624s3.58-16.833 9.369-22.624v0z" />
<glyph unicode="&#xe934;" glyph-name="user-headset" d="M704 480c0-17.673-14.327-32-32-32s-32 14.327-32 32c0 17.673 14.327 32 32 32s32-14.327 32-32zM1017.6 371.2l-122.88 163.968c-3.456 67.84-21.888 133.376-53.824 191.936 39.36 26.944 61.12 74.24 53.76 124.096-9.216 62.016-65.856 108.8-131.904 108.8h-273.28c-267.968 0-478.144-183.872-489.024-427.648-7.104-159.68 72.192-312.32 206.912-398.272 30.464-19.328 48.64-50.368 48.64-82.944v-83.136c0-17.664 14.336-32 32-32s32 14.336 32 32v83.136c0 54.592-29.248 105.728-78.208 137.024-115.52 73.664-183.488 204.48-177.408 341.376 7.872 176.064 139.072 315.264 319.616 354.816v-308.352c-70.592 0-128-57.408-128-128s57.408-128 128-128c23.68 0 45.568 6.912 64.64 18.112l136.768-136.768c6.208-6.208 14.4-9.344 22.592-9.344s16.384 3.136 22.656 9.344c12.48 12.48 12.48 32.768 0 45.248l-136.768 136.768c11.2 19.072 18.112 40.96 18.112 64.64 0 47.168-25.92 88-64 110.208v336.064c13.632 1.088 27.456 1.728 41.472 1.728h273.28c34.496 0 64-23.296 68.48-54.208 5.312-35.968-18.624-62.72-44.992-70.656-9.728-2.944-17.472-10.24-20.928-19.776-3.456-9.472-2.24-20.032 3.328-28.544 38.72-58.816 60.352-128 62.4-199.936 0.192-6.592 2.432-12.992 6.4-18.24l102.272-136.384-85.888-28.608c-12.992-4.352-21.824-16.576-21.824-30.336v-85.312c0-88.256-71.808-160-160-160h-64c-17.664 0-32-14.336-32-32v-64c0-17.664 14.336-32 32-32s32 14.336 32 32v32h32c123.52 0 224 100.48 224 224v62.272l106.112 35.392c9.728 3.264 17.344 11.008 20.416 20.8s1.28 20.48-4.928 28.736zM384 384c-35.264 0-64 28.672-64 64s28.736 64 64 64 64-28.672 64-64-28.736-64-64-64z" />
<glyph unicode="&#xe935;" glyph-name="user-play" d="M640 672c0 158.784-114.816 288-256 288s-256-129.216-256-288c0-106.112 51.84-197.952 128-247.936v-8.064c0-30.464-16.576-58.24-41.216-69.184l-135.488-59.968c-48.192-21.312-79.296-71.424-79.296-127.616v-63.232c0-17.664 14.336-32 32-32s32 14.336 32 32v63.232c0 30.464 16.576 58.24 41.216 69.184l135.488 59.968c42.048 18.624 69.696 59.52 76.416 106.88 21.44-6.592 43.584-11.264 66.88-11.264s45.376 4.672 66.816 11.2c2.816-19.584 8.128-38.656 18.432-55.36 6.016-9.856 16.512-15.232 27.264-15.232 5.696 0 11.52 1.536 16.704 4.736 15.104 9.216 19.84 28.928 10.56 43.968-7.744 12.544-11.776 27.328-11.776 42.688v8.064c76.16 49.984 128 141.824 128 247.936zM192 672c0 123.52 86.144 224 192 224s192-100.48 192-224v0c0-123.52-86.144-224-192-224s-192 100.48-192 224zM1006.336 156.608l-320 160c-9.92 4.992-21.696 4.48-31.104-1.408-9.472-5.824-15.232-16.128-15.232-27.2v-320c0-11.072 5.76-21.376 15.168-27.2 5.12-3.2 11.008-4.8 16.832-4.8 4.928 0 9.792 1.152 14.336 3.392l320 160c10.816 5.44 17.664 16.512 17.664 28.608s-6.848 23.168-17.664 28.608zM704 19.776v216.448l216.448-108.224-216.448-108.224z" />
<glyph unicode="&#xe936;" glyph-name="user-pointer" d="M384 960c-141.184 0-256-129.216-256-288 0-106.112 51.84-197.952 128-247.936v-8.064c0-30.464-16.576-58.24-41.216-69.184l-135.488-59.968c-48.192-21.312-79.296-71.424-79.296-127.616v-63.232c0-17.664 14.336-32 32-32s32 14.336 32 32v63.232c0 30.464 16.576 58.24 41.216 69.184l135.488 59.968c42.048 18.624 69.696 59.52 76.416 106.88 21.44-6.592 43.584-11.264 66.88-11.264s45.376 4.672 66.816 11.2c2.816-19.584 8.128-38.656 18.432-55.36 6.016-9.856 16.512-15.232 27.264-15.232 5.696 0 11.52 1.536 16.704 4.736 15.104 9.216 19.84 28.928 10.56 43.968-7.744 12.544-11.776 27.328-11.776 42.688v8.064c76.16 49.984 128 141.824 128 247.936 0 158.784-114.816 288-256 288zM576 672c0-123.52-86.144-224-192-224s-192 100.48-192 224c0 123.52 86.144 224 192 224s192-100.48 192-224v0zM950.656 182.592l-192 192c-9.152 9.216-22.848 11.904-34.88 6.912-11.968-4.864-19.776-16.576-19.776-29.504v-271.552c0-12.928 7.808-24.64 19.776-29.568 3.968-1.664 8.128-2.432 12.224-2.432 8.32 0 16.512 3.264 22.656 9.344l48.064 48.064 64.512-150.464c5.12-12.16 16.896-19.392 29.312-19.392 4.224 0 8.512 0.832 12.608 2.624 16.256 6.976 23.808 25.792 16.832 41.984l-63.616 148.48 61.056-1.088c12.8 0.96 24.96 7.488 30.016 19.52 5.12 11.968 2.432 25.856-6.784 35.072z" />
<glyph unicode="&#xe937;" glyph-name="table-arrow-down" d="M960 832h-896c-35.346 0-64-28.654-64-64v0-512c0-35.346 28.654-64 64-64v0h416c17.673 0 32 14.327 32 32s-14.327 32-32 32v0h-224v128h224c17.673 0 32 14.327 32 32s-14.327 32-32 32v0h-224v128h320v-96c0-17.673 14.327-32 32-32s32 14.327 32 32v0 96h320v-96c0-17.673 14.327-32 32-32s32 14.327 32 32v0 288c0 35.346-28.654 64-64 64v0zM192 256h-128v128h128zM192 448h-128v128h128zM192 640h-128v128h128zM576 640h-320v128h320zM960 640h-320v128h320zM937.344 150.656l-105.344-105.408v306.752c0 17.673-14.327 32-32 32s-32-14.327-32-32v0-306.752l-105.344 105.408c-5.798 5.798-13.808 9.384-22.656 9.384-17.695 0-32.040-14.345-32.040-32.040 0-8.848 3.586-16.858 9.384-22.656v0l160-160c5.794-5.808 13.805-9.401 22.656-9.401s16.862 3.593 22.655 9.401l160.001 160.001c5.798 5.798 9.384 13.808 9.384 22.656 0 17.695-14.345 32.040-32.040 32.040-8.848 0-16.858-3.586-22.656-9.384v0z" />
<glyph unicode="&#xe938;" glyph-name="table-arrow-up" d="M960 832h-896c-35.346 0-64-28.654-64-64v0-512c0-35.346 28.654-64 64-64v0h416c17.673 0 32 14.327 32 32s-14.327 32-32 32v0h-224v128h224c17.673 0 32 14.327 32 32s-14.327 32-32 32v0h-224v128h320v-96c0-17.673 14.327-32 32-32s32 14.327 32 32v0 96h320v-96c0-17.673 14.327-32 32-32s32 14.327 32 32v0 288c0 35.346-28.654 64-64 64v0zM192 256h-128v128h128zM192 448h-128v128h128zM192 640h-128v128h128zM576 640h-320v128h320zM960 640h-320v128h320zM822.656 374.656c-5.794 5.808-13.805 9.401-22.656 9.401s-16.862-3.593-22.655-9.401l-160.001-160.001c-5.798-5.798-9.384-13.808-9.384-22.656 0-17.695 14.345-32.040 32.040-32.040 8.848 0 16.858 3.586 22.656 9.384v0l105.344 105.408v-306.752c0-17.673 14.327-32 32-32s32 14.327 32 32v0 306.752l105.344-105.408c5.798-5.798 13.808-9.384 22.656-9.384 17.695 0 32.040 14.345 32.040 32.040 0 8.848-3.586 16.858-9.384 22.656v0z" />
<glyph unicode="&#xe939;" glyph-name="table-ban" d="M800 384c-123.712 0-224-100.288-224-224s100.288-224 224-224c123.712 0 224 100.288 224 224v0c0 123.712-100.288 224-224 224v0zM640 160c0 88.366 71.634 160 160 160v0c0.033 0 0.072 0 0.111 0 32.788 0 63.248-9.97 88.512-27.045l-0.56 0.357-221.376-221.376c-16.718 24.705-26.688 55.164-26.688 87.953 0 0.039 0 0.078 0 0.117v-0.006zM800 0c-0.033 0-0.072 0-0.111 0-32.788 0-63.248 9.97-88.512 27.045l0.56-0.357 221.376 221.376c16.718-24.705 26.688-55.164 26.688-87.953 0-0.039 0-0.078 0-0.117v0.006c0-88.366-71.634-160-160-160v0zM960 832h-896c-35.346 0-64-28.654-64-64v0-512c0-35.346 28.654-64 64-64v0h416c17.673 0 32 14.327 32 32s-14.327 32-32 32v0h-224v128h224c17.673 0 32 14.327 32 32s-14.327 32-32 32v0h-224v128h320v-96c0-17.673 14.327-32 32-32s32 14.327 32 32v0 96h320v-96c0-17.673 14.327-32 32-32s32 14.327 32 32v0 288c0 35.346-28.654 64-64 64v0zM192 256h-128v128h128zM192 448h-128v128h128zM192 640h-128v128h128zM576 640h-320v128h320zM960 640h-320v128h320z" />
<glyph unicode="&#xe93a;" glyph-name="table-chart" d="M960 832h-896c-35.346 0-64-28.654-64-64v0-512c0-35.346 28.654-64 64-64v0h416c17.673 0 32 14.327 32 32s-14.327 32-32 32v0h-224v128h224c17.673 0 32 14.327 32 32s-14.327 32-32 32v0h-224v128h320v-96c0-17.673 14.327-32 32-32s32 14.327 32 32v0 96h320v-96c0-17.673 14.327-32 32-32s32 14.327 32 32v0 288c0 35.346-28.654 64-64 64v0zM192 256h-128v128h128zM192 448h-128v128h128zM192 640h-128v128h128zM576 640h-320v128h320zM960 640h-320v128h320zM992 256h-96v96c0 17.673-14.327 32-32 32v0h-128c-17.673 0-32-14.327-32-32v0-160h-96c-17.673 0-32-14.327-32-32v0-192c0-17.673 14.327-32 32-32v0h384c17.673 0 32 14.327 32 32v0 256c0 17.673-14.327 32-32 32v0zM704 0h-64v128h64zM832 224v-224h-64v320h64zM960 0h-64v192h64z" />
<glyph unicode="&#xe93b;" glyph-name="table-check" d="M960 832h-896c-35.346 0-64-28.654-64-64v0-512c0-35.346 28.654-64 64-64v0h416c17.673 0 32 14.327 32 32s-14.327 32-32 32v0h-224v128h224c17.673 0 32 14.327 32 32s-14.327 32-32 32v0h-224v128h320v-96c0-17.673 14.327-32 32-32s32 14.327 32 32v0 96h320v-96c0-17.673 14.327-32 32-32s32 14.327 32 32v0 288c0 35.346-28.654 64-64 64v0zM192 256h-128v128h128zM192 448h-128v128h128zM192 640h-128v128h128zM576 640h-320v128h320zM960 640h-320v128h320zM969.344 310.656l-233.344-233.408-105.344 105.408c-5.798 5.798-13.808 9.384-22.656 9.384-17.695 0-32.040-14.345-32.040-32.040 0-8.848 3.586-16.858 9.384-22.656v0l128-128c5.794-5.808 13.805-9.401 22.656-9.401s16.862 3.593 22.655 9.401l256.001 256.001c5.798 5.798 9.384 13.808 9.384 22.656 0 17.695-14.345 32.040-32.040 32.040-8.848 0-16.858-3.586-22.656-9.384v0z" />
<glyph unicode="&#xe93c;" glyph-name="table-clock" d="M960 832h-896c-35.346 0-64-28.654-64-64v0-512c0-35.346 28.654-64 64-64v0h416c17.673 0 32 14.327 32 32s-14.327 32-32 32v0h-224v128h224c17.673 0 32 14.327 32 32s-14.327 32-32 32v0h-224v128h320v-96c0-17.673 14.327-32 32-32s32 14.327 32 32v0 96h320v-96c0-17.673 14.327-32 32-32s32 14.327 32 32v0 288c0 35.346-28.654 64-64 64v0zM192 256h-128v128h128zM192 448h-128v128h128zM192 640h-128v128h128zM576 640h-320v128h320zM960 640h-320v128h320zM800 384c-123.712 0-224-100.288-224-224s100.288-224 224-224c123.712 0 224 100.288 224 224v0c0 123.712-100.288 224-224 224v0zM800 0c-88.366 0-160 71.634-160 160s71.634 160 160 160c88.366 0 160-71.634 160-160v0c0-88.366-71.634-160-160-160v0zM832 173.248v50.752c0 17.673-14.327 32-32 32s-32-14.327-32-32v0-64c0-0.017 0-0.037 0-0.057 0-8.822 3.57-16.811 9.345-22.599l63.999-63.999c5.798-5.798 13.808-9.384 22.656-9.384 17.695 0 32.040 14.345 32.040 32.040 0 8.848-3.586 16.858-9.384 22.656v0z" />
<glyph unicode="&#xe93d;" glyph-name="table-cursor" d="M960 832h-896c-35.346 0-64-28.654-64-64v0-512c0-35.346 28.654-64 64-64v0h416c17.673 0 32 14.327 32 32s-14.327 32-32 32v0h-224v128h224c17.673 0 32 14.327 32 32s-14.327 32-32 32v0h-224v128h320v-96c0-17.673 14.327-32 32-32s32 14.327 32 32v0 96h320v-96c0-17.673 14.327-32 32-32s32 14.327 32 32v0 288c0 35.346-28.654 64-64 64v0zM192 256h-128v128h128zM192 448h-128v128h128zM192 640h-128v128h128zM576 640h-320v128h320zM960 640h-320v128h320zM896 320h32c17.673 0 32 14.327 32 32s-14.327 32-32 32v0h-32c-38.184-0.033-72.449-16.779-95.88-43.318l-0.12-0.138c-23.551 26.677-57.816 43.423-95.994 43.456h-32.006c-17.673 0-32-14.327-32-32s14.327-32 32-32v0h32c35.346 0 64-28.654 64-64v0-64h-32c-17.673 0-32-14.327-32-32s14.327-32 32-32v0h32v-64c0-35.346-28.654-64-64-64v0h-32c-17.673 0-32-14.327-32-32s14.327-32 32-32v0h32c38.184 0.033 72.449 16.779 95.88 43.318l0.12 0.138c23.551-26.677 57.816-43.423 95.994-43.456h32.006c17.673 0 32 14.327 32 32s-14.327 32-32 32v0h-32c-35.346 0-64 28.654-64 64v0 64h32c17.673 0 32 14.327 32 32s-14.327 32-32 32v0h-32v64c0 35.346 28.654 64 64 64v0z" />
<glyph unicode="&#xe93e;" glyph-name="table-edit" d="M960 832h-896c-35.346 0-64-28.654-64-64v0-512c0-35.346 28.654-64 64-64v0h416c17.673 0 32 14.327 32 32s-14.327 32-32 32v0h-224v128h224c17.673 0 32 14.327 32 32s-14.327 32-32 32v0h-224v128h320v-96c0-17.673 14.327-32 32-32s32 14.327 32 32v0 96h320v-96c0-17.673 14.327-32 32-32s32 14.327 32 32v0 288c0 35.346-28.654 64-64 64v0zM192 256h-128v128h128zM192 448h-128v128h128zM192 640h-128v128h128zM576 640h-320v128h320zM960 640h-320v128h320zM995.904 355.84c-17.375 17.386-41.383 28.14-67.904 28.14s-50.529-10.754-67.903-28.139l-190.977-191.041c-12.404-12.345-22.72-26.774-30.382-42.72l-0.402-0.928-57.6-123.84c-2.881-5.633-4.57-12.288-4.57-19.338 0-11.663 4.622-22.246 12.134-30.019l-0.012 0.012c7.458-7.397 17.728-11.968 29.066-11.968 0.041 0 0.083 0 0.124 0h-0.006c7.262 0.030 14.125 1.703 20.248 4.666l-0.28-0.122 123.776 57.6c16.874 8.064 31.303 18.38 43.642 30.778l191.046 190.982c17.386 17.375 28.14 41.383 28.14 67.904s-10.754 50.529-28.139 67.903l-0.001 0.001zM950.656 265.344l-191.040-191.040c-7.238-7.277-15.702-13.326-25.056-17.813l-0.544-0.235-70.912-33.088 33.088 70.912c4.706 9.905 10.757 18.37 18.042 25.594l190.982 191.046c5.794 5.808 13.805 9.401 22.656 9.401s16.862-3.593 22.655-9.401l0.001-0.001c5.77-5.787 9.337-13.773 9.337-22.592s-3.567-16.805-9.338-22.593l0.001 0.001z" />
<glyph unicode="&#xe93f;" glyph-name="table-heart" d="M807.424 283.584l-7.424-7.296-7.424 7.296c-23.142 22.462-54.754 36.31-89.6 36.31s-66.458-13.848-89.632-36.341l0.032 0.031c-23.065-22.533-37.367-53.948-37.367-88.704s14.303-66.171 37.344-88.681l0.024-0.023 164.224-161.024c5.767-5.656 13.676-9.147 22.4-9.147s16.633 3.491 22.405 9.152l-0.005-0.005 164.224 161.024c23.065 22.533 37.367 53.948 37.367 88.704s-14.303 66.171-37.344 88.681l-0.024 0.023c-23.142 22.462-54.754 36.31-89.6 36.31s-66.458-13.848-89.632-36.341l0.032 0.031zM941.824 151.872l-141.824-139.072-141.76 139.072c-11.25 10.894-18.233 26.135-18.233 43.008s6.983 32.114 18.217 42.993l0.016 0.015c11.574 11.224 27.379 18.143 44.8 18.143s33.226-6.919 44.816-18.159l-0.016 0.016 29.824-29.312c5.767-5.656 13.676-9.147 22.4-9.147s16.633 3.491 22.405 9.152l-0.005-0.005 29.824 29.312c11.574 11.224 27.379 18.143 44.8 18.143s33.226-6.919 44.816-18.159l-0.016 0.016c11.25-10.894 18.233-26.135 18.233-43.008s-6.983-32.114-18.217-42.993l-0.016-0.015zM960 832h-896c-35.346 0-64-28.654-64-64v0-512c0-35.346 28.654-64 64-64v0h416c17.673 0 32 14.327 32 32s-14.327 32-32 32v0h-224v128h224c17.673 0 32 14.327 32 32s-14.327 32-32 32v0h-224v128h320v-96c0-17.673 14.327-32 32-32s32 14.327 32 32v0 96h320v-96c0-17.673 14.327-32 32-32s32 14.327 32 32v0 288c0 35.346-28.654 64-64 64v0zM192 256h-128v128h128zM192 448h-128v128h128zM192 640h-128v128h128zM576 640h-320v128h320zM960 640h-320v128h320z" />
<glyph unicode="&#xe940;" glyph-name="table-lock" d="M960 832h-896c-35.346 0-64-28.654-64-64v0-512c0-35.346 28.654-64 64-64v0h416c17.673 0 32 14.327 32 32s-14.327 32-32 32v0h-224v128h224c17.673 0 32 14.327 32 32s-14.327 32-32 32v0h-224v128h320v-96c0-17.673 14.327-32 32-32s32 14.327 32 32v0 96h320v-96c0-17.673 14.327-32 32-32s32 14.327 32 32v0 288c0 35.346-28.654 64-64 64v0zM192 256h-128v128h128zM192 448h-128v128h128zM192 640h-128v128h128zM576 640h-320v128h320zM960 640h-320v128h320zM960 192v64c0 70.692-57.308 128-128 128s-128-57.308-128-128v0-64c-35.346 0-64-28.654-64-64v0-128c0-35.346 28.654-64 64-64v0h256c35.346 0 64 28.654 64 64v0 128c0 35.346-28.654 64-64 64v0zM768 256c0 35.346 28.654 64 64 64s64-28.654 64-64v0-64h-128zM960 128v-128h-256v128z" />
<glyph unicode="&#xe941;" glyph-name="table-play" d="M960 832h-896c-35.346 0-64-28.654-64-64v0-512c0-35.346 28.654-64 64-64v0h416c17.673 0 32 14.327 32 32s-14.327 32-32 32v0h-224v128h224c17.673 0 32 14.327 32 32s-14.327 32-32 32v0h-224v128h320v-96c0-17.673 14.327-32 32-32s32 14.327 32 32v0 96h320v-96c0-17.673 14.327-32 32-32s32 14.327 32 32v0 288c0 35.346-28.654 64-64 64v0zM192 256h-128v128h128zM192 448h-128v128h128zM192 640h-128v128h128zM576 640h-320v128h320zM960 640h-320v128h320zM1006.336 156.608l-320 160c-4.176 2.138-9.11 3.391-14.336 3.391-17.673 0-31.999-14.326-32-31.999v0-320c0.001-17.673 14.327-31.999 32-31.999 5.226 0 10.16 1.253 14.517 3.475l-0.181-0.084 320 160c10.557 5.376 17.662 16.162 17.662 28.608s-7.105 23.232-17.481 28.524l-0.181 0.084zM704 19.776v216.448l216.448-108.224z" />
<glyph unicode="&#xe942;" glyph-name="table-plus" d="M992 192h-160v160c0 17.673-14.327 32-32 32s-32-14.327-32-32v0-160h-160c-17.673 0-32-14.327-32-32s14.327-32 32-32v0h160v-160c0-17.673 14.327-32 32-32s32 14.327 32 32v0 160h160c17.673 0 32 14.327 32 32s-14.327 32-32 32v0zM960 832h-896c-35.346 0-64-28.654-64-64v0-512c0-35.346 28.654-64 64-64v0h416c17.673 0 32 14.327 32 32s-14.327 32-32 32v0h-224v128h224c17.673 0 32 14.327 32 32s-14.327 32-32 32v0h-224v128h320v-96c0-17.673 14.327-32 32-32s32 14.327 32 32v0 96h320v-96c0-17.673 14.327-32 32-32s32 14.327 32 32v0 288c0 35.346-28.654 64-64 64v0zM192 256h-128v128h128zM192 448h-128v128h128zM192 640h-128v128h128zM576 640h-320v128h320zM960 640h-320v128h320z" />
<glyph unicode="&#xe943;" glyph-name="headset" d="M576 0c0-35.346-28.654-64-64-64s-64 28.654-64 64c0 35.346 28.654 64 64 64s64-28.654 64-64zM928 384h-32l-0.384 192.192c0 211.648-172.16 383.808-383.808 383.808s-383.808-172.16-383.808-383.808v-192.192h-32c-17.664 0-32-14.336-32-32s14.336-32 32-32h32v-32c0-41.664 26.816-76.864 64-90.112v-37.888c0-88.192 71.744-160 160-160 17.664 0 32 14.336 32 32s-14.336 32-32 32c-52.928 0-96 43.072-96 96v37.888c37.184 13.248 64 48.448 64 90.112v128c0 52.928-43.072 96-96 96-11.264 0-21.952-2.304-32-5.888v70.080c0 176.32 143.424 319.808 319.808 319.808s319.808-143.488 319.808-319.808v-69.952c-9.92 3.456-20.48 5.76-31.616 5.76-52.928 0-96-43.072-96-96v-128c0-52.928 43.072-96 96-96s96 43.072 96 96v32h32c17.664 0 32 14.336 32 32s-14.336 32-32 32zM224 448c17.6 0 32-14.336 32-32v-128c0-17.664-14.4-32-32-32s-32 14.336-32 32v128c0 17.664 14.4 32 32 32zM832 288c0-17.664-14.4-32-32-32s-32 14.336-32 32v128c0 17.664 14.4 32 32 32 16.96 0 30.592-13.376 31.616-30.144v-1.856c0-0.64 0.32-1.216 0.384-1.856v-126.144z" />
<glyph unicode="&#xe944;" glyph-name="tools" d="M958.592 98.816c0.128 26.624-10.24 51.648-29.184 70.4l-294.656 292.288 203.968 203.968c7.040 7.040 15.616 12.352 25.024 15.488l26.496 8.832c8 2.688 14.656 8.448 18.496 16l32 64-0.192-0.192c6.144 12.288 3.776 27.2-6.016 36.928-9.792 9.792-24.576 12.096-36.928 6.016l-64-32c-7.616-3.84-13.376-10.496-16-18.496l-8.832-26.496c-3.136-9.408-8.448-17.984-15.488-25.024l-203.968-203.968-65.92 65.408c-14.528 14.528-20.352 36.416-16 60.032 16.384 88.896-20.352 175.744-95.872 226.688-64.768 43.776-149.312 49.728-220.544 15.488-9.344-4.48-16-13.248-17.728-23.424-1.728-10.24 1.6-20.672 8.96-28.032l101.824-101.824c4.032-4.096 4.672-8.832 4.672-11.328s-0.64-7.232-4.672-11.328l-22.656-22.592c-8.192-8.128-14.464-8.192-22.656 0l-101.824 101.824c-7.36 7.36-17.664 10.688-28.032 8.896-10.176-1.728-18.944-8.32-23.488-17.728-33.472-70.016-27.072-156.992 16.448-221.504 50.944-75.52 137.728-112.192 226.688-95.872 23.552 4.416 45.504-1.408 59.904-15.808l16.768-16.96-247.936-247.872c-38.912-38.912-38.912-102.272 0.064-141.248 18.816-18.88 43.968-29.248 70.592-29.248s51.712 10.368 70.592 29.248l247.168 247.040 243.968-246.784c19.2-19.456 44.672-29.184 70.144-29.184 24.896 0 49.792 9.28 68.864 27.968l-22.4 22.848 22.656-22.656c19.072 18.688 29.632 43.584 29.696 70.208zM253.248 74.624c-13.952-14.016-36.672-13.888-50.752 0.064-6.784 6.784-10.496 15.808-10.496 25.344s3.712 18.56 10.496 25.344l245.504 245.376 50.752-50.752-245.504-245.376zM883.968 74.24l-0.128-0.128c-13.568-13.12-35.392-12.928-48.64 0.576l-401.408 405.888c-23.552 23.552-55.36 36.16-89.92 36.16-8.832 0-17.856-0.832-27.008-2.496-63.168-11.776-125.504 14.656-161.984 68.736-21.952 32.448-30.72 72.96-25.536 111.552l64.064-64.064c30.208-30.272 82.88-30.336 113.152 0l22.656 22.656c31.168 31.168 31.168 81.92 0 113.152l-64.192 64.128c38.784 5.312 78.72-3.136 110.72-24.704 54.080-36.48 80.448-98.56 68.736-161.984-8.192-44.736 4.096-87.36 33.792-117.056l406.080-402.88c6.656-6.592 10.304-15.36 10.24-24.704 0-9.344-3.712-18.048-10.624-24.832z" />
<glyph unicode="&#xe945;" glyph-name="table-pointer" d="M758.656 374.656c-5.794 5.808-13.805 9.401-22.656 9.401-17.673 0-32-14.327-32-32 0-0.020 0-0.040 0-0.060v0.003-271.552c0.002-13.261 8.071-24.637 19.566-29.489l0.21-0.079c3.613-1.517 7.811-2.409 12.215-2.432h0.009c8.852 0.002 16.863 3.598 22.655 9.407l0.001 0.001 48 48.064 64.512-150.72c5.065-11.397 16.285-19.2 29.328-19.2 0.017 0 0.033 0 0.050 0h-0.003c0.071-0.001 0.156-0.001 0.24-0.001 4.543 0 8.861 0.966 12.759 2.704l-0.199-0.079c11.506 5.019 19.403 16.295 19.403 29.416 0 4.541-0.946 8.861-2.651 12.774l0.080-0.206-63.616 148.48 61.056-1.088c13.148 0.281 24.442 7.945 29.927 19.001l0.089 0.199c1.618 3.699 2.559 8.009 2.559 12.538 0 8.822-3.57 16.81-9.343 22.598l0.001-0.001zM960 832h-896c-35.346 0-64-28.654-64-64v0-512c0-35.346 28.654-64 64-64v0h416c17.673 0 32 14.327 32 32s-14.327 32-32 32v0h-224v128h224c17.673 0 32 14.327 32 32s-14.327 32-32 32v0h-224v128h320v-96c0-17.673 14.327-32 32-32s32 14.327 32 32v0 96h320v-96c0-17.673 14.327-32 32-32s32 14.327 32 32v0 288c0 35.346-28.654 64-64 64v0zM192 256h-128v128h128zM192 448h-128v128h128zM192 640h-128v128h128zM576 640h-320v128h320zM960 640h-320v128h320z" />
<glyph unicode="&#xe946;" glyph-name="table-search" d="M960 832h-896c-35.346 0-64-28.654-64-64v0-512c0-35.346 28.654-64 64-64v0h416c17.673 0 32 14.327 32 32s-14.327 32-32 32v0h-224v128h224c17.673 0 32 14.327 32 32s-14.327 32-32 32v0h-224v128h320v-96c0-17.673 14.327-32 32-32s32 14.327 32 32v0 96h320v-96c0-17.673 14.327-32 32-32s32 14.327 32 32v0 288c0 35.346-28.654 64-64 64v0zM192 256h-128v128h128zM192 448h-128v128h128zM192 640h-128v128h128zM576 640h-320v128h320zM960 640h-320v128h320zM869.312 135.936c16.718 24.705 26.688 55.164 26.688 87.953 0 0.039 0 0.078 0 0.117v-0.006c0 88.366-71.634 160-160 160s-160-71.634-160-160c0-88.366 71.634-160 160-160v0c0.033 0 0.072 0 0.111 0 32.788 0 63.248 9.97 88.512 27.045l-0.56-0.357 81.28-81.344c5.798-5.798 13.808-9.384 22.656-9.384 17.695 0 32.040 14.345 32.040 32.040 0 8.848-3.586 16.858-9.384 22.656v0zM736 128c-53.019 0-96 42.981-96 96s42.981 96 96 96c53.019 0 96-42.981 96-96v0c0-53.019-42.981-96-96-96v0z" />
<glyph unicode="&#xe947;" glyph-name="table-user" d="M960 832h-896c-35.346 0-64-28.654-64-64v0-512c0-35.346 28.654-64 64-64v0h416c17.673 0 32 14.327 32 32s-14.327 32-32 32v0h-224v128h224c17.673 0 32 14.327 32 32s-14.327 32-32 32v0h-224v128h320v-96c0-17.673 14.327-32 32-32s32 14.327 32 32v0 96h320v-96c0-17.673 14.327-32 32-32s32 14.327 32 32v0 288c0 35.346-28.654 64-64 64v0zM192 256h-128v128h128zM192 448h-128v128h128zM192 640h-128v128h128zM576 640h-320v128h320zM960 640h-320v128h320zM970.24 75.52l-53.376 40c26.704 28.517 43.104 66.968 43.104 109.249 0 88.366-71.634 160-160 160s-160-71.634-160-160c0-42.281 16.4-80.732 43.186-109.338l-0.082 0.089-53.312-40c-32.722-24.836-53.664-63.723-53.76-107.504v-0.016c0-17.673 14.327-32 32-32s32 14.327 32 32v0c0.085 22.934 11.044 43.29 27.986 56.193l0.174 0.127 69.696 52.224c18.343-7.942 39.704-12.561 62.144-12.561s43.801 4.62 63.184 12.96l-1.040-0.398 69.696-52.288c17.159-12.968 28.138-33.327 28.16-56.253v-0.003c0-17.673 14.327-32 32-32s32 14.327 32 32v0c-0.096 43.797-21.038 82.684-53.426 107.277l-0.334 0.243zM896 224c0-53.019-42.981-96-96-96s-96 42.981-96 96c0 53.019 42.981 96 96 96v0c53.019 0 96-42.981 96-96v0z" />
<glyph unicode="&#xe948;" glyph-name="table-wrench" d="M960 832h-896c-35.346 0-64-28.654-64-64v0-512c0-35.346 28.654-64 64-64v0h416c17.673 0 32 14.327 32 32s-14.327 32-32 32v0h-224v128h224c17.673 0 32 14.327 32 32s-14.327 32-32 32v0h-224v128h320v-96c0-17.673 14.327-32 32-32s32 14.327 32 32v0 96h320v-96c0-17.673 14.327-32 32-32s32 14.327 32 32v0 288c0 35.346-28.654 64-64 64v0zM192 256h-128v128h128zM192 448h-128v128h128zM192 640h-128v128h128zM576 640h-320v128h320zM960 640h-320v128h320zM993.664 327.168l-91.84-91.84c-2.897-2.904-6.903-4.701-11.328-4.701s-8.431 1.797-11.328 4.7v0l-67.84 67.84c-2.904 2.897-4.701 6.903-4.701 11.328s1.797 8.431 4.7 11.328v0l91.84 91.84c2.92 2.909 4.727 6.934 4.727 11.381 0 7.552-5.211 13.886-12.233 15.604l-0.11 0.023c-9.52 2.099-20.455 3.301-31.671 3.301-18.906 0-37.015-3.416-53.742-9.664l1.061 0.347c-45.648-16.848-81.008-52.208-97.49-96.727l-0.366-1.129c-5.917-15.711-9.342-33.871-9.342-52.83 0-17.459 2.904-34.24 8.257-49.886l-0.322 1.084c0.569-1.568 0.898-3.378 0.898-5.264 0-4.332-1.735-8.258-4.549-11.122l-174.782-174.782c-12.787-12.163-20.741-29.306-20.741-48.306 0-15.659 5.402-30.057 14.445-41.43l-0.105 0.136c11.81-13.784 29.237-22.464 48.69-22.464 17.676 0 33.679 7.166 45.261 18.752l177.536 177.536c2.862 2.811 6.788 4.546 11.12 4.546 1.887 0 3.696-0.329 5.375-0.933l-0.111 0.035c14.561-5.030 31.342-7.934 48.802-7.934 18.96 0 37.12 3.425 53.894 9.691l-1.064-0.348c45.648 16.848 81.008 52.208 97.49 96.727l0.366 1.129c5.901 15.666 9.317 33.775 9.317 52.681 0 11.216-1.202 22.151-3.485 32.683l0.184-1.012c-1.778 7.081-8.088 12.241-15.603 12.241-4.364 0-8.322-1.74-11.217-4.565l0.003 0.003z" />
<glyph unicode="&#xe949;" glyph-name="table-x" d="M960 832h-896c-35.346 0-64-28.654-64-64v0-512c0-35.346 28.654-64 64-64v0h416c17.673 0 32 14.327 32 32s-14.327 32-32 32v0h-224v128h224c17.673 0 32 14.327 32 32s-14.327 32-32 32v0h-224v128h320v-96c0-17.673 14.327-32 32-32s32 14.327 32 32v0 96h320v-96c0-17.673 14.327-32 32-32s32 14.327 32 32v0 288c0 35.346-28.654 64-64 64v0zM192 256h-128v128h128zM192 448h-128v128h128zM192 640h-128v128h128zM576 640h-320v128h320zM960 640h-320v128h320zM950.656 310.656c-5.794 5.808-13.805 9.401-22.656 9.401s-16.862-3.593-22.655-9.401l-105.345-105.345-105.344 105.344c-5.796 5.804-13.807 9.394-22.656 9.394-17.683 0-32.018-14.335-32.018-32.018 0-8.834 3.577-16.832 9.362-22.624v0l105.408-105.408-105.408-105.408c-5.785-5.792-9.362-13.79-9.362-22.624 0-17.683 14.335-32.018 32.018-32.018 8.849 0 16.86 3.59 22.656 9.393l105.344 105.472 105.344-105.408c5.796-5.804 13.807-9.394 22.656-9.394 17.683 0 32.018 14.335 32.018 32.018 0 8.834-3.577 16.832-9.362 22.624v0l-105.408 105.344 105.408 105.344c5.808 5.794 9.401 13.805 9.401 22.656s-3.593 16.862-9.401 22.655l-0.001 0.001z" />
<glyph unicode="&#xe94a;" glyph-name="folder-arrow-down" d="M960 704h-517.504c-8.82 0.002-16.806 3.572-22.593 9.345l-90.559 90.559c-17.273 17.356-41.18 28.096-67.595 28.096-0.086 0-0.172 0-0.258 0h-197.491c-35.346 0-64-28.654-64-64v0-640c0-35.346 28.654-64 64-64v0h352c17.673 0 32 14.327 32 32s-14.327 32-32 32v0h-352v640h197.504c8.82-0.002 16.806-3.572 22.593-9.345l90.559-90.559c17.273-17.356 41.18-28.096 67.595-28.096 0.086 0 0.172 0 0.258 0h517.491v-96c0-17.673 14.327-32 32-32s32 14.327 32 32v0 96c0 35.346-28.654 64-64 64v0zM960 160c-0.017 0-0.037 0-0.057 0-8.822 0-16.811-3.57-22.599-9.345l-105.343-105.407v306.752c0 17.673-14.327 32-32 32s-32-14.327-32-32v0-306.752l-105.344 105.408c-5.798 5.798-13.808 9.384-22.656 9.384-17.695 0-32.040-14.345-32.040-32.040 0-8.848 3.586-16.858 9.384-22.656v0l160-160c5.794-5.808 13.805-9.401 22.656-9.401s16.862 3.593 22.655 9.401l160.001 160.001c5.808 5.794 9.401 13.805 9.401 22.656 0 17.673-14.327 32-32 32-0.020 0-0.040 0-0.060 0h0.003z" />
<glyph unicode="&#xe94b;" glyph-name="folder-arrow-up" d="M960 704h-517.504c-8.82 0.002-16.806 3.572-22.593 9.345l-90.559 90.559c-17.273 17.356-41.18 28.096-67.595 28.096-0.086 0-0.172 0-0.258 0h-197.491c-35.346 0-64-28.654-64-64v0-640c0-35.346 28.654-64 64-64v0h352c17.673 0 32 14.327 32 32s-14.327 32-32 32v0h-352v640h197.504c8.82-0.002 16.806-3.572 22.593-9.345l90.559-90.559c17.273-17.356 41.18-28.096 67.595-28.096 0.086 0 0.172 0 0.258 0h517.491v-96c0-17.673 14.327-32 32-32s32 14.327 32 32v0 96c0 35.346-28.654 64-64 64v0zM822.656 374.656c-5.794 5.808-13.805 9.401-22.656 9.401s-16.862-3.593-22.655-9.401l-160.001-160.001c-5.798-5.798-9.384-13.808-9.384-22.656 0-17.695 14.345-32.040 32.040-32.040 8.848 0 16.858 3.586 22.656 9.384v0l105.344 105.408v-306.752c0-17.673 14.327-32 32-32s32 14.327 32 32v0 306.752l105.344-105.408c5.798-5.798 13.808-9.384 22.656-9.384 17.695 0 32.040 14.345 32.040 32.040 0 8.848-3.586 16.858-9.384 22.656v0z" />
<glyph unicode="&#xe94c;" glyph-name="folder-ban" d="M416 128h-352v640h197.504c8.82-0.002 16.806-3.572 22.593-9.345l90.559-90.559c17.273-17.356 41.18-28.096 67.595-28.096 0.086 0 0.172 0 0.258 0h517.491v-96c0-17.673 14.327-32 32-32s32 14.327 32 32v0 96c0 35.346-28.654 64-64 64v0h-517.504c-8.82 0.002-16.806 3.572-22.593 9.345l-90.559 90.559c-17.273 17.356-41.18 28.096-67.595 28.096-0.086 0-0.172 0-0.258 0h-197.491c-35.346 0-64-28.654-64-64v0-640c0-35.346 28.654-64 64-64v0h352c17.673 0 32 14.327 32 32s-14.327 32-32 32v0zM800 384c-123.712 0-224-100.288-224-224s100.288-224 224-224c123.712 0 224 100.288 224 224v0c0 123.712-100.288 224-224 224v0zM640 160c0 88.366 71.634 160 160 160v0c0.023 0 0.051 0 0.078 0 32.82 0 63.312-9.97 88.612-27.046l-0.562 0.358-221.44-221.376c-16.711 24.745-26.679 55.239-26.688 88.061v0.003zM800 0c-0.033 0-0.072 0-0.111 0-32.788 0-63.248 9.97-88.512 27.045l0.56-0.357 221.44 221.376c16.553-24.792 26.416-55.276 26.416-88.064 0-88.292-71.516-159.881-159.781-160h-0.011z" />
<glyph unicode="&#xe94d;" glyph-name="folder-chart" d="M960 704h-517.504c-8.82 0.002-16.806 3.572-22.593 9.345l-90.559 90.559c-17.273 17.356-41.18 28.096-67.595 28.096-0.086 0-0.172 0-0.258 0h-197.491c-35.346 0-64-28.654-64-64v0-640c0-35.346 28.654-64 64-64v0h352c17.673 0 32 14.327 32 32s-14.327 32-32 32v0h-352v640h197.504c8.82-0.002 16.806-3.572 22.593-9.345l90.559-90.559c17.273-17.356 41.18-28.096 67.595-28.096 0.086 0 0.172 0 0.258 0h517.491v-96c0-17.673 14.327-32 32-32s32 14.327 32 32v0 96c0 35.346-28.654 64-64 64v0zM992 256h-96v96c0 17.673-14.327 32-32 32v0h-128c-17.673 0-32-14.327-32-32v0-160h-96c-17.673 0-32-14.327-32-32v0-192c0-17.673 14.327-32 32-32v0h384c17.673 0 32 14.327 32 32v0 256c0 17.673-14.327 32-32 32v0zM704 0h-64v128h64zM832 224v-224h-64v320h64zM960 0h-64v192h64z" />
<glyph unicode="&#xe94e;" glyph-name="folder-check" d="M960 704h-517.504c-8.82 0.002-16.806 3.572-22.593 9.345l-90.559 90.559c-17.273 17.356-41.18 28.096-67.595 28.096-0.086 0-0.172 0-0.258 0h-197.491c-35.346 0-64-28.654-64-64v0-640c0-35.346 28.654-64 64-64v0h352c17.673 0 32 14.327 32 32s-14.327 32-32 32v0h-352v640h197.504c8.82-0.002 16.806-3.572 22.593-9.345l90.559-90.559c17.273-17.356 41.18-28.096 67.595-28.096 0.086 0 0.172 0 0.258 0h517.491v-96c0-17.673 14.327-32 32-32s32 14.327 32 32v0 96c0 35.346-28.654 64-64 64v0zM969.344 310.656l-233.344-233.408-105.344 105.408c-5.798 5.798-13.808 9.384-22.656 9.384-17.695 0-32.040-14.345-32.040-32.040 0-8.848 3.586-16.858 9.384-22.656v0l128-128c5.794-5.808 13.805-9.401 22.656-9.401s16.862 3.593 22.655 9.401l256.001 256.001c5.798 5.798 9.384 13.808 9.384 22.656 0 17.695-14.345 32.040-32.040 32.040-8.848 0-16.858-3.586-22.656-9.384v0z" />
<glyph unicode="&#xe94f;" glyph-name="folder-clock" d="M960 704h-517.504c-8.82 0.002-16.806 3.572-22.593 9.345l-90.559 90.559c-17.273 17.356-41.18 28.096-67.595 28.096-0.086 0-0.172 0-0.258 0h-197.491c-35.346 0-64-28.654-64-64v0-640c0-35.346 28.654-64 64-64v0h352c17.673 0 32 14.327 32 32s-14.327 32-32 32v0h-352v640h197.504c8.82-0.002 16.806-3.572 22.593-9.345l90.559-90.559c17.273-17.356 41.18-28.096 67.595-28.096 0.086 0 0.172 0 0.258 0h517.491v-96c0-17.673 14.327-32 32-32s32 14.327 32 32v0 96c0 35.346-28.654 64-64 64v0zM800 384c-123.712 0-224-100.288-224-224s100.288-224 224-224c123.712 0 224 100.288 224 224v0c0 123.712-100.288 224-224 224v0zM800 0c-88.366 0-160 71.634-160 160s71.634 160 160 160c88.366 0 160-71.634 160-160v0c0-88.366-71.634-160-160-160v0zM832 173.248v50.752c0 17.673-14.327 32-32 32s-32-14.327-32-32v0-64c0-0.017 0-0.037 0-0.057 0-8.822 3.57-16.811 9.345-22.599l63.999-63.999c5.798-5.798 13.808-9.384 22.656-9.384 17.695 0 32.040 14.345 32.040 32.040 0 8.848-3.586 16.858-9.384 22.656v0z" />
<glyph unicode="&#xe950;" glyph-name="folder-cursor" d="M960 704h-517.504c-8.82 0.002-16.806 3.572-22.593 9.345l-90.559 90.559c-17.273 17.356-41.18 28.096-67.595 28.096-0.086 0-0.172 0-0.258 0h-197.491c-35.346 0-64-28.654-64-64v0-640c0-35.346 28.654-64 64-64v0h352c17.673 0 32 14.327 32 32s-14.327 32-32 32v0h-352v640h197.504c8.82-0.002 16.806-3.572 22.593-9.345l90.559-90.559c17.273-17.356 41.18-28.096 67.595-28.096 0.086 0 0.172 0 0.258 0h517.491v-96c0-17.673 14.327-32 32-32s32 14.327 32 32v0 96c0 35.346-28.654 64-64 64v0zM896 320h32c17.673 0 32 14.327 32 32s-14.327 32-32 32v0h-32c-38.184-0.033-72.449-16.779-95.88-43.318l-0.12-0.138c-23.551 26.677-57.816 43.423-95.994 43.456h-32.006c-17.673 0-32-14.327-32-32s14.327-32 32-32v0h32c35.346 0 64-28.654 64-64v0-64h-32c-17.673 0-32-14.327-32-32s14.327-32 32-32v0h32v-64c0-35.346-28.654-64-64-64v0h-32c-17.673 0-32-14.327-32-32s14.327-32 32-32v0h32c38.184 0.033 72.449 16.779 95.88 43.318l0.12 0.138c23.551-26.677 57.816-43.423 95.994-43.456h32.006c17.673 0 32 14.327 32 32s-14.327 32-32 32v0h-32c-35.346 0-64 28.654-64 64v0 64h32c17.673 0 32 14.327 32 32s-14.327 32-32 32v0h-32v64c0 35.346 28.654 64 64 64v0z" />
<glyph unicode="&#xe951;" glyph-name="folder-edit" d="M960 704h-517.504c-8.82 0.002-16.806 3.572-22.593 9.345l-90.559 90.559c-17.273 17.356-41.18 28.096-67.595 28.096-0.086 0-0.172 0-0.258 0h-197.491c-35.346 0-64-28.654-64-64v0-640c0-35.346 28.654-64 64-64v0h352c17.673 0 32 14.327 32 32s-14.327 32-32 32v0h-352v640h197.504c8.82-0.002 16.806-3.572 22.593-9.345l90.559-90.559c17.273-17.356 41.18-28.096 67.595-28.096 0.086 0 0.172 0 0.258 0h517.491v-96c0-17.673 14.327-32 32-32s32 14.327 32 32v0 96c0 35.346-28.654 64-64 64v0zM995.904 355.84c-17.375 17.386-41.383 28.14-67.904 28.14s-50.529-10.754-67.903-28.139l-190.977-191.041c-12.404-12.345-22.72-26.774-30.382-42.72l-0.402-0.928-57.6-123.84c-2.881-5.633-4.57-12.288-4.57-19.338 0-11.663 4.622-22.246 12.134-30.019l-0.012 0.012c7.458-7.397 17.728-11.968 29.066-11.968 0.041 0 0.083 0 0.124 0h-0.006c7.262 0.030 14.125 1.703 20.248 4.666l-0.28-0.122 123.776 57.6c16.874 8.064 31.303 18.38 43.642 30.778l191.046 190.982c17.386 17.375 28.14 41.383 28.14 67.904s-10.754 50.529-28.139 67.903l-0.001 0.001zM950.656 265.344l-191.040-191.040c-7.238-7.277-15.702-13.326-25.056-17.813l-0.544-0.235-70.912-33.088 33.088 70.912c4.706 9.905 10.757 18.37 18.042 25.594l190.982 191.046c5.794 5.808 13.805 9.401 22.656 9.401s16.862-3.593 22.655-9.401l0.001-0.001c5.77-5.787 9.337-13.773 9.337-22.592s-3.567-16.805-9.338-22.593l0.001 0.001z" />
<glyph unicode="&#xe952;" glyph-name="folder-heart" d="M960 704h-517.504c-8.82 0.002-16.806 3.572-22.593 9.345l-90.559 90.559c-17.273 17.356-41.18 28.096-67.595 28.096-0.086 0-0.172 0-0.258 0h-197.491c-35.346 0-64-28.654-64-64v0-640c0-35.346 28.654-64 64-64v0h352c17.673 0 32 14.327 32 32s-14.327 32-32 32v0h-352v640h197.504c8.82-0.002 16.806-3.572 22.593-9.345l90.559-90.559c17.273-17.356 41.18-28.096 67.595-28.096 0.086 0 0.172 0 0.258 0h517.491v-96c0-17.673 14.327-32 32-32s32 14.327 32 32v0 96c0 35.346-28.654 64-64 64v0zM807.424 283.584l-7.424-7.296-7.424 7.296c-23.142 22.462-54.754 36.31-89.6 36.31s-66.458-13.848-89.632-36.341l0.032 0.031c-23.065-22.533-37.367-53.948-37.367-88.704s14.303-66.171 37.344-88.681l0.024-0.023 164.224-161.024c5.767-5.656 13.676-9.147 22.4-9.147s16.633 3.491 22.405 9.152l-0.005-0.005 164.224 161.024c23.065 22.533 37.367 53.948 37.367 88.704s-14.303 66.171-37.344 88.681l-0.024 0.023c-23.142 22.462-54.754 36.31-89.6 36.31s-66.458-13.848-89.632-36.341l0.032 0.031zM941.824 151.872l-141.824-139.072-141.76 139.072c-11.25 10.894-18.233 26.135-18.233 43.008s6.983 32.114 18.217 42.993l0.016 0.015c11.574 11.224 27.379 18.143 44.8 18.143s33.226-6.919 44.816-18.159l-0.016 0.016 29.824-29.312c5.767-5.656 13.676-9.147 22.4-9.147s16.633 3.491 22.405 9.152l-0.005-0.005 29.824 29.312c11.574 11.224 27.379 18.143 44.8 18.143s33.226-6.919 44.816-18.159l-0.016 0.016c11.25-10.894 18.233-26.135 18.233-43.008s-6.983-32.114-18.217-42.993l-0.016-0.015z" />
<glyph unicode="&#xe953;" glyph-name="folder-lock" d="M960 704h-517.504c-8.82 0.002-16.806 3.572-22.593 9.345l-90.559 90.559c-17.273 17.356-41.18 28.096-67.595 28.096-0.086 0-0.172 0-0.258 0h-197.491c-35.346 0-64-28.654-64-64v0-640c0-35.346 28.654-64 64-64v0h352c17.673 0 32 14.327 32 32s-14.327 32-32 32v0h-352v640h197.504c8.82-0.002 16.806-3.572 22.593-9.345l90.559-90.559c17.273-17.356 41.18-28.096 67.595-28.096 0.086 0 0.172 0 0.258 0h517.491v-96c0-17.673 14.327-32 32-32s32 14.327 32 32v0 96c0 35.346-28.654 64-64 64v0zM960 192v64c0 70.692-57.308 128-128 128s-128-57.308-128-128v0-64c-35.346 0-64-28.654-64-64v0-128c0-35.346 28.654-64 64-64v0h256c35.346 0 64 28.654 64 64v0 128c0 35.346-28.654 64-64 64v0zM768 256c0 35.346 28.654 64 64 64s64-28.654 64-64v0-64h-128zM960 128v-128h-256v128z" />
<glyph unicode="&#xe954;" glyph-name="folder-play" d="M960 704h-517.504c-8.82 0.002-16.806 3.572-22.593 9.345l-90.559 90.559c-17.273 17.356-41.18 28.096-67.595 28.096-0.086 0-0.172 0-0.258 0h-197.491c-35.346 0-64-28.654-64-64v0-640c0-35.346 28.654-64 64-64v0h352c17.673 0 32 14.327 32 32s-14.327 32-32 32v0h-352v640h197.504c8.82-0.002 16.806-3.572 22.593-9.345l90.559-90.559c17.273-17.356 41.18-28.096 67.595-28.096 0.086 0 0.172 0 0.258 0h517.491v-96c0-17.673 14.327-32 32-32s32 14.327 32 32v0 96c0 35.346-28.654 64-64 64v0zM1006.336 156.608l-320 160c-4.176 2.138-9.11 3.391-14.336 3.391-17.673 0-31.999-14.326-32-31.999v0-320c0.001-17.673 14.327-31.999 32-31.999 5.226 0 10.16 1.253 14.517 3.475l-0.181-0.084 320 160c10.557 5.376 17.662 16.162 17.662 28.608s-7.105 23.232-17.481 28.524l-0.181 0.084zM704 19.776v216.448l216.448-108.224z" />
<glyph unicode="&#xe955;" glyph-name="folder-plus" d="M960 704h-517.504c-8.82 0.002-16.806 3.572-22.593 9.345l-90.559 90.559c-17.273 17.356-41.18 28.096-67.595 28.096-0.086 0-0.172 0-0.258 0h-197.491c-35.346 0-64-28.654-64-64v0-640c0-35.346 28.654-64 64-64v0h352c17.673 0 32 14.327 32 32s-14.327 32-32 32v0h-352v640h197.504c8.82-0.002 16.806-3.572 22.593-9.345l90.559-90.559c17.273-17.356 41.18-28.096 67.595-28.096 0.086 0 0.172 0 0.258 0h517.491v-96c0-17.673 14.327-32 32-32s32 14.327 32 32v0 96c0 35.346-28.654 64-64 64v0zM992 192h-160v160c0 17.673-14.327 32-32 32s-32-14.327-32-32v0-160h-160c-17.673 0-32-14.327-32-32s14.327-32 32-32v0h160v-160c0-17.673 14.327-32 32-32s32 14.327 32 32v0 160h160c17.673 0 32 14.327 32 32s-14.327 32-32 32v0z" />
<glyph unicode="&#xe956;" glyph-name="folder-pointer" d="M960 704h-517.504c-8.82 0.002-16.806 3.572-22.593 9.345l-90.559 90.559c-17.273 17.356-41.18 28.096-67.595 28.096-0.086 0-0.172 0-0.258 0h-197.491c-35.346 0-64-28.654-64-64v0-640c0-35.346 28.654-64 64-64v0h352c17.673 0 32 14.327 32 32s-14.327 32-32 32v0h-352v640h197.504c8.82-0.002 16.806-3.572 22.593-9.345l90.559-90.559c17.273-17.356 41.18-28.096 67.595-28.096 0.086 0 0.172 0 0.258 0h517.491v-96c0-17.673 14.327-32 32-32s32 14.327 32 32v0 96c0 35.346-28.654 64-64 64v0zM758.656 374.592c-5.794 5.808-13.805 9.401-22.656 9.401-17.671 0-31.996-14.323-32-31.993v0-271.552c0.002-13.261 8.071-24.637 19.566-29.489l0.21-0.079c3.588-1.538 7.763-2.432 12.147-2.432 0.027 0 0.054 0 0.081 0h-0.004c8.852 0.002 16.863 3.598 22.655 9.407l48.001 48.001 64.512-150.656c5.065-11.397 16.285-19.2 29.328-19.2 0.017 0 0.033 0 0.050 0h-0.003c0.071-0.001 0.156-0.001 0.24-0.001 4.543 0 8.861 0.966 12.759 2.704l-0.199-0.079c11.506 5.019 19.403 16.295 19.403 29.416 0 4.541-0.946 8.861-2.651 12.774l0.080-0.206-63.616 148.48 61.056-1.088c13.148 0.281 24.442 7.945 29.927 19.001l0.089 0.199c1.606 3.686 2.54 7.981 2.54 12.494 0 8.812-3.562 16.792-9.325 22.58l0.001-0.001z" />
<glyph unicode="&#xe957;" glyph-name="folder-search" d="M960 704h-517.504c-8.82 0.002-16.806 3.572-22.593 9.345l-90.559 90.559c-17.273 17.356-41.18 28.096-67.595 28.096-0.086 0-0.172 0-0.258 0h-197.491c-35.346 0-64-28.654-64-64v0-640c0-35.346 28.654-64 64-64v0h352c17.673 0 32 14.327 32 32s-14.327 32-32 32v0h-352v640h197.504c8.82-0.002 16.806-3.572 22.593-9.345l90.559-90.559c17.273-17.356 41.18-28.096 67.595-28.096 0.086 0 0.172 0 0.258 0h517.491v-96c0-17.673 14.327-32 32-32s32 14.327 32 32v0 96c0 35.346-28.654 64-64 64v0zM869.312 135.936c16.718 24.705 26.688 55.164 26.688 87.953 0 0.039 0 0.078 0 0.117v-0.006c0 88.366-71.634 160-160 160s-160-71.634-160-160c0-88.366 71.634-160 160-160v0c0.033 0 0.072 0 0.111 0 32.788 0 63.248 9.97 88.512 27.045l-0.56-0.357 81.28-81.344c5.798-5.798 13.808-9.384 22.656-9.384 17.695 0 32.040 14.345 32.040 32.040 0 8.848-3.586 16.858-9.384 22.656v0zM736 128c-53.019 0-96 42.981-96 96s42.981 96 96 96c53.019 0 96-42.981 96-96v0c0-53.019-42.981-96-96-96v0z" />
<glyph unicode="&#xe958;" glyph-name="folder-user" d="M960 704h-517.504c-8.82 0.002-16.806 3.572-22.593 9.345l-90.559 90.559c-17.273 17.356-41.18 28.096-67.595 28.096-0.086 0-0.172 0-0.258 0h-197.491c-35.346 0-64-28.654-64-64v0-640c0-35.346 28.654-64 64-64v0h352c17.673 0 32 14.327 32 32s-14.327 32-32 32v0h-352v640h197.504c8.82-0.002 16.806-3.572 22.593-9.345l90.559-90.559c17.273-17.356 41.18-28.096 67.595-28.096 0.086 0 0.172 0 0.258 0h517.491v-96c0-17.673 14.327-32 32-32s32 14.327 32 32v0 96c0 35.346-28.654 64-64 64v0zM970.24 75.52l-53.376 40c26.704 28.517 43.104 66.968 43.104 109.249 0 88.366-71.634 160-160 160s-160-71.634-160-160c0-42.281 16.4-80.732 43.186-109.338l-0.082 0.089-53.312-40c-32.722-24.836-53.664-63.723-53.76-107.504v-0.016c0-17.673 14.327-32 32-32s32 14.327 32 32v0c0.085 22.934 11.044 43.29 27.986 56.193l0.174 0.127 69.696 52.224c18.343-7.942 39.704-12.561 62.144-12.561s43.801 4.62 63.184 12.96l-1.040-0.398 69.696-52.288c17.159-12.968 28.138-33.327 28.16-56.253v-0.003c0-17.673 14.327-32 32-32s32 14.327 32 32v0c-0.096 43.797-21.038 82.684-53.426 107.277l-0.334 0.243zM896 224c0-53.019-42.981-96-96-96s-96 42.981-96 96c0 53.019 42.981 96 96 96v0c53.019 0 96-42.981 96-96v0z" />
<glyph unicode="&#xe959;" glyph-name="folder-wrench" d="M960 704h-517.504c-8.82 0.002-16.806 3.572-22.593 9.345l-90.559 90.559c-17.273 17.356-41.18 28.096-67.595 28.096-0.086 0-0.172 0-0.258 0h-197.491c-35.346 0-64-28.654-64-64v0-640c0-35.346 28.654-64 64-64v0h352c17.673 0 32 14.327 32 32s-14.327 32-32 32v0h-352v640h197.504c8.82-0.002 16.806-3.572 22.593-9.345l90.559-90.559c17.273-17.356 41.18-28.096 67.595-28.096 0.086 0 0.172 0 0.258 0h517.491v-96c0-17.673 14.327-32 32-32s32 14.327 32 32v0 96c0 35.346-28.654 64-64 64v0zM993.664 327.168l-91.84-91.84c-2.897-2.904-6.903-4.701-11.328-4.701s-8.431 1.797-11.328 4.7v0l-67.84 67.84c-2.904 2.897-4.701 6.903-4.701 11.328s1.797 8.431 4.7 11.328v0l91.84 91.84c2.92 2.909 4.727 6.934 4.727 11.381 0 7.552-5.211 13.886-12.233 15.604l-0.11 0.023c-9.52 2.099-20.455 3.301-31.671 3.301-18.906 0-37.015-3.416-53.742-9.664l1.061 0.347c-45.648-16.848-81.008-52.208-97.49-96.727l-0.366-1.129c-5.917-15.711-9.342-33.871-9.342-52.83 0-17.459 2.904-34.24 8.257-49.886l-0.322 1.084c0.569-1.568 0.898-3.378 0.898-5.264 0-4.332-1.735-8.258-4.549-11.122l-174.782-174.782c-12.787-12.163-20.741-29.306-20.741-48.306 0-15.659 5.402-30.057 14.445-41.43l-0.105 0.136c11.81-13.784 29.237-22.464 48.69-22.464 17.676 0 33.679 7.166 45.261 18.752l177.536 177.536c2.862 2.811 6.788 4.546 11.12 4.546 1.887 0 3.696-0.329 5.375-0.933l-0.111 0.035c14.561-5.030 31.342-7.934 48.802-7.934 18.96 0 37.12 3.425 53.894 9.691l-1.064-0.348c45.648 16.848 81.008 52.208 97.49 96.727l0.366 1.129c5.901 15.666 9.317 33.775 9.317 52.681 0 11.216-1.202 22.151-3.485 32.683l0.184-1.012c-1.778 7.081-8.088 12.241-15.603 12.241-4.364 0-8.322-1.74-11.217-4.565l0.003 0.003z" />
<glyph unicode="&#xe95a;" glyph-name="folder-x" d="M960 704h-517.504c-8.82 0.002-16.806 3.572-22.593 9.345l-90.559 90.559c-17.273 17.356-41.18 28.096-67.595 28.096-0.086 0-0.172 0-0.258 0h-197.491c-35.346 0-64-28.654-64-64v0-640c0-35.346 28.654-64 64-64v0h352c17.673 0 32 14.327 32 32s-14.327 32-32 32v0h-352v640h197.504c8.82-0.002 16.806-3.572 22.593-9.345l90.559-90.559c17.273-17.356 41.18-28.096 67.595-28.096 0.086 0 0.172 0 0.258 0h517.491v-96c0-17.673 14.327-32 32-32s32 14.327 32 32v0 96c0 35.346-28.654 64-64 64v0zM950.656 310.656c-5.794 5.808-13.805 9.401-22.656 9.401s-16.862-3.593-22.655-9.401l-105.345-105.345-105.344 105.344c-5.796 5.804-13.807 9.394-22.656 9.394-17.683 0-32.018-14.335-32.018-32.018 0-8.834 3.577-16.832 9.362-22.624v0l105.408-105.408-105.408-105.408c-5.785-5.792-9.362-13.79-9.362-22.624 0-17.683 14.335-32.018 32.018-32.018 8.849 0 16.86 3.59 22.656 9.393l105.344 105.472 105.344-105.408c5.796-5.804 13.807-9.394 22.656-9.394 17.683 0 32.018 14.335 32.018 32.018 0 8.834-3.577 16.832-9.362 22.624v0l-105.408 105.344 105.408 105.344c5.808 5.794 9.401 13.805 9.401 22.656s-3.593 16.862-9.401 22.655l-0.001 0.001z" />
</font>
</defs>
</svg>
