<?xml version="1.0" standalone="no"?>
<!DOCTYPE svg PUBLIC "-//W3C//DTD SVG 1.1//EN" "http://www.w3.org/Graphics/SVG/1.1/DTD/svg11.dtd">
<svg xmlns="http://www.w3.org/2000/svg">
<metadata></metadata>
<defs>
<font id="Font-APEX-Large" horiz-adv-x="1000" >
<font-face font-family="Font-APEX-Large" font-weight="400" font-stretch="normal" units-per-em="1000" ascent="850" descent="-150" />
<missing-glyph horiz-adv-x="1000" />
<glyph glyph-name="modifier-25-percent" unicode="&#xe9ca;" d="M500 850c-276 0-500-224-500-500s224-500 500-500c276 0 500 224 500 500v0c0 276-224 500-500 500v0z m0-500v333c184 0 333-149 333-333v0z" horiz-adv-x="1000" />
<glyph glyph-name="modifier-50-percent" unicode="&#xe9ec;" d="M500 850c-276 0-500-224-500-500s224-500 500-500c276 0 500 224 500 500v0c0 276-224 500-500 500v0z m0-833v666c184 0 333-149 333-333s-149-333-333-333v0z" horiz-adv-x="1000" />
<glyph glyph-name="modifier-75-percent" unicode="&#xe9ed;" d="M500 850c-276 0-500-224-500-500s224-500 500-500c276 0 500 224 500 500v0c0 276-224 500-500 500v0z m0-833c-184 0-333 149-333 333v0h333v333c184 0 333-149 333-333s-149-333-333-333v0z" horiz-adv-x="1000" />
<glyph glyph-name="modifier-100-percent" unicode="&#xe9ee;" d="M500 850c-276 0-500-224-500-500s224-500 500-500c276 0 500 224 500 500v0c0 276-224 500-500 500v0z m0-833c-184 0-333 149-333 333s149 333 333 333c184 0 333-149 333-333v0c0-184-149-333-333-333v0z" horiz-adv-x="1000" />
<glyph glyph-name="modifier-arrow-down" unicode="&#xe9ef;" d="M500 850c-276 0-500-224-500-500s224-500 500-500c276 0 500 224 500 500v0c0 276-224 500-500 500v0z m261-539l-222-223c-10-10-24-16-39-16s-29 6-39 16l-223 223c-10 10-16 24-16 39 0 31 25 56 56 56 15 0 29-7 39-17l127-127v310c0 31 25 56 56 56s56-25 56-56v0-310l127 127c10 11 24 17 40 17 31 0 55-25 55-55 0-16-6-30-16-40l0 0z" horiz-adv-x="1000" />
<glyph glyph-name="modifier-arrow-left" unicode="&#xe9f0;" d="M500 850c-276 0-500-224-500-500s224-500 500-500c276 0 500 224 500 500v0c0 276-224 500-500 500v0z m222-556h-310l127-127c12-10 19-25 19-42 0-30-25-55-55-55-17 0-32 7-42 19l0 0-223 222c-10 10-16 24-16 39s6 30 16 40l223 222c10 10 23 16 39 16 30 0 55-25 55-56 0-15-6-29-16-39l0 0-127-127h310c31 0 56-25 56-56s-25-56-56-56v0z" horiz-adv-x="1000" />
<glyph glyph-name="modifier-arrow-right" unicode="&#xe9f1;" d="M500 850c-276 0-500-224-500-500s224-500 500-500c276 0 500 224 500 500v0c0 276-224 500-500 500v0z m262-539l-223-222c-10-11-24-17-39-17-31 0-56 25-56 56 0 15 7 29 17 39l127 128h-310c-31 0-56 24-56 55s25 56 56 56v0h310l-127 127c-10 10-16 24-16 39 0 30 25 55 56 55 15 0 28-6 38-15l0 0 223-223c10-10 16-24 16-39s-6-29-16-39v0z" horiz-adv-x="1000" />
<glyph glyph-name="modifier-arrow-up" unicode="&#xe9f2;" d="M500 850c-276 0-500-224-500-500s224-500 500-500c276 0 500 224 500 500v0c0 276-224 500-500 500v0z m261-539c-10-10-24-16-39-16s-29 6-39 16v0l-127 127v-310c0-31-25-55-56-55s-56 24-56 55v0 310l-127-127c-10-11-25-18-41-18-31 0-55 25-55 56 0 16 6 30 17 41l0 0 223 222c10 10 24 16 39 16s29-6 39-16l222-222c10-10 17-24 17-39 0-16-7-30-17-40l0 0z" horiz-adv-x="1000" />
<glyph glyph-name="modifier-blank" unicode="&#xe9f3;" d="M1000 350c0-276-224-500-500-500s-500 224-500 500c0 276 224 500 500 500s500-224 500-500z" horiz-adv-x="1000" />
<glyph glyph-name="modifier-check" unicode="&#xe9f4;" d="M500 850c-276 0-500-224-500-500s224-500 500-500c276 0 500 224 500 500v0c0 276-224 500-500 500v0z m261-373l-333-333c-10-10-24-16-39-16s-29 6-39 16l-111 111c-12 10-19 25-19 41 0 31 25 56 56 56 16 0 31-7 41-19l0 0 72-71 294 294c10 11 25 18 41 18 31 0 56-25 56-55 0-17-7-32-18-42l-1 0z" horiz-adv-x="1000" />
<glyph glyph-name="modifier-circle" unicode="&#xe9f5;" d="M500 850c-276 0-500-224-500-500s224-500 500-500c276 0 500 224 500 500v0c0 276-224 500-500 500v0z m0-667c-92 0-167 75-167 167s75 167 167 167c92 0 167-75 167-167v0c0-92-75-167-167-167v0z" horiz-adv-x="1000" />
<glyph glyph-name="modifier-clock" unicode="&#xe9f6;" d="M500 850c-276 0-500-224-500-500s224-500 500-500c276 0 500 224 500 500v0c0 276-224 500-500 500v0z m207-707c-10-10-24-16-40-16s-29 6-39 16l-167 168c-10 10-17 24-17 39v222c0 31 25 56 56 56s56-25 56-56v0-199l151-151c10-10 16-24 16-39 0-16-6-30-16-40l0 0z" horiz-adv-x="1000" />
<glyph glyph-name="modifier-ellipsis-h" unicode="&#xe9f7;" d="M500 850c-276 0-500-224-500-500s224-500 500-500c276 0 500 224 500 500v0c0 276-224 500-500 500v0z m-222-556c-31 0-56 25-56 56s25 56 56 56c31 0 55-25 55-56v0c0-31-24-56-55-56v0z m222 0c-31 0-56 25-56 56s25 56 56 56c31 0 56-25 56-56v0c0-31-25-56-56-56v0z m222 0c-30 0-55 25-55 56s25 56 55 56c31 0 56-25 56-56v0c0-31-25-56-56-56v0z" horiz-adv-x="1000" />
<glyph glyph-name="modifier-ellipsis-v" unicode="&#xe9f8;" d="M500 850c-276 0-500-224-500-500s224-500 500-500c276 0 500 224 500 500v0c0 276-224 500-500 500v0z m0-778c-31 0-56 25-56 56s25 55 56 55c31 0 56-24 56-55v0c0-31-25-56-56-56v0z m0 222c-31 0-56 25-56 56s25 56 56 56c31 0 56-25 56-56v0c0-31-25-56-56-56v0z m0 223c-31 0-56 25-56 55s25 56 56 56c31 0 56-25 56-56v0c0-30-25-55-56-55v0z" horiz-adv-x="1000" />
<glyph glyph-name="modifier-heart" unicode="&#xe9f9;" d="M500 850c-276 0-500-224-500-500s224-500 500-500c276 0 500 224 500 500v0c0 276-224 500-500 500v0z m239-549l-239-229-239 229c-24 23-39 55-39 90s15 66 39 89l0 0c24 23 57 37 93 37s69-14 93-37l0 0 53-51 53 51c24 23 57 37 93 37s69-14 93-37l0 0c24-23 39-54 39-89 0-35-15-67-39-89l0-1z" horiz-adv-x="1000" />
<glyph glyph-name="modifier-information" unicode="&#xe9fa;" d="M500 850c-276 0-500-224-500-500s224-500 500-500c276 0 500 224 500 500v0c0 276-224 500-500 500v0z m56-722c0-31-25-56-56-56s-56 25-56 56v0 222c0 31 25 56 56 56s56-25 56-56v0z m-56 389c-31 0-56 25-56 55s25 56 56 56c31 0 56-25 56-56v0c0-30-25-55-56-55v0z" horiz-adv-x="1000" />
<glyph glyph-name="modifier-minus" unicode="&#xe9fb;" d="M500 850c-276 0-500-224-500-500s224-500 500-500c276 0 500 224 500 500v0c0 276-224 500-500 500v0z m222-556h-444c-31 0-56 25-56 56s25 56 56 56v0h444c31 0 56-25 56-56s-25-56-56-56v0z" horiz-adv-x="1000" />
<glyph glyph-name="modifier-pause" unicode="&#xe9fc;" d="M500 850c-276 0-500-224-500-500s224-500 500-500c276 0 500 224 500 500v0c0 276-224 500-500 500v0z m-56-611c0-31-24-56-55-56s-56 25-56 56v0 222c0 31 25 56 56 56s55-25 55-56v0z m223 0c0-31-25-56-56-56s-55 25-55 56v0 222c0 31 24 56 55 56s56-25 56-56v0z" horiz-adv-x="1000" />
<glyph glyph-name="modifier-play" unicode="&#xe9fd;" d="M500 850c-276 0-500-224-500-500s224-500 500-500c276 0 500 224 500 500v0c0 276-224 500-500 500v0z m195-548l-278-166c-8-5-18-8-28-8-31 0-56 25-56 55 0 0 0 0 0 0v0 334c0 30 25 55 56 55 10 0 20-3 29-8l-1 0 278-166c17-10 27-28 27-48s-10-38-26-47l-1-1z" horiz-adv-x="1000" />
<glyph glyph-name="modifier-plus" unicode="&#xe9fe;" d="M500 850c-276 0-500-224-500-500s224-500 500-500c276 0 500 224 500 500v0c0 276-224 500-500 500v0z m222-556h-166v-166c0-31-25-56-56-56s-56 25-56 56v0 166h-166c-31 0-56 25-56 56s25 56 56 56v0h166v166c0 31 25 56 56 56s56-25 56-56v0-166h166c31 0 56-25 56-56s-25-56-56-56v0z" horiz-adv-x="1000" />
<glyph glyph-name="modifier-sleep" unicode="&#xe9ff;" d="M500 850c-276 0-500-224-500-500s224-500 500-500c276 0 500 224 500 500v0c0 276-224 500-500 500v0z m8-778c-1 0-1 0-1 0-158 0-285 128-285 285 0 126 82 233 196 270l2 1c-27-40-42-89-42-142 0-143 115-258 258-258 53 0 102 15 143 42l-1 0c-38-116-145-198-271-198h0z" horiz-adv-x="1000" />
<glyph glyph-name="modifier-star" unicode="&#xea00;" d="M500 850c-276 0-500-224-500-500s224-500 500-500c276 0 500 224 500 500v0c0 276-224 500-500 500v0z m244-577c17-10 28-27 28-48 0-31-25-55-56-55h0c-10 0-19 2-28 7l1 0-133 77v-154c0-31-25-56-56-56s-55 25-55 56v0 154l-134-77c-8-5-17-7-28-7h0c-30 0-55 25-55 55 0 21 11 38 27 48l1 0 133 77-133 77c-17 10-28 28-28 48 0 31 25 56 56 56 10 0 19-3 27-8l0 0 133-77v154c0 31 25 56 56 56s56-25 56-56v0-154l133 77c8 5 17 8 27 8 31 0 56-25 56-56 0-20-11-38-27-48l0 0-134-77z" horiz-adv-x="1000" />
<glyph glyph-name="modifier-stop" unicode="&#xea01;" d="M500 850c-276 0-500-224-500-500s224-500 500-500c276 0 500 224 500 500v0c0 276-224 500-500 500v0z m167-611c0-31-25-56-56-56v0h-222c-31 0-56 25-56 56v0 222c0 31 25 56 56 56v0h222c31 0 56-25 56-56v0z" horiz-adv-x="1000" />
<glyph glyph-name="modifier-warning" unicode="&#xea02;" d="M500 850c-276 0-500-224-500-500s224-500 500-500c276 0 500 224 500 500v0c0 276-224 500-500 500v0z m39-761c-10-10-24-16-39-16-30 0-55 24-56 55v0c0 0 0 1 0 1 0 7 2 14 5 20l0 0c2 7 7 13 12 18l0 0c10 10 24 16 39 16s29-6 39-16l0 0c5-5 10-11 12-18l0 0c3-6 5-13 5-20 0 0 0-1 0-1l0 0c0 0 0-1 0-1 0-15-7-29-17-38l0 0z m17 261c0-31-25-56-56-56s-56 25-56 56v0 222c0 31 25 56 56 56s56-25 56-56v0z" horiz-adv-x="1000" />
<glyph glyph-name="modifier-x" unicode="&#xea03;" d="M500 850c-276 0-500-224-500-500s224-500 500-500c276 0 500 224 500 500v0c0 276-224 500-500 500v0z m234-655c11-10 17-25 17-41 0-30-25-55-55-55-16 0-31 7-41 17l0 0-155 156-155-156c-10-9-23-15-38-15-31 0-56 25-56 56 0 15 6 28 15 38l0 0 155 155-155 155c-10 10-17 24-17 40 0 31 25 56 56 56 16 0 30-7 40-17l0 0 155-155 155 155c10 10 24 17 40 17 31 0 56-25 56-56 0-16-7-30-17-40l0 0-155-155z" horiz-adv-x="1000" />
<glyph glyph-name="american-sign-language-interpreting" unicode="&#xf2a3;" d="M625 148l215 241c2 3 4 7 4 11 0 4-2 8-5 11l0 0c-22 21-52 34-85 34-34 0-64-13-87-35l0 0-11-11v326c0 35-28 63-63 63s-62-28-62-63v0-134c-9 6-20 9-32 9-27 0-50-17-58-42l0 0c-10 7-22 11-35 11-11 0-22-3-32-9l1 0v103c0 34-28 62-63 62s-62-28-62-62v0-422c0 0 0 0 0 0 0-41 17-77 45-102l0-1c10-9 17-21 17-36l0 0v-33h-47c-8 0-15-7-15-16v0-125c0-9 7-16 15-16s16 7 16 16v0 110h344v-110c0-9 7-16 15-16s16 7 16 16v0 125c0 9-7 16-16 16v0h-47v5c2 29 13 55 32 74l0 0z m-157 390c0 17 14 31 32 31s31-14 31-31v0-125c0-18-14-32-31-32s-32 14-32 32v0 125z m-62 0c17 0 31-14 31-32v0-125c0-17-14-31-31-31s-31 14-31 31v0 125c0 18 14 32 31 32v0z m-63-469v33c0 24-11 45-27 59l0 0c-22 20-35 48-35 80 0 0 0 0 0 0v0 422c0 17 14 31 31 31s31-14 31-31v0-282c0 0 0 0 0 0 0-34 28-62 63-62 27 0 50 17 59 41l0 1c9-7 22-11 35-11 34 0 62 28 62 63v312c0 17 14 31 31 31s32-14 32-31v0-356l-54-50c-50-2-96-22-131-54l0 0c-3-2-5-7-5-11 0-9 7-16 16-16 4 0 8 2 11 4l0 0c30 28 71 46 115 46 1 0 1 0 1 0h0c0 0 0 0 0 0 4 0 8 1 11 4l0 0 100 95c17 17 40 27 65 27 19 0 37-6 52-16l0 0-205-230c-23-24-38-57-39-94l0 0v-5z" horiz-adv-x="1000" />
<glyph glyph-name="assistive-listening-systems" unicode="&#xf2a2;" d="M391 788c-147-1-266-119-266-266v0c0-9 7-16 16-16s15 7 15 16v0c0 129 105 234 235 234s234-105 234-234v0c0-104-43-155-90-209-48-56-97-114-97-229-1-77-63-140-141-140h0c-9 0-16-7-16-16s7-16 16-16v0c95 1 172 77 172 172v0c0 104 44 155 90 208 48 56 98 114 97 230 0 147-119 265-265 266h0z m-94-657c60 0 109 49 109 110s-49 109-109 109c-60 0-109-49-109-109v0c0-8 0-16 2-23l0 0-82-82c-9-9-14-20-14-33s5-25 14-33l18-19c8-8 20-13 33-13s25 5 33 13l83 83c6-2 14-3 22-3h0z m0 188c43 0 78-35 78-78s-35-78-78-78c-43 0-78 35-78 78v0c0 43 35 78 78 78v0z m-127-246c-3-2-7-4-11-4s-8 2-11 4v0l-18 19c-3 3-5 6-5 11s2 8 5 11v0l72 73c10-17 24-31 40-41l1 0z m559 600c-6-3-10-8-10-15 0-2 1-4 2-6l0 0c18-43 29-93 29-146s-11-103-30-148l1 2c-1-1-2-4-2-6 0-6 4-12 10-14l0 0c2-1 4-1 6-1 6 0 12 3 14 9l0 0c21 47 32 101 32 158s-11 112-33 161l1-3c-2 6-8 10-14 10-2 0-4 0-6-1l0 0z m136 40c-3 6-8 10-15 10-8 0-15-7-15-16 0-2 0-4 1-6l0 0c25-58 39-124 39-195s-14-137-40-198l1 4c-1-2-1-4-1-6 0-7 3-12 9-15l0 0c2-1 4-1 6-1 0 0 0 0 0 0h0c0 0 0 0 0 0 7 0 12 4 15 9l0 0c26 61 41 132 41 207s-15 146-43 210l2-3z m-371-328c2-2 6-4 9-4 5 0 10 3 13 6l0 0c29 34 47 79 47 128 0 2 0 5 0 7l0 0c-1 95-77 172-172 172h0l-16 0v-1l-3 0c-86-8-153-80-153-168 0-1 0-2 0-3l0 0c0-1 0-2 0-3 0-24 6-47 16-67l0 0c4-8 8-17 10-26l0-1c2-8 8-13 16-13 8 0 15 7 15 16 0 1 0 2 0 4l0 0c-3 13-8 24-13 34l0 0c-8 15-13 33-13 53 0 1 0 2 0 3l0 0c0 1 0 2 0 3 0 71 55 130 125 137l0 0c4 0 8 0 12 0 1 0 2 0 4 0l-1 0h8c75-4 133-66 133-141v0c0-2 0-4 0-7 0-41-15-79-40-108l0 0c-2-2-3-6-3-9 0-5 2-10 6-12l0-1z" horiz-adv-x="1000" />
<glyph glyph-name="audio-description" unicode="&#xf29e;" d="M813 631h-625c-52 0-94-42-94-93v0-375c0-52 42-94 94-94v0h195l104-150c3-4 8-7 13-7s10 3 13 7l0 0 105 150h195c51 0 93 42 93 94v0 375c0 51-42 93-93 93v0z m62-468c0-35-28-63-62-63v0h-204c-5 0-9-3-12-7l0 0-97-138-97 138c-2 4-7 7-12 7 0 0 0 0 0 0h-203c-35 0-63 28-63 63v0 375c0 34 28 62 63 62v0h625c34 0 62-28 62-62v0z m-250 343h-78c-9 0-16-7-16-15v0-282c0-8 7-15 16-15v0h78c86 0 156 70 156 156s-70 156-156 156v0z m0-281h-62v250h62c69 0 125-56 125-125s-56-125-125-125v0z m-243 272c-3 5-8 9-15 9h-15c-7 0-12-4-15-9l0 0-117-282c-1-1-1-3-1-5 0-8 7-15 16-15 6 0 11 3 14 8l0 0 35 85h151l35-85c2-5 8-9 14-9h0c0 0 0 0 0 0 3 0 5 0 7 1l-1 0c6 2 10 8 10 14 0 3 0 5-1 7l0-1z m-85-178l62 150 63-150z" horiz-adv-x="1000" />
<glyph glyph-name="blind" unicode="&#xf296;" d="M438 600c51 0 93 42 93 94s-42 94-93 94c-52 0-94-42-94-94v0c0-52 42-94 94-94v0z m0 156c34 0 62-28 62-62s-28-63-62-63c-35 0-63 28-63 63v0c0 34 28 62 63 62v0z m467-791l-125 313c-2 6-8 10-14 10-9 0-16-7-16-16 0-2 0-4 1-6l0 0 125-312c3-6 8-10 15-10v0c0 0 0 0 0 0 2 0 4 0 6 1l-1 0c6 2 10 8 10 14 0 2 0 4-1 6l0 0z m-333 381c17-17 40-27 66-27 0 0 0 0 0 0h82c1 0 2 0 2 0 29 0 54 19 62 46l0 0c1 5 2 10 2 16 0 17-7 33-19 44l0 0c-11 12-26 19-44 19 0 0 0 0 0 0h-72l-84 84c-25 25-60 41-99 41 0 0 0 0 0 0h-61c0 0 0 0 0 0-39 0-74-16-99-41l-162-163c-13-11-20-28-20-46 0-16 5-30 14-41l0 0c12-13 29-21 48-21 17 0 32 7 44 18l0 0 112 112v-83c0-21-3-41-8-60l0 1-26-103c-4-14-12-26-23-34l0 0-88-66c-16-12-27-31-27-52 0-10 3-20 7-28l0 0c10-20 31-34 55-34v0c1 0 1 0 1 0 14 0 27 5 37 13l0 0 90 67c33 25 58 61 69 102l0 1 19 74 119-238c11-21 32-35 56-35 35 0 63 28 63 63 0 10-3 20-7 28l0 0-138 276c-7 14-12 31-12 49 0 0 0 0 0 0v0 59z m-57-81l138-276c2-4 3-9 3-14 0-12-7-23-17-28l0 0c-4-2-9-3-14-3-12 0-23 7-28 17l0 0-138 276c-2 5-8 8-14 8v0c0 0 0 0 0 0s-1 0-1 0l0 0c-7 0-12-5-14-11l0 0-29-115c-10-35-30-65-57-86l-1 0-90-67c-5-4-11-6-18-6-13 0-23 6-29 17l0 0c-2 4-3 8-3 13 0 11 6 21 14 27l0 0 88 66c17 13 29 31 35 51l0 1 26 103c6 20 9 42 9 66v120c0 9-7 16-16 16-4 0-8-2-11-5v0l-138-138c-6-6-14-9-22-9-10 0-18 4-24 11l0 0c-4 5-7 12-7 20 0 9 4 18 11 24l0 0 162 163c20 19 47 32 77 32 0 0 0 0 0 0h61c0 0 0 0 0 0 30 0 57-13 77-32l88-89c3-3 7-4 11-4h79c0 0 0 0 0 0 17 0 31-14 31-32 0-3 0-6-1-8l0 0c-4-14-17-23-31-23-1 0-1 0-2 0l0 0h-82c0 0 0 0 0 0-17 0-33 7-44 18l-67 67c-3 3-7 5-11 5-9 0-16-7-16-16v0-96c0-23 6-44 15-64l0 1z" horiz-adv-x="1000" />
<glyph glyph-name="braille" unicode="&#xf2a1;" d="M344 788c-69 0-125-56-125-125s56-125 125-125c69 0 125 56 125 125v0c0 69-56 125-125 125v0z m0-219c-52 0-94 42-94 94s42 93 94 93c52 0 94-42 94-93v0c0-52-42-94-94-94v0z m312-31c69 0 125 56 125 125s-56 125-125 125c-69 0-125-56-125-125v0c0-69 56-125 125-125v0z m0 218c52 0 94-42 94-93s-42-94-94-94c-51 0-93 42-93 94v0c0 51 42 93 93 93v0z m-312-281c-69 0-125-56-125-125s56-125 125-125c69 0 125 56 125 125v0c0 69-56 125-125 125v0z m0-219c-52 0-94 42-94 94s42 94 94 94c52 0 94-42 94-94v0c0-52-42-94-94-94v0z m312 219c-69 0-125-56-125-125s56-125 125-125c69 0 125 56 125 125v0c0 69-56 125-125 125v0z m0-219c-51 0-93 42-93 94s42 94 93 94c52 0 94-42 94-94v0c0-52-42-94-94-94v0z m-312-93c-69 0-125-56-125-125s56-126 125-126c69 0 125 56 125 126v0c0 69-56 125-125 125v0z m0-219c-52 0-94 42-94 94s42 93 94 93c52 0 94-42 94-93v0c0-52-42-94-94-94v0z m312 219c-69 0-125-56-125-125s56-126 125-126c69 0 125 56 125 126v0c0 69-56 125-125 125v0z m0-219c-51 0-93 42-93 94s42 93 93 93c52 0 94-42 94-93v0c0-52-42-94-94-94v0z" horiz-adv-x="1000" />
<glyph glyph-name="deaf" unicode="&#xf2a4;" d="M234 506c9 0 16 7 16 16v0c0 129 105 234 234 234 89 0 165-48 205-120l1-2c3-4 8-8 14-8 8 0 15 7 15 16 0 3 0 5-2 8l0-1c-46 83-133 138-233 138-146 0-265-118-265-265v0c0-9 7-16 15-16v0z m500 4c0 0-1 0-1 0-8 0-15-6-16-14l0 0c-6-87-46-134-88-183-48-56-98-114-98-229 0-77-63-140-140-140h0c-9 0-16-7-16-16s7-16 16-16v0c95 1 171 77 172 172v0c0 104 43 155 89 209 44 51 89 104 97 200 0 1 0 1 0 2 0 8-7 15-15 15l0 0z m136 210c-2 3-6 5-11 5s-8-2-11-5v0l-718-718c-3-3-5-7-5-11 0-9 7-16 16-16 4 0 8 2 11 5l718 718c3 3 5 7 5 11s-2 9-5 11v0z m-386-57c21 0 40-5 58-13l-1 0c2 0 4-1 6-1 9 0 16 7 16 16 0 6-4 11-9 14l-1 0c-20 9-44 15-69 15h0c-94 0-171-77-171-172v0c0-1 0-2 0-3 0-25 6-48 17-67l0 0c9-15 14-33 14-52 0-1 0-2 0-3l0 0c0 0 0-1 0-1 0-12-3-22-9-31l0 0c-1-2-2-5-2-8 0-9 7-16 16-16 5 0 11 3 13 8l0 0c8 13 13 29 13 47 0 0 0 1 0 1l0 0c0 1 0 2 0 3 0 24-6 47-18 67l1-1c-9 15-14 33-14 53 0 1 0 2 0 3l0 0c0 78 63 141 140 141h0z" horiz-adv-x="1000" />
<glyph glyph-name="low-vision" unicode="&#xf2a8;" d="M934 361c-61 67-225 223-434 223-42 0-83-6-122-17l4 1-134 212c-3 5-8 7-14 7-8 0-15-7-15-15 0-3 1-6 2-9l0 0 130-205c-113-44-208-112-284-197l0-1c-3-2-4-6-4-10s1-8 4-11l0 0c60-67 225-223 433-223 42 0 83 6 122 17l-3-1 133-212c3-5 8-8 14-8 8 0 15 7 15 16 0 3-1 6-2 8l0 0-130 206c113 44 208 112 284 197l1 1c2 2 4 6 4 10s-2 8-4 11l0 0z m-675 118l209-331c-45 5-87 15-125 31l3-1-159 252c21 16 45 33 69 48l3 1z m-160-129c20 21 41 40 63 59l1 1 131-209c-75 41-139 90-194 149l-1 0z m407-203l-219 348c22 13 49 25 77 34l4 1 233-370c-28-7-61-12-95-13l0 0z m126 23l-60 95c25 20 41 51 41 85v0c0 62-51 113-113 113v0c-17-1-32-4-47-11l1 0-55 88c30 8 65 13 101 13h0c189 0 345-144 401-203-73-78-163-140-264-179l-5-1z" horiz-adv-x="1000" />
<glyph glyph-name="sign-language" unicode="&#xf2a7;" d="M919 214c-7 7-17 13-27 16l-1 0 6 6h0l1 1c1 0 1 1 1 1l0 1c10 11 16 25 16 41 0 30-21 55-50 61l0 0c4 8 6 17 6 27 0 18-7 33-18 45l0 0c-12 11-27 18-45 18-9 0-18-3-27-6l1 0c-3 12-9 23-17 32l0 0c-12 11-28 17-45 17s-32-6-44-17l0 0-181-181c-2-3-6-5-11-5-8 0-15 7-15 16v0 90c0 35-28 63-63 63v0 0c-34 0-62-28-62-63v0-264c0 0 0 0 0 0 0-39 16-74 41-99l97-97c3-3 7-4 11-4 9 0 16 7 16 15 0 4-2 8-5 11v0l-97 97c-20 20-32 47-32 77 0 0 0 0 0 0v0 264c0 18 14 32 31 32v0 0c18 0 32-14 32-32v0-90c0-26 21-47 46-47 13 0 25 5 34 14l180 181c6 5 14 8 22 8s17-3 22-8l0 0c6-6 10-14 10-22s-4-17-10-23l-143-143c-3-3-5-7-5-11 0-9 7-16 16-16 0 0 0 0 0 0h0c4 0 8 2 11 5v0l165 165c6 6 14 9 23 9s16-3 22-9l0 0c5-5 9-13 9-22s-4-16-9-22v0l-166-166c-3-2-4-6-4-11 0-8 7-15 15-15 4 0 8 2 11 4l144 144c5 5 13 8 20 8 18 0 32-14 32-32 0-7-3-15-8-20l0 0-144-144c-3-3-4-6-4-11 0-8 7-15 15-15v0c0 0 0 0 0 0 5 0 9 1 11 4l100 100c5 5 13 9 22 9 17 0 31-14 31-31 0-9-3-17-9-23l-208-208c-3-3-5-7-5-11 0-9 7-16 16-16 4 0 8 2 11 5v0l208 208c11 12 18 27 18 45 0 17-7 32-18 44l0 0z m-772 221l54-54c9-9 20-14 33-14 26 0 47 21 47 47 0 0 0 0 0 0v0 280c0 17 14 31 32 31s31-14 31-31v0-203c0-9 7-16 15-16s16 7 16 16v0 234c0 17 14 31 31 31s32-14 32-31v0-234c0-9 7-16 15-16s16 7 16 16v0 203c0 17 14 31 31 31s31-14 31-31v0-203c0-9 7-16 16-16s16 7 16 16v0 140c0 18 14 32 31 32s31-14 31-32v0-140c0-9 7-16 16-16s15 7 15 16v0 140c0 35-28 63-62 63-12 0-22-3-32-9l1 0v10c0 1-1 1-1 2-1 33-29 59-62 59-13 0-25-4-35-10l0 0c-8 24-31 42-59 42s-50-18-58-42l-1 0c-9 6-21 10-34 10-35 0-63-28-63-62 0 0 0 0 0 0v0-280c0 0 0 0 0 0 0-9-7-16-16-16-4 0-8 2-11 5v0l-54 54c-11 11-27 17-44 17s-33-6-44-17l0 0c-11-12-18-27-18-44s7-33 18-45l164-164c13-13 28-23 45-30l1-1c2 0 4-1 6-1 0 0 0 0 0 0h0c0 0 0 0 0 0 9 0 16 7 16 16 0 6-4 12-10 14l0 0c-14 6-26 14-35 24l-165 164c-6 6-9 14-9 23s3 16 9 22v0c6 5 14 9 22 9s16-4 22-9l0 0z" horiz-adv-x="1000" />
<glyph glyph-name="universal-access" unicode="&#xf29a;" d="M547 538c0-26-21-47-47-47s-47 21-47 47c0 25 21 46 47 46s47-21 47-46z m-47 250c-241 0-437-197-437-438s196-438 437-438c241 0 438 197 438 438s-197 438-438 438z m0-844c-225 0-406 181-406 406s181 406 406 406c225 0 406-181 406-406s-181-406-406-406z m184 522l-59-10c-81-15-166-15-247 0l-59 13c-13 3-25-6-28-19s6-25 18-28l60-13c25-6 53-9 78-12v-59c0-10-3-22-6-32l-57-168c0 0 0 0 0 0-3-13 4-25 16-29 3 0 6 0 6 0 10 0 19 7 22 16l53 156c0 0 0 0 0 0 3 3 7 10 10 10 9 3 22 0 28-10 0 0 0 0 0 0l53-156c3-9 12-16 22-16 3 0 6 0 6 0s0 0 0 0c13 4 19 19 16 29l-57 168c-3 10-6 22-6 32v59c25 3 53 6 78 12l60 13c12 3 18 16 18 28-3 9-12 19-25 16z" horiz-adv-x="1000" />
<glyph glyph-name="volume-control-phone" unicode="&#xf2a0;" d="M747 659c-3 3-7 5-11 5-9 0-16-7-16-15 0-5 2-9 5-12l0 0c73-73 119-175 119-287s-46-214-119-287v0c-3-3-5-7-5-11 0-9 7-16 16-16 0 0 0 0 0 0h0c0 0 0 0 0 0 4 0 8 2 11 5l0 0c79 79 128 188 128 309s-49 230-128 309v0z m-88-88c-3 3-7 5-12 5-8 0-15-7-15-16 0-4 1-8 4-11l0 0c51-51 83-121 83-199s-32-148-83-199l0 0c-2-3-4-7-4-11 0-9 7-16 15-16 0 0 0 0 0 0h0c5 0 9 2 11 5v0c57 57 92 135 92 221s-35 164-92 221l0 0z m-111-88c-3-3-5-7-5-11s2-9 5-11v0c28-29 46-68 46-111s-18-82-46-110v0c-3-3-4-7-4-11 0-9 7-16 15-16 4 0 8 2 11 4l0 0c34 34 55 81 55 133s-21 99-55 133v0c-3 2-7 4-11 4s-8-2-11-4v0z m-170-9c7 0 13 6 15 12l0 0c16 68 41 128 75 183l-2-3c2 2 3 5 3 8 0 6-3 10-7 13l0 0-147 98c-3 2-5 3-9 3-4 0-8-2-11-5l0 0c-105-114-170-266-170-433s65-319 170-433l0 0c3-3 7-5 11-5 4 0 6 1 9 3l0 0 147 98c4 3 7 7 7 13 0 3-1 6-3 8l0 0c-32 52-57 112-72 176l-1 4c-2 7-8 12-15 12h-110c-11 37-18 80-18 124s7 87 19 127l-1-3z m-136 21c-15-43-23-93-23-145s8-102 24-148l-1 3c2-6 8-11 15-11h108c16-62 39-116 69-166l-2 3-123-82c-95 106-153 247-153 401s58 295 153 402l0-1 123-82c-28-47-51-101-66-159l-1-4h-108c-7 0-13-5-15-11l0 0z" horiz-adv-x="1000" />
<glyph glyph-name="wheelchair-alt" unicode="&#xf29b;" d="M656 569c52 0 94 42 94 94s-42 93-94 93c-51 0-93-42-93-93v0c0-52 42-94 93-94v0z m0 156c35 0 63-28 63-62s-28-63-63-63c-34 0-62 28-62 63v0c0 34 28 62 62 62v0z m-297-500c-25 0-46-21-46-47s21-47 46-47c26 0 47 21 47 47v0c0 26-21 47-47 47v0z m0-62c-8 0-15 7-15 15s7 16 15 16c9 0 16-7 16-16v0c0-8-7-15-16-15v0z m505-27l-128 181c-14 20-38 33-64 33 0 0 0 0 0 0h-154c-7 6-14 13-22 18l0 1 86 77c16 15 25 35 25 58 0 21-9 41-23 55l0 0-94 93c-25 26-60 41-99 41-39 0-74-16-99-41l0 0-84-83c-12-12-20-29-20-47 0-15 6-30 14-41l0 1c12-14 29-22 48-22 17 0 33 7 44 18l0 0 86 86c3 3 7 4 11 4 5 0 9-1 11-4l0 0 36-35-120-120c-111-21-193-116-193-231 0-130 104-235 234-235 94 0 175 56 212 136l1 1 125-105h131c9 0 16 7 16 16s-7 15-16 15v0h-119l-125 105c6 20 10 43 10 67 0 17-2 33-5 49l0-2h59l113-161c12-16 31-26 52-26 34 0 62 27 62 62 0 14-4 26-12 36l1 0z m-393 405l-47 46c-8 8-20 13-32 13-13 0-25-6-34-14l0 0-86-86c-6-6-13-9-22-9-9 0-18 4-24 11l0 0c-4 5-6 12-6 20 0 9 4 18 10 24l0 0 84 84c20 20 47 32 77 32 30 0 58-12 77-32l0 0 94-93c9-8 14-20 14-33 0-14-6-26-15-35l0 0-93-83c-30 16-65 25-102 26l0 0 106 106c3 3 4 7 4 11s-1 9-4 12l0 0z m-112-566c-112 0-203 91-203 203s91 203 203 203c113 0 204-91 204-203v0c-1-112-91-203-204-203h0z m472 100c-5-4-12-6-18-6-11 0-20 5-26 13l0 0-118 168c-3 4-8 6-13 6 0 0 0 0 0 0h-76c-8 24-20 45-34 63l0 0h126c16 0 30-8 38-20l0 0 128-181c4-5 6-11 6-18 0-10-5-20-13-25l0 0z" horiz-adv-x="1000" />
<glyph glyph-name="calendar-alarm" unicode="&#xe9aa;" d="M880 51c-3 14-5 30-5 47l0 1v48c0 72-54 131-124 139l-1 0v17c0 9-7 16-16 16s-15-7-15-16v0-17c-71-8-125-67-125-139v-48c-1-18-2-34-5-50l0 2-53-49c-3-3-5-7-5-11 0-9 7-16 16-16 0 0 0 0 0 0h141v-16c0-26 21-47 46-47s47 21 47 47v0 16h141c0 0 0 0 0 0 9 0 16 7 16 16 0 4-2 8-5 11l0 0z m-130-92c0-8-7-15-16-15s-15 7-15 15v0 16h31z m-163 47l25 24c1 1 2 2 3 3l0 0c6 19 10 41 10 64 0 1 0 1 0 2v0 48c0 60 49 109 109 109s110-49 110-109v0-48c0-1 0-1 0-2 0-23 4-45 11-66l-1 2c1-1 2-2 3-3l0 0 25-24z m257 657h-63v15c0 9-7 16-15 16s-16-7-16-16v0-15h-500v15c0 9-7 16-16 16s-15-7-15-16v0-15h-63c-51 0-93-42-93-94v0-438c0-51 42-93 93-93v0h297c9 0 16 7 16 15s-7 16-16 16v0h-297c-34 0-62 28-62 62v0 375h812v-109c0-9 7-16 16-16s16 7 16 16v0 172c0 52-42 94-94 94v0z m-750-125v31c0 34 28 62 62 62v0h63v-15c0-9 7-16 15-16s16 7 16 16v0 15h500v-15c0-9 7-16 16-16s15 7 15 16v0 15h63c34 0 62-28 62-62v0-31z" horiz-adv-x="1000" />
<glyph glyph-name="calendar-arrow-down" unicode="&#xe9ab;" d="M844 663h-63v15c0 9-7 16-15 16s-16-7-16-16v0-15h-500v15c0 9-7 16-16 16s-15-7-15-16v0-15h-63c-51 0-93-42-93-94v0-438c0-51 42-93 93-93v0h297c9 0 16 7 16 15s-7 16-16 16v0h-297c-34 0-62 28-62 62v0 375h812v-109c0-9 7-16 16-16s16 7 16 16v0 172c0 52-42 94-94 94v0z m-750-125v31c0 34 28 62 62 62v0h63v-15c0-9 7-16 15-16s16 7 16 16v0 15h500v-15c0-9 7-16 16-16s15 7 15 16v0 15h63c34 0 62-28 62-62v0-31z m754-443l-98-98v275c0 9-7 16-16 16s-15-7-15-16v0-275l-99 98c-2 3-6 5-11 5-8 0-15-7-15-16 0-4 2-8 4-11l125-125c3-3 7-4 11-4s9 1 11 4v0l125 125c3 3 5 7 5 11 0 9-7 16-16 16-4 0-8-2-11-5v0z" horiz-adv-x="1000" />
<glyph glyph-name="calendar-arrow-up" unicode="&#xe9ac;" d="M844 663h-63v15c0 9-7 16-15 16s-16-7-16-16v0-15h-500v15c0 9-7 16-16 16s-15-7-15-16v0-15h-63c-51 0-93-42-93-94v0-438c0-51 42-93 93-93v0h297c9 0 16 7 16 15s-7 16-16 16v0h-297c-34 0-62 28-62 62v0 375h812v-109c0-9 7-16 16-16s16 7 16 16v0 172c0 52-42 94-94 94v0z m-750-125v31c0 34 28 62 62 62v0h63v-15c0-9 7-16 15-16s16 7 16 16v0 15h500v-15c0-9 7-16 16-16s15 7 15 16v0 15h63c34 0 62-28 62-62v0-31z m651-255c-2 3-6 5-11 5s-8-2-11-5v0l-125-125c-2-3-4-7-4-11 0-9 7-16 15-16 5 0 9 2 11 5l99 98v-275c0-8 7-15 15-15s16 7 16 15v0 275l98-98c3-3 7-5 11-5 9 0 16 7 16 16 0 4-2 8-5 11v0z" horiz-adv-x="1000" />
<glyph glyph-name="calendar-ban" unicode="&#xe9ad;" d="M844 663h-63v15c0 9-7 16-15 16s-16-7-16-16v0-15h-500v15c0 9-7 16-16 16s-15-7-15-16v0-15h-63c-51-1-93-42-93-94v-438c0-51 42-93 93-93h297c9 0 16 7 16 15s-7 16-16 16v0h-297c-34 0-62 28-62 62v375h812v-109c0-9 7-16 16-16s16 7 16 16v0 172c-1 52-42 93-94 94h0z m-750-125v31c0 34 28 62 62 62h63v-15c0-9 7-16 15-16s16 7 16 16v0 15h500v-15c0-9 7-16 16-16s15 7 15 16v0 15h63c34 0 62-28 62-62v-31z m762-301l0 0c-32 31-74 50-121 50-95 0-172-77-172-171 0-48 19-90 50-122l0 0 0 0 0 0c31-31 74-50 121-50 95 0 172 77 172 172 0 47-19 90-50 121l0 0z m-262-121c0 77 63 140 140 140h0c34 0 64-12 88-31l0 0-197-197c-19 24-31 54-31 88v0z m140-141c-33 0-63 12-87 31l0 0 197 197c19-24 31-54 31-87v0c0-78-63-141-141-141h0z" horiz-adv-x="1000" />
<glyph glyph-name="calendar-chart" unicode="&#xe9ae;" d="M844 663h-63v15c0 9-7 16-15 16s-16-7-16-16v0-15h-500v15c0 9-7 16-16 16s-15-7-15-16v0-15h-63c-51 0-93-42-93-94v0-438c0-51 42-93 93-93v0h297c9 0 16 7 16 15s-7 16-16 16v0h-297c-34 0-62 28-62 62v0 375h812v-109c0-9 7-16 16-16s16 7 16 16v0 172c0 52-42 94-94 94v0z m-750-125v31c0 34 28 62 62 62v0h63v-15c0-9 7-16 15-16s16 7 16 16v0 15h500v-15c0-9 7-16 16-16s15 7 15 16v0 15h63c34 0 62-28 62-62v0-31z m765-344h-78v78c0 9-7 16-15 16v0h-94c-9 0-16-7-16-16v0-141h-78c-8 0-15-7-15-15v0-157c0-8 7-15 15-15v0h281c9 0 16 7 16 15v0 219c0 9-7 16-16 16v0z m-203-219h-62v125h62z m94 0h-62v281h62z m94 0h-63v188h63z" horiz-adv-x="1000" />
<glyph glyph-name="calendar-clock" unicode="&#xe9af;" d="M844 663h-63v15c0 9-7 16-15 16s-16-7-16-16v0-15h-500v15c0 9-7 16-16 16s-15-7-15-16v0-15h-63c-51 0-93-42-93-94v0-438c0-51 42-93 93-93v0h297c9 0 16 7 16 15s-7 16-16 16v0h-297c-34 0-62 28-62 62v0 375h812v-109c0-9 7-16 16-16s16 7 16 16v0 172c0 52-42 94-94 94v0z m-750-125v31c0 34 28 62 62 62v0h63v-15c0-9 7-16 15-16s16 7 16 16v0 15h500v-15c0-9 7-16 16-16s15 7 15 16v0 15h63c34 0 62-28 62-62v0-31z m640-250c-95 0-171-77-171-172s76-172 171-172c95 0 172 77 172 172v0c0 95-77 171-172 172h0z m0-313c-77 0-140 63-140 141s63 140 140 140c78 0 141-63 141-140v0c0-78-63-141-141-141h0z m16 147v87c0 9-7 16-16 16s-15-7-15-16v0-93c0 0 0 0 0 0 0-5 2-9 4-11v0l63-63c3-3 7-4 11-4 9 0 16 7 16 15 0 4-2 8-5 11v0z" horiz-adv-x="1000" />
<glyph glyph-name="calendar-edit" unicode="&#xe9b1;" d="M844 663h-63v15c0 9-7 16-15 16s-16-7-16-16v0-15h-500v15c0 9-7 16-16 16s-15-7-15-16v0-15h-63c-51 0-93-42-93-94v0-438c0-51 42-93 93-93v0h297c9 0 16 7 16 15s-7 16-16 16v0h-297c-34 0-62 28-62 62v0 375h812v-109c0-9 7-16 16-16s16 7 16 16v0 172c0 52-42 94-94 94v0z m62-125h-812v31c0 34 28 62 62 62v0h63v-15c0-9 7-16 15-16s16 7 16 16v0 15h500v-15c0-9 7-16 16-16s15 7 15 16v0 15h63c34 0 62-28 62-62v0z m-60-250c0 0 0 0 0 0-16 0-31-7-42-18l0 0-203-203c-3-3-6-8-7-12l0 0-31-91c0-1 0-3 0-5 0-8 7-15 15-15h0c0 0 0 0 0 0 2 0 4 0 5 1l0 0 90 30c5 1 9 4 13 7l203 203c11 11 17 26 17 43 0 0 0 0 0 0v0 0c0 33-27 60-60 60 0 0 0 0 0 0h0z m29-60c0 0 0 0 0 0 0-8-3-15-8-20l-203-204-61-20 20 61 203 203c5 5 13 8 20 8 16 0 29-12 29-28v0z" horiz-adv-x="1000" />
<glyph glyph-name="calendar-heart" unicode="&#xe9b2;" d="M844 663h-63v15c0 9-7 16-15 16s-16-7-16-16v0-15h-500v15c0 9-7 16-16 16s-15-7-15-16v0-15h-63c-51 0-93-42-93-94v0-438c0-51 42-93 93-93v0h297c9 0 16 7 16 15s-7 16-16 16v0h-297c-34 0-62 28-62 62v0 375h812v-109c0-9 7-16 16-16s16 7 16 16v0 172c0 52-42 94-94 94v0z m-750-125v31c0 34 28 62 62 62v0h63v-15c0-9 7-16 15-16s16 7 16 16v0 15h500v-15c0-9 7-16 16-16s15 7 15 16v0 15h63c34 0 62-28 62-62v0-31z m657-282l-17-17-16 17c-20 19-47 30-77 30s-58-11-78-31l0 0c-19-19-32-47-32-77s13-57 32-77l160-160c3-3 7-5 11-5s9 2 11 5v0l161 160c19 19 32 47 32 77s-13 58-32 77v0c-21 20-48 31-78 31-30 0-57-11-77-31l0 0z m132-133l-149-149-149 149c-14 14-22 34-22 55 0 43 35 78 78 78 21 0 41-8 55-23v0l27-27c3-3 7-5 11-5s9 2 11 5v0l28 27c14 14 34 23 55 23s41-9 55-23l0 0c15-14 23-33 23-55s-8-41-23-55v0z" horiz-adv-x="1000" />
<glyph glyph-name="calendar-lock" unicode="&#xe9b3;" d="M844 663h-63v15c0 9-7 16-15 16s-16-7-16-16v0-15h-500v15c0 9-7 16-16 16s-15-7-15-16v0-15h-63c-51 0-93-42-93-94v0-438c0-51 42-93 93-93v0h297c9 0 16 7 16 15s-7 16-16 16v0h-297c-34 0-62 28-62 62v0 375h812v-109c0-9 7-16 16-16s16 7 16 16v0 172c0 52-42 94-94 94v0z m-750-125v31c0 34 28 62 62 62v0h63v-15c0-9 7-16 15-16s16 7 16 16v0 15h500v-15c0-9 7-16 16-16s15 7 15 16v0 15h63c34 0 62-28 62-62v0-31z m781-407h-31v63c0 52-42 94-94 94s-94-42-94-94v0-63h-31c-17 0-31-14-31-31v0-156c0-18 14-32 31-32v0h250c17 0 31 14 31 32v0 156c0 17-14 31-31 31v0z m-187 63c0 34 28 62 62 62s63-28 63-62v0-63h-125z m187-94v-156h-250v156z" horiz-adv-x="1000" />
<glyph glyph-name="calendar-pointer" unicode="&#xe9b5;" d="M844 663h-63v15c0 9-7 16-15 16s-16-7-16-16v0-15h-500v15c0 9-7 16-16 16s-15-7-15-16v0-15h-63c-51 0-93-42-93-94v0-438c0-51 42-93 93-93v0h297c9 0 16 7 16 15s-7 16-16 16v0h-297c-34 0-62 28-62 62v0 375h812v-109c0-9 7-16 16-16s16 7 16 16v0 172c0 52-42 94-94 94v0z m-750-125v31c0 34 28 62 62 62v0h63v-15c0-9 7-16 15-16s16 7 16 16v0 15h500v-15c0-9 7-16 16-16s15 7 15 16v0 15h63c34 0 62-28 62-62v0-31z m557-254c-3 2-6 4-10 4-9 0-16-7-16-16 0 0 0 0 0 0v0-234c0-9 7-16 16-16 4 0 8 2 11 5v0l59 59 68-135c3-7 10-11 18-11v0c0 0 0 0 0 0 3 0 6 1 8 2l0 0c7 3 11 10 11 17 0 4-1 7-2 9l0 0-66 132h80c9 0 16 7 16 16 0 4-2 9-6 12l0 0z" horiz-adv-x="1000" />
<glyph glyph-name="calendar-search" unicode="&#xe9b6;" d="M844 663h-63v15c0 9-7 16-15 16s-16-7-16-16v0-15h-500v15c0 9-7 16-16 16s-15-7-15-16v0-15h-63c-51-1-93-42-93-94v-438c0-51 42-93 93-93h297c9 0 16 7 16 15s-7 16-16 16v0h-297c-34 0-62 28-62 62v375h812v-109c0-9 7-16 16-16s16 7 16 16v0 172c-1 52-42 93-94 94h0z m-750-125v31c0 34 28 62 62 62h63v-15c0-9 7-16 15-16s16 7 16 16v0 15h500v-15c0-9 7-16 16-16s15 7 15 16v0 15h63c34 0 62-28 62-62v-31z m692-452c16 21 26 48 27 77v0c0 69-56 125-125 125s-125-56-125-125c0-69 56-125 125-125v0c28 0 55 10 76 26l0 0 116-116c2-2 6-4 10-4 9 0 16 7 16 16 0 4-2 8-4 10l0 0z m-98-17c-52 0-94 42-94 94s42 93 94 93c51 0 93-42 93-93v0c0-52-42-94-93-94h0z" horiz-adv-x="1000" />
<glyph glyph-name="calendar-user" unicode="&#xe9b7;" d="M453 38h-297c-51 0-93 42-93 93v0 438c0 52 42 94 93 94v0h688c52 0 94-42 94-94v0-172c0-9-7-16-16-16s-16 7-16 16v0 172c0 34-28 62-62 62v0h-688c-34 0-62-28-62-62v0-438c0-34 28-62 62-62v0h297c9 0 16-7 16-16s-7-15-16-15v0z m-375 500h844v-32h-844v32z m156 62c-8 0-15 7-15 16v0 62c0 9 7 16 15 16s16-7 16-16v0-62c0-9-7-16-16-16v0z m532 0c-9 0-16 7-16 16v0 62c0 9 7 16 16 16s15-7 15-16v0-62c0-9-7-16-15-16v0z m113-520l-54 36c12 18 19 39 19 62 0 61-49 110-110 110s-109-49-109-110c0-23 7-44 19-62l0 0-54-36c-17-11-27-30-27-52 0 0 0 0 0 0v0-69c0-8 7-15 15-15s16 7 16 15v0 69c0 0 0 0 0 0 0 11 5 20 13 26l1 0 58 39c18-15 42-24 68-24s50 9 69 25l0-1 58-39c9-6 14-15 14-26 0 0 0 0 0 0v0-69c0-8 7-15 16-15s15 7 15 15v0 69c0 0 0 0 0 0 0 22-11 41-27 52l0 0z m-223 98c0 43 35 78 78 78s79-35 79-78v0 0c0-43-35-78-79-78s-78 35-78 78v0z" horiz-adv-x="1000" />
<glyph glyph-name="calendar-wrench" unicode="&#xe9b8;" d="M844 663h-63v15c0 9-7 16-15 16s-16-7-16-16v0-15h-500v15c0 9-7 16-16 16s-15-7-15-16v0-15h-63c-51 0-93-42-93-94v0-438c0-51 42-93 93-93v0h297c9 0 16 7 16 15s-7 16-16 16v0h-297c-34 0-62 28-62 62v0 375h812v-109c0-9 7-16 16-16s16 7 16 16v0 172c0 52-42 94-94 94v0z m62-125h-812v31c0 34 28 62 62 62v0h63v-15c0-9 7-16 15-16s16 7 16 16v0 15h500v-15c0-9 7-16 16-16s15 7 15 16v0 15h63c34 0 62-28 62-62v0z m15-300c-3 1-7 2-11 2-7 0-14-3-19-8v0l-50-50-40 40 49 50c5 5 9 12 9 19 0 16-13 28-28 28 0 0 0 0 0 0h-34c-60 0-109-49-109-110v0-36c0 0 0 0 0 0 0-13-6-25-14-33l0 0-125-125c-10-11-16-25-16-41 0-33 27-60 60-60 16 0 30 6 41 16l0 0 125 125c8 9 20 14 33 14h36c61 0 110 49 110 109 0 0 0 0 0 0v0 35c0 0 0 0 0 0 0 11-7 21-17 25l0 0z m-15-60c0-43-35-78-78-78v0h-36c-22 0-41-9-56-23l-125-125c-5-5-12-8-19-8-16 0-29 13-29 29 0 7 3 14 8 19l0 0 125 126c14 14 23 33 23 55 0 0 0 0 0 0v0 36c0 44 35 79 78 79v0h25l-43-43c-6-6-9-14-9-23s3-16 9-22v0l40-40c6-6 14-9 22-9 0 0 0 0 0 0h0c0 0 0 0 0 0 9 0 17 3 22 9l43 43z" horiz-adv-x="1000" />
<glyph glyph-name="area-chart" unicode="&#xf1fe;" d="M928 630c-2 1-4 1-6 1-4 0-8-1-11-4v0l-333-333-239 239c-3 3-7 5-11 5s-8-2-11-5v0l-223-223v399c0 9-7 16-16 16s-15-7-15-16v0-656c0-8 7-15 15-15v0h844c9 0 16 7 16 15v0 563c0 6-4 12-10 14l0 0z m-22-561h-812v196l234 235 239-239c3-3 7-5 11-5s8 2 11 5v0l317 317z" horiz-adv-x="1000" />
<glyph glyph-name="bar-chart" unicode="&#xf080;" d="M922 69h-78v203c0 9-7 16-16 16v0h-156c-9 0-16-7-16-16v0-203h-62v578c0 9-7 16-16 16v0h-156c-9 0-16-7-16-16v0-578h-62v390c0 9-7 16-16 16v0h-156c-9 0-16-7-16-16v0-390h-78c-8 0-15-7-15-16s7-15 15-15v0h844c9 0 16 7 16 15s-7 16-16 16v0z m-609 0h-125v375h125z m250 0h-125v562h125z m250 0h-125v187h125z" horiz-adv-x="1000" />
<glyph glyph-name="bar-chart-horizontal" unicode="&#xe905;" d="M922 69h-828v94h453c9 0 16 7 16 15v0 188c0 8-7 15-16 15v0h-453v63h765c9 0 16 7 16 15v0 188c0 9-7 16-16 16v0h-765v46c0 9-7 16-16 16s-15-7-15-16v0-656c0-8 7-15 15-15v0h844c9 0 16 7 16 15s-7 16-16 16v0z m-828 562h750v-156h-750z m0-281h437v-156h-437z" horiz-adv-x="1000" />
<glyph glyph-name="box-plot-chart" unicode="&#xeaf5;" d="M922 69h-828v640c0 9-7 16-16 16s-15-7-15-16v0-656c0-8 7-15 15-15v0h844c9 0 16 7 16 15s-7 16-16 16v0z m-719 219h110v-125h-47c-9 0-16-7-16-16s7-16 16-16v0h125c8 0 15 7 15 16s-7 16-15 16v0h-47v125h109c9 0 16 7 16 15v0 250c0 9-7 16-16 16v0h-109v125h47c8 0 15 7 15 15s-7 16-15 16v0h-125c-9 0-16-7-16-16s7-15 16-15v0h47v-125h-110c-8 0-15-7-15-16v0-250c0-8 7-15 15-15v0z m16 31v94h219v-94z m219 219v-94h-219v94z m140-250h110v-125h-47c-9 0-16-7-16-16s7-16 16-16v0h125c8 0 15 7 15 16s-7 16-15 16v0h-47v125h109c9 0 16 7 16 15v0 250c0 9-7 16-16 16v0h-109v125h47c8 0 15 7 15 15s-7 16-15 16v0h-125c-9 0-16-7-16-16s7-15 16-15v0h47v-125h-110c-8 0-15-7-15-16v0-250c0-8 7-15 15-15v0z m16 31v94h219v-94z m219 219v-94h-219v94z" horiz-adv-x="1000" />
<glyph glyph-name="bubble-chart" unicode="&#xe906;" d="M922 69h-828v640c0 9-7 16-16 16s-15-7-15-16v0-656c0-8 7-15 15-15v0h844c9 0 16 7 16 15s-7 16-16 16v0z m-438 62c61 0 110 49 110 110s-49 109-110 109c-60 0-109-49-109-109v0c0-61 49-110 109-110v0z m0 188c44 0 79-35 79-78s-35-78-79-78c-43 0-78 35-78 78v0c0 43 35 78 78 78v0z m-234-31c52 0 94 42 94 93s-42 94-94 94c-52 0-94-42-94-94v0c0-51 42-93 94-93v0z m0 156c35 0 63-28 63-63s-28-62-63-62c-34 0-62 28-62 62v0c0 35 28 63 62 63v0z m531-188c52 0 94 42 94 94s-42 94-94 94c-51 0-93-42-93-94v0c0-52 42-94 93-94v0z m0 157c35 0 63-28 63-63s-28-62-63-62c-34 0-62 28-62 62v0c0 35 28 63 62 63v0z m-250 0c69 0 125 56 125 125s-56 125-125 125c-69 0-125-56-125-125v0c0-69 56-125 125-125v0z m0 218c52 0 94-42 94-93s-42-94-94-94c-51 0-93 42-93 94v0c0 51 42 93 93 93v0z" horiz-adv-x="1000" />
<glyph glyph-name="combo-chart" unicode="&#xe907;" d="M922 69h-47v453c0 9-7 16-16 16v0h-187c-9 0-16-7-16-16v0-453h-31v328c0 9-7 16-16 16v0h-187c-9 0-16-7-16-16v0-328h-31v203c0 9-7 16-16 16v0h-187c-9 0-16-7-16-16v0-203h-62v635c0 9-7 16-16 16s-15-7-15-16v0-651c0-8 7-15 15-15v0h844c9 0 16 7 16 15s-7 16-16 16v0z m-578 0h-156v187h156z m250 0h-156v312h156z m250 0h-156v437h156z m-672 344c0 0 0 0 0 0 2 0 4 0 6 1l0 0 687 281c6 2 10 8 10 14 0 9-7 16-16 16-2 0-4 0-6-1l1 0-688-281c-6-3-10-8-10-15 0-8 7-15 16-15 0 0 0 0 0 0v0z" horiz-adv-x="1000" />
<glyph glyph-name="dial-gauge-chart" unicode="&#xe908;" d="M484 663h32c8 0 15 7 15 15s-7 16-15 16v0h-32c-8 0-15-7-15-16s7-15 15-15v0z m-312-282c-9 0-16-7-16-15v0-32c0-8 7-15 16-15s16 7 16 15v0 32c0 8-7 15-16 15v0z m656 0c-8 0-15-7-15-15v0-32c0-8 7-15 15-15s16 7 16 15v0 32c0 8-7 15-16 15v0z m-560 223l-22-22c-3-3-5-7-5-11 0-9 7-16 16-16 0 0 0 0 0 0h0c4 0 8 2 11 5v0l22 22c3 3 5 7 5 11 0 9-7 16-16 16-4 0-8-2-11-5l0 0z m464-464l-22-22c-3-3-4-7-4-11 0-8 7-15 15-15 4 0 8 1 11 4l22 22c3 3 5 7 5 11 0 8-7 15-16 15-4 0-8-1-11-4l0 0z m-464 0c-3 3-7 5-11 5-9 0-16-7-16-16 0-4 2-8 5-11l22-22c3-3 7-4 11-4 8 0 15 7 15 15 0 4-1 8-4 11l0 0z m232 648c-242-1-437-197-437-439 0-156 81-293 204-371l2-1c2-1 5-2 8-2 0 0 0 0 0 0h446c0 0 0 0 0 0 3 0 6 1 8 2l0 0c125 79 207 216 207 372 0 242-196 438-438 439h0z m218-782h-436c-114 74-188 200-188 343 0 224 182 406 406 406s406-182 406-406c0-143-74-269-186-342l-2-1z m-218 266c0 0 0 0 0 0 43 0 78 35 78 78 0 17-6 34-16 47l0 0c4 0 8 2 10 4l163 163c3 3 5 7 5 11 0 9-7 16-16 16-4 0-8-2-11-5l-163-163c-3-2-4-6-4-10l0 0c-13 10-29 15-46 15h0c-43 0-78-35-78-78s35-78 78-78v0z m0 125c26 0 47-21 47-47s-21-47-47-47c-26 0-47 21-47 47v0c0 26 21 47 47 47v0z m47-234h-94c-26 0-47-21-47-47s21-47 47-47v0h94c26 0 47 21 47 47s-21 47-47 47v0z m0-63h-94c-8 0-15 7-15 16s7 15 15 15v0h94c9 0 16-7 16-15s-7-16-16-16v0z" horiz-adv-x="1000" />
<glyph glyph-name="donut-chart" unicode="&#xe909;" d="M828 319h-187c-9 0-16-7-16-16v0c0-95-77-172-172-172s-172 77-172 172c0 95 77 172 172 172v0c9 0 16 7 16 16v0 187c0 9-7 16-16 16v0c-216 0-390-175-390-391s174-391 390-391c216 0 391 175 391 391v0c0 9-7 16-16 16v0z m-734-16c0 193 152 350 343 359l1 0v-156c-106-9-188-96-188-203 0-50 19-97 49-132l0 0-110-110c-59 63-95 148-95 242v0z m117-264l110 110c35-30 82-49 132-49s97 19 132 49l0 0 111-110c-64-59-149-95-243-95s-179 36-243 95l1 0z m507 22l-111 110c27 32 45 72 49 116l0 1h156c-4-88-39-168-94-228l0 1z m-171 727c-9 0-16-7-16-16v0-188c0-8 7-15 16-15v0c95 0 172-77 172-172v0c0-9 7-16 15-16v0h188c9 0 16 7 16 16v0c-1 216-175 390-391 391h0z m202-375c-8 99-87 178-186 186l0 0v157c186-9 334-157 343-343l0 0z" horiz-adv-x="1000" />
<glyph glyph-name="funnel-chart" unicode="&#xe90a;" d="M922 69h-828v640c0 9-7 16-16 16s-15-7-15-16v0-656c0-8 7-15 15-15v0h844c9 0 16 7 16 15s-7 16-16 16v0z m-573 355c44-59 75-130 86-207l1-3 9-69c1-8 8-14 16-14h109c0 0 0 0 0 0 8 0 15 6 16 14l0 0 9 69c12 80 43 151 88 211l-1-1 158 214c2 2 3 5 3 9 0 9-7 16-15 16v0h-625c-8 0-15-7-15-16 0-4 1-7 3-9l0 0z m215-205l-8-56h-82l-7 56c-4 26-10 49-17 72l1-3h128c-6-20-11-43-14-67l-1-2z m26 100h-149c-18 47-40 88-68 125l1-1-1 1h285l-1-1c-27-36-49-77-66-121l-1-3z m207 312l-116-156h-331l-116 156z" horiz-adv-x="1000" />
<glyph glyph-name="gantt-chart" unicode="&#xe90b;" d="M172 569h344c8 0 15 7 15 15v0 125c0 9-7 16-15 16v0h-344c-9 0-16-7-16-16v0-125c0-8 7-15 16-15v0z m16 125h312v-94h-312z m187-203v-125c0-9 7-16 16-16v0h281c9 0 16 7 16 16v0 125c0 8-7 15-16 15v0h-281c-9 0-16-7-16-15v0z m31-16h250v-94h-250z m94-203v-125c0-9 7-16 16-16v0h343c9 0 16 7 16 16v0 125c0 9-7 16-16 16v0h-343c-9 0-16-7-16-16v0z m31-16h313v-93h-313z m391-187h-828v640c0 9-7 16-16 16s-15-7-15-16v0-656c0-8 7-15 15-15v0h844c9 0 16 7 16 15s-7 16-16 16v0z" horiz-adv-x="1000" />
<glyph glyph-name="line-area-chart" unicode="&#xe90c;" d="M928 669c-2 1-4 1-6 1-4 0-8-1-11-4l0 0-160-155-158 102c-2 2-5 3-9 3-4 0-8-2-10-5l0 0-160-155-159 102c-2 2-5 3-8 3-5 0-9-2-12-5l0 0-141-161v314c0 9-7 16-16 16s-15-7-15-16v0-656c0-8 7-15 15-15v0h844c9 0 16 7 16 15v0 602c0 6-4 12-10 14l0 0z m-22-600h-812v60l156 177 157-102c3-1 6-2 9-2 4 0 8 1 11 4l0 0 159 156 159-103c2-2 5-3 8-3 4 0 8 2 11 5l0 0 142 138z m0 374l-155-151-158 102c-2 2-5 3-9 3-4 0-8-2-10-5l0 0-160-155-159 103c-2 1-5 2-8 2-5 0-9-2-12-5l0 0-141-160v171l156 177 157-102c3-2 6-2 9-2 4 0 8 1 11 4l0 0 159 155 159-102c2-2 5-3 8-3 4 0 8 2 11 5l0 0 142 138z" horiz-adv-x="1000" />
<glyph glyph-name="line-chart" unicode="&#xf201;" d="M922 444c9 0 16 7 16 15v0 188c0 9-7 16-16 16v0h-188c-8 0-15-7-15-16s7-16 15-16v0h150l-306-306-208 208c-2 3-6 5-10 5 0 0 0 0-1 0l0 0c-4 0-8-2-11-5l0 0-254-258v434c0 9-7 16-16 16s-15-7-15-16v0-656c0-8 7-15 15-15v0h844c9 0 16 7 16 15s-7 16-16 16v0h-828v161l265 270 208-208c3-3 7-4 11-4s8 1 11 4v0l317 317v-150c0-8 7-15 16-15v0z" horiz-adv-x="1000" />
<glyph glyph-name="pie-chart" unicode="&#xf200;" d="M828 321h-359v359c0 9-7 16-16 16v0c-216 0-390-175-390-391s174-391 390-391c216 0 391 175 391 391v0c0 9-7 16-16 16v0z m-390 343v-353l-249-248c-59 63-95 149-95 243 0 192 152 350 343 358l1 0z m-227-623l242 242 243-243c-64-58-149-94-243-94s-179 36-243 95l1-1z m507 22l-227 226h321c-4-88-39-167-94-227l0 1z m-171 723c-9 0-16-7-16-16v0-375c0-8 7-15 16-15v0h375c9 0 16 7 16 15v0c-1 216-175 391-391 391h0z m16-375v343c186-8 334-157 343-342l0-1z" horiz-adv-x="1000" />
<glyph glyph-name="pie-chart-0" unicode="&#xeaa7;" d="M500 788c-242 0-437-196-437-438s195-438 437-438c242 0 438 196 438 438v0c-1 242-196 437-438 438h0z m0-844c-224 0-406 182-406 406s182 406 406 406c224 0 406-182 406-406v0c0-224-182-406-406-406h0z" horiz-adv-x="1000" />
<glyph glyph-name="pie-chart-10" unicode="&#xeaa9;" d="M500 788c-242 0-437-196-437-438s195-438 437-438c242 0 438 196 438 438v0c-1 242-196 437-438 438h0z m0-844c-224 0-406 182-406 406s182 406 406 406v0-406l241 326c101-75 165-193 165-326 0-225-181-406-405-406-1 0-1 0-1 0h0z" horiz-adv-x="1000" />
<glyph glyph-name="pie-chart-100" unicode="&#xeabb;" d="M938 350c0-242-196-438-438-438s-437 196-437 438c0 242 195 438 437 438s438-196 438-438z" horiz-adv-x="1000" />
<glyph glyph-name="pie-chart-15" unicode="&#xeaaa;" d="M500 788c-242 0-437-196-437-438s195-438 437-438c242 0 438 196 438 438v0c-1 242-196 437-438 438h0z m0-844c-224 0-406 182-406 406s182 406 406 406v0-406l328 238c49-66 78-149 78-239 0-224-181-405-405-405-1 0-1 0-1 0h0z" horiz-adv-x="1000" />
<glyph glyph-name="pie-chart-20" unicode="&#xeaab;" d="M500 788c-242 0-437-196-437-438s195-438 437-438c242 0 438 196 438 438v0c-1 242-196 437-438 438h0z m0-844c0 0 0 0 0 0-225 0-407 182-407 406 0 224 182 406 406 406h0v-406l387 126c13-38 20-81 20-126 0-225-181-406-405-406-1 0-1 0-1 0h0z" horiz-adv-x="1000" />
<glyph glyph-name="pie-chart-25" unicode="&#xeaac;" d="M500 788c-242 0-437-196-437-438s195-438 437-438c242 0 438 196 438 438v0c-1 242-196 437-438 438h0z m0-844c-224 0-406 182-406 406s182 406 406 406v0-406h406c0-224-182-406-406-406h0z" horiz-adv-x="1000" />
<glyph glyph-name="pie-chart-30" unicode="&#xeaad;" d="M500 788c-242 0-437-196-437-438s195-438 437-438c242 0 438 196 438 438v0c-1 242-196 437-438 438h0z m0-844c-224 0-406 182-406 406s182 406 406 406v0-406l386-125c-54-165-207-281-386-281h0z" horiz-adv-x="1000" />
<glyph glyph-name="pie-chart-35" unicode="&#xeaae;" d="M500 788c-242 0-437-196-437-438s195-438 437-438c242 0 438 196 438 438v0c-1 242-196 437-438 438h0z m0-844c-224 0-406 182-406 406s182 406 406 406v0-406l328-238c-74-102-193-168-328-168h0z" horiz-adv-x="1000" />
<glyph glyph-name="pie-chart-40" unicode="&#xeaaf;" d="M500 788c-242 0-437-196-437-438s195-438 437-438c242 0 438 196 438 438v0c-1 242-196 437-438 438h0z m-406-438c0 224 182 406 406 406h0v-406l238-328c-66-49-149-78-239-78-224 0-405 181-405 405 0 1 0 1 0 1v0z" horiz-adv-x="1000" />
<glyph glyph-name="pie-chart-45" unicode="&#xeab0;" d="M500 788c-242 0-437-196-437-438s195-438 437-438c242 0 438 196 438 438v0c-1 242-196 437-438 438h0z m-406-438c0 224 181 406 405 406h0l0-406 126-387c-38-12-81-19-125-19-224 0-406 182-406 406 0 0 0 0 0 0v0z" horiz-adv-x="1000" />
<glyph glyph-name="pie-chart-5" unicode="&#xeaa8;" d="M500 788c-242 0-437-196-437-438s195-438 437-438c242 0 438 196 438 438v0c-1 242-196 437-438 438h0z m0-844c-224 0-406 182-406 406s182 406 406 406v0-406l126 386c164-55 280-207 280-386 0-224-182-406-406-406h0z" horiz-adv-x="1000" />
<glyph glyph-name="pie-chart-50" unicode="&#xeab1;" d="M500 788c-242 0-437-196-437-438s195-438 437-438 438 196 438 438v0c-1 242-196 437-438 438z m-406-438c0 224 182 406 406 406v-812c-224 0-406 182-406 406z" horiz-adv-x="1000" />
<glyph glyph-name="pie-chart-55" unicode="&#xeab2;" d="M500 788c-242 0-437-196-437-438s195-438 437-438 438 196 438 438c-1 242-196 437-438 438z m-406-437c0 224 181 405 405 405h1l0-405-125-386c-167 55-281 210-281 386z" horiz-adv-x="1000" />
<glyph glyph-name="pie-chart-60" unicode="&#xeab3;" d="M831 64c158 183 138 459-45 617s-459 138-617-45-138-459 45-617c176-152 441-140 602 29 5 5 10 10 15 16z m-737 286c0 224 182 406 406 406v-406l-238-328c-106 76-168 198-168 328z" horiz-adv-x="1000" />
<glyph glyph-name="pie-chart-65" unicode="&#xeab4;" d="M500 788c-242 0-437-196-437-438s195-438 437-438c242 0 438 196 438 438v0c-1 242-196 437-438 438h0z m0-32v-406l-328-238c-49 66-78 149-78 239 0 224 181 405 405 405 1 0 1 0 1 0h0z" horiz-adv-x="1000" />
<glyph glyph-name="pie-chart-70" unicode="&#xeab5;" d="M500 788c-242 0-437-196-437-438s195-438 437-438c242 0 438 196 438 438v0c-1 242-196 437-438 438h0z m0-32v-406l-386-125c-13 37-20 81-20 126 0 224 181 405 406 405 0 0 0 0 0 0h0z" horiz-adv-x="1000" />
<glyph glyph-name="pie-chart-75" unicode="&#xeab6;" d="M500 788c-242 0-437-196-437-438s195-438 437-438c242 0 438 196 438 438v0c-1 242-196 437-438 438h0z m0-32v-406h-406c0 224 182 406 406 406h0z" horiz-adv-x="1000" />
<glyph glyph-name="pie-chart-80" unicode="&#xeab7;" d="M501 788c-242 0-438-196-438-438s196-438 438-438c241 0 437 196 437 438v0c0 242-196 437-437 438h0z m0-32h1v-406l-387 126c54 164 206 280 386 280h0z" horiz-adv-x="1000" />
<glyph glyph-name="pie-chart-85" unicode="&#xeab8;" d="M500 788c-242 0-437-196-437-438s195-438 437-438c242 0 438 196 438 438v0c-1 242-196 437-438 438h0z m0-32v-406l-328 238c74 103 194 168 328 168h0z" horiz-adv-x="1000" />
<glyph glyph-name="pie-chart-90" unicode="&#xeab9;" d="M500 788c-242 0-437-196-437-438s195-438 437-438c242 0 438 196 438 438v0c-1 242-196 437-438 438h0z m0-438l-238 328c65 49 148 78 238 78h0z" horiz-adv-x="1000" />
<glyph glyph-name="pie-chart-95" unicode="&#xeaba;" d="M500 788c-242 0-437-196-437-438s195-438 437-438c242 0 438 196 438 438v0c-1 242-196 437-438 438h0z m-126-52c37 13 80 20 125 20h0v-406z" horiz-adv-x="1000" />
<glyph glyph-name="polar-chart" unicode="&#xe911;" d="M922 350h-141c-9 226-194 406-422 406h0c-8 0-15-7-15-15v0-110c-157-9-282-138-282-297 0-164 133-296 297-296 77 0 147 29 200 77l0 0 187-186c3-2 7-4 11-4s8 2 11 4l0 0c105 103 170 246 170 404 0 1 0 1 0 1v0c0 9-7 16-16 16v0z m-172 0h-375v364c0 1 1 2 1 3-1 1-1 1-1 2l0 0v6c203-9 366-172 375-374l0-1z m-391-281c-146 0-265 119-265 265 0 141 110 257 249 265l1 0v-265c0 0 0 0 0-1 0-3 2-7 4-10l0 0 189-186c-47-42-109-68-177-68 0 0 0 0-1 0h0z m398-106l-360 356h509c-4-139-60-264-149-356l0 0z" horiz-adv-x="1000" />
<glyph glyph-name="pyramid-chart" unicode="&#xeaf6;" d="M936 62l-422 656c-3 4-8 7-14 7s-11-3-14-7l0 0-421-656c-2-3-3-6-3-9 0-9 7-16 16-16h844c9 0 16 7 16 16 0 3-1 6-2 9l0 0z m-436 617l111-173h-222z m-131-204h262l121-187h-504z m-261-406l120 187h544l120-187z" horiz-adv-x="1000" />
<glyph glyph-name="radar-chart" unicode="&#xe912;" d="M844 223v254c36 7 63 38 63 76 0 43-35 78-78 78-25 0-48-11-62-30l0 0-176 88c2 6 3 13 3 20l0 0c0 44-35 79-78 79s-78-35-78-79v0c0-6 0-12 2-18l0 1-183-83c-14 14-33 23-55 23-43 0-78-35-78-79s35-78 78-78c19 0 36 7 49 17l0 0 190-104c-2-6-3-14-3-22v0c0-38 26-69 62-77l0 0v-222c-36-7-62-39-62-76 0-44 35-79 78-79s78 35 78 79v0c0 7-1 14-3 20l0 0 176 88c14-18 37-30 61-30 43 0 78 35 78 78 0 38-26 69-62 76l0 0z m-16 377c26 0 47-21 47-47s-21-47-47-47c-26 0-47 21-47 47v0c0 26 21 47 47 47v0z m-312 156c26 0 47-21 47-47s-21-46-47-46c-26 0-47 21-47 46v0c0 26 21 47 47 47v0z m-360-203c0 26 21 47 47 47s47-21 47-47c0-26-21-47-47-47v0c-26 0-47 21-47 47v0z m313-187c0 26 21 47 47 47s47-21 47-47c0-26-21-47-47-47v0c-26 0-47 21-47 47v0z m47-422c-26 0-47 21-47 47s21 47 47 47c26 0 47-21 47-47v0c0-26-21-47-47-47v0z m61 95c-11 14-27 24-45 28l-1 0v222c37 7 63 39 63 77 0 43-35 78-78 78-24 0-45-11-60-28l0 0-184 100c6 11 9 24 9 37 0 11-2 21-6 30l0 0 178 81c14-20 37-33 63-33 24 0 47 12 61 30l0 0 176-88c-2-6-3-13-3-20l0 0c0-37 27-69 62-76l1 0v-254c-36-7-63-38-63-76 0 0 0 0 0 0v0c0-7 1-14 3-21l0 1z m251 61c-26 0-47 21-47 47s21 47 47 47c26 0 47-21 47-47v0c0-26-21-47-47-47v0z" horiz-adv-x="1000" />
<glyph glyph-name="range-chart-area" unicode="&#xe913;" d="M298 316l273-151c2-2 4-2 7-2 3 0 5 0 7 1l0 0 180 90 149-89c2-2 5-2 8-2 9 0 16 7 16 15 0 0 0 0 0 0v0 219c0 0 0 0 0 0 0 6-3 11-8 13l0 0-156 94c-3 1-5 2-8 2-4 0-7-1-10-3l0 0-113-84-115 144c-3 3-7 5-11 6l0 0c-1 0-1 0-1 0-4 0-8-2-11-5l-82-81-114 142c-3 4-7 6-12 6h0c-5 0-9-2-12-5l0 0-191-219v302c0 9-7 16-16 16s-15-7-15-16v0-656c0-8 7-15 15-15v0h844c9 0 16 7 16 15s-7 16-16 16v0h-828v101z m-2 275l114-141c3-4 7-6 12-6 4 0 8 2 11 4v0l81 82 114-143c3-4 8-6 13-6 3 0 6 1 9 3l0 0 117 88 139-84v-182l-132 79c-3 2-5 3-8 3-3 0-5-1-7-2l0 0-180-90-274 152c-3 1-5 2-8 2-3 0-7-1-9-3l0 0-194-138v151z" horiz-adv-x="1000" />
<glyph glyph-name="range-chart-bar" unicode="&#xe914;" d="M922 38h-844c-8 0-15 7-15 15v0 688c0 8 7 15 15 15s16-7 16-15v0-672h828c9 0 16-7 16-16s-7-15-16-15v0z m0 281h-188c-8 0-15 7-15 15v0 344c0 9 7 16 15 16v0h188c9 0 16-7 16-16v0-344c0-8-7-15-16-15v0z m-172 31h156v313h-156z m-391-125h-187c-9 0-16 7-16 16v0 343c0 9 7 16 16 16v0h187c9 0 16-7 16-16v0-343c0-9-7-16-16-16v0z m-171 31h156v313h-156z m453-125h-188c-8 0-15 7-15 16v0 344c0 8 7 15 15 15v0h188c8 0 15-7 15-15v0-344c0-9-7-16-15-16v0z m-172 32h156v312h-156z" horiz-adv-x="1000" />
<glyph glyph-name="scatter-chart" unicode="&#xe915;" d="M922 69h-828v640c0 9-7 16-16 16s-15-7-15-16v0-656c0-8 7-15 15-15v0h844c9 0 16 7 16 15s-7 16-16 16v0z m-78 219c52 0 94 42 94 93s-42 94-94 94c-52 0-94-42-94-94v0c0-51 42-93 94-93v0z m0 156c34 0 62-28 62-63s-28-62-62-62c-35 0-63 28-63 62v0c0 35 28 63 63 63v0z m-188 94c52 0 94 42 94 93s-42 94-94 94c-51 0-93-42-93-94v0c0-51 42-93 93-93v0z m0 156c35 0 63-28 63-63s-28-62-63-62c-34 0-62 28-62 62v0c0 35 28 63 62 63v0z m-250-313c52 0 94 42 94 94s-42 94-94 94c-51 0-93-42-93-94v0c0-52 42-94 93-94v0z m0 157c35 0 63-28 63-63s-28-62-63-62c-34 0-62 28-62 62v0c0 35 28 63 62 63v0z m-156-407c52 0 94 42 94 94s-42 94-94 94c-52 0-94-42-94-94v0c0-52 42-94 94-94v0z m0 157c35 0 63-28 63-63s-28-62-63-62c-34 0-62 28-62 62v0c0 35 28 63 62 63v0z" horiz-adv-x="1000" />
<glyph glyph-name="stock-chart" unicode="&#xe916;" d="M922 69h-828v640c0 9-7 16-16 16s-15-7-15-16v0-656c0-8 7-15 15-15v0h844c9 0 16 7 16 15s-7 16-16 16v0z m-703 156h31v-78c0-9 7-16 16-16s15 7 15 16v0 78h32c17 0 31 14 31 31v0 219c0 17-14 31-31 31v0h-32v78c0 9-7 16-15 16s-16-7-16-16v0-78h-31c-17 0-31-14-31-31v0-219c0-17 14-31 31-31v0z m0 250h94v-219h-94z m500-250h31v-78c0-9 7-16 16-16s15 7 15 16v0 78h32c17 0 31 14 31 31v0 219c0 17-14 31-31 31v0h-32v78c0 9-7 16-15 16s-16-7-16-16v0-78h-31c-17 0-31-14-31-31v0-219c0-17 14-31 31-31v0z m0 250h94v-219h-94z m-250-125h31v-78c0-9 7-16 16-16s15 7 15 16v0 78h32c17 0 31 14 31 31v0 219c0 17-14 31-31 31v0h-32v78c0 9-7 16-15 16s-16-7-16-16v0-78h-31c-17 0-31-14-31-31v0-219c0-17 14-31 31-31v0z m0 250h94v-219h-94z" horiz-adv-x="1000" />
<glyph glyph-name="x-axis" unicode="&#xe917;" d="M365 197c3-2 6-3 10-3 5 0 9 2 12 6l113 141 113-141c3-4 7-6 12-6 9 0 16 7 16 15 0 4-2 8-4 10l0 0-117 147 117 146c2 3 4 6 4 10 0 9-7 16-16 16-5 0-9-3-12-6l0 0-113-141-113 141c-3 3-7 6-12 6-9 0-16-7-16-16 0-4 2-7 4-10l0 0 117-146-117-147c-2-3-4-6-4-10 0-5 3-9 6-12l0 0z m494-66c-8 0-15-7-15-15v0-47h-688v47c0 8-7 15-15 15s-16-7-16-15v0-63c0-8 7-15 16-15v0h718c9 0 16 7 16 15v0 63c0 8-7 15-16 15v0z" horiz-adv-x="1000" />
<glyph glyph-name="y-axis" unicode="&#xe918;" d="M203 694c9 0 16 7 16 15s-7 16-16 16v0h-62c-9 0-16-7-16-16v0-718c0-9 7-16 16-16v0h62c9 0 16 7 16 16s-7 15-16 15v0h-47v688z m446-159c-2 2-5 3-8 3-6 0-10-3-13-7l0 0-112-168-112 168c-3 4-8 7-14 7-8 0-15-7-15-16 0-3 1-6 3-9l0 0 122-183v-121c0-8 7-15 16-15s15 7 15 15v0 121l123 183c1 3 2 6 2 9 0 5-2 10-7 13l0 0z" horiz-adv-x="1000" />
<glyph glyph-name="y1-axis" unicode="&#xe919;" d="M203 694c9 0 16 7 16 15s-7 16-16 16v0h-62c-9 0-16-7-16-16v0-718c0-9 7-16 16-16v0h62c9 0 16 7 16 16s-7 15-16 15v0h-47v688z m425-163l-112-168-112 168c-3 4-8 7-14 7-8 0-15-7-15-16 0-3 1-6 3-9l0 0 122-183v-121c0-8 7-15 16-15s15 7 15 15v0 121l123 183c1 3 3 6 3 9 0 9-7 16-16 16-6 0-11-3-13-7l0 0z m146-340c-2 2-5 3-8 3-3 0-5-1-7-2l0 0-63-31c-5-3-8-8-8-14 0-9 7-16 15-16 3 0 5 1 7 2l0 0 40 20v-162c0-9 7-16 16-16s15 7 15 16v0 187c0 0 0 0 0 0 0 6-3 11-7 13l0 0z" horiz-adv-x="1000" />
<glyph glyph-name="y2-axis" unicode="&#xe91a;" d="M203 694c9 0 16 7 16 15s-7 16-16 16v0h-62c-9 0-16-7-16-16v0-718c0-9 7-16 16-16v0h62c9 0 16 7 16 16s-7 15-16 15v0h-47v688z m594-688h-76c8 18 22 33 38 42l0 0c31 17 51 47 54 83l0 0c0 35-28 63-63 63s-62-28-62-63v0c0-8 7-15 15-15s16 7 16 15v0c0 18 14 32 31 32s31-14 31-32v0c0-26-15-39-40-58-31-16-51-46-53-82l0 0c0-9 7-16 15-16v0h94c9 0 16 7 16 16s-7 15-16 15v0z m-169 525l-112-168-112 168c-3 4-8 7-14 7-8 0-15-7-15-16 0-3 1-6 3-9l0 0 122-183v-121c0-8 7-15 16-15s15 7 15 15v0 121l123 183c1 3 3 6 3 9 0 9-7 16-16 16-6 0-11-3-13-7l0 0z" horiz-adv-x="1000" />
<glyph glyph-name="bitcoin" unicode="&#xf15a;" d="M516 694c-198 0-360-161-360-360s162-359 360-359 359 161 359 359-161 360-359 360z m0-688c-181 0-328 147-328 328s147 329 328 329 328-148 328-329-147-328-328-328z m100 334c15 14 25 35 25 57 0 43-35 78-78 78h-32v47c0 9-7 16-15 16s-16-7-16-16v-47h-78c-9 0-16-7-16-16v-250c0-8 7-15 16-15h78v-47c0-9 7-16 16-16s15 7 15 16v47h47c43 0 78 35 78 78 0 29-16 55-40 68z m-53 104c25 0 46-21 46-47s-21-47-46-47h-32v94h32z m-63 0v-94h-62v94h62z m-62-219v94h62v-94h-62z m140 0h-47v94h47c26 0 47-21 47-47s-21-47-47-47z" horiz-adv-x="1000" />
<glyph glyph-name="yen" unicode="&#xf157;" d="M516 694c-198 0-360-161-360-360s162-359 360-359 359 161 359 359-161 360-359 360z m0-688c-181 0-328 147-328 328s147 329 328 329 328-148 328-329-147-328-328-328z m93 313c9 0 16 7 16 15s-7 16-16 16h-66l80 133c4 7 2 17-6 21s-17 2-21-5l-80-134-81 134c-4 7-14 9-21 5s-10-14-5-21l79-133h-66c-9 0-16-7-16-16s7-15 16-15h78v-31h-78c-9 0-16-7-16-16s7-16 16-16h78v-78c0-8 7-15 16-15s15 7 15 15v78h78c9 0 16 7 16 16s-7 16-16 16h-78v31h78z" horiz-adv-x="1000" />
<glyph glyph-name="usd" unicode="&#xf155;" d="M516 694c-198 0-360-161-360-360s162-359 360-359 359 161 359 359-161 360-359 360z m0-688c-181 0-328 147-328 328s147 329 328 329 328-148 328-329-147-328-328-328z m78 399c0-9 7-16 15-16s16 7 16 16c0 43-41 78-94 84v33c0 9-7 16-15 16s-16-7-16-16v-33c-53-6-94-41-94-84 0-29 24-55 62-70l32-11v-113c-35 5-62 27-62 53 0 9-7 16-16 16s-16-7-16-16c0-43 41-79 94-85v-32c0-9 7-16 16-16s15 7 15 16v32c53 6 94 42 94 85 0 29-23 55-62 69l-32 12v113c35-5 63-27 63-53z m-42-101c26-10 42-25 42-40 0-26-28-48-63-53v101l21-8z m-73 61c-25 9-41 25-41 40 0 26 27 48 62 53v-101l-21 8z" horiz-adv-x="1000" />
<glyph glyph-name="euro" unicode="&#xf153;" d="M516 694c-198 0-360-161-360-360s162-359 360-359 359 161 359 359-161 360-359 360z m0-688c-181 0-328 147-328 328s147 329 328 329 328-148 328-329-147-328-328-328z m6 469c34 0 67-14 92-41 6-6 15-6 22 0s6 15 0 22c-30 32-71 50-114 50s-85-18-115-50c-20-22-33-48-41-75h-38c-8 0-15-7-15-15s7-16 15-16h33c-1-10-1-21 0-31h-33c-8 0-15-7-15-16s7-15 15-15h38c8-28 21-53 41-75 30-32 71-50 115-50s84 18 114 50c6 7 6 16 0 22s-16 6-22 0c-25-27-58-41-92-41s-68 14-93 41c-14 15-24 33-30 53h117c8 0 15 7 15 15s-7 16-15 16h-124c-1 10-1 21 0 31h155c9 0 16 7 16 16s-7 15-16 15h-148c6 20 16 38 30 53 25 27 58 41 93 41z" horiz-adv-x="1000" />
<glyph glyph-name="gbp" unicode="&#xf154;" d="M516 694c-198 0-360-161-360-360s162-359 360-359 359 161 359 359-161 360-359 360z m0-688c-181 0-328 147-328 328s147 329 328 329 328-148 328-329-147-328-328-328z m93 250c-8 0-15-7-15-15v-47h-141c10 13 16 29 16 47v78h78c9 0 16 7 16 15s-7 16-16 16h-78v63c0 34 28 62 62 62 14 0 27-4 38-13 2-1 4-3 6-5 7-6 16-6 23 0s6 16 0 22c-3 3-7 6-10 8-17 13-36 19-57 19-51 0-93-42-93-93v-63h-47c-9 0-16-7-16-16s7-15 16-15h47v-78c0-26-21-47-47-47-9 0-16-7-16-16s7-15 16-15h218c9 0 16 7 16 15v63c0 8-7 15-16 15z" horiz-adv-x="1000" />
<glyph glyph-name="sheqel" unicode="&#xf20b;" d="M516 694c-198 0-360-161-360-360s162-359 360-359 359 161 359 359-161 360-359 360z m0-688c-181 0-328 147-328 328s147 329 328 329 328-148 328-329-147-328-328-328z m15 422v-156c0-9 7-16 16-16s16 7 16 16v156c0 43-36 78-79 78h-62c-9 0-16-7-16-15v-313c0-8 7-15 16-15s16 7 16 15v297h46c26 0 47-21 47-47z m78 78c-8 0-15-7-15-15v-297h-47c-26 0-47 21-47 47v156c0 9-7 16-16 16s-15-7-15-16v-156c0-43 35-78 78-78h62c9 0 16 7 16 15v313c0 8-7 15-16 15z" horiz-adv-x="1000" />
<glyph glyph-name="rupee" unicode="&#xf156;" d="M516 694c-198 0-360-161-360-360s162-359 360-359 359 161 359 359-161 360-359 360z m0-688c-181 0-328 147-328 328s147 329 328 329 328-148 328-329-147-328-328-328z m140 485c0 8-7 15-15 15h-219c-9 0-16-7-16-15s7-16 16-16h62c38 0 70-27 77-62h-139c-9 0-16-7-16-16s7-16 16-16h139c-7-35-39-62-77-62h-62c-6 0-12-4-15-10s-1-12 4-17l156-156c3-3 7-5 11-5s8 2 11 5c6 6 6 16 0 22l-129 130h24c55 0 101 40 108 93h49c8 0 15 7 15 16s-7 16-15 16h-49c-3 24-14 46-31 62h80c8 0 15 7 15 16z" horiz-adv-x="1000" />
<glyph glyph-name="won" unicode="&#xf159;" d="M703 350c9 0 16 7 16 16s-7 15-16 15h-45l29 106c2 8-3 16-11 19-8 2-17-3-19-11l-31-114h-69l-26 113c-2 7-8 12-15 12s-14-5-16-12l-25-113h-70l-30 114c-3 8-11 13-20 11s-13-11-11-19l29-106h-45c-8 0-15-7-15-15s7-16 15-16h54l8-31h-62c-8 0-15-7-15-16s7-15 15-15h71l31-114c1-7 7-12 15-11 7 0 13 5 15 12l26 113h60l25-113c2-7 8-12 15-12 1 0 1 0 1 0 7 0 13 4 15 11l31 114h70c9 0 16 7 16 15s-7 16-16 16h-62l9 31h53z m-187 70l9-39h-18l9 39z m-102-70h54l-7-31h-38l-9 31z m29-107l-12 45h22l-10-45z m50 76l7 31h32l7-31h-46z m95-76l-10 45h22l-12-45z m21 76h-38l-7 31h53l-8-31z m-93 375c-198 0-360-161-360-360s162-359 360-359 359 161 359 359-161 360-359 360z m0-688c-181 0-328 147-328 328s147 329 328 329 328-148 328-329-147-328-328-328z" horiz-adv-x="1000" />
<glyph glyph-name="money" unicode="&#xf0d6;" d="M922 600h-844c-8 0-15-7-15-16v-468c0-9 7-16 15-16h844c9 0 16 7 16 16v468c0 9-7 16-16 16z m-16-469h-812v438h812v-438z m-406 125c52 0 94 42 94 94s-42 94-94 94-94-42-94-94c0-52 42-94 94-94z m0 157c35 0 63-28 63-63s-28-62-63-62-62 28-62 62 28 63 62 63z m-359-157c43 0 78-35 78-78 0-8 7-15 15-15h532c8 0 15 7 15 15 0 43 35 78 78 78 9 0 16 7 16 16v156c0 9-7 16-16 16-43 0-78 35-78 78 0 9-7 16-15 16h-532c-8 0-15-7-15-16 0-43-35-78-78-78-9 0-16-7-16-16v-156c0-9 7-16 16-16z m15 158c48 7 86 44 93 92h502c7-48 45-85 93-92v-128c-48-6-86-44-93-92h-502c-7 48-45 86-93 92v128z" horiz-adv-x="1000" />
<glyph glyph-name="ruble" unicode="&#xf158;" d="M516 694c-198 0-360-161-360-360s162-359 360-359 359 161 359 359-161 360-359 360z m0-688c-181 0-328 147-328 328s147 329 328 329 328-148 328-329-147-328-328-328z m47 500h-110c-8 0-15-7-15-15v-141h-47c-9 0-16-7-16-16s7-15 16-15h47v-31h-47c-9 0-16-7-16-16s7-16 16-16h47v-78c0-8 7-15 15-15s16 7 16 15v78h78c9 0 16 7 16 16s-7 16-16 16h-78v31h94c51 0 93 42 93 94s-42 93-93 93z m0-156h-94v125h94c34 0 62-28 62-62s-28-63-62-63z" horiz-adv-x="1000" />
<glyph glyph-name="turkish-lira" unicode="&#xf195;" d="M516 694c-198 0-360-161-360-360s162-359 360-359 359 161 359 359-161 360-359 360z m0-688c-181 0-328 147-328 328s147 329 328 329 328-148 328-329-147-328-328-328z m93 313c-8 0-15-7-15-16 0-55-41-100-94-108v149l85 39c8 3 11 13 7 21s-13 11-20 7l-72-33v28l85 39c8 4 11 13 7 21s-13 11-20 8l-72-33v81c0 9-7 16-16 16s-15-7-15-16v-96l-50-23c-8-4-12-13-8-21 3-6 8-9 14-9 2 0 5 1 7 2l37 17v-28l-50-24c-8-3-12-12-8-20 3-6 8-9 14-9 2 0 5 0 7 1l37 17v-151c0-8 7-15 15-15 78 0 141 63 141 140 0 9-7 16-16 16z" horiz-adv-x="1000" />
<glyph glyph-name="angle-double-down" unicode="&#xf103;" d="M634 310l-134-135-134 135c-6 5-13 8-22 8-17 0-31-14-31-31 0-8 3-16 9-22l156-156c6-5 13-9 22-9s16 4 22 9l156 156c6 6 9 14 9 22 0 17-14 31-31 31-9 0-16-3-22-8l0 0z m-156 80c6-5 13-9 22-9s16 4 22 9l156 157c6 5 9 13 9 21 0 18-14 32-31 32-9 0-16-4-22-9l-134-134-134 134c-6 5-13 9-22 9-17 0-31-14-31-32 0-8 3-16 9-21l0 0z" horiz-adv-x="1000" />
<glyph glyph-name="angle-double-left" unicode="&#xf100;" d="M460 528c-6 6-14 10-22 10s-17-4-23-10l-156-156c-5-6-9-13-9-22s4-16 9-22l156-156c6-6 14-9 22-9 17 0 31 14 31 31 0 9-3 16-8 22l-135 134 135 134c5 6 9 14 9 22s-4 17-9 22v0z m147-178l134 134c5 6 9 13 9 22 0 17-14 31-32 31-8 0-16-3-21-9l-157-156c-5-6-9-13-9-22s4-16 9-22l157-156c5-6 13-9 21-9 18 0 32 14 32 31 0 9-4 16-9 22l0 0z" horiz-adv-x="1000" />
<glyph glyph-name="angle-double-right" unicode="&#xf101;" d="M741 372l-156 156c-6 6-14 9-22 9-17 0-31-14-31-31 0-9 3-16 8-22l135-134-135-134c-5-6-9-14-9-23 0-17 14-31 31-31 9 0 17 4 23 10l156 156c6 6 9 13 9 22s-3 16-9 22v0z m-438 156c-5 6-13 9-21 9-18 0-32-14-32-31 0-9 4-16 9-22l134-134-134-134c-6-6-9-14-9-23 0-17 14-31 31-31 9 0 17 4 22 10l157 156c5 6 9 13 9 22s-4 16-9 22v0z" horiz-adv-x="1000" />
<glyph glyph-name="angle-double-up" unicode="&#xf102;" d="M366 390l134 135 134-135c6-5 13-8 22-8 17 0 31 14 31 31 0 8-3 16-9 22l-156 156c-6 6-13 9-22 9s-16-3-22-9l-156-156c-6-6-9-14-9-22 0-17 14-31 31-31 9 0 16 3 22 8l0 0z m156-80c-6 5-13 9-22 9s-16-4-22-9l-156-157c-6-5-9-13-9-21 0-18 14-32 31-32 9 0 16 4 22 9l134 134 134-134c6-5 13-9 22-9 17 0 31 14 31 32 0 8-3 16-9 21l0 0z" horiz-adv-x="1000" />
<glyph glyph-name="angle-down" unicode="&#xf107;" d="M678 419c-5 6-13 9-22 9s-16-3-22-9l-134-134-134 134c-6 5-13 9-22 9-17 0-31-14-31-31 0-9 3-17 9-22l156-156c6-6 13-10 22-10s16 4 22 10l156 156c6 5 10 13 10 22s-4 16-10 22v0z" horiz-adv-x="1000" />
<glyph glyph-name="angle-left" unicode="&#xf104;" d="M435 350l134 134c5 6 9 13 9 22 0 17-14 31-31 31-9 0-17-3-22-9l-156-156c-6-6-10-13-10-22s4-16 10-22l156-156c5-6 13-9 22-9 17 0 31 14 31 31 0 9-4 16-9 22l0 0z" horiz-adv-x="1000" />
<glyph glyph-name="angle-right" unicode="&#xf105;" d="M632 372l-157 156c-5 6-13 9-21 9-18 0-32-14-32-31 0-9 4-16 9-22l134-134-134-134c-6-6-9-14-9-23 0-17 14-31 31-31 9 0 17 4 22 10l157 156c5 6 9 13 9 22s-4 16-9 22v0z" horiz-adv-x="1000" />
<glyph glyph-name="angle-up" unicode="&#xf106;" d="M678 325l-156 157c-6 5-13 9-22 9s-16-4-22-9l-156-157c-6-5-9-13-9-21 0-18 14-32 31-32 9 0 16 4 22 9l134 134 134-134c6-5 13-9 22-9 17 0 31 14 31 32 0 8-3 16-9 21l0 0z" horiz-adv-x="1000" />
<glyph glyph-name="arrow-circle-down" unicode="&#xf0ab;" d="M938 350c0 242-196 438-438 438s-437-196-437-438c0-242 195-438 437-438v0c242 1 437 197 438 438v0z m-460-206l-141 140c-6 6-9 14-9 23 0 17 14 31 31 31 9 0 17-4 23-10l87-87v297c0 17 14 31 31 31s31-14 31-31v0-297l88 87c5 6 13 10 22 10 17 0 31-14 31-31 0-9-3-17-9-23l-141-140c-6-6-13-10-22-10s-16 4-22 10v0z" horiz-adv-x="1000" />
<glyph glyph-name="arrow-circle-left" unicode="&#xf0a8;" d="M500-88c242 0 438 196 438 438s-196 438-438 438c-242 0-437-196-437-438v0c0-241 196-437 437-438h0z m-206 460l140 141c6 6 14 9 23 9 17 0 31-14 31-31 0-9-4-17-10-22l-87-88h297c17 0 31-14 31-31s-14-31-31-31v0h-297l87-87c6-6 10-14 10-23 0-17-14-31-31-31-9 0-17 3-23 9l-140 141c-6 6-10 13-10 22s4 16 10 22v0z" horiz-adv-x="1000" />
<glyph glyph-name="arrow-circle-o-down" unicode="&#xf01a;" d="M500 788c-242 0-437-196-437-438s195-438 437-438c242 0 438 196 438 438v0c-1 242-196 437-438 438h0z m0-844c-224 0-406 182-406 406s182 406 406 406c224 0 406-182 406-406v0c0-224-182-406-406-406h0z m119 384l-88-87v297c0 17-14 31-31 31s-31-14-31-31v0-297l-87 87c-6 6-14 10-23 10-17 0-31-14-31-31 0-9 3-17 9-23l141-140c6-6 13-10 22-10s16 4 22 10l141 140c6 6 9 14 9 23 0 17-14 31-31 31-9 0-17-4-22-10l0 0z" horiz-adv-x="1000" />
<glyph glyph-name="arrow-circle-o-left" unicode="&#xf190;" d="M500 788c-242 0-437-196-437-438s195-438 437-438c242 0 438 196 438 438v0c-1 242-196 437-438 438h0z m0-844c-224 0-406 182-406 406s182 406 406 406c224 0 406-182 406-406v0c0-224-182-406-406-406h0z m188 437h-297l87 88c6 5 10 13 10 22 0 17-14 31-31 31-9 0-17-3-23-9l-140-141c-6-6-10-13-10-22s4-16 10-22l140-141c6-6 14-9 23-9 17 0 31 14 31 31 0 9-4 17-10 23l-87 87h297c17 0 31 14 31 31s-14 31-31 31v0z" horiz-adv-x="1000" />
<glyph glyph-name="arrow-circle-o-right" unicode="&#xf18e;" d="M500 788c-242 0-437-196-437-438s195-438 437-438c242 0 438 196 438 438v0c-1 242-196 437-438 438h0z m0-844c-224 0-406 182-406 406s182 406 406 406c224 0 406-182 406-406v0c0-224-182-406-406-406h0z m66 569c-6 6-14 9-23 9-17 0-31-14-31-31 0-9 4-17 10-22l87-88h-296c-18 0-32-14-32-31s14-31 32-31v0h296l-87-87c-6-6-10-14-10-23 0-17 14-31 31-31 9 0 17 3 23 9l141 141c5 6 9 13 9 22s-4 16-9 22v0z" horiz-adv-x="1000" />
<glyph glyph-name="arrow-circle-o-up" unicode="&#xf01b;" d="M500 788c-242 0-437-196-437-438s195-438 437-438c242 0 438 196 438 438v0c-1 242-196 437-438 438h0z m0-844c-224 0-406 182-406 406s182 406 406 406c224 0 406-182 406-406v0c0-224-182-406-406-406h0z m22 613c-6 5-13 9-22 9s-16-4-22-9l-141-141c-6-6-9-14-9-23 0-17 14-31 31-31 9 0 17 4 23 10l87 87v-296c0-18 14-32 31-32s31 14 31 32v0 296l88-87c5-6 13-10 22-10 17 0 31 14 31 31 0 9-3 17-9 23l0 0z" horiz-adv-x="1000" />
<glyph glyph-name="arrow-circle-right" unicode="&#xf0a9;" d="M500 788c-242 0-437-196-437-438s195-438 437-438c242 0 438 196 438 438v0c-1 242-196 437-438 438h0z m207-460l-141-141c-6-6-14-9-23-9-17 0-31 14-31 31 0 9 4 17 10 23l87 87h-296c-18 0-32 14-32 31s14 31 32 31v0h296l-87 88c-6 5-10 13-10 22 0 17 14 31 31 31 9 0 17-3 23-9l141-141c5-6 9-13 9-22s-4-16-9-22v0z" horiz-adv-x="1000" />
<glyph glyph-name="arrow-circle-up" unicode="&#xf0aa;" d="M63 350c0-242 195-438 437-438s438 196 438 438c0 242-196 438-438 438v0c-241-1-437-196-437-438v0z m459 207l141-141c6-6 9-14 9-23 0-17-14-31-31-31-9 0-17 4-22 10l-88 87v-296c0-18-14-32-31-32s-31 14-31 32v0 296l-87-87c-6-6-14-10-23-10-17 0-31 14-31 31 0 9 3 17 9 23l141 141c6 5 13 9 22 9s16-4 22-9v0z" horiz-adv-x="1000" />
<glyph glyph-name="arrow-down" unicode="&#xf063;" d="M803 310c-5 5-13 9-22 9s-16-4-22-9l-228-228v612c0 17-14 31-31 31s-31-14-31-31v0-612l-228 228c-6 5-13 8-22 8-17 0-31-14-31-31 0-8 3-16 9-22l281-281c6-6 13-9 22-9s16 3 22 9l281 281c6 6 10 14 10 23s-4 16-10 22v0z" horiz-adv-x="1000" />
<glyph glyph-name="arrow-down-alt" unicode="&#xea6a;" d="M905 403c-2 6-8 10-14 10 0 0 0 0 0 0h-235v296c0 9-7 16-15 16v0h-282c-8 0-15-7-15-16v0-296h-235c0 0 0 0 0 0-8 0-15-7-15-16 0-4 1-8 4-11l0 0 391-406c3-3 7-5 11-5s8 2 11 5l0 0 391 406c3 3 4 7 4 11 0 2 0 4-1 6l0 0z" horiz-adv-x="1000" />
<glyph glyph-name="arrow-down-left-alt" unicode="&#xea68;" d="M808 470l-188 188c-2 3-6 5-11 5s-8-2-11-5v0l-207-208-177 177c-3 3-7 4-11 4-2 0-4 0-6-1l0 0c-6-2-9-8-9-14v0-563c0-8 7-15 15-15v0h563c0 0 0 0 0 0 8 0 15 7 15 15 0 4-1 8-4 11v0l-177 177 208 207c3 3 5 7 5 11s-2 9-5 11v0z" horiz-adv-x="1000" />
<glyph glyph-name="arrow-down-right-alt" unicode="&#xea69;" d="M803 630c-2 1-4 1-6 1-4 0-8-1-11-4v0l-177-177-207 208c-3 3-7 5-11 5s-9-2-11-5v0l-188-188c-3-2-4-6-4-11s1-8 4-11v0l208-207-177-177c-2-3-4-7-4-11 0-8 7-15 15-15 0 0 0 0 0 0h563c9 0 16 7 16 15v0 563c0 6-4 12-10 14l0 0z" horiz-adv-x="1000" />
<glyph glyph-name="arrow-left" unicode="&#xf060;" d="M844 381h-612l228 228c6 6 9 14 9 23 0 17-14 31-31 31-9 0-17-4-23-10l-281-281c-5-6-9-13-9-22s4-16 9-22l281-281c6-6 14-9 22-9 17 0 31 14 31 31 0 9-3 16-8 22l-228 228h612c17 0 31 14 31 31s-14 31-31 31v0z" horiz-adv-x="1000" />
<glyph glyph-name="arrow-left-alt" unicode="&#xea6b;" d="M859 506h-296v235c0 0 0 0 0 0 0 8-7 15-16 15-4 0-8-1-11-4l0 0-406-391c-3-3-5-7-5-11s2-8 5-11l0 0 406-391c3-3 7-4 11-4 9 0 16 7 16 15 0 0 0 0 0 0v0 235h296c9 0 16 7 16 15v0 282c0 8-7 15-16 15v0z" horiz-adv-x="1000" />
<glyph glyph-name="arrow-right" unicode="&#xf061;" d="M866 372l-281 281c-6 6-14 9-22 9-17 0-31-14-31-31 0-9 3-16 8-22l228-228h-612c-17 0-31-14-31-31s14-31 31-31v0h612l-228-228c-5-6-9-14-9-23 0-17 14-31 31-31 9 0 17 4 23 10l281 281c6 6 9 13 9 22s-3 16-9 22v0z" horiz-adv-x="1000" />
<glyph glyph-name="arrow-right-alt" unicode="&#xea6c;" d="M870 361l-406 391c-3 3-7 4-11 4-2 0-4 0-6-1l0 0c-6-2-9-8-9-14 0 0 0 0 0 0v0-235h-297c-9 0-16-7-16-15v0-282c0-8 7-15 16-15v0h297v-235c0 0 0 0 0 0 0-8 7-15 15-15 4 0 8 1 11 4l0 0 406 391c3 3 5 7 5 11s-2 8-5 11l0 0z" horiz-adv-x="1000" />
<glyph glyph-name="arrow-up" unicode="&#xf062;" d="M803 435l-281 281c-6 6-13 9-22 9s-16-3-22-9l-281-281c-6-6-9-14-9-22 0-17 14-31 31-31 9 0 16 3 22 8l228 228v-612c0-17 14-31 31-31s31 14 31 31v0 612l228-228c6-5 13-8 22-8 17 0 31 14 31 31 0 8-3 16-9 22l0 0z" horiz-adv-x="1000" />
<glyph glyph-name="arrow-up-alt" unicode="&#xea6f;" d="M902 314l-391 406c-3 3-7 5-11 5s-8-2-11-5l0 0-391-406c-3-3-4-7-4-11 0-8 7-15 15-15 0 0 0 0 0 0h235v-297c0-9 7-16 15-16v0h282c8 0 15 7 15 16v0 297h235c0 0 0 0 0 0 8 0 15 7 15 15 0 4-1 8-4 11l0 0z" horiz-adv-x="1000" />
<glyph glyph-name="arrow-up-left-alt" unicode="&#xea6d;" d="M808 252l-208 207 177 177c3 3 4 7 4 11 0 9-7 16-15 16 0 0 0 0 0 0h-563c-8 0-15-7-15-16v0-563c0 0 0 0 0 0 0-8 7-15 15-15 4 0 8 2 11 4v0l177 177 207-208c3-3 7-4 11-4s9 1 11 4v0l188 188c3 2 5 6 5 11s-2 8-5 11v0z" horiz-adv-x="1000" />
<glyph glyph-name="arrow-up-right-alt" unicode="&#xea6e;" d="M797 663h-563c0 0 0 0 0 0-8 0-15-7-15-16 0-4 2-8 4-11v0l177-177-208-207c-3-3-4-7-4-11s1-9 4-11v0l188-188c2-3 6-4 11-4s8 1 11 4v0l207 208 177-177c3-2 7-4 11-4 9 0 16 7 16 15 0 0 0 0 0 0v0 563c0 9-7 16-16 16v0z" horiz-adv-x="1000" />
<glyph glyph-name="arrows" unicode="&#xf047;" d="M928 372l-125 125c-5 6-13 9-21 9-18 0-32-14-32-31 0-9 4-16 9-22l72-72h-300v300l72-72c6-5 13-9 22-9 17 0 31 14 31 32 0 8-3 16-9 21l-125 125c-6 6-13 10-22 10s-16-4-22-10l-125-125c-5-5-9-13-9-21 0-18 14-32 31-32 9 0 17 4 22 9l72 72v-300h-300l72 72c5 6 9 13 9 22 0 17-14 31-32 31-8 0-16-3-21-9l-125-125c-6-6-9-13-9-22s3-16 9-22l125-125c5-6 13-10 22-10 17 0 31 14 31 32 0 8-3 16-9 22l-72 72h300v-300l-72 72c-5 5-13 9-22 9-17 0-31-14-31-32 0-8 4-16 9-21l125-125c6-6 13-10 22-10s16 4 22 10l125 125c6 5 9 13 9 21 0 18-14 32-31 32-9 0-16-4-22-9l-72-72v300h300l-72-72c-6-6-9-14-9-22 0-18 14-32 31-32 9 0 17 4 22 10l125 125c6 6 10 13 10 22s-4 16-10 22v0z" horiz-adv-x="1000" />
<glyph glyph-name="arrows-alt" unicode="&#xf0b2;" d="M813 455c17 0 31 14 31 31v0 177c0 17-14 31-31 31v0h-177c-17 0-31-14-31-31s14-32 31-32v0h101l-237-237-237 237h101c18 0 32 14 32 32s-14 31-32 31v0h-176c-18 0-32-14-32-31v0-177c0-17 14-31 32-31s31 14 31 31v0 101l237-237-237-237v101c0 18-14 32-31 32s-32-14-32-32v0-176c0-18 14-32 32-32v0h176c18 0 32 14 32 32s-14 31-32 31v0h-101l237 237 237-237h-101c-17 0-31-14-31-31s14-32 31-32v0h177c17 0 31 14 31 32v0 176c0 18-14 32-31 32s-32-14-32-32v0-101l-237 237 237 237v-101c0-17 14-31 32-31v0z" horiz-adv-x="1000" />
<glyph glyph-name="arrows-h" unicode="&#xf07e;" d="M928 372l-187 188c-6 5-13 8-22 8-17 0-31-14-31-31 0-8 3-16 9-22l134-134h-662l134 134c6 6 9 14 9 22 0 17-14 31-31 31-9 0-16-3-22-8l-187-188c-6-6-9-13-9-22s3-16 9-22l187-188c6-5 13-8 22-8 17 0 31 14 31 31 0 8-3 16-9 22l-134 134h662l-134-134c-6-6-10-14-10-23 0-17 14-31 31-31 9 0 17 4 23 9l187 188c6 6 10 13 10 22s-4 16-10 22v0z" horiz-adv-x="1000" />
<glyph glyph-name="arrows-v" unicode="&#xf07d;" d="M665 153l-134-134v662l134-134c6-6 14-9 22-9 17 0 31 14 31 31 0 9-3 16-8 22l-188 187c-6 6-13 10-22 10s-16-4-22-10l-188-187c-5-6-8-13-8-22 0-17 14-31 31-31 8 0 16 3 22 9l134 134v-662l-134 134c-6 6-14 9-22 9-17 0-31-14-31-31 0-9 3-16 8-22l188-187c6-6 13-10 22-10s16 4 22 10l188 187c5 6 8 13 8 22 0 17-14 31-31 31-8 0-16-3-22-9l0 0z" horiz-adv-x="1000" />
<glyph glyph-name="box-arrow-in-east" unicode="&#xf090;" d="M478 185c-6-6-10-14-10-23 0-17 14-31 32-31 8 0 16 4 22 9l188 188c5 6 9 13 9 22s-4 16-9 22l-188 188c-5 5-13 8-22 8-17 0-31-14-31-31 0-8 4-16 9-22l134-134h-518c-17 0-31-14-31-31s14-31 31-31v0h518z m303 540h-562c-52 0-94-42-94-94v0-109c0-9 7-16 16-16s15 7 15 16v0 109c0 35 28 63 63 63v0h562c35 0 63-28 63-63v0-562c0-35-28-63-63-63v0h-562c-35 0-63 28-63 63v0 109c0 9-7 16-15 16s-16-7-16-16v0-109c0-52 42-94 94-94v0h562c52 0 94 42 94 94v0 562c0 52-42 94-94 94v0z" horiz-adv-x="1000" />
<glyph glyph-name="box-arrow-in-ne" unicode="&#xe9cf;" d="M594 194c0-17 14-31 31-31s31 14 31 31v0 281c0 17-14 31-31 31v0h-281c-17 0-31-14-31-31s14-31 31-31v0h206l-353-353c-6-6-10-14-10-23 0-17 14-31 31-31 9 0 17 4 23 10l353 353z m187 531h-562c-52 0-94-42-94-94v0-328c0-8 7-15 16-15s15 7 15 15v0 328c0 35 28 63 63 63v0h562c35 0 63-28 63-63v0-562c0-35-28-63-63-63v0h-328c-8 0-15-7-15-15s7-16 15-16v0h328c52 0 94 42 94 94v0 562c0 52-42 94-94 94v0z" horiz-adv-x="1000" />
<glyph glyph-name="box-arrow-in-north" unicode="&#xe9d0;" d="M665 328c6-5 14-9 22-9 17 0 31 14 31 31 0 9-3 17-8 22l-188 188c-6 5-13 9-22 9s-16-4-22-9l-188-188c-5-5-8-13-8-22 0-17 14-31 31-31 8 0 16 4 22 9l134 134v-518c0-18 14-32 31-32s31 14 31 32v0 518z m116 397h-562c-52 0-94-42-94-94v0-562c0-52 42-94 94-94v0h109c9 0 16 7 16 16s-7 15-16 15v0h-109c-35 0-63 28-63 63v0 562c0 35 28 63 63 63v0h562c35 0 63-28 63-63v0-562c0-35-28-63-63-63v0h-109c-9 0-16-7-16-15s7-16 16-16v0h109c52 0 94 42 94 94v0 562c0 52-42 94-94 94v0z" horiz-adv-x="1000" />
<glyph glyph-name="box-arrow-in-nw" unicode="&#xe9d1;" d="M450 444h206c18 0 32 14 32 31s-14 31-32 31v0h-281c-17 0-31-14-31-31v0-281c0-17 14-31 31-31s31 14 31 31v0 206l353-353c6-6 13-9 22-9 17 0 31 14 31 31 0 9-3 16-9 22l0 0z m331 281h-562c-52 0-94-42-94-94v0-562c0-52 42-94 94-94v0h328c9 0 16 7 16 16s-7 15-16 15v0h-328c-35 0-63 28-63 63v0 562c0 35 28 63 63 63v0h562c35 0 63-28 63-63v0-328c0-8 7-15 15-15s16 7 16 15v0 328c0 52-42 94-94 94v0z" horiz-adv-x="1000" />
<glyph glyph-name="box-arrow-in-se" unicode="&#xe9d2;" d="M550 256h-206c-17 0-31-14-31-31s14-31 31-31v0h281c17 0 31 14 31 31v0 281c0 18-14 32-31 32s-31-14-31-32v0-206l-369 369c-5 5-13 9-21 9-18 0-32-14-32-31 0-9 4-17 9-22l0 0z m231 469h-328c-8 0-15-7-15-16s7-15 15-15v0h328c35 0 63-28 63-63v0-562c0-35-28-63-63-63v0h-562c-35 0-63 28-63 63v0 328c0 9-7 16-15 16s-16-7-16-16v0-328c0-52 42-94 94-94v0h562c52 0 94 42 94 94v0 562c0 52-42 94-94 94v0z" horiz-adv-x="1000" />
<glyph glyph-name="box-arrow-in-south" unicode="&#xe9d3;" d="M335 372c-6 6-14 9-22 9-17 0-31-14-31-31 0-9 3-16 8-22l188-188c6-5 13-9 22-9s16 4 22 9l188 188c5 6 8 13 8 22 0 17-14 31-31 31-8 0-16-3-22-9l-134-134v518c0 18-14 32-31 32s-31-14-31-32v0-518z m446 353h-109c-9 0-16-7-16-16s7-15 16-15v0h109c35 0 63-28 63-63v0-562c0-35-28-63-63-63v0h-562c-35 0-63 28-63 63v0 562c0 35 28 63 63 63v0h109c9 0 16 7 16 15s-7 16-16 16v0h-109c-52 0-94-42-94-94v0-562c0-52 42-94 94-94v0h562c52 0 94 42 94 94v0 562c0 52-42 94-94 94v0z" horiz-adv-x="1000" />
<glyph glyph-name="box-arrow-in-sw" unicode="&#xe9d4;" d="M406 506c0 18-14 32-31 32s-31-14-31-32v0-281c0-17 14-31 31-31v0h281c18 0 32 14 32 31s-14 31-32 31v0h-206l353 353c6 6 10 14 10 23 0 17-14 31-31 31-9 0-17-4-23-10l-353-353z m453-93c-8 0-15-7-15-16v0-328c0-35-28-63-63-63v0h-562c-35 0-63 28-63 63v0 562c0 35 28 63 63 63v0h328c9 0 16 7 16 15s-7 16-16 16v0h-328c-52 0-94-42-94-94v0-562c0-52 42-94 94-94v0h562c52 0 94 42 94 94v0 328c0 9-7 16-16 16v0z" horiz-adv-x="1000" />
<glyph glyph-name="box-arrow-in-west" unicode="&#xe9d5;" d="M906 381h-518l134 134c6 6 9 14 9 22 0 17-14 31-31 31-9 0-16-3-22-8l-188-188c-5-6-9-13-9-22s4-16 9-22l188-188c6-5 13-8 22-8 17 0 31 14 31 31 0 8-3 16-9 22l-134 134h518c18 0 32 14 32 31s-14 31-32 31v0z m-47-187c-8 0-15-7-15-16v0-109c0-35-28-63-63-63v0h-562c-35 0-63 28-63 63v0 562c0 35 28 63 63 63v0h562c35 0 63-28 63-63v0-109c0-9 7-16 15-16s16 7 16 16v0 109c0 52-42 94-94 94v0h-562c-52 0-94-42-94-94v0-562c0-52 42-94 94-94v0h562c52 0 94 42 94 94v0 109c0 9-7 16-16 16v0z" horiz-adv-x="1000" />
<glyph glyph-name="box-arrow-out-east" unicode="&#xf08b;" d="M928 372l-187 188c-6 5-13 8-22 8-17 0-31-14-31-31 0-8 3-16 9-22l134-134h-518c-18 0-32-14-32-31s14-31 32-31v0h518l-134-134c-6-6-10-14-10-23 0-17 14-31 31-31 9 0 17 4 23 9l187 188c6 6 10 13 10 22s-4 16-10 22v0z m-69-288c-8 0-15-7-15-15v0c0-35-28-63-63-63v0h-562c-35 0-63 28-63 63v0 562c0 35 28 63 63 63v0h562c35 0 63-28 63-63v0c0-8 7-15 15-15s16 7 16 15v0c0 52-42 94-94 94v0h-562c-52 0-94-42-94-94v0-562c0-52 42-94 94-94v0h562c52 0 94 42 94 94v0c0 8-7 15-16 15v0z" horiz-adv-x="1000" />
<glyph glyph-name="external-link" unicode="&#xf08e;" d="M353 203c6-6 13-9 22-9s16 3 22 9l353 353v-206c0-17 14-31 31-31s32 14 32 31v0 281c0 18-14 32-32 32v0h-281c-17 0-31-14-31-32s14-31 31-31v0h206l-353-353c-6-6-9-13-9-22s3-16 9-22v0z m506-9c-8 0-15-7-15-16v0-109c0-35-28-63-63-63v0h-562c-35 0-63 28-63 63v0 562c0 35 28 63 63 63v0h109c9 0 16 7 16 15s-7 16-16 16v0h-109c-52 0-94-42-94-94v0-562c0-52 42-94 94-94v0h562c52 0 94 42 94 94v0 109c0 9-7 16-16 16v0z" horiz-adv-x="1000" />
<glyph glyph-name="external-link" unicode="&#xf08e;" d="M353 203c6-6 13-9 22-9s16 3 22 9l353 353v-206c0-17 14-31 31-31s32 14 32 31v0 281c0 18-14 32-32 32v0h-281c-17 0-31-14-31-32s14-31 31-31v0h206l-353-353c-6-6-9-13-9-22s3-16 9-22v0z m506-9c-8 0-15-7-15-16v0-109c0-35-28-63-63-63v0h-562c-35 0-63 28-63 63v0 562c0 35 28 63 63 63v0h109c9 0 16 7 16 15s-7 16-16 16v0h-109c-52 0-94-42-94-94v0-562c0-52 42-94 94-94v0h562c52 0 94 42 94 94v0 109c0 9-7 16-16 16v0z" horiz-adv-x="1000" />
<glyph glyph-name="box-arrow-out-north" unicode="&#xe9d6;" d="M335 547l134 134v-518c0-18 14-32 31-32s31 14 31 32v0 518l134-134c6-6 14-9 22-9 17 0 31 14 31 31 0 9-3 16-8 22l-188 187c-6 6-13 10-22 10s-16-4-22-10l-188-187c-5-6-8-13-8-22 0-17 14-31 31-31 8 0 16 3 22 9l0 0z m446 178c-8 0-15-7-15-16s7-15 15-15v0c35 0 63-28 63-63v0-562c0-35-28-63-63-63v0h-562c-35 0-63 28-63 63v0 562c0 35 28 63 63 63v0c8 0 15 7 15 15s-7 16-15 16v0c-52 0-94-42-94-94v0-562c0-52 42-94 94-94v0h562c52 0 94 42 94 94v0 562c0 52-42 94-94 94v0z" horiz-adv-x="1000" />
<glyph glyph-name="box-arrow-out-nw" unicode="&#xe9d7;" d="M219 319c17 0 31 14 31 31v0 206l353-353c6-5 13-9 22-9 17 0 31 14 31 31 0 9-3 17-9 22l-353 353h206c17 0 31 14 31 31s-14 32-31 32v0h-281c-17 0-31-14-31-32v0-281c0-17 14-31 31-31v0z m562 406h-109c-9 0-16-7-16-16s7-15 16-15v0h109c35 0 63-28 63-63v0-562c0-35-28-63-63-63v0h-562c-35 0-63 28-63 63v0 109c0 9-7 16-15 16s-16-7-16-16v0-109c0-52 42-94 94-94v0h562c52 0 94 42 94 94v0 562c0 52-42 94-94 94v0z" horiz-adv-x="1000" />
<glyph glyph-name="box-arrow-out-se" unicode="&#xe9d8;" d="M781 381c-17 0-31-14-31-31v0-206l-353 353c-5 6-13 9-22 9-17 0-31-14-31-31 0-9 4-16 9-22l353-353h-206c-17 0-31-14-31-31s14-31 31-31v0h281c18 0 32 14 32 31v0 281c0 17-14 31-32 31v0z m0 344h-562c-52 0-94-42-94-94v0-562c0-52 42-94 94-94v0h109c9 0 16 7 16 16s-7 15-16 15v0h-109c-35 0-63 28-63 63v0 562c0 35 28 63 63 63v0h562c35 0 63-28 63-63v0-109c0-9 7-16 15-16s16 7 16 16v0 109c0 52-42 94-94 94v0z" horiz-adv-x="1000" />
<glyph glyph-name="box-arrow-out-south" unicode="&#xe9d9;" d="M665 153l-134-134v519c0 17-14 31-31 31s-31-14-31-31v0-519l-134 134c-6 6-14 9-22 9-17 0-31-14-31-31 0-9 3-16 8-22l188-187c6-6 13-10 22-10s16 4 22 10l188 187c5 6 8 13 8 22 0 17-14 31-31 31-8 0-16-3-22-9l0 0z m116 572h-562c-52 0-94-42-94-94v0-562c0-52 42-94 94-94v0c8 0 15 7 15 16s-7 15-15 15v0c-35 0-63 28-63 63v0 562c0 35 28 63 63 63v0h562c35 0 63-28 63-63v0-562c0-35-28-63-63-63v0c-8 0-15-7-15-15s7-16 15-16v0c52 0 94 42 94 94v0 562c0 52-42 94-94 94v0z" horiz-adv-x="1000" />
<glyph glyph-name="box-arrow-out-sw" unicode="&#xe9da;" d="M647 497c-6 6-13 9-22 9s-16-3-22-9l-353-353v206c0 17-14 31-31 31s-31-14-31-31v0-281c0-17 14-31 31-31v0h281c17 0 31 14 31 31s-14 31-31 31v0h-206l353 353c6 6 9 13 9 22s-3 16-9 22v0z m134 228h-562c-52 0-94-42-94-94v0-109c0-9 7-16 16-16s15 7 15 16v0 109c0 35 28 63 63 63v0h562c35 0 63-28 63-63v0-562c0-35-28-63-63-63v0h-109c-9 0-16-7-16-15s7-16 16-16v0h109c52 0 94 42 94 94v0 562c0 52-42 94-94 94v0z" horiz-adv-x="1000" />
<glyph glyph-name="box-arrow-out-west" unicode="&#xe9db;" d="M281 131c18 0 32 14 32 32 0 8-4 16-10 22l-134 134h519c17 0 31 14 31 31s-14 31-31 31v0h-519l134 134c6 6 9 14 9 22 0 17-14 31-31 31-9 0-16-3-22-8l-187-188c-6-6-9-13-9-22s3-16 9-22l187-188c6-5 14-9 22-9v0z m500 594h-562c-52 0-94-42-94-94v0c0-8 7-15 16-15s15 7 15 15v0c0 35 28 63 63 63v0h562c35 0 63-28 63-63v0-562c0-35-28-63-63-63v0h-562c-35 0-63 28-63 63v0c0 8-7 15-15 15s-16-7-16-15v0c0-52 42-94 94-94v0h562c52 0 94 42 94 94v0 562c0 52-42 94-94 94v0z" horiz-adv-x="1000" />
<glyph glyph-name="caret-down" unicode="&#xf0d7;" d="M652 459c-5 10-15 16-27 16h-250c0 0 0 0 0 0-17 0-31-14-31-31 0-6 1-11 4-16l0 0 125-219c5-9 15-15 27-15s22 6 27 15l0 0 125 219c3 5 4 10 4 16 0 6-1 11-4 16l0-1z" horiz-adv-x="1000" />
<glyph glyph-name="caret-left" unicode="&#xf0d9;" d="M609 502c-4 3-9 4-15 4s-11-1-16-4l0 0-219-125c-9-5-15-15-15-27s6-22 15-27l0 0 219-125c5-3 10-4 16-4 17 0 31 14 31 31 0 0 0 0 0 0v0 250c0 12-6 22-15 27l-1 0z" horiz-adv-x="1000" />
<glyph glyph-name="caret-right" unicode="&#xf0da;" d="M641 377l-219 125c-5 3-10 4-16 4-17 0-31-14-31-31 0 0 0 0 0 0v0-250c0 0 0 0 0 0 0-17 14-31 31-31 6 0 11 1 16 4l0 0 219 125c9 5 15 15 15 27s-6 22-15 27l0 0z" horiz-adv-x="1000" />
<glyph glyph-name="toggle-down" unicode="&#xf150;" d="M641 444h-282c-6 0-11-4-14-9-2-6-1-13 3-17l140-157c3-3 8-5 12-5s9 2 12 5l140 157c4 4 5 11 3 17-3 5-8 9-14 9z m156 281h-594c-43 0-78-35-78-78v-594c0-43 35-78 78-78h594c43 0 78 35 78 78v594c0 43-35 78-78 78z m47-672c0-26-21-47-47-47h-594c-26 0-47 21-47 47v594c0 26 21 47 47 47h594c26 0 47-21 47-47v-594z" horiz-adv-x="1000" />
<glyph glyph-name="toggle-left" unicode="&#xf191;" d="M585 505c-6 2-13 1-17-3l-157-140c-3-3-5-8-5-12s2-9 5-12l157-140c3-3 6-4 10-4 2 0 4 0 7 1 5 3 9 8 9 14v282c0 6-4 11-9 14z m212 220h-594c-43 0-78-35-78-78v-594c0-43 35-78 78-78h594c43 0 78 35 78 78v594c0 43-35 78-78 78z m47-672c0-26-21-47-47-47h-594c-26 0-47 21-47 47v594c0 26 21 47 47 47h594c26 0 47-21 47-47v-594z" horiz-adv-x="1000" />
<glyph glyph-name="toggle-right" unicode="&#xf152;" d="M432 502c-4 4-11 5-16 3-6-3-10-8-10-14v-282c0-6 4-11 10-14 2-1 4-1 6-1 4 0 7 1 10 4l157 140c3 3 5 8 5 12s-2 9-5 12l-157 140z m365 223h-594c-43 0-78-35-78-78v-594c0-43 35-78 78-78h594c43 0 78 35 78 78v594c0 43-35 78-78 78z m47-672c0-26-21-47-47-47h-594c-26 0-47 21-47 47v594c0 26 21 47 47 47h594c26 0 47-21 47-47v-594z" horiz-adv-x="1000" />
<glyph glyph-name="toggle-up" unicode="&#xf151;" d="M512 439c-6 6-18 6-24 0l-140-157c-4-4-5-11-3-16 3-6 8-10 14-10h282c6 0 11 4 14 10 2 5 1 12-3 16l-140 157z m285 286h-594c-43 0-78-35-78-78v-594c0-43 35-78 78-78h594c43 0 78 35 78 78v594c0 43-35 78-78 78z m47-672c0-26-21-47-47-47h-594c-26 0-47 21-47 47v594c0 26 21 47 47 47h594c26 0 47-21 47-47v-594z" horiz-adv-x="1000" />
<glyph glyph-name="caret-up" unicode="&#xf0d8;" d="M652 272l-125 219c-6 9-16 14-27 14s-21-5-27-14l0 0-125-219c-3-5-4-10-4-16 0-17 14-31 31-31 0 0 0 0 0 0h250c0 0 0 0 0 0 17 0 31 14 31 31 0 6-1 11-4 16l0 0z" horiz-adv-x="1000" />
<glyph glyph-name="chevron-circle-down" unicode="&#xf13a;" d="M938 350c0 242-196 438-438 438s-437-196-437-438c0-242 195-438 437-438v0c242 1 437 197 438 438v0z m-460-131l-156 156c-6 5-9 13-9 22 0 17 14 31 31 31 9 0 16-4 22-9l134-134 134 134c6 5 13 9 22 9 17 0 31-14 31-31 0-9-3-17-9-22l-156-156c-6-6-13-10-22-10s-16 4-22 10v0z" horiz-adv-x="1000" />
<glyph glyph-name="chevron-circle-left" unicode="&#xf137;" d="M63 350c0-242 195-438 437-438s438 196 438 438c0 242-196 438-438 438v0c-241-1-437-196-437-438v0z m306 22l156 156c5 6 13 9 22 9 17 0 31-14 31-31 0-9-4-16-9-22l-134-134 134-134c6-6 10-14 10-23 0-17-14-31-32-31-9 0-16 4-22 10l-156 156c-6 6-10 13-10 22s4 16 10 22v0z" horiz-adv-x="1000" />
<glyph glyph-name="chevron-circle-right" unicode="&#xf138;" d="M500 788c-242 0-437-196-437-438s195-438 437-438c242 0 438 196 438 438v0c-1 242-196 437-438 438h0z m132-460l-157-156c-5-6-13-9-21-9-18 0-32 14-32 31 0 9 4 16 9 22l134 134-134 134c-5 6-9 13-9 22 0 17 14 31 32 31 8 0 16-3 21-9l157-156c5-6 9-13 9-22s-4-16-9-22v0z" horiz-adv-x="1000" />
<glyph glyph-name="chevron-circle-up" unicode="&#xf139;" d="M500 788c-242 0-437-196-437-438s195-438 437-438c242 0 438 196 438 438v0c-1 242-196 437-438 438h0z m22-306l156-157c6-5 9-13 9-21 0-18-14-32-31-32-9 0-16 4-22 9l-134 134-134-134c-6-6-14-9-23-9-17 0-31 14-31 31 0 9 4 17 10 22l156 157c6 5 13 9 22 9s16-4 22-9v0z" horiz-adv-x="1000" />
<glyph glyph-name="chevron-down" unicode="&#xf078;" d="M835 528c-6 6-14 10-22 10s-17-4-23-10l-290-290-290 290c-6 6-14 9-22 9-17 0-31-14-31-31 0-9 3-16 8-22l313-312c6-6 13-9 22-9s16 3 22 9l313 312c5 6 9 14 9 22s-4 17-9 22v0z" horiz-adv-x="1000" />
<glyph glyph-name="chevron-left" unicode="&#xf053;" d="M388 350l290 290c6 6 10 14 10 23 0 17-14 31-31 31-9 0-17-3-23-9l-312-313c-6-6-9-13-9-22s3-16 9-22l312-313c6-5 13-8 22-8 17 0 31 14 31 31 0 8-3 16-9 22l0 0z" horiz-adv-x="1000" />
<glyph glyph-name="chevron-right" unicode="&#xf054;" d="M678 372l-312 313c-6 5-13 8-22 8-17 0-31-14-31-31 0-8 3-16 9-22l290-290-290-290c-6-6-10-14-10-23 0-17 14-31 31-31 9 0 17 4 23 9l312 313c6 6 10 13 10 22s-4 16-10 22v0z" horiz-adv-x="1000" />
<glyph glyph-name="chevron-up" unicode="&#xf077;" d="M835 216l-313 312c-6 6-13 10-22 10s-16-4-22-10l-313-312c-5-6-8-13-8-22 0-17 14-31 31-31 8 0 16 3 22 9l290 290 290-290c6-6 14-9 22-9 17 0 31 14 31 31 0 9-3 16-8 22l0 0z" horiz-adv-x="1000" />
<glyph glyph-name="circle-arrow-in-east" unicode="&#xe9dc;" d="M478 185c-6-6-10-14-10-23 0-17 14-31 32-31 8 0 16 4 22 9l188 188c5 6 9 13 9 22s-4 16-9 22l-188 188c-5 5-13 8-22 8-17 0-31-14-31-31 0-8 4-16 9-22l134-134h-518c-17 0-31-14-31-31s14-31 31-31v0h518z m22 603c-177-1-329-106-398-257l-1-3c-1-2-1-4-1-6 0-9 7-16 15-16 7 0 12 4 14 9l0 0c65 143 207 241 371 241 225 0 407-182 407-406s-182-406-407-406c-164 0-306 97-369 238l-2 2c-2 6-7 10-14 10-8 0-15-7-15-16 0-2 0-4 1-6l0 0c70-154 222-259 399-259 242 0 437 196 437 437s-195 438-437 438c0 0 0 0 0 0h0z" horiz-adv-x="1000" />
<glyph glyph-name="circle-arrow-in-ne" unicode="&#xe9dd;" d="M594 194c0-17 14-31 31-31s31 14 31 31v0 281c0 17-14 31-31 31v0h-281c-17 0-31-14-31-31s14-31 31-31v0h206l-369-369c-6-5-9-13-9-22 0-17 14-31 31-31 9 0 17 3 22 9l369 369z m215 465c-79 79-188 128-309 128-241 0-437-196-437-437 0-56 10-110 30-159l-1 3c2-6 8-10 14-10 9 0 16 7 16 15 0 2-1 4-1 6l0 0c-17 43-27 93-27 145 0 225 182 406 406 406s406-181 406-406c0-224-181-406-406-406-52 0-102 10-148 28l3-1c-2 0-3 1-5 1-9 0-16-7-16-16 0-6 4-12 10-14l0 0c46-19 100-29 156-29 241 0 437 196 437 437 0 121-49 230-128 309l0 0z" horiz-adv-x="1000" />
<glyph glyph-name="circle-arrow-in-north" unicode="&#xe9de;" d="M665 328c6-5 14-9 22-9 17 0 31 14 31 31 0 9-3 17-8 22l-188 188c-6 5-13 9-22 9s-16-4-22-9l-188-188c-5-5-8-13-8-22 0-17 14-31 31-31 8 0 16 4 22 9l134 134v-518c0-18 14-32 31-32s31 14 31 32v0 518z m-165 460c0 0 0 0 0 0-242 0-437-196-437-438 0-177 105-329 256-398l3-1c2-1 4-2 6-2 9 0 16 7 16 16 0 6-4 12-9 14l0 0c-143 65-241 207-241 371 0 225 182 407 406 407s406-182 406-407c0-164-97-306-238-370l-2-1c-6-2-10-8-10-14 0-8 7-15 16-16h0c2 0 4 1 6 2l0 0c154 70 259 222 259 399 0 242-195 438-437 438 0 0 0 0 0 0h0z" horiz-adv-x="1000" />
<glyph glyph-name="circle-arrow-in-nw" unicode="&#xe9df;" d="M450 444h206c18 0 32 14 32 31s-14 31-32 31v0h-281c-17 0-31-14-31-31v0-281c0-17 14-31 31-31s31 14 31 31v0 206l369-369c5-5 13-9 22-9 17 0 31 14 31 32 0 8-4 16-9 21l0 0z m360 215c-79 80-189 129-310 129-241 0-437-196-437-438s196-437 437-437c56 0 110 10 160 29l-3-1c6 3 10 8 10 15 0 9-7 16-15 16-3 0-5-1-7-1l0 0c-43-17-93-27-145-27-224 0-406 182-406 406s182 407 406 407c225 0 406-182 406-407 0-52-9-102-27-148l1 3c-1-2-2-4-2-6 0-9 7-16 16-16 7 0 13 5 15 11l0 0c18 46 29 100 29 156 0 121-49 230-128 309l0 0z" horiz-adv-x="1000" />
<glyph glyph-name="circle-arrow-in-se" unicode="&#xe9e0;" d="M550 256h-206c-17 0-31-14-31-31s14-31 31-31v0h281c17 0 31 14 31 31v0 281c0 18-14 32-31 32s-31-14-31-32v0-206l-369 369c-5 5-13 9-21 9-18 0-32-14-32-31 0-9 4-17 9-22l0 0z m259 404c-79 79-188 128-309 128-56 0-110-11-159-30l3 1c-6-3-10-8-10-15 0-8 7-15 16-15 2 0 3 0 5 0l0 0c43 17 93 27 145 27 225 0 407-182 407-406s-182-407-407-407c-224 0-406 182-406 407 0 52 10 102 28 148l-1-3c0 2 1 4 1 6 0 8-7 16-16 16-7 0-12-5-14-11l-1 0c-18-46-28-100-28-156 0-241 196-437 437-437s438 196 438 437c0 121-49 231-129 310l0 0z" horiz-adv-x="1000" />
<glyph glyph-name="circle-arrow-in-south" unicode="&#xe9e1;" d="M335 372c-6 6-14 9-22 9-17 0-31-14-31-31 0-9 3-16 8-22l188-188c6-5 13-9 22-9s16 4 22 9l188 188c5 6 8 13 8 22 0 17-14 31-31 31-8 0-16-3-22-9l-134-134v518c0 18-14 32-31 32s-31-14-31-32v0-518z m343 377c-2 1-4 1-6 1-9 0-16-7-16-15 0-6 4-12 9-14l0 0c143-65 241-207 241-371 0-225-182-407-406-407s-406 182-406 407c0 164 97 306 238 370l2 1c6 2 10 8 10 14 0 9-7 16-16 16-2 0-4-1-6-2l0 0c-154-70-260-222-260-399 0-242 196-438 438-438s437 196 437 438c0 177-105 329-256 398l-3 1z" horiz-adv-x="1000" />
<glyph glyph-name="circle-arrow-in-sw" unicode="&#xe9e2;" d="M406 506c0 18-14 32-31 32s-31-14-31-32v0-281c0-17 14-31 31-31v0h281c18 0 32 14 32 31s-14 31-32 31v0h-206l369 369c6 6 10 13 10 22 0 18-14 32-32 32-9 0-16-4-22-10l-369-369z m503 0c-3 6-8 11-15 11-9 0-16-7-16-16 0-2 1-4 1-6l0 0c17-43 27-93 27-145 0-225-182-407-406-407s-406 182-406 407c0 224 181 406 406 406 52 0 102-10 148-28l-3 1c2-1 4-1 6-1 9 0 16 7 16 16 0 6-4 12-10 14l-1 0c-46 19-100 29-156 29-242 0-437-196-437-437s195-438 437-438c242 0 438 196 438 438 0 56-11 110-30 159l1-3z" horiz-adv-x="1000" />
<glyph glyph-name="circle-arrow-in-west" unicode="&#xe9e3;" d="M906 381h-518l134 134c6 6 9 14 9 22 0 17-14 31-31 31-9 0-16-3-22-8l-188-188c-5-6-9-13-9-22s4-16 9-22l188-188c6-5 13-8 22-8 17 0 31 14 31 31 0 8-3 16-9 22l-134 134h518c18 0 32 14 32 31s-14 31-32 31v0z m-15-189c-2 1-4 2-6 2-6 0-12-4-14-9l0 0c-65-144-207-241-371-241-225 0-407 182-407 406s182 406 407 406c164 0 306-97 370-238l1-2c2-6 8-10 14-10 8 0 15 7 15 16 0 2 0 4-1 6l0 0c-70 154-222 260-399 260-242 0-438-196-438-438s196-438 438-438c177 0 329 106 398 257l1 3c1 2 1 4 1 6 0 6-3 12-9 14l0 0z" horiz-adv-x="1000" />
<glyph glyph-name="circle-arrow-out-east" unicode="&#xe9e4;" d="M928 372l-187 188c-6 5-13 8-22 8-17 0-31-14-31-31 0-8 3-16 9-22l134-134h-518c-18 0-32-14-32-31s14-31 32-31v0h518l-134-134c-6-6-10-14-10-23 0-17 14-31 31-31 9 0 17 4 23 9l187 188c6 6 10 13 10 22s-4 16-10 22v0z m-217-368c-60-38-133-60-211-60h0c-224 0-406 182-406 406s182 406 406 406v0c78 0 151-22 212-61l-1 1c2-1 5-2 8-2 8 0 15 7 15 15 0 6-3 11-7 14l0 0c-65 40-143 64-227 65h0c-242 0-437-196-437-438s195-438 437-438v0c84 1 162 25 229 66l-2-1c4 3 7 8 7 14 0 8-7 15-15 15-3 0-6-1-9-2l1 0z" horiz-adv-x="1000" />
<glyph glyph-name="circle-arrow-out-ne" unicode="&#xe9e5;" d="M531 600h175l-353-353c-6-6-10-14-10-22 0-18 14-32 32-32 8 0 16 4 22 10l353 353v-175c0-17 14-31 31-31s32 14 32 31v0 250c0 18-14 32-32 32v0h-250c-17 0-31-14-31-32s14-31 31-31v0z m382-334c-2 0-3 0-4 0-7 0-14-5-15-12l0 0c-44-179-203-310-392-310-1 0-2 0-2 0h0c-224 0-406 182-406 406 0 112 45 214 119 287v0c51 51 116 89 188 106l3 1c8 1 13 7 13 15 0 9-7 16-16 16-1 0-3-1-4-1l0 0c-81-19-151-60-206-115l0 0c-79-79-128-188-128-309 0-242 195-438 437-438 121 0 230 49 309 129v0c55 55 96 125 114 203l1 3c0 1 0 2 0 4 0 7-5 13-11 15l0 0z" horiz-adv-x="1000" />
<glyph glyph-name="circle-arrow-out-north" unicode="&#xe9e6;" d="M335 547l134 134v-518c0-18 14-32 31-32s31 14 31 32v0 518l134-134c6-6 14-9 22-9 17 0 31 14 31 31 0 9-3 16-8 22l-188 187c-6 6-13 10-22 10s-16-4-22-10l-188-187c-5-6-8-13-8-22 0-17 14-31 31-31 8 0 16 3 22 9l0 0z m538 30c-3 4-8 7-14 7-8 0-15-7-15-15 0-3 1-6 2-9l0 1c38-60 60-133 60-211v0c0-224-182-406-406-406s-406 182-406 406v0c0 78 22 151 61 212l-1-1c2 2 3 5 3 8 0 9-7 16-16 16-6 0-11-3-14-8l0 0c-40-65-64-143-64-227v0c0-242 195-438 437-438s438 196 438 438v0c-1 84-25 162-66 229l1-2z" horiz-adv-x="1000" />
<glyph glyph-name="circle-arrow-out-nw" unicode="&#xe9e7;" d="M219 350c17 0 31 14 31 31v0 175l353-353c6-5 13-9 22-9 17 0 31 14 31 31 0 9-3 17-9 22l-353 353h175c17 0 31 14 31 31s-14 32-31 32v0h-250c-17 0-31-14-31-32v0-250c0-17 14-31 31-31v0z m590 309c-55 55-125 96-203 114l-3 1c-1 0-2 0-4 0-7 0-13-5-15-11l0-1c0-1 0-2 0-3 0-7 5-14 12-15l0 0c179-44 310-203 310-393 0 0 0-1 0-1v0c0-224-182-406-406-406-112 0-214 45-287 119v0c-51 51-88 116-106 188l0 3c-2 7-8 12-16 12-8 0-15-7-15-15 0-2 0-3 0-4l0 0c47-193 218-335 423-335 0 0 1 0 1 0h0c0 0 0 0 0 0 242 0 438 196 438 438 0 121-49 230-129 309v0z" horiz-adv-x="1000" />
<glyph glyph-name="circle-arrow-out-se" unicode="&#xe9e8;" d="M781 350c-17 0-31-14-31-31v0-175l-353 353c-5 6-13 9-22 9-17 0-31-14-31-31 0-9 4-16 9-22l353-353h-175c-17 0-31-14-31-31s14-31 31-31v0h250c18 0 32 14 32 31v0 250c0 17-14 31-32 31v0z m143 103c-47 193-218 335-423 335 0 0-1 0-1 0h0c0 0 0 0 0 0-242 0-437-196-437-438 0-121 48-230 128-309v0c55-55 125-96 203-114l3-1c1 0 2 0 3 0 0 0 0 0 1 0h0c8 0 15 7 15 15 0 7-5 14-12 15l0 0c-75 18-140 56-191 107l0 0c-74 73-119 175-119 287 0 224 182 406 406 406 112 0 214-45 287-119v0c51-51 89-116 106-188l1-3c1-7 7-12 15-12 1 0 2 0 3 0l0 0c7 2 12 8 12 16 0 1 0 2 0 3l0 0z" horiz-adv-x="1000" />
<glyph glyph-name="circle-arrow-out-south" unicode="&#xe9e9;" d="M665 153l-134-134v519c0 17-14 31-31 31s-31-14-31-31v0-519l-134 134c-6 6-14 9-22 9-17 0-31-14-31-31 0-9 3-16 8-22l188-187c6-6 13-10 22-10s16 4 22 10l188 187c5 6 8 13 8 22 0 17-14 31-31 31-8 0-16-3-22-9l0 0z m-165 635c-241-1-437-196-437-438v0c0-84 24-162 65-229l-1 2c3-5 8-8 14-8 9 0 16 7 16 16 0 3-1 6-3 9l0 0c-38 59-60 132-60 210v0c0 224 182 406 406 406s406-182 406-406v0c0-78-22-151-61-212l1 2c-1-3-2-6-2-9 0-8 7-15 15-15 6 0 11 3 14 7l0 0c40 65 64 143 65 227v0c-1 242-196 437-438 438h0z" horiz-adv-x="1000" />
<glyph glyph-name="circle-arrow-out-sw" unicode="&#xe9ea;" d="M469 100h-175l353 353c6 6 9 13 9 22 0 17-14 31-31 31-9 0-16-3-22-9l-353-353v175c0 17-14 31-31 31s-31-14-31-31v0-250c0-17 14-31 31-31v0h250c17 0 31 14 31 31s-14 31-31 31v0z m340 559c-79 80-188 129-309 129s-230-49-309-129v0c-55-55-95-125-114-203l-1-3c0-1 0-2 0-3 0-9 7-16 15-16 8 0 14 5 15 12l0 0c44 179 203 310 393 310 0 0 1 0 1 0h0c224 0 406-182 406-406 0-112-45-214-119-287v0c-51-51-116-89-188-106l-3-1c-7-1-12-7-12-15 0-8 7-15 16-15h0c0 0 0 0 0 0 1 0 2 0 3 0l0 0c193 47 335 218 335 423 0 0 0 1 0 1v0c0 0 0 1 0 1 0 121-49 230-129 308l0 0z" horiz-adv-x="1000" />
<glyph glyph-name="circle-arrow-out-west" unicode="&#xe9eb;" d="M303 140c6 6 10 14 10 23s-4 16-10 22l-134 134h522c17 0 31 14 31 31s-14 31-31 31v0h-522l134 134c6 6 9 14 9 22 0 17-14 31-31 31-9 0-16-3-22-8l-187-188c-6-6-9-13-9-22s3-16 9-22l187-188c6-5 14-9 22-9s17 4 22 9v0z m200 648c-84-1-162-25-229-66l2 1c-4-3-7-8-7-14 0-8 7-15 15-15 3 0 6 1 9 2l0 0c59 38 132 60 210 60h0c225 0 406-182 406-406s-181-406-406-406v0c-78 0-151 22-212 61l2-1c-3 1-5 2-9 2-8 0-15-7-15-15 0-6 3-11 7-14l0 0c65-40 143-64 227-65h0c242 0 438 196 438 438s-196 438-438 438v0z" horiz-adv-x="1000" />
<glyph glyph-name="exchange" unicode="&#xf0ec;" d="M259 359c6-5 13-9 22-9 17 0 31 14 31 32 0 8-3 16-9 21l-134 135h737c18 0 32 14 32 31s-14 31-32 31v0h-737l134 134c6 6 10 14 10 23 0 17-14 31-31 31-9 0-17-4-23-10l-187-187c-6-6-9-14-9-22s3-17 9-22v0z m482-18c-6 5-13 9-22 9-17 0-31-14-31-32 0-8 3-16 9-21l134-134h-737c-17 0-31-14-31-32s14-31 31-31v0h737l-134-134c-6-6-10-14-10-23 0-17 14-31 31-31 9 0 17 4 23 10l187 187c6 6 10 14 10 22s-4 17-10 22v0z" horiz-adv-x="1000" />
<glyph glyph-name="hand-o-down" unicode="&#xf0a7;" d="M734 631c9 0 16 7 16 16v125c0 9-7 16-16 16s-15-7-15-16v-109h-375v109c0 9-7 16-16 16s-15-7-15-16v-125c0-9 7-16 15-16h47v-5c0-32-17-57-32-74l-214-241c-6-6-6-16 0-22 48-46 125-45 172 1l43 41v-356c0-35 28-63 62-63s63 28 63 63v165c9-6 20-9 31-9 27 0 50 18 59 42 10-7 22-10 35-10 27 0 50 17 59 41 10-6 22-10 35-10 34 0 62 28 62 62v203c0 39-16 76-45 103-11 10-17 23-17 36v33h46z m-50-92c22-21 35-49 35-80v-203c0-17-14-31-31-31s-32 14-32 31c0 9-7 16-15 16s-16-7-16-16v-31c0-17-14-31-31-31s-31 14-31 31c0 9-7 16-16 16s-16-7-16-16v-31c0-17-14-31-31-31s-31 14-31 31c0 8-7 15-16 15s-15-7-15-15v-219c0-17-14-31-32-31s-31 14-31 31v392c0 6-4 12-9 15-6 2-13 1-17-3l-70-66c-31-32-81-35-116-11l204 230c26 28 39 61 39 94v5h250v-33c0-22 10-43 28-59z" horiz-adv-x="1000" />
<glyph glyph-name="hand-o-left" unicode="&#xf0a5;" d="M922 131h-109v375h109c9 0 16 7 16 16s-7 16-16 16h-125c-9 0-16-7-16-16v-47h-5c-32 0-57 17-74 32l-241 215c-6 5-16 5-22-1-46-48-45-125 1-172l41-43h-356c-34 0-62-28-62-62s28-63 62-63h165c-6-9-9-20-9-31 0-27 18-50 42-59-7-10-10-22-10-35 0-27 17-50 41-59-6-10-10-22-10-34 0-35 28-63 62-63h203c39 0 76 16 103 45 10 11 23 18 36 18h33v-47c0-9 7-16 16-16h125c9 0 16 7 16 16s-7 15-16 15z m-174 63c-22 0-43-10-59-28-21-22-49-35-80-35h-203c-17 0-31 14-31 32s14 31 31 31c9 0 16 7 16 15s-7 16-16 16h-31c-17 0-31 14-31 31s14 32 31 32c9 0 16 7 16 15s-7 16-16 16h-31c-17 0-31 14-31 31s14 31 31 31c8 0 15 7 15 16s-7 16-15 16h-219c-17 0-31 14-31 31s14 31 31 31h392c6 0 12 4 15 10s1 12-3 16l-66 70c-32 31-35 81-11 116l230-204c28-26 61-39 94-39h5v-250h-33z" horiz-adv-x="1000" />
<glyph glyph-name="hand-o-right" unicode="&#xf0a4;" d="M875 506h-356l40 43c47 47 48 124 2 172-6 6-16 6-22 0l-242-215c-16-14-41-31-73-31h-5v47c0 9-7 16-16 16h-125c-8 0-15-7-15-16s7-16 15-16h110v-375h-110c-8 0-15-7-15-15s7-16 15-16h125c9 0 16 7 16 16v47h33c13 0 26-7 36-18 27-29 64-45 103-45h203c34 0 62 28 62 63 0 12-4 24-10 34 24 9 42 32 42 59 0 13-4 25-11 35 24 9 42 32 42 59 0 11-3 22-9 31h165c35 0 63 28 63 63s-28 62-63 62z m0-93h-219c-8 0-15-7-15-16s7-16 15-16c18 0 32-14 32-31s-14-31-32-31h-31c-9 0-16-7-16-16s7-15 16-15c17 0 31-14 31-32s-14-31-31-31h-31c-9 0-16-7-16-16s7-15 16-15c17 0 31-14 31-31s-14-32-31-32h-203c-30 0-59 13-80 35-16 18-37 28-59 28h-33v250h5c33 0 66 13 95 39l229 204c24-35 21-85-11-117l-65-69c-5-4-6-11-4-16s9-10 15-10h392c17 0 31-14 31-31s-14-31-31-31z" horiz-adv-x="1000" />
<glyph glyph-name="hand-o-up" unicode="&#xf0a6;" d="M705 138c29 27 45 64 45 103v203c0 34-28 62-62 62-13 0-25-4-35-10-9 24-32 42-59 42-13 0-25-4-35-11-9 24-32 42-59 42-11 0-22-3-31-9v165c0 35-28 63-63 63s-62-28-62-63v-356l-43 40c-47 47-124 48-172 2-6-6-6-15 0-22l215-242c14-16 31-41 31-73v-5h-47c-8 0-15-7-15-16v-125c0-9 7-16 15-16s16 7 16 16v110h375v-110c0-9 7-16 15-16s16 7 16 16v125c0 9-7 16-16 16h-46v33c0 13 6 26 17 36z m-299-69v5c0 33-13 66-39 95l-204 229c35 24 85 21 117-11l69-66c4-4 11-5 17-3 5 3 9 9 9 15v392c0 17 14 31 31 31s32-14 32-31v-219c0-8 7-15 15-15s16 7 16 15c0 18 14 32 31 32s31-14 31-32v-31c0-9 7-16 16-16s16 7 16 16c0 17 14 31 31 31s31-14 31-31v-31c0-9 7-16 16-16s15 7 15 16c0 17 14 31 32 31s31-14 31-31v-203c0-30-13-59-35-80-18-16-28-37-28-59v-33h-250z" horiz-adv-x="1000" />
<glyph glyph-name="long-arrow-down" unicode="&#xf175;" d="M710 153c-6 6-14 10-22 10s-17-4-23-10l-134-134v737c0 18-14 32-31 32s-31-14-31-32v0-737l-134 134c-6 6-14 9-22 9-17 0-31-14-31-31 0-9 3-16 8-22l188-187c6-6 13-10 22-10s16 4 22 10l188 187c5 6 9 14 9 22s-4 17-9 22v0z" horiz-adv-x="1000" />
<glyph glyph-name="long-arrow-left" unicode="&#xf177;" d="M906 381h-737l134 134c6 6 9 14 9 22 0 17-14 31-31 31-9 0-16-3-22-8l-187-188c-6-6-9-13-9-22s3-16 9-22l187-188c6-5 13-8 22-8 17 0 31 14 31 31 0 8-3 16-9 22l-134 134h737c18 0 32 14 32 31s-14 31-32 31v0z" horiz-adv-x="1000" />
<glyph glyph-name="long-arrow-right" unicode="&#xf178;" d="M928 372l-187 188c-6 5-13 8-22 8-17 0-31-14-31-31 0-8 3-16 9-22l134-134h-737c-17 0-31-14-31-31s14-31 31-31v0h737l-134-134c-6-6-10-14-10-23 0-17 14-31 31-31 9 0 17 4 23 9l187 188c6 6 10 13 10 22s-4 16-10 22v0z" horiz-adv-x="1000" />
<glyph glyph-name="long-arrow-up" unicode="&#xf176;" d="M710 591l-188 187c-6 6-13 10-22 10s-16-4-22-10l-188-187c-5-6-8-13-8-22 0-17 14-31 31-31 8 0 16 3 22 9l134 134v-737c0-18 14-32 31-32s31 14 31 32v0 737l134-134c6-6 14-9 22-9 17 0 31 14 31 31 0 9-3 16-8 22l0 0z" horiz-adv-x="1000" />
<glyph glyph-name="page-bottom" unicode="&#xe90d;" d="M478 328c6-6 13-9 22-9s16 3 22 9l313 312c6 6 9 14 9 23 0 17-14 31-31 31-9 0-17-3-23-9l-290-291-290 291c-6 5-14 8-22 8-17 0-31-14-31-31 0-8 3-16 8-22l0 0z m335-259h-625c-18 0-32-14-32-31s14-32 32-32v0h625c17 0 31 14 31 32s-14 31-31 31v0z" horiz-adv-x="1000" />
<glyph glyph-name="page-first" unicode="&#xe90e;" d="M544 350l291 290c6 6 9 14 9 23 0 17-14 31-31 31-9 0-17-3-23-9l-312-313c-6-6-9-13-9-22s3-16 9-22l312-313c6-5 14-8 22-8 17 0 31 14 31 31 0 8-3 16-8 22l0 0z m-356 344c-18 0-32-14-32-31v0-625c0-18 14-32 32-32s31 14 31 32v0 625c0 17-14 31-31 31v0z" horiz-adv-x="1000" />
<glyph glyph-name="page-last" unicode="&#xe90f;" d="M210 685c-6 5-14 8-22 8-17 0-31-14-31-31 0-8 3-16 8-22l291-290-291-290c-5-6-9-14-9-23 0-17 14-31 31-31 9 0 17 4 23 9l312 313c6 6 9 13 9 22s-3 16-9 22v0z m603 9c-18 0-32-14-32-31v0-625c0-18 14-32 32-32s31 14 31 32v0 625c0 17-14 31-31 31v0z" horiz-adv-x="1000" />
<glyph glyph-name="page-top" unicode="&#xe910;" d="M522 372c-6 6-13 9-22 9s-16-3-22-9l-313-312c-5-6-8-14-8-22 0-17 14-31 31-31 8 0 16 3 22 8l290 291 290-291c6-5 14-8 22-8 17 0 31 14 31 31 0 8-3 16-8 22l0 0z m-334 259h625c17 0 31 14 31 32s-14 31-31 31v0h-625c-18 0-32-14-32-31s14-32 32-32v0z" horiz-adv-x="1000" />
</font>
</defs>
</svg>
