<svg width="16" height="16" xmlns="http://www.w3.org/2000/svg"><path d="M13.714 0H2.286A2.285 2.285 0 0 0 0 2.286v11.428A2.285 2.285 0 0 0 2.286 16h11.428A2.285 2.285 0 0 0 16 13.714V2.286A2.285 2.285 0 0 0 13.714 0zM2.58 3.607l1.04-1.04a.957.957 0 0 1 1.358 0L7.33 4.919l-.68.678-2.352-2.351-1.039 1.04 2.351 2.35-.679.68-2.35-2.353a.959.959 0 0 1 0-1.356zm2.7 9.15l-2.673.944a.24.24 0 0 1-.307-.307l.944-2.673c.191-.43.461-.822.794-1.154l6.778-6.778A1.693 1.693 0 0 1 13.2 2.8c.656.656.668 1.73.012 2.386l-6.779 6.777a3.864 3.864 0 0 1-1.155.794zm8.154-.376l-1.04 1.04a.957.957 0 0 1-1.358 0l-2.35-2.351.678-.68 2.351 2.352 1.04-1.04-2.35-2.351.678-.679 2.351 2.35a.96.96 0 0 1 0 1.359zm-.91-8.903a.752.752 0 0 0-.52-.222.714.714 0 0 0-.51.21l-6.778 6.779c-.25.25-.451.541-.582.837l-.54 1.325 1.325-.54a2.85 2.85 0 0 0 .837-.582l6.779-6.779a.714.714 0 0 0 .21-.508.752.752 0 0 0-.222-.52z"/></svg>