<svg id="Layer_1" data-name="Layer 1" xmlns="http://www.w3.org/2000/svg" width="32" height="32" viewBox="0 0 32 32"><path d="M19.04785,11H17.5a.49971.49971,0,0,0-.5.5v9a.5001.5001,0,0,0,.5.5h.00635l1.52051-.02a4.99008,4.99008,0,0,0,.021-9.98Zm-.02734,8.98L18,19.99316V12h1.04443a3.99007,3.99007,0,0,1-.02392,7.98Z"/><path d="M14.23242,15.47461A2.62127,2.62127,0,0,0,12.37891,11h-1a2.60383,2.60383,0,0,0-1.85352.76758l-.37891.3789a.5.5,0,0,0,.707.707l.3789-.37891A1.61067,1.61067,0,0,1,11.37891,12h1a1.62137,1.62137,0,0,1,1.14648,2.76758L9.85352,18.43945A2.93415,2.93415,0,0,0,9,20.5a.49971.49971,0,0,0,.5.5h5a.5.5,0,0,0,0-1H10.06738a1.9267,1.9267,0,0,1,.49317-.85352Z"/><path d="M16,2A14,14,0,1,0,30,16,14.01572,14.01572,0,0,0,16,2Zm0,27A13,13,0,1,1,29,16,13.01442,13.01442,0,0,1,16,29Z"/></svg>