<svg id="Layer_1" data-name="Layer 1" xmlns="http://www.w3.org/2000/svg" width="32" height="32" viewBox="0 0 32 32"><path d="M19.04785,11H17.5a.49971.49971,0,0,0-.5.5v9a.5001.5001,0,0,0,.5.5h.00635l1.52051-.02a4.99008,4.99008,0,0,0,.021-9.98Zm-.02734,8.98L18,19.99316V12h1.04443a3.99007,3.99007,0,0,1-.02392,7.98Z"/><path d="M15,11.5a.49971.49971,0,0,0-.5-.5h-5a.5.5,0,0,0,0,1h4.43262a1.9267,1.9267,0,0,1-.49317.85352l-2.293,2.293A.5.5,0,0,0,11.5,16h.87891A1.62271,1.62271,0,0,1,14,17.62109v.75782A1.62271,1.62271,0,0,1,12.37891,20h-1a1.61067,1.61067,0,0,1-1.14649-.47461l-.3789-.37891a.5.5,0,0,0-.707.707l.37891.3789A2.60383,2.60383,0,0,0,11.37891,21h1A2.624,2.624,0,0,0,15,18.37891v-.75782a2.625,2.625,0,0,0-2.311-2.603l1.45752-1.45752A2.93415,2.93415,0,0,0,15,11.5Z"/><path d="M16,2A14,14,0,1,0,30,16,14.01572,14.01572,0,0,0,16,2Zm0,27A13,13,0,1,1,29,16,13.01442,13.01442,0,0,1,16,29Z"/></svg>