<svg id="Layer_1" data-name="Layer 1" xmlns="http://www.w3.org/2000/svg" width="32" height="32" viewBox="0 0 32 32"><path d="M28,4H4A2,2,0,0,0,2,6V26a2,2,0,0,0,2,2H28a2,2,0,0,0,2-2V6A2,2,0,0,0,28,4Zm1,22a1,1,0,0,1-1,1H4a1,1,0,0,1-1-1V6A1,1,0,0,1,4,5H28a1,1,0,0,1,1,1Z"/><path d="M11.146,14.854a.5.5,0,0,0,.708-.708L10.207,12.5l1.647-1.646a.5.5,0,0,0-.708-.708L9.5,11.793,7.854,10.146a.5.5,0,0,0-.708.708L8.793,12.5,7.146,14.146a.5.5,0,0,0,.708.708L9.5,13.207Z"/><path d="M24.854,10.146a.5.5,0,0,0-.708,0L22.5,11.793l-1.646-1.647a.5.5,0,0,0-.708.708L21.793,12.5l-1.647,1.646a.5.5,0,0,0,.708.708L22.5,13.207l1.646,1.647a.5.5,0,0,0,.708-.708L23.207,12.5l1.647-1.646A.5.5,0,0,0,24.854,10.146Z"/><path d="M16,19a11.984,11.984,0,0,0-6.782,2.087.5.5,0,0,0,.564.826,11.062,11.062,0,0,1,12.436,0,.5.5,0,1,0,.564-.826A11.984,11.984,0,0,0,16,19Z"/></svg>