<svg id="Layer_1" data-name="Layer 1" xmlns="http://www.w3.org/2000/svg" width="32" height="32" viewBox="0 0 32 32"><path d="M14.5,16H14V11.5a.5.5,0,0,0-1,0V16H9V11.5a.5.5,0,0,0-1,0v5a.5.5,0,0,0,.5.5H13v3.5a.5.5,0,0,0,1,0V17h.5a.5.5,0,0,0,0-1Z"/><path d="M23.869,11.162a.5.5,0,0,0-.707-.031L18,15.863V11.5a.5.5,0,0,0-1,0v9a.5.5,0,0,0,1,0V17.22l1.182-1.083,3.935,4.685a.5.5,0,0,0,.766-.644L19.92,15.46l3.918-3.591A.5.5,0,0,0,23.869,11.162Z"/><path d="M28,6H4A2,2,0,0,0,2,8V24a2,2,0,0,0,2,2H28a2,2,0,0,0,2-2V8A2,2,0,0,0,28,6Zm1,18a1,1,0,0,1-1,1H4a1,1,0,0,1-1-1V8A1,1,0,0,1,4,7H28a1,1,0,0,1,1,1Z"/></svg>