<svg id="Layer_1" data-name="Layer 1" xmlns="http://www.w3.org/2000/svg" width="32" height="32" viewBox="0 0 32 32"><path d="M29.5,3a.5.5,0,0,0-.5.5V9H17.449A2.491,2.491,0,0,0,13,8.015a2.478,2.478,0,0,0-4,0A2.491,2.491,0,0,0,4.551,9H3V3.5a.5.5,0,0,0-1,0v25a.5.5,0,0,0,1,0V21H7.051a2.491,2.491,0,0,0,4.449.985A2.491,2.491,0,0,0,15.949,21h6.1a2.5,2.5,0,0,0,4.9,0H29v7.5a.5.5,0,0,0,1,0V3.5A.5.5,0,0,0,29.5,3ZM15,8a1.5,1.5,0,1,1-1.5,1.5A1.5,1.5,0,0,1,15,8ZM11,8A1.5,1.5,0,1,1,9.5,9.5,1.5,1.5,0,0,1,11,8ZM7,8A1.5,1.5,0,1,1,5.5,9.5,1.5,1.5,0,0,1,7,8ZM9.5,22A1.5,1.5,0,1,1,11,20.5,1.5,1.5,0,0,1,9.5,22Zm4,0A1.5,1.5,0,1,1,15,20.5,1.5,1.5,0,0,1,13.5,22Zm11,0A1.5,1.5,0,1,1,26,20.5,1.5,1.5,0,0,1,24.5,22Zm2.449-2a2.5,2.5,0,0,0-4.9,0h-6.1a2.491,2.491,0,0,0-4.449-.985A2.491,2.491,0,0,0,7.051,20H3V10H4.551A2.491,2.491,0,0,0,9,10.985a2.478,2.478,0,0,0,4,0A2.491,2.491,0,0,0,17.449,10H29V20Z"/></svg>