<svg id="Layer_1" data-name="Layer 1" xmlns="http://www.w3.org/2000/svg" width="32" height="32" viewBox="0 0 32 32"><path d="M6.854,7.646a.5.5,0,0,0-.708.708L7.793,10,6.146,11.646a.5.5,0,0,0,.708.708l2-2a.5.5,0,0,0,0-.708Z"/><path d="M15.5,10h14a.5.5,0,0,0,0-1h-14a.5.5,0,0,0,0,1Z"/><path d="M29.5,26h-14a.5.5,0,0,0,0,1h14a.5.5,0,0,0,0-1Z"/><path d="M29.5,21h-14a.5.5,0,0,0,0,1h14a.5.5,0,0,0,0-1Z"/><path d="M7,5a5,5,0,1,0,5,5A5.006,5.006,0,0,0,7,5Zm0,9a4,4,0,1,1,4-4A4,4,0,0,1,7,14Z"/><path d="M8.646,21.146,7,22.793,5.354,21.146a.5.5,0,0,0-.708.708l2,2a.5.5,0,0,0,.708,0l2-2a.5.5,0,0,0-.708-.708Z"/><path d="M7,17a5,5,0,1,0,5,5A5.006,5.006,0,0,0,7,17Zm0,9a4,4,0,1,1,4-4A4,4,0,0,1,7,26Z"/></svg>