<svg version="1.1" xmlns="http://www.w3.org/2000/svg" width="32" height="32" viewBox="0 0 32 32">
<title>address-book</title>
<path d="M27 8h-2v-1c0-1.657-1.343-3-3-3v0h-14c-1.105 0-2 0.895-2 2v0 20c0 1.105 0.895 2 2 2v0h14c1.657 0 3-1.343 3-3v0-1h2c0.552 0 1-0.448 1-1v0-14c0-0.552-0.448-1-1-1v0zM15.5 11c1.381 0 2.5 1.119 2.5 2.5s-1.119 2.5-2.5 2.5c-1.381 0-2.5-1.119-2.5-2.5v0c0-1.381 1.119-2.5 2.5-2.5v0zM20 20.5c0 0.276-0.224 0.5-0.5 0.5v0h-8c-0.276 0-0.5-0.224-0.5-0.5v0-1.106c0-0.002 0-0.004 0-0.006 0-0.745 0.444-1.386 1.082-1.672l0.012-0.005c1.004-0.447 2.175-0.707 3.406-0.707s2.403 0.26 3.461 0.729l-0.055-0.022c0.649 0.292 1.093 0.933 1.093 1.678 0 0.002 0 0.004 0 0.006v-0zM27 23h-2v-4h2zM27 18h-2v-4h2zM27 13h-2v-4h2z"></path>
</svg>
