<svg id="Layer_1" data-name="Layer 1" xmlns="http://www.w3.org/2000/svg" width="32" height="32" viewBox="0 0 32 32"><path d="M27.013,16a10.917,10.917,0,0,0-.915-4.378l.733-.733a4.035,4.035,0,1,0-5.707-5.707l-.733.732a10.945,10.945,0,0,0-8.757,0L10.9,5.182a4.035,4.035,0,0,0-5.707,5.707l.733.733a10.951,10.951,0,0,0,2.506,12.33L6.106,27.209a.5.5,0,1,0,.813.582L9.19,24.612a10.941,10.941,0,0,0,13.646,0l2.27,3.178a.5.5,0,1,0,.813-.581l-2.327-3.257A10.959,10.959,0,0,0,27.013,16ZM21.831,5.889a3.036,3.036,0,0,1,4.293,4.293l-.493.493a11.072,11.072,0,0,0-4.293-4.293ZM5.9,10.182a3.036,3.036,0,0,1,4.293-4.293l.494.493A11.072,11.072,0,0,0,6.4,10.675ZM6.013,16a10,10,0,1,1,10,10A10.011,10.011,0,0,1,6.013,16Z"/><path d="M16.513,15.793V12.5a.5.5,0,0,0-1,0V16a.5.5,0,0,0,.146.354l3.5,3.5a.5.5,0,0,0,.707-.708Z"/><path d="M9.513,15.5h-1a.5.5,0,1,0,0,1h1a.5.5,0,0,0,0-1Z"/><path d="M24.013,16a.5.5,0,0,0-.5-.5h-1a.5.5,0,0,0,0,1h1A.5.5,0,0,0,24.013,16Z"/><path d="M16.013,22a.5.5,0,0,0-.5.5v1a.5.5,0,1,0,1,0v-1A.5.5,0,0,0,16.013,22Z"/><path d="M16.013,10a.5.5,0,0,0,.5-.5v-1a.5.5,0,0,0-1,0v1A.5.5,0,0,0,16.013,10Z"/></svg>