<svg id="Layer_1" data-name="Layer 1" xmlns="http://www.w3.org/2000/svg" width="32" height="32" viewBox="0 0 32 32"><path d="M26.08551,12.62152l.73236-.73236a4.03548,4.03548,0,1,0-5.707-5.707l-.73236.73236a10.93909,10.93909,0,0,0-8.757,0l-.73236-.73236a4.03548,4.03548,0,1,0-5.707,5.707l.73236.73236a10.94869,10.94869,0,0,0,2.5058,12.33014l-2.327,3.25781a.49985.49985,0,0,0,.81348.58106L9.177,25.61218a10.94206,10.94206,0,0,0,13.64612-.00006l2.27014,3.17822a.49984.49984,0,1,0,.81348-.58105l-2.327-3.25775a10.94859,10.94859,0,0,0,2.50574-12.33ZM21.81787,6.88916a3.03559,3.03559,0,1,1,4.293,4.293l-.4928.4928a11.0744,11.0744,0,0,0-4.293-4.293Zm-15.92871,4.293a3.03559,3.03559,0,1,1,4.293-4.293l.4928.4928a11.0744,11.0744,0,0,0-4.293,4.293ZM16,27A10,10,0,1,1,26,17,10.01114,10.01114,0,0,1,16,27Z"/><path d="M20.64648,13.313l-6.313,6.31347-2.98-2.98a.5.5,0,0,0-.707.707L13.98,20.687a.4998.4998,0,0,0,.707,0l6.66651-6.667a.49995.49995,0,0,0-.707-.707Z"/></svg>