<svg id="Layer_1" data-name="Layer 1" xmlns="http://www.w3.org/2000/svg" width="32" height="32" viewBox="0 0 32 32"><path d="M19.5,16.5h-3v-3a.5.5,0,0,0-1,0v3h-3a.5.5,0,0,0,0,1h3v3a.5.5,0,0,0,1,0v-3h3a.5.5,0,0,0,0-1Z"/><path d="M26.086,12.622l.732-.733a4.035,4.035,0,1,0-5.707-5.707l-.733.732a10.942,10.942,0,0,0-8.756,0l-.733-.732a4.035,4.035,0,1,0-5.707,5.707l.732.733A10.951,10.951,0,0,0,8.42,24.952L6.093,28.209a.5.5,0,0,0,.814.582l2.27-3.179a10.941,10.941,0,0,0,13.646,0l2.27,3.178a.5.5,0,1,0,.814-.581L23.58,24.952a10.951,10.951,0,0,0,2.506-12.33ZM21.818,6.889a3.036,3.036,0,0,1,4.293,4.293l-.493.493a11.072,11.072,0,0,0-4.293-4.293ZM5.889,11.182a3.036,3.036,0,0,1,4.293-4.293l.493.493a11.072,11.072,0,0,0-4.293,4.293ZM16,27A10,10,0,1,1,26,17,10.011,10.011,0,0,1,16,27Z"/></svg>