<svg version="1.1" xmlns="http://www.w3.org/2000/svg" width="32" height="32" viewBox="0 0 32 32">
<title>alert</title>
<path d="M16 9c-0.552 0-1 0.448-1 1v0 5c0 0.552 0.448 1 1 1s1-0.448 1-1v0-5c0-0.552-0.448-1-1-1v0z"></path>
<path d="M17 18c0 0.552-0.448 1-1 1s-1-0.448-1-1c0-0.552 0.448-1 1-1s1 0.448 1 1z"></path>
<path d="M26 4h-20c-1.657 0-3 1.343-3 3v0 14c0 1.657 1.343 3 3 3v0h2v5.5c0 0.207 0.126 0.385 0.306 0.461l0.003 0.001c0.056 0.024 0.121 0.038 0.19 0.038 0 0 0.001 0 0.001 0h-0c0 0 0.001 0 0.001 0 0.138 0 0.263-0.056 0.353-0.146v0l5.56-5.561c0.181-0.18 0.431-0.292 0.707-0.293h10.879c1.657 0 3-1.343 3-3v0-14c0-1.657-1.343-3-3-3v0zM28 21c0 1.105-0.895 2-2 2v0h-10.879c-0.552 0.001-1.052 0.225-1.414 0.586l-4.707 4.707v-4.793c0-0.276-0.224-0.5-0.5-0.5v0h-2.5c-1.105 0-2-0.895-2-2v0-14c0-1.105 0.895-2 2-2v0h20c1.105 0 2 0.895 2 2v0z"></path>
</svg>
