<svg version="1.1" xmlns="http://www.w3.org/2000/svg" width="32" height="32" viewBox="0 0 32 32">
<title>align-justify</title>
<path d="M6.5 8h19c0.276 0 0.5-0.224 0.5-0.5s-0.224-0.5-0.5-0.5h-19c-0.276 0-0.5 0.224-0.5 0.5s0.224 0.5 0.5 0.5z"></path>
<path d="M25.5 11h-19c-0.276 0-0.5 0.224-0.5 0.5s0.224 0.5 0.5 0.5h19c0.276 0 0.5-0.224 0.5-0.5s-0.224-0.5-0.5-0.5z"></path>
<path d="M25.5 15h-19c-0.276 0-0.5 0.224-0.5 0.5s0.224 0.5 0.5 0.5h19c0.276 0 0.5-0.224 0.5-0.5s-0.224-0.5-0.5-0.5z"></path>
<path d="M25.5 19h-19c-0.276 0-0.5 0.224-0.5 0.5s0.224 0.5 0.5 0.5h19c0.276 0 0.5-0.224 0.5-0.5s-0.224-0.5-0.5-0.5z"></path>
<path d="M25.5 23h-19c-0.276 0-0.5 0.224-0.5 0.5s0.224 0.5 0.5 0.5h19c0.276 0 0.5-0.224 0.5-0.5s-0.224-0.5-0.5-0.5z"></path>
</svg>
