<svg version="1.1" xmlns="http://www.w3.org/2000/svg" width="32" height="32" viewBox="0 0 32 32">
<title>ambulance</title>
<path d="M30.5 6h-19c-0.276 0-0.5 0.224-0.5 0.5v3.5h-3.264c-0.953 0-1.81 0.53-2.236 1.382l-2.411 4.822-1.356 1.357c-0.473 0.472-0.733 1.1-0.733 1.767v4.172c0 0.276 0.224 0.5 0.5 0.5h2.551c0.232 1.14 1.242 2 2.449 2s2.217-0.86 2.449-2h14.101c0.232 1.14 1.242 2 2.449 2 1.211 0 2.222-0.866 2.45-2.010 0.019 0.002 0.033 0.010 0.051 0.010h2.5c0.276 0 0.5-0.224 0.5-0.5v-17c0-0.276-0.224-0.5-0.5-0.5zM6.395 11.829c0.255-0.511 0.769-0.829 1.341-0.829h3.264v5h-6.691l2.086-4.171zM6.5 25c-0.827 0-1.5-0.673-1.5-1.5s0.673-1.5 1.5-1.5 1.5 0.673 1.5 1.5-0.673 1.5-1.5 1.5zM6.5 21c-1.207 0-2.217 0.86-2.449 2h-2.051v-3.672c0-0.401 0.156-0.777 0.439-1.061l1.268-1.267h7.293v6h-2.051c-0.232-1.14-1.242-2-2.449-2zM25.5 25c-0.827 0-1.5-0.673-1.5-1.5s0.673-1.5 1.5-1.5 1.5 0.673 1.5 1.5-0.673 1.5-1.5 1.5zM30 23h-2c-0.018 0-0.032 0.008-0.050 0.010-0.228-1.144-1.239-2.010-2.45-2.010-1.207 0-2.217 0.86-2.449 2h-11.051v-16h18v16z"></path>
<path d="M16.5 16h2.5v2.5c0 0.276 0.224 0.5 0.5 0.5h3c0.276 0 0.5-0.224 0.5-0.5v-2.5h2.5c0.276 0 0.5-0.224 0.5-0.5v-3c0-0.276-0.224-0.5-0.5-0.5h-2.5v-2.5c0-0.276-0.224-0.5-0.5-0.5h-3c-0.276 0-0.5 0.224-0.5 0.5v2.5h-2.5c-0.276 0-0.5 0.224-0.5 0.5v3c0 0.276 0.224 0.5 0.5 0.5zM17 13h2.5c0.276 0 0.5-0.224 0.5-0.5v-2.5h2v2.5c0 0.276 0.224 0.5 0.5 0.5h2.5v2h-2.5c-0.276 0-0.5 0.224-0.5 0.5v2.5h-2v-2.5c0-0.276-0.224-0.5-0.5-0.5h-2.5v-2z"></path>
</svg>
