<svg version="1.1" xmlns="http://www.w3.org/2000/svg" width="32" height="32" viewBox="0 0 32 32">
<title>american-sign-language-interpreting</title>
<path d="M20 22.474l6.876-7.729c0.079-0.088 0.127-0.205 0.127-0.332 0-0.141-0.058-0.268-0.152-0.359l-0-0c-0.707-0.68-1.67-1.099-2.73-1.099-1.080 0-2.058 0.434-2.77 1.137l0-0-0.364 0.345v-10.436c0-1.105-0.895-2-2-2s-2 0.895-2 2v0 4.278c-0.289-0.175-0.637-0.278-1.010-0.278-0.865 0-1.6 0.556-1.867 1.33l-0.004 0.014c-0.311-0.215-0.696-0.344-1.111-0.344-0.372 0-0.72 0.103-1.017 0.283l0.009-0.005v-3.278c0-1.105-0.895-2-2-2s-2 0.895-2 2v0 13.491c0 0.004-0 0.009-0 0.013 0 1.292 0.554 2.455 1.437 3.264l0.003 0.003c0.331 0.286 0.544 0.701 0.56 1.166l0 0.003v1.060h-1.5c-0.276 0-0.5 0.224-0.5 0.5v0 4c0 0.276 0.224 0.5 0.5 0.5s0.5-0.224 0.5-0.5v0-3.5h11v3.5c0 0.276 0.224 0.5 0.5 0.5s0.5-0.224 0.5-0.5v0-4c0-0.276-0.224-0.5-0.5-0.5v0h-1.5v-0.173c0.040-0.919 0.419-1.742 1.015-2.354l-0.001 0.001zM14.987 10c0-0.552 0.448-1 1-1s1 0.448 1 1v0 4c0 0.552-0.448 1-1 1s-1-0.448-1-1v0-4zM12.987 10c0.552 0 1 0.448 1 1v0 4c0 0.552-0.448 1-1 1s-1-0.448-1-1v0-4c0-0.552 0.448-1 1-1v0zM10.987 25v-1.060c-0.014-0.757-0.351-1.433-0.878-1.898l-0.003-0.002c-0.689-0.631-1.119-1.535-1.119-2.539 0-0.003 0-0.006 0-0.009v0-13.493c0-0.552 0.448-1 1-1s1 0.448 1 1v0 9c0 0.001 0 0.002 0 0.003 0 1.102 0.893 1.995 1.995 1.995 0.868 0 1.606-0.554 1.881-1.328l0.004-0.014c0.314 0.215 0.702 0.343 1.12 0.343 1.104 0 1.999-0.895 2-1.999v-10c0-0.552 0.448-1 1-1s1 0.448 1 1v0 11.385l-1.703 1.615c-1.624 0.050-3.090 0.691-4.198 1.713l0.004-0.004c-0.1 0.092-0.162 0.223-0.162 0.369 0 0.276 0.224 0.5 0.5 0.5 0.131 0 0.25-0.050 0.339-0.132l-0 0c0.973-0.896 2.278-1.446 3.711-1.446 0.003 0 0.007 0 0.010 0h-0c0 0 0.001 0 0.001 0 0.133 0 0.254-0.052 0.344-0.137l-0 0 3.217-3.056c0.532-0.526 1.264-0.852 2.072-0.852 0.62 0 1.196 0.192 1.67 0.519l-0.010-0.006-6.54 7.351c-0.751 0.782-1.224 1.837-1.254 3.002l-0 0.006v0.173z"></path>
</svg>
