<svg id="Layer_1" data-name="Layer 1" xmlns="http://www.w3.org/2000/svg" width="32" height="32" viewBox="0 0 32 32"><path d="M29.85352,29.14648l-8.74231-8.74231a11.04289,11.04289,0,1,0-.707.707l8.74231,8.74231a.5.5,0,0,0,.707-.707ZM13,23a10.01426,10.01426,0,0,1-9.20282-6.09015L8.5,12.207l3.64648,3.64649a.49983.49983,0,0,0,.707,0L18,10.707V14.5a.5.5,0,0,0,1,0v-5a.49971.49971,0,0,0-.5-.5h-5a.5.5,0,0,0,0,1h3.793L12.5,14.793,8.85352,11.14648a.49983.49983,0,0,0-.707,0L3.42413,15.86884A9.99783,9.99783,0,1,1,13,23Z"/></svg>