<svg version="1.1" xmlns="http://www.w3.org/2000/svg" width="32" height="32" viewBox="0 0 32 32">
<title>anchor</title>
<path d="M27.5 22h-4c-0.276 0-0.5 0.224-0.5 0.5s0.224 0.5 0.5 0.5v0h3.054c-2.649 3.7-6 5.806-9.554 5.987v-12.987h3.5c0.276 0 0.5-0.224 0.5-0.5s-0.224-0.5-0.5-0.5v0h-3.5v-6.036c1.706-0.253 3-1.707 3-3.464 0-1.933-1.567-3.5-3.5-3.5s-3.5 1.567-3.5 3.5c0 1.757 1.294 3.211 2.981 3.462l0.019 0.002v6.036h-3.5c-0.276 0-0.5 0.224-0.5 0.5s0.224 0.5 0.5 0.5v0h3.5v12.987c-3.554-0.181-6.9-2.287-9.554-5.987h3.054c0.276 0 0.5-0.224 0.5-0.5s-0.224-0.5-0.5-0.5v0h-4c-0.276 0-0.5 0.224-0.5 0.5v0 4c0 0.276 0.224 0.5 0.5 0.5s0.5-0.224 0.5-0.5v0-2.42c2.91 3.83 6.593 5.92 10.5 5.92s7.589-2.090 10.5-5.92v2.42c0 0.276 0.224 0.5 0.5 0.5s0.5-0.224 0.5-0.5v0-4c0-0.276-0.224-0.5-0.5-0.5v0zM14 5.5c0-1.381 1.119-2.5 2.5-2.5s2.5 1.119 2.5 2.5c0 1.381-1.119 2.5-2.5 2.5v0c-1.381 0-2.5-1.119-2.5-2.5v0z"></path>
</svg>
