<svg version="1.1" xmlns="http://www.w3.org/2000/svg" width="32" height="32" viewBox="0 0 32 32">
<title>angle-double-down</title>
<path d="M20.293 17.293l-4.293 4.293-4.293-4.293c-0.18-0.174-0.425-0.281-0.695-0.281-0.552 0-1 0.448-1 1 0 0.27 0.107 0.515 0.281 0.695l5 5c0.181 0.181 0.431 0.293 0.707 0.293s0.526-0.112 0.707-0.293l5-5c0.174-0.18 0.281-0.425 0.281-0.695 0-0.552-0.448-1-1-1-0.27 0-0.515 0.107-0.695 0.281l0-0z"></path>
<path d="M15.293 14.707c0.181 0.181 0.431 0.293 0.707 0.293s0.526-0.112 0.707-0.293l5-5c0.174-0.18 0.281-0.425 0.281-0.695 0-0.552-0.448-1-1-1-0.27 0-0.515 0.107-0.695 0.281l-4.293 4.293-4.293-4.293c-0.18-0.174-0.425-0.281-0.695-0.281-0.552 0-1 0.448-1 1 0 0.27 0.107 0.515 0.281 0.695l-0-0z"></path>
</svg>
