<svg version="1.1" xmlns="http://www.w3.org/2000/svg" width="32" height="32" viewBox="0 0 32 32">
<title>apex-square</title>
<path d="M22.581 8.361c-0.344 0-0.688 0.139-0.92 0.371l-0.386 0.386 1.607 1.607 0.508-0.508c0.257-0.257 0.311-0.543 0.311-0.738 0-0.302-0.127-0.595-0.357-0.825-0.19-0.189-0.461-0.293-0.763-0.293z"></path>
<path d="M20.031 10.361l0.841-0.841 1.607 1.607-0.841 0.841-1.607-1.607z"></path>
<path d="M10.216 20.424l-1.233 2.592 2.592-1.233c0.044-0.021 0.082-0.050 0.125-0.073l-1.411-1.411c-0.022 0.043-0.052 0.081-0.073 0.125z"></path>
<path d="M10.81 19.583c-0.028 0.028-0.049 0.061-0.076 0.090l1.593 1.593c0.029-0.027 0.062-0.048 0.090-0.076l8.819-8.819-1.607-1.607-8.819 8.819z"></path>
<path d="M24.571 4h-17.142c-1.894 0-3.429 1.535-3.429 3.429v17.143c0 1.893 1.535 3.428 3.429 3.428h17.143c1.893 0 3.428-1.535 3.428-3.429v-17.142c0-1.894-1.535-3.429-3.429-3.429zM7.65 9.795l2.145-2.145c0.148-0.148 0.342-0.222 0.536-0.222s0.388 0.074 0.536 0.222l4.867 4.867-0.536 0.536-0.871-0.87-1.076 1.077-0.403-0.401 1.077-1.077-0.826-0.826-1.076 1.076-0.402-0.402 1.076-1.076-0.826-0.826-1.077 1.077-0.401-0.405 1.076-1.076-1.139-1.138-2.144 2.145 4.867 4.867-0.536 0.536-4.867-4.868c-0.295-0.295-0.295-0.775 0-1.071zM11.901 22.468l-3.314 1.576c-0.069 0.033-0.139 0.048-0.206 0.048-0.323 0-0.584-0.345-0.425-0.679l1.576-3.314c0.186-0.39 0.437-0.746 0.742-1.052l10.851-10.851c0.388-0.388 0.926-0.593 1.456-0.593 0.477 0 0.948 0.166 1.297 0.514 0.741 0.74 0.787 1.894 0.047 2.635l-10.972 10.973c-0.306 0.306-0.661 0.557-1.052 0.743zM24.35 22.205l-2.145 2.145c-0.148 0.148-0.342 0.222-0.536 0.222s-0.388-0.074-0.536-0.222l-4.867-4.867 0.536-0.536 4.867 4.867 2.145-2.145-1.138-1.138-1.077 1.077-0.403-0.403 1.077-1.077-0.826-0.826-1.076 1.077-0.402-0.401 1.077-1.077-0.826-0.826-1.076 1.076-0.403-0.403 1.076-1.076-0.87-0.87 0.536-0.536 4.867 4.867c0.295 0.296 0.295 0.776 0 1.072z"></path>
</svg>
