<svg version="1.1" xmlns="http://www.w3.org/2000/svg" width="32" height="32" viewBox="0 0 32 32">
<title>apex</title>
<path d="M11.124 15.626l0.75-0.75-6.813-6.813 3.003-3.003 1.593 1.593-1.507 1.508 0.562 0.563 1.507-1.507 1.156 1.156-1.506 1.507 0.563 0.563 1.507-1.507 1.156 1.157-1.507 1.508 0.563 0.561 1.506-1.507 1.219 1.219 0.75-0.75-6.813-6.813c-0.207-0.207-0.478-0.311-0.75-0.311-0.271 0-0.543 0.104-0.75 0.311l-3.002 3.002c-0.414 0.414-0.414 1.086 0 1.5l6.813 6.813z"></path>
<path d="M20.876 16.373l-0.75 0.75 1.218 1.218-1.507 1.507 0.563 0.563 1.507-1.507 1.156 1.157-1.507 1.508 0.563 0.561 1.506-1.507 1.157 1.157-1.507 1.507 0.563 0.563 1.507-1.507 1.593 1.593-3.003 3.003-6.813-6.813-0.75 0.75 6.813 6.813c0.209 0.207 0.48 0.311 0.752 0.311s0.543-0.104 0.75-0.311l3.003-3.003c0.414-0.414 0.414-1.086 0-1.5l-6.814-6.813z"></path>
<path d="M27.030 4.965c-0.489-0.488-1.148-0.72-1.816-0.72-0.742 0-1.496 0.287-2.038 0.83l-15.191 15.191c-0.428 0.428-0.779 0.926-1.039 1.472l-2.207 4.64c-0.222 0.467 0.143 0.95 0.595 0.95 0.094 0 0.191-0.021 0.288-0.067l4.64-2.207c0.546-0.26 1.044-0.611 1.472-1.039l15.362-15.361c1.036-1.036 0.971-2.653-0.066-3.689zM22.821 6.929l2.25 2.25-1.177 1.177-2.25-2.25 1.177-1.177zM6.177 25.823l1.726-3.629c0.029-0.061 0.070-0.115 0.102-0.175l1.976 1.976c-0.060 0.032-0.113 0.073-0.175 0.102l-3.629 1.726zM10.984 23.266c-0.039 0.039-0.086 0.069-0.126 0.106l-2.23-2.23c0.037-0.041 0.067-0.087 0.106-0.126l12.347-12.347 2.25 2.25-12.347 12.347zM26.346 7.904l-0.712 0.712-2.25-2.25 0.541-0.541c0.325-0.325 0.807-0.519 1.289-0.519 0.423 0 0.801 0.146 1.067 0.41 0.322 0.321 0.5 0.731 0.5 1.155 0 0.273-0.075 0.673-0.435 1.033z"></path>
</svg>
