<svg version="1.1" xmlns="http://www.w3.org/2000/svg" width="32" height="32" viewBox="0 0 32 32">
<title>archive</title>
<path d="M29 4h-26c-0.552 0-1 0.448-1 1v0 4c0 0.552 0.448 1 1 1v0h1v17c0 0.552 0.448 1 1 1v0h22c0.552 0 1-0.448 1-1v0-17h1c0.552 0 1-0.448 1-1v0-4c0-0.552-0.448-1-1-1v0zM27 27h-22v-17h22zM29 9.5v-0.5h-26v-4h26v4z"></path>
<path d="M13 17h6c1.105 0 2-0.895 2-2s-0.895-2-2-2v0h-6c-1.105 0-2 0.895-2 2s0.895 2 2 2v0zM13 14h6c0.552 0 1 0.448 1 1s-0.448 1-1 1v0h-6c-0.552 0-1-0.448-1-1s0.448-1 1-1v0z"></path>
</svg>
