<svg version="1.1" xmlns="http://www.w3.org/2000/svg" width="32" height="32" viewBox="0 0 32 32">
<title>area-chart</title>
<path d="M29.691 7.038c-0.057-0.024-0.123-0.038-0.192-0.038-0.138 0-0.263 0.056-0.353 0.146v0l-10.646 10.647-7.646-7.647c-0.091-0.091-0.216-0.147-0.354-0.147s-0.263 0.056-0.354 0.147v0l-7.146 7.147v-12.793c0-0.276-0.224-0.5-0.5-0.5s-0.5 0.224-0.5 0.5v0 21c0 0.276 0.224 0.5 0.5 0.5v0h27c0.276 0 0.5-0.224 0.5-0.5v0-18c-0-0.207-0.126-0.385-0.306-0.461l-0.003-0.001zM29 25h-26v-6.293l7.5-7.5 7.646 7.647c0.091 0.091 0.216 0.147 0.354 0.147s0.263-0.056 0.354-0.147v0l10.146-10.147z"></path>
</svg>
