<svg version="1.1" xmlns="http://www.w3.org/2000/svg" width="32" height="32" viewBox="0 0 32 32">
<title>arrows-alt</title>
<path d="M26 12.657c0.552 0 1-0.448 1-1v0-5.657c0-0.552-0.448-1-1-1v0h-5.657c-0.552 0-1 0.448-1 1s0.448 1 1 1v0h3.243l-7.586 7.586-7.586-7.586h3.243c0.552 0 1-0.448 1-1s-0.448-1-1-1v0h-5.657c-0.552 0-1 0.448-1 1v0 5.657c0 0.552 0.448 1 1 1s1-0.448 1-1v0-3.243l7.586 7.586-7.586 7.586v-3.243c0-0.552-0.448-1-1-1s-1 0.448-1 1v0 5.657c0 0.552 0.448 1 1 1v0h5.657c0.552 0 1-0.448 1-1s-0.448-1-1-1v0h-3.243l7.586-7.586 7.586 7.586h-3.243c-0.552 0-1 0.448-1 1s0.448 1 1 1v0h5.657c0.552 0 1-0.448 1-1v0-5.657c0-0.552-0.448-1-1-1s-1 0.448-1 1v0 3.243l-7.586-7.586 7.586-7.586v3.243c0 0.552 0.448 1 1 1v0z"></path>
</svg>
