<svg version="1.1" xmlns="http://www.w3.org/2000/svg" width="32" height="32" viewBox="0 0 32 32">
<title>arrow-down-left-alt</title>
<path d="M25.854 12.146l-6-6c-0.091-0.091-0.216-0.147-0.354-0.147s-0.263 0.056-0.354 0.147v0l-6.646 6.647-5.646-5.647c-0.091-0.090-0.216-0.145-0.355-0.145-0.069 0-0.134 0.014-0.194 0.038l0.003-0.001c-0.183 0.077-0.309 0.255-0.309 0.462v0 18c0 0.276 0.224 0.5 0.5 0.5v0h18c0 0 0.001 0 0.001 0 0.276 0 0.5-0.224 0.5-0.5 0-0.138-0.056-0.263-0.147-0.354v0l-5.647-5.646 6.647-6.646c0.091-0.091 0.147-0.216 0.147-0.354s-0.056-0.263-0.147-0.354v0z"></path>
</svg>
