<svg version="1.1" xmlns="http://www.w3.org/2000/svg" width="32" height="32" viewBox="0 0 32 32">
<title>arrow-right-alt</title>
<path d="M27.847 15.64l-13-12.5c-0.089-0.087-0.211-0.141-0.345-0.141-0.071 0-0.139 0.015-0.201 0.043l0.003-0.001c-0.178 0.079-0.3 0.254-0.3 0.458 0 0.001 0 0.001 0 0.002v-0 7.5h-9.504c-0.276 0-0.5 0.224-0.5 0.5v0 9c0 0.276 0.224 0.5 0.5 0.5v0h9.5v7.5c0 0 0 0 0 0 0 0.276 0.224 0.5 0.5 0.5 0.135 0 0.257-0.053 0.347-0.14l-0 0 13-12.5c0.094-0.091 0.153-0.219 0.153-0.36s-0.059-0.269-0.153-0.36l-0-0z"></path>
</svg>
