<svg version="1.1" xmlns="http://www.w3.org/2000/svg" width="32" height="32" viewBox="0 0 32 32">
<title>arrow-circle-up</title>
<path d="M2 16c0 7.732 6.268 14 14 14s14-6.268 14-14c0-7.732-6.268-14-14-14v0c-7.729 0.009-13.991 6.271-14 13.999v0.001zM16.707 9.393l4.5 4.5c0.188 0.182 0.305 0.437 0.305 0.719 0 0.552-0.448 1-1 1-0.282 0-0.537-0.117-0.719-0.305l-2.793-2.793v9.486c0 0.552-0.448 1-1 1s-1-0.448-1-1v0-9.486l-2.793 2.793c-0.182 0.188-0.437 0.305-0.719 0.305-0.552 0-1-0.448-1-1 0-0.282 0.117-0.537 0.305-0.719l4.5-4.5c0.181-0.181 0.431-0.293 0.707-0.293s0.526 0.112 0.707 0.293v0z"></path>
</svg>
