<svg version="1.1" xmlns="http://www.w3.org/2000/svg" width="32" height="32" viewBox="0 0 32 32">
<title>arrow-circle-left</title>
<path d="M16 30c7.732 0 14-6.268 14-14s-6.268-14-14-14c-7.732 0-14 6.268-14 14v0c0.009 7.729 6.271 13.991 13.999 14h0.001zM9.393 15.293l4.5-4.5c0.182-0.188 0.437-0.305 0.719-0.305 0.552 0 1 0.448 1 1 0 0.282-0.117 0.537-0.305 0.719l-2.793 2.793h9.486c0.552 0 1 0.448 1 1s-0.448 1-1 1v0h-9.486l2.793 2.793c0.188 0.182 0.305 0.437 0.305 0.719 0 0.552-0.448 1-1 1-0.282 0-0.537-0.117-0.719-0.305l-4.5-4.5c-0.181-0.181-0.293-0.431-0.293-0.707s0.112-0.526 0.293-0.707v0z"></path>
</svg>
