<svg version="1.1" xmlns="http://www.w3.org/2000/svg" width="32" height="32" viewBox="0 0 32 32">
<title>arrow-down-right-alt</title>
<path d="M25.691 7.038c-0.057-0.024-0.123-0.038-0.192-0.038-0.138 0-0.263 0.056-0.353 0.146v0l-5.646 5.647-6.646-6.647c-0.091-0.091-0.216-0.147-0.354-0.147s-0.263 0.056-0.354 0.147v0l-6 6c-0.091 0.091-0.147 0.216-0.147 0.354s0.056 0.263 0.147 0.354v0l6.647 6.646-5.647 5.646c-0.091 0.091-0.147 0.216-0.147 0.354 0 0.276 0.224 0.5 0.5 0.5 0 0 0.001 0 0.001 0h18c0.276 0 0.5-0.224 0.5-0.5v0-18c-0-0.207-0.126-0.385-0.306-0.461l-0.003-0.001z"></path>
</svg>
