<svg version="1.1" xmlns="http://www.w3.org/2000/svg" width="32" height="32" viewBox="0 0 32 32">
<title>arrow-down-alt</title>
<path d="M28.96 14.3c-0.079-0.178-0.254-0.3-0.458-0.3-0.001 0-0.001 0-0.002 0h-7.5v-9.5c0-0.276-0.224-0.5-0.5-0.5v0h-9c-0.276 0-0.5 0.224-0.5 0.5v0 9.5h-7.5c0 0 0 0 0 0-0.276 0-0.5 0.224-0.5 0.5 0 0.135 0.053 0.257 0.14 0.347l-0-0 12.5 13c0.091 0.094 0.219 0.153 0.36 0.153s0.269-0.059 0.36-0.153l0-0 12.5-13c0.087-0.090 0.141-0.213 0.141-0.348 0-0.072-0.015-0.14-0.042-0.202l0.001 0.003z"></path>
</svg>
