<svg version="1.1" xmlns="http://www.w3.org/2000/svg" width="32" height="32" viewBox="0 0 32 32">
<title>arrow-circle-down</title>
<path d="M30 16c0-7.732-6.268-14-14-14s-14 6.268-14 14c0 7.732 6.268 14 14 14v0c7.729-0.009 13.991-6.271 14-13.999v-0.001zM15.293 22.607l-4.5-4.5c-0.188-0.182-0.305-0.437-0.305-0.719 0-0.552 0.448-1 1-1 0.282 0 0.537 0.117 0.719 0.305l2.793 2.793v-9.486c0-0.552 0.448-1 1-1s1 0.448 1 1v0 9.486l2.793-2.793c0.182-0.188 0.437-0.305 0.719-0.305 0.552 0 1 0.448 1 1 0 0.282-0.117 0.537-0.305 0.719l-4.5 4.5c-0.181 0.181-0.431 0.293-0.707 0.293s-0.526-0.112-0.707-0.293v0z"></path>
</svg>
