<svg version="1.1" xmlns="http://www.w3.org/2000/svg" width="32" height="32" viewBox="0 0 32 32">
<title>arrow-circle-o-up</title>
<path d="M16 2c-7.732 0-14 6.268-14 14s6.268 14 14 14c7.732 0 14-6.268 14-14v0c-0.009-7.729-6.271-13.991-13.999-14h-0.001zM16 29c-7.18 0-13-5.82-13-13s5.82-13 13-13c7.18 0 13 5.82 13 13v0c-0.009 7.176-5.824 12.991-12.999 13h-0.001z"></path>
<path d="M16.707 9.393c-0.181-0.181-0.431-0.293-0.707-0.293s-0.526 0.112-0.707 0.293l-4.5 4.5c-0.188 0.182-0.305 0.437-0.305 0.719 0 0.552 0.448 1 1 1 0.282 0 0.537-0.117 0.719-0.305l2.793-2.793v9.486c0 0.552 0.448 1 1 1s1-0.448 1-1v0-9.486l2.793 2.793c0.182 0.188 0.437 0.305 0.719 0.305 0.552 0 1-0.448 1-1 0-0.282-0.117-0.537-0.305-0.719l-0-0z"></path>
</svg>
