<svg version="1.1" xmlns="http://www.w3.org/2000/svg" width="32" height="32" viewBox="0 0 32 32">
<title>arrow-down</title>
<path d="M25.707 17.293c-0.181-0.181-0.431-0.293-0.707-0.293s-0.526 0.112-0.707 0.293l-7.293 7.293v-19.586c0-0.552-0.448-1-1-1s-1 0.448-1 1v0 19.586l-7.293-7.293c-0.18-0.174-0.425-0.281-0.695-0.281-0.552 0-1 0.448-1 1 0 0.27 0.107 0.515 0.281 0.695l9 9c0.181 0.181 0.431 0.293 0.707 0.293s0.526-0.112 0.707-0.293l9-9c0.181-0.181 0.293-0.431 0.293-0.707s-0.112-0.526-0.293-0.707v0z"></path>
</svg>
