<svg version="1.1" xmlns="http://www.w3.org/2000/svg" width="32" height="32" viewBox="0 0 32 32">
<title>arrow-up-right-alt</title>
<path d="M25.5 6h-18c-0 0-0.001 0-0.001 0-0.276 0-0.5 0.224-0.5 0.5 0 0.138 0.056 0.263 0.147 0.354v0l5.647 5.646-6.647 6.646c-0.091 0.091-0.147 0.216-0.147 0.354s0.056 0.263 0.147 0.354v0l6 6c0.091 0.091 0.216 0.147 0.354 0.147s0.263-0.056 0.354-0.147v0l6.646-6.647 5.646 5.647c0.091 0.091 0.216 0.147 0.354 0.147 0.276 0 0.5-0.224 0.5-0.5 0-0 0-0.001 0-0.001v0-18c0-0.276-0.224-0.5-0.5-0.5v0z"></path>
</svg>
