<svg version="1.1" xmlns="http://www.w3.org/2000/svg" width="32" height="32" viewBox="0 0 32 32">
<title>assistive-listening-systems</title>
<path d="M12.5 2c-4.692 0.006-8.494 3.808-8.5 8.499v0.001c0 0.276 0.224 0.5 0.5 0.5s0.5-0.224 0.5-0.5v0c0-4.142 3.358-7.5 7.5-7.5s7.5 3.358 7.5 7.5v0c0.011 3.332-1.393 4.964-2.879 6.693-1.535 1.786-3.121 3.632-3.121 7.307-0.003 2.484-2.016 4.497-4.5 4.5h-0c-0.276 0-0.5 0.224-0.5 0.5s0.224 0.5 0.5 0.5v0c3.036-0.003 5.497-2.464 5.5-5.5v-0c0-3.3 1.4-4.931 2.879-6.654 1.541-1.791 3.134-3.646 3.121-7.346-0.006-4.692-3.808-8.494-8.499-8.5h-0.001z"></path>
<path d="M9.5 23c1.933 0 3.5-1.567 3.5-3.5s-1.567-3.5-3.5-3.5c-1.933 0-3.5 1.567-3.5 3.5v0c0 0.255 0.028 0.502 0.079 0.741l-0.004-0.023-2.636 2.636c-0.271 0.271-0.439 0.646-0.439 1.061s0.168 0.789 0.439 1.061l0.586 0.586c0.271 0.271 0.646 0.439 1.061 0.439s0.789-0.168 1.061-0.439l2.636-2.636c0.216 0.047 0.463 0.075 0.718 0.075h0zM9.5 17c1.381 0 2.5 1.119 2.5 2.5s-1.119 2.5-2.5 2.5c-1.381 0-2.5-1.119-2.5-2.5v0c0-1.381 1.119-2.5 2.5-2.5v0zM5.439 24.854c-0.090 0.090-0.215 0.146-0.354 0.146s-0.263-0.056-0.354-0.146v0l-0.586-0.587c-0.090-0.090-0.146-0.215-0.146-0.353s0.056-0.263 0.146-0.353v0l2.33-2.33c0.314 0.541 0.752 0.979 1.276 1.284l0.017 0.009z"></path>
<path d="M23.322 5.674c-0.18 0.078-0.305 0.255-0.305 0.46 0 0.070 0.015 0.137 0.041 0.198l-0.001-0.003c0.596 1.379 0.943 2.984 0.943 4.671s-0.347 3.292-0.973 4.749l0.030-0.078c-0.025 0.057-0.040 0.124-0.040 0.195 0 0.206 0.124 0.382 0.301 0.459l0.003 0.001c0.058 0.025 0.125 0.040 0.197 0.040 0.206 0 0.383-0.124 0.459-0.302l0.001-0.003c0.646-1.494 1.021-3.234 1.021-5.061s-0.375-3.567-1.053-5.146l0.032 0.085c-0.078-0.181-0.255-0.305-0.46-0.305-0.071 0-0.139 0.015-0.2 0.041l0.003-0.001z"></path>
<path d="M27.664 4.383c-0.078-0.181-0.255-0.306-0.461-0.306-0.276 0-0.5 0.224-0.5 0.5 0 0.070 0.014 0.137 0.041 0.198l-0.001-0.003c0.795 1.838 1.258 3.979 1.258 6.228s-0.463 4.39-1.298 6.332l0.040-0.104c-0.025 0.057-0.039 0.124-0.039 0.194 0 0.206 0.125 0.383 0.303 0.46l0.003 0.001c0.057 0.025 0.122 0.039 0.192 0.039 0.001 0 0.002 0 0.002 0h-0c0.001 0 0.002 0 0.003 0 0.204 0 0.379-0.122 0.457-0.297l0.001-0.003c0.845-1.953 1.336-4.228 1.336-6.617s-0.491-4.664-1.378-6.728l0.042 0.111z"></path>
<path d="M15.8 14.894c0.084 0.066 0.191 0.105 0.307 0.105 0.159 0 0.301-0.074 0.392-0.19l0.001-0.001c0.935-1.094 1.503-2.526 1.503-4.090 0-0.074-0.001-0.148-0.004-0.221l0 0.011c-0.002-3.038-2.462-5.502-5.499-5.508h-0.001l-0.5 0.008v0.011l-0.087 0.007c-2.764 0.248-4.914 2.553-4.914 5.361 0 0.040 0 0.080 0.001 0.119l-0-0.006c-0.001 0.029-0.001 0.062-0.001 0.096 0 0.778 0.193 1.512 0.533 2.155l-0.012-0.025c0.133 0.253 0.247 0.548 0.327 0.856l0.007 0.030c0.046 0.232 0.248 0.405 0.491 0.405 0.276 0 0.5-0.224 0.5-0.5 0-0.046-0.006-0.090-0.018-0.132l0.001 0.004c-0.102-0.414-0.239-0.775-0.413-1.115l0.013 0.029c-0.27-0.494-0.429-1.083-0.429-1.708 0-0.033 0-0.066 0.001-0.098l-0 0.005c-0.001-0.029-0.001-0.063-0.001-0.096 0-2.292 1.753-4.175 3.992-4.381l0.017-0.001c0.11-0.009 0.239-0.014 0.368-0.014 0.042 0 0.083 0.001 0.125 0.002l-0.006-0h0.255c2.376 0.142 4.25 2.104 4.25 4.504v0c0.003 0.068 0.005 0.147 0.005 0.227 0 1.324-0.488 2.533-1.293 3.459l0.005-0.006c-0.067 0.084-0.107 0.192-0.107 0.309 0 0.159 0.074 0.3 0.189 0.392l0.001 0.001z"></path>
</svg>
