<svg version="1.1" xmlns="http://www.w3.org/2000/svg" width="32" height="32" viewBox="0 0 32 32">
<title>asterisk</title>
<path d="M26.709 21.317l-9.209-5.317 9.209-5.317c0.152-0.088 0.253-0.249 0.253-0.435 0-0.276-0.224-0.5-0.5-0.5-0.093 0-0.18 0.025-0.255 0.070l0.002-0.001-9.209 5.317v-10.634c0-0.276-0.224-0.5-0.5-0.5s-0.5 0.224-0.5 0.5v0 10.634l-9.209-5.317c-0.072-0.043-0.16-0.069-0.253-0.069-0.276 0-0.5 0.224-0.5 0.5 0 0.185 0.101 0.347 0.25 0.433l0.002 0.001 9.209 5.317-9.209 5.317c-0.151 0.088-0.25 0.249-0.25 0.433 0 0.276 0.224 0.5 0.5 0.5v0c0 0 0.001 0 0.002 0 0.092 0 0.177-0.025 0.251-0.068l-0.002 0.001 9.209-5.317v10.634c0 0.276 0.224 0.5 0.5 0.5s0.5-0.224 0.5-0.5v0-10.634l9.209 5.317c0.072 0.042 0.158 0.067 0.25 0.067 0.184 0 0.345-0.099 0.432-0.248l0.001-0.002c0.042-0.072 0.067-0.158 0.067-0.25 0-0.184-0.099-0.345-0.248-0.432l-0.002-0.001z"></path>
</svg>
