<svg version="1.1" xmlns="http://www.w3.org/2000/svg" width="32" height="32" viewBox="0 0 32 32">
<title>at</title>
<path d="M16.797 4.026c-3.639-0.236-7.155 1.165-9.624 3.845-2.469 2.679-3.576 6.307-3.038 9.954 0.748 5.072 4.802 9.188 9.859 10.011 0.665 0.108 1.329 0.162 1.988 0.162 2.985 0 5.853-1.094 8.085-3.128 0.204-0.186 0.219-0.502 0.032-0.706-0.186-0.204-0.501-0.219-0.706-0.033-2.497 2.277-5.865 3.268-9.239 2.719-4.632-0.754-8.345-4.525-9.029-9.17-0.494-3.346 0.521-6.674 2.783-9.13 2.263-2.457 5.477-3.741 8.824-3.525 5.758 0.371 10.268 5.337 10.268 11.305v2.17c0 1.378-1.121 2.5-2.5 2.5s-2.5-1.122-2.5-2.5v-8c0-0.276-0.224-0.5-0.5-0.5s-0.5 0.224-0.5 0.5v2.19c-1.075-1.62-2.914-2.69-5-2.69-3.309 0-6 2.692-6 6s2.691 6 6 6c2.134 0 4.006-1.123 5.070-2.806 0.323 1.598 1.738 2.806 3.43 2.806 1.93 0 3.5-1.57 3.5-3.5v-2.17c0-6.493-4.921-11.898-11.203-12.304zM16 21c-2.757 0-5-2.243-5-5s2.243-5 5-5 5 2.243 5 5-2.243 5-5 5z"></path>
</svg>
