<svg version="1.1" xmlns="http://www.w3.org/2000/svg" width="32" height="32" viewBox="0 0 32 32">
<title>audio-description</title>
<path d="M26 7h-20c-1.657 0-3 1.343-3 3v0 12c0 1.657 1.343 3 3 3v0h6.24l3.35 4.787c0.092 0.13 0.241 0.214 0.41 0.214s0.318-0.084 0.409-0.212l0.001-0.002 3.351-4.787h6.239c1.657 0 3-1.343 3-3v0-12c0-1.657-1.343-3-3-3v0zM28 22c0 1.105-0.895 2-2 2v0h-6.5c-0.169 0-0.317 0.084-0.408 0.211l-0.001 0.002-3.091 4.415-3.090-4.415c-0.092-0.13-0.241-0.213-0.409-0.213-0 0-0 0-0.001 0h-6.5c-1.105 0-2-0.895-2-2v0-12c0-1.105 0.895-2 2-2v0h20c1.105 0 2 0.895 2 2v0z"></path>
<path d="M20 11h-2.5c-0.276 0-0.5 0.224-0.5 0.5v0 9c0 0.276 0.224 0.5 0.5 0.5v0h2.5c2.761 0 5-2.239 5-5s-2.239-5-5-5v0zM20 20h-2v-8h2c2.209 0 4 1.791 4 4s-1.791 4-4 4v0z"></path>
<path d="M12.211 11.308c-0.077-0.182-0.254-0.308-0.461-0.308h-0.5c-0.207 0-0.384 0.126-0.46 0.305l-0.001 0.003-3.75 9c-0.019 0.050-0.029 0.108-0.029 0.169 0 0.276 0.224 0.5 0.5 0.5 0.198 0 0.369-0.115 0.45-0.282l0.001-0.003 1.122-2.692h4.834l1.122 2.692c0.077 0.182 0.254 0.308 0.461 0.308h0c0 0 0.001 0 0.001 0 0.069 0 0.134-0.014 0.194-0.040l-0.003 0.001c0.182-0.077 0.307-0.255 0.307-0.461 0-0.069-0.014-0.135-0.039-0.195l0.001 0.003zM9.5 17l2-4.8 2 4.8z"></path>
</svg>
