<svg version="1.1" xmlns="http://www.w3.org/2000/svg" width="32" height="32" viewBox="0 0 32 32">
<title>awesome-face</title>
<path d="M16 4c-6.627 0-12 5.373-12 12s5.373 12 12 12c6.627 0 12-5.373 12-12v0c-0.007-6.624-5.376-11.993-11.999-12h-0.001zM16 27c-6.075 0-11-4.925-11-11s4.925-11 11-11c6.075 0 11 4.925 11 11v0c-0.007 6.072-4.928 10.993-10.999 11h-0.001z"></path>
<path d="M7.606 15h5.788c0 0 0.001 0 0.001 0 0.241 0 0.442-0.17 0.489-0.397l0.001-0.003c0.071-0.33 0.112-0.709 0.115-1.098v-0.002c0-2.481-1.57-4.5-3.5-4.5s-3.5 2.019-3.5 4.5c0.003 0.391 0.044 0.77 0.122 1.137l-0.007-0.037c0.048 0.23 0.249 0.4 0.49 0.4 0 0 0.001 0 0.001 0h-0zM10.5 10c0.189 0.001 0.371 0.032 0.542 0.087l-0.013-0.004c-0.61 0.199-1.043 0.764-1.043 1.429 0 0.828 0.672 1.5 1.5 1.5 0.576 0 1.076-0.325 1.327-0.801l0.004-0.008c0.116 0.388 0.183 0.834 0.183 1.296 0 0.001 0 0.001 0 0.002v-0c-0 0.176-0.012 0.35-0.034 0.52l0.002-0.020h-4.936c-0.020-0.15-0.032-0.324-0.032-0.5v-0c0-1.93 1.122-3.5 2.5-3.5z"></path>
<path d="M19.5 9c-1.93 0-3.5 2.019-3.5 4.5 0.003 0.391 0.044 0.77 0.122 1.137l-0.007-0.037c0.048 0.23 0.249 0.4 0.49 0.4 0 0 0.001 0 0.001 0h5.788c0 0 0.001 0 0.001 0 0.241 0 0.442-0.17 0.489-0.397l0.001-0.003c0.071-0.33 0.112-0.709 0.115-1.098v-0.002c0-2.481-1.57-4.5-3.5-4.5zM21.817 12.2c0.116 0.388 0.183 0.834 0.183 1.296 0 0.002 0 0.003 0 0.005v-0c-0 0.176-0.012 0.35-0.034 0.52l0.002-0.020h-4.936c-0.020-0.15-0.032-0.324-0.032-0.5v-0c0-1.93 1.122-3.5 2.5-3.5 0.189 0.001 0.371 0.032 0.542 0.087l-0.013-0.004c-0.61 0.199-1.043 0.764-1.043 1.429 0 0.828 0.672 1.5 1.5 1.5 0.576 0 1.076-0.325 1.327-0.801l0.004-0.008z"></path>
<path d="M22.439 17h-14.939c-0.276 0-0.5 0.224-0.5 0.5s0.224 0.5 0.5 0.5v0h0.631c0.633 4.020 3.728 7 7.369 7 3.775 0 6.972-3.2 7.437-7.446 0.002-0.016 0.003-0.035 0.003-0.054 0-0.276-0.224-0.5-0.5-0.5-0.001 0-0.002 0-0.003 0h0zM15.5 24c-0.889-0.003-1.729-0.21-2.477-0.575l0.034 0.015c0.28-1.951 1.938-3.434 3.942-3.44h0.001c0.001 0 0.003 0 0.004 0 1.317 0 2.483 0.645 3.2 1.635l0.008 0.012c-1.107 1.41-2.8 2.318-4.706 2.353l-0.006 0z"></path>
</svg>
