<svg version="1.1" xmlns="http://www.w3.org/2000/svg" width="32" height="32" viewBox="0 0 32 32">
<title>balance-scale</title>
<path d="M29.973 19.336l-4.5-13c-0.074-0.178-0.246-0.301-0.447-0.301-0.009 0-0.018 0-0.027 0.001l0.001-0v-0.036h-6.050c-0.24-1.151-1.245-2.002-2.45-2.002s-2.21 0.852-2.447 1.986l-0.003 0.016h-6.050v0.035c-0.008-0-0.017-0.001-0.026-0.001-0.201 0-0.373 0.123-0.445 0.298l-0.001 0.003-4.5 13c-0.018 0.049-0.028 0.106-0.028 0.165 0 0.276 0.224 0.5 0.5 0.5 0 0 0.001 0 0.001 0h9c0 0 0 0 0.001 0 0.276 0 0.5-0.224 0.5-0.5 0-0.059-0.010-0.115-0.029-0.168l0.001 0.003-4.273-12.336h5.35c0.208 0.982 0.968 1.742 1.934 1.947l0.016 0.003v18.050h-5.5c-0.276 0-0.5 0.224-0.5 0.5s0.224 0.5 0.5 0.5v0h12c0.276 0 0.5-0.224 0.5-0.5s-0.224-0.5-0.5-0.5v0h-5.5v-18.050c0.982-0.208 1.742-0.968 1.947-1.934l0.003-0.016h5.35l-4.273 12.336c-0.018 0.049-0.028 0.105-0.028 0.164 0 0.276 0.224 0.5 0.5 0.5 0 0 0 0 0.001 0h9c0 0 0 0 0.001 0 0.276 0 0.5-0.224 0.5-0.5 0-0.059-0.010-0.115-0.029-0.168l0.001 0.003zM4.2 19l3.8-10.972 3.8 10.972zM16.5 8c-0.828 0-1.5-0.672-1.5-1.5s0.672-1.5 1.5-1.5c0.828 0 1.5 0.672 1.5 1.5v0c0 0.828-0.672 1.5-1.5 1.5v0zM21.2 19l3.8-10.972 3.8 10.972z"></path>
</svg>
