<svg version="1.1" xmlns="http://www.w3.org/2000/svg" width="32" height="32" viewBox="0 0 32 32">
<title>ban</title>
<path d="M16 4c-6.627 0-12 5.373-12 12s5.373 12 12 12c6.627 0 12-5.373 12-12v0c-0.007-6.624-5.376-11.993-11.999-12h-0.001zM16 5c0.003 0 0.006 0 0.009 0 2.858 0 5.461 1.094 7.412 2.887l-0.008-0.007-15.533 15.533c-1.785-1.948-2.879-4.555-2.879-7.418 0-6.072 4.923-10.995 10.995-10.995 0.002 0 0.003 0 0.005 0h-0zM16 27c-0.003 0-0.006 0-0.009 0-2.858 0-5.461-1.094-7.412-2.887l0.008 0.007 15.533-15.533c1.785 1.948 2.879 4.555 2.879 7.418 0 6.072-4.923 10.995-10.995 10.995-0.002 0-0.003 0-0.005 0h0z"></path>
</svg>
