<svg version="1.1" xmlns="http://www.w3.org/2000/svg" width="32" height="32" viewBox="0 0 32 32">
<title>bar-chart</title>
<path d="M29.5 25h-2.5v-6.5c0-0.276-0.224-0.5-0.5-0.5v0h-5c-0.276 0-0.5 0.224-0.5 0.5v0 6.5h-2v-18.5c0-0.276-0.224-0.5-0.5-0.5v0h-5c-0.276 0-0.5 0.224-0.5 0.5v0 18.5h-2v-12.5c0-0.276-0.224-0.5-0.5-0.5v0h-5c-0.276 0-0.5 0.224-0.5 0.5v0 12.5h-2.5c-0.276 0-0.5 0.224-0.5 0.5s0.224 0.5 0.5 0.5v0h27c0.276 0 0.5-0.224 0.5-0.5s-0.224-0.5-0.5-0.5v0zM10 25h-4v-12h4zM18 25h-4v-18h4zM26 25h-4v-6h4z"></path>
</svg>
