<svg version="1.1" xmlns="http://www.w3.org/2000/svg" width="32" height="32" viewBox="0 0 32 32">
<title>barcode</title>
<path d="M23.5 10c-0.276 0-0.5 0.224-0.5 0.5v0 11c0 0.276 0.224 0.5 0.5 0.5s0.5-0.224 0.5-0.5v0-11c0-0.276-0.224-0.5-0.5-0.5v0z"></path>
<path d="M25.5 10c-0.276 0-0.5 0.224-0.5 0.5v0 11c0 0.276 0.224 0.5 0.5 0.5s0.5-0.224 0.5-0.5v0-11c0-0.276-0.224-0.5-0.5-0.5v0z"></path>
<path d="M21.5 10c-0.276 0-0.5 0.224-0.5 0.5v0 11c0 0.276 0.224 0.5 0.5 0.5s0.5-0.224 0.5-0.5v0-11c0-0.276-0.224-0.5-0.5-0.5v0z"></path>
<path d="M18.5 10c-0.276 0-0.5 0.224-0.5 0.5v0 11c0 0.276 0.224 0.5 0.5 0.5s0.5-0.224 0.5-0.5v0-11c0-0.276-0.224-0.5-0.5-0.5v0z"></path>
<path d="M14.5 10c-0.276 0-0.5 0.224-0.5 0.5v0 11c0 0.276 0.224 0.5 0.5 0.5s0.5-0.224 0.5-0.5v0-11c0-0.276-0.224-0.5-0.5-0.5v0z"></path>
<path d="M8.5 10c-0.276 0-0.5 0.224-0.5 0.5v0 11c0 0.276 0.224 0.5 0.5 0.5s0.5-0.224 0.5-0.5v0-11c0-0.276-0.224-0.5-0.5-0.5v0z"></path>
<path d="M6.5 10c-0.276 0-0.5 0.224-0.5 0.5v0 11c0 0.276 0.224 0.5 0.5 0.5s0.5-0.224 0.5-0.5v0-11c0-0.276-0.224-0.5-0.5-0.5v0z"></path>
<path d="M11.5 10c-0.276 0-0.5 0.224-0.5 0.5v0 11c0 0.276 0.224 0.5 0.5 0.5s0.5-0.224 0.5-0.5v0-11c0-0.276-0.224-0.5-0.5-0.5v0z"></path>
<path d="M28 6h-24c-1.105 0-2 0.895-2 2v0 16c0 1.105 0.895 2 2 2v0h24c1.105 0 2-0.895 2-2v0-16c0-1.105-0.895-2-2-2v0zM29 24c0 0.552-0.448 1-1 1v0h-24c-0.552 0-1-0.448-1-1v0-16c0-0.552 0.448-1 1-1v0h24c0.552 0 1 0.448 1 1v0z"></path>
</svg>
