<svg version="1.1" xmlns="http://www.w3.org/2000/svg" width="32" height="32" viewBox="0 0 32 32">
<title>bath</title>
<path d="M29.5 17h-5c-0.276 0-0.5 0.224-0.5 0.5s0.224 0.5 0.5 0.5h4.5v1h-4.5c-0.276 0-0.5 0.224-0.5 0.5s0.224 0.5 0.5 0.5h2.359l-1.087 4.349c-0.389 1.561-1.786 2.651-3.395 2.651h-12.754c-1.609 0-3.006-1.090-3.396-2.651l-1.086-4.349h9.359c0.276 0 0.5-0.224 0.5-0.5s-0.224-0.5-0.5-0.5h-11.5v-1h11.5c0.276 0 0.5-0.224 0.5-0.5s-0.224-0.5-0.5-0.5h-8.375v-12.47c0-0.844 0.687-1.53 1.534-1.53 0.402 0 0.797 0.163 1.082 0.448l0.299 0.298 0.97 4.852c0.036 0.181 0.169 0.327 0.346 0.38 0.046 0.015 0.095 0.022 0.144 0.022 0.131 0 0.259-0.051 0.354-0.146l4-4c0.131-0.13 0.179-0.322 0.125-0.498s-0.199-0.309-0.381-0.345l-4.851-0.97-0.299-0.3c-0.478-0.478-1.113-0.741-1.793-0.741-1.396 0-2.53 1.135-2.53 2.53v12.47h-2.625c-0.276 0-0.5 0.224-0.5 0.5v2c0 0.276 0.224 0.5 0.5 0.5h1.609l1.147 4.591c0.452 1.802 1.947 3.106 3.744 3.356v0.553c0 0.827 0.673 1.5 1.5 1.5s1.5-0.673 1.5-1.5v-0.5h8v0.5c0 0.827 0.673 1.5 1.5 1.5s1.5-0.673 1.5-1.5v-0.553c1.797-0.25 3.292-1.555 3.743-3.356l1.148-4.591h1.609c0.276 0 0.5-0.224 0.5-0.5v-2c0-0.276-0.224-0.5-0.5-0.5zM13.485 4.807l-2.679 2.679-0.669-3.348 3.348 0.669zM11 28.5c0 0.276-0.225 0.5-0.5 0.5s-0.5-0.224-0.5-0.5v-0.5h1v0.5zM22 28.5c0 0.276-0.225 0.5-0.5 0.5s-0.5-0.224-0.5-0.5v-0.5h1v0.5z"></path>
<path d="M16 17.5v6c0 0.276 0.224 0.5 0.5 0.5h6c0.276 0 0.5-0.224 0.5-0.5v-6c0-0.276-0.224-0.5-0.5-0.5h-6c-0.276 0-0.5 0.224-0.5 0.5zM17 18h5v5h-5v-5z"></path>
<path d="M12 9.5v2c0 0.276 0.224 0.5 0.5 0.5s0.5-0.224 0.5-0.5v-2c0-0.276-0.224-0.5-0.5-0.5s-0.5 0.224-0.5 0.5z"></path>
<path d="M15.5 7h2c0.276 0 0.5-0.224 0.5-0.5s-0.224-0.5-0.5-0.5h-2c-0.276 0-0.5 0.224-0.5 0.5s0.224 0.5 0.5 0.5z"></path>
<path d="M16.354 10.354c0.195-0.195 0.195-0.512 0-0.707l-1.5-1.5c-0.195-0.195-0.512-0.195-0.707 0s-0.195 0.512 0 0.707l1.5 1.5c0.097 0.097 0.225 0.146 0.353 0.146s0.256-0.049 0.354-0.146z"></path>
</svg>
