<svg version="1.1" xmlns="http://www.w3.org/2000/svg" width="32" height="32" viewBox="0 0 32 32">
<title>battleship</title>
<path d="M5.041 22.7c0.073 0.191 0.255 0.324 0.468 0.324 0.276 0 0.5-0.224 0.5-0.5 0-0.079-0.018-0.154-0.051-0.221l0.001 0.003-2.701-6.306h25.484l-2.7 6.3c-0.025 0.058-0.040 0.125-0.040 0.196 0 0.205 0.123 0.381 0.3 0.458l0.003 0.001c0.058 0.026 0.125 0.041 0.196 0.041 0.001 0 0.003 0 0.004-0h-0c0.001 0 0.001 0 0.002 0 0.204 0 0.379-0.122 0.457-0.297l0.001-0.003 3-7c0.026-0.059 0.042-0.128 0.042-0.2 0-0.276-0.224-0.5-0.5-0.5-0.001 0-0.001 0-0.002 0h-6.505v-1.997c0-0 0-0 0-0 0-0.275-0.037-0.541-0.105-0.794l0.005 0.021 4.485-1.5 0.141 0.426c0.067 0.202 0.253 0.346 0.474 0.347h0c0 0 0 0 0 0 0.056 0 0.111-0.009 0.162-0.026l-0.004 0.001c0.201-0.068 0.343-0.255 0.343-0.475 0-0.057-0.009-0.111-0.027-0.162l0.001 0.004-0.6-1.8c-0.068-0.2-0.255-0.342-0.474-0.342-0.276 0-0.5 0.224-0.5 0.5 0 0.057 0.009 0.111 0.027 0.162l-0.001-0.004 0.142 0.426-4.589 1.529c-0.547-0.797-1.453-1.312-2.479-1.313h-2.217l-2.254-3.757c-0.089-0.147-0.248-0.243-0.429-0.243-0 0-0 0-0 0h-3.6c-0.276 0-0.5 0.224-0.5 0.5v0 3.5h-2.5c-0.276 0-0.5 0.224-0.5 0.5v0 4.5h-5.5c-0 0-0 0-0.001 0-0.276 0-0.5 0.224-0.5 0.5 0 0.072 0.015 0.141 0.043 0.203l-0.001-0.003zM12 7h2.817l1.8 3h-4.617zM9 11h11c1.105 0 2 0.895 2 2v0 2h-13z"></path>
<path d="M29.786 24.178c-0.080-0.057-0.18-0.092-0.289-0.092-0.17 0-0.32 0.085-0.41 0.214l-0.001 0.002c-0.64 0.975-1.728 1.61-2.965 1.61s-2.325-0.635-2.957-1.597l-0.008-0.013c-0.095-0.123-0.244-0.202-0.41-0.202s-0.315 0.079-0.409 0.201l-0.001 0.001c-0.64 0.975-1.728 1.61-2.965 1.61s-2.325-0.635-2.957-1.597l-0.008-0.013c-0.095-0.123-0.244-0.202-0.41-0.202s-0.315 0.079-0.409 0.201l-0.001 0.001c-0.64 0.975-1.728 1.61-2.965 1.61s-2.325-0.635-2.957-1.597l-0.008-0.013c-0.095-0.123-0.244-0.202-0.41-0.202s-0.315 0.079-0.409 0.201l-0.001 0.001c-0.649 0.966-1.732 1.596-2.963 1.61l-0.002 0c-1.232-0.016-2.313-0.647-2.953-1.599l-0.008-0.013c-0.091-0.135-0.243-0.222-0.416-0.222-0.276 0-0.5 0.224-0.5 0.5 0 0.111 0.036 0.213 0.097 0.296l-0.001-0.001c0.83 1.227 2.213 2.027 3.783 2.038h0.002c1.341-0.003 2.544-0.589 3.371-1.517l0.004-0.005c0.829 0.936 2.033 1.524 3.375 1.524s2.546-0.587 3.371-1.519l0.004-0.005c0.829 0.936 2.033 1.524 3.375 1.524s2.546-0.587 3.371-1.519l0.004-0.005c0.831 0.933 2.034 1.519 3.374 1.523h0.001c1.572-0.013 2.954-0.811 3.775-2.022l0.010-0.016c0.056-0.080 0.090-0.179 0.090-0.286 0-0.169-0.084-0.318-0.212-0.409l-0.002-0.001z"></path>
<path d="M23 19c0 0.552-0.448 1-1 1s-1-0.448-1-1c0-0.552 0.448-1 1-1s1 0.448 1 1z"></path>
<path d="M17 19c0 0.552-0.448 1-1 1s-1-0.448-1-1c0-0.552 0.448-1 1-1s1 0.448 1 1z"></path>
<path d="M11 19c0 0.552-0.448 1-1 1s-1-0.448-1-1c0-0.552 0.448-1 1-1s1 0.448 1 1z"></path>
</svg>
