<svg version="1.1" xmlns="http://www.w3.org/2000/svg" width="32" height="32" viewBox="0 0 32 32">
<title>battery-full</title>
<path d="M8.5 13h-3c-0.276 0-0.5 0.224-0.5 0.5v6c0 0.276 0.224 0.5 0.5 0.5h3c0.276 0 0.5-0.224 0.5-0.5v-6c0-0.276-0.224-0.5-0.5-0.5z"></path>
<path d="M13.5 13h-3c-0.276 0-0.5 0.224-0.5 0.5v6c0 0.276 0.224 0.5 0.5 0.5h3c0.276 0 0.5-0.224 0.5-0.5v-6c0-0.276-0.224-0.5-0.5-0.5z"></path>
<path d="M18.5 13h-3c-0.276 0-0.5 0.224-0.5 0.5v6c0 0.276 0.224 0.5 0.5 0.5h3c0.276 0 0.5-0.224 0.5-0.5v-6c0-0.276-0.224-0.5-0.5-0.5z"></path>
<path d="M23.5 13h-3c-0.276 0-0.5 0.224-0.5 0.5v6c0 0.276 0.224 0.5 0.5 0.5h3c0.276 0 0.5-0.224 0.5-0.5v-6c0-0.276-0.224-0.5-0.5-0.5z"></path>
<path d="M28.5 14h-1.5v-2.5c0-0.827-0.673-1.5-1.5-1.5h-22c-0.827 0-1.5 0.673-1.5 1.5v10c0 0.827 0.673 1.5 1.5 1.5h22c0.827 0 1.5-0.673 1.5-1.5v-2.5h1.5c0.827 0 1.5-0.673 1.5-1.5v-2c0-0.827-0.673-1.5-1.5-1.5zM26 21.5c0 0.276-0.225 0.5-0.5 0.5h-22c-0.275 0-0.5-0.224-0.5-0.5v-10c0-0.276 0.225-0.5 0.5-0.5h22c0.275 0 0.5 0.224 0.5 0.5v10zM29 17.5c0 0.276-0.225 0.5-0.5 0.5h-1.5v-3h1.5c0.275 0 0.5 0.224 0.5 0.5v2z"></path>
</svg>
