<svg version="1.1" xmlns="http://www.w3.org/2000/svg" width="32" height="32" viewBox="0 0 32 32">
<title>beer</title>
<path d="M19.892 4.012c-0.118-0.008-0.256-0.012-0.395-0.012-2.088 0-3.945 0.985-5.133 2.516l-0.011 0.015c-0.503-0.318-1.112-0.514-1.765-0.531l-0.005-0c-0.013-0-0.029-0-0.045-0-0.936 0-1.784 0.379-2.398 0.992l0-0c-0.699 0.682-1.134 1.631-1.14 2.682v2.326h-2c-1.657 0-3 1.343-3 3v0 7c0 1.657 1.343 3 3 3v0h2v1c0 1.105 0.895 2 2 2v0h13c1.105 0 2-0.895 2-2v0-15.242c0.001-0.037 0.001-0.081 0.001-0.125 0-3.481-2.677-6.336-6.085-6.619l-0.024-0.002zM10 9.675c0.006-0.772 0.326-1.467 0.838-1.966l0.001-0.001c0.426-0.431 1.016-0.7 1.668-0.708h0.053c0.606 0.015 1.157 0.244 1.581 0.614l-0.003-0.003c0.087 0.076 0.202 0.122 0.328 0.122 0.175 0 0.329-0.090 0.418-0.226l0.001-0.002c1.001-1.52 2.7-2.509 4.63-2.509 0.112 0 0.223 0.003 0.333 0.010l-0.015-0.001c2.905 0.252 5.168 2.673 5.168 5.622 0 0.046-0.001 0.091-0.002 0.137l0-0.007v1.242h-3c-1.105 0-2 0.895-2 2v0 3.5c0 0.828-0.672 1.5-1.5 1.5s-1.5-0.672-1.5-1.5v0-3.5c0-1.105-0.895-2-2-2v0h-5zM7 24c-1.105 0-2-0.895-2-2v0-7c0-1.105 0.895-2 2-2v0h2v11zM24 27h-13c-0.552 0-1-0.448-1-1v0-13h5c0.552 0 1 0.448 1 1v0 3.5c0 1.381 1.119 2.5 2.5 2.5s2.5-1.119 2.5-2.5v0-3.5c0-0.552 0.448-1 1-1v0h3v13c0 0.552-0.448 1-1 1v0z"></path>
</svg>
