<svg version="1.1" xmlns="http://www.w3.org/2000/svg" width="32" height="32" viewBox="0 0 32 32">
<title>bell</title>
<path d="M17.381 5.183l0.727 0.127-0.151-0.722c-0.194-0.92-1.017-1.588-1.957-1.588s-1.763 0.668-1.956 1.588l-0.151 0.722 0.727-0.127c0.987-0.173 1.773-0.173 2.761 0z"></path>
<path d="M26.438 24.274l-2.193-4.321c-0.814-1.606-1.245-3.406-1.245-5.205v-1.693c0-3.86-3.141-7-7-7s-7 3.14-7 7v1.693c0 1.799-0.431 3.599-1.245 5.205l-2.193 4.321c-0.078 0.155-0.070 0.34 0.021 0.488s0.251 0.238 0.425 0.238h19.984c0.174 0 0.335-0.090 0.426-0.238s0.099-0.333 0.020-0.488z"></path>
<path d="M18.449 26h-4.898c-0.15 0-0.292 0.067-0.387 0.184-0.096 0.116-0.133 0.269-0.104 0.416 0.283 1.39 1.519 2.4 2.94 2.4s2.657-1.010 2.939-2.401c0.029-0.147-0.008-0.3-0.104-0.416-0.094-0.116-0.235-0.183-0.386-0.183z"></path>
</svg>
