<svg version="1.1" xmlns="http://www.w3.org/2000/svg" width="32" height="32" viewBox="0 0 32 32">
<title>bell-o</title>
<path d="M26.946 25.274l-2.701-5.321c-0.814-1.606-1.245-3.406-1.245-5.205v-1.693c0-3.165-2.113-5.842-5-6.705v-1.35c0-1.103-0.897-2-2-2s-2 0.897-2 2v1.35c-2.887 0.863-5 3.541-5 6.705v1.693c0 1.799-0.431 3.599-1.245 5.205l-2.701 5.321c-0.078 0.155-0.070 0.34 0.021 0.488 0.090 0.148 0.251 0.238 0.425 0.238h7.5c0 1.654 1.346 3 3 3s3-1.346 3-3h7.5c0.174 0 0.335-0.090 0.426-0.238 0.091-0.149 0.098-0.333 0.020-0.488zM15 5c0-0.551 0.448-1 1-1s1 0.449 1 1v1.135c-0.328-0.047-0.66-0.080-1-0.080s-0.672 0.033-1 0.080v-1.135zM16 28c-1.103 0-2-0.897-2-2h4c0 1.103-0.897 2-2 2zM6.314 25l2.333-4.595c0.885-1.745 1.353-3.702 1.353-5.657v-1.693c0-3.308 2.691-6 6-6s6 2.692 6 6v1.693c0 1.956 0.468 3.912 1.353 5.657l2.333 4.595h-19.372z"></path>
</svg>
