<svg version="1.1" xmlns="http://www.w3.org/2000/svg" width="32" height="32" viewBox="0 0 32 32">
<title>bell-slash-o</title>
<path d="M26.946 25.274l-2.701-5.321c-0.814-1.606-1.245-3.406-1.245-5.205v-1.693c0-0.953-0.189-1.88-0.563-2.753-0.108-0.254-0.4-0.371-0.657-0.263-0.253 0.109-0.371 0.403-0.263 0.656 0.321 0.749 0.483 1.543 0.483 2.36v1.693c0 1.956 0.468 3.912 1.353 5.657l2.333 4.595h-13.494c-0.276 0-0.5 0.224-0.5 0.5s0.224 0.5 0.5 0.5h0.808c0 1.654 1.346 3 3 3s3-1.346 3-3h7.5c0.174 0 0.335-0.090 0.426-0.238 0.091-0.149 0.098-0.333 0.020-0.488zM16 28c-1.103 0-2-0.897-2-2h4c0 1.103-0.897 2-2 2z"></path>
<path d="M23.773 4.081c-0.231-0.15-0.541-0.086-0.692 0.146l-2.383 3.654c-0.779-0.707-1.703-1.225-2.698-1.525v-1.356c0-1.103-0.897-2-2-2s-2 0.897-2 2v1.35c-2.887 0.863-5 3.541-5 6.705v1.693c0 1.799-0.431 3.599-1.245 5.205l-2.701 5.321c-0.078 0.155-0.070 0.34 0.021 0.488 0.090 0.148 0.251 0.238 0.425 0.238h3.381l-0.8 1.227c-0.15 0.231-0.086 0.541 0.146 0.692 0.085 0.055 0.179 0.081 0.273 0.081 0.163 0 0.323-0.080 0.419-0.227l15-23c0.15-0.231 0.086-0.541-0.146-0.692zM15 5c0-0.551 0.448-1 1-1s1 0.449 1 1v1.137c-0.33-0.048-0.663-0.082-1-0.082-0.34 0-0.672 0.033-1 0.080v-1.135zM6.314 25l2.333-4.595c0.885-1.745 1.353-3.702 1.353-5.657v-1.693c0-3.308 2.691-6 6-6 1.541 0 3.027 0.612 4.142 1.679l-10.609 16.266h-3.219z"></path>
</svg>
