<svg version="1.1" xmlns="http://www.w3.org/2000/svg" width="32" height="32" viewBox="0 0 32 32">
<title>bicycle</title>
<path d="M25.5 15c-0.646 0-1.263 0.118-1.839 0.323l-3.38-7.323h1.805c0.395 0 0.781-0.16 1.061-0.439l0.707-0.707c0.195-0.195 0.195-0.512 0-0.707s-0.512-0.195-0.707 0l-0.707 0.707c-0.093 0.093-0.222 0.146-0.354 0.146h-2.586c-0.171 0-0.329 0.087-0.421 0.231s-0.104 0.324-0.033 0.479l1.98 4.29h-8.081l-0.726-2h1.281c0.276 0 0.5-0.224 0.5-0.5s-0.224-0.5-0.5-0.5h-3c-0.276 0-0.5 0.224-0.5 0.5s0.224 0.5 0.5 0.5h0.656l0.877 2.415-2.615 3.432c-0.847-0.534-1.846-0.847-2.918-0.847-3.032 0-5.5 2.467-5.5 5.5s2.468 5.5 5.5 5.5c2.864 0 5.221-2.201 5.475-5h3.525c0.156 0 0.303-0.073 0.397-0.197l5.724-7.513 1.132 2.452c-1.643 0.953-2.753 2.726-2.753 4.758 0 3.033 2.468 5.5 5.5 5.5s5.5-2.467 5.5-5.5-2.468-5.5-5.5-5.5zM6.5 25c-2.481 0-4.5-2.019-4.5-4.5s2.019-4.5 4.5-4.5c0.844 0 1.626 0.248 2.302 0.654l-2.699 3.543c-0.115 0.151-0.135 0.355-0.051 0.525 0.085 0.17 0.258 0.278 0.448 0.278h4.449c-0.252 2.244-2.139 4-4.449 4zM7.51 20l2.092-2.745c0.743 0.71 1.227 1.671 1.348 2.745h-3.44zM11.975 20c-0.127-1.4-0.782-2.646-1.762-3.546l2.226-2.922 2.348 6.468h-2.812zM15.657 19.468l-2.349-6.468h7.278l-4.929 6.468zM25.5 25c-2.481 0-4.5-2.019-4.5-4.5 0-1.629 0.879-3.046 2.179-3.835l1.867 4.045c0.085 0.182 0.266 0.29 0.454 0.29 0.070 0 0.142-0.015 0.21-0.046 0.25-0.116 0.359-0.413 0.244-0.664l-1.865-4.042c0.446-0.148 0.915-0.248 1.411-0.248 2.481 0 4.5 2.019 4.5 4.5s-2.019 4.5-4.5 4.5z"></path>
</svg>
