<svg version="1.1" xmlns="http://www.w3.org/2000/svg" width="32" height="32" viewBox="0 0 32 32">
<title>binoculars</title>
<path d="M28.117 11.25l-2.5-5.492c-0.483-1.044-1.521-1.756-2.726-1.758h-1.891c-1.657 0-3 1.343-3 3v0 3h-4v-3c0-1.657-1.343-3-3-3v0h-1.89c-1.206 0.002-2.246 0.713-2.723 1.739l-0.008 0.019-2.5 5.492c-1.187 2.541-1.879 5.516-1.879 8.654 0 0.013 0 0.026 0 0.038v-0.002 2.060c0 3.314 2.686 6 6 6s6-2.686 6-6v0-6h4v6c0 3.314 2.686 6 6 6s6-2.686 6-6v0-2.060c0-0.008 0-0.017 0-0.027 0-3.141-0.694-6.12-1.937-8.792l0.054 0.129zM8 27c-2.761 0-5-2.239-5-5s2.239-5 5-5c2.761 0 5 2.239 5 5v0c-0.003 2.76-2.24 4.997-5 5h-0zM13 18.687c-1.089-1.629-2.921-2.687-5-2.687-2.052 0-3.864 1.031-4.944 2.604l-0.013 0.020c0.169-2.555 0.797-4.923 1.8-7.081l-0.051 0.122 2.5-5.493c0.323-0.696 1.015-1.17 1.818-1.172h1.89c1.105 0 2 0.895 2 2v0 11.687zM14 15v-4h4v4zM24 27c-2.761 0-5-2.239-5-5s2.239-5 5-5c2.761 0 5 2.239 5 5v0c-0.003 2.76-2.24 4.997-5 5h-0zM24 16c-2.079 0.001-3.91 1.059-4.986 2.665l-0.014 0.022v-11.687c0-1.105 0.895-2 2-2v0h1.891c0.804 0 1.497 0.475 1.815 1.16l0.005 0.012 2.5 5.493c0.953 2.036 1.581 4.404 1.747 6.899l0.003 0.060c-1.095-1.593-2.907-2.624-4.96-2.624-0 0-0.001 0-0.001 0h0z"></path>
<path d="M8 19c-1.657 0-3 1.343-3 3v0c0 0.276 0.224 0.5 0.5 0.5s0.5-0.224 0.5-0.5v0c0-1.105 0.895-2 2-2v0c0.276 0 0.5-0.224 0.5-0.5s-0.224-0.5-0.5-0.5v0z"></path>
<path d="M24 19c-1.657 0-3 1.343-3 3v0c0 0.276 0.224 0.5 0.5 0.5s0.5-0.224 0.5-0.5v0c0-1.105 0.895-2 2-2v0c0.276 0 0.5-0.224 0.5-0.5s-0.224-0.5-0.5-0.5v0z"></path>
</svg>
