<svg id="Layer_1" data-name="Layer 1" xmlns="http://www.w3.org/2000/svg" width="32" height="32" viewBox="0 0 32 32"><path d="M17,16a1,1,0,1,1-1-1A1,1,0,0,1,17,16Zm12.506,2.018a.5.5,0,0,1-.623-.193,5.418,5.418,0,0,0-1.9-1.838,5.5,5.5,0,1,0-5.5,9.526,5.43,5.43,0,0,0,2.544.732.5.5,0,0,1,.111.982A7.986,7.986,0,0,1,16,24.716,8,8,0,0,1,9.951,27.5a8.038,8.038,0,0,1-2.084-.276.5.5,0,0,1,.112-.982,5.43,5.43,0,0,0,2.544-.732,5.5,5.5,0,1,0-5.5-9.526,5.429,5.429,0,0,0-1.906,1.838.5.5,0,0,1-.907-.395,7.988,7.988,0,0,1,6.242-5.788,7.983,7.983,0,0,1,1.892-8.3.5.5,0,0,1,.8.588A5.427,5.427,0,0,0,10.5,6.5a5.5,5.5,0,0,0,11,0,5.434,5.434,0,0,0-.639-2.57.5.5,0,0,1,.8-.587,7.985,7.985,0,0,1,1.891,8.3A7.988,7.988,0,0,1,29.79,17.43.5.5,0,0,1,29.506,18.018Zm-1.934-2.841A7.005,7.005,0,0,0,22.8,12.542a.5.5,0,0,1-.4-.7A7.008,7.008,0,0,0,22.5,6.389c0,.037,0,.074,0,.111a6.5,6.5,0,0,1-13,0c0-.037,0-.074,0-.11a7.006,7.006,0,0,0,.105,5.452.5.5,0,0,1-.4.7,7.011,7.011,0,0,0-4.775,2.635l.1-.056a6.5,6.5,0,1,1,6.5,11.258l-.1.055A7.01,7.01,0,0,0,15.6,23.616a.5.5,0,0,1,.808,0,7.01,7.01,0,0,0,4.669,2.818l-.095-.055a6.5,6.5,0,1,1,6.5-11.258ZM13.647,8.353a8.046,8.046,0,0,1,4.706,0,.5.5,0,0,0,.294-.956,9.078,9.078,0,0,0-5.294,0,.5.5,0,1,0,.294.956ZM9.873,22.594a.5.5,0,1,0,.681-.733A8.021,8.021,0,0,1,8.2,17.786a.5.5,0,1,0-.975.223,9.03,9.03,0,0,0,2.647,4.585ZM24.4,17.41a.5.5,0,0,0-.6.376,8.021,8.021,0,0,1-2.353,4.075.5.5,0,1,0,.681.733,9.03,9.03,0,0,0,2.647-4.585A.5.5,0,0,0,24.4,17.41Z"/></svg>