<svg version="1.1" xmlns="http://www.w3.org/2000/svg" width="32" height="32" viewBox="0 0 32 32">
<title>birthday-cake</title>
<path d="M14.371 24.438c-0.033-0.25-0.245-0.441-0.501-0.441-0.020 0-0.040 0.001-0.059 0.003l0.002-0c-0.248 0.032-0.438 0.242-0.438 0.496 0 0.022 0.001 0.043 0.004 0.064l-0-0.003 0.375 3c0.032 0.248 0.242 0.438 0.496 0.438 0.001 0 0.003 0 0.004-0h-0c0.009 0.001 0.020 0.001 0.031 0.001s0.022-0 0.032-0.001l-0.001 0c0.248-0.032 0.438-0.242 0.438-0.496 0-0.022-0.001-0.043-0.004-0.064l0 0.003z"></path>
<path d="M18.188 24c-0.019-0.003-0.041-0.004-0.063-0.004-0.254 0-0.464 0.19-0.496 0.435l-0 0.003-0.375 3c-0.002 0.019-0.004 0.040-0.004 0.062 0 0.254 0.19 0.464 0.435 0.496l0.003 0c0.009 0.001 0.020 0.001 0.032 0.001s0.022-0 0.033-0.001l-0.001 0c0.254-0.001 0.463-0.19 0.495-0.436l0-0.003 0.375-3c0.002-0.017 0.003-0.038 0.003-0.058 0-0.254-0.189-0.463-0.434-0.496l-0.003-0z"></path>
<path d="M16 7c1.105 0 2-0.895 2-2v0c-0.002-0.452-0.152-0.869-0.404-1.205l0.004 0.005-1.2-1.6c-0.096-0.116-0.239-0.189-0.4-0.189s-0.304 0.073-0.399 0.188l-0.001 0.001-1.2 1.6c-0.25 0.33-0.4 0.748-0.4 1.2 0 1.105 0.895 2 2 2v0zM15.2 4.4l0.8-1.067 0.8 1.067c0.125 0.165 0.2 0.374 0.2 0.6 0 0.552-0.448 1-1 1s-1-0.448-1-1c0-0.226 0.075-0.435 0.202-0.603l-0.002 0.003z"></path>
<path d="M13.859 13.932c0.632-0.272 1.368-0.43 2.141-0.43s1.509 0.158 2.178 0.443l-0.036-0.014c0.057 0.025 0.124 0.040 0.194 0.040h0c0 0 0 0 0 0 0.276 0 0.5-0.224 0.5-0.5 0-0.206-0.125-0.383-0.303-0.46l-0.003-0.001q-0.261-0.109-0.53-0.2v-3.811c0-0.552-0.448-1-1-1v0h-2c-0.552 0-1 0.448-1 1v0 3.815c-0.179 0.057-0.356 0.123-0.53 0.2-0.186 0.076-0.315 0.255-0.315 0.465 0 0.276 0.224 0.5 0.5 0.5 0.074 0 0.144-0.016 0.207-0.045l-0.003 0.001zM15 9h2v3.579c-0.301-0.048-0.647-0.076-1-0.076s-0.699 0.028-1.037 0.081l0.037-0.005z"></path>
<path d="M24.538 16.161c-0.82-2.398-2.553-4.299-4.775-5.322l-0.056-0.023c-0.061-0.028-0.132-0.045-0.207-0.045-0.276 0-0.5 0.224-0.5 0.5 0 0.201 0.119 0.375 0.29 0.454l0.003 0.001c2.101 0.962 3.684 2.748 4.356 4.932l0.015 0.057c0.053 0.174 0.193 0.306 0.369 0.345l0.003 0.001c1.135 0.252 1.97 1.25 1.97 2.443 0 1.381-1.119 2.5-2.5 2.5-0.87 0-1.636-0.444-2.084-1.118l-0.006-0.009c-0.096-0.128-0.247-0.209-0.417-0.209s-0.321 0.082-0.416 0.208l-0.001 0.001c-0.453 0.68-1.216 1.122-2.083 1.122s-1.63-0.442-2.077-1.113l-0.006-0.009c-0.096-0.128-0.247-0.209-0.417-0.209s-0.321 0.082-0.416 0.208l-0.001 0.001c-0.453 0.68-1.216 1.122-2.083 1.122s-1.63-0.442-2.077-1.113l-0.006-0.009c-0.096-0.128-0.247-0.209-0.417-0.209s-0.321 0.082-0.416 0.208l-0.001 0.001c-0.454 0.683-1.22 1.127-2.089 1.127-1.381 0-2.5-1.119-2.5-2.5 0-1.193 0.835-2.19 1.953-2.44l0.017-0.003c0.179-0.040 0.319-0.172 0.371-0.342l0.001-0.004c0.687-2.241 2.271-4.026 4.322-4.969l0.050-0.020c0.174-0.081 0.293-0.254 0.293-0.456 0-0.276-0.224-0.5-0.5-0.5-0.075 0-0.146 0.017-0.21 0.046l0.003-0.001c-2.278 1.046-4.011 2.947-4.812 5.282l-0.019 0.063c-1.432 0.46-2.451 1.781-2.451 3.339 0 1.929 1.561 3.494 3.488 3.5h0.029l2.382 6.352c0.148 0.381 0.511 0.646 0.937 0.648h8.306c0.426-0.002 0.789-0.267 0.935-0.641l0.002-0.007 2.382-6.352h0.028c1.928-0.006 3.489-1.571 3.489-3.5 0-1.558-1.018-2.879-2.426-3.332l-0.025-0.007zM20.153 29h-8.306l-2.309-6.157c0.576-0.184 1.067-0.494 1.461-0.899l0.001-0.001c0.635 0.65 1.52 1.053 2.5 1.053s1.865-0.403 2.499-1.052l0.001-0.001c0.635 0.65 1.52 1.053 2.5 1.053s1.865-0.403 2.499-1.052l0.001-0.001c0.395 0.407 0.887 0.717 1.438 0.893l0.025 0.007z"></path>
</svg>
