<svg version="1.1" xmlns="http://www.w3.org/2000/svg" width="32" height="32" viewBox="0 0 32 32">
<title>bitcoin</title>
<path d="M16.5 5c-6.341 0-11.5 5.159-11.5 11.5s5.159 11.5 11.5 11.5 11.5-5.159 11.5-11.5-5.159-11.5-11.5-11.5zM16.5 27c-5.79 0-10.5-4.71-10.5-10.5s4.71-10.5 10.5-10.5 10.5 4.71 10.5 10.5-4.71 10.5-10.5 10.5z"></path>
<path d="M19.716 16.316c0.482-0.456 0.784-1.101 0.784-1.816 0-1.378-1.122-2.5-2.5-2.5h-1v-1.5c0-0.276-0.224-0.5-0.5-0.5s-0.5 0.224-0.5 0.5v1.5h-2.5c-0.276 0-0.5 0.224-0.5 0.5v8c0 0.276 0.224 0.5 0.5 0.5h2.5v1.5c0 0.276 0.224 0.5 0.5 0.5s0.5-0.224 0.5-0.5v-1.5h1.5c1.378 0 2.5-1.122 2.5-2.5 0-0.937-0.519-1.756-1.284-2.184zM18 13c0.827 0 1.5 0.673 1.5 1.5s-0.673 1.5-1.5 1.5h-1v-3h1zM16 13v3h-2v-3h2zM14 20v-3h2v3h-2zM18.5 20h-1.5v-3h1.5c0.827 0 1.5 0.673 1.5 1.5s-0.673 1.5-1.5 1.5z"></path>
</svg>
