<svg version="1.1" xmlns="http://www.w3.org/2000/svg" width="32" height="32" viewBox="0 0 32 32">
<title>blind</title>
<path d="M14 8c1.657 0 3-1.343 3-3s-1.343-3-3-3c-1.657 0-3 1.343-3 3v0c0 1.657 1.343 3 3 3v0zM14 3c1.105 0 2 0.895 2 2s-0.895 2-2 2c-1.105 0-2-0.895-2-2v0c0-1.105 0.895-2 2-2v0z"></path>
<path d="M28.964 28.314l-4-10c-0.073-0.191-0.255-0.324-0.468-0.324-0.276 0-0.5 0.224-0.5 0.5 0 0.071 0.015 0.138 0.041 0.199l-0.001-0.003 4 10c0.076 0.186 0.255 0.314 0.464 0.314v0c0.001 0 0.001 0 0.002 0 0.066 0 0.13-0.013 0.187-0.037l-0.003 0.001c0.186-0.076 0.314-0.255 0.314-0.464 0-0.067-0.013-0.131-0.037-0.189l0.001 0.003z"></path>
<path d="M18.293 16.122c0.54 0.542 1.287 0.878 2.112 0.878 0.003 0 0.006 0 0.010 0h2.639c0.017 0 0.037 0.001 0.057 0.001 0.928 0 1.712-0.619 1.96-1.466l0.004-0.014c0.043-0.155 0.067-0.333 0.067-0.516 0-0.554-0.224-1.055-0.587-1.418l0 0c-0.36-0.362-0.858-0.586-1.409-0.586-0.002 0-0.004 0-0.006 0h-2.313l-2.682-2.682c-0.809-0.814-1.93-1.318-3.168-1.318-0.005 0-0.010 0-0.014 0h-1.927c-0.004 0-0.008-0-0.012-0-1.239 0-2.36 0.504-3.169 1.318l-5.192 5.191c-0.393 0.378-0.638 0.908-0.638 1.495 0 0.489 0.169 0.938 0.452 1.292l-0.003-0.004c0.378 0.42 0.923 0.683 1.53 0.683 0.547 0 1.044-0.213 1.412-0.561l-0.001 0.001 3.586-3.586v2.646c-0 0.665-0.087 1.31-0.249 1.923l0.012-0.052-0.85 3.3c-0.12 0.451-0.38 0.83-0.731 1.096l-0.005 0.004-2.818 2.111c-0.514 0.378-0.844 0.981-0.844 1.661 0 0.321 0.073 0.624 0.204 0.895l-0.005-0.012c0.337 0.658 1.010 1.1 1.786 1.1v0c0.002 0 0.004 0 0.006 0 0.45 0 0.866-0.15 1.199-0.404l-0.005 0.004 2.876-2.157c1.068-0.809 1.851-1.945 2.201-3.258l0.010-0.042 0.611-2.372 3.813 7.629c0.336 0.661 1.010 1.105 1.789 1.105 1.105 0 2-0.896 2-2 0-0.326-0.078-0.634-0.217-0.906l0.005 0.011-4.42-8.838c-0.233-0.458-0.369-0.999-0.369-1.572 0-0 0-0 0-0v0-1.871zM16.475 18.714l4.42 8.838c0.067 0.13 0.106 0.284 0.106 0.448 0 0.389-0.222 0.727-0.547 0.892l-0.006 0.003c-0.129 0.064-0.281 0.101-0.442 0.101-0.39 0-0.729-0.22-0.899-0.543l-0.003-0.006-4.405-8.822c-0.084-0.165-0.253-0.276-0.447-0.276v0c-0.008-0-0.017-0.001-0.027-0.001s-0.019 0-0.028 0.001l0.001-0c-0.21 0.023-0.379 0.172-0.431 0.369l-0.001 0.003-0.945 3.666c-0.299 1.13-0.951 2.078-1.829 2.744l-0.012 0.009-2.882 2.16c-0.165 0.118-0.371 0.188-0.593 0.188-0.39 0-0.73-0.217-0.904-0.538l-0.003-0.005c-0.058-0.126-0.092-0.274-0.092-0.43 0-0.354 0.175-0.667 0.444-0.857l0.003-0.002 2.818-2.114c0.534-0.405 0.925-0.973 1.1-1.629l0.005-0.021 0.849-3.3c0.172-0.635 0.271-1.365 0.273-2.117v-3.854c-0-0.276-0.224-0.5-0.5-0.5-0.138 0-0.263 0.056-0.354 0.147v0l-4.439 4.439c-0.184 0.173-0.432 0.28-0.705 0.28-0.304 0-0.577-0.132-0.766-0.342l-0.001-0.001c-0.13-0.176-0.208-0.398-0.208-0.638 0-0.311 0.131-0.592 0.342-0.789l0.001-0.001 5.192-5.191c0.63-0.633 1.502-1.025 2.465-1.025 0.003 0 0.007 0 0.010 0h1.927c0.003 0 0.006 0 0.010 0 0.963 0 1.835 0.392 2.465 1.025l2.829 2.829c0.090 0.090 0.215 0.146 0.353 0.146h2.52c0 0 0.001 0 0.002 0 0.552 0 1 0.448 1 1 0 0.097-0.014 0.191-0.039 0.279l0.002-0.007c-0.143 0.427-0.54 0.729-1.007 0.729-0.016 0-0.032-0-0.047-0.001l0.002 0h-2.639c-0.001 0-0.003 0-0.005 0-0.551 0-1.049-0.224-1.409-0.585l-2.146-2.147c-0.091-0.091-0.216-0.147-0.354-0.147-0.276 0-0.5 0.224-0.5 0.5v0 3.079c0.001 0.734 0.176 1.427 0.487 2.040l-0.012-0.026z"></path>
</svg>
