<svg version="1.1" xmlns="http://www.w3.org/2000/svg" width="32" height="32" viewBox="0 0 32 32">
<title>bold</title>
<path d="M12.5 15h4c1.93 0 3.5-1.57 3.5-3.5s-1.57-3.5-3.5-3.5h-4c-0.276 0-0.5 0.224-0.5 0.5v6c0 0.276 0.224 0.5 0.5 0.5zM13 9h3.5c1.379 0 2.5 1.122 2.5 2.5s-1.121 2.5-2.5 2.5h-3.5v-5z"></path>
<path d="M17.5 17h-5c-0.276 0-0.5 0.224-0.5 0.5v6c0 0.276 0.224 0.5 0.5 0.5h5c1.93 0 3.5-1.57 3.5-3.5s-1.57-3.5-3.5-3.5zM17.5 23h-4.5v-5h4.5c1.379 0 2.5 1.122 2.5 2.5s-1.121 2.5-2.5 2.5z"></path>
<path d="M21.629 15.483c0.888-1.139 1.371-2.534 1.371-3.983 0-3.584-2.916-6.5-6.5-6.5h-7c-0.276 0-0.5 0.224-0.5 0.5v21c0 0.276 0.224 0.5 0.5 0.5h8c3.584 0 6.5-2.916 6.5-6.5 0-1.949-0.877-3.787-2.371-5.017zM17.5 26h-7.5v-20h6.5c3.032 0 5.5 2.467 5.5 5.5 0 1.38-0.519 2.702-1.461 3.724-0.099 0.106-0.146 0.25-0.13 0.394s0.094 0.274 0.213 0.356c1.489 1.029 2.378 2.721 2.378 4.526 0 3.033-2.468 5.5-5.5 5.5z"></path>
</svg>
