<svg version="1.1" xmlns="http://www.w3.org/2000/svg" width="32" height="32" viewBox="0 0 32 32">
<title>bomb</title>
<path d="M12.358 14.432c-0.655 0.277-1.243 0.674-1.747 1.178-0.505 0.505-0.902 1.093-1.18 1.748-0.107 0.254 0.012 0.548 0.267 0.655 0.063 0.027 0.129 0.040 0.194 0.040 0.194 0 0.38-0.115 0.461-0.305 0.227-0.536 0.551-1.017 0.965-1.431 0.413-0.413 0.895-0.738 1.431-0.964 0.254-0.108 0.373-0.401 0.265-0.655-0.107-0.255-0.4-0.372-0.656-0.266z"></path>
<path d="M24.5 6c-0.276 0-0.5 0.224-0.5 0.5v0.5c0 1.103-0.897 2-2 2s-2-0.897-2-2c0-1.654-1.346-3-3-3s-3 1.346-3 3v1h-1.49c-0.276 0-0.5 0.224-0.5 0.5v1.837c-4.148 1.118-7.010 4.831-7.010 9.163 0 5.238 4.262 9.5 9.5 9.5s9.5-4.262 9.5-9.5c0-4.327-2.858-8.039-7-9.16v-1.84c0-0.276-0.224-0.5-0.5-0.5h-1.5v-1c0-1.103 0.897-2 2-2s2 0.897 2 2c0 1.654 1.346 3 3 3s3-1.346 3-3v-0.5c0-0.276-0.224-0.5-0.5-0.5zM16.39 11.218c3.891 0.885 6.61 4.29 6.61 8.282 0 4.687-3.813 8.5-8.5 8.5s-8.5-3.813-8.5-8.5c0-3.996 2.723-7.403 6.62-8.284 0.228-0.052 0.39-0.254 0.39-0.488v-1.728h2.99v1.73c0 0.234 0.161 0.436 0.39 0.488z"></path>
<path d="M23 5.5c0 0.276-0.224 0.5-0.5 0.5s-0.5-0.224-0.5-0.5c0-0.276 0.224-0.5 0.5-0.5s0.5 0.224 0.5 0.5z"></path>
<path d="M25 3.5c0 0.276-0.224 0.5-0.5 0.5s-0.5-0.224-0.5-0.5c0-0.276 0.224-0.5 0.5-0.5s0.5 0.224 0.5 0.5z"></path>
<path d="M27 5.5c0 0.276-0.224 0.5-0.5 0.5s-0.5-0.224-0.5-0.5c0-0.276 0.224-0.5 0.5-0.5s0.5 0.224 0.5 0.5z"></path>
</svg>
