<svg version="1.1" xmlns="http://www.w3.org/2000/svg" width="32" height="32" viewBox="0 0 32 32">
<title>bookmark-o</title>
<path d="M21 6h-10c-1.105 0-2 0.895-2 2v0 17.5c0 0 0 0 0 0 0 0.276 0.224 0.5 0.5 0.5 0.143 0 0.273-0.060 0.364-0.157l0-0 6.136-6.523 6.136 6.523c0.091 0.097 0.221 0.157 0.364 0.157 0 0 0 0 0 0v0c0.067-0 0.13-0.013 0.189-0.036l-0.004 0.001c0.186-0.076 0.315-0.255 0.315-0.465 0-0 0-0 0-0v0-17.5c0-1.105-0.895-2-2-2v0zM22 24.239l-5.636-5.991c-0.091-0.097-0.221-0.157-0.364-0.157s-0.273 0.060-0.364 0.157l-0 0-5.636 5.991v-16.239c0-0.552 0.448-1 1-1v0h10c0.552 0 1 0.448 1 1v0z"></path>
</svg>
