<svg version="1.1" xmlns="http://www.w3.org/2000/svg" width="32" height="32" viewBox="0 0 32 32">
<title>book</title>
<path d="M29.652 4.647c-1.34-0.429-2.738-0.647-4.152-0.647-3.506 0-6.825 1.334-9 3.593-2.175-2.259-5.494-3.593-9-3.593-1.414 0-2.812 0.218-4.152 0.647-0.207 0.066-0.348 0.258-0.348 0.476v19.377c0 0.16 0.076 0.31 0.205 0.404s0.295 0.121 0.447 0.072c1.243-0.398 2.537-0.599 3.848-0.599 3.596 0 6.738 1.257 8.621 3.449 0.095 0.11 0.233 0.174 0.379 0.174s0.284-0.064 0.379-0.174c1.883-2.192 5.025-3.449 8.621-3.449 1.311 0 2.604 0.202 3.848 0.599 0.151 0.049 0.317 0.022 0.447-0.072s0.205-0.244 0.205-0.404v-19.377c0-0.218-0.141-0.41-0.348-0.476zM7.5 23.377c-1.187 0-2.36 0.153-3.5 0.456v-18.34c1.136-0.327 2.312-0.493 3.5-0.493 3.364 0 6.521 1.323 8.5 3.537v17.767c-2.095-1.866-5.114-2.927-8.5-2.927zM29 23.833c-1.14-0.303-2.313-0.456-3.5-0.456-3.386 0-6.405 1.061-8.5 2.927v-17.767c1.979-2.214 5.136-3.537 8.5-3.537 1.188 0 2.364 0.166 3.5 0.493v18.34z"></path>
</svg>
