<svg version="1.1" xmlns="http://www.w3.org/2000/svg" width="32" height="32" viewBox="0 0 32 32">
<title>box-arrow-out-sw</title>
<path d="M20.707 11.293c-0.181-0.181-0.431-0.293-0.707-0.293s-0.526 0.112-0.707 0.293l-11.293 11.293v-6.586c0-0.552-0.448-1-1-1s-1 0.448-1 1v0 9c0 0.552 0.448 1 1 1v0h9c0.552 0 1-0.448 1-1s-0.448-1-1-1v0h-6.586l11.293-11.293c0.181-0.181 0.293-0.431 0.293-0.707s-0.112-0.526-0.293-0.707v0z"></path>
<path d="M25 4h-18c-1.657 0-3 1.343-3 3v0 3.5c0 0.276 0.224 0.5 0.5 0.5s0.5-0.224 0.5-0.5v0-3.5c0-1.105 0.895-2 2-2v0h18c1.105 0 2 0.895 2 2v0 18c0 1.105-0.895 2-2 2v0h-3.5c-0.276 0-0.5 0.224-0.5 0.5s0.224 0.5 0.5 0.5v0h3.5c1.657 0 3-1.343 3-3v0-18c0-1.657-1.343-3-3-3v0z"></path>
</svg>
