<svg version="1.1" xmlns="http://www.w3.org/2000/svg" width="32" height="32" viewBox="0 0 32 32">
<title>box-plot-chart</title>
<path d="M29.5 25h-26.5v-20.5c0-0.276-0.224-0.5-0.5-0.5s-0.5 0.224-0.5 0.5v0 21c0 0.276 0.224 0.5 0.5 0.5v0h27c0.276 0 0.5-0.224 0.5-0.5s-0.224-0.5-0.5-0.5v0z"></path>
<path d="M6.5 18h3.5v4h-1.5c-0.276 0-0.5 0.224-0.5 0.5s0.224 0.5 0.5 0.5v0h4c0.276 0 0.5-0.224 0.5-0.5s-0.224-0.5-0.5-0.5v0h-1.5v-4h3.5c0.276 0 0.5-0.224 0.5-0.5v0-8c0-0.276-0.224-0.5-0.5-0.5v0h-3.5v-4h1.5c0.276 0 0.5-0.224 0.5-0.5s-0.224-0.5-0.5-0.5v0h-4c-0.276 0-0.5 0.224-0.5 0.5s0.224 0.5 0.5 0.5v0h1.5v4h-3.5c-0.276 0-0.5 0.224-0.5 0.5v0 8c0 0.276 0.224 0.5 0.5 0.5v0zM7 17v-3h7v3zM14 10v3h-7v-3z"></path>
<path d="M18.5 18h3.5v4h-1.5c-0.276 0-0.5 0.224-0.5 0.5s0.224 0.5 0.5 0.5v0h4c0.276 0 0.5-0.224 0.5-0.5s-0.224-0.5-0.5-0.5v0h-1.5v-4h3.5c0.276 0 0.5-0.224 0.5-0.5v0-8c0-0.276-0.224-0.5-0.5-0.5v0h-3.5v-4h1.5c0.276 0 0.5-0.224 0.5-0.5s-0.224-0.5-0.5-0.5v0h-4c-0.276 0-0.5 0.224-0.5 0.5s0.224 0.5 0.5 0.5v0h1.5v4h-3.5c-0.276 0-0.5 0.224-0.5 0.5v0 8c0 0.276 0.224 0.5 0.5 0.5v0zM19 17v-3h7v3zM26 10v3h-7v-3z"></path>
</svg>
