<svg version="1.1" xmlns="http://www.w3.org/2000/svg" width="32" height="32" viewBox="0 0 32 32">
<title>box-arrow-in-sw</title>
<path d="M13 11c0-0.552-0.448-1-1-1s-1 0.448-1 1v0 9c0 0.552 0.448 1 1 1v0h9c0.552 0 1-0.448 1-1s-0.448-1-1-1v0h-6.586l11.293-11.293c0.188-0.182 0.305-0.437 0.305-0.719 0-0.552-0.448-1-1-1-0.282 0-0.537 0.117-0.719 0.305l-11.293 11.293z"></path>
<path d="M27.5 14c-0.276 0-0.5 0.224-0.5 0.5v0 10.5c0 1.105-0.895 2-2 2v0h-18c-1.105 0-2-0.895-2-2v0-18c0-1.105 0.895-2 2-2v0h10.5c0.276 0 0.5-0.224 0.5-0.5s-0.224-0.5-0.5-0.5v0h-10.5c-1.657 0-3 1.343-3 3v0 18c0 1.657 1.343 3 3 3v0h18c1.657 0 3-1.343 3-3v0-10.5c0-0.276-0.224-0.5-0.5-0.5v0z"></path>
</svg>
