<svg version="1.1" xmlns="http://www.w3.org/2000/svg" width="32" height="32" viewBox="0 0 32 32">
<title>box-arrow-out-north</title>
<path d="M10.707 9.707l4.293-4.293v16.586c0 0.552 0.448 1 1 1s1-0.448 1-1v0-16.586l4.293 4.293c0.18 0.174 0.425 0.281 0.695 0.281 0.552 0 1-0.448 1-1 0-0.27-0.107-0.515-0.281-0.695l-6-6c-0.181-0.181-0.431-0.293-0.707-0.293s-0.526 0.112-0.707 0.293l-6 6c-0.174 0.18-0.281 0.425-0.281 0.695 0 0.552 0.448 1 1 1 0.27 0 0.515-0.107 0.695-0.281l-0 0z"></path>
<path d="M25 4c-0.276 0-0.5 0.224-0.5 0.5s0.224 0.5 0.5 0.5v0c1.105 0 2 0.895 2 2v0 18c0 1.105-0.895 2-2 2v0h-18c-1.105 0-2-0.895-2-2v0-18c0-1.105 0.895-2 2-2v0c0.276 0 0.5-0.224 0.5-0.5s-0.224-0.5-0.5-0.5v0c-1.657 0-3 1.343-3 3v0 18c0 1.657 1.343 3 3 3v0h18c1.657 0 3-1.343 3-3v0-18c0-1.657-1.343-3-3-3v0z"></path>
</svg>
