<svg version="1.1" xmlns="http://www.w3.org/2000/svg" width="32" height="32" viewBox="0 0 32 32">
<title>box-arrow-in-ne</title>
<path d="M19 21c0 0.552 0.448 1 1 1s1-0.448 1-1v0-9c0-0.552-0.448-1-1-1v0h-9c-0.552 0-1 0.448-1 1s0.448 1 1 1v0h6.586l-11.293 11.293c-0.188 0.182-0.305 0.437-0.305 0.719 0 0.552 0.448 1 1 1 0.282 0 0.537-0.117 0.719-0.305l11.293-11.293z"></path>
<path d="M25 4h-18c-1.657 0-3 1.343-3 3v0 10.5c0 0.276 0.224 0.5 0.5 0.5s0.5-0.224 0.5-0.5v0-10.5c0-1.105 0.895-2 2-2v0h18c1.105 0 2 0.895 2 2v0 18c0 1.105-0.895 2-2 2v0h-10.5c-0.276 0-0.5 0.224-0.5 0.5s0.224 0.5 0.5 0.5v0h10.5c1.657 0 3-1.343 3-3v0-18c0-1.657-1.343-3-3-3v0z"></path>
</svg>
