<svg version="1.1" xmlns="http://www.w3.org/2000/svg" width="32" height="32" viewBox="0 0 32 32">
<title>box-arrow-out-se</title>
<path d="M25 15c-0.552 0-1 0.448-1 1v0 6.586l-11.293-11.293c-0.18-0.174-0.425-0.281-0.695-0.281-0.552 0-1 0.448-1 1 0 0.27 0.107 0.515 0.281 0.695l11.293 11.293h-6.586c-0.552 0-1 0.448-1 1s0.448 1 1 1v0h9c0.552 0 1-0.448 1-1v0-9c0-0.552-0.448-1-1-1v0z"></path>
<path d="M25 4h-18c-1.657 0-3 1.343-3 3v0 18c0 1.657 1.343 3 3 3v0h3.5c0.276 0 0.5-0.224 0.5-0.5s-0.224-0.5-0.5-0.5v0h-3.5c-1.105 0-2-0.895-2-2v0-18c0-1.105 0.895-2 2-2v0h18c1.105 0 2 0.895 2 2v0 3.5c0 0.276 0.224 0.5 0.5 0.5s0.5-0.224 0.5-0.5v0-3.5c0-1.657-1.343-3-3-3v0z"></path>
</svg>
