<svg version="1.1" xmlns="http://www.w3.org/2000/svg" width="32" height="32" viewBox="0 0 32 32">
<title>breadcrumb</title>
<path d="M29.891 15.688l-6-7.5c-0.095-0.119-0.239-0.188-0.391-0.188h-21c-0.276 0-0.5 0.224-0.5 0.5v15c0 0.276 0.224 0.5 0.5 0.5h21c0.152 0 0.296-0.069 0.391-0.188l6-7.5c0.145-0.182 0.145-0.442 0-0.624zM13.891 15.688l-5.35-6.688h6.719l5.6 7-5.6 7h-6.719l5.35-6.688c0.145-0.182 0.145-0.442 0-0.624zM3 9h4.26l5.6 7-5.6 7h-4.26v-14zM23.26 23h-6.719l5.35-6.688c0.146-0.183 0.146-0.442 0-0.625l-5.35-6.687h6.719l5.6 7-5.6 7z"></path>
</svg>
