<svg version="1.1" xmlns="http://www.w3.org/2000/svg" width="32" height="32" viewBox="0 0 32 32">
<title>briefcase</title>
<path d="M27 9h-4v-2c0-1.657-1.343-3-3-3v0h-8c-1.657 0-3 1.343-3 3v0 2h-4c-1.657 0-3 1.343-3 3v0 13c0 1.657 1.343 3 3 3v0h22c1.657 0 3-1.343 3-3v0-13c0-1.657-1.343-3-3-3v0zM10 7c0-1.105 0.895-2 2-2v0h8c1.105 0 2 0.895 2 2v0 2h-12zM5 10h22c1.105 0 2 0.895 2 2v0 6.217c-8.509 5.072-17.488 5.072-26 0v-6.217c0-1.105 0.895-2 2-2v0zM27 27h-22c-1.105 0-2-0.895-2-2v0-5.628c3.722 2.225 8.201 3.557 12.988 3.6l0.012 0c4.799-0.043 9.278-1.375 13.12-3.666l-0.12 0.066v5.628c0 1.105-0.895 2-2 2v0z"></path>
<path d="M13.5 16h5c0.276 0 0.5-0.224 0.5-0.5s-0.224-0.5-0.5-0.5v0h-5c-0.276 0-0.5 0.224-0.5 0.5s0.224 0.5 0.5 0.5v0z"></path>
</svg>
