<svg id="Layer_1" data-name="Layer 1" xmlns="http://www.w3.org/2000/svg" width="32" height="32" viewBox="0 0 32 32"><path d="M29.909,6.212a.5.5,0,0,0-.7-.121L26,8.352V4.5a.5.5,0,0,0-1,0V9c0,.021,0,.04-.006.06L22.237,11H21a5,5,0,0,0-10,0H9A2,2,0,0,1,7,9V4.5a.5.5,0,0,0-1,0V9a3,3,0,0,0,3,3v4H4.5a.5.5,0,0,0,0,1H9a7.015,7.015,0,0,0,.631,2.871l-7.419,5.22a.5.5,0,0,0,.576.818l27-19A.5.5,0,0,0,29.909,6.212ZM16,7a4,4,0,0,1,4,4H12A4,4,0,0,1,16,7ZM10,17V12H20.816L10.461,19.286A5.923,5.923,0,0,1,10,17Z"/><path d="M6.5,24.631a.5.5,0,0,0-.5.5V27.5a.5.5,0,0,0,1,0V25.131A.5.5,0,0,0,6.5,24.631Z"/><path d="M27.5,16H23V13.872a.5.5,0,0,0-1,0V17a6,6,0,0,1-10.195,4.286.5.5,0,1,0-.7.715,6.981,6.981,0,0,0,10.486-.808L24.2,23.15a2.01,2.01,0,0,1,.8,1.6V27.5a.5.5,0,0,0,1,0V24.75a3.017,3.017,0,0,0-1.2-2.4l-2.659-1.994A6.958,6.958,0,0,0,23,17h4.5a.5.5,0,0,0,0-1Z"/></svg>