<svg id="Layer_1" data-name="Layer 1" xmlns="http://www.w3.org/2000/svg" width="32" height="32" viewBox="0 0 32 32"><g id="Layer_4" data-name="Layer 4"><path d="M27.5,16H22.988l-.011-4H23a3,3,0,0,0,3-3V4.5a.5.5,0,0,0-1,0V9a2,2,0,0,1-2,2H21a5,5,0,0,0-10,0H9A2,2,0,0,1,7,9V4.5a.5.5,0,0,0-1,0V9a3,3,0,0,0,2.992,3v4H4.5a.5.5,0,0,0,0,1H9a6.957,6.957,0,0,0,.857,3.353l-2.657,2A3.012,3.012,0,0,0,6,24.75V27.5a.5.5,0,0,0,1,0V24.75a2.01,2.01,0,0,1,.8-1.6l2.6-1.95a6.989,6.989,0,0,0,11.193,0L24.2,23.15a2.006,2.006,0,0,1,.8,1.6V27.5a.5.5,0,0,0,1,0V24.75a3.008,3.008,0,0,0-1.2-2.4l-2.664-2A6.943,6.943,0,0,0,22.991,17H27.5a.5.5,0,0,0,0-1ZM16,7a4,4,0,0,1,4,4H12A4,4,0,0,1,16,7Zm0,16a6,6,0,0,1-6-6l-.008-5H21.977l.014,5A6,6,0,0,1,16,23Z"/></g></svg>