<svg version="1.1" xmlns="http://www.w3.org/2000/svg" width="32" height="32" viewBox="0 0 32 32">
<title>building-o</title>
<path d="M11.5 18c0.276 0 0.5-0.224 0.5-0.5v-1c0-0.276-0.224-0.5-0.5-0.5s-0.5 0.224-0.5 0.5v1c0 0.276 0.224 0.5 0.5 0.5z"></path>
<path d="M14.5 18c0.276 0 0.5-0.224 0.5-0.5v-1c0-0.276-0.224-0.5-0.5-0.5s-0.5 0.224-0.5 0.5v1c0 0.276 0.224 0.5 0.5 0.5z"></path>
<path d="M17.5 18c0.276 0 0.5-0.224 0.5-0.5v-1c0-0.276-0.224-0.5-0.5-0.5s-0.5 0.224-0.5 0.5v1c0 0.276 0.224 0.5 0.5 0.5z"></path>
<path d="M14.5 9c-0.276 0-0.5 0.224-0.5 0.5v1c0 0.276 0.224 0.5 0.5 0.5s0.5-0.224 0.5-0.5v-1c0-0.276-0.224-0.5-0.5-0.5z"></path>
<path d="M17.5 9c-0.276 0-0.5 0.224-0.5 0.5v1c0 0.276 0.224 0.5 0.5 0.5s0.5-0.224 0.5-0.5v-1c0-0.276-0.224-0.5-0.5-0.5z"></path>
<path d="M20.5 18c0.276 0 0.5-0.224 0.5-0.5v-1c0-0.276-0.224-0.5-0.5-0.5s-0.5 0.224-0.5 0.5v1c0 0.276 0.224 0.5 0.5 0.5z"></path>
<path d="M11.5 22c0.276 0 0.5-0.224 0.5-0.5v-1c0-0.276-0.224-0.5-0.5-0.5s-0.5 0.224-0.5 0.5v1c0 0.276 0.224 0.5 0.5 0.5z"></path>
<path d="M14.5 22c0.276 0 0.5-0.224 0.5-0.5v-1c0-0.276-0.224-0.5-0.5-0.5s-0.5 0.224-0.5 0.5v1c0 0.276 0.224 0.5 0.5 0.5z"></path>
<path d="M17.5 22c0.276 0 0.5-0.224 0.5-0.5v-1c0-0.276-0.224-0.5-0.5-0.5s-0.5 0.224-0.5 0.5v1c0 0.276 0.224 0.5 0.5 0.5z"></path>
<path d="M20.5 22c0.276 0 0.5-0.224 0.5-0.5v-1c0-0.276-0.224-0.5-0.5-0.5s-0.5 0.224-0.5 0.5v1c0 0.276 0.224 0.5 0.5 0.5z"></path>
<path d="M11.5 26c0.276 0 0.5-0.224 0.5-0.5v-1c0-0.276-0.224-0.5-0.5-0.5s-0.5 0.224-0.5 0.5v1c0 0.276 0.224 0.5 0.5 0.5z"></path>
<path d="M20.5 26c0.276 0 0.5-0.224 0.5-0.5v-1c0-0.276-0.224-0.5-0.5-0.5s-0.5 0.224-0.5 0.5v1c0 0.276 0.224 0.5 0.5 0.5z"></path>
<path d="M14.5 26c0.276 0 0.5-0.224 0.5-0.5v-1c0-0.276-0.224-0.5-0.5-0.5s-0.5 0.224-0.5 0.5v1c0 0.276 0.224 0.5 0.5 0.5z"></path>
<path d="M17.5 26c0.276 0 0.5-0.224 0.5-0.5v-1c0-0.276-0.224-0.5-0.5-0.5s-0.5 0.224-0.5 0.5v1c0 0.276 0.224 0.5 0.5 0.5z"></path>
<path d="M27.5 28h-2.5v-14.5c0-0.276-0.224-0.5-0.5-0.5h-3.5v-6.5c0-0.276-0.224-0.5-0.5-0.5h-2.5v-2.5c0-0.276-0.224-0.5-0.5-0.5h-2.849c-0.276 0-0.5 0.224-0.5 0.5v2.5h-2.651c-0.276 0-0.5 0.224-0.5 0.5v6.5h-3.5c-0.276 0-0.5 0.224-0.5 0.5v14.5h-2.5c-0.276 0-0.5 0.224-0.5 0.5s0.224 0.5 0.5 0.5h23c0.276 0 0.5-0.224 0.5-0.5s-0.224-0.5-0.5-0.5zM15.151 4h1.849v2h-1.849v-2zM12 7h8v6h-8v-6zM24 28h-16v-14h16v14z"></path>
</svg>
