<svg version="1.1" xmlns="http://www.w3.org/2000/svg" width="32" height="32" viewBox="0 0 32 32">
<title>bullhorn</title>
<path d="M29.8 6.1c-0.125-0.094-0.289-0.124-0.439-0.080l-23.932 6.98h-2.929c-0.276 0-0.5 0.224-0.5 0.5v5c0 0.276 0.224 0.5 0.5 0.5h2.929l6.571 1.917v2.415c0 1.104 0.74 2.091 1.801 2.4l4 1.167c0.233 0.068 0.471 0.102 0.706 0.102 0.532 0 1.053-0.171 1.493-0.502 0.636-0.477 1-1.206 1-2v-0.957l8.36 2.438c0.046 0.013 0.093 0.020 0.14 0.020 0.106 0 0.213-0.034 0.3-0.1 0.126-0.094 0.2-0.243 0.2-0.4v-19c0-0.157-0.074-0.306-0.2-0.4zM3 14h2v4h-2v-4zM20 24.499c0 0.477-0.219 0.914-0.601 1.2s-0.864 0.373-1.319 0.24l-4-1.167c-0.636-0.186-1.080-0.778-1.080-1.44v-2.124l7 2.042v1.249zM29 24.833l-23-6.708v-4.25l23-6.708v17.666z"></path>
</svg>
