<svg version="1.1" xmlns="http://www.w3.org/2000/svg" width="32" height="32" viewBox="0 0 32 32">
<title>bullseye</title>
<path d="M16 4c-6.617 0-12 5.383-12 12s5.383 12 12 12 12-5.383 12-12-5.383-12-12-12zM16 27c-6.065 0-11-4.935-11-11s4.935-11 11-11 11 4.935 11 11-4.935 11-11 11z"></path>
<path d="M16 9c-3.859 0-7 3.14-7 7s3.141 7 7 7 7-3.14 7-7-3.141-7-7-7zM16 22c-3.309 0-6-2.692-6-6s2.691-6 6-6 6 2.692 6 6-2.691 6-6 6z"></path>
<path d="M16 14c-1.103 0-2 0.897-2 2s0.897 2 2 2 2-0.897 2-2-0.897-2-2-2zM16 17c-0.552 0-1-0.449-1-1s0.448-1 1-1 1 0.449 1 1-0.448 1-1 1z"></path>
</svg>
