<svg version="1.1" xmlns="http://www.w3.org/2000/svg" width="32" height="32" viewBox="0 0 32 32">
<title>bus</title>
<path d="M10 21c0 0.552-0.448 1-1 1s-1-0.448-1-1c0-0.552 0.448-1 1-1s1 0.448 1 1z"></path>
<path d="M24 21c0 0.552-0.448 1-1 1s-1-0.448-1-1c0-0.552 0.448-1 1-1s1 0.448 1 1z"></path>
<path d="M23.5 8h-3.5v-1.5c0-0.276-0.224-0.5-0.5-0.5h-7c-0.276 0-0.5 0.224-0.5 0.5v1.5h-3.5c-0.827 0-1.5 0.673-1.5 1.5v5c0 1.93 1.57 3.5 3.5 3.5h11c1.93 0 3.5-1.57 3.5-3.5v-5c0-0.827-0.673-1.5-1.5-1.5zM13 7h6v2h-6v-2zM24 14.5c0 1.378-1.121 2.5-2.5 2.5h-11c-1.379 0-2.5-1.122-2.5-2.5v-5c0-0.276 0.225-0.5 0.5-0.5h3.5v0.5c0 0.276 0.224 0.5 0.5 0.5h7c0.276 0 0.5-0.224 0.5-0.5v-0.5h3.5c0.275 0 0.5 0.224 0.5 0.5v5z"></path>
<path d="M28.5 12c-0.276 0-0.5 0.224-0.5 0.5v4.5h-1v-9.5c0-2.481-2.019-4.5-4.5-4.5h-13c-2.481 0-4.5 2.019-4.5 4.5v8.5h-1v-3.5c0-0.276-0.224-0.5-0.5-0.5s-0.5 0.224-0.5 0.5v4c0 0.276 0.224 0.5 0.5 0.5h1.5v8.5c0 0.276 0.224 0.5 0.5 0.5h1.5v2.5c0 0.276 0.224 0.5 0.5 0.5h4c0.276 0 0.5-0.224 0.5-0.5v-2.5h8v2.5c0 0.276 0.224 0.5 0.5 0.5h4c0.276 0 0.5-0.224 0.5-0.5v-2.5h1.5c0.276 0 0.5-0.224 0.5-0.5v-7.5h1.5c0.276 0 0.5-0.224 0.5-0.5v-5c0-0.276-0.224-0.5-0.5-0.5zM11 28h-3v-2h3v2zM24 28h-3v-2h3v2zM26 25h-20v-17.5c0-1.93 1.57-3.5 3.5-3.5h13c1.93 0 3.5 1.57 3.5 3.5v17.5z"></path>
<path d="M18.5 20h-5c-0.276 0-0.5 0.224-0.5 0.5s0.224 0.5 0.5 0.5h5c0.276 0 0.5-0.224 0.5-0.5s-0.224-0.5-0.5-0.5z"></path>
<path d="M18.5 22h-5c-0.276 0-0.5 0.224-0.5 0.5s0.224 0.5 0.5 0.5h5c0.276 0 0.5-0.224 0.5-0.5s-0.224-0.5-0.5-0.5z"></path>
</svg>
