<svg version="1.1" xmlns="http://www.w3.org/2000/svg" width="32" height="32" viewBox="0 0 32 32">
<title>calculator</title>
<path d="M24.5 2h-17c-0.827 0-1.5 0.673-1.5 1.5v25c0 0.827 0.673 1.5 1.5 1.5h17c0.827 0 1.5-0.673 1.5-1.5v-25c0-0.827-0.673-1.5-1.5-1.5zM25 28.5c0 0.276-0.225 0.5-0.5 0.5h-17c-0.275 0-0.5-0.224-0.5-0.5v-25c0-0.276 0.225-0.5 0.5-0.5h17c0.275 0 0.5 0.224 0.5 0.5v25z"></path>
<path d="M22 5h-12c-0.552 0-1 0.449-1 1v3c0 0.551 0.448 1 1 1h12c0.552 0 1-0.449 1-1v-3c0-0.551-0.448-1-1-1zM22 9h-12v-3h12v3z"></path>
<path d="M11 13c0 0.552-0.448 1-1 1s-1-0.448-1-1c0-0.552 0.448-1 1-1s1 0.448 1 1z"></path>
<path d="M15 13c0 0.552-0.448 1-1 1s-1-0.448-1-1c0-0.552 0.448-1 1-1s1 0.448 1 1z"></path>
<path d="M19 13c0 0.552-0.448 1-1 1s-1-0.448-1-1c0-0.552 0.448-1 1-1s1 0.448 1 1z"></path>
<path d="M23 13c0 0.552-0.448 1-1 1s-1-0.448-1-1c0-0.552 0.448-1 1-1s1 0.448 1 1z"></path>
<path d="M11 17c0 0.552-0.448 1-1 1s-1-0.448-1-1c0-0.552 0.448-1 1-1s1 0.448 1 1z"></path>
<path d="M15 17c0 0.552-0.448 1-1 1s-1-0.448-1-1c0-0.552 0.448-1 1-1s1 0.448 1 1z"></path>
<path d="M19 17c0 0.552-0.448 1-1 1s-1-0.448-1-1c0-0.552 0.448-1 1-1s1 0.448 1 1z"></path>
<path d="M23 17c0 0.552-0.448 1-1 1s-1-0.448-1-1c0-0.552 0.448-1 1-1s1 0.448 1 1z"></path>
<path d="M11 21c0 0.552-0.448 1-1 1s-1-0.448-1-1c0-0.552 0.448-1 1-1s1 0.448 1 1z"></path>
<path d="M15 21c0 0.552-0.448 1-1 1s-1-0.448-1-1c0-0.552 0.448-1 1-1s1 0.448 1 1z"></path>
<path d="M11 25c0 0.552-0.448 1-1 1s-1-0.448-1-1c0-0.552 0.448-1 1-1s1 0.448 1 1z"></path>
<path d="M15 25c0 0.552-0.448 1-1 1s-1-0.448-1-1c0-0.552 0.448-1 1-1s1 0.448 1 1z"></path>
<path d="M22 20h-4c-0.552 0-1 0.449-1 1v4c0 0.551 0.448 1 1 1h4c0.552 0 1-0.449 1-1v-4c0-0.551-0.448-1-1-1zM22 25h-4v-4h4v4z"></path>
</svg>
