<svg version="1.1" xmlns="http://www.w3.org/2000/svg" width="32" height="32" viewBox="0 0 32 32">
<title>calendar-ban</title>
<path d="M27 6h-2v-0.5c0-0.276-0.224-0.5-0.5-0.5s-0.5 0.224-0.5 0.5v0 0.5h-16v-0.5c0-0.276-0.224-0.5-0.5-0.5s-0.5 0.224-0.5 0.5v0 0.5h-2c-1.656 0.002-2.998 1.344-3 3v14c0.002 1.656 1.344 2.998 3 3h9.5c0.276 0 0.5-0.224 0.5-0.5s-0.224-0.5-0.5-0.5v0h-9.5c-1.104-0.001-1.999-0.896-2-2v-12h26v3.5c0 0.276 0.224 0.5 0.5 0.5s0.5-0.224 0.5-0.5v0-5.5c-0.002-1.656-1.344-2.998-3-3h-0zM3 10v-1c0.001-1.104 0.896-1.999 2-2h2v0.5c0 0.276 0.224 0.5 0.5 0.5s0.5-0.224 0.5-0.5v0-0.5h16v0.5c0 0.276 0.224 0.5 0.5 0.5s0.5-0.224 0.5-0.5v0-0.5h2c1.104 0.001 1.999 0.896 2 2v1z"></path>
<path d="M27.389 19.611l-0.014-0.009c-0.993-0.985-2.361-1.594-3.87-1.594-3.036 0-5.497 2.461-5.497 5.497 0 1.51 0.609 2.878 1.595 3.871l-0-0 0.009 0.014 0.014 0.009c0.993 0.985 2.361 1.594 3.87 1.594 3.036 0 5.497-2.461 5.497-5.497 0-1.51-0.609-2.878-1.595-3.871l0 0zM19 23.5c0.003-2.484 2.016-4.497 4.5-4.5h0c1.063 0.005 2.038 0.381 2.801 1.006l-0.008-0.006-6.293 6.294c-0.619-0.755-0.995-1.73-1-2.792v-0.001zM23.5 28c-1.063-0.005-2.038-0.381-2.801-1.006l0.008 0.006 6.293-6.294c0.619 0.755 0.995 1.73 1 2.792v0.001c-0.003 2.484-2.016 4.497-4.5 4.5h-0z"></path>
</svg>
