<svg version="1.1" xmlns="http://www.w3.org/2000/svg" width="32" height="32" viewBox="0 0 32 32">
<title>calendar-pointer</title>
<path d="M27 6h-2v-0.5c0-0.276-0.224-0.5-0.5-0.5s-0.5 0.224-0.5 0.5v0 0.5h-16v-0.5c0-0.276-0.224-0.5-0.5-0.5s-0.5 0.224-0.5 0.5v0 0.5h-2c-1.657 0-3 1.343-3 3v0 14c0 1.657 1.343 3 3 3v0h9.5c0.276 0 0.5-0.224 0.5-0.5s-0.224-0.5-0.5-0.5v0h-9.5c-1.105 0-2-0.895-2-2v0-12h26v3.5c0 0.276 0.224 0.5 0.5 0.5s0.5-0.224 0.5-0.5v0-5.5c0-1.657-1.343-3-3-3v0zM3 10v-1c0-1.105 0.895-2 2-2v0h2v0.5c0 0.276 0.224 0.5 0.5 0.5s0.5-0.224 0.5-0.5v0-0.5h16v0.5c0 0.276 0.224 0.5 0.5 0.5s0.5-0.224 0.5-0.5v0-0.5h2c1.105 0 2 0.895 2 2v0 1z"></path>
<path d="M20.824 18.116c-0.087-0.074-0.2-0.119-0.324-0.119-0.276 0-0.5 0.224-0.5 0.5 0 0.001 0 0.002 0 0.003v-0 7.5c0.001 0.276 0.224 0.499 0.5 0.499 0.138 0 0.263-0.056 0.353-0.146v0l1.91-1.913 2.168 4.339c0.105 0.207 0.316 0.346 0.559 0.346v0c0.001 0 0.001 0 0.002 0 0.101 0 0.197-0.024 0.281-0.068l-0.003 0.002c0.207-0.105 0.346-0.316 0.346-0.56 0-0.101-0.024-0.197-0.067-0.282l0.002 0.004-2.105-4.221h2.555c0.276-0 0.5-0.224 0.5-0.5 0-0.154-0.070-0.292-0.179-0.383l-0.001-0.001z"></path>
</svg>
