<svg version="1.1" xmlns="http://www.w3.org/2000/svg" width="32" height="32" viewBox="0 0 32 32">
<title>calendar-bookmark</title>
<path d="M27 6h-2v-0.5c0-0.276-0.224-0.5-0.5-0.5s-0.5 0.224-0.5 0.5v0 0.5h-16v-0.5c0-0.276-0.224-0.5-0.5-0.5s-0.5 0.224-0.5 0.5v0 0.5h-2c-1.657 0-3 1.343-3 3v0 14c0 1.657 1.343 3 3 3v0h9.5c0.276 0 0.5-0.224 0.5-0.5s-0.224-0.5-0.5-0.5v0h-9.5c-1.105 0-2-0.895-2-2v0-12h26v3.5c0 0.276 0.224 0.5 0.5 0.5s0.5-0.224 0.5-0.5v0-5.5c0-1.657-1.343-3-3-3v0zM3 10v-1c0-1.105 0.895-2 2-2v0h2v0.5c0 0.276 0.224 0.5 0.5 0.5s0.5-0.224 0.5-0.5v0-0.5h16v0.5c0 0.276 0.224 0.5 0.5 0.5s0.5-0.224 0.5-0.5v0-0.5h2c1.105 0 2 0.895 2 2v0 1z"></path>
<path d="M26 18h-5c-0.552 0-1 0.448-1 1v0 9.5c0 0 0 0.001 0 0.001 0 0.276 0.224 0.5 0.5 0.5 0.138 0 0.263-0.056 0.354-0.147v0l2.646-2.647 2.646 2.647c0.090 0.090 0.215 0.146 0.353 0.146 0 0 0.001 0 0.001 0h-0c0.001 0 0.001 0 0.002 0 0.068 0 0.133-0.014 0.192-0.039l-0.003 0.001c0.183-0.077 0.309-0.255 0.309-0.462v0-9.5c0-0.552-0.448-1-1-1v0zM26 27.293l-2.146-2.147c-0.091-0.091-0.216-0.147-0.354-0.147s-0.263 0.056-0.354 0.147v0l-2.146 2.147v-8.293h5z"></path>
</svg>
