<svg version="1.1" xmlns="http://www.w3.org/2000/svg" width="32" height="32" viewBox="0 0 32 32">
<title>calendar-heart</title>
<path d="M27 6h-2v-0.5c0-0.276-0.224-0.5-0.5-0.5s-0.5 0.224-0.5 0.5v0 0.5h-16v-0.5c0-0.276-0.224-0.5-0.5-0.5s-0.5 0.224-0.5 0.5v0 0.5h-2c-1.657 0-3 1.343-3 3v0 14c0 1.657 1.343 3 3 3v0h9.5c0.276 0 0.5-0.224 0.5-0.5s-0.224-0.5-0.5-0.5v0h-9.5c-1.105 0-2-0.895-2-2v0-12h26v3.5c0 0.276 0.224 0.5 0.5 0.5s0.5-0.224 0.5-0.5v0-5.5c0-1.657-1.343-3-3-3v0zM3 10v-1c0-1.105 0.895-2 2-2v0h2v0.5c0 0.276 0.224 0.5 0.5 0.5s0.5-0.224 0.5-0.5v0-0.5h16v0.5c0 0.276 0.224 0.5 0.5 0.5s0.5-0.224 0.5-0.5v0-0.5h2c1.105 0 2 0.895 2 2v0 1z"></path>
<path d="M24.025 19.025l-0.525 0.525-0.525-0.525c-0.642-0.614-1.514-0.991-2.475-0.991s-1.833 0.378-2.476 0.993l0.001-0.001c-0.633 0.633-1.025 1.508-1.025 2.475s0.392 1.842 1.025 2.475l5.121 5.125c0.091 0.091 0.216 0.147 0.354 0.147s0.263-0.056 0.354-0.147v0l5.121-5.121c0.633-0.633 1.025-1.508 1.025-2.475s-0.392-1.842-1.025-2.475v0c-0.643-0.615-1.516-0.993-2.477-0.993-0.959 0-1.831 0.377-2.474 0.99l0.001-0.001zM28.268 23.268l-4.768 4.768-4.768-4.768c-0.452-0.452-0.732-1.078-0.732-1.768 0-1.381 1.119-2.5 2.5-2.5 0.69 0 1.316 0.28 1.768 0.732v0l0.878 0.879c0.091 0.091 0.216 0.147 0.354 0.147s0.263-0.056 0.354-0.147v0l0.878-0.879c0.459-0.438 1.082-0.708 1.768-0.708s1.309 0.27 1.769 0.709l-0.001-0.001c0.453 0.452 0.732 1.078 0.732 1.768s-0.28 1.316-0.732 1.768v0z"></path>
</svg>
