<svg version="1.1" xmlns="http://www.w3.org/2000/svg" width="32" height="32" viewBox="0 0 32 32">
<title>calendar-edit</title>
<path d="M27 6h-2v-0.5c0-0.276-0.224-0.5-0.5-0.5s-0.5 0.224-0.5 0.5v0 0.5h-16v-0.5c0-0.276-0.224-0.5-0.5-0.5s-0.5 0.224-0.5 0.5v0 0.5h-2c-1.657 0-3 1.343-3 3v0 14c0 1.657 1.343 3 3 3v0h9.5c0.276 0 0.5-0.224 0.5-0.5s-0.224-0.5-0.5-0.5v0h-9.5c-1.105 0-2-0.895-2-2v0-12h26v3.5c0 0.276 0.224 0.5 0.5 0.5s0.5-0.224 0.5-0.5v0-5.5c0-1.657-1.343-3-3-3v0zM29 10h-26v-1c0-1.105 0.895-2 2-2v0h2v0.5c0 0.276 0.224 0.5 0.5 0.5s0.5-0.224 0.5-0.5v0-0.5h16v0.5c0 0.276 0.224 0.5 0.5 0.5s0.5-0.224 0.5-0.5v0-0.5h2c1.105 0 2 0.895 2 2v0z"></path>
<path d="M27.084 18c-0.001 0-0.003 0-0.004 0-0.526 0-1.003 0.214-1.347 0.56l-0 0-6.5 6.5c-0.106 0.107-0.189 0.238-0.239 0.384l-0.002 0.007-0.963 2.888c-0.017 0.048-0.027 0.103-0.027 0.161 0 0.275 0.223 0.499 0.497 0.5h0c0.001 0 0.001 0 0.002 0 0.056 0 0.109-0.010 0.159-0.027l-0.003 0.001 2.886-0.962c0.154-0.052 0.285-0.135 0.393-0.242l6.5-6.5c0.348-0.344 0.563-0.822 0.563-1.35 0-0.001 0-0.003 0-0.004v0-0.006c-0.002-1.055-0.858-1.91-1.913-1.91-0.001 0-0.002 0-0.003 0h0zM28 19.916c0 0 0 0.001 0 0.002 0 0.251-0.102 0.478-0.267 0.642l-6.5 6.5-1.939 0.646 0.647-1.939 6.5-6.5c0.165-0.165 0.393-0.266 0.645-0.266 0.503 0 0.911 0.407 0.914 0.909v0z"></path>
</svg>
