<svg version="1.1" xmlns="http://www.w3.org/2000/svg" width="32" height="32" viewBox="0 0 32 32">
<title>calendar-alarm</title>
<path d="M28.167 25.581c-0.095-0.456-0.155-0.984-0.167-1.525l-0-0.010v-1.546c-0.008-2.301-1.745-4.194-3.979-4.447l-0.021-0.002v-0.551c0-0.276-0.224-0.5-0.5-0.5s-0.5 0.224-0.5 0.5v0 0.551c-2.255 0.255-3.992 2.148-4 4.448v1.547c-0.013 0.549-0.070 1.075-0.168 1.587l0.009-0.060-1.682 1.56c-0.099 0.092-0.16 0.222-0.16 0.367 0 0.276 0.224 0.5 0.5 0.5 0 0 0 0 0 0h4.5v0.5c0 0.828 0.672 1.5 1.5 1.5s1.5-0.672 1.5-1.5v0-0.5h4.5c0 0 0 0 0 0 0.276 0 0.5-0.224 0.5-0.5 0-0.145-0.062-0.275-0.16-0.367l-0-0zM24 28.5c0 0.276-0.224 0.5-0.5 0.5s-0.5-0.224-0.5-0.5v0-0.5h1zM18.773 27l0.815-0.755c0.029-0.026 0.054-0.056 0.075-0.088l0.001-0.002c0.213-0.616 0.336-1.325 0.336-2.063 0-0.016-0-0.032-0-0.048v0.002-1.546c0-1.933 1.567-3.5 3.5-3.5s3.5 1.567 3.5 3.5v0 1.546c-0 0.014-0 0.030-0 0.046 0 0.738 0.123 1.448 0.35 2.109l-0.014-0.046c0.022 0.034 0.047 0.064 0.076 0.090l0 0 0.815 0.755z"></path>
<path d="M27 6h-2v-0.5c0-0.276-0.224-0.5-0.5-0.5s-0.5 0.224-0.5 0.5v0 0.5h-16v-0.5c0-0.276-0.224-0.5-0.5-0.5s-0.5 0.224-0.5 0.5v0 0.5h-2c-1.657 0-3 1.343-3 3v0 14c0 1.657 1.343 3 3 3v0h9.5c0.276 0 0.5-0.224 0.5-0.5s-0.224-0.5-0.5-0.5v0h-9.5c-1.105 0-2-0.895-2-2v0-12h26v3.5c0 0.276 0.224 0.5 0.5 0.5s0.5-0.224 0.5-0.5v0-5.5c0-1.657-1.343-3-3-3v0zM3 10v-1c0-1.105 0.895-2 2-2v0h2v0.5c0 0.276 0.224 0.5 0.5 0.5s0.5-0.224 0.5-0.5v0-0.5h16v0.5c0 0.276 0.224 0.5 0.5 0.5s0.5-0.224 0.5-0.5v0-0.5h2c1.105 0 2 0.895 2 2v0 1z"></path>
</svg>
