<svg version="1.1" xmlns="http://www.w3.org/2000/svg" width="32" height="32" viewBox="0 0 32 32">
<title>calendar</title>
<path d="M27 6h-2v-0.5c0-0.276-0.224-0.5-0.5-0.5s-0.5 0.224-0.5 0.5v0 0.5h-16v-0.5c0-0.276-0.224-0.5-0.5-0.5s-0.5 0.224-0.5 0.5v0 0.5h-2c-1.657 0-3 1.343-3 3v0 14c0 1.657 1.343 3 3 3v0h22c1.657 0 3-1.343 3-3v0-14c0-1.657-1.343-3-3-3v0zM29 23c0 1.105-0.895 2-2 2v0h-22c-1.105 0-2-0.895-2-2v0-12h26zM29 10h-26v-1c0-1.105 0.895-2 2-2v0h2v0.5c0 0.276 0.224 0.5 0.5 0.5s0.5-0.224 0.5-0.5v0-0.5h16v0.5c0 0.276 0.224 0.5 0.5 0.5s0.5-0.224 0.5-0.5v0-0.5h2c1.105 0 2 0.895 2 2v0z"></path>
<path d="M14.724 15.947l1.276-0.638v6.191c0 0.276 0.224 0.5 0.5 0.5s0.5-0.224 0.5-0.5v0-7c0-0.276-0.224-0.5-0.5-0.5-0.082 0-0.159 0.020-0.227 0.054l0.003-0.001-2 1c-0.167 0.083-0.279 0.253-0.279 0.449 0 0.276 0.224 0.5 0.5 0.5 0.083 0 0.161-0.020 0.23-0.056l-0.003 0.001z"></path>
</svg>
