<svg version="1.1" xmlns="http://www.w3.org/2000/svg" width="32" height="32" viewBox="0 0 32 32">
<title>calendar-arrow-up</title>
<path d="M27 6h-2v-0.5c0-0.276-0.224-0.5-0.5-0.5s-0.5 0.224-0.5 0.5v0 0.5h-16v-0.5c0-0.276-0.224-0.5-0.5-0.5s-0.5 0.224-0.5 0.5v0 0.5h-2c-1.657 0-3 1.343-3 3v0 14c0 1.657 1.343 3 3 3v0h9.5c0.276 0 0.5-0.224 0.5-0.5s-0.224-0.5-0.5-0.5v0h-9.5c-1.105 0-2-0.895-2-2v0-12h26v3.5c0 0.276 0.224 0.5 0.5 0.5s0.5-0.224 0.5-0.5v0-5.5c0-1.657-1.343-3-3-3v0zM3 10v-1c0-1.105 0.895-2 2-2v0h2v0.5c0 0.276 0.224 0.5 0.5 0.5s0.5-0.224 0.5-0.5v0-0.5h16v0.5c0 0.276 0.224 0.5 0.5 0.5s0.5-0.224 0.5-0.5v0-0.5h2c1.105 0 2 0.895 2 2v0 1z"></path>
<path d="M23.854 18.146c-0.091-0.091-0.216-0.147-0.354-0.147s-0.263 0.056-0.354 0.147v0l-4 4c-0.091 0.091-0.147 0.216-0.147 0.354 0 0.276 0.224 0.501 0.501 0.501 0.138 0 0.263-0.056 0.354-0.147l3.146-3.147v8.793c0 0.276 0.224 0.5 0.5 0.5s0.5-0.224 0.5-0.5v0-8.793l3.146 3.147c0.091 0.091 0.216 0.147 0.354 0.147 0.276 0 0.501-0.224 0.501-0.501 0-0.138-0.056-0.263-0.147-0.354v0z"></path>
</svg>
