<svg version="1.1" xmlns="http://www.w3.org/2000/svg" width="32" height="32" viewBox="0 0 32 32">
<title>camera</title>
<path d="M28.5 8h-6.172c-0.395 0-0.781-0.16-1.061-0.439l-1.828-1.829c-0.471-0.472-1.099-0.732-1.767-0.732h-3.344c-0.668 0-1.296 0.26-1.768 0.732l-1.828 1.829c-0.279 0.279-0.666 0.439-1.060 0.439h-6.172c-0.827 0-1.5 0.673-1.5 1.5v15c0 0.827 0.673 1.5 1.5 1.5h25c0.827 0 1.5-0.673 1.5-1.5v-15c0-0.827-0.673-1.5-1.5-1.5zM29 24.5c0 0.276-0.225 0.5-0.5 0.5h-25c-0.275 0-0.5-0.224-0.5-0.5v-15c0-0.276 0.225-0.5 0.5-0.5h6.172c0.668 0 1.296-0.26 1.768-0.732l1.828-1.829c0.279-0.279 0.666-0.439 1.060-0.439h3.344c0.395 0 0.781 0.16 1.061 0.439l1.828 1.829c0.471 0.472 1.099 0.732 1.767 0.732h6.172c0.275 0 0.5 0.224 0.5 0.5v15z"></path>
<path d="M16 12c-2.757 0-5 2.243-5 5s2.243 5 5 5 5-2.243 5-5-2.243-5-5-5zM16 21c-2.206 0-4-1.794-4-4s1.794-4 4-4 4 1.794 4 4-1.794 4-4 4z"></path>
<path d="M7 12c0 0.552-0.448 1-1 1s-1-0.448-1-1c0-0.552 0.448-1 1-1s1 0.448 1 1z"></path>
<path d="M26.5 11h-2c-0.276 0-0.5 0.224-0.5 0.5s0.224 0.5 0.5 0.5h2c0.276 0 0.5-0.224 0.5-0.5s-0.224-0.5-0.5-0.5z"></path>
</svg>
