<svg version="1.1" xmlns="http://www.w3.org/2000/svg" width="32" height="32" viewBox="0 0 32 32">
<title>camera-retro</title>
<path d="M25.5 4h-12.5v-1.5c0-0.276-0.224-0.5-0.5-0.5h-4c-0.276 0-0.5 0.224-0.5 0.5v1.5h-1.5c-1.379 0-2.5 1.121-2.5 2.5v19c0 1.379 1.121 2.5 2.5 2.5h19c1.379 0 2.5-1.121 2.5-2.5v-19c0-1.379-1.121-2.5-2.5-2.5zM9 3h3v1h-3v-1zM6.5 5h19c0.827 0 1.5 0.673 1.5 1.5v9.5h-6c0-2.757-2.243-5-5-5s-5 2.243-5 5h-6v-9.5c0-0.827 0.673-1.5 1.5-1.5zM16 20c-2.206 0-4-1.794-4-4s1.794-4 4-4 4 1.794 4 4-1.794 4-4 4zM25.5 27h-19c-0.827 0-1.5-0.673-1.5-1.5v-8.5h6.101c0.465 2.279 2.484 4 4.899 4s4.434-1.721 4.899-4h6.101v8.5c0 0.827-0.673 1.5-1.5 1.5z"></path>
<path d="M22.5 8h2c0.276 0 0.5-0.224 0.5-0.5s-0.224-0.5-0.5-0.5h-2c-0.276 0-0.5 0.224-0.5 0.5s0.224 0.5 0.5 0.5z"></path>
</svg>
