<svg version="1.1" xmlns="http://www.w3.org/2000/svg" width="32" height="32" viewBox="0 0 32 32">
<title>car</title>
<path d="M10 19c0 0.552-0.448 1-1 1s-1-0.448-1-1c0-0.552 0.448-1 1-1s1 0.448 1 1z"></path>
<path d="M24 19c0 0.552-0.448 1-1 1s-1-0.448-1-1c0-0.552 0.448-1 1-1s1 0.448 1 1z"></path>
<path d="M27.97 12.329c-0.094-0.259-0.379-0.393-0.641-0.299l-1.688 0.614-1.778-4.723c-0.433-1.149-1.551-1.921-2.781-1.921h-10.164c-1.23 0-2.348 0.772-2.781 1.921l-1.778 4.723-1.688-0.614c-0.261-0.094-0.547 0.040-0.641 0.299s0.039 0.546 0.299 0.641l1.678 0.61-0.346 0.918c-0.438 1.166-0.661 2.388-0.661 3.634v4.368c0 0.276 0.224 0.5 0.5 0.5h0.5v2c0 0.551 0.448 1 1 1h3c0.552 0 1-0.449 1-1v-2h9.5c0 0 0 0 0 0h0.5v2c0 0.551 0.448 1 1 1h3c0.552 0 1-0.449 1-1v-2h0.5c0.276 0 0.5-0.224 0.5-0.5v-4.368c0-1.245-0.223-2.468-0.661-3.633l-0.346-0.918 1.678-0.61c0.26-0.096 0.393-0.382 0.299-0.642zM10.918 7h10.164c0.709 0 1.343 0.399 1.691 1h-13.546c0.348-0.601 0.982-1 1.691-1zM8.799 9h14.402l1.5 3.986-0.223 0.081c-1.703 0.619-3.485 0.933-5.296 0.933h-6.363c-1.812 0-3.594-0.314-5.297-0.933l-0.223-0.081 1.5-3.986zM10 25h-3v-2h3v2zM12.434 22l1.185-1.777c0.093-0.14 0.248-0.223 0.416-0.223h3.93c0.168 0 0.323 0.083 0.416 0.223l1.185 1.777h-7.132zM25 25h-3v-2h3v2zM26 18.132v3.868h-5.232l-1.555-2.332c-0.279-0.418-0.745-0.668-1.248-0.668h-3.93c-0.503 0-0.969 0.25-1.248 0.668l-1.555 2.332h-5.232v-3.868c0-1.125 0.201-2.229 0.597-3.281l0.35-0.929 0.233 0.085c1.813 0.659 3.71 0.993 5.638 0.993h6.363c1.929 0 3.825-0.334 5.639-0.993l0.233-0.085 0.35 0.929c0.396 1.052 0.597 2.156 0.597 3.281z"></path>
</svg>
