<svg version="1.1" xmlns="http://www.w3.org/2000/svg" width="32" height="32" viewBox="0 0 32 32">
<title>carousel</title>
<path d="M7.854 21.146c-0.091-0.091-0.216-0.147-0.354-0.147s-0.263 0.056-0.354 0.147v0l-3 3c-0.091 0.091-0.147 0.216-0.147 0.354s0.056 0.263 0.147 0.354v0l3 3c0.091 0.091 0.216 0.147 0.354 0.147 0.277 0 0.501-0.224 0.501-0.501 0-0.138-0.056-0.263-0.147-0.354l-2.647-2.646 2.647-2.646c0.091-0.091 0.147-0.216 0.147-0.354s-0.056-0.263-0.147-0.354v0z"></path>
<path d="M24.854 21.146c-0.091-0.091-0.216-0.147-0.354-0.147-0.276 0-0.501 0.224-0.501 0.501 0 0.138 0.056 0.263 0.147 0.354l2.647 2.646-2.647 2.646c-0.091 0.091-0.147 0.216-0.147 0.354 0 0.276 0.224 0.501 0.501 0.501 0.138 0 0.263-0.056 0.354-0.147l3-3c0.091-0.091 0.147-0.216 0.147-0.354s-0.056-0.263-0.147-0.354v0z"></path>
<path d="M27 4h-22c-0.552 0-1 0.448-1 1v0 11c0 0.552 0.448 1 1 1v0h22c0.552 0 1-0.448 1-1v0-11c0-0.552-0.448-1-1-1v0zM27 16.5v-0.5h-22v-11h22v11z"></path>
</svg>
