<svg version="1.1" xmlns="http://www.w3.org/2000/svg" width="32" height="32" viewBox="0 0 32 32">
<title>cart-empty</title>
<path d="M11.5 25c-0.828 0-1.5 0.672-1.5 1.5s0.672 1.5 1.5 1.5c0.828 0 1.5-0.672 1.5-1.5v0c0-0.828-0.672-1.5-1.5-1.5v0zM11.5 27c-0.276 0-0.5-0.224-0.5-0.5s0.224-0.5 0.5-0.5c0.276 0 0.5 0.224 0.5 0.5v0c0 0.276-0.224 0.5-0.5 0.5v0z"></path>
<path d="M23.5 25c-0.828 0-1.5 0.672-1.5 1.5s0.672 1.5 1.5 1.5c0.828 0 1.5-0.672 1.5-1.5v0c0-0.828-0.672-1.5-1.5-1.5v0zM23.5 27c-0.276 0-0.5-0.224-0.5-0.5s0.224-0.5 0.5-0.5c0.276 0 0.5 0.224 0.5 0.5v0c0 0.276-0.224 0.5-0.5 0.5v0z"></path>
<path d="M29.658 11.026c-0.047-0.016-0.102-0.026-0.159-0.026-0.22 0-0.406 0.142-0.473 0.338l-0.001 0.004-2.437 7.316c-0.068 0.2-0.255 0.342-0.474 0.342-0.001 0-0.001 0-0.002 0h-17.585l-3.327-9.975c-0.205-0.6-0.763-1.024-1.421-1.025h-1.279c-0.276 0-0.5 0.224-0.5 0.5s0.224 0.5 0.5 0.5v0h1.279c0 0 0 0 0.001 0 0.22 0 0.406 0.142 0.473 0.338l0.001 0.004 4.546 13.633c0.205 0.6 0.763 1.024 1.421 1.025h15.279c0.276 0 0.5-0.224 0.5-0.5s-0.224-0.5-0.5-0.5v0h-15.279c-0 0-0 0-0.001 0-0.22 0-0.406-0.142-0.473-0.338l-0.001-0.004-0.886-2.658h17.252c0 0 0.001 0 0.001 0 0.659 0 1.218-0.424 1.42-1.014l0.003-0.011 2.439-7.317c0.016-0.047 0.025-0.101 0.025-0.157 0-0.22-0.142-0.406-0.339-0.473l-0.004-0.001z"></path>
</svg>
