<svg version="1.1" xmlns="http://www.w3.org/2000/svg" width="32" height="32" viewBox="0 0 32 32">
<title>cart-heart</title>
<path d="M11.5 25c-0.828 0-1.5 0.672-1.5 1.5s0.672 1.5 1.5 1.5c0.828 0 1.5-0.672 1.5-1.5v0c-0.001-0.828-0.672-1.499-1.5-1.5h-0zM11.5 27c-0.276 0-0.5-0.224-0.5-0.5s0.224-0.5 0.5-0.5c0.276 0 0.5 0.224 0.5 0.5v0c0 0.276-0.224 0.5-0.5 0.5v0z"></path>
<path d="M23.5 25c-0.828 0-1.5 0.672-1.5 1.5s0.672 1.5 1.5 1.5c0.828 0 1.5-0.672 1.5-1.5v0c-0.001-0.828-0.672-1.499-1.5-1.5h-0zM23.5 27c-0.276 0-0.5-0.224-0.5-0.5s0.224-0.5 0.5-0.5c0.276 0 0.5 0.224 0.5 0.5v0c-0 0.276-0.224 0.5-0.5 0.5h-0z"></path>
<path d="M29.658 11.026c-0.047-0.016-0.101-0.025-0.158-0.025-0.22 0-0.406 0.141-0.474 0.338l-0.001 0.004-2.438 7.316c-0.069 0.201-0.256 0.342-0.476 0.342h-17.586l-3.325-9.975c-0.204-0.601-0.763-1.025-1.421-1.025-0 0-0.001 0-0.001 0h-1.279c-0.276 0-0.5 0.224-0.5 0.5s0.224 0.5 0.5 0.5v0h1.279c0 0 0 0 0 0 0.22 0 0.406 0.142 0.473 0.338l0.001 0.004 4.544 13.633c0.204 0.601 0.763 1.025 1.421 1.025 0 0 0.001 0 0.001 0h15.279c0.276 0 0.5-0.224 0.5-0.5s-0.224-0.5-0.5-0.5v0h-15.279c-0 0-0 0-0 0-0.22 0-0.406-0.142-0.473-0.338l-0.001-0.004-0.886-2.658h17.252c0 0 0.001 0 0.001 0 0.659 0 1.218-0.424 1.42-1.015l0.003-0.011 2.439-7.316c0.016-0.047 0.026-0.101 0.026-0.158 0-0.22-0.142-0.406-0.338-0.473l-0.004-0.001z"></path>
<path d="M17.157 15.389c0.090 0.090 0.215 0.146 0.353 0.146s0.263-0.056 0.353-0.146l4.263-4.268c0.545-0.543 0.882-1.294 0.882-2.124 0-1.656-1.342-2.998-2.998-2.998-0.829 0-1.579 0.336-2.121 0.88l-0.378 0.378-0.377-0.378c-0.542-0.54-1.29-0.874-2.116-0.874-1.656 0-2.998 1.342-2.998 2.998 0 0.827 0.335 1.576 0.877 2.119l-0-0zM13.601 7.586c0.362-0.361 0.861-0.585 1.413-0.585s1.051 0.223 1.413 0.585v0l0.73 0.732c0.090 0.091 0.215 0.146 0.353 0.146s0.263-0.056 0.353-0.146v0l0.732-0.732c0.362-0.361 0.861-0.585 1.413-0.585 1.104 0 1.999 0.895 1.999 1.999 0 0.552-0.224 1.052-0.586 1.414v0l-3.91 3.915-3.909-3.915c-0.362-0.362-0.585-0.862-0.585-1.414s0.224-1.052 0.585-1.414l-0 0z"></path>
</svg>
