<svg version="1.1" xmlns="http://www.w3.org/2000/svg" width="32" height="32" viewBox="0 0 32 32">
<title>cart-arrow-down</title>
<path d="M11.5 25c-0.828 0-1.5 0.672-1.5 1.5s0.672 1.5 1.5 1.5c0.828 0 1.5-0.672 1.5-1.5v0c-0.001-0.828-0.672-1.499-1.5-1.5h-0zM11.5 27c-0.276 0-0.5-0.224-0.5-0.5s0.224-0.5 0.5-0.5c0.276 0 0.5 0.224 0.5 0.5v0c0 0.276-0.224 0.5-0.5 0.5v0z"></path>
<path d="M23.5 25c-0.828 0-1.5 0.672-1.5 1.5s0.672 1.5 1.5 1.5c0.828 0 1.5-0.672 1.5-1.5v0c-0.001-0.828-0.672-1.499-1.5-1.5h-0zM23.5 27c-0.276 0-0.5-0.224-0.5-0.5s0.224-0.5 0.5-0.5c0.276 0 0.5 0.224 0.5 0.5v0c-0 0.276-0.224 0.5-0.5 0.5h-0z"></path>
<path d="M29.658 11.026c-0.047-0.016-0.101-0.025-0.158-0.025-0.22 0-0.406 0.141-0.474 0.338l-0.001 0.004-2.438 7.316c-0.069 0.201-0.256 0.342-0.476 0.342h-17.586l-3.325-9.975c-0.204-0.601-0.763-1.025-1.421-1.025-0 0-0.001 0-0.001 0h-1.279c-0.276 0-0.5 0.224-0.5 0.5s0.224 0.5 0.5 0.5v0h1.279c0 0 0 0 0 0 0.22 0 0.406 0.142 0.473 0.338l0.001 0.004 4.544 13.633c0.204 0.601 0.763 1.025 1.421 1.025 0 0 0.001 0 0.001 0h15.279c0.276 0 0.5-0.224 0.5-0.5s-0.224-0.5-0.5-0.5v0h-15.279c-0 0-0 0-0 0-0.22 0-0.406-0.142-0.473-0.338l-0.001-0.004-0.886-2.658h17.252c0 0 0.001 0 0.001 0 0.659 0 1.218-0.424 1.42-1.015l0.003-0.011 2.439-7.316c0.016-0.047 0.026-0.101 0.026-0.158 0-0.22-0.142-0.406-0.338-0.473l-0.004-0.001z"></path>
<path d="M17.146 15.854c0.090 0.090 0.215 0.146 0.354 0.146s0.263-0.056 0.354-0.146l4-4c0.094-0.091 0.153-0.219 0.153-0.36 0-0.276-0.224-0.5-0.5-0.5-0.141 0-0.269 0.058-0.36 0.152l-3.147 3.147v-8.793c0-0.276-0.224-0.5-0.5-0.5s-0.5 0.224-0.5 0.5v0 8.793l-3.146-3.146c-0.090-0.087-0.212-0.14-0.347-0.14-0.276 0-0.5 0.224-0.5 0.5 0 0.135 0.053 0.258 0.14 0.348l-0-0z"></path>
</svg>
