<svg version="1.1" xmlns="http://www.w3.org/2000/svg" width="32" height="32" viewBox="0 0 32 32">
<title>cc</title>
<path d="M27 6h-22c-1.657 0-3 1.343-3 3v0 14c0 1.657 1.343 3 3 3v0h22c1.657 0 3-1.343 3-3v0-14c0-1.657-1.343-3-3-3v0zM29 23c0 1.105-0.895 2-2 2v0h-22c-1.105 0-2-0.895-2-2v0-14c0-1.105 0.895-2 2-2v0h22c1.105 0 2 0.895 2 2v0z"></path>
<path d="M20.363 12c1.181 0.008 2.155 0.879 2.325 2.013l0.002 0.013c0.036 0.244 0.244 0.429 0.495 0.429 0.276 0 0.501-0.224 0.501-0.501 0-0.025-0.002-0.050-0.005-0.074l0 0.003c-0.238-1.641-1.636-2.888-3.324-2.888-1.854 0-3.357 1.503-3.357 3.357 0 0.004 0 0.008 0 0.012v-0.001 3.272c0 0.003-0 0.008-0 0.012 0 1.854 1.503 3.357 3.357 3.357 1.688 0 3.086-1.247 3.322-2.869l0.002-0.018c0.003-0.021 0.005-0.046 0.005-0.072 0-0.276-0.224-0.501-0.501-0.501-0.251 0-0.459 0.185-0.495 0.426l-0 0.003c-0.17 1.149-1.15 2.021-2.333 2.021-1.302 0-2.357-1.055-2.357-2.357 0-0.001 0-0.002 0-0.003v0-3.272c0.002-1.305 1.058-2.362 2.363-2.364h0z"></path>
<path d="M11.364 12c1.18 0.009 2.155 0.879 2.325 2.013l0.002 0.013c0.036 0.244 0.244 0.429 0.495 0.429 0.276 0 0.5-0.224 0.5-0.5 0-0.025-0.002-0.050-0.005-0.074l0 0.003c-0.238-1.641-1.636-2.888-3.324-2.888-1.854 0-3.357 1.503-3.357 3.357 0 0.004 0 0.008 0 0.012v-0.001 3.272c0 0.003-0 0.008-0 0.012 0 1.854 1.503 3.357 3.357 3.357 1.688 0 3.086-1.247 3.322-2.869l0.002-0.018c0.003-0.021 0.005-0.046 0.005-0.072 0-0.276-0.224-0.5-0.5-0.5-0.251 0-0.459 0.185-0.495 0.426l-0 0.003c-0.167 1.153-1.148 2.029-2.334 2.029-1.302 0-2.357-1.055-2.357-2.357 0-0.003 0-0.007 0-0.010v0.001-3.272c0.002-1.305 1.059-2.362 2.364-2.364h0z"></path>
</svg>
