<svg version="1.1" xmlns="http://www.w3.org/2000/svg" width="32" height="32" viewBox="0 0 32 32">
<title>certificate</title>
<path d="M25 11c0-4.963-4.037-9-9-9s-9 4.037-9 9c0 2.656 1.164 5.040 3 6.689v11.811c0 0.198 0.117 0.377 0.298 0.457s0.392 0.046 0.538-0.087l5.164-4.694 5.164 4.694c0.094 0.085 0.214 0.13 0.336 0.13 0.068 0 0.138-0.014 0.202-0.043 0.181-0.080 0.298-0.259 0.298-0.457v-11.811c1.836-1.649 3-4.033 3-6.689zM8 11c0-4.411 3.589-8 8-8s8 3.589 8 8-3.589 8-8 8-8-3.589-8-8zM21 28.37l-4.664-4.24c-0.189-0.173-0.482-0.173-0.672 0l-4.664 4.24v-9.891c1.431 0.959 3.151 1.521 5 1.521s3.569-0.562 5-1.522v9.892z"></path>
<path d="M16 16c2.757 0 5-2.243 5-5s-2.243-5-5-5-5 2.243-5 5 2.243 5 5 5zM16 7c2.206 0 4 1.794 4 4s-1.794 4-4 4-4-1.794-4-4 1.794-4 4-4z"></path>
</svg>
