<svg version="1.1" xmlns="http://www.w3.org/2000/svg" width="32" height="32" viewBox="0 0 32 32">
<title>change-case</title>
<path d="M9.94 4.658c-0.288-0.792-1.592-0.792-1.878 0l-8 22c-0.19 0.52 0.080 1.092 0.598 1.282 0.524 0.19 1.092-0.078 1.282-0.598l2.668-7.342h8.782l2.67 7.342c0.146 0.406 0.53 0.658 0.938 0.658 0.114 0 0.228-0.020 0.342-0.060 0.518-0.188 0.788-0.762 0.598-1.282l-8-22zM5.336 18l3.664-10.074 3.664 10.074h-7.328z"></path>
<path d="M31 16c-0.552 0-1 0.448-1 1v0.56c-1.064-0.958-2.458-1.56-4-1.56-3.308 0-6 2.692-6 6s2.692 6 6 6c1.542 0 2.936-0.602 4-1.56v0.56c0 0.552 0.448 1 1 1s1-0.448 1-1v-10c0-0.552-0.448-1-1-1zM26 26c-2.206 0-4-1.794-4-4s1.794-4 4-4 4 1.794 4 4-1.794 4-4 4z"></path>
</svg>
