<svg version="1.1" xmlns="http://www.w3.org/2000/svg" width="32" height="32" viewBox="0 0 32 32">
<title>check-square</title>
<path d="M25 4h-18c-1.657 0-3 1.343-3 3v0 18c0 1.657 1.343 3 3 3v0h18c1.657 0 3-1.343 3-3v0-18c0-1.657-1.343-3-3-3v0zM22.707 12.707l-8 8c-0.181 0.181-0.431 0.293-0.707 0.293s-0.526-0.112-0.707-0.293l-4-4c-0.174-0.18-0.281-0.425-0.281-0.695 0-0.552 0.448-1 1-1 0.27 0 0.515 0.107 0.695 0.281l3.293 3.293 7.293-7.293c0.18-0.174 0.425-0.281 0.695-0.281 0.552 0 1 0.448 1 1 0 0.27-0.107 0.515-0.281 0.695l0-0z"></path>
</svg>
