<svg version="1.1" xmlns="http://www.w3.org/2000/svg" width="32" height="32" viewBox="0 0 32 32">
<title>chevron-circle-right</title>
<path d="M16 2c-7.732 0-14 6.268-14 14s6.268 14 14 14c7.732 0 14-6.268 14-14v0c-0.009-7.729-6.271-13.991-13.999-14h-0.001zM20.207 16.707l-5 5c-0.18 0.174-0.425 0.281-0.695 0.281-0.552 0-1-0.448-1-1 0-0.27 0.107-0.515 0.281-0.695l4.293-4.293-4.293-4.293c-0.174-0.18-0.281-0.425-0.281-0.695 0-0.552 0.448-1 1-1 0.27 0 0.515 0.107 0.695 0.281l5 5c0.181 0.181 0.293 0.431 0.293 0.707s-0.112 0.526-0.293 0.707v0z"></path>
</svg>
