<svg version="1.1" xmlns="http://www.w3.org/2000/svg" width="32" height="32" viewBox="0 0 32 32">
<title>chevron-circle-down</title>
<path d="M30 16c0-7.732-6.268-14-14-14s-14 6.268-14 14c0 7.732 6.268 14 14 14v0c7.729-0.009 13.991-6.271 14-13.999v-0.001zM15.293 20.207l-5-5c-0.174-0.18-0.281-0.425-0.281-0.695 0-0.552 0.448-1 1-1 0.27 0 0.515 0.107 0.695 0.281l4.293 4.293 4.293-4.293c0.18-0.174 0.425-0.281 0.695-0.281 0.552 0 1 0.448 1 1 0 0.27-0.107 0.515-0.281 0.695l-5 5c-0.181 0.181-0.431 0.293-0.707 0.293s-0.526-0.112-0.707-0.293v0z"></path>
</svg>
