<svg version="1.1" xmlns="http://www.w3.org/2000/svg" width="32" height="32" viewBox="0 0 32 32">
<title>chevron-circle-left</title>
<path d="M2 16c0 7.732 6.268 14 14 14s14-6.268 14-14c0-7.732-6.268-14-14-14v0c-7.729 0.009-13.991 6.271-14 13.999v0.001zM11.793 15.293l5-5c0.18-0.174 0.425-0.281 0.695-0.281 0.552 0 1 0.448 1 1 0 0.27-0.107 0.515-0.281 0.695l-4.293 4.293 4.293 4.293c0.188 0.182 0.305 0.437 0.305 0.719 0 0.552-0.448 1-1 1-0.282 0-0.537-0.117-0.719-0.305l-5-5c-0.181-0.181-0.293-0.431-0.293-0.707s0.112-0.526 0.293-0.707v0z"></path>
</svg>
