<svg version="1.1" xmlns="http://www.w3.org/2000/svg" width="32" height="32" viewBox="0 0 32 32">
<title>child</title>
<path d="M19.353 14.188c-0.32-0.721-1.038-1.188-1.828-1.188h-3.051c-0.79 0-1.507 0.466-1.828 1.188l-3.604 8.109c-0.069 0.154-0.054 0.334 0.038 0.476 0.093 0.141 0.251 0.227 0.42 0.227h3.5v6.5c0 0.276 0.224 0.5 0.5 0.5h5c0.276 0 0.5-0.224 0.5-0.5v-6.5h3.5c0.169 0 0.327-0.086 0.419-0.228 0.093-0.142 0.106-0.321 0.038-0.476l-3.604-8.108zM18.5 22c-0.276 0-0.5 0.224-0.5 0.5v6.5h-4v-6.5c0-0.276-0.224-0.5-0.5-0.5h-3.23l3.292-7.406c0.159-0.361 0.518-0.594 0.913-0.594h3.051c0.395 0 0.753 0.232 0.913 0.594l3.291 7.406h-3.23z"></path>
<path d="M21 7c0-2.757-2.243-5-5-5s-5 2.243-5 5v0.5c0 0.827-0.673 1.5-1.5 1.5s-1.5-0.673-1.5-1.5c0-0.276-0.224-0.5-0.5-0.5s-0.5 0.224-0.5 0.5c0 1.379 1.122 2.5 2.5 2.5 0.792 0 1.491-0.377 1.949-0.954 0.785 1.737 2.525 2.954 4.551 2.954s3.766-1.217 4.551-2.953c0.458 0.576 1.157 0.953 1.949 0.953 1.379 0 2.5-1.121 2.5-2.5 0-0.276-0.224-0.5-0.5-0.5s-0.5 0.224-0.5 0.5c0 0.827-0.673 1.5-1.5 1.5s-1.5-0.673-1.5-1.5v-0.5zM16 11c-2.206 0-4-1.794-4-4s1.794-4 4-4c2.206 0 4 1.794 4 4s-1.794 4-4 4z"></path>
</svg>
