<svg version="1.1" xmlns="http://www.w3.org/2000/svg" width="32" height="32" viewBox="0 0 32 32">
<title>circle-arrow-in-nw</title>
<path d="M14.414 13h6.586c0.552 0 1-0.448 1-1s-0.448-1-1-1v0h-9c-0.552 0-1 0.448-1 1v0 9c0 0.552 0.448 1 1 1s1-0.448 1-1v0-6.586l11.793 11.793c0.18 0.174 0.425 0.281 0.695 0.281 0.552 0 1-0.448 1-1 0-0.27-0.107-0.515-0.281-0.695l0 0z"></path>
<path d="M25.909 6.1c-2.534-2.536-6.035-4.104-9.903-4.104-7.732 0-14 6.268-14 14s6.268 14 14 14c1.799 0 3.519-0.339 5.099-0.957l-0.095 0.033c0.198-0.069 0.338-0.255 0.338-0.473 0-0.276-0.224-0.5-0.5-0.5-0.071 0-0.138 0.015-0.199 0.041l0.003-0.001c-1.38 0.544-2.979 0.86-4.651 0.86-7.182 0-13.005-5.823-13.005-13.005s5.823-13.005 13.005-13.005c7.182 0 13.005 5.823 13.005 13.005 0 1.672-0.316 3.271-0.891 4.739l0.030-0.088c-0.025 0.058-0.040 0.125-0.040 0.196 0 0.276 0.224 0.5 0.5 0.5 0.218 0 0.404-0.14 0.472-0.335l0.001-0.003c0.585-1.485 0.923-3.205 0.923-5.004 0-3.864-1.564-7.363-4.093-9.899l0 0z"></path>
</svg>
