<svg version="1.1" xmlns="http://www.w3.org/2000/svg" width="32" height="32" viewBox="0 0 32 32">
<title>circle-arrow-out-north</title>
<path d="M10.707 9.707l4.293-4.293v16.586c0 0.552 0.448 1 1 1s1-0.448 1-1v0-16.586l4.293 4.293c0.18 0.174 0.425 0.281 0.695 0.281 0.552 0 1-0.448 1-1 0-0.27-0.107-0.515-0.281-0.695l-6-6c-0.181-0.181-0.431-0.293-0.707-0.293s-0.526 0.112-0.707 0.293l-6 6c-0.174 0.18-0.281 0.425-0.281 0.695 0 0.552 0.448 1 1 1 0.27 0 0.515-0.107 0.695-0.281l-0 0z"></path>
<path d="M27.926 8.739c-0.090-0.144-0.247-0.238-0.426-0.238-0.276 0-0.501 0.224-0.501 0.501 0 0.097 0.028 0.188 0.076 0.265l-0.001-0.002c1.206 1.913 1.922 4.24 1.926 6.734v0.001c0 7.18-5.82 13-13 13s-13-5.82-13-13v0c0.004-2.495 0.72-4.821 1.956-6.788l-0.031 0.053c0.052-0.077 0.083-0.173 0.083-0.275 0-0.276-0.224-0.5-0.5-0.5-0.184 0-0.344 0.099-0.431 0.247l-0.001 0.002c-1.299 2.063-2.072 4.571-2.075 7.26v0.001c0 7.732 6.268 14 14 14s14-6.268 14-14v0c-0.004-2.689-0.776-5.198-2.108-7.319l0.034 0.058z"></path>
</svg>
