<svg version="1.1" xmlns="http://www.w3.org/2000/svg" width="32" height="32" viewBox="0 0 32 32">
<title>circle-arrow-in-west</title>
<path d="M29 15h-16.586l4.293-4.293c0.174-0.18 0.281-0.425 0.281-0.695 0-0.552-0.448-1-1-1-0.27 0-0.515 0.107-0.695 0.281l-6 6c-0.181 0.181-0.293 0.431-0.293 0.707s0.112 0.526 0.293 0.707l6 6c0.18 0.174 0.425 0.281 0.695 0.281 0.552 0 1-0.448 1-1 0-0.27-0.107-0.515-0.281-0.695l-4.293-4.293h16.586c0.552 0 1-0.448 1-1s-0.448-1-1-1v0z"></path>
<path d="M28.519 21.044c-0.060-0.028-0.131-0.044-0.205-0.044-0.202 0-0.376 0.12-0.455 0.293l-0.001 0.003c-2.079 4.578-6.61 7.704-11.872 7.704-7.18 0-13-5.82-13-13s5.82-13 13-13c5.262 0 9.794 3.126 11.839 7.622l0.033 0.082c0.080 0.176 0.254 0.296 0.456 0.296 0.276 0 0.5-0.224 0.5-0.5 0-0.074-0.016-0.144-0.045-0.207l0.001 0.003c-2.239-4.93-7.119-8.296-12.785-8.296-7.732 0-14 6.268-14 14s6.268 14 14 14c5.666 0 10.547-3.366 12.75-8.208l0.036-0.088c0.027-0.060 0.043-0.13 0.043-0.204 0-0.202-0.12-0.376-0.292-0.455l-0.003-0.001z"></path>
</svg>
