<svg version="1.1" xmlns="http://www.w3.org/2000/svg" width="32" height="32" viewBox="0 0 32 32">
<title>circle-arrow-in-south</title>
<path d="M10.707 15.293c-0.18-0.174-0.425-0.281-0.695-0.281-0.552 0-1 0.448-1 1 0 0.27 0.107 0.515 0.281 0.695l6 6c0.181 0.181 0.431 0.293 0.707 0.293s0.526-0.112 0.707-0.293l6-6c0.174-0.18 0.281-0.425 0.281-0.695 0-0.552-0.448-1-1-1-0.27 0-0.515 0.107-0.695 0.281l-4.293 4.293v-16.586c0-0.552-0.448-1-1-1s-1 0.448-1 1v0 16.586z"></path>
<path d="M21.7 3.229c-0.060-0.027-0.13-0.043-0.204-0.043-0.276 0-0.5 0.224-0.5 0.5 0 0.202 0.12 0.376 0.293 0.455l0.003 0.001c4.578 2.079 7.704 6.61 7.704 11.872 0 7.18-5.82 13-13 13s-13-5.82-13-13c0-5.262 3.126-9.794 7.622-11.839l0.082-0.033c0.176-0.080 0.296-0.254 0.296-0.457 0-0.276-0.224-0.5-0.5-0.5-0.074 0-0.144 0.016-0.207 0.045l0.003-0.001c-4.93 2.239-8.296 7.119-8.296 12.785 0 7.732 6.268 14 14 14s14-6.268 14-14c0-5.666-3.366-10.547-8.208-12.75l-0.088-0.036z"></path>
</svg>
