<svg version="1.1" xmlns="http://www.w3.org/2000/svg" width="32" height="32" viewBox="0 0 32 32">
<title>circle-arrow-out-sw</title>
<path d="M15 24h-5.586l11.293-11.293c0.174-0.18 0.281-0.425 0.281-0.695 0-0.552-0.448-1-1-1-0.27 0-0.515 0.107-0.695 0.281l-11.293 11.293v-5.586c0-0.552-0.448-1-1-1s-1 0.448-1 1v0 8c0 0.552 0.448 1 1 1v0h8c0.552 0 1-0.448 1-1s-0.448-1-1-1v0z"></path>
<path d="M25.9 6.1c-2.534-2.534-6.034-4.101-9.9-4.101s-7.366 1.567-9.9 4.101v0c-1.76 1.764-3.045 4.002-3.649 6.506l-0.019 0.094c-0.009 0.035-0.014 0.075-0.014 0.116 0 0.276 0.224 0.5 0.5 0.5 0.235 0 0.432-0.162 0.486-0.381l0.001-0.003c1.391-5.737 6.483-9.931 12.554-9.931 0.015 0 0.029 0 0.044 0h-0.002c7.179 0 12.999 5.821 12.999 13 0 3.59-1.455 6.84-3.807 9.192v0c-1.637 1.632-3.714 2.824-6.038 3.382l-0.087 0.018c-0.221 0.055-0.383 0.252-0.383 0.486 0 0.276 0.223 0.499 0.498 0.5h0c0.001 0 0.001 0 0.002 0 0.040 0 0.079-0.005 0.116-0.015l-0.003 0.001c6.182-1.498 10.702-6.985 10.702-13.527 0-0.013-0-0.026-0-0.039v0.002c0-0.012 0-0.026 0-0.040 0-3.853-1.567-7.341-4.099-9.859l-0.001-0.001z"></path>
</svg>
