<svg version="1.1" xmlns="http://www.w3.org/2000/svg" width="32" height="32" viewBox="0 0 32 32">
<title>circle-arrow-out-east</title>
<path d="M29.707 15.293l-6-6c-0.18-0.174-0.425-0.281-0.695-0.281-0.552 0-1 0.448-1 1 0 0.27 0.107 0.515 0.281 0.695l4.293 4.293h-16.586c-0.552 0-1 0.448-1 1s0.448 1 1 1v0h16.586l-4.293 4.293c-0.188 0.182-0.305 0.437-0.305 0.719 0 0.552 0.448 1 1 1 0.282 0 0.537-0.117 0.719-0.305l6-6c0.181-0.181 0.293-0.431 0.293-0.707s-0.112-0.526-0.293-0.707v0z"></path>
<path d="M22.735 27.074c-1.913 1.206-4.24 1.922-6.734 1.926h-0.001c-7.18 0-13-5.82-13-13s5.82-13 13-13v0c2.495 0.004 4.822 0.72 6.788 1.957l-0.053-0.031c0.075 0.047 0.166 0.075 0.263 0.075 0.276 0 0.501-0.224 0.501-0.501 0-0.179-0.094-0.336-0.236-0.425l-0.002-0.001c-2.063-1.298-4.572-2.070-7.26-2.074h-0.001c-7.732 0-14 6.268-14 14s6.268 14 14 14v0c2.689-0.004 5.198-0.776 7.319-2.108l-0.058 0.034c0.144-0.090 0.238-0.247 0.238-0.426 0-0.276-0.224-0.501-0.501-0.501-0.097 0-0.188 0.028-0.265 0.076l0.002-0.001z"></path>
</svg>
