<svg version="1.1" xmlns="http://www.w3.org/2000/svg" width="32" height="32" viewBox="0 0 32 32">
<title>circle-arrow-out-ne</title>
<path d="M17 8h5.586l-11.293 11.293c-0.188 0.182-0.305 0.437-0.305 0.719 0 0.552 0.448 1 1 1 0.282 0 0.537-0.117 0.719-0.305l11.293-11.293v5.586c0 0.552 0.448 1 1 1s1-0.448 1-1v0-8c0-0.552-0.448-1-1-1v0h-8c-0.552 0-1 0.448-1 1s0.448 1 1 1v0z"></path>
<path d="M29.2 18.7c-0.035-0.009-0.076-0.014-0.118-0.014-0.234 0-0.43 0.163-0.481 0.382l-0.001 0.003c-1.392 5.736-6.483 9.929-12.553 9.929-0.016 0-0.033-0-0.049-0h0.003c-7.179-0-12.999-5.821-12.999-13 0-3.59 1.455-6.84 3.807-9.192v0c1.637-1.632 3.714-2.823 6.037-3.382l0.087-0.018c0.234-0.045 0.408-0.248 0.408-0.492 0-0.276-0.224-0.5-0.5-0.5-0.049 0-0.097 0.007-0.142 0.020l0.004-0.001c-2.599 0.62-4.838 1.905-6.602 3.664l0-0c-2.534 2.534-4.101 6.034-4.101 9.9 0 7.732 6.268 14.001 14.001 14.001 3.866 0 7.366-1.567 9.9-4.101v0c1.76-1.764 3.046-4.002 3.648-6.506l0.019-0.094c0.008-0.034 0.013-0.074 0.013-0.115 0-0.234-0.16-0.43-0.377-0.485l-0.003-0.001z"></path>
</svg>
