<svg version="1.1" xmlns="http://www.w3.org/2000/svg" width="32" height="32" viewBox="0 0 32 32">
<title>circle-arrow-out-south</title>
<path d="M21.293 22.293l-4.293 4.293v-16.586c0-0.552-0.448-1-1-1s-1 0.448-1 1v0 16.586l-4.293-4.293c-0.18-0.174-0.425-0.281-0.695-0.281-0.552 0-1 0.448-1 1 0 0.27 0.107 0.515 0.281 0.695l6 6c0.181 0.181 0.431 0.293 0.707 0.293s0.526-0.112 0.707-0.293l6-6c0.174-0.18 0.281-0.425 0.281-0.695 0-0.552-0.448-1-1-1-0.27 0-0.515 0.107-0.695 0.281l0-0z"></path>
<path d="M16 2c-7.729 0.009-13.991 6.271-14 13.999v0.001c0.003 2.69 0.776 5.198 2.109 7.318l-0.034-0.057c0.088 0.15 0.249 0.249 0.433 0.249 0.276 0 0.5-0.224 0.5-0.5 0-0.102-0.031-0.198-0.084-0.277l0.001 0.002c-1.205-1.914-1.921-4.24-1.925-6.734v-0.001c0-7.18 5.82-13 13-13s13 5.82 13 13v0c-0.004 2.495-0.721 4.822-1.957 6.788l0.031-0.053c-0.047 0.075-0.075 0.166-0.075 0.263 0 0.276 0.224 0.501 0.501 0.501 0.179 0 0.336-0.094 0.425-0.236l0.001-0.002c1.298-2.063 2.070-4.572 2.074-7.26v-0.001c-0.009-7.729-6.271-13.991-13.999-14h-0.001z"></path>
</svg>
