<svg version="1.1" xmlns="http://www.w3.org/2000/svg" width="32" height="32" viewBox="0 0 32 32">
<title>circle-arrow-out-nw</title>
<path d="M7 16c0.552 0 1-0.448 1-1v0-5.586l11.293 11.293c0.18 0.174 0.425 0.281 0.695 0.281 0.552 0 1-0.448 1-1 0-0.27-0.107-0.515-0.281-0.695l-11.293-11.293h5.586c0.552 0 1-0.448 1-1s-0.448-1-1-1v0h-8c-0.552 0-1 0.448-1 1v0 8c0 0.552 0.448 1 1 1v0z"></path>
<path d="M25.9 6.1c-1.764-1.76-4.002-3.046-6.506-3.648l-0.094-0.019c-0.036-0.009-0.077-0.015-0.12-0.015-0.234 0-0.43 0.163-0.48 0.382l-0.001 0.003c-0.008 0.034-0.013 0.073-0.013 0.114 0 0.235 0.162 0.432 0.381 0.486l0.003 0.001c5.736 1.392 9.929 6.483 9.929 12.553 0 0.015-0 0.030-0 0.045v-0.002c-0 7.179-5.821 12.999-13 12.999-3.59 0-6.84-1.455-9.192-3.807v0c-1.632-1.637-2.824-3.714-3.382-6.038l-0.018-0.087c-0.054-0.222-0.251-0.385-0.486-0.385-0.276 0-0.5 0.224-0.5 0.5 0 0.041 0.005 0.081 0.014 0.119l-0.001-0.003c1.498 6.182 6.985 10.702 13.527 10.702 0.013 0 0.027-0 0.040-0h-0.002c0 0 0.001 0 0.001 0 7.732 0 14-6.268 14-14 0-3.866-1.567-7.366-4.101-9.9v0z"></path>
</svg>
