<svg version="1.1" xmlns="http://www.w3.org/2000/svg" width="32" height="32" viewBox="0 0 32 32">
<title>circle-arrow-in-ne</title>
<path d="M19 21c0 0.552 0.448 1 1 1s1-0.448 1-1v0-9c0-0.552-0.448-1-1-1v0h-9c-0.552 0-1 0.448-1 1s0.448 1 1 1v0h6.586l-11.793 11.793c-0.188 0.182-0.305 0.437-0.305 0.719 0 0.552 0.448 1 1 1 0.282 0 0.537-0.117 0.719-0.305l11.793-11.793z"></path>
<path d="M25.9 6.1c-2.533-2.53-6.030-4.094-9.893-4.094-7.732 0-14 6.268-14 14 0 1.795 0.338 3.512 0.954 5.089l-0.033-0.095c0.074 0.189 0.255 0.321 0.467 0.321 0.276 0 0.5-0.224 0.5-0.5 0-0.064-0.012-0.126-0.034-0.182l0.001 0.003c-0.544-1.379-0.859-2.976-0.859-4.647 0-7.18 5.82-13 13-13s13 5.82 13 13c0 7.18-5.82 13-13 13-1.671 0-3.269-0.315-4.737-0.89l0.088 0.030c-0.047-0.016-0.101-0.025-0.157-0.025-0.276 0-0.5 0.224-0.5 0.5 0 0.204 0.122 0.379 0.297 0.457l0.003 0.001c1.482 0.583 3.198 0.92 4.992 0.92 7.732 0 14-6.268 14-14 0-3.861-1.563-7.357-4.091-9.89l0 0z"></path>
</svg>
