<svg version="1.1" xmlns="http://www.w3.org/2000/svg" width="32" height="32" viewBox="0 0 32 32">
<title>circle-arrow-out-se</title>
<path d="M25 16c-0.552 0-1 0.448-1 1v0 5.586l-11.293-11.293c-0.18-0.174-0.425-0.281-0.695-0.281-0.552 0-1 0.448-1 1 0 0.27 0.107 0.515 0.281 0.695l11.293 11.293h-5.586c-0.552 0-1 0.448-1 1s0.448 1 1 1v0h8c0.552 0 1-0.448 1-1v0-8c0-0.552-0.448-1-1-1v0z"></path>
<path d="M29.566 12.7c-1.499-6.181-6.985-10.7-13.527-10.7-0.014 0-0.028 0-0.041 0h0.002c-0 0-0.001 0-0.001 0-7.732 0-14 6.268-14 14 0 3.866 1.567 7.366 4.101 9.9v0c1.764 1.76 4.002 3.046 6.506 3.648l0.094 0.019c0.034 0.009 0.072 0.014 0.112 0.014 0.001 0 0.002 0 0.003 0h-0c0.275-0.001 0.498-0.225 0.498-0.5 0-0.234-0.161-0.431-0.379-0.485l-0.003-0.001c-2.41-0.577-4.487-1.768-6.124-3.4l0 0c-2.353-2.353-3.808-5.603-3.808-9.194 0-7.18 5.821-13.001 13.001-13.001 3.59 0 6.84 1.455 9.193 3.808v0c1.632 1.637 2.824 3.714 3.382 6.038l0.018 0.087c0.050 0.222 0.246 0.386 0.48 0.386 0.043 0 0.084-0.005 0.124-0.016l-0.003 0.001c0.224-0.053 0.388-0.251 0.388-0.487 0-0.041-0.005-0.082-0.015-0.12l0.001 0.003z"></path>
</svg>
