<svg version="1.1" xmlns="http://www.w3.org/2000/svg" width="32" height="32" viewBox="0 0 32 32">
<title>circle-arrow-in-east</title>
<path d="M15.293 21.293c-0.188 0.182-0.305 0.437-0.305 0.719 0 0.552 0.448 1 1 1 0.282 0 0.537-0.117 0.719-0.305l6-6c0.181-0.181 0.293-0.431 0.293-0.707s-0.112-0.526-0.293-0.707l-6-6c-0.18-0.174-0.425-0.281-0.695-0.281-0.552 0-1 0.448-1 1 0 0.27 0.107 0.515 0.281 0.695l4.293 4.293h-16.586c-0.552 0-1 0.448-1 1s0.448 1 1 1v0h16.586z"></path>
<path d="M16 2c-5.66 0.011-10.532 3.376-12.735 8.212l-0.036 0.088c-0.027 0.060-0.043 0.13-0.043 0.204 0 0.276 0.224 0.5 0.5 0.5 0.202 0 0.376-0.12 0.455-0.293l0.001-0.003c2.079-4.578 6.61-7.704 11.872-7.704 7.18 0 13 5.82 13 13s-5.82 13-13 13c-5.262 0-9.794-3.126-11.839-7.622l-0.033-0.081c-0.080-0.176-0.254-0.296-0.457-0.296-0.276 0-0.5 0.224-0.5 0.5 0 0.074 0.016 0.144 0.045 0.207l-0.001-0.003c2.241 4.921 7.115 8.28 12.774 8.28 7.729 0 13.994-6.265 13.994-13.994s-6.265-13.994-13.994-13.994c-0.001 0-0.002 0-0.003 0h0z"></path>
</svg>
