<svg version="1.1" xmlns="http://www.w3.org/2000/svg" width="32" height="32" viewBox="0 0 32 32">
<title>circle-arrow-out-west</title>
<path d="M9.707 22.707c0.181-0.181 0.293-0.431 0.293-0.707s-0.112-0.526-0.293-0.707l-4.293-4.293h16.686c0.552 0 1-0.448 1-1s-0.448-1-1-1v0h-16.686l4.293-4.293c0.174-0.18 0.281-0.425 0.281-0.695 0-0.552-0.448-1-1-1-0.27 0-0.515 0.107-0.695 0.281l-6 6c-0.181 0.181-0.293 0.431-0.293 0.707s0.112 0.526 0.293 0.707l6 6c0.181 0.181 0.431 0.293 0.707 0.293s0.526-0.112 0.707-0.293v0z"></path>
<path d="M16.1 2c-2.689 0.004-5.198 0.776-7.319 2.108l0.058-0.034c-0.144 0.090-0.238 0.247-0.238 0.426 0 0.276 0.224 0.5 0.5 0.5 0.097 0 0.188-0.028 0.265-0.076l-0.002 0.001c1.914-1.205 4.241-1.922 6.735-1.926h0.001c7.18 0 13 5.82 13 13s-5.82 13-13 13v0c-2.495-0.004-4.822-0.721-6.789-1.957l0.053 0.031c-0.075-0.047-0.165-0.074-0.262-0.074-0.276 0-0.5 0.224-0.5 0.5 0 0.179 0.094 0.336 0.236 0.425l0.002 0.001c2.063 1.298 4.572 2.070 7.26 2.074h0.001c7.732 0 14-6.268 14-14s-6.268-14-14-14v0z"></path>
</svg>
