<svg version="1.1" xmlns="http://www.w3.org/2000/svg" width="32" height="32" viewBox="0 0 32 32">
<title>circle-arrow-in-north</title>
<path d="M21.293 16.707c0.18 0.174 0.425 0.281 0.695 0.281 0.552 0 1-0.448 1-1 0-0.27-0.107-0.515-0.281-0.695l-6-6c-0.181-0.181-0.431-0.293-0.707-0.293s-0.526 0.112-0.707 0.293l-6 6c-0.174 0.18-0.281 0.425-0.281 0.695 0 0.552 0.448 1 1 1 0.27 0 0.515-0.107 0.695-0.281l4.293-4.293v16.586c0 0.552 0.448 1 1 1s1-0.448 1-1v0-16.586z"></path>
<path d="M16 2c-0.002 0-0.004 0-0.006 0-7.727 0-13.991 6.264-13.991 13.991 0 5.665 3.367 10.544 8.209 12.744l0.088 0.036c0.060 0.027 0.13 0.044 0.204 0.044 0.276 0 0.5-0.224 0.5-0.5 0-0.202-0.12-0.376-0.293-0.455l-0.003-0.001c-4.578-2.079-7.704-6.61-7.704-11.872 0-7.18 5.82-13 13-13s13 5.82 13 13c0 5.262-3.126 9.794-7.622 11.839l-0.081 0.033c-0.175 0.080-0.295 0.254-0.295 0.456 0 0.274 0.221 0.497 0.495 0.5h0c0.072-0 0.141-0.016 0.203-0.044l-0.003 0.001c4.93-2.236 8.297-7.115 8.297-12.78 0-7.727-6.264-13.991-13.991-13.991-0.002 0-0.004 0-0.007 0h0z"></path>
</svg>
