<svg version="1.1" xmlns="http://www.w3.org/2000/svg" width="32" height="32" viewBox="0 0 32 32">
<title>clipboard-heart</title>
<path d="M14.5 29h-6.5c-1.104-0.001-1.999-0.896-2-2v-20c0.001-1.104 0.896-1.999 2-2h3v2.5c0 0.276 0.224 0.5 0.5 0.5v0h9c0.276 0 0.5-0.224 0.5-0.5v0-2.5h3c1.104 0.001 1.999 0.896 2 2v7.5c0 0.276 0.224 0.5 0.5 0.5s0.5-0.224 0.5-0.5v0-7.5c-0.002-1.656-1.344-2.998-3-3h-5.172c-0.424-1.175-1.53-2-2.828-2s-2.404 0.825-2.822 1.979l-0.007 0.021h-5.171c-1.656 0.002-2.998 1.344-3 3v20c0.002 1.656 1.344 2.998 3 3h6.5c0.276 0 0.5-0.224 0.5-0.5s-0.224-0.5-0.5-0.5v0zM13.55 5c0 0 0 0 0.001 0 0.241 0 0.441-0.17 0.489-0.397l0.001-0.003c0.193-0.919 0.997-1.6 1.96-1.6s1.767 0.68 1.957 1.587l0.002 0.013c0.048 0.23 0.249 0.4 0.49 0.4 0 0 0 0 0 0h1.551v2h-8v-2z"></path>
<path d="M28.126 19.879c-0.542-0.542-1.291-0.877-2.119-0.877s-1.577 0.335-2.119 0.877l-0.378 0.378-0.377-0.378c-0.542-0.54-1.29-0.874-2.116-0.874-1.656 0-2.998 1.342-2.998 2.998 0 0.827 0.335 1.576 0.877 2.119l4.262 4.268c0.090 0.090 0.215 0.146 0.353 0.146s0.263-0.056 0.353-0.146l4.263-4.268c0.541-0.544 0.876-1.293 0.876-2.121s-0.334-1.577-0.876-2.121l0 0zM27.42 23.414l-3.91 3.915-3.909-3.915c-0.365-0.362-0.592-0.865-0.592-1.42 0-1.104 0.895-1.999 1.999-1.999 0.554 0 1.056 0.226 1.418 0.59l0 0 0.73 0.732c0.090 0.090 0.215 0.146 0.353 0.146s0.263-0.056 0.353-0.146v0l0.732-0.732c0.362-0.361 0.861-0.585 1.413-0.585 1.104 0 1.999 0.895 1.999 1.999 0 0.552-0.224 1.052-0.586 1.414v0z"></path>
</svg>
