<svg version="1.1" xmlns="http://www.w3.org/2000/svg" width="32" height="32" viewBox="0 0 32 32">
<title>clipboard-wrench</title>
<path d="M14.5 29h-6.5c-1.105 0-2-0.895-2-2v0-20c0-1.105 0.895-2 2-2v0h3v2.5c0 0.276 0.224 0.5 0.5 0.5v0h9c0.276 0 0.5-0.224 0.5-0.5v0-2.5h3c1.105 0 2 0.895 2 2v0 7.5c0 0.276 0.224 0.5 0.5 0.5s0.5-0.224 0.5-0.5v0-7.5c0-1.657-1.343-3-3-3v0h-5.172c-0.424-1.175-1.53-2-2.829-2s-2.404 0.825-2.822 1.979l-0.007 0.021h-5.171c-1.657 0-3 1.343-3 3v0 20c0 1.657 1.343 3 3 3v0h6.5c0.276 0 0.5-0.224 0.5-0.5s-0.224-0.5-0.5-0.5v0zM13.55 5c0 0 0 0 0 0 0.241 0 0.442-0.17 0.489-0.397l0.001-0.003c0.193-0.919 0.997-1.6 1.96-1.6s1.767 0.68 1.957 1.587l0.002 0.013c0.048 0.23 0.249 0.4 0.49 0.4 0 0 0 0 0 0h1.551v2h-8v-2z"></path>
<path d="M29.461 19.59c-0.099-0.042-0.214-0.067-0.335-0.067-0.241 0-0.46 0.098-0.618 0.256v0l-1.6 1.6-1.288-1.294 1.59-1.585c0.162-0.159 0.263-0.38 0.263-0.625 0-0.483-0.392-0.875-0.875-0.875-0.001 0-0.003 0-0.004 0h-1.094c-1.933 0-3.5 1.567-3.5 3.5v0 1.167c0 0.001 0 0.003 0 0.004 0 0.413-0.168 0.786-0.439 1.056l-0 0-4 4.005c-0.307 0.339-0.495 0.79-0.495 1.286 0 1.059 0.858 1.917 1.917 1.917 0.499 0 0.954-0.191 1.295-0.504l-0.001 0.001 4-4c0.272-0.266 0.644-0.431 1.055-0.432h1.173c1.931-0.003 3.495-1.569 3.495-3.5 0 0 0 0 0 0v0-1.1c0-0.001 0-0.001 0-0.002 0-0.362-0.22-0.673-0.533-0.806l-0.006-0.002zM29 21.5c0 1.381-1.119 2.5-2.5 2.5v0h-1.168c-0.691 0.002-1.316 0.282-1.77 0.733l-4 4c-0.165 0.158-0.389 0.256-0.635 0.256-0.506 0-0.917-0.411-0.917-0.917 0-0.245 0.096-0.468 0.253-0.632l-0 0 4-4c0.456-0.451 0.738-1.076 0.738-1.768 0-0.001 0-0.002 0-0.003v0-1.169c0-1.381 1.119-2.5 2.5-2.5v0h0.8l-1.378 1.376c-0.181 0.181-0.293 0.431-0.293 0.707s0.112 0.526 0.293 0.707v0l1.289 1.3c0.18 0.182 0.43 0.294 0.706 0.294 0 0 0.001 0 0.001 0h-0c0.001 0 0.002 0 0.003 0 0.275 0 0.523-0.112 0.703-0.293l1.376-1.391z"></path>
</svg>
