<svg version="1.1" xmlns="http://www.w3.org/2000/svg" width="32" height="32" viewBox="0 0 32 32">
<title>clipboard-ban</title>
<path d="M14.5 29h-6.5c-1.104-0.001-1.999-0.896-2-2v-20c0.001-1.104 0.896-1.999 2-2h3v2.5c0 0.276 0.224 0.5 0.5 0.5v0h9c0.276 0 0.5-0.224 0.5-0.5v0-2.5h3c1.104 0.001 1.999 0.896 2 2v7.5c0 0.276 0.224 0.5 0.5 0.5s0.5-0.224 0.5-0.5v0-7.5c-0.002-1.656-1.344-2.998-3-3h-5.172c-0.424-1.175-1.53-2-2.828-2s-2.404 0.825-2.822 1.979l-0.007 0.021h-5.171c-1.656 0.002-2.998 1.344-3 3v20c0.002 1.656 1.344 2.998 3 3h6.5c0.276 0 0.5-0.224 0.5-0.5s-0.224-0.5-0.5-0.5v0zM13.55 5c0 0 0 0 0.001 0 0.241 0 0.441-0.17 0.489-0.397l0.001-0.003c0.193-0.919 0.997-1.6 1.96-1.6s1.767 0.68 1.957 1.587l0.002 0.013c0.048 0.23 0.249 0.4 0.49 0.4 0 0 0 0 0 0h1.551v2h-8v-2z"></path>
<path d="M27.398 19.624l-0.009-0.014-0.014-0.009c-0.993-0.985-2.361-1.594-3.87-1.594-3.036 0-5.497 2.461-5.497 5.497 0 1.51 0.609 2.878 1.595 3.871l-0-0 0.009 0.014 0.014 0.009c0.993 0.985 2.361 1.594 3.87 1.594 3.036 0 5.497-2.461 5.497-5.497 0-1.51-0.609-2.878-1.595-3.871l0 0zM19 23.5c0.003-2.484 2.016-4.497 4.5-4.5h0c1.063 0.005 2.038 0.381 2.801 1.006l-0.008-0.006-6.293 6.294c-0.619-0.755-0.995-1.73-1-2.792v-0.001zM23.5 28c-1.063-0.005-2.038-0.381-2.801-1.006l0.008 0.006 6.293-6.294c0.619 0.755 0.995 1.73 1 2.792v0.001c-0.003 2.484-2.016 4.497-4.5 4.5h-0z"></path>
</svg>
