<svg version="1.1" xmlns="http://www.w3.org/2000/svg" width="32" height="32" viewBox="0 0 32 32">
<title>clipboard-search</title>
<path d="M14.5 29h-6.5c-1.104-0.001-1.999-0.896-2-2v-20c0.001-1.104 0.896-1.999 2-2h3v2.5c0 0.276 0.224 0.5 0.5 0.5v0h9c0.276 0 0.5-0.224 0.5-0.5v0-2.5h3c1.104 0.001 1.999 0.896 2 2v7.5c0 0.276 0.224 0.5 0.5 0.5s0.5-0.224 0.5-0.5v0-7.5c-0.002-1.656-1.344-2.998-3-3h-5.172c-0.424-1.175-1.53-2-2.828-2s-2.404 0.825-2.822 1.979l-0.007 0.021h-5.171c-1.656 0.002-2.998 1.344-3 3v20c0.002 1.656 1.344 2.998 3 3h6.5c0.276 0 0.5-0.224 0.5-0.5s-0.224-0.5-0.5-0.5v0zM13.55 5c0 0 0 0 0.001 0 0.241 0 0.441-0.17 0.489-0.397l0.001-0.003c0.193-0.919 0.997-1.6 1.96-1.6s1.767 0.68 1.957 1.587l0.002 0.013c0.048 0.23 0.249 0.4 0.49 0.4 0 0 0 0 0 0h1.551v2h-8v-2z"></path>
<path d="M28.854 28.146l-3.707-3.707c0.529-0.664 0.849-1.514 0.853-2.439v-0.001c0-2.209-1.791-4-4-4s-4 1.791-4 4c0 2.209 1.791 4 4 4v0c0.926-0.004 1.776-0.325 2.448-0.859l-0.008 0.006 3.707 3.707c0.090 0.087 0.212 0.14 0.347 0.14 0.276 0 0.5-0.224 0.5-0.5 0-0.135-0.053-0.258-0.14-0.348l0 0zM22 25c-1.657 0-3-1.343-3-3s1.343-3 3-3c1.657 0 3 1.343 3 3v0c-0.002 1.656-1.344 2.998-3 3h-0z"></path>
</svg>
