<svg version="1.1" xmlns="http://www.w3.org/2000/svg" width="32" height="32" viewBox="0 0 32 32">
<title>clipboard-pointer</title>
<path d="M24 4h-5.172c-0.424-1.175-1.53-2-2.829-2s-2.404 0.825-2.822 1.979l-0.007 0.021h-5.171c-1.657 0-3 1.343-3 3v0 20c0 1.657 1.343 3 3 3v0h6.5c0.276 0 0.5-0.224 0.5-0.5s-0.224-0.5-0.5-0.5v0h-6.5c-1.105 0-2-0.895-2-2v0-20c0-1.105 0.895-2 2-2v0h3v2.5c0 0.276 0.224 0.5 0.5 0.5v0h9c0.276 0 0.5-0.224 0.5-0.5v0-2.5h3c1.105 0 2 0.895 2 2v0 7.5c0 0.276 0.224 0.5 0.5 0.5s0.5-0.224 0.5-0.5v0-7.5c0-1.657-1.343-3-3-3v0zM20 7h-8v-2h1.55c0 0 0 0 0 0 0.241 0 0.442-0.17 0.489-0.397l0.001-0.003c0.193-0.919 0.997-1.6 1.96-1.6s1.767 0.68 1.957 1.587l0.002 0.013c0.048 0.23 0.249 0.4 0.49 0.4 0 0 0 0 0 0h1.551z"></path>
<path d="M20.824 18.116c-0.087-0.074-0.2-0.119-0.324-0.119-0.276 0-0.5 0.224-0.5 0.5 0 0.001 0 0.002 0 0.003v-0 7.5c0.001 0.276 0.224 0.499 0.5 0.499 0.138 0 0.263-0.056 0.353-0.146v0l1.91-1.913 2.168 4.339c0.105 0.207 0.316 0.346 0.559 0.346v0c0.001 0 0.001 0 0.002 0 0.101 0 0.197-0.024 0.281-0.068l-0.003 0.002c0.207-0.105 0.346-0.316 0.346-0.56 0-0.101-0.024-0.197-0.067-0.282l0.002 0.004-2.105-4.221h2.555c0.276-0 0.5-0.224 0.5-0.5 0-0.154-0.070-0.292-0.179-0.383l-0.001-0.001z"></path>
</svg>
