<svg version="1.1" xmlns="http://www.w3.org/2000/svg" width="32" height="32" viewBox="0 0 32 32">
<title>clipboard-bookmark</title>
<path d="M24 4h-5.172c-0.424-1.175-1.53-2-2.829-2s-2.404 0.825-2.822 1.979l-0.007 0.021h-5.171c-1.657 0-3 1.343-3 3v0 20c0 1.657 1.343 3 3 3v0h6.5c0.276 0 0.5-0.224 0.5-0.5s-0.224-0.5-0.5-0.5v0h-6.5c-1.105 0-2-0.895-2-2v0-20c0-1.105 0.895-2 2-2v0h3v2.5c0 0.276 0.224 0.5 0.5 0.5v0h9c0.276 0 0.5-0.224 0.5-0.5v0-2.5h3c1.105 0 2 0.895 2 2v0 7.5c0 0.276 0.224 0.5 0.5 0.5s0.5-0.224 0.5-0.5v0-7.5c0-1.657-1.343-3-3-3v0zM20 7h-8v-2h1.55c0 0 0 0 0 0 0.241 0 0.442-0.17 0.489-0.397l0.001-0.003c0.193-0.919 0.997-1.6 1.96-1.6s1.767 0.68 1.957 1.587l0.002 0.013c0.048 0.23 0.249 0.4 0.49 0.4 0 0 0 0 0 0h1.551z"></path>
<path d="M26.5 18h-6c-0.276 0-0.5 0.224-0.5 0.5v0 10c0 0 0 0.001 0 0.001 0 0.276 0.224 0.5 0.5 0.5 0.138 0 0.263-0.056 0.354-0.147v0l2.646-2.647 2.646 2.647c0.090 0.090 0.215 0.146 0.353 0.146 0 0 0.001 0 0.001 0h-0c0.001 0 0.001 0 0.002 0 0.068 0 0.133-0.014 0.192-0.039l-0.003 0.001c0.183-0.077 0.309-0.255 0.309-0.462v0-10c0-0.276-0.224-0.5-0.5-0.5v0zM26 27.293l-2.146-2.147c-0.091-0.091-0.216-0.147-0.354-0.147s-0.263 0.056-0.354 0.147v0l-2.146 2.147v-8.293h5z"></path>
</svg>
