<svg version="1.1" xmlns="http://www.w3.org/2000/svg" width="32" height="32" viewBox="0 0 32 32">
<title>clipboard-new</title>
<path d="M14.5 29h-6.5c-1.105 0-2-0.895-2-2v0-20c0-1.105 0.895-2 2-2v0h3v2.5c0 0.276 0.224 0.5 0.5 0.5v0h9c0.276 0 0.5-0.224 0.5-0.5v0-2.5h3c1.105 0 2 0.895 2 2v0 7.5c0 0.276 0.224 0.5 0.5 0.5s0.5-0.224 0.5-0.5v0-7.5c0-1.657-1.343-3-3-3v0h-5.172c-0.424-1.175-1.53-2-2.829-2s-2.404 0.825-2.822 1.979l-0.007 0.021h-5.171c-1.657 0-3 1.343-3 3v0 20c0 1.657 1.343 3 3 3v0h6.5c0.276 0 0.5-0.224 0.5-0.5s-0.224-0.5-0.5-0.5v0zM12 5h1.55c0 0 0 0 0 0 0.241 0 0.442-0.17 0.489-0.397l0.001-0.003c0.193-0.919 0.997-1.6 1.96-1.6s1.767 0.68 1.957 1.587l0.002 0.013c0.048 0.23 0.249 0.4 0.49 0.4 0 0 0 0 0 0h1.551v2h-8z"></path>
<path d="M28.080 25.567l-3.58-2.067 3.58-2.067c0.152-0.088 0.253-0.249 0.253-0.435 0-0.276-0.224-0.5-0.5-0.5-0.093 0-0.18 0.026-0.255 0.070l0.002-0.001-3.58 2.067v-4.134c0-0.276-0.224-0.5-0.5-0.5s-0.5 0.224-0.5 0.5v0 4.134l-3.58-2.067c-0.072-0.043-0.16-0.069-0.253-0.069-0.276 0-0.5 0.224-0.5 0.5 0 0.185 0.101 0.347 0.25 0.433l0.002 0.001 3.58 2.067-3.58 2.067c-0.151 0.088-0.25 0.249-0.25 0.433 0 0.276 0.224 0.5 0.5 0.5v0c0 0 0.001 0 0.002 0 0.092 0 0.177-0.025 0.251-0.068l-0.002 0.001 3.58-2.067v4.134c0 0.276 0.224 0.5 0.5 0.5s0.5-0.224 0.5-0.5v0-4.134l3.58 2.067c0.072 0.042 0.158 0.067 0.25 0.067 0.184 0 0.345-0.099 0.432-0.248l0.001-0.002c0.042-0.072 0.067-0.158 0.067-0.25 0-0.184-0.099-0.345-0.248-0.432l-0.002-0.001z"></path>
</svg>
