<svg version="1.1" xmlns="http://www.w3.org/2000/svg" width="32" height="32" viewBox="0 0 32 32">
<title>clock-o</title>
<path d="M16 2c-7.732 0-14 6.268-14 14s6.268 14 14 14c7.732 0 14-6.268 14-14v0c-0.009-7.729-6.271-13.991-13.999-14h-0.001zM16 29c-7.18 0-13-5.82-13-13s5.82-13 13-13c7.18 0 13 5.82 13 13v0c-0.009 7.176-5.824 12.991-12.999 13h-0.001z"></path>
<path d="M22.7 20.8c0.061-0.082 0.098-0.185 0.098-0.297 0-0.165-0.080-0.311-0.203-0.402l-0.001-0.001-6.594-4.853v-9.747c0-0.276-0.224-0.5-0.5-0.5s-0.5 0.224-0.5 0.5v0 10c0 0.163 0.078 0.308 0.199 0.399l0.001 0.001 6.8 5c0.081 0.062 0.184 0.1 0.296 0.1 0.002 0 0.003 0 0.005-0h-0c0.163 0 0.308-0.078 0.399-0.199l0.001-0.001z"></path>
<path d="M16.5 26h-1c-0.276 0-0.5 0.224-0.5 0.5s0.224 0.5 0.5 0.5v0h1c0.276 0 0.5-0.224 0.5-0.5s-0.224-0.5-0.5-0.5v0z"></path>
<path d="M26.5 15c-0.276 0-0.5 0.224-0.5 0.5v0 1c0 0.276 0.224 0.5 0.5 0.5s0.5-0.224 0.5-0.5v0-1c0-0.276-0.224-0.5-0.5-0.5v0z"></path>
<path d="M5.5 15c-0.276 0-0.5 0.224-0.5 0.5v0 1c0 0.276 0.224 0.5 0.5 0.5s0.5-0.224 0.5-0.5v0-1c0-0.276-0.224-0.5-0.5-0.5v0z"></path>
<path d="M23.425 22.718l-0.707 0.707c-0.087 0.090-0.14 0.212-0.14 0.347 0 0.276 0.224 0.5 0.5 0.5 0.135 0 0.258-0.053 0.348-0.14l0.707-0.707c0.087-0.090 0.14-0.212 0.14-0.347 0-0.276-0.224-0.5-0.5-0.5-0.135 0-0.258 0.053-0.348 0.14l0-0z"></path>
<path d="M8.575 7.868l-0.707 0.707c-0.091 0.091-0.147 0.216-0.147 0.354 0 0.276 0.224 0.5 0.5 0.5 0 0 0.001 0 0.001 0h-0c0.138-0 0.263-0.056 0.353-0.147v0l0.707-0.707c0.094-0.091 0.153-0.219 0.153-0.36 0-0.276-0.224-0.5-0.5-0.5-0.141 0-0.269 0.058-0.36 0.152l-0 0z"></path>
<path d="M8.575 22.718c-0.091-0.094-0.219-0.153-0.36-0.153-0.276 0-0.5 0.224-0.5 0.5 0 0.141 0.058 0.269 0.152 0.36l0.707 0.707c0.090 0.087 0.212 0.14 0.347 0.14 0.276 0 0.5-0.224 0.5-0.5 0-0.135-0.053-0.258-0.14-0.348l0 0z"></path>
<path d="M23.425 7.868c-0.091-0.094-0.219-0.153-0.36-0.153-0.276 0-0.5 0.224-0.5 0.5 0 0.141 0.058 0.269 0.152 0.36l0.707 0.707c0.090 0.090 0.215 0.146 0.354 0.146s0.263-0.056 0.354-0.146v0c0.090-0.090 0.146-0.215 0.146-0.354s-0.056-0.263-0.146-0.354v0z"></path>
</svg>
