<svg version="1.1" xmlns="http://www.w3.org/2000/svg" width="32" height="32" viewBox="0 0 32 32">
<title>clone</title>
<path d="M9.5 20h-2.5c-1.105 0-2-0.895-2-2v0-11c0-1.105 0.895-2 2-2v0h11c1.105 0 2 0.895 2 2v0 2.5c0 0.276 0.224 0.5 0.5 0.5s0.5-0.224 0.5-0.5v0-2.5c0-1.657-1.343-3-3-3v0h-11c-1.657 0-3 1.343-3 3v0 11c0 1.657 1.343 3 3 3v0h2.5c0.276 0 0.5-0.224 0.5-0.5s-0.224-0.5-0.5-0.5v0z"></path>
<path d="M25 11h-11c-1.657 0-3 1.343-3 3v0 11c0 1.657 1.343 3 3 3v0h11c1.657 0 3-1.343 3-3v0-11c0-1.657-1.343-3-3-3v0zM27 25c0 1.105-0.895 2-2 2v0h-11c-1.105 0-2-0.895-2-2v0-11c0-1.105 0.895-2 2-2v0h11c1.105 0 2 0.895 2 2v0z"></path>
</svg>
