<svg version="1.1" xmlns="http://www.w3.org/2000/svg" width="32" height="32" viewBox="0 0 32 32">
<title>cloud</title>
<path d="M24.892 16c0.068-0.3 0.107-0.645 0.108-1v-0c-0.003-2.76-2.24-4.997-5-5h-0c-0.002 0-0.004 0-0.006 0-0.796 0-1.548 0.188-2.214 0.522l0.029-0.013c-0.675-2.63-3.024-4.543-5.82-4.543-3.314 0-6 2.686-6 6 0 0.81 0.161 1.583 0.452 2.289l-0.015-0.040c-2.562 0.722-4.408 3.038-4.408 5.785 0 3.308 2.677 5.99 5.982 6h17.001c2.738-0.031 4.946-2.257 4.946-5 0-2.762-2.239-5-5-5-0.019 0-0.038 0-0.057 0l0.003-0zM25 25h-17c-2.745-0.022-4.961-2.252-4.961-5 0-2.471 1.793-4.524 4.149-4.928l0.030-0.004c0.241-0.039 0.423-0.245 0.423-0.494 0-0.086-0.021-0.166-0.059-0.237l0.001 0.003c-0.367-0.674-0.583-1.476-0.583-2.328 0-0.004 0-0.008 0-0.013v0.001c0.020-2.746 2.251-4.964 5-4.964 2.523 0 4.61 1.869 4.951 4.298l0.003 0.026c0.033 0.247 0.242 0.437 0.496 0.437 0.106 0 0.205-0.033 0.286-0.090l-0.002 0.001c0.638-0.454 1.433-0.726 2.292-0.726 2.198 0 3.98 1.782 3.98 3.98 0 0.52-0.1 1.018-0.282 1.473l0.009-0.027c-0.021 0.053-0.032 0.114-0.032 0.177 0 0.276 0.224 0.5 0.5 0.5 0.032 0 0.063-0.003 0.094-0.009l-0.003 0c0.211-0.045 0.455-0.073 0.705-0.077l0.003-0c2.209 0 4 1.791 4 4s-1.791 4-4 4v0z"></path>
</svg>
