<svg version="1.1" xmlns="http://www.w3.org/2000/svg" width="32" height="32" viewBox="0 0 32 32">
<title>cloud-user</title>
<path d="M24.892 16c0.068-0.3 0.107-0.645 0.108-1v-0c-0.003-2.76-2.24-4.997-5-5h-0c-0.002 0-0.004 0-0.006 0-0.796 0-1.548 0.188-2.214 0.522l0.029-0.013c-0.675-2.63-3.024-4.543-5.82-4.543-3.314 0-6 2.686-6 6 0 0.81 0.161 1.583 0.452 2.289l-0.015-0.040c-2.57 0.714-4.425 3.033-4.425 5.785 0 2.73 1.825 5.034 4.321 5.758l0.042 0.011c0.037 0.010 0.080 0.016 0.125 0.016 0.276 0 0.5-0.224 0.5-0.5 0-0.224-0.147-0.413-0.349-0.477l-0.004-0.001c-2.116-0.611-3.637-2.531-3.637-4.805 0-2.484 1.814-4.545 4.19-4.929l0.029-0.004c0.241-0.039 0.423-0.245 0.423-0.494 0-0.086-0.021-0.166-0.059-0.237l0.001 0.003c-0.367-0.674-0.583-1.476-0.583-2.328 0-0.004 0-0.008 0-0.013v0.001c0.020-2.746 2.251-4.964 5-4.964 2.523 0 4.61 1.869 4.951 4.298l0.003 0.026c0.033 0.247 0.242 0.437 0.496 0.437 0.106 0 0.205-0.033 0.286-0.090l-0.002 0.001c0.638-0.454 1.433-0.726 2.292-0.726 2.198 0 3.98 1.782 3.98 3.98 0 0.52-0.1 1.018-0.282 1.473l0.009-0.027c-0.021 0.053-0.032 0.114-0.032 0.177 0 0.276 0.224 0.5 0.5 0.5 0.032 0 0.063-0.003 0.094-0.009l-0.003 0c0.211-0.045 0.455-0.073 0.705-0.077l0.003-0c2.209 0 4 1.791 4 4s-1.791 4-4 4v0h-0.5c-0.276 0-0.5 0.224-0.5 0.5s0.224 0.5 0.5 0.5v0h0.5c2.738-0.031 4.946-2.257 4.946-5 0-2.762-2.239-5-5-5-0.019 0-0.038 0-0.057 0l0.003-0z"></path>
<path d="M20.117 26.639l-1.731-1.165c0.384-0.554 0.614-1.24 0.614-1.98 0-1.933-1.567-3.5-3.5-3.5s-3.5 1.567-3.5 3.5c0 0.74 0.23 1.426 0.622 1.992l-0.008-0.012-1.731 1.166c-0.536 0.364-0.883 0.971-0.883 1.659 0 0 0 0.001 0 0.001v-0 2.2c0 0.276 0.224 0.5 0.5 0.5s0.5-0.224 0.5-0.5v0-2.2c0-0 0-0.001 0-0.001 0-0.344 0.173-0.647 0.438-0.827l0.003-0.002 1.872-1.259c0.588 0.492 1.353 0.79 2.187 0.79s1.599-0.298 2.192-0.794l-0.005 0.004 1.872 1.259c0.268 0.182 0.441 0.485 0.441 0.829 0 0 0 0.001 0 0.001v-0 2.2c0 0.276 0.224 0.5 0.5 0.5s0.5-0.224 0.5-0.5v0-2.2c0-0.001 0-0.001 0-0.002 0-0.688-0.347-1.295-0.876-1.655l-0.007-0.004zM18 23.5c0 1.381-1.119 2.5-2.5 2.5s-2.5-1.119-2.5-2.5c0-1.381 1.119-2.5 2.5-2.5v0c1.381 0 2.5 1.119 2.5 2.5v0z"></path>
</svg>
