<svg version="1.1" xmlns="http://www.w3.org/2000/svg" width="32" height="32" viewBox="0 0 32 32">
<title>cloud-wrench</title>
<path d="M24.892 16c0.068-0.3 0.107-0.645 0.108-1v-0c-0.003-2.76-2.24-4.997-5-5h-0c-0.002 0-0.004 0-0.006 0-0.796 0-1.548 0.188-2.214 0.522l0.029-0.013c-0.675-2.63-3.024-4.543-5.82-4.543-3.314 0-6 2.686-6 6 0 0.81 0.161 1.583 0.452 2.289l-0.015-0.040c-2.57 0.714-4.425 3.033-4.425 5.785 0 2.73 1.825 5.034 4.321 5.758l0.042 0.011c0.037 0.010 0.080 0.016 0.125 0.016 0.276 0 0.5-0.224 0.5-0.5 0-0.224-0.147-0.413-0.349-0.477l-0.004-0.001c-2.116-0.611-3.637-2.531-3.637-4.805 0-2.484 1.814-4.545 4.19-4.929l0.029-0.004c0.241-0.039 0.423-0.245 0.423-0.494 0-0.086-0.021-0.166-0.059-0.237l0.001 0.003c-0.367-0.674-0.583-1.476-0.583-2.328 0-0.004 0-0.008 0-0.013v0.001c0.020-2.746 2.251-4.964 5-4.964 2.523 0 4.61 1.869 4.951 4.298l0.003 0.026c0.033 0.247 0.242 0.437 0.496 0.437 0.106 0 0.205-0.033 0.286-0.090l-0.002 0.001c0.638-0.454 1.433-0.726 2.292-0.726 2.198 0 3.98 1.782 3.98 3.98 0 0.52-0.1 1.018-0.282 1.473l0.009-0.027c-0.021 0.053-0.032 0.114-0.032 0.177 0 0.276 0.224 0.5 0.5 0.5 0.032 0 0.063-0.003 0.094-0.009l-0.003 0c0.211-0.045 0.455-0.073 0.705-0.077l0.003-0c2.209 0 4 1.791 4 4s-1.791 4-4 4v0h-0.5c-0.276 0-0.5 0.224-0.5 0.5s0.224 0.5 0.5 0.5v0h0.5c2.738-0.031 4.946-2.257 4.946-5 0-2.762-2.239-5-5-5-0.019 0-0.038 0-0.057 0l0.003-0z"></path>
<path d="M21.461 19.59c-0.099-0.042-0.214-0.067-0.335-0.067-0.241 0-0.46 0.098-0.618 0.256v0l-1.6 1.6-1.288-1.294 1.59-1.585c0.162-0.159 0.263-0.38 0.263-0.625 0-0.483-0.392-0.875-0.875-0.875-0.001 0-0.003 0-0.004 0h-1.094c-1.933 0-3.5 1.567-3.5 3.5v0 1.167c0 0.001 0 0.003 0 0.004 0 0.413-0.168 0.786-0.439 1.056l-0 0-4 4.005c-0.307 0.339-0.495 0.79-0.495 1.286 0 1.059 0.858 1.917 1.917 1.917 0.499 0 0.954-0.191 1.295-0.504l-0.001 0.001 4-4c0.272-0.266 0.644-0.431 1.055-0.432h1.173c1.931-0.003 3.495-1.569 3.495-3.5 0 0 0 0 0 0v0-1.1c0-0.001 0-0.001 0-0.002 0-0.362-0.22-0.673-0.533-0.806l-0.006-0.002zM21 21.5c0 1.381-1.119 2.5-2.5 2.5v0h-1.168c-0.691 0.002-1.316 0.282-1.77 0.733l0-0-3.995 4c-0.165 0.158-0.389 0.256-0.635 0.256-0.506 0-0.917-0.411-0.917-0.917 0-0.245 0.096-0.468 0.253-0.632l-0 0 4-4c0.453-0.45 0.733-1.074 0.733-1.763 0-0.003 0-0.006 0-0.009v0-1.169c0-1.381 1.119-2.5 2.5-2.5v0h0.8l-1.378 1.376c-0.181 0.181-0.293 0.431-0.293 0.707s0.112 0.526 0.293 0.707v0l1.289 1.3c0.18 0.182 0.43 0.294 0.706 0.294 0 0 0.001 0 0.001 0h-0c0.001 0 0.002 0 0.003 0 0.275 0 0.523-0.112 0.703-0.293l1.376-1.391z"></path>
</svg>
