<svg version="1.1" xmlns="http://www.w3.org/2000/svg" width="32" height="32" viewBox="0 0 32 32">
<title>cloud-search</title>
<path d="M24.892 16.002c0.068-0.301 0.108-0.646 0.108-1.001v-0c0-0.001 0-0.003 0-0.004 0-2.759-2.237-4.996-4.996-4.996-0.8 0-1.555 0.188-2.226 0.522l0.029-0.013c-0.686-2.612-3.027-4.508-5.81-4.508-3.312 0-5.998 2.685-5.998 5.998 0 0.798 0.156 1.56 0.439 2.256l-0.014-0.040c-2.57 0.714-4.425 3.033-4.425 5.785 0 2.73 1.825 5.033 4.321 5.757l0.042 0.011c0.044 0.014 0.095 0.022 0.147 0.022 0.276 0 0.5-0.224 0.5-0.5 0-0.232-0.158-0.427-0.372-0.483l-0.003-0.001c-2.115-0.611-3.636-2.531-3.636-4.805 0-2.484 1.814-4.544 4.19-4.929l0.029-0.004c0.241-0.039 0.423-0.245 0.423-0.494 0-0.086-0.022-0.167-0.060-0.237l0.001 0.003c-0.367-0.674-0.583-1.475-0.583-2.327 0-0.004 0-0.009 0-0.013v0.001c0-0.001 0-0.002 0-0.004 0-2.76 2.237-4.997 4.997-4.997 2.536 0 4.63 1.888 4.954 4.336l0.003 0.025c0.033 0.248 0.242 0.437 0.496 0.437 0.106 0 0.205-0.033 0.286-0.090l-0.002 0.001c0.637-0.452 1.43-0.722 2.286-0.722 2.198 0 3.98 1.782 3.98 3.98 0 0.517-0.099 1.011-0.278 1.465l0.009-0.027c-0.020 0.052-0.032 0.113-0.032 0.177 0 0.276 0.224 0.5 0.5 0.5 0.032 0 0.063-0.003 0.093-0.009l-0.003 0c0.213-0.044 0.458-0.070 0.709-0.072h0.002c2.209 0 4 1.791 4 4s-1.791 4-4 4v0h-0.5c-0.276 0-0.5 0.224-0.5 0.5s0.224 0.5 0.5 0.5v0h0.5c0.004 0 0.009 0 0.013 0 2.761 0 5-2.239 5-5s-2.239-5-5-5c-0.043 0-0.085 0.001-0.128 0.002l0.006-0z"></path>
<path d="M17.147 26.44c0.529-0.664 0.849-1.514 0.853-2.439v-0.001c0-2.209-1.791-4-4-4s-4 1.791-4 4c0 2.209 1.791 4 4 4v0c0.926-0.004 1.776-0.325 2.448-0.859l-0.008 0.006 3.707 3.707c0.090 0.087 0.212 0.14 0.347 0.14 0.276 0 0.5-0.224 0.5-0.5 0-0.135-0.053-0.258-0.14-0.348l0 0zM14 27c-1.657 0-3-1.343-3-3s1.343-3 3-3c1.657 0 3 1.343 3 3v0c-0.002 1.656-1.344 2.998-3 3h-0z"></path>
</svg>
