<svg version="1.1" xmlns="http://www.w3.org/2000/svg" width="32" height="32" viewBox="0 0 32 32">
<title>cloud-heart</title>
<path d="M24.892 16.002c0.068-0.301 0.108-0.646 0.108-1.001v-0c0-0.001 0-0.003 0-0.004 0-2.759-2.237-4.996-4.996-4.996-0.8 0-1.555 0.188-2.226 0.522l0.029-0.013c-0.686-2.612-3.027-4.508-5.81-4.508-3.312 0-5.998 2.685-5.998 5.998 0 0.798 0.156 1.56 0.439 2.256l-0.014-0.040c-2.57 0.714-4.425 3.033-4.425 5.785 0 2.73 1.825 5.033 4.321 5.757l0.042 0.011c0.044 0.014 0.095 0.022 0.147 0.022 0.276 0 0.5-0.224 0.5-0.5 0-0.232-0.158-0.427-0.372-0.483l-0.003-0.001c-2.115-0.611-3.636-2.531-3.636-4.805 0-2.484 1.814-4.544 4.19-4.929l0.029-0.004c0.241-0.039 0.423-0.245 0.423-0.494 0-0.086-0.022-0.167-0.060-0.237l0.001 0.003c-0.367-0.674-0.583-1.475-0.583-2.327 0-0.004 0-0.009 0-0.013v0.001c0-0.001 0-0.002 0-0.004 0-2.76 2.237-4.997 4.997-4.997 2.536 0 4.63 1.888 4.954 4.336l0.003 0.025c0.033 0.248 0.242 0.437 0.496 0.437 0.106 0 0.205-0.033 0.286-0.090l-0.002 0.001c0.637-0.452 1.43-0.722 2.286-0.722 2.198 0 3.98 1.782 3.98 3.98 0 0.517-0.099 1.011-0.278 1.465l0.009-0.027c-0.020 0.052-0.032 0.113-0.032 0.177 0 0.276 0.224 0.5 0.5 0.5 0.032 0 0.063-0.003 0.093-0.009l-0.003 0c0.213-0.044 0.458-0.070 0.709-0.072h0.002c2.209 0 4 1.791 4 4s-1.791 4-4 4v0h-0.5c-0.276 0-0.5 0.224-0.5 0.5s0.224 0.5 0.5 0.5v0h0.5c0.004 0 0.009 0 0.013 0 2.761 0 5-2.239 5-5s-2.239-5-5-5c-0.043 0-0.085 0.001-0.128 0.002l0.006-0z"></path>
<path d="M15.889 19.879l-0.378 0.378-0.377-0.378c-0.542-0.54-1.29-0.874-2.116-0.874-1.656 0-2.998 1.342-2.998 2.998 0 0.827 0.335 1.576 0.877 2.119l4.262 4.268c0.090 0.090 0.215 0.146 0.353 0.146s0.263-0.056 0.353-0.146l4.263-4.268c0.545-0.543 0.882-1.294 0.882-2.124 0-1.656-1.342-2.998-2.998-2.998-0.829 0-1.579 0.336-2.121 0.88l-0 0zM19.42 23.414l-3.91 3.915-3.909-3.915c-0.365-0.362-0.592-0.865-0.592-1.42 0-1.104 0.895-1.999 1.999-1.999 0.554 0 1.056 0.226 1.418 0.59l0 0 0.73 0.732c0.090 0.090 0.215 0.146 0.353 0.146s0.263-0.056 0.353-0.146v0l0.731-0.732c0.362-0.361 0.861-0.585 1.413-0.585 1.104 0 1.999 0.895 1.999 1.999 0 0.552-0.224 1.052-0.586 1.414v0z"></path>
</svg>
