<svg version="1.1" xmlns="http://www.w3.org/2000/svg" width="32" height="32" viewBox="0 0 32 32">
<title>code</title>
<path d="M10.854 12.146c-0.195-0.195-0.512-0.195-0.707 0l-4 4c-0.195 0.195-0.195 0.512 0 0.707l4 4c0.097 0.098 0.225 0.147 0.353 0.147s0.256-0.049 0.354-0.146c0.195-0.195 0.195-0.512 0-0.707l-3.647-3.647 3.646-3.646c0.196-0.196 0.196-0.512 0.001-0.708z"></path>
<path d="M21.854 12.146c-0.195-0.195-0.512-0.195-0.707 0s-0.195 0.512 0 0.707l3.646 3.646-3.646 3.646c-0.195 0.195-0.195 0.512 0 0.707 0.097 0.099 0.225 0.148 0.353 0.148s0.256-0.049 0.354-0.146l4-4c0.195-0.195 0.195-0.512 0-0.707l-4-4.001z"></path>
<path d="M18.68 9.033c-0.261-0.099-0.548 0.030-0.646 0.287l-5 13c-0.099 0.258 0.029 0.547 0.287 0.646 0.059 0.023 0.119 0.034 0.179 0.034 0.201 0 0.391-0.122 0.467-0.321l5-13c0.098-0.257-0.029-0.546-0.287-0.646z"></path>
<path d="M28.5 6h-25c-0.827 0-1.5 0.673-1.5 1.5v17c0 0.827 0.673 1.5 1.5 1.5h25c0.827 0 1.5-0.673 1.5-1.5v-17c0-0.827-0.673-1.5-1.5-1.5zM29 24.5c0 0.276-0.225 0.5-0.5 0.5h-25c-0.275 0-0.5-0.224-0.5-0.5v-17c0-0.276 0.225-0.5 0.5-0.5h25c0.275 0 0.5 0.224 0.5 0.5v17z"></path>
</svg>
