<svg version="1.1" xmlns="http://www.w3.org/2000/svg" width="32" height="32" viewBox="0 0 32 32">
<title>code-fork</title>
<path d="M26 7.5c0-1.93-1.57-3.5-3.5-3.5s-3.5 1.57-3.5 3.5c0 1.749 1.293 3.189 2.971 3.447-0.292 2.65-3.161 4.089-6.195 5.606-2.233 1.117-4.513 2.262-5.776 3.967v-11.571c1.692-0.245 3-1.691 3-3.449 0-1.93-1.57-3.5-3.5-3.5s-3.5 1.57-3.5 3.5c0 1.759 1.308 3.204 3 3.449v14.101c-1.692 0.245-3 1.691-3 3.449 0 1.931 1.57 3.501 3.5 3.501s3.5-1.57 3.5-3.5c0-1.749-1.293-3.189-2.971-3.447 0.292-2.65 3.161-4.089 6.195-5.606 3.185-1.593 6.467-3.242 6.749-6.495 1.704-0.233 3.027-1.684 3.027-3.452zM7 5.5c0-1.378 1.121-2.5 2.5-2.5s2.5 1.122 2.5 2.5-1.121 2.5-2.5 2.5-2.5-1.122-2.5-2.5zM12 26.5c0 1.378-1.121 2.5-2.5 2.5s-2.5-1.122-2.5-2.5 1.121-2.5 2.5-2.5 2.5 1.122 2.5 2.5zM22.5 10c-1.379 0-2.5-1.122-2.5-2.5s1.121-2.5 2.5-2.5 2.5 1.122 2.5 2.5-1.121 2.5-2.5 2.5z"></path>
</svg>
