<svg version="1.1" xmlns="http://www.w3.org/2000/svg" width="32" height="32" viewBox="0 0 32 32">
<title>code-group</title>
<path d="M3.5 24h-1c-0.276 0-0.5 0.224-0.5 0.5v1c0 0.276 0.224 0.5 0.5 0.5h1c0.276 0 0.5-0.224 0.5-0.5v-1c0-0.276-0.224-0.5-0.5-0.5z"></path>
<path d="M29.5 6h-1c-0.276 0-0.5 0.224-0.5 0.5v1c0 0.276 0.224 0.5 0.5 0.5h1c0.276 0 0.5-0.224 0.5-0.5v-1c0-0.276-0.224-0.5-0.5-0.5z"></path>
<path d="M29.5 24h-0.5v-10.5c0-0.276-0.224-0.5-0.5-0.5h-9.5v-5.5c0-0.276-0.224-0.5-0.5-0.5h-14.5v-0.5c0-0.276-0.224-0.5-0.5-0.5h-1c-0.276 0-0.5 0.224-0.5 0.5v1c0 0.276 0.224 0.5 0.5 0.5h0.5v10.5c0 0.276 0.224 0.5 0.5 0.5h9.5v5.5c0 0.276 0.224 0.5 0.5 0.5h14.5v0.5c0 0.276 0.224 0.5 0.5 0.5h1c0.276 0 0.5-0.224 0.5-0.5v-1c0-0.276-0.224-0.5-0.5-0.5zM4 18v-10h14v5h-4.5c-0.276 0-0.5 0.224-0.5 0.5v4.5h-9zM18 14v4h-4v-4h4zM14 19h4.5c0.276 0 0.5-0.224 0.5-0.5v-4.5h9v10h-14v-5z"></path>
</svg>
