<svg version="1.1" xmlns="http://www.w3.org/2000/svg" width="32" height="32" viewBox="0 0 32 32">
<title>collapsible</title>
<path d="M27.5 20h-22c-0.276 0-0.5 0.224-0.5 0.5v7c0 0.276 0.224 0.5 0.5 0.5h22c0.276 0 0.5-0.224 0.5-0.5v-7c0-0.276-0.224-0.5-0.5-0.5zM27 27h-21v-6h21v6z"></path>
<path d="M5.5 5h10.5v10.293l-3.146-3.146c-0.195-0.195-0.512-0.195-0.707 0s-0.195 0.512 0 0.707l4 4c0.046 0.046 0.102 0.083 0.163 0.108 0.060 0.025 0.125 0.038 0.19 0.038s0.13-0.013 0.191-0.039c0.062-0.025 0.117-0.062 0.163-0.108l4-4c0.195-0.195 0.195-0.512 0-0.707s-0.512-0.195-0.707 0l-3.147 3.147v-10.293h10.5c0.276 0 0.5-0.224 0.5-0.5s-0.224-0.5-0.5-0.5h-22c-0.276 0-0.5 0.224-0.5 0.5s0.224 0.5 0.5 0.5z"></path>
</svg>
