<svg version="1.1" xmlns="http://www.w3.org/2000/svg" width="32" height="32" viewBox="0 0 32 32">
<title>columns</title>
<path d="M29.5 5h-27c-0.276 0-0.5 0.224-0.5 0.5v20c0 0.276 0.224 0.5 0.5 0.5h27c0.276 0 0.5-0.224 0.5-0.5v-20c0-0.276-0.224-0.5-0.5-0.5zM29 25h-26v-19h26v19z"></path>
<path d="M11 7h1v2h-1v-2z"></path>
<path d="M20 7h1v2h-1v-2z"></path>
<path d="M11 10h1v2h-1v-2z"></path>
<path d="M20 10h1v2h-1v-2z"></path>
<path d="M11 13h1v2h-1v-2z"></path>
<path d="M20 13h1v2h-1v-2z"></path>
<path d="M11 16h1v2h-1v-2z"></path>
<path d="M20 16h1v2h-1v-2z"></path>
<path d="M11 19h1v2h-1v-2z"></path>
<path d="M20 19h1v2h-1v-2z"></path>
<path d="M11 22h1v2h-1v-2z"></path>
<path d="M20 22h1v2h-1v-2z"></path>
</svg>
