<svg version="1.1" xmlns="http://www.w3.org/2000/svg" width="32" height="32" viewBox="0 0 32 32">
<title>combo-chart</title>
<path d="M29.5 25h-1.5v-14.5c0-0.276-0.224-0.5-0.5-0.5v0h-6c-0.276 0-0.5 0.224-0.5 0.5v0 14.5h-1v-10.5c0-0.276-0.224-0.5-0.5-0.5v0h-6c-0.276 0-0.5 0.224-0.5 0.5v0 10.5h-1v-6.5c0-0.276-0.224-0.5-0.5-0.5v0h-6c-0.276 0-0.5 0.224-0.5 0.5v0 6.5h-2v-20.329c0-0.276-0.224-0.5-0.5-0.5s-0.5 0.224-0.5 0.5v0 20.829c0 0.276 0.224 0.5 0.5 0.5v0h27c0.276 0 0.5-0.224 0.5-0.5s-0.224-0.5-0.5-0.5v0zM11 25h-5v-6h5zM19 25h-5v-10h5zM27 25h-5v-14h5z"></path>
<path d="M5.5 14c0 0 0 0 0 0 0.068 0 0.133-0.014 0.192-0.038l-0.003 0.001 22-9c0.184-0.077 0.311-0.255 0.311-0.463 0-0.276-0.224-0.5-0.5-0.5-0.068 0-0.133 0.014-0.192 0.038l0.003-0.001-22 9c-0.184 0.076-0.311 0.255-0.311 0.463 0 0.276 0.224 0.5 0.5 0.5 0 0 0 0 0 0v0z"></path>
</svg>
