<svg version="1.1" xmlns="http://www.w3.org/2000/svg" width="32" height="32" viewBox="0 0 32 32">
<title>comments-o</title>
<path d="M25 2h-11c-2.76 0.003-4.997 2.24-5 5v2.5c0 0.276 0.224 0.5 0.5 0.5s0.5-0.224 0.5-0.5v0-2.5c0-2.209 1.791-4 4-4v0h11c2.209 0 4 1.791 4 4v0 4c0 2.209-1.791 4-4 4v0h-0.5c-0.276 0-0.5 0.224-0.5 0.5s0.224 0.5 0.5 0.5v0h0.5c2.76-0.003 4.997-2.24 5-5v-4c-0.003-2.76-2.24-4.997-5-5h-0z"></path>
<path d="M18 11h-11c-2.76 0.003-4.997 2.24-5 5v4c0 0.003 0 0.005 0 0.008 0 2.406 1.702 4.414 3.968 4.886l0.032 0.006v4.6c0 0.207 0.126 0.385 0.306 0.461l0.003 0.001c0.056 0.024 0.122 0.038 0.191 0.038h0c0 0 0.001 0 0.001 0 0.138 0 0.263-0.056 0.353-0.146v0l4.853-4.854h6.293c2.76-0.003 4.997-2.24 5-5v-4c-0.003-2.76-2.24-4.997-5-5h-0zM22 20c0 2.209-1.791 4-4 4v0h-6.5c-0 0-0.001 0-0.001 0-0.138 0-0.263 0.056-0.353 0.146v0l-4.146 4.147v-3.82c0-0.001 0-0.002 0-0.003 0-0.257-0.194-0.468-0.443-0.497l-0.002-0c-2.009-0.229-3.555-1.919-3.555-3.97 0-0.001 0-0.002 0-0.003v0-4c0-2.209 1.791-4 4-4v0h11c2.209 0 4 1.791 4 4v0z"></path>
</svg>
