<svg version="1.1" xmlns="http://www.w3.org/2000/svg" width="32" height="32" viewBox="0 0 32 32">
<title>comment-o</title>
<path d="M24 6h-16c-3.312 0.003-5.997 2.688-6 6v5c-0 0.009-0 0.020-0 0.031 0 2.953 2.147 5.405 4.965 5.881l0.035 0.005v4.383c0 0.207 0.126 0.385 0.306 0.461l0.003 0.001c0.056 0.024 0.122 0.038 0.191 0.038h0c0.138-0 0.263-0.056 0.354-0.147v0l4.653-4.653h11.493c3.312-0.003 5.997-2.688 6-6v-5c-0.003-3.312-2.688-5.997-6-6h-0zM29 17c-0.003 2.76-2.24 4.997-5 5h-11.7c-0 0-0.001 0-0.001 0-0.138 0-0.263 0.056-0.353 0.146v0l-3.946 3.947v-3.616c0-0.001 0-0.001 0-0.002 0-0.26-0.199-0.474-0.453-0.498l-0.002-0c-2.556-0.226-4.545-2.357-4.545-4.953 0-0.009 0-0.017 0-0.026v0.001-5c0.003-2.76 2.24-4.997 5-5h16c2.76 0.003 4.997 2.24 5 5v0z"></path>
</svg>
