<svg version="1.1" xmlns="http://www.w3.org/2000/svg" width="32" height="32" viewBox="0 0 32 32">
<title>comments</title>
<path d="M25 2h-11c-2.76 0.003-4.997 2.24-5 5v3h9c3.312 0.003 5.997 2.688 6 6v0h1c2.76-0.003 4.997-2.24 5-5v-4c-0.003-2.76-2.24-4.997-5-5h-0z"></path>
<path d="M18 11h-11c-2.76 0.003-4.997 2.24-5 5v4c0.003 2.407 1.703 4.416 3.967 4.894l0.033 0.006v4.6c0 0.207 0.126 0.385 0.306 0.461l0.003 0.001c0.056 0.024 0.122 0.038 0.191 0.038h0c0 0 0.001 0 0.001 0 0.138 0 0.263-0.056 0.353-0.146v0l4.853-4.854h6.293c2.76-0.003 4.997-2.24 5-5v-4c-0.003-2.76-2.24-4.997-5-5h-0z"></path>
</svg>
