<svg version="1.1" xmlns="http://www.w3.org/2000/svg" width="32" height="32" viewBox="0 0 32 32">
<title>copyright</title>
<path d="M16 4c-6.617 0-12 5.383-12 12s5.383 12 12 12 12-5.383 12-12-5.383-12-12-12zM16 27c-6.065 0-11-4.935-11-11s4.935-11 11-11 11 4.935 11 11-4.935 11-11 11z"></path>
<path d="M16 11c1.335 0 2.591 0.52 3.535 1.465 0.195 0.195 0.512 0.195 0.707 0s0.195-0.512 0-0.707c-1.133-1.134-2.639-1.758-4.242-1.758s-3.109 0.624-4.242 1.758c-1.134 1.133-1.758 2.639-1.758 4.242s0.624 3.109 1.758 4.242c1.133 1.134 2.639 1.758 4.242 1.758s3.109-0.624 4.242-1.758c0.195-0.195 0.195-0.512 0-0.707s-0.512-0.195-0.707 0c-0.944 0.945-2.2 1.465-3.535 1.465s-2.591-0.52-3.535-1.465c-0.944-0.944-1.465-2.2-1.465-3.535s0.521-2.591 1.465-3.535c0.944-0.945 2.2-1.465 3.535-1.465z"></path>
</svg>
