<svg version="1.1" xmlns="http://www.w3.org/2000/svg" width="32" height="32" viewBox="0 0 32 32">
<title>copy</title>
<path d="M27.707 9l-4.707-4.707c-0.18-0.181-0.428-0.293-0.703-0.293-0.001 0-0.002 0-0.004 0h-8.293c-0.552 0-1 0.448-1 1v0 1.5c0 0.276 0.224 0.5 0.5 0.5s0.5-0.224 0.5-0.5v0-1.5h8.293l4.707 4.707v12.293h-5.5c-0.276 0-0.5 0.224-0.5 0.5s0.224 0.5 0.5 0.5v0h5.5c0.552 0 1-0.448 1-1v0-12.293c0-0.001 0-0.002 0-0.004 0-0.275-0.112-0.524-0.293-0.703l-0-0z"></path>
<path d="M21.5 6c-0.276 0-0.5 0.224-0.5 0.5v0 4.5h4.5c0.276 0 0.5-0.224 0.5-0.5s-0.224-0.5-0.5-0.5v0h-3.5v-3.5c0-0.276-0.224-0.5-0.5-0.5v0z"></path>
<path d="M14 9.293c-0.181-0.181-0.431-0.293-0.707-0.293h-8.293c-0.552 0-1 0.448-1 1v0 17c0 0.552 0.448 1 1 1v0h13c0.552 0 1-0.448 1-1v0-12.293c0-0.001 0-0.002 0-0.004 0-0.275-0.112-0.524-0.293-0.703l-0-0zM18 27h-13v-17h8.293l4.707 4.707z"></path>
<path d="M13 11.5c0-0.276-0.224-0.5-0.5-0.5s-0.5 0.224-0.5 0.5v0 4.5h4.5c0.276 0 0.5-0.224 0.5-0.5s-0.224-0.5-0.5-0.5v0h-3.5z"></path>
</svg>
