<svg version="1.1" xmlns="http://www.w3.org/2000/svg" width="32" height="32" viewBox="0 0 32 32">
<title>creative-commons</title>
<path d="M16 4c-6.617 0-12 5.383-12 12s5.383 12 12 12 12-5.383 12-12-5.383-12-12-12zM16 27c-6.065 0-11-4.935-11-11s4.935-11 11-11 11 4.935 11 11-4.935 11-11 11z"></path>
<path d="M14.121 13.879c0.195 0.195 0.512 0.195 0.707 0s0.195-0.512 0-0.707c-1.51-1.511-4.146-1.511-5.656 0-0.756 0.755-1.172 1.759-1.172 2.828s0.416 2.073 1.172 2.828c0.755 0.756 1.76 1.172 2.828 1.172s2.073-0.416 2.828-1.172c0.195-0.195 0.195-0.512 0-0.707s-0.512-0.195-0.707 0c-1.133 1.134-3.109 1.134-4.242 0-0.567-0.567-0.879-1.32-0.879-2.121s0.312-1.554 0.879-2.121c1.133-1.134 3.109-1.134 4.242 0z"></path>
<path d="M22.121 13.879c0.195 0.195 0.512 0.195 0.707 0s0.195-0.512 0-0.707c-1.51-1.511-4.146-1.511-5.656 0-0.756 0.755-1.172 1.759-1.172 2.828s0.416 2.073 1.172 2.828c0.755 0.756 1.76 1.172 2.828 1.172s2.073-0.416 2.828-1.172c0.195-0.195 0.195-0.512 0-0.707s-0.512-0.195-0.707 0c-1.133 1.134-3.109 1.134-4.242 0-0.567-0.567-0.879-1.32-0.879-2.121s0.312-1.554 0.879-2.121c1.133-1.134 3.109-1.134 4.242 0z"></path>
</svg>
