<svg version="1.1" xmlns="http://www.w3.org/2000/svg" width="32" height="32" viewBox="0 0 32 32">
<title>credit-card-alt</title>
<path d="M27 6h-22c-1.657 0-3 1.343-3 3v0 14c0 1.657 1.343 3 3 3v0h22c1.657 0 3-1.343 3-3v0-14c0-1.657-1.343-3-3-3v0zM8.5 23h-3c-0.276 0-0.5-0.224-0.5-0.5s0.224-0.5 0.5-0.5v0h3c0.276 0 0.5 0.224 0.5 0.5s-0.224 0.5-0.5 0.5v0zM10.5 20h-5c-0.276 0-0.5-0.224-0.5-0.5s0.224-0.5 0.5-0.5v0h5c0.276 0 0.5 0.224 0.5 0.5s-0.224 0.5-0.5 0.5v0zM27 22.5c0 0.276-0.224 0.5-0.5 0.5v0h-4c-0.276 0-0.5-0.224-0.5-0.5v0-3c0-0.276 0.224-0.5 0.5-0.5v0h4c0.276 0 0.5 0.224 0.5 0.5v0zM29 12h-26v-2h26z"></path>
<path d="M23 20h3v2h-3v-2z"></path>
</svg>
