<svg version="1.1" xmlns="http://www.w3.org/2000/svg" width="32" height="32" viewBox="0 0 32 32">
<title>credit-card-terminal</title>
<path d="M20 4h-12c-1.657 0-3 1.343-3 3v0 18c0 1.657 1.343 3 3 3v0h12c1.657 0 3-1.343 3-3v0-18c0-1.657-1.343-3-3-3v0zM22 25c0 1.105-0.895 2-2 2v0h-12c-1.105 0-2-0.895-2-2v0-18c0-1.105 0.895-2 2-2v0h12c1.105 0 2 0.895 2 2v0z"></path>
<path d="M28 8h-3.5c-0.276 0-0.5 0.224-0.5 0.5s0.224 0.5 0.5 0.5v0h3.5c0.552 0 1 0.448 1 1v0 11c0 0.552-0.448 1-1 1v0h-3.5c-0.276 0-0.5 0.224-0.5 0.5s0.224 0.5 0.5 0.5v0h3.5c1.105 0 2-0.895 2-2v0-11c0-1.105-0.895-2-2-2v0z"></path>
<path d="M18 8h-8c-0.552 0-1 0.448-1 1v0 2c0 0.552 0.448 1 1 1v0h8c0.552 0 1-0.448 1-1v0-2c0-0.552-0.448-1-1-1v0zM18 11.5v-0.5h-8v-2h8v2z"></path>
<path d="M24.5 14h2c0.276 0 0.5-0.224 0.5-0.5v0-2c0-0.276-0.224-0.5-0.5-0.5v0h-2c-0.276 0-0.5 0.224-0.5 0.5v0 2c0 0.276 0.224 0.5 0.5 0.5v0zM25 12h1v1h-1z"></path>
<path d="M26.5 16c-0.276 0-0.5 0.224-0.5 0.5v0 3c0 0.276 0.224 0.5 0.5 0.5s0.5-0.224 0.5-0.5v0-3c0-0.276-0.224-0.5-0.5-0.5v0z"></path>
<path d="M24.5 20c0.276 0 0.5-0.224 0.5-0.5v0-3c0-0.276-0.224-0.5-0.5-0.5s-0.5 0.224-0.5 0.5v0 3c0 0.276 0.224 0.5 0.5 0.5v0z"></path>
<path d="M10.5 15h1c0.276 0 0.5 0.224 0.5 0.5v1c0 0.276-0.224 0.5-0.5 0.5h-1c-0.276 0-0.5-0.224-0.5-0.5v-1c0-0.276 0.224-0.5 0.5-0.5z"></path>
<path d="M13.5 15h1c0.276 0 0.5 0.224 0.5 0.5v1c0 0.276-0.224 0.5-0.5 0.5h-1c-0.276 0-0.5-0.224-0.5-0.5v-1c0-0.276 0.224-0.5 0.5-0.5z"></path>
<path d="M16.5 15h1c0.276 0 0.5 0.224 0.5 0.5v1c0 0.276-0.224 0.5-0.5 0.5h-1c-0.276 0-0.5-0.224-0.5-0.5v-1c0-0.276 0.224-0.5 0.5-0.5z"></path>
<path d="M10.5 18h1c0.276 0 0.5 0.224 0.5 0.5v1c0 0.276-0.224 0.5-0.5 0.5h-1c-0.276 0-0.5-0.224-0.5-0.5v-1c0-0.276 0.224-0.5 0.5-0.5z"></path>
<path d="M13.5 18h1c0.276 0 0.5 0.224 0.5 0.5v1c0 0.276-0.224 0.5-0.5 0.5h-1c-0.276 0-0.5-0.224-0.5-0.5v-1c0-0.276 0.224-0.5 0.5-0.5z"></path>
<path d="M16.5 18h1c0.276 0 0.5 0.224 0.5 0.5v1c0 0.276-0.224 0.5-0.5 0.5h-1c-0.276 0-0.5-0.224-0.5-0.5v-1c0-0.276 0.224-0.5 0.5-0.5z"></path>
<path d="M10.5 21h1c0.276 0 0.5 0.224 0.5 0.5v1c0 0.276-0.224 0.5-0.5 0.5h-1c-0.276 0-0.5-0.224-0.5-0.5v-1c0-0.276 0.224-0.5 0.5-0.5z"></path>
<path d="M13.5 21h1c0.276 0 0.5 0.224 0.5 0.5v1c0 0.276-0.224 0.5-0.5 0.5h-1c-0.276 0-0.5-0.224-0.5-0.5v-1c0-0.276 0.224-0.5 0.5-0.5z"></path>
<path d="M16.5 21h1c0.276 0 0.5 0.224 0.5 0.5v1c0 0.276-0.224 0.5-0.5 0.5h-1c-0.276 0-0.5-0.224-0.5-0.5v-1c0-0.276 0.224-0.5 0.5-0.5z"></path>
</svg>
