<svg version="1.1" xmlns="http://www.w3.org/2000/svg" width="32" height="32" viewBox="0 0 32 32">
<title>crop</title>
<path d="M27.5 20h-3.5v-11.293l3.854-3.854c0.195-0.195 0.195-0.512 0-0.707s-0.512-0.195-0.707 0l-3.854 3.854h-11.293v-3.5c0-0.276-0.224-0.5-0.5-0.5h-3c-0.276 0-0.5 0.224-0.5 0.5v3.5h-3.5c-0.276 0-0.5 0.224-0.5 0.5v3c0 0.276 0.224 0.5 0.5 0.5h3.5v11.5c0 0.276 0.224 0.5 0.5 0.5h11.5v3.5c0 0.276 0.224 0.5 0.5 0.5h3c0.276 0 0.5-0.224 0.5-0.5v-3.5h3.5c0.276 0 0.5-0.224 0.5-0.5v-3c0-0.276-0.224-0.5-0.5-0.5zM23 20h-2v-8.293l2-2v10.293zM12.707 20l7.293-7.293v7.293h-7.293zM12 12h7.293l-7.293 7.293v-7.293zM22.293 9l-2 2h-8.293v-2h10.293zM5 11v-2h3v2h-3zM23 27h-2v-3h2v3zM27 23h-18v-18h2v15.5c0 0.065 0.013 0.13 0.039 0.191 0.051 0.123 0.148 0.22 0.271 0.271 0.060 0.025 0.125 0.038 0.19 0.038h15.5v2z"></path>
</svg>
