<svg version="1.1" xmlns="http://www.w3.org/2000/svg" width="32" height="32" viewBox="0 0 32 32">
<title>crosshairs</title>
<path d="M29.5 16h-2.525c-0.256-5.39-4.585-9.719-9.975-9.975v-2.525c0-0.276-0.224-0.5-0.5-0.5s-0.5 0.224-0.5 0.5v2.525c-5.39 0.256-9.719 4.585-9.975 9.975h-2.525c-0.276 0-0.5 0.224-0.5 0.5s0.224 0.5 0.5 0.5h2.525c0.256 5.39 4.584 9.719 9.975 9.975v2.525c0 0.276 0.224 0.5 0.5 0.5s0.5-0.224 0.5-0.5v-2.525c5.39-0.256 9.719-4.584 9.975-9.975h2.525c0.276 0 0.5-0.224 0.5-0.5s-0.224-0.5-0.5-0.5zM25.975 16h-4c-0.239-2.634-2.341-4.736-4.975-4.975v-4c4.839 0.254 8.721 4.136 8.975 8.975zM16 16h-3.949c0.234-2.077 1.872-3.716 3.949-3.949v3.949zM16 17v3.949c-2.078-0.234-3.716-1.872-3.949-3.949h3.949zM17 17h3.949c-0.234 2.077-1.872 3.716-3.949 3.949v-3.949zM17 16v-3.949c2.078 0.234 3.716 1.872 3.949 3.949h-3.949zM16 7.025v4c-2.634 0.239-4.736 2.341-4.975 4.975h-4c0.254-4.839 4.136-8.721 8.975-8.975zM7.025 17h4c0.239 2.634 2.341 4.736 4.975 4.975v4c-4.839-0.254-8.721-4.136-8.975-8.975zM17 25.975v-4c2.634-0.239 4.736-2.341 4.975-4.975h4c-0.254 4.839-4.136 8.721-8.975 8.975z"></path>
</svg>
