<svg id="Layer_1" data-name="Layer 1" xmlns="http://www.w3.org/2000/svg" width="32" height="32" viewBox="0 0 32 32"><path d="M29.5,15.5H27.975A12,12,0,0,0,16.5,4.025V2.5a.5.5,0,0,0-1,0V4.025A12,12,0,0,0,4.025,15.5H2.5a.5.5,0,0,0,0,1H4.025A12,12,0,0,0,15.5,27.975V29.5a.5.5,0,0,0,1,0V27.975A12,12,0,0,0,27.975,16.5H29.5a.5.5,0,0,0,0-1Zm-13,11.475V22.5a.5.5,0,0,0-1,0v4.475A11,11,0,0,1,5.025,16.5H9.5a.5.5,0,0,0,0-1H5.025A11,11,0,0,1,15.5,5.025V9.5a.5.5,0,0,0,1,0V5.025A11,11,0,0,1,26.975,15.5H22.5a.5.5,0,0,0,0,1h4.475A11,11,0,0,1,16.5,26.975ZM16,13a3,3,0,1,0,3,3A3,3,0,0,0,16,13Zm0,5a2,2,0,1,1,2-2A2,2,0,0,1,16,18Z"/></svg>