<svg version="1.1" xmlns="http://www.w3.org/2000/svg" width="32" height="32" viewBox="0 0 32 32">
<title>cube</title>
<path d="M27.997 9.487c-0.002-0.071-0.015-0.143-0.049-0.211-0.003-0.007-0.010-0.010-0.013-0.017-0.009-0.017-0.023-0.028-0.034-0.043-0.038-0.053-0.083-0.097-0.136-0.131-0.010-0.006-0.015-0.019-0.025-0.024l-11-6c-0.143-0.078-0.316-0.081-0.463-0.008l-12 6c-0.011 0.005-0.016 0.017-0.027 0.023-0.058 0.035-0.107 0.080-0.148 0.137-0.010 0.013-0.022 0.022-0.030 0.036-0.003 0.004-0.008 0.007-0.010 0.011-0.039 0.070-0.053 0.145-0.056 0.22-0.001 0.008-0.006 0.013-0.006 0.020v13c0 0.183 0.1 0.351 0.261 0.439l11 6c0.006 0.003 0.014 0.002 0.020 0.005 0.066 0.033 0.139 0.056 0.219 0.056 0.076 0 0.146-0.020 0.21-0.049 0.004-0.002 0.010-0.001 0.014-0.003l12-6c0.169-0.085 0.276-0.259 0.276-0.448v-13c0-0.005-0.003-0.008-0.003-0.013zM16.49 4.064l9.93 5.417-10.91 5.455-9.93-5.417 10.91-5.455zM5 10.342l10 5.455v11.861l-10-5.455v-11.861zM16 27.691v-11.882l11-5.5v11.882l-11 5.5z"></path>
</svg>
