<svg version="1.1" xmlns="http://www.w3.org/2000/svg" width="32" height="32" viewBox="0 0 32 32">
<title>cutlery</title>
<path d="M24.5 2c-3.032 0-5.5 2.467-5.5 5.5v5.588c0 1.044 0.407 2.026 1.147 2.767 0.55 0.55 0.853 1.281 0.853 2.058v10.087c0 1.103 0.897 2 2 2s2-0.897 2-2v-25.5c0-0.276-0.224-0.5-0.5-0.5zM24 28c0 0.552-0.448 1-1 1s-1-0.448-1-1v-10.088c0-1.044-0.407-2.026-1.147-2.767-0.55-0.549-0.853-1.28-0.853-2.057v-5.588c0-2.312 1.753-4.223 4-4.472v24.972z"></path>
<path d="M16.5 2c-0.276 0-0.5 0.224-0.5 0.5l0.007 8.169c0 0.403-0.156 0.78-0.441 1.063l-1.83 1.827c-0.475 0.472-0.736 1.101-0.736 1.771v12.67c0 0.552-0.448 1-1 1s-1-0.448-1-1l0.007-12.669c0.001-0.659-0.267-1.305-0.733-1.772l-1.832-1.826c-0.28-0.28-0.441-0.667-0.44-1.063l0.006-8.17c0-0.276-0.224-0.5-0.5-0.5s-0.5 0.224-0.5 0.5l-0.007 8.169c-0.001 0.659 0.267 1.305 0.733 1.772l1.832 1.826c0.28 0.28 0.441 0.667 0.44 1.063l-0.006 12.67c0 1.103 0.897 2 2 2s2-0.897 2-2v-12.67c0-0.402 0.156-0.779 0.441-1.062l1.83-1.827c0.475-0.472 0.735-1.101 0.735-1.772l-0.006-8.169c0-0.276-0.224-0.5-0.5-0.5z"></path>
<path d="M9.5 10h5c0.276 0 0.5-0.224 0.5-0.5s-0.224-0.5-0.5-0.5h-0.5v-6.5c0-0.276-0.224-0.5-0.5-0.5s-0.5 0.224-0.5 0.5v6.5h-2v-6.5c0-0.276-0.224-0.5-0.5-0.5s-0.5 0.224-0.5 0.5v6.5h-0.5c-0.276 0-0.5 0.224-0.5 0.5s0.224 0.5 0.5 0.5z"></path>
</svg>
