<svg version="1.1" xmlns="http://www.w3.org/2000/svg" width="32" height="32" viewBox="0 0 32 32">
<title>database-new</title>
<path d="M11 20c0.016 0 0.036 0 0.055 0 1.238 0 2.456-0.083 3.65-0.243l-0.139 0.015c0.251-0.029 0.445-0.24 0.445-0.497 0-0.276-0.224-0.5-0.5-0.5-0.027 0-0.054 0.002-0.080 0.006l0.003-0c-1.015 0.139-2.187 0.219-3.379 0.219-0.019 0-0.039-0-0.058-0h0.003c-5.252 0-8-1.3-8-2v-4.554c1.577 1.023 4.8 1.554 8 1.554s6.423-0.531 8-1.554v2.054c0 0.276 0.224 0.5 0.5 0.5s0.5-0.224 0.5-0.5v0-9.5c0-1.97-4.527-3-9-3s-9 1.030-9 3v18c0 1.97 4.527 3 9 3 0.016 0 0.036 0 0.055 0 1.238 0 2.456-0.083 3.65-0.243l-0.139 0.015c0.251-0.029 0.445-0.24 0.445-0.497 0-0.276-0.224-0.5-0.5-0.5-0.027 0-0.054 0.002-0.080 0.006l0.003-0c-1.015 0.139-2.187 0.219-3.379 0.219-0.019 0-0.039-0-0.058-0h0.003c-5.252 0-8-1.3-8-2v-4.554c1.577 1.023 4.8 1.554 8 1.554zM11 3c5.252 0 8 1.3 8 2s-2.748 2-8 2-8-1.3-8-2 2.748-2 8-2zM3 6.446c1.577 1.023 4.8 1.554 8 1.554s6.423-0.531 8-1.554v4.554c0 0.7-2.748 2-8 2s-8-1.3-8-2z"></path>
<path d="M28.080 25.567l-3.58-2.067 3.58-2.067c0.152-0.088 0.253-0.249 0.253-0.435 0-0.276-0.224-0.5-0.5-0.5-0.093 0-0.18 0.026-0.255 0.070l0.002-0.001-3.58 2.067v-4.134c0-0.276-0.224-0.5-0.5-0.5s-0.5 0.224-0.5 0.5v0 4.134l-3.58-2.067c-0.072-0.043-0.16-0.069-0.253-0.069-0.276 0-0.5 0.224-0.5 0.5 0 0.185 0.101 0.347 0.25 0.433l0.002 0.001 3.58 2.067-3.58 2.067c-0.151 0.088-0.25 0.249-0.25 0.433 0 0.276 0.224 0.5 0.5 0.5v0c0 0 0.001 0 0.002 0 0.092 0 0.177-0.025 0.251-0.068l-0.002 0.001 3.58-2.067v4.134c0 0.276 0.224 0.5 0.5 0.5s0.5-0.224 0.5-0.5v0-4.134l3.58 2.067c0.072 0.042 0.158 0.067 0.25 0.067 0.184 0 0.345-0.099 0.432-0.248l0.001-0.002c0.042-0.072 0.067-0.158 0.067-0.25 0-0.184-0.099-0.345-0.248-0.432l-0.002-0.001z"></path>
</svg>
