<svg version="1.1" xmlns="http://www.w3.org/2000/svg" width="32" height="32" viewBox="0 0 32 32">
<title>database-chart</title>
<path d="M11 20c0.016 0 0.036 0 0.055 0 1.238 0 2.456-0.083 3.65-0.243l-0.139 0.015c0.251-0.029 0.445-0.24 0.445-0.497 0-0.276-0.224-0.5-0.5-0.5-0.027 0-0.054 0.002-0.080 0.006l0.003-0c-1.015 0.139-2.187 0.219-3.379 0.219-0.019 0-0.039-0-0.058-0h0.003c-5.252 0-8-1.3-8-2v-4.554c1.577 1.023 4.8 1.554 8 1.554s6.423-0.531 8-1.554v2.054c0 0.276 0.224 0.5 0.5 0.5s0.5-0.224 0.5-0.5v0-9.5c0-1.97-4.527-3-9-3s-9 1.030-9 3v18c0 1.97 4.527 3 9 3 0.016 0 0.036 0 0.055 0 1.238 0 2.456-0.083 3.65-0.243l-0.139 0.015c0.251-0.029 0.445-0.24 0.445-0.497 0-0.276-0.224-0.5-0.5-0.5-0.027 0-0.054 0.002-0.080 0.006l0.003-0c-1.015 0.139-2.187 0.219-3.379 0.219-0.019 0-0.039-0-0.058-0h0.003c-5.252 0-8-1.3-8-2v-4.554c1.577 1.023 4.8 1.554 8 1.554zM11 13c-5.252 0-8-1.3-8-2v-4.554c1.577 1.023 4.8 1.554 8 1.554s6.423-0.531 8-1.554v4.554c0 0.7-2.748 2-8 2zM11 3c5.252 0 8 1.3 8 2s-2.748 2-8 2-8-1.3-8-2 2.748-2 8-2z"></path>
<path d="M27.5 21h-2.5v-2.5c0-0.276-0.224-0.5-0.5-0.5v0h-3c-0.276 0-0.5 0.224-0.5 0.5v0 4.5h-2.5c-0.276 0-0.5 0.224-0.5 0.5v0 5c0 0.276 0.224 0.5 0.5 0.5v0h9c0.276 0 0.5-0.224 0.5-0.5v0-7c0-0.276-0.224-0.5-0.5-0.5v0zM21 28h-2v-4h2zM24 28h-2v-9h2zM27 28h-2v-6h2z"></path>
</svg>
