<svg version="1.1" xmlns="http://www.w3.org/2000/svg" width="32" height="32" viewBox="0 0 32 32">
<title>database-play</title>
<path d="M27.724 23.053l-8-4c-0.065-0.033-0.142-0.053-0.224-0.053-0.276 0-0.5 0.224-0.5 0.5v0 8c0 0.179 0.094 0.335 0.235 0.424l0.002 0.001c0.075 0.047 0.166 0.075 0.263 0.075h0c0.082-0 0.159-0.020 0.227-0.054l-0.003 0.001 8-4c0.165-0.084 0.276-0.253 0.276-0.447s-0.111-0.363-0.273-0.446l-0.003-0.001zM20 26.691v-6.382l6.382 3.191z"></path>
<path d="M11 20c0.016 0 0.036 0 0.055 0 1.238 0 2.456-0.083 3.65-0.243l-0.139 0.015c0.251-0.029 0.445-0.24 0.445-0.497 0-0.276-0.224-0.5-0.5-0.5-0.027 0-0.054 0.002-0.080 0.006l0.003-0c-1.015 0.139-2.187 0.219-3.379 0.219-0.019 0-0.039-0-0.058-0h0.003c-5.252 0-8-1.3-8-2v-4.554c1.577 1.023 4.8 1.554 8 1.554s6.423-0.531 8-1.554v2.054c0 0.276 0.224 0.5 0.5 0.5s0.5-0.224 0.5-0.5v0-9.5c0-1.97-4.527-3-9-3s-9 1.030-9 3v18c0 1.97 4.527 3 9 3 0.016 0 0.036 0 0.055 0 1.238 0 2.456-0.083 3.65-0.243l-0.139 0.015c0.251-0.029 0.445-0.24 0.445-0.497 0-0.276-0.224-0.5-0.5-0.5-0.027 0-0.054 0.002-0.080 0.006l0.003-0c-1.015 0.139-2.187 0.219-3.379 0.219-0.019 0-0.039-0-0.058-0h0.003c-5.252 0-8-1.3-8-2v-4.554c1.577 1.023 4.8 1.554 8 1.554zM11 13c-5.252 0-8-1.3-8-2v-4.554c1.577 1.023 4.8 1.554 8 1.554s6.423-0.531 8-1.554v4.554c0 0.7-2.748 2-8 2zM11 3c5.252 0 8 1.3 8 2s-2.748 2-8 2-8-1.3-8-2 2.748-2 8-2z"></path>
</svg>
