<svg version="1.1" xmlns="http://www.w3.org/2000/svg" width="32" height="32" viewBox="0 0 32 32">
<title>database-search</title>
<path d="M11 20c0.017 0 0.038 0 0.059 0 1.237 0 2.454-0.083 3.646-0.243l-0.139 0.015c0.249-0.031 0.44-0.241 0.44-0.496 0-0.276-0.224-0.5-0.5-0.5-0.025 0-0.050 0.002-0.075 0.006l0.003-0c-1.014 0.14-2.185 0.219-3.375 0.219-0.021 0-0.042-0-0.063-0h0.003c-5.252 0-8-1.302-8-2v-4.554c1.577 1.023 4.798 1.554 8 1.554s6.423-0.531 8-1.554v2.054c0 0.276 0.224 0.5 0.5 0.5s0.5-0.224 0.5-0.5v0-9.5c0-1.97-4.527-3-9-3s-9 1.030-9 3v18c0 1.97 4.527 3 9 3 0.017 0 0.038 0 0.059 0 1.237 0 2.454-0.083 3.646-0.243l-0.139 0.015c0.249-0.031 0.44-0.241 0.44-0.496 0-0.276-0.224-0.5-0.5-0.5-0.025 0-0.050 0.002-0.075 0.006l0.003-0c-1.014 0.14-2.185 0.219-3.375 0.219-0.021 0-0.042-0-0.063-0h0.003c-5.252 0-8-1.302-8-2v-4.554c1.577 1.023 4.798 1.554 8 1.554zM11 13c-5.252 0-8-1.302-8-2v-4.554c1.577 1.023 4.798 1.554 8 1.554s6.423-0.531 8-1.554v4.554c0 0.698-2.748 2-8 2zM11 3c5.252 0 8 1.302 8 2s-2.748 2-8 2-8-1.302-8-2 2.748-2 8-2z"></path>
<path d="M28.854 28.146l-3.707-3.707c0.529-0.664 0.849-1.514 0.853-2.439v-0.001c0-2.209-1.791-4-4-4s-4 1.791-4 4c0 2.209 1.791 4 4 4v0c0.926-0.004 1.776-0.325 2.448-0.859l-0.008 0.006 3.707 3.707c0.090 0.087 0.212 0.14 0.347 0.14 0.276 0 0.5-0.224 0.5-0.5 0-0.135-0.053-0.258-0.14-0.348l0 0zM22 25c-1.657 0-3-1.343-3-3s1.343-3 3-3c1.657 0 3 1.343 3 3v0c-0.002 1.656-1.344 2.998-3 3h-0z"></path>
</svg>
