<svg version="1.1" xmlns="http://www.w3.org/2000/svg" width="32" height="32" viewBox="0 0 32 32">
<title>database-ban</title>
<path d="M11 20c0.017 0 0.038 0 0.059 0 1.237 0 2.454-0.083 3.646-0.243l-0.139 0.015c0.249-0.031 0.44-0.241 0.44-0.496 0-0.276-0.224-0.5-0.5-0.5-0.025 0-0.050 0.002-0.075 0.006l0.003-0c-1.014 0.14-2.185 0.219-3.375 0.219-0.021 0-0.042-0-0.063-0h0.003c-5.252 0-8-1.302-8-2v-4.554c1.577 1.023 4.798 1.554 8 1.554s6.423-0.531 8-1.554v2.054c0 0.276 0.224 0.5 0.5 0.5s0.5-0.224 0.5-0.5v0-9.5c0-1.97-4.527-3-9-3s-9 1.030-9 3v18c0 1.97 4.527 3 9 3 0.017 0 0.038 0 0.059 0 1.237 0 2.454-0.083 3.646-0.243l-0.139 0.015c0.249-0.031 0.44-0.241 0.44-0.496 0-0.276-0.224-0.5-0.5-0.5-0.025 0-0.050 0.002-0.075 0.006l0.003-0c-1.014 0.14-2.185 0.219-3.375 0.219-0.021 0-0.042-0-0.063-0h0.003c-5.252 0-8-1.302-8-2v-4.554c1.577 1.023 4.798 1.554 8 1.554zM11 13c-5.252 0-8-1.302-8-2v-4.554c1.577 1.023 4.798 1.554 8 1.554s6.423-0.531 8-1.554v4.554c0 0.698-2.748 2-8 2zM11 3c5.252 0 8 1.302 8 2s-2.748 2-8 2-8-1.302-8-2 2.748-2 8-2z"></path>
<path d="M27.398 19.624l-0.009-0.014-0.014-0.009c-0.993-0.985-2.361-1.594-3.87-1.594-3.036 0-5.497 2.461-5.497 5.497 0 1.51 0.609 2.878 1.595 3.871l-0-0 0.009 0.014 0.014 0.009c0.993 0.985 2.361 1.594 3.87 1.594 3.036 0 5.497-2.461 5.497-5.497 0-1.51-0.609-2.878-1.595-3.871l0 0zM19 23.5c0.003-2.484 2.016-4.497 4.5-4.5h0c1.063 0.005 2.038 0.381 2.801 1.006l-0.008-0.006-6.293 6.294c-0.619-0.755-0.995-1.73-1-2.792v-0.001zM23.5 28c-1.063-0.005-2.038-0.381-2.801-1.006l0.008 0.006 6.293-6.294c0.619 0.755 0.995 1.73 1 2.792v0.001c-0.003 2.484-2.016 4.497-4.5 4.5h-0z"></path>
</svg>
