<svg version="1.1" xmlns="http://www.w3.org/2000/svg" width="32" height="32" viewBox="0 0 32 32">
<title>database-heart</title>
<path d="M11 20c0.017 0 0.038 0 0.059 0 1.237 0 2.454-0.083 3.646-0.243l-0.139 0.015c0.249-0.031 0.44-0.241 0.44-0.496 0-0.276-0.224-0.5-0.5-0.5-0.025 0-0.050 0.002-0.075 0.006l0.003-0c-1.014 0.14-2.185 0.219-3.375 0.219-0.021 0-0.042-0-0.063-0h0.003c-5.252 0-8-1.302-8-2v-4.554c1.577 1.023 4.798 1.554 8 1.554s6.423-0.531 8-1.554v2.054c0 0.276 0.224 0.5 0.5 0.5s0.5-0.224 0.5-0.5v0-9.5c0-1.97-4.527-3-9-3s-9 1.030-9 3v18c0 1.97 4.527 3 9 3 0.017 0 0.038 0 0.059 0 1.237 0 2.454-0.083 3.646-0.243l-0.139 0.015c0.249-0.031 0.44-0.241 0.44-0.496 0-0.276-0.224-0.5-0.5-0.5-0.025 0-0.050 0.002-0.075 0.006l0.003-0c-1.014 0.14-2.185 0.219-3.375 0.219-0.021 0-0.042-0-0.063-0h0.003c-5.252 0-8-1.302-8-2v-4.554c1.577 1.023 4.798 1.554 8 1.554zM11 13c-5.252 0-8-1.302-8-2v-4.554c1.577 1.023 4.798 1.554 8 1.554s6.423-0.531 8-1.554v4.554c0 0.698-2.748 2-8 2zM11 3c5.252 0 8 1.302 8 2s-2.748 2-8 2-8-1.302-8-2 2.748-2 8-2z"></path>
<path d="M28.126 19.879c-0.542-0.542-1.291-0.877-2.119-0.877s-1.577 0.335-2.119 0.877l-0.378 0.378-0.377-0.378c-0.542-0.54-1.29-0.874-2.116-0.874-1.656 0-2.998 1.342-2.998 2.998 0 0.827 0.335 1.576 0.877 2.119l4.262 4.268c0.090 0.090 0.215 0.146 0.353 0.146s0.263-0.056 0.353-0.146l4.263-4.268c0.541-0.544 0.876-1.293 0.876-2.121s-0.334-1.577-0.876-2.121l0 0zM27.42 23.414l-3.91 3.915-3.909-3.915c-0.365-0.362-0.592-0.865-0.592-1.42 0-1.104 0.895-1.999 1.999-1.999 0.554 0 1.056 0.226 1.418 0.59l0 0 0.73 0.732c0.090 0.090 0.215 0.146 0.353 0.146s0.263-0.056 0.353-0.146v0l0.732-0.732c0.362-0.361 0.861-0.585 1.413-0.585 1.104 0 1.999 0.895 1.999 1.999 0 0.552-0.224 1.052-0.586 1.414v0z"></path>
</svg>
