<svg version="1.1" xmlns="http://www.w3.org/2000/svg" width="32" height="32" viewBox="0 0 32 32">
<title>database</title>
<path d="M16 2c-4.848 0-10 1.227-10 3.5v21c0 2.273 5.152 3.5 10 3.5s10-1.227 10-3.5v-21c0-2.273-5.152-3.5-10-3.5zM25 19.5c0 1.044-3.424 2.5-9 2.5s-9-1.456-9-2.5v-5.413c1.729 1.25 5.442 1.913 9 1.913s7.271-0.663 9-1.913zM25 12.5c0 1.044-3.424 2.5-9 2.5s-9-1.456-9-2.5v-5.413c1.729 1.25 5.442 1.913 9 1.913s7.271-0.663 9-1.913zM16 3c5.576 0 9 1.456 9 2.5s-3.424 2.5-9 2.5-9-1.456-9-2.5 3.424-2.5 9-2.5zM16 29c-5.576 0-9-1.456-9-2.5v-5.413c1.729 1.25 5.442 1.913 9 1.913s7.271-0.663 9-1.913v5.413c0 1.044-3.424 2.5-9 2.5z"></path>
</svg>
