<svg version="1.1" xmlns="http://www.w3.org/2000/svg" width="32" height="32" viewBox="0 0 32 32">
<title>deaf</title>
<path d="M7.5 11c0.276 0 0.5-0.224 0.5-0.5v0c0.003-4.14 3.359-7.495 7.5-7.495 2.82 0 5.277 1.556 6.557 3.857l0.020 0.038c0.087 0.156 0.25 0.26 0.439 0.26 0.276 0 0.5-0.224 0.5-0.5 0-0.088-0.023-0.171-0.063-0.243l0.001 0.003c-1.474-2.651-4.258-4.415-7.454-4.415-4.693 0-8.498 3.803-8.5 8.496v0c0 0.276 0.224 0.5 0.5 0.5v0z"></path>
<path d="M23.493 10.875c-0.015-0.002-0.032-0.002-0.049-0.002-0.261 0-0.474 0.204-0.488 0.461l-0 0.001c-0.209 2.773-1.488 4.269-2.843 5.852-1.53 1.789-3.113 3.638-3.113 7.313-0.003 2.484-2.016 4.497-4.5 4.5h-0c-0.276 0-0.5 0.224-0.5 0.5s0.224 0.5 0.5 0.5v0c3.036-0.003 5.497-2.464 5.5-5.5v-0c0-3.3 1.4-4.937 2.873-6.664 1.4-1.635 2.846-3.326 3.081-6.425 0.001-0.011 0.001-0.024 0.001-0.037 0-0.263-0.203-0.478-0.461-0.498l-0.002-0z"></path>
<path d="M27.854 4.146c-0.091-0.091-0.216-0.147-0.354-0.147s-0.263 0.056-0.354 0.147v0l-23 23c-0.091 0.091-0.147 0.216-0.147 0.354 0 0.276 0.224 0.501 0.501 0.501 0.138 0 0.263-0.056 0.354-0.147l23-23c0.091-0.091 0.147-0.216 0.147-0.354s-0.056-0.263-0.147-0.354v0z"></path>
<path d="M15.5 6c0.652 0.001 1.271 0.144 1.827 0.4l-0.027-0.011c0.060 0.027 0.13 0.043 0.204 0.043 0.276 0 0.5-0.224 0.5-0.5 0-0.202-0.12-0.376-0.293-0.455l-0.003-0.001c-0.649-0.3-1.408-0.475-2.208-0.476h-0c-3.036 0.003-5.497 2.464-5.5 5.5v0c-0.001 0.031-0.001 0.068-0.001 0.105 0 0.781 0.206 1.514 0.566 2.148l-0.011-0.022c0.282 0.481 0.448 1.060 0.448 1.677 0 0.032-0 0.064-0.001 0.096l0-0.005c0 0.013 0 0.027 0 0.042 0 0.364-0.101 0.704-0.277 0.993l0.005-0.008c-0.048 0.075-0.076 0.167-0.076 0.265 0 0.276 0.224 0.5 0.5 0.5 0.187 0 0.35-0.102 0.435-0.254l0.001-0.003c0.258-0.427 0.411-0.943 0.411-1.495 0-0.014-0-0.028-0-0.042l0 0.002c0.001-0.028 0.001-0.061 0.001-0.094 0-0.78-0.205-1.513-0.565-2.146l0.011 0.021c-0.282-0.482-0.449-1.060-0.449-1.678 0-0.037 0.001-0.073 0.002-0.109l-0 0.005c0.003-2.484 2.016-4.497 4.5-4.5h0z"></path>
</svg>
