<svg version="1.1" xmlns="http://www.w3.org/2000/svg" width="32" height="32" viewBox="0 0 32 32">
<title>design</title>
<path d="M19.268 18.561c-0.195-0.195-0.512-0.195-0.707 0s-0.195 0.512 0 0.707l7.732 7.732h-21.293v-3h1.5c0.276 0 0.5-0.224 0.5-0.5s-0.224-0.5-0.5-0.5h-1.5v-3h1.5c0.276 0 0.5-0.224 0.5-0.5s-0.224-0.5-0.5-0.5h-1.5v-3h1.5c0.276 0 0.5-0.224 0.5-0.5s-0.224-0.5-0.5-0.5h-1.5v-3h1.5c0.276 0 0.5-0.224 0.5-0.5s-0.224-0.5-0.5-0.5h-1.5v-5.293l7.732 7.732c0.195 0.195 0.512 0.195 0.707 0s0.195-0.512 0-0.707l-8.585-8.586c-0.143-0.143-0.359-0.185-0.545-0.108-0.187 0.077-0.309 0.26-0.309 0.462v23c0 0.276 0.224 0.5 0.5 0.5h23c0.202 0 0.385-0.122 0.462-0.309s0.034-0.402-0.108-0.545l-8.586-8.585z"></path>
<path d="M10.731 18.076l-1.695 4.238c-0.074 0.186-0.031 0.398 0.11 0.539 0.096 0.096 0.224 0.147 0.354 0.147 0.062 0 0.126-0.012 0.186-0.036l4.237-1.695c0.569-0.228 1.078-0.563 1.511-0.996l10.797-10.798c0 0 0.001 0 0.001 0s0-0.001 0-0.001l1-1c0.496-0.495 0.768-1.153 0.768-1.853 0-1.445-1.176-2.621-2.621-2.621-0.69 0-1.366 0.28-1.854 0.768l-11.798 11.798c-0.433 0.433-0.768 0.941-0.996 1.51zM10.397 21.602l1.262-3.154c0.008-0.019 0.020-0.035 0.028-0.054l1.918 1.918c-0.019 0.008-0.035 0.021-0.054 0.028l-3.154 1.262zM25.379 5c0.893 0 1.621 0.727 1.621 1.621 0 0.433-0.169 0.84-0.475 1.146l-0.646 0.646-2.293-2.293 0.646-0.646c0.302-0.301 0.72-0.474 1.147-0.474zM22.879 6.828l2.293 2.293-10.445 10.445c-0.077 0.077-0.167 0.135-0.25 0.204l-2.247-2.247c0.069-0.083 0.127-0.173 0.204-0.25l10.445-10.445z"></path>
</svg>
