<svg version="1.1" xmlns="http://www.w3.org/2000/svg" width="32" height="32" viewBox="0 0 32 32">
<title>desktop</title>
<path d="M28.5 4h-25c-0.827 0-1.5 0.673-1.5 1.5v17c0 0.827 0.673 1.5 1.5 1.5h8.5v1.556c0 0.541-0.128 1.082-0.369 1.565l-0.44 0.879h-2.691c-0.276 0-0.5 0.224-0.5 0.5s0.224 0.5 0.5 0.5h15c0.276 0 0.5-0.224 0.5-0.5s-0.224-0.5-0.5-0.5h-2.691l-0.44-0.879c-0.241-0.484-0.369-1.025-0.369-1.565v-1.556h8.5c0.827 0 1.5-0.673 1.5-1.5v-17c0-0.827-0.673-1.5-1.5-1.5zM19.475 27.568l0.216 0.432h-7.381l0.216-0.432c0.31-0.622 0.474-1.318 0.474-2.012v-1.556h6v1.556c0 0.694 0.164 1.39 0.475 2.012zM29 22.5c0 0.276-0.225 0.5-0.5 0.5h-25c-0.275 0-0.5-0.224-0.5-0.5v-2.5h26v2.5zM3 19v-13.5c0-0.276 0.225-0.5 0.5-0.5h25c0.275 0 0.5 0.224 0.5 0.5v13.5h-26z"></path>
<path d="M27 21.5c0 0.276-0.224 0.5-0.5 0.5s-0.5-0.224-0.5-0.5c0-0.276 0.224-0.5 0.5-0.5s0.5 0.224 0.5 0.5z"></path>
</svg>
