<svg version="1.1" xmlns="http://www.w3.org/2000/svg" width="32" height="32" viewBox="0 0 32 32">
<title>dial-gauge-chart</title>
<path d="M15.5 6h1c0.276 0 0.5-0.224 0.5-0.5s-0.224-0.5-0.5-0.5v0h-1c-0.276 0-0.5 0.224-0.5 0.5s0.224 0.5 0.5 0.5v0z"></path>
<path d="M5.5 15c-0.276 0-0.5 0.224-0.5 0.5v0 1c0 0.276 0.224 0.5 0.5 0.5s0.5-0.224 0.5-0.5v0-1c0-0.276-0.224-0.5-0.5-0.5v0z"></path>
<path d="M26.5 15c-0.276 0-0.5 0.224-0.5 0.5v0 1c0 0.276 0.224 0.5 0.5 0.5s0.5-0.224 0.5-0.5v0-1c0-0.276-0.224-0.5-0.5-0.5v0z"></path>
<path d="M8.575 7.868l-0.707 0.707c-0.091 0.091-0.147 0.216-0.147 0.354 0 0.276 0.224 0.5 0.5 0.5 0 0 0.001 0 0.001 0h-0c0.138-0 0.263-0.056 0.353-0.147v0l0.707-0.707c0.094-0.091 0.153-0.219 0.153-0.36 0-0.276-0.224-0.5-0.5-0.5-0.141 0-0.269 0.058-0.36 0.152l-0 0z"></path>
<path d="M23.425 22.718l-0.707 0.707c-0.087 0.090-0.14 0.212-0.14 0.347 0 0.276 0.224 0.5 0.5 0.5 0.135 0 0.258-0.053 0.348-0.14l0.707-0.707c0.087-0.090 0.14-0.212 0.14-0.347 0-0.276-0.224-0.5-0.5-0.5-0.135 0-0.258 0.053-0.348 0.14l0-0z"></path>
<path d="M8.575 22.718c-0.091-0.094-0.219-0.153-0.36-0.153-0.276 0-0.5 0.224-0.5 0.5 0 0.141 0.058 0.269 0.152 0.36l0.707 0.707c0.090 0.087 0.212 0.14 0.347 0.14 0.276 0 0.5-0.224 0.5-0.5 0-0.135-0.053-0.258-0.14-0.348l0 0z"></path>
<path d="M16 2c-7.735 0.013-14 6.286-14 14.023 0 4.997 2.614 9.383 6.548 11.867l0.058 0.034c0.075 0.048 0.167 0.076 0.265 0.076 0 0 0 0 0 0h14.258c0 0 0.001 0 0.001 0 0.098 0 0.19-0.028 0.267-0.077l-0.002 0.001c3.993-2.518 6.606-6.904 6.606-11.901 0-7.737-6.266-14.011-14-14.023h-0.001zM22.984 27h-13.968c-3.64-2.345-6.016-6.377-6.016-10.965 0-7.18 5.82-13 13-13s13 5.82 13 13c0 4.587-2.376 8.62-5.965 10.934l-0.051 0.031z"></path>
<path d="M16 18.5c0.004 0 0.008 0 0.012 0 1.374 0 2.488-1.114 2.488-2.488 0-0.568-0.19-1.091-0.51-1.51l0.004 0.006c0.121-0.009 0.229-0.060 0.31-0.138l5.22-5.22c0.087-0.090 0.14-0.212 0.14-0.347 0-0.276-0.224-0.5-0.5-0.5-0.135 0-0.258 0.053-0.348 0.14l-5.22 5.22c-0.080 0.082-0.132 0.192-0.139 0.314l-0 0.001c-0.403-0.298-0.91-0.477-1.458-0.478h-0c-1.381 0-2.5 1.119-2.5 2.5s1.119 2.5 2.5 2.5v0zM16 14.5c0.828 0 1.5 0.672 1.5 1.5s-0.672 1.5-1.5 1.5c-0.828 0-1.5-0.672-1.5-1.5v0c0-0.828 0.672-1.5 1.5-1.5v0z"></path>
<path d="M17.5 22h-3c-0.828 0-1.5 0.672-1.5 1.5s0.672 1.5 1.5 1.5v0h3c0.828 0 1.5-0.672 1.5-1.5s-0.672-1.5-1.5-1.5v0zM17.5 24h-3c-0.276 0-0.5-0.224-0.5-0.5s0.224-0.5 0.5-0.5v0h3c0.276 0 0.5 0.224 0.5 0.5s-0.224 0.5-0.5 0.5v0z"></path>
</svg>
