<svg version="1.1" xmlns="http://www.w3.org/2000/svg" width="32" height="32" viewBox="0 0 32 32">
<title>diamond</title>
<path d="M29.9 13.2l-6-8c-0.094-0.126-0.243-0.2-0.4-0.2h-15c-0.157 0-0.306 0.074-0.4 0.2l-6 8c-0.151 0.202-0.128 0.485 0.054 0.66l13.5 13c0.096 0.093 0.221 0.14 0.346 0.14s0.25-0.047 0.347-0.14l13.5-13c0.181-0.175 0.205-0.458 0.053-0.66zM20.746 14l-4.746 11.217-4.746-11.217h9.492zM11.451 13l4.549-6.617 4.549 6.617h-9.098zM16.951 6h5.909l-1.576 6.303-4.333-6.303zM10.716 12.303l-1.575-6.303h5.909l-4.334 6.303zM9.859 13h-6.359l4.77-6.359 1.589 6.359zM10.168 14l4.419 10.446-10.847-10.446h6.428zM21.832 14h6.428l-10.847 10.446 4.419-10.446zM22.141 13l1.59-6.359 4.769 6.359h-6.359z"></path>
</svg>
