<svg version="1.1" xmlns="http://www.w3.org/2000/svg" width="32" height="32" viewBox="0 0 32 32">
<title>donut-chart</title>
<path d="M26.5 17h-6c-0.276 0-0.5 0.224-0.5 0.5v0c0 3.038-2.462 5.5-5.5 5.5s-5.5-2.462-5.5-5.5c0-3.038 2.462-5.5 5.5-5.5v0c0.276 0 0.5-0.224 0.5-0.5v0-6c0-0.276-0.224-0.5-0.5-0.5v0c-6.904 0-12.5 5.596-12.5 12.5s5.596 12.5 12.5 12.5c6.904 0 12.5-5.596 12.5-12.5v0c0-0.276-0.224-0.5-0.5-0.5v0zM3 17.5c0.007-6.172 4.871-11.207 10.975-11.488l0.025-0.001v5.008c-3.367 0.264-6 3.061-6 6.473 0 1.621 0.594 3.103 1.576 4.24l-0.007-0.008-3.534 3.534c-1.88-2.032-3.034-4.76-3.035-7.758v-0zM6.742 25.965l3.534-3.534c1.126 0.975 2.605 1.57 4.223 1.57s3.097-0.594 4.231-1.577l-0.008 0.007 3.538 3.538c-2.032 1.881-4.761 3.034-7.759 3.034s-5.727-1.154-7.767-3.041l0.008 0.007zM22.966 25.259l-3.535-3.535c0.869-1.003 1.436-2.288 1.549-3.701l0.001-0.023h5.008c-0.128 2.816-1.254 5.346-3.030 7.267l0.007-0.008z"></path>
<path d="M17.5 2c-0.276 0-0.5 0.224-0.5 0.5v0 6c0 0.276 0.224 0.5 0.5 0.5v0c3.036 0.003 5.497 2.464 5.5 5.5v0c0 0.276 0.224 0.5 0.5 0.5v0h6c0.276 0 0.5-0.224 0.5-0.5v0c-0.008-6.9-5.6-12.492-12.499-12.5h-0.001zM23.981 14c-0.258-3.194-2.787-5.723-5.958-5.979l-0.023-0.002v-5.008c5.955 0.275 10.714 5.034 10.988 10.964l0.001 0.025z"></path>
</svg>
