<svg version="1.1" xmlns="http://www.w3.org/2000/svg" width="32" height="32" viewBox="0 0 32 32">
<title>download-alt</title>
<path d="M27.5 11h-4c-0.276 0-0.5 0.224-0.5 0.5s0.224 0.5 0.5 0.5h3.5v15h-21v-15h3.5c0.276 0 0.5-0.224 0.5-0.5s-0.224-0.5-0.5-0.5h-4c-0.276 0-0.5 0.224-0.5 0.5v16c0 0.276 0.224 0.5 0.5 0.5h22c0.276 0 0.5-0.224 0.5-0.5v-16c0-0.276-0.224-0.5-0.5-0.5z"></path>
<path d="M10.146 16.854l6 6c0.046 0.046 0.102 0.083 0.163 0.108s0.126 0.038 0.191 0.038 0.13-0.013 0.191-0.039c0.062-0.025 0.117-0.062 0.163-0.108l6-6c0.195-0.195 0.195-0.512 0-0.707s-0.512-0.195-0.707 0l-5.147 5.147v-18.793c0-0.276-0.224-0.5-0.5-0.5s-0.5 0.224-0.5 0.5v18.793l-5.146-5.146c-0.195-0.195-0.512-0.195-0.707 0s-0.196 0.511-0.001 0.707z"></path>
</svg>
