<svg version="1.1" xmlns="http://www.w3.org/2000/svg" width="32" height="32" viewBox="0 0 32 32">
<title>dynamic-content</title>
<path d="M6.5 22c0.276 0 0.5-0.224 0.5-0.5v-15c0-0.276 0.225-0.5 0.5-0.5h18.793l-2.146 2.146c-0.195 0.195-0.195 0.512 0 0.707 0.097 0.098 0.225 0.147 0.353 0.147s0.256-0.049 0.354-0.146l3-3c0.195-0.195 0.195-0.512 0-0.707l-3-3c-0.195-0.195-0.512-0.195-0.707 0s-0.195 0.512 0 0.707l2.146 2.146h-18.793c-0.827 0-1.5 0.673-1.5 1.5v15c0 0.276 0.224 0.5 0.5 0.5z"></path>
<path d="M27.5 10c-0.276 0-0.5 0.224-0.5 0.5v15c0 0.276-0.225 0.5-0.5 0.5h-18.793l2.146-2.146c0.195-0.195 0.195-0.512 0-0.707s-0.512-0.195-0.707 0l-3 3c-0.195 0.195-0.195 0.512 0 0.707l3 3c0.098 0.097 0.226 0.146 0.354 0.146s0.256-0.049 0.354-0.146c0.195-0.195 0.195-0.512 0-0.707l-2.147-2.147h18.793c0.827 0 1.5-0.673 1.5-1.5v-15c0-0.276-0.224-0.5-0.5-0.5z"></path>
<path d="M22.5 11h-11c-0.276 0-0.5 0.224-0.5 0.5s0.224 0.5 0.5 0.5h11c0.276 0 0.5-0.224 0.5-0.5s-0.224-0.5-0.5-0.5z"></path>
<path d="M22.5 14h-11c-0.276 0-0.5 0.224-0.5 0.5s0.224 0.5 0.5 0.5h11c0.276 0 0.5-0.224 0.5-0.5s-0.224-0.5-0.5-0.5z"></path>
<path d="M23 17.5c0-0.276-0.224-0.5-0.5-0.5h-11c-0.276 0-0.5 0.224-0.5 0.5s0.224 0.5 0.5 0.5h11c0.276 0 0.5-0.224 0.5-0.5z"></path>
<path d="M11.5 20c-0.276 0-0.5 0.224-0.5 0.5s0.224 0.5 0.5 0.5h5c0.276 0 0.5-0.224 0.5-0.5s-0.224-0.5-0.5-0.5h-5z"></path>
</svg>
