<svg version="1.1" xmlns="http://www.w3.org/2000/svg" width="32" height="32" viewBox="0 0 32 32">
<title>eject</title>
<path d="M4.5 18h23c0.2 0 0.381-0.119 0.46-0.303 0.078-0.184 0.040-0.397-0.099-0.542l-11.5-12.048c-0.188-0.198-0.535-0.198-0.723 0l-11.5 12.048c-0.138 0.144-0.176 0.358-0.098 0.542s0.26 0.303 0.46 0.303zM16 6.177l10.331 10.823h-20.662l10.331-10.823z"></path>
<path d="M27.5 22h-23c-0.276 0-0.5 0.224-0.5 0.5v4c0 0.276 0.224 0.5 0.5 0.5h23c0.276 0 0.5-0.224 0.5-0.5v-4c0-0.276-0.224-0.5-0.5-0.5zM27 26h-22v-3h22v3z"></path>
</svg>
