<svg version="1.1" xmlns="http://www.w3.org/2000/svg" width="32" height="32" viewBox="0 0 32 32">
<title>emoji-laughing</title>
<path d="M16 4c-6.617 0-12 5.383-12 12s5.383 12 12 12 12-5.383 12-12-5.383-12-12-12zM16 27c-6.065 0-11-4.935-11-11s4.935-11 11-11 11 4.935 11 11-4.935 11-11 11z"></path>
<path d="M22.478 17h-12.956c-0.14 0-0.272 0.058-0.367 0.161s-0.142 0.24-0.131 0.379c0.284 3.622 3.348 6.46 6.976 6.46s6.692-2.838 6.976-6.461c0.011-0.139-0.037-0.276-0.131-0.379s-0.228-0.16-0.367-0.16zM21.912 18c-0.059 0.345-0.15 0.678-0.265 1h-11.294c-0.115-0.322-0.206-0.655-0.265-1h11.824zM16 23c-2.187 0-4.133-1.205-5.182-3h10.363c-1.048 1.795-2.994 3-5.181 3z"></path>
<path d="M10.025 14.658c0.071 0.21 0.266 0.342 0.475 0.342 0.052 0 0.105-0.008 0.158-0.026l3-1c0.181-0.060 0.312-0.219 0.337-0.408s-0.059-0.376-0.218-0.482l-3-2c-0.23-0.153-0.54-0.091-0.693 0.139s-0.091 0.54 0.139 0.693l2.149 1.433-2.030 0.677c-0.262 0.087-0.404 0.37-0.317 0.632z"></path>
<path d="M18.342 13.974l3 1c0.053 0.018 0.106 0.026 0.158 0.026 0.209 0 0.404-0.133 0.475-0.342 0.087-0.262-0.055-0.545-0.316-0.632l-2.030-0.677 2.149-1.433c0.229-0.153 0.292-0.464 0.139-0.693s-0.464-0.292-0.693-0.139l-3 2c-0.159 0.106-0.244 0.293-0.218 0.482s0.155 0.348 0.336 0.408z"></path>
</svg>
