<svg version="1.1" xmlns="http://www.w3.org/2000/svg" width="32" height="32" viewBox="0 0 32 32">
<title>emoji-grimace</title>
<path d="M20 11c-0.933 0-1.714 0.945-1.991 2.407-0.052 0.271 0.127 0.533 0.398 0.584s0.532-0.127 0.584-0.398c0.197-1.035 0.666-1.593 1.009-1.593s0.812 0.558 1.009 1.593c0.045 0.24 0.255 0.407 0.491 0.407 0.031 0 0.062-0.003 0.093-0.009 0.271-0.051 0.45-0.313 0.398-0.584-0.277-1.462-1.058-2.407-1.991-2.407z"></path>
<path d="M10.991 13.593c0.197-1.035 0.666-1.593 1.009-1.593s0.812 0.558 1.009 1.593c0.045 0.24 0.255 0.407 0.491 0.407 0.031 0 0.062-0.003 0.093-0.009 0.271-0.051 0.45-0.313 0.398-0.584-0.277-1.462-1.058-2.407-1.991-2.407s-1.714 0.945-1.991 2.407c-0.052 0.271 0.127 0.533 0.398 0.584 0.274 0.052 0.533-0.127 0.584-0.398z"></path>
<path d="M16 4c-6.617 0-12 5.383-12 12s5.383 12 12 12 12-5.383 12-12-5.383-12-12-12zM16 27c-6.065 0-11-4.935-11-11s4.935-11 11-11 11 4.935 11 11-4.935 11-11 11z"></path>
<path d="M20.75 18h-9.5c-0.276 0-0.5 0.224-0.5 0.5 0 1.93 1.57 3.5 3.5 3.5h3.5c1.93 0 3.5-1.57 3.5-3.5 0-0.276-0.224-0.5-0.5-0.5zM16.97 21h-2v-2h2v2zM11.8 19h2.169v1.975c-1.079-0.122-1.955-0.926-2.169-1.975zM17.97 20.981v-1.981h2.23c-0.218 1.069-1.123 1.882-2.23 1.981z"></path>
</svg>
