<svg version="1.1" xmlns="http://www.w3.org/2000/svg" width="32" height="32" viewBox="0 0 32 32">
<title>emoji-delicious</title>
<path d="M16 4c-6.617 0-12 5.383-12 12s5.383 12 12 12 12-5.383 12-12-5.383-12-12-12zM16 27c-6.065 0-11-4.935-11-11s4.935-11 11-11 11 4.935 11 11-4.935 11-11 11z"></path>
<path d="M18.407 13.991c0.271 0.052 0.532-0.127 0.584-0.398 0.197-1.035 0.666-1.593 1.009-1.593s0.812 0.558 1.009 1.593c0.045 0.24 0.255 0.407 0.491 0.407 0.031 0 0.062-0.003 0.093-0.009 0.271-0.051 0.45-0.313 0.398-0.584-0.277-1.462-1.058-2.407-1.991-2.407s-1.714 0.945-1.991 2.407c-0.052 0.271 0.127 0.533 0.398 0.584z"></path>
<path d="M10.407 13.991c0.272 0.052 0.533-0.127 0.584-0.398 0.197-1.035 0.666-1.593 1.009-1.593s0.812 0.558 1.009 1.593c0.045 0.24 0.255 0.407 0.491 0.407 0.031 0 0.062-0.003 0.093-0.009 0.271-0.051 0.45-0.313 0.398-0.584-0.277-1.462-1.058-2.407-1.991-2.407s-1.714 0.945-1.991 2.407c-0.052 0.271 0.127 0.533 0.398 0.584z"></path>
<path d="M21.238 19.578c0.473-0.556 0.87-1.186 1.155-1.891 0.104-0.256-0.020-0.547-0.275-0.651-0.256-0.104-0.547 0.020-0.651 0.276-0.907 2.24-3.054 3.688-5.467 3.688s-4.56-1.448-5.467-3.688c-0.104-0.256-0.395-0.379-0.651-0.276s-0.379 0.395-0.275 0.651c1.060 2.62 3.57 4.313 6.393 4.313 0.704 0 1.388-0.106 2.036-0.304l1.753 1.754c0.355 0.354 0.828 0.55 1.331 0.55 1.037 0 1.88-0.844 1.88-1.882 0-0.502-0.195-0.974-0.551-1.329l-1.211-1.211zM21.118 23c-0.235 0-0.456-0.092-0.622-0.258l-1.451-1.451c0.54-0.265 1.040-0.603 1.492-1l1.205 1.205c0.166 0.167 0.258 0.388 0.258 0.624 0 0.485-0.396 0.88-0.882 0.88z"></path>
</svg>
