<svg version="1.1" xmlns="http://www.w3.org/2000/svg" width="32" height="32" viewBox="0 0 32 32">
<title>emoji-unamused</title>
<path d="M16 4c-6.617 0-12 5.383-12 12s5.383 12 12 12 12-5.383 12-12-5.383-12-12-12zM16 27c-6.065 0-11-4.935-11-11s4.935-11 11-11 11 4.935 11 11-4.935 11-11 11z"></path>
<path d="M22.5 15h-5c-0.276 0-0.5 0.224-0.5 0.5s0.224 0.5 0.5 0.5h2.562c-0.038 0.157-0.062 0.324-0.062 0.5 0 0.828 0.448 1.5 1 1.5s1-0.672 1-1.5c0-0.176-0.024-0.343-0.061-0.5h0.561c0.276 0 0.5-0.224 0.5-0.5s-0.224-0.5-0.5-0.5z"></path>
<path d="M14 16.5c0-0.176-0.024-0.343-0.061-0.5h0.561c0.276 0 0.5-0.224 0.5-0.5s-0.224-0.5-0.5-0.5h-5c-0.276 0-0.5 0.224-0.5 0.5s0.224 0.5 0.5 0.5h2.562c-0.038 0.157-0.062 0.324-0.062 0.5 0 0.828 0.448 1.5 1 1.5s1-0.672 1-1.5z"></path>
<path d="M13 11.5c0-0.276-0.224-0.5-0.5-0.5-1.663 0-3.213 0.395-4.253 1.083-0.23 0.152-0.294 0.463-0.142 0.693 0.097 0.145 0.256 0.224 0.418 0.224 0.095 0 0.19-0.027 0.275-0.083 0.868-0.574 2.252-0.917 3.702-0.917 0.276 0 0.5-0.224 0.5-0.5z"></path>
<path d="M23.753 12.083c-1.040-0.688-2.59-1.083-4.253-1.083-0.276 0-0.5 0.224-0.5 0.5s0.224 0.5 0.5 0.5c1.45 0 2.834 0.343 3.701 0.917 0.085 0.056 0.181 0.083 0.276 0.083 0.162 0 0.321-0.079 0.418-0.224 0.152-0.23 0.088-0.541-0.142-0.693z"></path>
<path d="M16 20c-0.998 0-1.971 0.36-2.814 1.042-0.215 0.174-0.248 0.488-0.074 0.703s0.488 0.248 0.703 0.075c0.663-0.536 1.418-0.82 2.185-0.82 1.178 0 2.276 0.635 3.092 1.789 0.097 0.137 0.252 0.211 0.408 0.211 0.1 0 0.201-0.030 0.288-0.092 0.226-0.159 0.279-0.471 0.12-0.697-0.993-1.405-2.418-2.211-3.908-2.211z"></path>
</svg>
