<svg version="1.1" xmlns="http://www.w3.org/2000/svg" width="32" height="32" viewBox="0 0 32 32">
<title>emoji-cold-sweat</title>
<path d="M9.5 14c1.93 0 3.5-1.57 3.5-3.5 0-3.131-2.974-7.131-3.1-7.3-0.188-0.252-0.611-0.252-0.8 0-0.126 0.169-3.1 4.169-3.1 7.3 0 1.93 1.57 3.5 3.5 3.5zM9.5 4.372c0.796 1.183 2.5 3.97 2.5 6.128 0 1.378-1.122 2.5-2.5 2.5s-2.5-1.122-2.5-2.5c0-2.155 1.705-4.944 2.5-6.128z"></path>
<path d="M13.332 22.151c-0.193 0.198-0.188 0.515 0.010 0.707 0.197 0.192 0.515 0.188 0.707-0.010 1.064-1.094 2.838-1.094 3.902 0 0.098 0.101 0.229 0.152 0.359 0.152 0.126 0 0.252-0.047 0.349-0.142 0.198-0.193 0.203-0.509 0.010-0.707-1.445-1.485-3.893-1.485-5.337 0z"></path>
<path d="M18.968 17.677c0.153-0.405 0.568-0.677 1.032-0.677s0.879 0.272 1.032 0.677c0.076 0.2 0.266 0.323 0.468 0.323 0.059 0 0.119-0.010 0.177-0.033 0.258-0.098 0.388-0.386 0.291-0.645-0.3-0.79-1.091-1.322-1.968-1.322s-1.668 0.532-1.968 1.323c-0.098 0.258 0.032 0.547 0.291 0.645 0.258 0.097 0.547-0.033 0.645-0.291z"></path>
<path d="M12 16c-0.877 0-1.668 0.532-1.968 1.323-0.098 0.258 0.032 0.547 0.291 0.645s0.547-0.032 0.645-0.29c0.153-0.406 0.568-0.678 1.032-0.678s0.879 0.272 1.032 0.677c0.076 0.2 0.266 0.323 0.468 0.323 0.059 0 0.119-0.010 0.177-0.033 0.258-0.098 0.388-0.386 0.291-0.645-0.3-0.79-1.091-1.322-1.968-1.322z"></path>
<path d="M16 4c-0.72 0-1.471 0.081-2.298 0.247-0.271 0.054-0.446 0.318-0.392 0.589s0.317 0.446 0.589 0.392c0.761-0.154 1.448-0.228 2.101-0.228 6.065 0 11 4.935 11 11s-4.935 11-11 11-11-4.935-11-11c0-0.548 0.058-1.133 0.183-1.842 0.048-0.272-0.134-0.531-0.406-0.579-0.273-0.048-0.531 0.134-0.579 0.406-0.136 0.768-0.198 1.408-0.198 2.015 0 6.617 5.383 12 12 12s12-5.383 12-12-5.383-12-12-12z"></path>
</svg>
