<svg version="1.1" xmlns="http://www.w3.org/2000/svg" width="32" height="32" viewBox="0 0 32 32">
<title>emoji-zipper-mouth</title>
<path d="M14 12.5c0 0.828-0.448 1.5-1 1.5s-1-0.672-1-1.5c0-0.828 0.448-1.5 1-1.5s1 0.672 1 1.5z"></path>
<path d="M20 12.5c0 0.828-0.448 1.5-1 1.5s-1-0.672-1-1.5c0-0.828 0.448-1.5 1-1.5s1 0.672 1 1.5z"></path>
<path d="M28.854 22.646l-3.5-3.5c-0.094-0.093-0.221-0.146-0.354-0.146h-3v-0.5c0-0.276-0.224-0.5-0.5-0.5s-0.5 0.224-0.5 0.5v0.5h-1v-0.5c0-0.276-0.224-0.5-0.5-0.5s-0.5 0.224-0.5 0.5v0.5h-1v-0.5c0-0.276-0.224-0.5-0.5-0.5s-0.5 0.224-0.5 0.5v0.5h-1v-0.5c0-0.276-0.224-0.5-0.5-0.5s-0.5 0.224-0.5 0.5v0.5h-1v-0.5c0-0.276-0.224-0.5-0.5-0.5s-0.5 0.224-0.5 0.5v0.5h-1v-0.5c0-0.276-0.224-0.5-0.5-0.5s-0.5 0.224-0.5 0.5v0.5h-1.5c-0.276 0-0.5 0.224-0.5 0.5s0.224 0.5 0.5 0.5h0.5v0.5c0 0.276 0.224 0.5 0.5 0.5s0.5-0.224 0.5-0.5v-0.5h1v0.5c0 0.276 0.224 0.5 0.5 0.5s0.5-0.224 0.5-0.5v-0.5h1v0.5c0 0.276 0.224 0.5 0.5 0.5s0.5-0.224 0.5-0.5v-0.5h1v0.5c0 0.276 0.224 0.5 0.5 0.5s0.5-0.224 0.5-0.5v-0.5h1v0.5c0 0.276 0.224 0.5 0.5 0.5s0.5-0.224 0.5-0.5v-0.5h1v0.5c0 0.276 0.224 0.5 0.5 0.5s0.5-0.224 0.5-0.5v-0.5h1v2c0 0.133 0.053 0.26 0.146 0.354l3.5 3.5c0.098 0.097 0.226 0.146 0.354 0.146s0.256-0.049 0.354-0.146l2.5-2.5c0.195-0.196 0.195-0.512 0-0.708zM26 24.793l-3-3v-1.793h1.793l3 3-1.793 1.793z"></path>
<path d="M21.768 25.349c-1.741 1.080-3.735 1.651-5.768 1.651-6.065 0-11-4.935-11-11s4.935-11 11-11 11 4.935 11 11c0 0.474-0.042 0.981-0.127 1.551-0.041 0.273 0.147 0.528 0.421 0.569 0.271 0.041 0.527-0.147 0.568-0.42 0.093-0.62 0.138-1.176 0.138-1.7 0-6.617-5.383-12-12-12s-12 5.383-12 12 5.383 12 12 12c2.219 0 4.396-0.623 6.295-1.801 0.234-0.146 0.307-0.454 0.161-0.688-0.145-0.235-0.454-0.308-0.688-0.162z"></path>
</svg>
