<svg version="1.1" xmlns="http://www.w3.org/2000/svg" width="32" height="32" viewBox="0 0 32 32">
<title>emoji-love</title>
<path d="M18.009 14.407c-0.052 0.271 0.127 0.533 0.398 0.584s0.532-0.127 0.584-0.398c0.197-1.035 0.666-1.593 1.009-1.593s0.812 0.558 1.009 1.593c0.045 0.24 0.255 0.407 0.491 0.407 0.031 0 0.062-0.003 0.093-0.009 0.271-0.051 0.45-0.313 0.398-0.584-0.277-1.462-1.058-2.407-1.991-2.407s-1.714 0.945-1.991 2.407z"></path>
<path d="M10.991 14.593c0.197-1.035 0.666-1.593 1.009-1.593s0.812 0.558 1.009 1.593c0.045 0.24 0.255 0.407 0.491 0.407 0.031 0 0.062-0.003 0.093-0.009 0.271-0.051 0.45-0.313 0.398-0.584-0.277-1.462-1.058-2.407-1.991-2.407s-1.714 0.945-1.991 2.407c-0.052 0.271 0.127 0.533 0.398 0.584 0.273 0.052 0.533-0.127 0.584-0.398z"></path>
<path d="M26.833 18c-0.991 0-1.938 0.474-2.533 1.267l-0.3 0.4-0.3-0.4c-0.595-0.793-1.542-1.267-2.533-1.267-1.746 0-3.167 1.421-3.167 3.167v0.154c0 0.89 0.378 1.744 1.036 2.343l4.627 4.206c0.096 0.087 0.216 0.13 0.337 0.13s0.241-0.043 0.336-0.13l4.627-4.206c0.659-0.599 1.037-1.453 1.037-2.344v-0.154c0-1.745-1.421-3.166-3.167-3.166zM29 21.32c0 0.609-0.259 1.193-0.709 1.603l-4.291 3.901-4.291-3.901c-0.45-0.409-0.709-0.994-0.709-1.603v-0.154c0-1.194 0.972-2.166 2.167-2.166 0.678 0 1.326 0.324 1.733 0.867l0.7 0.933c0.188 0.252 0.611 0.252 0.8 0l0.7-0.933c0.407-0.543 1.055-0.867 1.733-0.867 1.195 0 2.167 0.972 2.167 2.167v0.153z"></path>
<path d="M18.934 26.59c-0.967 0.272-1.954 0.41-2.934 0.41-6.065 0-11-4.935-11-11s4.935-11 11-11c5.92 0 10.742 4.638 10.977 10.559 0.011 0.276 0.245 0.491 0.519 0.48 0.276-0.011 0.491-0.244 0.48-0.519-0.256-6.46-5.517-11.52-11.976-11.52-6.617 0-12 5.383-12 12s5.383 12 12 12c1.071 0 2.149-0.151 3.204-0.447 0.266-0.075 0.421-0.351 0.346-0.617s-0.349-0.421-0.616-0.346z"></path>
<path d="M15.585 22.972c0.012 0.001 0.023 0.001 0.035 0.001 0.26 0 0.48-0.202 0.499-0.465 0.019-0.275-0.189-0.514-0.464-0.533-1.756-0.122-3.286-1.132-4.091-2.702-0.126-0.246-0.427-0.343-0.673-0.217s-0.343 0.427-0.217 0.673c0.952 1.856 2.834 3.098 4.911 3.243z"></path>
</svg>
