<svg version="1.1" xmlns="http://www.w3.org/2000/svg" width="32" height="32" viewBox="0 0 32 32">
<title>emoji-weary</title>
<path d="M16 18c-2.243 0-4.245 1.754-4.981 4.364-0.042 0.151-0.012 0.313 0.083 0.438 0.094 0.125 0.242 0.198 0.398 0.198h9c0.156 0 0.304-0.073 0.398-0.198s0.125-0.287 0.083-0.438c-0.736-2.61-2.738-4.364-4.981-4.364zM12.197 22c0.726-1.819 2.194-3 3.803-3s3.078 1.181 3.803 3h-7.606z"></path>
<path d="M16 4c-6.617 0-12 5.383-12 12s5.383 12 12 12 12-5.383 12-12-5.383-12-12-12zM16 27c-6.065 0-11-4.935-11-11s4.935-11 11-11 11 4.935 11 11-4.935 11-11 11z"></path>
<path d="M20.408 11.992c0.031 0.005 0.062 0.008 0.092 0.008 0.236 0 0.446-0.168 0.491-0.408 0.051-0.271-0.128-0.533-0.399-0.583-1.113-0.208-2.086-0.855-2.669-1.776-0.148-0.233-0.457-0.303-0.69-0.155s-0.303 0.457-0.155 0.69c0.732 1.155 1.945 1.965 3.33 2.224z"></path>
<path d="M11.5 12c0.030 0 0.061-0.003 0.092-0.009 1.385-0.258 2.599-1.069 3.331-2.224 0.148-0.233 0.079-0.542-0.155-0.69s-0.542-0.079-0.69 0.155c-0.583 0.921-1.556 1.568-2.669 1.776-0.271 0.051-0.45 0.312-0.399 0.583 0.043 0.241 0.254 0.409 0.49 0.409z"></path>
<path d="M14.717 13.684c0.102-0.257-0.024-0.547-0.281-0.649s-0.547 0.024-0.649 0.281c-0.405 1.023-1.3 1.684-2.279 1.684-0.264 0-0.534-0.055-0.825-0.17-0.257-0.101-0.548 0.026-0.648 0.283-0.101 0.257 0.026 0.547 0.283 0.648 0.41 0.161 0.799 0.239 1.19 0.239 1.392 0 2.652-0.909 3.209-2.316z"></path>
<path d="M21.069 14.83c-0.291 0.115-0.561 0.17-0.825 0.17-0.979 0-1.874-0.661-2.279-1.684-0.102-0.257-0.392-0.383-0.649-0.281s-0.382 0.392-0.281 0.649c0.557 1.407 1.817 2.316 3.209 2.316 0.391 0 0.78-0.078 1.19-0.239 0.257-0.101 0.384-0.391 0.283-0.648s-0.391-0.384-0.648-0.283z"></path>
</svg>
