<svg version="1.1" xmlns="http://www.w3.org/2000/svg" width="32" height="32" viewBox="0 0 32 32">
<title>emoji-rotfl</title>
<path d="M24.485 7.515c0 0 0 0 0 0-4.679-4.679-12.292-4.679-16.971 0s-4.679 12.292 0 16.971c2.339 2.339 5.412 3.509 8.485 3.509s6.146-1.17 8.485-3.509c4.68-4.68 4.68-12.292 0.001-16.971zM23.778 23.778c-4.289 4.289-11.268 4.289-15.557 0s-4.289-11.267 0-15.556c2.145-2.145 4.962-3.217 7.779-3.217s5.634 1.072 7.778 3.217c4.289 4.289 4.289 11.267 0 15.556z"></path>
<path d="M12.464 16.707c0.391-0.391 0.232-1.182-0.354-1.768s-1.377-0.744-1.768-0.354c-0.391 0.391-0.232 1.182 0.354 1.768s1.378 0.745 1.768 0.354z"></path>
<path d="M16.707 12.464c0.391-0.391 0.232-1.182-0.354-1.768s-1.377-0.744-1.768-0.354c-0.391 0.391-0.232 1.182 0.354 1.768s1.377 0.745 1.768 0.354z"></path>
<path d="M20.953 11.273c-0.137-0.005-0.274 0.047-0.373 0.146l-9.16 9.161c-0.099 0.099-0.152 0.234-0.146 0.373s0.069 0.27 0.175 0.361c1.308 1.118 2.932 1.67 4.552 1.67 1.802 0 3.599-0.684 4.95-2.035 2.565-2.565 2.725-6.739 0.364-9.501-0.091-0.106-0.222-0.169-0.362-0.175zM20.888 12.527c0.202 0.285 0.373 0.586 0.52 0.895l-7.986 7.986c-0.309-0.146-0.609-0.317-0.895-0.52l8.361-8.361zM20.243 20.243c-1.546 1.546-3.775 2.071-5.785 1.543l7.328-7.327c0.527 2.009 0.003 4.237-1.543 5.784z"></path>
</svg>
