<svg version="1.1" xmlns="http://www.w3.org/2000/svg" width="32" height="32" viewBox="0 0 32 32">
<title>emoji-persevere</title>
<path d="M13.999 17.469c-0.011-0.178-0.116-0.336-0.275-0.416l-4-2c-0.247-0.124-0.548-0.023-0.671 0.224-0.124 0.247-0.023 0.547 0.224 0.671l3.229 1.615-2.283 1.522c-0.229 0.153-0.292 0.464-0.139 0.693 0.097 0.144 0.255 0.222 0.416 0.222 0.095 0 0.192-0.027 0.277-0.084l3-2c0.149-0.099 0.233-0.269 0.222-0.447z"></path>
<path d="M22.276 15.053l-4 2c-0.159 0.080-0.265 0.238-0.275 0.416-0.011 0.178 0.073 0.348 0.222 0.447l3 2c0.085 0.057 0.181 0.084 0.277 0.084 0.162 0 0.32-0.078 0.417-0.223 0.153-0.23 0.091-0.54-0.139-0.693l-2.283-1.522 3.229-1.615c0.247-0.123 0.347-0.424 0.224-0.671s-0.424-0.347-0.672-0.223z"></path>
<path d="M12.876 10.801c0.167-0.22 0.123-0.534-0.097-0.7-0.221-0.167-0.534-0.123-0.701 0.097-0.865 1.145-2.169 1.802-3.578 1.802-0.276 0-0.5 0.224-0.5 0.5s0.224 0.5 0.5 0.5c1.726 0 3.32-0.801 4.376-2.199z"></path>
<path d="M23.5 12c-1.409 0-2.713-0.657-3.578-1.801-0.167-0.22-0.479-0.264-0.701-0.097-0.22 0.167-0.264 0.48-0.097 0.7 1.056 1.397 2.65 2.198 4.376 2.198 0.276 0 0.5-0.224 0.5-0.5s-0.224-0.5-0.5-0.5z"></path>
<path d="M16 4c-6.617 0-12 5.383-12 12s5.383 12 12 12 12-5.383 12-12-5.383-12-12-12zM16 27c-6.065 0-11-4.935-11-11s4.935-11 11-11 11 4.935 11 11-4.935 11-11 11z"></path>
<path d="M13.332 22.151c-0.193 0.198-0.188 0.514 0.010 0.707 0.197 0.192 0.514 0.188 0.707-0.010 1.064-1.094 2.838-1.094 3.902 0 0.098 0.101 0.229 0.152 0.359 0.152 0.126 0 0.252-0.047 0.349-0.142 0.198-0.193 0.203-0.509 0.010-0.707-1.445-1.485-3.893-1.485-5.337 0z"></path>
</svg>
