<svg version="1.1" xmlns="http://www.w3.org/2000/svg" width="32" height="32" viewBox="0 0 32 32">
<title>emoji-stuck-out-tounge-closed-eyes</title>
<path d="M10.084 16.777c0.097 0.145 0.255 0.223 0.416 0.223 0.095 0 0.192-0.027 0.277-0.084l3-2c0.148-0.099 0.232-0.269 0.222-0.447s-0.116-0.336-0.275-0.416l-4-2c-0.247-0.124-0.548-0.023-0.671 0.224-0.124 0.247-0.023 0.547 0.224 0.671l3.229 1.615-2.283 1.522c-0.23 0.152-0.292 0.463-0.139 0.692z"></path>
<path d="M22.276 12.053l-4 2c-0.159 0.080-0.265 0.238-0.275 0.416-0.011 0.178 0.073 0.348 0.222 0.447l3 2c0.085 0.057 0.181 0.084 0.277 0.084 0.162 0 0.32-0.078 0.417-0.223 0.153-0.23 0.091-0.54-0.139-0.693l-2.283-1.522 3.229-1.615c0.247-0.123 0.347-0.424 0.224-0.671s-0.424-0.347-0.672-0.223z"></path>
<path d="M16 4c-6.617 0-12 5.383-12 12s5.383 12 12 12 12-5.383 12-12-5.383-12-12-12zM16 27c-6.065 0-11-4.935-11-11s4.935-11 11-11 11 4.935 11 11-4.935 11-11 11z"></path>
<path d="M21.131 18.117c-1.444 1.214-3.266 1.883-5.131 1.883s-3.687-0.669-5.131-1.883c-0.212-0.178-0.527-0.15-0.704 0.061s-0.151 0.527 0.061 0.705c1.101 0.925 2.399 1.561 3.774 1.88v2.237c0 1.103 0.897 2 2 2s2-0.897 2-2v-2.238c1.375-0.319 2.674-0.954 3.774-1.88 0.211-0.178 0.238-0.493 0.061-0.705-0.177-0.21-0.492-0.237-0.704-0.060zM17 23c0 0.551-0.448 1-1 1s-1-0.449-1-1v-2.064c0.332 0.038 0.665 0.064 1 0.064s0.668-0.026 1-0.064v2.064z"></path>
</svg>
