<svg version="1.1" xmlns="http://www.w3.org/2000/svg" width="32" height="32" viewBox="0 0 32 32">
<title>emoji-scream</title>
<path d="M20 14.5c0 0.828-0.448 1.5-1 1.5s-1-0.672-1-1.5c0-0.828 0.448-1.5 1-1.5s1 0.672 1 1.5z"></path>
<path d="M14 14.5c0 0.828-0.448 1.5-1 1.5s-1-0.672-1-1.5c0-0.828 0.448-1.5 1-1.5s1 0.672 1 1.5z"></path>
<path d="M10.847 11.861c0.771-0.741 1.729-1.263 2.769-1.509 0.269-0.064 0.435-0.333 0.371-0.602s-0.331-0.435-0.602-0.371c-1.213 0.287-2.331 0.896-3.231 1.762-0.199 0.191-0.205 0.508-0.014 0.707 0.097 0.101 0.229 0.152 0.36 0.152 0.125 0 0.25-0.046 0.347-0.139z"></path>
<path d="M21.153 11.861c0.097 0.093 0.222 0.139 0.347 0.139 0.131 0 0.263-0.051 0.36-0.154 0.191-0.199 0.186-0.516-0.014-0.707-0.9-0.865-2.018-1.474-3.231-1.762-0.269-0.064-0.538 0.103-0.602 0.371-0.063 0.269 0.103 0.538 0.371 0.602 1.041 0.247 1.998 0.769 2.769 1.511z"></path>
<path d="M16 17c-1.654 0-3 1.57-3 3.5s1.346 3.5 3 3.5 3-1.57 3-3.5-1.346-3.5-3-3.5zM16 23c-1.103 0-2-1.122-2-2.5s0.897-2.5 2-2.5 2 1.122 2 2.5-0.897 2.5-2 2.5z"></path>
<path d="M24.266 19.058c-2.631 1.392-4.266 4.102-4.266 7.073v1.369c0 0.276 0.224 0.5 0.5 0.5h4c0.276 0 0.5-0.224 0.5-0.5v-8c0-0.175-0.092-0.338-0.242-0.428-0.151-0.091-0.337-0.096-0.492-0.014zM24 27h-3v-0.869c0-2.311 1.131-4.441 3-5.742v6.611z"></path>
<path d="M7.734 19.058c-0.155-0.082-0.341-0.077-0.492 0.014-0.15 0.090-0.242 0.253-0.242 0.428v8c0 0.276 0.224 0.5 0.5 0.5h4c0.276 0 0.5-0.224 0.5-0.5v-1.369c0-2.971-1.635-5.681-4.266-7.073zM11 27h-3v-6.611c1.869 1.3 3 3.431 3 5.742v0.869z"></path>
<path d="M16 4c-6.617 0-12 5.383-12 12 0 1.234 0.194 2.463 0.578 3.653 0.084 0.263 0.366 0.407 0.629 0.323 0.263-0.085 0.407-0.366 0.322-0.629-0.351-1.092-0.529-2.218-0.529-3.347 0-6.065 4.935-11 11-11s11 4.935 11 11c0 1.129-0.178 2.255-0.529 3.347-0.085 0.263 0.060 0.545 0.322 0.629 0.051 0.016 0.103 0.024 0.153 0.024 0.211 0 0.408-0.135 0.476-0.347 0.384-1.19 0.578-2.419 0.578-3.653 0-6.617-5.383-12-12-12z"></path>
<path d="M17.433 26.893c-1.084 0.147-1.782 0.147-2.866 0-0.272-0.037-0.526 0.155-0.562 0.429-0.037 0.274 0.155 0.525 0.429 0.562 0.587 0.079 1.085 0.116 1.566 0.116s0.979-0.037 1.567-0.116c0.274-0.037 0.465-0.289 0.429-0.562-0.038-0.275-0.291-0.466-0.563-0.429z"></path>
</svg>
