<svg version="1.1" xmlns="http://www.w3.org/2000/svg" width="32" height="32" viewBox="0 0 32 32">
<title>emoji-cry</title>
<path d="M14 15.5c0 0.828-0.448 1.5-1 1.5s-1-0.672-1-1.5c0-0.828 0.448-1.5 1-1.5s1 0.672 1 1.5z"></path>
<path d="M20 15.5c0 0.828-0.448 1.5-1 1.5s-1-0.672-1-1.5c0-0.828 0.448-1.5 1-1.5s1 0.672 1 1.5z"></path>
<path d="M15.004 20.121c-0.269 0.062-0.437 0.33-0.375 0.599s0.33 0.437 0.599 0.375c0.279-0.064 0.531-0.095 0.772-0.095 1.249 0 2.375 0.655 3.013 1.751 0.093 0.16 0.26 0.249 0.433 0.249 0.085 0 0.172-0.022 0.251-0.068 0.239-0.139 0.32-0.445 0.181-0.684-0.808-1.386-2.293-2.248-3.878-2.248-0.317 0-0.643 0.039-0.996 0.121z"></path>
<path d="M13 22.4c0-2.234-2.008-5.071-2.093-5.191-0.188-0.263-0.626-0.263-0.814 0-0.085 0.12-2.093 2.956-2.093 5.191 0 1.434 1.122 2.6 2.5 2.6s2.5-1.166 2.5-2.6zM10.5 24c-0.827 0-1.5-0.718-1.5-1.6 0-1.35 0.94-3.076 1.5-3.985 0.56 0.909 1.5 2.635 1.5 3.985 0 0.882-0.673 1.6-1.5 1.6z"></path>
<path d="M13.411 10.008c-1.826 0.33-3.412 1.516-4.351 3.254-0.131 0.243-0.041 0.546 0.203 0.678 0.075 0.041 0.156 0.060 0.237 0.060 0.178 0 0.35-0.095 0.44-0.262 0.793-1.469 2.124-2.47 3.649-2.746 0.271-0.049 0.452-0.309 0.403-0.581s-0.307-0.453-0.581-0.403z"></path>
<path d="M22.060 13.738c0.090 0.167 0.263 0.262 0.44 0.262 0.080 0 0.162-0.019 0.237-0.060 0.243-0.131 0.334-0.435 0.203-0.678-0.939-1.738-2.525-2.924-4.351-3.254-0.274-0.049-0.532 0.132-0.581 0.403s0.132 0.532 0.403 0.581c1.526 0.276 2.856 1.276 3.649 2.746z"></path>
<path d="M16 4c-6.617 0-12 5.383-12 12 0 1.995 0.509 3.98 1.471 5.74 0.133 0.242 0.436 0.331 0.679 0.199 0.242-0.133 0.332-0.436 0.199-0.679-0.883-1.613-1.349-3.432-1.349-5.26 0-6.065 4.935-11 11-11s11 4.935 11 11-4.935 11-11 11c-1.117 0-2.243-0.181-3.346-0.538-0.263-0.085-0.544 0.059-0.629 0.322s0.059 0.545 0.322 0.63c1.202 0.389 2.431 0.586 3.653 0.586 6.617 0 12-5.383 12-12s-5.383-12-12-12z"></path>
</svg>
