<svg version="1.1" xmlns="http://www.w3.org/2000/svg" width="32" height="32" viewBox="0 0 32 32">
<title>emoji-confused</title>
<path d="M16 4c-6.617 0-12 5.383-12 12s5.383 12 12 12 12-5.383 12-12-5.383-12-12-12zM16 27c-6.065 0-11-4.935-11-11s4.935-11 11-11 11 4.935 11 11-4.935 11-11 11z"></path>
<path d="M14 13.5c0 0.828-0.448 1.5-1 1.5s-1-0.672-1-1.5c0-0.828 0.448-1.5 1-1.5s1 0.672 1 1.5z"></path>
<path d="M20 13.5c0 0.828-0.448 1.5-1 1.5s-1-0.672-1-1.5c0-0.828 0.448-1.5 1-1.5s1 0.672 1 1.5z"></path>
<path d="M20.652 19.57c-3.101-0.99-6.559-0.656-9.392 0.89-0.243 0.132-0.332 0.436-0.2 0.678 0.091 0.166 0.262 0.261 0.439 0.261 0.081 0 0.163-0.020 0.239-0.061 2.596-1.416 5.765-1.724 8.608-0.815 0.264 0.084 0.545-0.061 0.629-0.324 0.086-0.264-0.060-0.545-0.323-0.629z"></path>
</svg>
