<svg version="1.1" xmlns="http://www.w3.org/2000/svg" width="32" height="32" viewBox="0 0 32 32">
<title>emoji-sweet-smile</title>
<path d="M16 4c-6.617 0-12 5.383-12 12s5.383 12 12 12 12-5.383 12-12-5.383-12-12-12zM16 27c-6.065 0-11-4.935-11-11s4.935-11 11-11 11 4.935 11 11-4.935 11-11 11z"></path>
<path d="M20 12c-0.933 0-1.714 0.945-1.991 2.407-0.052 0.271 0.127 0.533 0.398 0.584s0.533-0.127 0.584-0.398c0.197-1.035 0.666-1.593 1.009-1.593s0.812 0.558 1.009 1.593c0.045 0.24 0.255 0.407 0.491 0.407 0.031 0 0.062-0.003 0.093-0.009 0.271-0.051 0.45-0.313 0.398-0.584-0.277-1.462-1.058-2.407-1.991-2.407z"></path>
<path d="M10.991 14.593c0.197-1.035 0.666-1.593 1.009-1.593s0.812 0.558 1.009 1.593c0.045 0.24 0.255 0.407 0.491 0.407 0.031 0 0.062-0.003 0.093-0.009 0.271-0.051 0.45-0.313 0.398-0.584-0.277-1.462-1.058-2.407-1.991-2.407s-1.714 0.945-1.991 2.407c-0.052 0.271 0.127 0.533 0.398 0.584 0.274 0.052 0.533-0.127 0.584-0.398z"></path>
<path d="M21.672 18.077c-0.234-0.147-0.542-0.077-0.689 0.157-1.091 1.732-2.954 2.766-4.983 2.766s-3.892-1.034-4.982-2.766c-0.147-0.234-0.456-0.304-0.689-0.157s-0.304 0.456-0.157 0.69c1.274 2.024 3.453 3.233 5.828 3.233s4.554-1.209 5.829-3.234c0.147-0.233 0.077-0.542-0.157-0.689z"></path>
</svg>
