<svg version="1.1" xmlns="http://www.w3.org/2000/svg" width="32" height="32" viewBox="0 0 32 32">
<title>emoji-astonished</title>
<path d="M16 4c-6.617 0-12 5.383-12 12s5.383 12 12 12 12-5.383 12-12-5.383-12-12-12zM16 27c-6.065 0-11-4.935-11-11s4.935-11 11-11 11 4.935 11 11-4.935 11-11 11z"></path>
<path d="M14 15.5c0 0.828-0.448 1.5-1 1.5s-1-0.672-1-1.5c0-0.828 0.448-1.5 1-1.5s1 0.672 1 1.5z"></path>
<path d="M20 15.5c0 0.828-0.448 1.5-1 1.5s-1-0.672-1-1.5c0-0.828 0.448-1.5 1-1.5s1 0.672 1 1.5z"></path>
<path d="M16 19c-1.103 0-2 1.122-2 2.5s0.897 2.5 2 2.5 2-1.122 2-2.5-0.897-2.5-2-2.5zM16 23c-0.542 0-1-0.687-1-1.5s0.458-1.5 1-1.5 1 0.687 1 1.5c0 0.813-0.458 1.5-1 1.5z"></path>
<path d="M14 10.5c0-0.276-0.224-0.5-0.5-0.5-1.195 0-2.338 0.391-3.304 1.13-0.22 0.168-0.261 0.482-0.093 0.701 0.098 0.129 0.247 0.196 0.397 0.196 0.106 0 0.213-0.034 0.304-0.103 0.79-0.605 1.722-0.924 2.696-0.924 0.276 0 0.5-0.224 0.5-0.5z"></path>
<path d="M18.5 10c-0.276 0-0.5 0.224-0.5 0.5s0.224 0.5 0.5 0.5c0.974 0 1.906 0.319 2.696 0.924 0.091 0.069 0.197 0.103 0.304 0.103 0.15 0 0.299-0.068 0.397-0.196 0.168-0.219 0.126-0.533-0.093-0.701-0.966-0.739-2.109-1.13-3.304-1.13z"></path>
</svg>
