<svg version="1.1" xmlns="http://www.w3.org/2000/svg" width="32" height="32" viewBox="0 0 32 32">
<title>emoji-pleased</title>
<path d="M20 16c-0.877 0-1.668 0.532-1.968 1.323-0.098 0.258 0.032 0.547 0.291 0.645s0.547-0.032 0.645-0.29c0.153-0.406 0.568-0.678 1.032-0.678s0.879 0.272 1.032 0.677c0.098 0.258 0.387 0.388 0.645 0.29s0.388-0.386 0.291-0.645c-0.3-0.791-1.091-1.322-1.968-1.322z"></path>
<path d="M12 17c0.464 0 0.879 0.272 1.032 0.677 0.098 0.258 0.387 0.388 0.645 0.29s0.388-0.386 0.291-0.645c-0.3-0.791-1.091-1.322-1.968-1.322s-1.668 0.532-1.968 1.323c-0.098 0.258 0.032 0.547 0.291 0.645 0.258 0.098 0.547-0.032 0.645-0.29 0.153-0.406 0.568-0.678 1.032-0.678z"></path>
<path d="M20.139 20.154c-1.138 1.191-2.608 1.846-4.139 1.846s-3.001-0.655-4.139-1.846c-0.191-0.2-0.508-0.206-0.707-0.016s-0.207 0.507-0.016 0.707c1.329 1.39 3.055 2.155 4.862 2.155s3.533-0.765 4.861-2.154c0.191-0.2 0.184-0.516-0.016-0.707s-0.515-0.184-0.706 0.015z"></path>
<path d="M16 4c-6.617 0-12 5.383-12 12s5.383 12 12 12 12-5.383 12-12-5.383-12-12-12zM16 27c-6.065 0-11-4.935-11-11s4.935-11 11-11 11 4.935 11 11-4.935 11-11 11z"></path>
<path d="M19.592 11.008c-0.272-0.051-0.533 0.129-0.583 0.4-0.051 0.271 0.128 0.533 0.399 0.583 1.113 0.208 2.086 0.855 2.669 1.776 0.096 0.151 0.258 0.233 0.423 0.233 0.091 0 0.184-0.025 0.267-0.078 0.233-0.148 0.303-0.457 0.155-0.69-0.732-1.155-1.945-1.965-3.33-2.224z"></path>
<path d="M12.592 11.992c0.271-0.051 0.45-0.312 0.399-0.583s-0.31-0.451-0.583-0.4c-1.385 0.258-2.599 1.069-3.331 2.224-0.148 0.233-0.079 0.542 0.155 0.69 0.083 0.052 0.176 0.077 0.268 0.077 0.166 0 0.328-0.082 0.423-0.232 0.583-0.922 1.556-1.569 2.669-1.776z"></path>
</svg>
