<svg version="1.1" xmlns="http://www.w3.org/2000/svg" width="32" height="32" viewBox="0 0 32 32">
<title>emoji-big-eyes-smile</title>
<path d="M16 4c-6.617 0-12 5.383-12 12s5.383 12 12 12 12-5.383 12-12-5.383-12-12-12zM16 27c-6.065 0-11-4.935-11-11s4.935-11 11-11 11 4.935 11 11-4.935 11-11 11z"></path>
<path d="M14 12c0 1.105-0.448 2-1 2s-1-0.895-1-2c0-1.105 0.448-2 1-2s1 0.895 1 2z"></path>
<path d="M20 12c0 1.105-0.448 2-1 2s-1-0.895-1-2c0-1.105 0.448-2 1-2s1 0.895 1 2z"></path>
<path d="M22.478 16h-12.956c-0.14 0-0.272 0.058-0.367 0.161s-0.142 0.24-0.131 0.379c0.284 3.622 3.348 6.46 6.976 6.46s6.692-2.838 6.976-6.461c0.011-0.139-0.037-0.276-0.131-0.379s-0.228-0.16-0.367-0.16zM16 22c-2.187 0-4.133-1.205-5.182-3h10.363c-1.048 1.795-2.994 3-5.181 3zM21.647 18h-11.294c-0.115-0.322-0.206-0.655-0.265-1h11.824c-0.059 0.345-0.15 0.678-0.265 1z"></path>
</svg>
