<svg version="1.1" xmlns="http://www.w3.org/2000/svg" width="32" height="32" viewBox="0 0 32 32">
<title>emoji-cool</title>
<path d="M16 4c-6.617 0-12 5.383-12 12s5.383 12 12 12 12-5.383 12-12-5.383-12-12-12zM16 27c-6.065 0-11-4.935-11-11s4.935-11 11-11 11 4.935 11 11-4.935 11-11 11z"></path>
<path d="M20.747 20.133c-1.301 1.204-2.987 1.867-4.747 1.867s-3.446-0.663-4.747-1.867c-0.203-0.187-0.52-0.176-0.707 0.027s-0.175 0.519 0.027 0.707c1.487 1.375 3.414 2.133 5.427 2.133s3.94-0.758 5.427-2.133c0.202-0.188 0.215-0.504 0.027-0.707s-0.505-0.214-0.707-0.027z"></path>
<path d="M24.65 12.59c-1.223-0.386-2.659-0.59-4.15-0.59-1.57 0-2.722 0.252-3.849 0.842-0.201 0.105-0.4 0.158-0.59 0.158h-0.122c-0.19 0-0.389-0.053-0.59-0.158-1.127-0.59-2.279-0.842-3.849-0.842-1.491 0-2.927 0.204-4.15 0.59-0.264 0.083-0.409 0.364-0.326 0.627 0.078 0.25 0.335 0.387 0.586 0.331l0.555 2.494c0.255 1.153 1.259 1.958 2.439 1.958h1.659c0.953 0 1.811-0.53 2.236-1.382l1.224-2.447c0.105-0.21 0.447-0.211 0.553 0l1.224 2.447c0.426 0.852 1.283 1.382 2.236 1.382h1.659c1.181 0 2.185-0.805 2.44-1.958l0.555-2.494c0.25 0.056 0.507-0.081 0.586-0.331 0.084-0.263-0.062-0.544-0.326-0.627zM13.605 16.171c-0.255 0.511-0.769 0.829-1.341 0.829h-1.659c-0.709 0-1.311-0.483-1.465-1.175l-0.561-2.525c0.903-0.196 1.895-0.3 2.921-0.3 1.377 0 2.379 0.214 3.34 0.708-0.003 0.006-0.008 0.010-0.011 0.016l-1.224 2.447zM22.86 15.825c-0.154 0.692-0.756 1.175-1.464 1.175h-1.659c-0.572 0-1.086-0.318-1.342-0.829l-1.224-2.448c-0.003-0.006-0.008-0.010-0.011-0.016 0.961-0.493 1.963-0.707 3.34-0.707 1.026 0 2.018 0.104 2.921 0.3l-0.561 2.525z"></path>
</svg>
