<svg version="1.1" xmlns="http://www.w3.org/2000/svg" width="32" height="32" viewBox="0 0 32 32">
<title>emoji-disappointed</title>
<path d="M16 4c-6.617 0-12 5.383-12 12s5.383 12 12 12 12-5.383 12-12-5.383-12-12-12zM16 27c-6.065 0-11-4.935-11-11s4.935-11 11-11 11 4.935 11 11-4.935 11-11 11z"></path>
<path d="M18.751 21.761c-1.737-1.010-3.766-1.010-5.503 0-0.239 0.139-0.32 0.445-0.181 0.684s0.445 0.32 0.684 0.181c1.427-0.83 3.070-0.83 4.497 0 0.079 0.046 0.166 0.068 0.251 0.068 0.172 0 0.34-0.089 0.433-0.249 0.139-0.239 0.058-0.545-0.181-0.684z"></path>
<path d="M13.892 15.811c0.172-0.216 0.136-0.531-0.081-0.702-0.216-0.172-0.53-0.135-0.702 0.081-0.704 0.887-1.653 1.52-2.745 1.83-0.266 0.075-0.42 0.352-0.344 0.617 0.062 0.22 0.262 0.363 0.48 0.363 0.045 0 0.091-0.006 0.137-0.019 1.294-0.367 2.42-1.118 3.255-2.17z"></path>
<path d="M21.637 17.019c-1.092-0.31-2.041-0.943-2.745-1.83-0.171-0.216-0.486-0.252-0.702-0.081s-0.253 0.486-0.081 0.702c0.835 1.052 1.961 1.803 3.255 2.17 0.045 0.014 0.091 0.020 0.136 0.020 0.218 0 0.418-0.144 0.481-0.364 0.076-0.265-0.079-0.542-0.344-0.617z"></path>
</svg>
