<svg version="1.1" xmlns="http://www.w3.org/2000/svg" width="32" height="32" viewBox="0 0 32 32">
<title>emoji-stuck-out-tounge-wink</title>
<path d="M20 13.5c0 0.828-0.448 1.5-1 1.5s-1-0.672-1-1.5c0-0.828 0.448-1.5 1-1.5s1 0.672 1 1.5z"></path>
<path d="M16 4c-6.617 0-12 5.383-12 12s5.383 12 12 12 12-5.383 12-12-5.383-12-12-12zM16 27c-6.065 0-11-4.935-11-11s4.935-11 11-11 11 4.935 11 11-4.935 11-11 11z"></path>
<path d="M21.131 18.117c-1.444 1.214-3.266 1.883-5.131 1.883s-3.687-0.669-5.131-1.883c-0.212-0.178-0.526-0.15-0.704 0.061s-0.151 0.527 0.061 0.705c1.101 0.925 2.399 1.561 3.774 1.88v2.237c0 1.103 0.897 2 2 2s2-0.897 2-2v-2.238c1.375-0.319 2.674-0.954 3.774-1.88 0.211-0.178 0.238-0.493 0.061-0.705-0.177-0.21-0.492-0.237-0.704-0.060zM17 23c0 0.551-0.448 1-1 1s-1-0.449-1-1v-2.064c0.332 0.038 0.665 0.064 1 0.064s0.668-0.026 1-0.064v2.064z"></path>
<path d="M11.342 12.974l3 1c0.053 0.018 0.106 0.026 0.158 0.026 0.209 0 0.404-0.133 0.475-0.342 0.087-0.262-0.055-0.545-0.316-0.632l-3-1c-0.263-0.088-0.545 0.055-0.633 0.316s0.054 0.545 0.316 0.632z"></path>
</svg>
