<svg version="1.1" xmlns="http://www.w3.org/2000/svg" width="32" height="32" viewBox="0 0 32 32">
<title>emoji-confounded</title>
<path d="M16 4c-6.617 0-12 5.383-12 12s5.383 12 12 12 12-5.383 12-12-5.383-12-12-12zM16 27c-6.065 0-11-4.935-11-11s4.935-11 11-11 11 4.935 11 11-4.935 11-11 11z"></path>
<path d="M18.854 20.146c-0.181-0.18-0.468-0.196-0.666-0.037l-2.188 1.751-2.188-1.75c-0.199-0.159-0.486-0.143-0.666 0.037l-2 2c-0.195 0.195-0.195 0.512 0 0.707s0.512 0.195 0.707 0l1.684-1.684 2.15 1.72c0.183 0.146 0.442 0.146 0.625 0l2.15-1.72 1.684 1.684c0.098 0.097 0.226 0.146 0.354 0.146s0.256-0.049 0.354-0.146c0.195-0.195 0.195-0.512 0-0.707l-2-2.001z"></path>
<path d="M13.994 16.58c0.030-0.184-0.045-0.369-0.194-0.48l-4-3c-0.221-0.166-0.534-0.121-0.7 0.1s-0.121 0.534 0.1 0.7l3.236 2.427-2.095 0.698c-0.262 0.087-0.403 0.37-0.316 0.632 0.071 0.211 0.266 0.343 0.475 0.343 0.052 0 0.105-0.008 0.158-0.026l3-1c0.176-0.058 0.306-0.21 0.336-0.394z"></path>
<path d="M22.2 13.1l-4 3c-0.149 0.112-0.224 0.297-0.194 0.48s0.159 0.335 0.335 0.394l3 1c0.054 0.018 0.107 0.026 0.159 0.026 0.209 0 0.404-0.133 0.475-0.342 0.087-0.262-0.055-0.545-0.316-0.632l-2.095-0.698 3.236-2.428c0.221-0.166 0.266-0.479 0.1-0.7s-0.478-0.266-0.7-0.1z"></path>
<path d="M20.408 10.992c0.031 0.005 0.062 0.008 0.092 0.008 0.236 0 0.446-0.168 0.491-0.408 0.051-0.271-0.128-0.533-0.399-0.583-1.113-0.208-2.086-0.855-2.669-1.776-0.148-0.233-0.457-0.302-0.69-0.155s-0.303 0.457-0.155 0.69c0.732 1.154 1.945 1.965 3.33 2.224z"></path>
<path d="M11.5 11c0.030 0 0.061-0.003 0.092-0.009 1.385-0.258 2.599-1.069 3.331-2.224 0.148-0.233 0.079-0.542-0.155-0.69s-0.542-0.079-0.69 0.155c-0.583 0.921-1.556 1.568-2.669 1.776-0.271 0.051-0.45 0.312-0.399 0.583 0.044 0.241 0.254 0.409 0.49 0.409z"></path>
</svg>
