<svg version="1.1" xmlns="http://www.w3.org/2000/svg" width="32" height="32" viewBox="0 0 32 32">
<title>emoji-worry</title>
<path d="M14 15.5c0 0.828-0.448 1.5-1 1.5s-1-0.672-1-1.5c0-0.828 0.448-1.5 1-1.5s1 0.672 1 1.5z"></path>
<path d="M20 15.5c0 0.828-0.448 1.5-1 1.5s-1-0.672-1-1.5c0-0.828 0.448-1.5 1-1.5s1 0.672 1 1.5z"></path>
<path d="M16 4c-6.617 0-12 5.383-12 12s5.383 12 12 12 12-5.383 12-12-5.383-12-12-12zM16 27c-6.065 0-11-4.935-11-11s4.935-11 11-11 11 4.935 11 11-4.935 11-11 11z"></path>
<path d="M14 10.5c0-0.276-0.224-0.5-0.5-0.5-1.726 0-3.32 0.801-4.376 2.199-0.167 0.22-0.123 0.534 0.097 0.7 0.091 0.068 0.196 0.101 0.301 0.101 0.151 0 0.301-0.068 0.399-0.199 0.866-1.144 2.17-1.801 3.579-1.801 0.276 0 0.5-0.224 0.5-0.5z"></path>
<path d="M18.5 10c-0.276 0-0.5 0.224-0.5 0.5s0.224 0.5 0.5 0.5c1.409 0 2.713 0.657 3.578 1.801 0.099 0.131 0.248 0.199 0.4 0.199 0.105 0 0.211-0.033 0.301-0.101 0.22-0.167 0.264-0.48 0.097-0.7-1.056-1.398-2.65-2.199-4.376-2.199z"></path>
<path d="M13.332 21.151c-0.193 0.198-0.188 0.514 0.010 0.707 0.197 0.192 0.514 0.188 0.707-0.010 1.064-1.094 2.838-1.094 3.902 0 0.098 0.101 0.229 0.152 0.359 0.152 0.126 0 0.252-0.047 0.349-0.142 0.198-0.193 0.203-0.509 0.010-0.707-1.445-1.485-3.893-1.485-5.337 0z"></path>
</svg>
