<svg version="1.1" xmlns="http://www.w3.org/2000/svg" width="32" height="32" viewBox="0 0 32 32">
<title>emoji-smirk</title>
<path d="M19.408 10.992c1.113 0.208 2.086 0.855 2.669 1.776 0.096 0.15 0.258 0.232 0.423 0.232 0.091 0 0.184-0.025 0.267-0.078 0.233-0.148 0.303-0.457 0.155-0.69-0.732-1.155-1.946-1.966-3.331-2.224-0.273-0.051-0.533 0.129-0.583 0.4s0.129 0.533 0.4 0.584z"></path>
<path d="M9.232 12.922c0.083 0.053 0.176 0.078 0.268 0.078 0.166 0 0.328-0.082 0.423-0.232 0.583-0.921 1.556-1.568 2.669-1.776 0.271-0.051 0.45-0.312 0.399-0.583s-0.311-0.451-0.583-0.4c-1.385 0.258-2.599 1.069-3.331 2.224-0.147 0.233-0.078 0.542 0.155 0.689z"></path>
<path d="M16 4c-6.617 0-12 5.383-12 12s5.383 12 12 12 12-5.383 12-12-5.383-12-12-12zM16 27c-6.065 0-11-4.935-11-11s4.935-11 11-11 11 4.935 11 11-4.935 11-11 11z"></path>
<path d="M22.5 15h-5c-0.276 0-0.5 0.224-0.5 0.5s0.224 0.5 0.5 0.5h2.562c-0.038 0.157-0.062 0.324-0.062 0.5 0 0.828 0.448 1.5 1 1.5s1-0.672 1-1.5c0-0.176-0.024-0.343-0.061-0.5h0.561c0.276 0 0.5-0.224 0.5-0.5s-0.224-0.5-0.5-0.5z"></path>
<path d="M14 16.5c0-0.176-0.024-0.343-0.061-0.5h0.561c0.276 0 0.5-0.224 0.5-0.5s-0.224-0.5-0.5-0.5h-5c-0.276 0-0.5 0.224-0.5 0.5s0.224 0.5 0.5 0.5h2.562c-0.038 0.157-0.062 0.324-0.062 0.5 0 0.828 0.448 1.5 1 1.5s1-0.672 1-1.5z"></path>
<path d="M21.584 20.199c-1.813 2.408-4.975 3.446-7.915 2.383-0.26-0.094-0.546 0.040-0.64 0.3s0.041 0.546 0.3 0.64c0.877 0.317 1.775 0.478 2.671 0.478 2.526 0 4.853-1.166 6.383-3.199 0.166-0.221 0.122-0.534-0.099-0.7-0.221-0.167-0.534-0.122-0.7 0.098z"></path>
</svg>
