<svg version="1.1" xmlns="http://www.w3.org/2000/svg" width="32" height="32" viewBox="0 0 32 32">
<title>emoji-fearful</title>
<path d="M14 15.5c0 0.828-0.448 1.5-1 1.5s-1-0.672-1-1.5c0-0.828 0.448-1.5 1-1.5s1 0.672 1 1.5z"></path>
<path d="M20 15.5c0 0.828-0.448 1.5-1 1.5s-1-0.672-1-1.5c0-0.828 0.448-1.5 1-1.5s1 0.672 1 1.5z"></path>
<path d="M16 4c-6.617 0-12 5.383-12 12s5.383 12 12 12 12-5.383 12-12-5.383-12-12-12zM16 27c-6.065 0-11-4.935-11-11s4.935-11 11-11 11 4.935 11 11-4.935 11-11 11z"></path>
<path d="M16 19c-1.669 0-3.194 0.924-3.886 2.353-0.193 0.4-0.137 0.861 0.146 1.205 0.303 0.368 0.806 0.525 1.282 0.398 1.595-0.424 3.32-0.424 4.915 0 0.109 0.029 0.22 0.043 0.33 0.043 0.366 0 0.719-0.158 0.953-0.441 0.283-0.343 0.339-0.805 0.146-1.204-0.692-1.43-2.217-2.354-3.886-2.354zM18.969 21.921c-0.044 0.054-0.134 0.1-0.254 0.068-1.763-0.468-3.666-0.468-5.429 0-0.119 0.032-0.209-0.015-0.254-0.068s-0.033-0.098-0.017-0.133c0.525-1.086 1.697-1.788 2.985-1.788s2.46 0.702 2.985 1.789c0.017 0.035 0.029 0.078-0.016 0.132z"></path>
<path d="M14 10.5c0-0.276-0.224-0.5-0.5-0.5-1.726 0-3.32 0.801-4.376 2.199-0.167 0.22-0.123 0.534 0.097 0.7 0.091 0.068 0.196 0.101 0.301 0.101 0.151 0 0.301-0.068 0.399-0.199 0.866-1.144 2.17-1.801 3.579-1.801 0.276 0 0.5-0.224 0.5-0.5z"></path>
<path d="M18.5 10c-0.276 0-0.5 0.224-0.5 0.5s0.224 0.5 0.5 0.5c1.409 0 2.713 0.657 3.578 1.801 0.099 0.131 0.248 0.199 0.4 0.199 0.105 0 0.211-0.033 0.301-0.101 0.22-0.167 0.264-0.48 0.097-0.7-1.056-1.398-2.65-2.199-4.376-2.199z"></path>
</svg>
