<svg version="1.1" xmlns="http://www.w3.org/2000/svg" width="32" height="32" viewBox="0 0 32 32">
<title>emoji-mean</title>
<path d="M14 15.5c0 0.828-0.448 1.5-1 1.5s-1-0.672-1-1.5c0-0.828 0.448-1.5 1-1.5s1 0.672 1 1.5z"></path>
<path d="M20 15.5c0 0.828-0.448 1.5-1 1.5s-1-0.672-1-1.5c0-0.828 0.448-1.5 1-1.5s1 0.672 1 1.5z"></path>
<path d="M16 4c-6.617 0-12 5.383-12 12s5.383 12 12 12 12-5.383 12-12-5.383-12-12-12zM16 27c-6.065 0-11-4.935-11-11s4.935-11 11-11 11 4.935 11 11-4.935 11-11 11z"></path>
<path d="M22.118 18.037c-0.256-0.104-0.547 0.020-0.651 0.276-0.907 2.239-3.054 3.687-5.467 3.687s-4.56-1.448-5.467-3.688c-0.104-0.256-0.396-0.379-0.651-0.276s-0.379 0.395-0.275 0.651c1.060 2.62 3.57 4.313 6.393 4.313s5.333-1.693 6.394-4.312c0.104-0.256-0.020-0.548-0.276-0.651z"></path>
<path d="M17.5 13c0.125 0 0.25-0.046 0.347-0.14 0.771-0.741 1.729-1.263 2.769-1.509 0.269-0.064 0.435-0.333 0.371-0.602s-0.332-0.435-0.602-0.371c-1.214 0.287-2.331 0.896-3.231 1.762-0.199 0.191-0.205 0.508-0.014 0.707 0.098 0.102 0.229 0.153 0.36 0.153z"></path>
<path d="M11.385 11.351c1.040 0.246 1.997 0.768 2.769 1.509 0.096 0.094 0.221 0.14 0.346 0.14 0.131 0 0.263-0.051 0.36-0.154 0.191-0.199 0.186-0.516-0.014-0.707-0.9-0.865-2.018-1.474-3.231-1.762-0.269-0.064-0.538 0.103-0.602 0.371s0.103 0.539 0.372 0.603z"></path>
</svg>
