<svg version="1.1" xmlns="http://www.w3.org/2000/svg" width="32" height="32" viewBox="0 0 32 32">
<title>emoji-sleeping</title>
<path d="M13.009 15.407c-0.197 1.035-0.666 1.593-1.009 1.593s-0.812-0.558-1.009-1.593c-0.051-0.271-0.312-0.45-0.584-0.398s-0.45 0.313-0.398 0.584c0.277 1.462 1.058 2.407 1.991 2.407s1.714-0.945 1.991-2.407c0.052-0.271-0.127-0.533-0.398-0.584-0.273-0.052-0.533 0.127-0.584 0.398z"></path>
<path d="M20 17c-0.343 0-0.812-0.558-1.009-1.593-0.052-0.271-0.312-0.45-0.584-0.398s-0.45 0.313-0.398 0.584c0.277 1.462 1.058 2.407 1.991 2.407s1.714-0.945 1.991-2.407c0.052-0.271-0.127-0.533-0.398-0.584-0.273-0.051-0.533 0.127-0.584 0.398-0.197 1.035-0.666 1.593-1.009 1.593z"></path>
<path d="M16 20c-1.103 0-2 0.897-2 2s0.897 2 2 2 2-0.897 2-2-0.897-2-2-2zM16 23c-0.552 0-1-0.449-1-1s0.448-1 1-1 1 0.449 1 1-0.448 1-1 1z"></path>
<path d="M22.964 9.691c0.077 0.187 0.26 0.309 0.462 0.309h4.074c0.276 0 0.5-0.224 0.5-0.5s-0.224-0.5-0.5-0.5h-2.867l3.146-3.146c0.143-0.143 0.186-0.358 0.108-0.545s-0.259-0.309-0.461-0.309h-3.926c-0.276 0-0.5 0.224-0.5 0.5s0.224 0.5 0.5 0.5h2.719l-3.146 3.146c-0.144 0.143-0.187 0.359-0.109 0.545z"></path>
<path d="M20.926 11.5c0-0.276-0.224-0.5-0.5-0.5h-1.809l2.11-2.15c0.141-0.144 0.183-0.358 0.104-0.544-0.077-0.185-0.259-0.306-0.46-0.306h-2.891c-0.276 0-0.5 0.224-0.5 0.5s0.224 0.5 0.5 0.5h1.699l-2.11 2.15c-0.141 0.144-0.182 0.358-0.104 0.544s0.259 0.306 0.461 0.306h3c0.276 0 0.5-0.224 0.5-0.5z"></path>
<path d="M26.801 12.024c-0.263 0.084-0.408 0.366-0.324 0.629 0.347 1.085 0.523 2.211 0.523 3.347 0 6.065-4.935 11-11 11s-11-4.935-11-11 4.935-11 11-11c1.472 0 2.919 0.299 4.304 0.89 0.254 0.108 0.548-0.010 0.656-0.264s-0.010-0.548-0.264-0.656c-1.508-0.644-3.089-0.97-4.696-0.97-6.617 0-12 5.383-12 12s5.383 12 12 12 12-5.383 12-12c0-1.239-0.192-2.468-0.57-3.652-0.084-0.263-0.367-0.408-0.629-0.324z"></path>
</svg>
