<svg version="1.1" xmlns="http://www.w3.org/2000/svg" width="32" height="32" viewBox="0 0 32 32">
<title>emoji-cringe</title>
<path d="M14 13.5c0 0.828-0.448 1.5-1 1.5s-1-0.672-1-1.5c0-0.828 0.448-1.5 1-1.5s1 0.672 1 1.5z"></path>
<path d="M20 13.5c0 0.828-0.448 1.5-1 1.5s-1-0.672-1-1.5c0-0.828 0.448-1.5 1-1.5s1 0.672 1 1.5z"></path>
<path d="M16 4c-6.617 0-12 5.383-12 12s5.383 12 12 12 12-5.383 12-12-5.383-12-12-12zM16 27c-6.065 0-11-4.935-11-11s4.935-11 11-11 11 4.935 11 11-4.935 11-11 11z"></path>
<path d="M17.75 18h-3.5c-1.93 0-3.5 1.57-3.5 3.5 0 0.276 0.224 0.5 0.5 0.5h9.5c0.276 0 0.5-0.224 0.5-0.5 0-1.93-1.57-3.5-3.5-3.5zM14.97 19h2v2h-2v-2zM13.97 19.025v1.975h-2.17c0.214-1.049 1.090-1.853 2.17-1.975zM17.97 21v-1.981c1.107 0.098 2.012 0.912 2.23 1.981h-2.23z"></path>
</svg>
