<svg version="1.1" xmlns="http://www.w3.org/2000/svg" width="32" height="32" viewBox="0 0 32 32">
<title>emoji-nerd</title>
<path d="M12 14.5c0 0.828-0.448 1.5-1 1.5s-1-0.672-1-1.5c0-0.828 0.448-1.5 1-1.5s1 0.672 1 1.5z"></path>
<path d="M22 14.5c0 0.828-0.448 1.5-1 1.5s-1-0.672-1-1.5c0-0.828 0.448-1.5 1-1.5s1 0.672 1 1.5z"></path>
<path d="M27.5 13h-0.776c-0.621-1.742-2.271-3-4.224-3h-1c-1.953 0-3.603 1.258-4.224 3h-2.553c-0.621-1.742-2.271-3-4.224-3h-1c-1.953 0-3.603 1.258-4.224 3h-0.775c-0.276 0-0.5 0.224-0.5 0.5s0.224 0.5 0.5 0.5h0.551c-0.019 0.166-0.051 0.329-0.051 0.5 0 2.481 2.019 4.5 4.5 4.5h1c2.481 0 4.5-2.019 4.5-4.5 0-0.171-0.032-0.334-0.051-0.5h2.102c-0.019 0.166-0.051 0.329-0.051 0.5 0 2.481 2.019 4.5 4.5 4.5h1c2.481 0 4.5-2.019 4.5-4.5 0-0.171-0.032-0.334-0.051-0.5h0.551c0.276 0 0.5-0.224 0.5-0.5s-0.224-0.5-0.5-0.5zM10.5 18h-1c-1.93 0-3.5-1.57-3.5-3.5s1.57-3.5 3.5-3.5h1c1.93 0 3.5 1.57 3.5 3.5s-1.57 3.5-3.5 3.5zM22.5 18h-1c-1.93 0-3.5-1.57-3.5-3.5s1.57-3.5 3.5-3.5h1c1.93 0 3.5 1.57 3.5 3.5s-1.57 3.5-3.5 3.5z"></path>
<path d="M15 25h3c0.552 0 1-0.449 1-1v-1.753c0.674-0.353 1.304-0.818 1.861-1.401 0.191-0.2 0.184-0.516-0.016-0.707s-0.517-0.184-0.707 0.016c-1.137 1.19-2.607 1.845-4.138 1.845s-3.001-0.655-4.139-1.846c-0.19-0.2-0.508-0.207-0.707-0.016s-0.207 0.507-0.016 0.707c0.825 0.863 1.805 1.485 2.861 1.832v1.323c0.001 0.551 0.449 1 1.001 1zM18 24h-1v-1.088c0.339-0.054 0.674-0.127 1-0.235v1.323zM16 24h-1v-1.088c0.33 0.053 0.663 0.088 1 0.088v1z"></path>
<path d="M27.088 19.024c-0.263-0.084-0.544 0.061-0.628 0.324-1.463 4.577-5.666 7.652-10.46 7.652s-8.997-3.075-10.46-7.652c-0.084-0.263-0.365-0.408-0.628-0.324s-0.408 0.365-0.324 0.628c1.595 4.993 6.182 8.348 11.412 8.348s9.817-3.355 11.413-8.348c0.084-0.263-0.061-0.544-0.325-0.628z"></path>
<path d="M7.7 8.827c2.101-2.432 5.126-3.827 8.3-3.827s6.199 1.395 8.3 3.827c0.099 0.114 0.239 0.173 0.379 0.173 0.116 0 0.232-0.040 0.327-0.122 0.209-0.181 0.231-0.496 0.051-0.705-2.291-2.652-5.592-4.173-9.057-4.173s-6.766 1.521-9.057 4.173c-0.18 0.209-0.158 0.525 0.051 0.705s0.525 0.158 0.706-0.051z"></path>
</svg>
