<svg version="1.1" xmlns="http://www.w3.org/2000/svg" width="32" height="32" viewBox="0 0 32 32">
<title>emoji-big-frown</title>
<path d="M14 14.5c0 0.828-0.448 1.5-1 1.5s-1-0.672-1-1.5c0-0.828 0.448-1.5 1-1.5s1 0.672 1 1.5z"></path>
<path d="M20 14.5c0 0.828-0.448 1.5-1 1.5s-1-0.672-1-1.5c0-0.828 0.448-1.5 1-1.5s1 0.672 1 1.5z"></path>
<path d="M16 4c-6.617 0-12 5.383-12 12s5.383 12 12 12 12-5.383 12-12-5.383-12-12-12zM16 27c-6.065 0-11-4.935-11-11s4.935-11 11-11 11 4.935 11 11-4.935 11-11 11z"></path>
<path d="M16 18c-1.413 0-2.721 0.935-3.781 2.705-0.283 0.473-0.291 1.063-0.020 1.542 0.268 0.471 0.749 0.753 1.288 0.753h5.026c0.539 0 1.020-0.282 1.287-0.754 0.271-0.478 0.264-1.069-0.020-1.542-1.059-1.769-2.367-2.704-3.78-2.704zM18.931 21.753c-0.042 0.075-0.167 0.247-0.418 0.247h-5.026c-0.25 0-0.375-0.172-0.417-0.247-0.095-0.168-0.092-0.368 0.008-0.535 0.856-1.43 1.894-2.218 2.922-2.218s2.066 0.788 2.923 2.218c0.1 0.167 0.102 0.367 0.008 0.535z"></path>
</svg>
