<svg version="1.1" xmlns="http://www.w3.org/2000/svg" width="32" height="32" viewBox="0 0 32 32">
<title>emoji-tired</title>
<path d="M13.962 13.309c-0.077-0.187-0.26-0.309-0.462-0.309h-4c-0.276 0-0.5 0.224-0.5 0.5s0.224 0.5 0.5 0.5h2.793l-2.146 2.146c-0.195 0.195-0.195 0.512 0 0.707 0.097 0.098 0.225 0.147 0.353 0.147s0.256-0.049 0.354-0.146l3-3c0.143-0.143 0.185-0.359 0.108-0.545z"></path>
<path d="M22.5 13h-4c-0.202 0-0.385 0.122-0.462 0.309s-0.035 0.402 0.108 0.545l3 3c0.098 0.097 0.226 0.146 0.354 0.146s0.256-0.049 0.354-0.146c0.195-0.195 0.195-0.512 0-0.707l-2.147-2.147h2.793c0.276 0 0.5-0.224 0.5-0.5s-0.224-0.5-0.5-0.5z"></path>
<path d="M16 4c-6.617 0-12 5.383-12 12s5.383 12 12 12 12-5.383 12-12-5.383-12-12-12zM16 27c-6.065 0-11-4.935-11-11s4.935-11 11-11 11 4.935 11 11-4.935 11-11 11z"></path>
<path d="M20.408 10.992c0.031 0.005 0.062 0.008 0.092 0.008 0.236 0 0.446-0.168 0.491-0.408 0.051-0.271-0.128-0.533-0.399-0.583-1.113-0.208-2.086-0.855-2.669-1.776-0.148-0.233-0.457-0.303-0.69-0.155s-0.303 0.457-0.155 0.69c0.732 1.155 1.945 1.965 3.33 2.224z"></path>
<path d="M11.5 11c0.030 0 0.061-0.003 0.092-0.009 1.385-0.258 2.599-1.069 3.331-2.224 0.148-0.233 0.079-0.542-0.155-0.69s-0.542-0.079-0.69 0.155c-0.583 0.921-1.556 1.568-2.669 1.776-0.271 0.051-0.45 0.312-0.399 0.583 0.043 0.241 0.254 0.409 0.49 0.409z"></path>
<path d="M16 18c-2.243 0-4.245 1.754-4.981 4.364-0.042 0.151-0.012 0.313 0.083 0.438 0.094 0.125 0.242 0.198 0.398 0.198h9c0.156 0 0.304-0.073 0.398-0.198s0.125-0.287 0.083-0.438c-0.736-2.61-2.738-4.364-4.981-4.364zM12.197 22c0.726-1.819 2.194-3 3.803-3s3.078 1.181 3.803 3h-7.606z"></path>
</svg>
