<svg version="1.1" xmlns="http://www.w3.org/2000/svg" width="32" height="32" viewBox="0 0 32 32">
<title>emoji-lol</title>
<path d="M18.407 14.991c0.272 0.052 0.533-0.127 0.584-0.398 0.197-1.035 0.666-1.593 1.009-1.593s0.812 0.558 1.009 1.593c0.045 0.24 0.255 0.407 0.491 0.407 0.031 0 0.062-0.003 0.093-0.009 0.271-0.051 0.45-0.313 0.398-0.584-0.277-1.462-1.058-2.407-1.991-2.407s-1.714 0.945-1.991 2.407c-0.052 0.271 0.127 0.533 0.398 0.584z"></path>
<path d="M10.009 14.407c-0.052 0.271 0.127 0.533 0.398 0.584 0.273 0.052 0.533-0.127 0.584-0.398 0.197-1.035 0.666-1.593 1.009-1.593s0.812 0.558 1.009 1.593c0.045 0.24 0.255 0.407 0.491 0.407 0.031 0 0.062-0.003 0.093-0.009 0.271-0.051 0.45-0.313 0.398-0.584-0.277-1.462-1.058-2.407-1.991-2.407s-1.714 0.945-1.991 2.407z"></path>
<path d="M22.478 17h-12.956c-0.14 0-0.272 0.058-0.367 0.161s-0.142 0.24-0.131 0.379c0.284 3.622 3.348 6.46 6.976 6.46s6.692-2.838 6.976-6.461c0.011-0.139-0.037-0.276-0.131-0.379s-0.228-0.16-0.367-0.16zM21.912 18c-0.059 0.345-0.15 0.678-0.265 1h-11.294c-0.115-0.322-0.206-0.655-0.265-1h11.824zM16 23c-2.187 0-4.133-1.205-5.182-3h10.363c-1.048 1.795-2.994 3-5.181 3z"></path>
<path d="M11.5 11c0.276 0 0.5-0.224 0.5-0.5s-0.224-0.5-0.5-0.5c-1.93 0-3.5 1.57-3.5 3.5 0 0.276 0.224 0.5 0.5 0.5s0.5-0.224 0.5-0.5c0-1.379 1.122-2.5 2.5-2.5z"></path>
<path d="M20.5 10c-0.276 0-0.5 0.224-0.5 0.5s0.224 0.5 0.5 0.5c1.378 0 2.5 1.121 2.5 2.5 0 0.276 0.224 0.5 0.5 0.5s0.5-0.224 0.5-0.5c0-1.93-1.57-3.5-3.5-3.5z"></path>
<path d="M28.613 16.607l-0.631-0.252c0.006-0.119 0.018-0.235 0.018-0.355 0-6.617-5.383-12-12-12s-12 5.383-12 12c0 0.12 0.012 0.236 0.018 0.354l-0.631 0.252c-0.843 0.338-1.387 1.142-1.387 2.050v0.137c0 0.589 0.229 1.144 0.646 1.561s0.971 0.646 1.561 0.646h0.137c0.249 0 0.485-0.048 0.711-0.125 1.874 4.19 6.066 7.125 10.945 7.125s9.071-2.935 10.945-7.125c0.225 0.077 0.462 0.125 0.711 0.125h0.137c0.59 0 1.144-0.23 1.561-0.647s0.646-0.971 0.646-1.56v-0.137c0-0.908-0.544-1.712-1.387-2.049zM4.207 20c-0.318 0-0.629-0.129-0.854-0.354-0.228-0.228-0.353-0.531-0.353-0.853v-0.137c0-0.496 0.298-0.936 0.759-1.121l2.844-1.137-1.138 2.844c-0.185 0.46-0.624 0.758-1.121 0.758h-0.137zM16 27c-4.528 0-8.408-2.758-10.092-6.676 0.199-0.204 0.375-0.434 0.486-0.711l1.571-3.927c0.074-0.186 0.031-0.398-0.111-0.539s-0.354-0.185-0.539-0.111l-2.312 0.925c0.020-6.047 4.945-10.961 10.997-10.961s10.977 4.914 10.998 10.961l-2.312-0.925c-0.186-0.074-0.397-0.031-0.539 0.111-0.142 0.141-0.185 0.354-0.111 0.539l1.571 3.927c0.111 0.278 0.287 0.507 0.486 0.711-1.685 3.917-5.565 6.676-10.093 6.676zM29 18.793c0 0.322-0.125 0.625-0.354 0.854-0.224 0.224-0.535 0.353-0.853 0.353h-0.137c-0.497 0-0.936-0.298-1.121-0.759l-1.138-2.844 2.844 1.137c0.461 0.185 0.759 0.625 0.759 1.122v0.137z"></path>
</svg>
