<svg version="1.1" xmlns="http://www.w3.org/2000/svg" width="32" height="32" viewBox="0 0 32 32">
<title>emoji-open-mouth</title>
<path d="M14 12.5c0 0.828-0.448 1.5-1 1.5s-1-0.672-1-1.5c0-0.828 0.448-1.5 1-1.5s1 0.672 1 1.5z"></path>
<path d="M20 12.5c0 0.828-0.448 1.5-1 1.5s-1-0.672-1-1.5c0-0.828 0.448-1.5 1-1.5s1 0.672 1 1.5z"></path>
<path d="M16 4c-6.617 0-12 5.383-12 12s5.383 12 12 12 12-5.383 12-12-5.383-12-12-12zM16 27c-6.065 0-11-4.935-11-11s4.935-11 11-11 11 4.935 11 11-4.935 11-11 11z"></path>
<path d="M16 17c-2.062 0-3.927 1.193-4.865 3.113-0.202 0.414-0.177 0.895 0.068 1.287 0.235 0.376 0.633 0.6 1.066 0.6h7.462c0.433 0 0.832-0.224 1.066-0.6 0.245-0.392 0.27-0.873 0.068-1.287-0.938-1.92-2.803-3.113-4.865-3.113zM19.949 20.87c-0.030 0.048-0.099 0.13-0.218 0.13h-7.462c-0.12 0-0.188-0.081-0.218-0.13-0.061-0.097-0.067-0.216-0.018-0.318 0.77-1.574 2.289-2.552 3.967-2.552s3.197 0.978 3.967 2.552c0.050 0.102 0.043 0.221-0.018 0.318z"></path>
</svg>
