<svg version="1.1" xmlns="http://www.w3.org/2000/svg" width="32" height="32" viewBox="0 0 32 32">
<title>emoji-wink</title>
<path d="M12.991 10.408c-0.050-0.271-0.312-0.451-0.583-0.4-1.385 0.258-2.599 1.069-3.331 2.224-0.148 0.233-0.079 0.542 0.155 0.69 0.083 0.053 0.176 0.078 0.268 0.078 0.166 0 0.328-0.082 0.423-0.232 0.583-0.921 1.556-1.568 2.669-1.776 0.271-0.051 0.45-0.312 0.399-0.584z"></path>
<path d="M16 4c-6.617 0-12 5.383-12 12s5.383 12 12 12 12-5.383 12-12-5.383-12-12-12zM16 27c-6.065 0-11-4.935-11-11s4.935-11 11-11 11 4.935 11 11-4.935 11-11 11z"></path>
<path d="M14 16.5c0 0.828-0.448 1.5-1 1.5s-1-0.672-1-1.5c0-0.828 0.448-1.5 1-1.5s1 0.672 1 1.5z"></path>
<path d="M22.753 13.083c-1.040-0.688-2.59-1.083-4.253-1.083-0.276 0-0.5 0.224-0.5 0.5s0.224 0.5 0.5 0.5c1.45 0 2.834 0.343 3.701 0.917 0.085 0.056 0.181 0.083 0.276 0.083 0.162 0 0.321-0.079 0.418-0.224 0.152-0.23 0.088-0.541-0.142-0.693z"></path>
<path d="M18.5 21.111c-1.443 1.163-3.557 1.163-5 0-0.214-0.173-0.529-0.14-0.703 0.075s-0.14 0.53 0.076 0.703c0.9 0.727 1.982 1.111 3.127 1.111s2.227-0.384 3.127-1.111c0.215-0.173 0.249-0.488 0.076-0.703-0.174-0.215-0.489-0.249-0.703-0.075z"></path>
<path d="M20 15c-0.877 0-1.668 0.532-1.968 1.323-0.098 0.258 0.032 0.547 0.291 0.645 0.258 0.098 0.547-0.032 0.645-0.29 0.153-0.406 0.568-0.678 1.032-0.678s0.879 0.272 1.032 0.677c0.076 0.2 0.266 0.323 0.468 0.323 0.059 0 0.119-0.010 0.177-0.033 0.258-0.098 0.388-0.386 0.291-0.645-0.3-0.79-1.091-1.322-1.968-1.322z"></path>
</svg>
