<svg version="1.1" xmlns="http://www.w3.org/2000/svg" width="32" height="32" viewBox="0 0 32 32">
<title>emoji-slight-frown</title>
<path d="M16 4c-6.617 0-12 5.383-12 12s5.383 12 12 12 12-5.383 12-12-5.383-12-12-12zM16 27c-6.065 0-11-4.935-11-11s4.935-11 11-11 11 4.935 11 11-4.935 11-11 11z"></path>
<path d="M14 13.5c0 0.828-0.448 1.5-1 1.5s-1-0.672-1-1.5c0-0.828 0.448-1.5 1-1.5s1 0.672 1 1.5z"></path>
<path d="M20 13.5c0 0.828-0.448 1.5-1 1.5s-1-0.672-1-1.5c0-0.828 0.448-1.5 1-1.5s1 0.672 1 1.5z"></path>
<path d="M12.873 20.111c-0.215 0.173-0.249 0.488-0.076 0.703s0.488 0.249 0.703 0.075c1.443-1.163 3.557-1.163 5 0 0.092 0.075 0.203 0.111 0.313 0.111 0.146 0 0.291-0.064 0.39-0.186 0.173-0.215 0.14-0.53-0.076-0.703-1.802-1.454-4.452-1.454-6.254 0z"></path>
</svg>
