<svg version="1.1" xmlns="http://www.w3.org/2000/svg" width="32" height="32" viewBox="0 0 32 32">
<title>emoji-disappointed-relieved</title>
<path d="M14 16.5c0 0.828-0.448 1.5-1 1.5s-1-0.672-1-1.5c0-0.828 0.448-1.5 1-1.5s1 0.672 1 1.5z"></path>
<path d="M20 16.5c0 0.828-0.448 1.5-1 1.5s-1-0.672-1-1.5c0-0.828 0.448-1.5 1-1.5s1 0.672 1 1.5z"></path>
<path d="M13.332 22.151c-0.193 0.198-0.188 0.515 0.010 0.707 0.197 0.192 0.515 0.188 0.707-0.010 1.064-1.094 2.838-1.094 3.902 0 0.098 0.101 0.229 0.152 0.359 0.152 0.126 0 0.252-0.047 0.349-0.142 0.198-0.193 0.203-0.509 0.010-0.707-1.445-1.485-3.893-1.485-5.337 0z"></path>
<path d="M11.86 11.337c-0.191-0.199-0.508-0.205-0.707-0.014-0.771 0.741-1.729 1.263-2.769 1.509-0.269 0.064-0.435 0.333-0.371 0.602 0.054 0.23 0.26 0.385 0.486 0.385 0.038 0 0.077-0.004 0.116-0.014 1.213-0.287 2.331-0.896 3.231-1.761 0.2-0.191 0.206-0.508 0.014-0.707z"></path>
<path d="M23.5 13.819c0.226 0 0.432-0.155 0.486-0.385 0.063-0.269-0.103-0.538-0.371-0.602-1.040-0.246-1.998-0.768-2.769-1.509-0.199-0.191-0.516-0.185-0.707 0.014s-0.186 0.516 0.014 0.707c0.9 0.865 2.018 1.474 3.231 1.762 0.040 0.009 0.078 0.013 0.116 0.013z"></path>
<path d="M7.1 16.2c-0.126 0.169-3.1 4.169-3.1 7.3 0 1.93 1.57 3.5 3.5 3.5s3.5-1.57 3.5-3.5c0-3.131-2.974-7.131-3.1-7.3-0.189-0.252-0.611-0.252-0.8 0zM7.5 26c-1.378 0-2.5-1.122-2.5-2.5 0-2.155 1.705-4.944 2.5-6.128 0.796 1.183 2.5 3.97 2.5 6.128 0 1.378-1.122 2.5-2.5 2.5z"></path>
<path d="M16 4c-6.445 0-11.705 5.048-11.975 11.493-0.012 0.276 0.203 0.509 0.479 0.521 0.278 0.012 0.509-0.203 0.521-0.479 0.246-5.908 5.068-10.535 10.975-10.535 6.065 0 11 4.935 11 11s-4.935 11-11 11c-1.156 0-2.309-0.185-3.425-0.551-0.262-0.086-0.545 0.057-0.63 0.32-0.086 0.262 0.057 0.545 0.32 0.631 1.216 0.398 2.473 0.6 3.735 0.6 6.617 0 12-5.383 12-12s-5.383-12-12-12z"></path>
</svg>
