<svg version="1.1" xmlns="http://www.w3.org/2000/svg" width="32" height="32" viewBox="0 0 32 32">
<title>emoji-sleepy</title>
<path d="M13.968 15.677c0.098-0.258-0.032-0.547-0.291-0.645s-0.547 0.032-0.645 0.29c-0.153 0.406-0.568 0.678-1.032 0.678s-0.879-0.272-1.032-0.677c-0.098-0.258-0.387-0.388-0.645-0.29s-0.388 0.386-0.291 0.645c0.3 0.79 1.091 1.322 1.968 1.322s1.668-0.532 1.968-1.323z"></path>
<path d="M21.677 15.032c-0.258-0.098-0.547 0.032-0.645 0.29-0.153 0.406-0.568 0.678-1.032 0.678s-0.879-0.272-1.032-0.677c-0.098-0.258-0.387-0.388-0.645-0.29s-0.388 0.386-0.291 0.645c0.3 0.79 1.091 1.322 1.968 1.322s1.668-0.532 1.968-1.323c0.097-0.258-0.032-0.547-0.291-0.645z"></path>
<path d="M16 4c-6.617 0-12 5.383-12 12s5.383 12 12 12 12-5.383 12-12-5.383-12-12-12zM16 27c-6.065 0-11-4.935-11-11s4.935-11 11-11 11 4.935 11 11-4.935 11-11 11z"></path>
<path d="M19.592 10.008c-0.273-0.051-0.533 0.129-0.583 0.4-0.051 0.271 0.128 0.533 0.399 0.583 1.113 0.208 2.086 0.855 2.669 1.776 0.096 0.151 0.258 0.233 0.423 0.233 0.091 0 0.184-0.025 0.267-0.078 0.233-0.148 0.303-0.457 0.155-0.69-0.732-1.155-1.945-1.965-3.33-2.224z"></path>
<path d="M12.592 10.992c0.271-0.051 0.45-0.312 0.399-0.583s-0.311-0.451-0.583-0.4c-1.385 0.258-2.599 1.069-3.331 2.224-0.148 0.233-0.079 0.542 0.155 0.69 0.083 0.052 0.176 0.077 0.268 0.077 0.166 0 0.328-0.082 0.423-0.232 0.583-0.922 1.556-1.569 2.669-1.776z"></path>
<path d="M16 18c-1.413 0-2.721 0.935-3.781 2.705-0.283 0.473-0.291 1.063-0.020 1.542 0.268 0.471 0.749 0.753 1.288 0.753h5.026c0.539 0 1.020-0.282 1.287-0.754 0.271-0.478 0.264-1.069-0.020-1.542-1.059-1.769-2.367-2.704-3.78-2.704zM18.931 21.753c-0.042 0.075-0.167 0.247-0.418 0.247h-5.026c-0.25 0-0.375-0.172-0.417-0.247-0.095-0.168-0.092-0.368 0.008-0.535 0.856-1.43 1.894-2.218 2.922-2.218s2.066 0.788 2.923 2.218c0.1 0.167 0.102 0.367 0.008 0.535z"></path>
</svg>
