<svg version="1.1" xmlns="http://www.w3.org/2000/svg" width="32" height="32" viewBox="0 0 32 32">
<title>envelope-user</title>
<path d="M28 6h-24c-1.105 0-2 0.895-2 2v0 14c0 1.105 0.895 2 2 2v0h11.5c0.276 0 0.5-0.224 0.5-0.5s-0.224-0.5-0.5-0.5v0h-11.5c-0.552 0-1-0.448-1-1v0-14c0-0.552 0.448-1 1-1v0h24c0.552 0 1 0.448 1 1v0 6.5c0 0.276 0.224 0.5 0.5 0.5s0.5-0.224 0.5-0.5v0-6.5c0-1.105-0.895-2-2-2v0z"></path>
<path d="M27.909 8.213c-0.092-0.13-0.241-0.214-0.41-0.214-0.109 0-0.209 0.035-0.291 0.093l0.002-0.001-8.838 6.209c-0.635 0.438-1.421 0.7-2.269 0.7-0.011 0-0.022-0-0.033-0h-0.148c-0.009 0-0.020 0-0.030 0-0.848 0-1.634-0.262-2.283-0.709l0.014 0.009-8.834-6.209c-0.077-0.050-0.171-0.080-0.272-0.080-0.276 0-0.5 0.224-0.5 0.5 0 0.162 0.077 0.306 0.196 0.397l0.001 0.001 8.842 6.209c0.796 0.552 1.782 0.882 2.845 0.882 0.009 0 0.018-0 0.027-0h0.149c0.008 0 0.017 0 0.026 0 1.063 0 2.049-0.33 2.861-0.893l-0.017 0.011 8.842-6.209c0.129-0.092 0.212-0.241 0.212-0.409 0-0.107-0.034-0.207-0.092-0.288l0.001 0.002z"></path>
<path d="M29.117 24.639l-1.731-1.165c0.384-0.554 0.614-1.24 0.614-1.98 0-1.933-1.567-3.5-3.5-3.5s-3.5 1.567-3.5 3.5c0 0.74 0.23 1.426 0.622 1.992l-0.008-0.012-1.731 1.166c-0.536 0.364-0.883 0.971-0.883 1.659 0 0 0 0.001 0 0.001v-0 2.2c0 0.276 0.224 0.5 0.5 0.5s0.5-0.224 0.5-0.5v0-2.2c0-0 0-0.001 0-0.001 0-0.344 0.173-0.647 0.438-0.827l0.003-0.002 1.872-1.259c0.588 0.492 1.353 0.79 2.187 0.79s1.599-0.298 2.192-0.794l-0.005 0.004 1.872 1.259c0.268 0.182 0.441 0.485 0.441 0.829 0 0 0 0.001 0 0.001v-0 2.2c0 0.276 0.224 0.5 0.5 0.5s0.5-0.224 0.5-0.5v0-2.2c0-0.001 0-0.001 0-0.002 0-0.688-0.347-1.295-0.876-1.655l-0.007-0.004zM27 21.5c0 1.381-1.119 2.5-2.5 2.5s-2.5-1.119-2.5-2.5c0-1.381 1.119-2.5 2.5-2.5v0c1.381 0 2.5 1.119 2.5 2.5v0z"></path>
</svg>
