<svg version="1.1" xmlns="http://www.w3.org/2000/svg" width="32" height="32" viewBox="0 0 32 32">
<title>envelope-heart</title>
<path d="M15.5 23h-11.5c-0.552-0.001-0.999-0.448-1-1v-14c0.001-0.552 0.448-0.999 1-1h24c0.552 0 1 0.448 1 1v6.5c0 0.276 0.224 0.5 0.5 0.5s0.5-0.224 0.5-0.5v0-6.5c-0.001-1.104-0.896-1.999-2-2h-24c-1.104 0.001-1.999 0.896-2 2v14c0.001 1.104 0.896 1.999 2 2h11.5c0.276 0 0.5-0.224 0.5-0.5s-0.224-0.5-0.5-0.5v0z"></path>
<path d="M27.909 8.213c-0.092-0.129-0.241-0.213-0.409-0.213-0.108 0-0.207 0.034-0.289 0.092l0.002-0.001-8.842 6.209c-0.635 0.438-1.421 0.7-2.268 0.7-0.010 0-0.020-0-0.030-0h-0.148c-0.008 0-0.018 0-0.028 0-0.847 0-1.633-0.262-2.282-0.709l0.014 0.009-8.842-6.209c-0.082-0.061-0.185-0.097-0.296-0.097-0.276 0-0.5 0.224-0.5 0.5 0 0.173 0.087 0.325 0.22 0.415l0.002 0.001 8.842 6.209c0.796 0.552 1.782 0.882 2.845 0.882 0.009 0 0.017-0 0.026-0h0.149c0.008 0 0.017 0 0.025 0 1.063 0 2.049-0.33 2.861-0.893l-0.017 0.011 8.842-6.209c0.13-0.091 0.214-0.241 0.214-0.409 0-0.108-0.034-0.207-0.092-0.289l0.001 0.002z"></path>
<path d="M29.126 19.879c-0.542-0.542-1.291-0.877-2.119-0.877s-1.577 0.335-2.119 0.877l-0.378 0.378-0.377-0.378c-0.542-0.54-1.29-0.874-2.116-0.874-1.656 0-2.998 1.342-2.998 2.998 0 0.827 0.335 1.576 0.877 2.119l4.262 4.268c0.090 0.090 0.215 0.146 0.353 0.146s0.263-0.056 0.353-0.146l4.263-4.268c0.541-0.544 0.876-1.293 0.876-2.121s-0.334-1.577-0.876-2.121l0 0zM28.42 23.414l-3.91 3.915-3.909-3.915c-0.365-0.362-0.592-0.865-0.592-1.42 0-1.104 0.895-1.999 1.999-1.999 0.554 0 1.056 0.226 1.418 0.59l0 0 0.73 0.732c0.090 0.090 0.215 0.146 0.353 0.146s0.263-0.056 0.353-0.146v0l0.732-0.732c0.362-0.361 0.861-0.585 1.413-0.585 1.104 0 1.999 0.895 1.999 1.999 0 0.552-0.224 1.052-0.586 1.414v0z"></path>
</svg>
