<svg version="1.1" xmlns="http://www.w3.org/2000/svg" width="32" height="32" viewBox="0 0 32 32">
<title>envelope-ban</title>
<path d="M28 6h-24c-1.104 0.001-1.999 0.896-2 2v14c0.001 1.104 0.896 1.999 2 2h11.5c0.276 0 0.5-0.224 0.5-0.5s-0.224-0.5-0.5-0.5v0h-11.5c-0.552-0.001-0.999-0.448-1-1v-14c0.001-0.552 0.448-0.999 1-1h24c0.552 0 1 0.448 1 1v6.5c0 0.276 0.224 0.5 0.5 0.5s0.5-0.224 0.5-0.5v0-6.5c-0.001-1.104-0.896-1.999-2-2h-0z"></path>
<path d="M27.909 8.213c-0.092-0.129-0.241-0.213-0.409-0.213-0.108 0-0.207 0.034-0.289 0.092l0.002-0.001-8.842 6.209c-0.635 0.438-1.421 0.7-2.268 0.7-0.010 0-0.020-0-0.030-0h-0.148c-0.008 0-0.018 0-0.028 0-0.847 0-1.633-0.262-2.282-0.709l0.014 0.009-8.842-6.209c-0.082-0.061-0.185-0.097-0.296-0.097-0.276 0-0.5 0.224-0.5 0.5 0 0.173 0.087 0.325 0.22 0.415l0.002 0.001 8.842 6.209c0.796 0.552 1.782 0.882 2.845 0.882 0.009 0 0.017-0 0.026-0h0.149c0.008 0 0.017 0 0.025 0 1.063 0 2.049-0.33 2.861-0.893l-0.017 0.011 8.842-6.209c0.13-0.091 0.214-0.241 0.214-0.409 0-0.108-0.034-0.207-0.092-0.289l0.001 0.002z"></path>
<path d="M28.389 19.611l-0.014-0.009c-0.993-0.985-2.361-1.594-3.87-1.594-3.036 0-5.497 2.461-5.497 5.497 0 1.51 0.609 2.878 1.595 3.871l-0-0 0.009 0.014 0.014 0.009c0.993 0.985 2.361 1.594 3.87 1.594 3.036 0 5.497-2.461 5.497-5.497 0-1.51-0.609-2.878-1.595-3.871l0 0zM20 23.5c0.003-2.484 2.016-4.497 4.5-4.5h0c1.063 0.005 2.038 0.381 2.801 1.006l-0.008-0.006-6.293 6.294c-0.619-0.755-0.995-1.73-1-2.792v-0.001zM24.5 28c-1.063-0.005-2.038-0.381-2.801-1.006l0.008 0.006 6.293-6.294c0.619 0.755 0.995 1.73 1 2.792v0.001c-0.003 2.484-2.016 4.497-4.5 4.5h-0z"></path>
</svg>
