<svg version="1.1" xmlns="http://www.w3.org/2000/svg" width="32" height="32" viewBox="0 0 32 32">
<title>envelope</title>
<path d="M28 7h-24c-1.105 0-2 0.895-2 2v0 14c0 1.105 0.895 2 2 2v0h24c1.105 0 2-0.895 2-2v0-14c0-1.105-0.895-2-2-2v0zM27.813 9.89l-8.759 7.036c-0.828 0.669-1.893 1.074-3.053 1.074s-2.226-0.405-3.063-1.081l0.009 0.007-8.76-7.036c-0.114-0.092-0.187-0.233-0.187-0.39 0-0.276 0.224-0.5 0.5-0.5 0.119 0 0.228 0.041 0.314 0.111l-0.001-0.001 8.76 7.036c0.664 0.515 1.51 0.826 2.428 0.826s1.763-0.311 2.437-0.833l-0.009 0.007 8.759-7.036c0.085-0.069 0.194-0.11 0.313-0.11 0.276 0 0.5 0.224 0.5 0.5 0 0.157-0.073 0.298-0.186 0.389l-0.001 0.001z"></path>
</svg>
