<svg version="1.1" xmlns="http://www.w3.org/2000/svg" width="32" height="32" viewBox="0 0 32 32">
<title>envelope-edit</title>
<path d="M28 6h-24c-1.105 0-2 0.895-2 2v0 14c0 1.105 0.895 2 2 2v0h11.5c0.276 0 0.5-0.224 0.5-0.5s-0.224-0.5-0.5-0.5v0h-11.5c-0.552 0-1-0.448-1-1v0-14c0-0.552 0.448-1 1-1v0h24c0.552 0 1 0.448 1 1v0 6.5c0 0.276 0.224 0.5 0.5 0.5s0.5-0.224 0.5-0.5v0-6.5c0-1.105-0.895-2-2-2v0z"></path>
<path d="M27.787 8.909c0.121-0.092 0.198-0.236 0.198-0.398 0-0.276-0.224-0.5-0.5-0.5-0.101 0-0.195 0.030-0.274 0.081l0.002-0.001-8.842 6.209c-0.635 0.438-1.421 0.7-2.269 0.7-0.011 0-0.022-0-0.033-0h-0.148c-0.009 0-0.020 0-0.030 0-0.848 0-1.634-0.262-2.283-0.709l0.014 0.009-8.834-6.209c-0.077-0.050-0.171-0.080-0.272-0.080-0.276 0-0.5 0.224-0.5 0.5 0 0.162 0.077 0.306 0.196 0.397l0.001 0.001 8.842 6.209c0.796 0.552 1.782 0.882 2.845 0.882 0.009 0 0.018-0 0.027-0h0.149c0.008 0 0.017 0 0.026 0 1.063 0 2.049-0.33 2.861-0.893l-0.017 0.011z"></path>
<path d="M27.084 18c-0.001 0-0.003 0-0.004 0-0.526 0-1.003 0.214-1.347 0.56l-0 0-6.5 6.5c-0.106 0.107-0.189 0.238-0.239 0.384l-0.002 0.007-0.963 2.888c-0.017 0.048-0.027 0.103-0.027 0.161 0 0.275 0.223 0.499 0.497 0.5h0c0.001 0 0.001 0 0.002 0 0.056 0 0.109-0.010 0.159-0.027l-0.003 0.001 2.886-0.962c0.154-0.052 0.285-0.135 0.393-0.242l6.5-6.5c0.348-0.344 0.563-0.822 0.563-1.35 0-0.001 0-0.003 0-0.004v0-0.006c-0.002-1.055-0.858-1.91-1.913-1.91-0.001 0-0.002 0-0.003 0h0zM28 19.916c0 0 0 0.001 0 0.002 0 0.251-0.102 0.478-0.267 0.642l-6.5 6.5-1.939 0.646 0.647-1.939 6.5-6.5c0.165-0.165 0.393-0.266 0.645-0.266 0.503 0 0.911 0.407 0.914 0.909v0z"></path>
</svg>
