<svg version="1.1" xmlns="http://www.w3.org/2000/svg" width="32" height="32" viewBox="0 0 32 32">
<title>envelope-open</title>
<path d="M29.171 8.776l-10.181-5.090c-0.847-0.432-1.847-0.685-2.907-0.686h-0.166c-1.060 0.001-2.061 0.255-2.945 0.703l0.037-0.017-10.18 5.090c-0.495 0.25-0.829 0.755-0.829 1.337 0 0.002 0 0.003 0 0.005v-0 12.882c0 1.657 1.343 3 3 3v0h23.5c0.828 0 1.5-0.672 1.5-1.5v0-14.382c0-0.002 0-0.004 0-0.006 0-0.582-0.334-1.087-0.82-1.332l-0.009-0.004zM27.787 11.91l-8.769 6.139c-0.841 0.595-1.888 0.951-3.018 0.951s-2.177-0.356-3.034-0.962l0.017 0.011-8.769-6.139c-0.13-0.092-0.213-0.241-0.213-0.41 0-0.276 0.224-0.5 0.5-0.5 0.107 0 0.207 0.034 0.289 0.092l-0.002-0.001 8.769 6.139c0.684 0.473 1.531 0.756 2.444 0.756s1.76-0.283 2.458-0.765l-0.014 0.009 8.77-6.139c0.080-0.057 0.18-0.090 0.287-0.090 0.276 0 0.5 0.224 0.5 0.5 0 0.169-0.084 0.318-0.212 0.409l-0.002 0.001z"></path>
</svg>
