<svg version="1.1" xmlns="http://www.w3.org/2000/svg" width="32" height="32" viewBox="0 0 32 32">
<title>envelope-search</title>
<path d="M28 6h-24c-1.104 0.001-1.999 0.896-2 2v14c0.001 1.104 0.896 1.999 2 2h11.5c0.276 0 0.5-0.224 0.5-0.5s-0.224-0.5-0.5-0.5v0h-11.5c-0.552-0.001-0.999-0.448-1-1v-14c0.001-0.552 0.448-0.999 1-1h24c0.552 0 1 0.448 1 1v6.5c0 0.276 0.224 0.5 0.5 0.5s0.5-0.224 0.5-0.5v0-6.5c-0.001-1.104-0.896-1.999-2-2h-0z"></path>
<path d="M27.909 8.213c-0.092-0.129-0.241-0.213-0.409-0.213-0.108 0-0.207 0.034-0.289 0.092l0.002-0.001-8.842 6.209c-0.635 0.438-1.421 0.7-2.268 0.7-0.010 0-0.020-0-0.030-0h-0.148c-0.008 0-0.018 0-0.028 0-0.847 0-1.633-0.262-2.282-0.709l0.014 0.009-8.842-6.209c-0.082-0.061-0.185-0.097-0.296-0.097-0.276 0-0.5 0.224-0.5 0.5 0 0.173 0.087 0.325 0.22 0.415l0.002 0.001 8.842 6.209c0.796 0.552 1.782 0.882 2.845 0.882 0.009 0 0.017-0 0.026-0h0.149c0.008 0 0.017 0 0.025 0 1.063 0 2.049-0.33 2.861-0.893l-0.017 0.011 8.842-6.209c0.13-0.091 0.214-0.241 0.214-0.409 0-0.108-0.034-0.207-0.092-0.289l0.001 0.002z"></path>
<path d="M26.147 24.44c0.529-0.664 0.849-1.514 0.853-2.439v-0.001c0-2.209-1.791-4-4-4s-4 1.791-4 4c0 2.209 1.791 4 4 4v0c0.926-0.004 1.776-0.325 2.448-0.859l-0.008 0.006 3.707 3.707c0.090 0.087 0.212 0.14 0.347 0.14 0.276 0 0.5-0.224 0.5-0.5 0-0.135-0.053-0.258-0.14-0.348l0 0zM23 25c-1.657 0-3-1.343-3-3s1.343-3 3-3c1.657 0 3 1.343 3 3v0c-0.002 1.656-1.344 2.998-3 3h-0z"></path>
</svg>
