<svg version="1.1" xmlns="http://www.w3.org/2000/svg" width="32" height="32" viewBox="0 0 32 32">
<title>envelope-wrench</title>
<path d="M28 6h-24c-1.105 0-2 0.895-2 2v0 14c0 1.105 0.895 2 2 2v0h12.5c0.276 0 0.5-0.224 0.5-0.5s-0.224-0.5-0.5-0.5v0h-12.5c-0.552 0-1-0.448-1-1v0-14c0-0.552 0.448-1 1-1v0h24c0.552 0 1 0.448 1 1v0 6.5c0 0.276 0.224 0.5 0.5 0.5s0.5-0.224 0.5-0.5v0-6.5c0-1.105-0.895-2-2-2v0z"></path>
<path d="M27.909 8.213c-0.092-0.13-0.241-0.214-0.41-0.214-0.109 0-0.209 0.035-0.291 0.093l0.002-0.001-8.838 6.209c-0.635 0.438-1.421 0.7-2.269 0.7-0.011 0-0.022-0-0.033-0h-0.148c-0.009 0-0.020 0-0.030 0-0.848 0-1.634-0.262-2.283-0.709l0.014 0.009-8.834-6.209c-0.077-0.050-0.171-0.080-0.272-0.080-0.276 0-0.5 0.224-0.5 0.5 0 0.162 0.077 0.306 0.196 0.397l0.001 0.001 8.842 6.209c0.796 0.552 1.782 0.882 2.845 0.882 0.009 0 0.018-0 0.027-0h0.149c0.008 0 0.017 0 0.026 0 1.063 0 2.049-0.33 2.861-0.893l-0.017 0.011 8.842-6.209c0.129-0.092 0.212-0.241 0.212-0.409 0-0.107-0.034-0.207-0.092-0.288l0.001 0.002z"></path>
<path d="M29.461 19.59c-0.099-0.042-0.214-0.067-0.335-0.067-0.241 0-0.46 0.098-0.618 0.256v0l-1.6 1.6-1.288-1.294 1.59-1.585c0.162-0.159 0.263-0.38 0.263-0.625 0-0.483-0.392-0.875-0.875-0.875-0.001 0-0.003 0-0.004 0h-1.094c-1.933 0-3.5 1.567-3.5 3.5v0 1.167c0 0.001 0 0.003 0 0.004 0 0.413-0.168 0.786-0.439 1.056l-0 0-4 4.005c-0.307 0.339-0.495 0.79-0.495 1.286 0 1.059 0.858 1.917 1.917 1.917 0.499 0 0.954-0.191 1.295-0.504l-0.001 0.001 4-4c0.272-0.266 0.644-0.431 1.055-0.432h1.173c1.931-0.003 3.495-1.569 3.495-3.5 0 0 0 0 0 0v0-1.1c0-0.001 0-0.001 0-0.002 0-0.362-0.22-0.673-0.533-0.806l-0.006-0.002zM29 21.5c0 1.381-1.119 2.5-2.5 2.5v0h-1.168c-0.691 0.002-1.316 0.282-1.77 0.733l-4 4c-0.165 0.158-0.389 0.256-0.635 0.256-0.506 0-0.917-0.411-0.917-0.917 0-0.245 0.096-0.468 0.253-0.632l-0 0 4-4c0.456-0.451 0.738-1.076 0.738-1.768 0-0.001 0-0.002 0-0.003v0-1.169c0-1.381 1.119-2.5 2.5-2.5v0h0.8l-1.378 1.376c-0.181 0.181-0.293 0.431-0.293 0.707s0.112 0.526 0.293 0.707v0l1.289 1.3c0.18 0.182 0.43 0.294 0.706 0.294 0 0 0.001 0 0.001 0h-0c0.001 0 0.002 0 0.003 0 0.275 0 0.523-0.112 0.703-0.293l1.376-1.391z"></path>
</svg>
