<svg version="1.1" xmlns="http://www.w3.org/2000/svg" width="32" height="32" viewBox="0 0 32 32">
<title>envelope-pointer</title>
<path d="M28 6h-24c-1.105 0-2 0.895-2 2v0 14c0 1.105 0.895 2 2 2v0h12.5c0.276 0 0.5-0.224 0.5-0.5s-0.224-0.5-0.5-0.5v0h-12.5c-0.552 0-1-0.448-1-1v0-14c0-0.552 0.448-1 1-1v0h24c0.552 0 1 0.448 1 1v0 6.5c0 0.276 0.224 0.5 0.5 0.5s0.5-0.224 0.5-0.5v0-6.5c0-1.105-0.895-2-2-2v0z"></path>
<path d="M27.909 8.213c-0.092-0.13-0.241-0.214-0.41-0.214-0.109 0-0.209 0.035-0.291 0.093l0.002-0.001-8.838 6.209c-0.635 0.438-1.421 0.7-2.269 0.7-0.011 0-0.022-0-0.033-0h-0.148c-0.009 0-0.020 0-0.030 0-0.848 0-1.634-0.262-2.283-0.709l0.014 0.009-8.834-6.209c-0.077-0.050-0.171-0.080-0.272-0.080-0.276 0-0.5 0.224-0.5 0.5 0 0.162 0.077 0.306 0.196 0.397l0.001 0.001 8.842 6.209c0.796 0.552 1.782 0.882 2.845 0.882 0.009 0 0.018-0 0.027-0h0.149c0.008 0 0.017 0 0.026 0 1.063 0 2.049-0.33 2.861-0.893l-0.017 0.011 8.842-6.209c0.129-0.092 0.212-0.241 0.212-0.409 0-0.107-0.034-0.207-0.092-0.288l0.001 0.002z"></path>
<path d="M22.824 18.116c-0.087-0.074-0.2-0.119-0.324-0.119-0.276 0-0.5 0.224-0.5 0.5 0 0.001 0 0.002 0 0.003v-0 7.5c0.001 0.276 0.224 0.499 0.5 0.499 0.138 0 0.263-0.056 0.353-0.146v0l1.91-1.913 2.168 4.339c0.105 0.207 0.316 0.346 0.559 0.346v0c0.001 0 0.001 0 0.002 0 0.101 0 0.197-0.024 0.281-0.068l-0.003 0.002c0.207-0.105 0.346-0.316 0.346-0.56 0-0.101-0.024-0.197-0.067-0.282l0.002 0.004-2.105-4.221h2.555c0.276-0 0.5-0.224 0.5-0.5 0-0.154-0.070-0.292-0.179-0.383l-0.001-0.001z"></path>
</svg>
