<svg version="1.1" xmlns="http://www.w3.org/2000/svg" width="32" height="32" viewBox="0 0 32 32">
<title>envelope-square</title>
<path d="M27 2h-22c-1.657 0-3 1.343-3 3v0 22c0 1.657 1.343 3 3 3v0h22c1.657 0 3-1.343 3-3v0-22c0-1.657-1.343-3-3-3v0zM23 20.5c0 0.276-0.224 0.5-0.5 0.5v0h-13c-0.276 0-0.5-0.224-0.5-0.5v0-9c0-0.276 0.224-0.5 0.5-0.5v0h13c0.276 0 0.5 0.224 0.5 0.5v0z"></path>
<path d="M16 16.808c-0.476-0.001-0.912-0.169-1.255-0.448l0.004 0.003-4.562-3.67c-0.123-0.092-0.201-0.237-0.201-0.401 0-0.276 0.224-0.5 0.5-0.5 0.125 0 0.24 0.046 0.328 0.122l-0.001-0.001 4.562 3.67c0.169 0.138 0.387 0.221 0.625 0.221s0.456-0.084 0.627-0.223l-0.002 0.001 4.562-3.67c0.087-0.076 0.202-0.122 0.327-0.122 0.276 0 0.5 0.224 0.5 0.5 0 0.163-0.078 0.309-0.2 0.4l-0.001 0.001-4.562 3.67c-0.339 0.276-0.775 0.444-1.251 0.445h-0z"></path>
</svg>
