<svg version="1.1" xmlns="http://www.w3.org/2000/svg" width="32" height="32" viewBox="0 0 32 32">
<title>eraser</title>
<path d="M19.854 22.854v0l8.294-8.294c0.55-0.55 0.853-1.28 0.853-2.061 0-0.777-0.303-1.508-0.853-2.058l-5.588-5.589c-1.081-1.081-3.032-1.086-4.119 0l-14.588 14.588c-0.55 0.55-0.853 1.281-0.853 2.062 0 0.777 0.303 1.508 0.853 2.058l4.294 4.294c0.093 0.093 0.22 0.146 0.353 0.146h12c0.276 0 0.5-0.224 0.5-0.5s-0.224-0.5-0.5-0.5h-4.793l4.147-4.146zM14.293 27h-5.586l-4.147-4.148c-0.362-0.36-0.56-0.84-0.56-1.354 0-0.51 0.198-0.99 0.56-1.351l5.94-5.941 8.293 8.293-4.5 4.501zM11.207 13.5l7.94-7.94c0.709-0.708 1.991-0.714 2.705 0l5.588 5.588c0.361 0.361 0.56 0.84 0.56 1.354 0 0.51-0.198 0.99-0.56 1.351l-7.94 7.941-8.293-8.294z"></path>
</svg>
