<svg version="1.1" xmlns="http://www.w3.org/2000/svg" width="32" height="32" viewBox="0 0 32 32">
<title>euro</title>
<path d="M16.5 5c-6.341 0-11.5 5.159-11.5 11.5s5.159 11.5 11.5 11.5 11.5-5.159 11.5-11.5-5.159-11.5-11.5-11.5zM16.5 27c-5.79 0-10.5-4.71-10.5-10.5s4.71-10.5 10.5-10.5 10.5 4.71 10.5 10.5-4.71 10.5-10.5 10.5z"></path>
<path d="M16.687 12c1.112 0 2.159 0.464 2.949 1.306 0.189 0.202 0.505 0.212 0.707 0.023s0.212-0.505 0.023-0.707c-0.982-1.046-2.288-1.622-3.679-1.622s-2.698 0.576-3.679 1.622c-0.64 0.683-1.053 1.508-1.284 2.378h-1.224c-0.276 0-0.5 0.224-0.5 0.5s0.224 0.5 0.5 0.5h1.050c-0.029 0.334-0.029 0.666 0 1h-1.050c-0.276 0-0.5 0.224-0.5 0.5s0.224 0.5 0.5 0.5h1.224c0.231 0.869 0.644 1.694 1.284 2.377 0.98 1.047 2.287 1.623 3.679 1.623s2.698-0.576 3.678-1.623c0.189-0.201 0.179-0.518-0.023-0.707s-0.518-0.179-0.707 0.023c-0.789 0.843-1.837 1.307-2.948 1.307s-2.16-0.464-2.949-1.306c-0.462-0.493-0.78-1.076-0.984-1.693h3.746c0.276 0 0.5-0.224 0.5-0.5s-0.224-0.501-0.5-0.501h-3.956c-0.035-0.333-0.035-0.667 0-1h4.956c0.276 0 0.5-0.224 0.5-0.5s-0.224-0.5-0.5-0.5h-4.747c0.204-0.618 0.522-1.201 0.984-1.694 0.79-0.842 1.837-1.306 2.95-1.306z"></path>
</svg>
