<svg version="1.1" xmlns="http://www.w3.org/2000/svg" width="32" height="32" viewBox="0 0 32 32">
<title>exchange</title>
<path d="M8.293 15.707c0.18 0.174 0.425 0.281 0.695 0.281 0.552 0 1-0.448 1-1 0-0.27-0.107-0.515-0.281-0.695l-4.293-4.293h23.586c0.552 0 1-0.448 1-1s-0.448-1-1-1v0h-23.586l4.293-4.293c0.188-0.182 0.305-0.437 0.305-0.719 0-0.552-0.448-1-1-1-0.282 0-0.537 0.117-0.719 0.305l-6 6c-0.181 0.181-0.293 0.431-0.293 0.707s0.112 0.526 0.293 0.707v0z"></path>
<path d="M23.707 16.293c-0.18-0.174-0.425-0.281-0.695-0.281-0.552 0-1 0.448-1 1 0 0.27 0.107 0.515 0.281 0.695l4.293 4.293h-23.586c-0.552 0-1 0.448-1 1s0.448 1 1 1v0h23.586l-4.293 4.293c-0.188 0.182-0.305 0.437-0.305 0.719 0 0.552 0.448 1 1 1 0.282 0 0.537-0.117 0.719-0.305l6-6c0.181-0.181 0.293-0.431 0.293-0.707s-0.112-0.526-0.293-0.707v0z"></path>
</svg>
