<svg version="1.1" xmlns="http://www.w3.org/2000/svg" width="32" height="32" viewBox="0 0 32 32">
<title>exclamation-triangle-o</title>
<path d="M27 29h-22c-1.657-0-2.999-1.343-2.999-3 0-0.53 0.138-1.029 0.379-1.461l-0.008 0.015 11-19.99c0.521-0.933 1.502-1.554 2.628-1.554s2.108 0.621 2.621 1.539l0.008 0.015 11 19.99c0.234 0.417 0.372 0.916 0.372 1.446 0 1.657-1.343 3-3 3-0 0-0 0-0 0h0zM16 4.005c-0.005-0-0.010-0-0.016-0-0.746 0-1.396 0.414-1.731 1.026l-0.005 0.010-11 19.99c-0.158 0.279-0.25 0.613-0.25 0.969 0 1.105 0.895 2 2 2 0.001 0 0.002 0 0.003 0h22c1.104-0 2-0.896 2-2 0-0.354-0.092-0.686-0.253-0.974l0.005 0.010-11-19.99c-0.34-0.624-0.991-1.041-1.739-1.041-0.005 0-0.009 0-0.014 0h0.001zM13.81 4.805v0z"></path>
<path d="M16 20c-0.552 0-1-0.448-1-1v0-6c0-0.552 0.448-1 1-1s1 0.448 1 1v0 6c0 0.552-0.448 1-1 1v0z"></path>
<path d="M17 23c0 0.552-0.448 1-1 1s-1-0.448-1-1c0-0.552 0.448-1 1-1s1 0.448 1 1z"></path>
</svg>
