<svg version="1.1" xmlns="http://www.w3.org/2000/svg" width="32" height="32" viewBox="0 0 32 32">
<title>exclamation-diamond</title>
<path d="M29.12 13.879l-11-11c-0.543-0.543-1.293-0.878-2.121-0.878s-1.578 0.336-2.121 0.878l-11 11c-0.543 0.543-0.878 1.293-0.878 2.121s0.336 1.578 0.878 2.121l11 11c0.543 0.543 1.293 0.878 2.121 0.878s1.578-0.336 2.121-0.878l11-11c0.543-0.543 0.878-1.293 0.878-2.121s-0.336-1.578-0.878-2.121v0zM16 22c-0.552 0-1-0.448-1-1s0.448-1 1-1c0.552 0 1 0.448 1 1v0c0 0.552-0.448 1-1 1v0zM17 17c0 0.552-0.448 1-1 1s-1-0.448-1-1v0-6c0-0.552 0.448-1 1-1s1 0.448 1 1v0z"></path>
</svg>
