<svg version="1.1" xmlns="http://www.w3.org/2000/svg" width="32" height="32" viewBox="0 0 32 32">
<title>exclamation-square-o</title>
<path d="M25.5 4h-19c-1.381 0-2.5 1.119-2.5 2.5v0 19c0 1.381 1.119 2.5 2.5 2.5v0h19c1.381 0 2.5-1.119 2.5-2.5v0-19c0-1.381-1.119-2.5-2.5-2.5v0zM27 25.5c0 0.828-0.672 1.5-1.5 1.5v0h-19c-0.828 0-1.5-0.672-1.5-1.5v0-19c0-0.828 0.672-1.5 1.5-1.5v0h19c0.828 0 1.5 0.672 1.5 1.5v0z"></path>
<path d="M16 10c-0.552 0-1 0.448-1 1v0 6c0 0.552 0.448 1 1 1s1-0.448 1-1v0-6c0-0.552-0.448-1-1-1v0z"></path>
<path d="M17 21c0 0.552-0.448 1-1 1s-1-0.448-1-1c0-0.552 0.448-1 1-1s1 0.448 1 1z"></path>
</svg>
