<svg version="1.1" xmlns="http://www.w3.org/2000/svg" width="32" height="32" viewBox="0 0 32 32">
<title>expand</title>
<path d="M27.5 4h-8c-0.276 0-0.5 0.224-0.5 0.5s0.224 0.5 0.5 0.5h6.793l-9.146 9.146c-0.195 0.195-0.195 0.512 0 0.707 0.097 0.098 0.225 0.147 0.353 0.147s0.256-0.049 0.354-0.146l9.146-9.147v6.793c0 0.276 0.224 0.5 0.5 0.5s0.5-0.224 0.5-0.5v-8c0-0.276-0.224-0.5-0.5-0.5z"></path>
<path d="M14.146 17.146l-9.146 9.147v-6.793c0-0.276-0.224-0.5-0.5-0.5s-0.5 0.224-0.5 0.5v8c0 0.276 0.224 0.5 0.5 0.5h8c0.276 0 0.5-0.224 0.5-0.5s-0.224-0.5-0.5-0.5h-6.793l9.146-9.146c0.195-0.195 0.195-0.512 0-0.707s-0.511-0.196-0.707-0.001z"></path>
</svg>
