<svg version="1.1" xmlns="http://www.w3.org/2000/svg" width="32" height="32" viewBox="0 0 32 32">
<title>external-link</title>
<path d="M11.293 20.707c0.181 0.181 0.431 0.293 0.707 0.293s0.526-0.112 0.707-0.293l11.293-11.293v6.586c0 0.552 0.448 1 1 1s1-0.448 1-1v0-9c0-0.552-0.448-1-1-1v0h-9c-0.552 0-1 0.448-1 1s0.448 1 1 1v0h6.586l-11.293 11.293c-0.181 0.181-0.293 0.431-0.293 0.707s0.112 0.526 0.293 0.707v0z"></path>
<path d="M27.5 21c-0.276 0-0.5 0.224-0.5 0.5v0 3.5c0 1.105-0.895 2-2 2v0h-18c-1.105 0-2-0.895-2-2v0-18c0-1.105 0.895-2 2-2v0h3.5c0.276 0 0.5-0.224 0.5-0.5s-0.224-0.5-0.5-0.5v0h-3.5c-1.657 0-3 1.343-3 3v0 18c0 1.657 1.343 3 3 3v0h18c1.657 0 3-1.343 3-3v0-3.5c0-0.276-0.224-0.5-0.5-0.5v0z"></path>
</svg>
