<svg version="1.1" xmlns="http://www.w3.org/2000/svg" width="32" height="32" viewBox="0 0 32 32">
<title>external-link-square</title>
<path d="M26.5 4h-21c-0.827 0-1.5 0.673-1.5 1.5v21c0 0.827 0.673 1.5 1.5 1.5h21c0.827 0 1.5-0.673 1.5-1.5v-21c0-0.827-0.673-1.5-1.5-1.5zM27 26.5c0 0.276-0.225 0.5-0.5 0.5h-21c-0.275 0-0.5-0.224-0.5-0.5v-21c0-0.276 0.225-0.5 0.5-0.5h21c0.275 0 0.5 0.224 0.5 0.5v21z"></path>
<path d="M20.5 11h-6c-0.276 0-0.5 0.224-0.5 0.5s0.224 0.5 0.5 0.5h4.793l-8.146 8.146c-0.195 0.195-0.195 0.512 0 0.707 0.097 0.098 0.225 0.147 0.353 0.147s0.256-0.049 0.354-0.146l8.146-8.147v4.793c0 0.276 0.224 0.5 0.5 0.5s0.5-0.224 0.5-0.5v-6c0-0.276-0.224-0.5-0.5-0.5z"></path>
</svg>
