<svg version="1.1" xmlns="http://www.w3.org/2000/svg" width="32" height="32" viewBox="0 0 32 32">
<title>eye-slash</title>
<path d="M29.926 15.738c-1.482-2.407-3.513-4.33-5.884-5.658l-0.738 0.738c2.244 1.202 4.178 2.964 5.605 5.183-2.825 4.389-7.627 7-12.909 7-1.476 0-2.911-0.211-4.279-0.6l-0.806 0.806c1.612 0.518 3.323 0.793 5.085 0.793 5.736 0 10.941-2.893 13.926-7.738 0.098-0.161 0.098-0.363 0-0.524z"></path>
<path d="M16 20c-0.554 0-1.081-0.114-1.561-0.318l-0.734 0.734c0.691 0.361 1.463 0.584 2.295 0.584 2.757 0 5-2.243 5-5 0-0.832-0.223-1.604-0.584-2.295l-0.734 0.734c0.204 0.48 0.318 1.007 0.318 1.561 0 2.206-1.794 4-4 4z"></path>
<path d="M27.854 4.146c-0.195-0.195-0.512-0.195-0.707 0l-5.040 5.040c-1.906-0.759-3.964-1.186-6.107-1.186-5.736 0-10.941 2.893-13.926 7.738-0.099 0.161-0.099 0.364 0 0.524 1.674 2.718 4.055 4.805 6.829 6.127l-4.757 4.757c-0.195 0.195-0.195 0.512 0 0.707 0.098 0.098 0.226 0.147 0.354 0.147s0.256-0.049 0.354-0.146l23-23c0.195-0.196 0.195-0.512 0-0.708zM3.091 16c2.825-4.389 7.627-7 12.909-7 1.863 0 3.658 0.344 5.335 0.958l-2.189 2.189c-0.862-0.706-1.948-1.147-3.146-1.147-2.757 0-5 2.243-5 5 0 1.198 0.441 2.284 1.146 3.146l-2.492 2.492c-2.65-1.189-4.937-3.112-6.563-5.638zM18.44 12.853l-5.587 5.587c-0.526-0.678-0.853-1.518-0.853-2.44 0-2.206 1.794-4 4-4 0.923 0 1.762 0.327 2.44 0.853z"></path>
</svg>
