<svg version="1.1" xmlns="http://www.w3.org/2000/svg" width="32" height="32" viewBox="0 0 32 32">
<title>eye</title>
<path d="M29.926 15.738c-2.985-4.845-8.19-7.738-13.926-7.738s-10.941 2.893-13.926 7.738c-0.099 0.161-0.099 0.364 0 0.524 2.985 4.845 8.19 7.738 13.926 7.738s10.941-2.893 13.926-7.738c0.098-0.161 0.098-0.363 0-0.524zM16 23c-5.282 0-10.084-2.611-12.909-7 2.825-4.389 7.627-7 12.909-7s10.084 2.611 12.909 7c-2.825 4.389-7.627 7-12.909 7z"></path>
<path d="M16 11c-2.757 0-5 2.243-5 5s2.243 5 5 5 5-2.243 5-5-2.243-5-5-5zM16 20c-2.206 0-4-1.794-4-4s1.794-4 4-4 4 1.794 4 4-1.794 4-4 4z"></path>
</svg>
