<svg version="1.1" xmlns="http://www.w3.org/2000/svg" width="32" height="32" viewBox="0 0 32 32">
<title>eyedropper</title>
<path d="M29 6.32c0-1.831-1.489-3.32-3.327-3.32-0.878 0-1.735 0.357-2.354 0.979l-4.303 4.329-1.162-1.162c-0.195-0.195-0.512-0.195-0.707 0s-0.195 0.512 0 0.707l1.164 1.164-12.421 12.498c-0.538 0.537-0.834 1.252-0.834 2.013 0 0.493-0.192 0.957-0.541 1.306l-0.633 0.633c-0.585 0.585-0.585 1.537 0 2.121l0.558 0.558c0.292 0.292 0.677 0.438 1.061 0.438s0.769-0.146 1.061-0.438l0.605-0.605c0.348-0.349 0.812-0.541 1.361-0.541 0.76 0 1.475-0.296 2.013-0.833v0l12.459-12.46 1.146 1.146c0.098 0.098 0.226 0.147 0.354 0.147s0.256-0.049 0.354-0.146c0.195-0.195 0.195-0.512 0-0.707l-1.147-1.147 4.32-4.32c0.627-0.627 0.973-1.461 0.973-2.36zM9.834 25.459c-0.349 0.349-0.813 0.541-1.362 0.541-0.76 0-1.475 0.296-2.013 0.834l-0.605 0.605c-0.195 0.195-0.512 0.195-0.707 0l-0.558-0.558c-0.095-0.094-0.146-0.22-0.146-0.354s0.052-0.259 0.146-0.354l0.633-0.633c0.538-0.537 0.834-1.252 0.834-2.013 0-0.494 0.192-0.957 0.542-1.307l2.004-2.017 0.597 0.597c0.098 0.098 0.226 0.146 0.354 0.146s0.256-0.049 0.354-0.146c0.195-0.195 0.195-0.512 0-0.707l-0.599-0.599 2.286-2.3 0.606 0.606c0.098 0.098 0.226 0.146 0.354 0.146s0.256-0.049 0.354-0.146c0.195-0.195 0.195-0.512 0-0.707l-0.608-0.608 2.286-2.3 0.615 0.615c0.098 0.098 0.226 0.146 0.354 0.146s0.256-0.049 0.354-0.146c0.195-0.195 0.195-0.512 0-0.707l-0.618-0.617 3.729-3.752 3.273 3.276-12.459 12.459zM27.32 7.972l-4.32 4.321-3.277-3.277 4.305-4.331c0.432-0.435 1.032-0.685 1.652-0.685 1.279 0 2.32 1.041 2.32 2.332 0 0.62-0.241 1.202-0.68 1.64z"></path>
</svg>
