<svg version="1.1" xmlns="http://www.w3.org/2000/svg" width="32" height="32" viewBox="0 0 32 32">
<title>fast-forward</title>
<path d="M3.772 9.081c-0.155-0.1-0.352-0.107-0.511-0.020s-0.261 0.256-0.261 0.439v13c0 0.183 0.101 0.352 0.262 0.439 0.074 0.041 0.156 0.061 0.238 0.061 0.095 0 0.189-0.027 0.272-0.081l10-6.5c0.142-0.092 0.228-0.25 0.228-0.419s-0.086-0.327-0.228-0.419l-10-6.5zM4 21.579v-11.158l8.583 5.579-8.583 5.579z"></path>
<path d="M16.772 9.081c-0.155-0.1-0.352-0.107-0.511-0.020-0.16 0.087-0.261 0.256-0.261 0.439v13c0 0.183 0.101 0.352 0.262 0.439 0.074 0.041 0.156 0.061 0.238 0.061 0.095 0 0.189-0.027 0.272-0.081l10-6.5c0.142-0.092 0.228-0.25 0.228-0.419s-0.086-0.327-0.228-0.419l-10-6.5zM17 21.579v-11.158l8.583 5.579-8.583 5.579z"></path>
<path d="M28.5 9c-0.276 0-0.5 0.224-0.5 0.5v13c0 0.276 0.224 0.5 0.5 0.5s0.5-0.224 0.5-0.5v-13c0-0.276-0.224-0.5-0.5-0.5z"></path>
</svg>
