<svg version="1.1" xmlns="http://www.w3.org/2000/svg" width="32" height="32" viewBox="0 0 32 32">
<title>female</title>
<path d="M16 8c1.654 0 3-1.346 3-3s-1.346-3-3-3-3 1.346-3 3 1.346 3 3 3zM16 3c1.103 0 2 0.897 2 2s-0.897 2-2 2c-1.103 0-2-0.897-2-2s0.897-2 2-2z"></path>
<path d="M22.975 21.342l-3.544-10.633c-0.342-1.022-1.295-1.709-2.372-1.709h-2.117c-1.078 0-2.031 0.687-2.372 1.709l-3.544 10.633c-0.051 0.152-0.025 0.32 0.068 0.45 0.094 0.131 0.245 0.208 0.406 0.208h3.585l1.424 7.592c0.044 0.237 0.25 0.408 0.491 0.408h2c0.24 0 0.447-0.171 0.491-0.408l1.424-7.592h3.585c0.161 0 0.312-0.077 0.405-0.208 0.095-0.13 0.12-0.298 0.070-0.45zM18.5 21c-0.24 0-0.447 0.171-0.491 0.408l-1.424 7.592h-1.17l-1.424-7.592c-0.044-0.237-0.25-0.408-0.491-0.408h-3.306l3.324-9.975c0.205-0.613 0.777-1.025 1.423-1.025h2.117c0.646 0 1.219 0.412 1.423 1.025l3.326 9.975h-3.307z"></path>
</svg>
