<svg version="1.1" xmlns="http://www.w3.org/2000/svg" width="32" height="32" viewBox="0 0 32 32">
<title>fighter-jet-alt</title>
<path d="M9.5 14h-2c-0.276 0-0.5 0.224-0.5 0.5s0.224 0.5 0.5 0.5h2c0.276 0 0.5-0.224 0.5-0.5s-0.224-0.5-0.5-0.5z"></path>
<path d="M9.5 17h-2c-0.276 0-0.5 0.224-0.5 0.5s0.224 0.5 0.5 0.5h2c0.276 0 0.5-0.224 0.5-0.5s-0.224-0.5-0.5-0.5z"></path>
<path d="M29.1 14.765l-4.259-1.361c-0.839-0.268-1.709-0.404-2.588-0.404h-3.498l-7.273-10h4.018c0.276 0 0.5-0.224 0.5-0.5s-0.224-0.5-0.5-0.5h-7c-0.276 0-0.5 0.224-0.5 0.5v9.5h-0.293l-2.561-2.561c-0.279-0.279-0.666-0.439-1.060-0.439h-1.586c-0.166 0-0.321 0.082-0.414 0.22s-0.111 0.312-0.050 0.466l1.714 4.285c0.166 0.414 0.25 0.851 0.25 1.299v1.459c0 0.448-0.084 0.885-0.25 1.3l-1.714 4.285c-0.062 0.154-0.043 0.329 0.050 0.466s0.248 0.22 0.414 0.22h1.586c0.395 0 0.781-0.16 1.061-0.439l2.56-2.561h0.293v9.5c0 0.276 0.224 0.5 0.5 0.5h7c0.276 0 0.5-0.224 0.5-0.5s-0.224-0.5-0.5-0.5h-4.018l7.273-10h3.498c0.879 0 1.749-0.136 2.588-0.404l4.259-1.361c0.539-0.172 0.9-0.668 0.9-1.237 0-0.565-0.361-1.061-0.9-1.233zM28.795 16.283l-4.259 1.361c-0.74 0.236-1.508 0.356-2.283 0.356h-8.753c-0.276 0-0.5 0.224-0.5 0.5s0.224 0.5 0.5 0.5h4.018l-7.273 10h-1.245v-9.5c0-0.276-0.224-0.5-0.5-0.5h-1c-0.133 0-0.26 0.053-0.354 0.146l-2.707 2.707c-0.092 0.094-0.221 0.147-0.353 0.147h-0.848l1.439-3.599c0.215-0.533 0.323-1.095 0.323-1.671v-1.46c0-0.576-0.108-1.138-0.322-1.671l-1.44-3.599h0.848c0.132 0 0.261 0.053 0.354 0.146l2.707 2.707c0.093 0.094 0.22 0.147 0.353 0.147h1c0.276 0 0.5-0.224 0.5-0.5v-9.5h1.245l7.273 10h-4.018c-0.276 0-0.5 0.224-0.5 0.5s0.224 0.5 0.5 0.5h8.753c0.775 0 1.543 0.12 2.283 0.356l4.259 1.361c0.123 0.040 0.205 0.152 0.205 0.285 0 0.129-0.082 0.241-0.205 0.281z"></path>
<path d="M24 16c0 0.552-1.119 1-2.5 1s-2.5-0.448-2.5-1c0-0.552 1.119-1 2.5-1s2.5 0.448 2.5 1z"></path>
</svg>
