<svg version="1.1" xmlns="http://www.w3.org/2000/svg" width="32" height="32" viewBox="0 0 32 32">
<title>fighter-jet</title>
<path d="M29.621 15.515l-1.947-0.487c-1.352-0.671-2.787-1.161-4.269-1.457l-0.646-0.129c-0.977-0.196-1.97-0.325-2.968-0.39l-3.673-5.052h1.382c0.276 0 0.5-0.224 0.5-0.5s-0.224-0.5-0.5-0.5h-2.109l-2.909-4h2.018c0.276 0 0.5-0.224 0.5-0.5s-0.224-0.5-0.5-0.5h-6c-0.151 0-0.294 0.068-0.39 0.186s-0.131 0.272-0.099 0.42l2.37 10.901-2.848 0.203-2.633-3.51c-0.094-0.126-0.243-0.2-0.4-0.2h-2c-0.154 0-0.3 0.071-0.395 0.192s-0.128 0.28-0.091 0.429l0.972 3.89c-0.301 0.18-0.589 0.383-0.841 0.635-0.092 0.094-0.145 0.221-0.145 0.354v1c0 0.133 0.053 0.26 0.146 0.354 0.252 0.252 0.54 0.455 0.841 0.635l-0.972 3.89c-0.037 0.149-0.004 0.308 0.091 0.429 0.094 0.121 0.24 0.192 0.394 0.192h2c0.157 0 0.306-0.074 0.4-0.2l2.633-3.511 2.848 0.203-2.37 10.901c-0.032 0.148 0.004 0.302 0.099 0.42s0.239 0.187 0.39 0.187h6c0.276 0 0.5-0.224 0.5-0.5s-0.224-0.5-0.5-0.5h-2.018l2.909-4h2.109c0.276 0 0.5-0.224 0.5-0.5s-0.224-0.5-0.5-0.5h-1.382l3.691-5.075c0.991-0.066 1.979-0.173 2.951-0.367l0.646-0.129c1.481-0.296 2.917-0.786 4.269-1.457l1.947-0.487c0.222-0.056 0.378-0.256 0.378-0.485s-0.156-0.429-0.379-0.485zM9.12 3h2.125l7.28 10.010c-0.619-0.006-1.237 0.004-1.853 0.048l-5.284 0.377-2.268-10.435zM3.141 11h1.109l2.096 2.795-1.471 0.105c-0.33 0.024-0.649 0.098-0.961 0.195l-0.773-3.095zM4.25 21h-1.109l0.774-3.095c0.312 0.097 0.631 0.171 0.961 0.195l1.471 0.105-2.097 2.795zM11.245 29h-2.125l2.269-10.435 5.283 0.377c0.54 0.039 1.081 0.058 1.623 0.058 0.077 0 0.154-0.011 0.232-0.011l-7.282 10.011zM27.379 16.015c-0.035 0.009-0.070 0.022-0.103 0.038-1.287 0.644-2.655 1.113-4.066 1.395l-0.646 0.129c-1.909 0.382-3.88 0.506-5.821 0.367l-11.798-0.842c-0.721-0.052-1.405-0.34-1.945-0.818v-0.568c0.54-0.478 1.224-0.766 1.945-0.818l11.799-0.843c1.934-0.139 3.91-0.015 5.82 0.367l0.646 0.129c1.411 0.282 2.779 0.752 4.066 1.395 0.032 0.016 0.067 0.029 0.103 0.038l0.059 0.016-0.059 0.015z"></path>
<path d="M22 16c0 0.552-1.119 1-2.5 1s-2.5-0.448-2.5-1c0-0.552 1.119-1 2.5-1s2.5 0.448 2.5 1z"></path>
</svg>
