<svg id="Layer_1" data-name="Layer 1" xmlns="http://www.w3.org/2000/svg" width="32" height="32" viewBox="0 0 32 32"><path d="M26.414,8.707,20.293,2.586A2.011,2.011,0,0,0,18.879,2H6A1,1,0,0,0,5,3V29a1,1,0,0,0,1,1H26a1,1,0,0,0,1-1V10.121A2.011,2.011,0,0,0,26.414,8.707ZM20,3.707,25.293,9H20ZM26,29H6V3H18.879A1,1,0,0,1,19,3.024V9a1,1,0,0,0,1,1h5.976a1,1,0,0,1,.024.121Z"/><path d="M10.5,14h11a.5.5,0,0,0,0-1h-11a.5.5,0,0,0,0,1Z"/><path d="M10.5,17h11a.5.5,0,0,0,0-1h-11a.5.5,0,0,0,0,1Z"/><path d="M21.142,22.9A3.6,3.6,0,0,1,18.635,24l.87-1.78a.5.5,0,0,0-.731-.633l-2.107,1.436.394-.8a.5.5,0,0,0-.67-.669L13.436,23c1.055-1.484,1.621-2.956.916-3.678-1.01-1.032-3.252.617-4.17,1.374a.5.5,0,1,0,.636.771c1.758-1.451,2.716-1.549,2.819-1.446.226.232-.358,1.965-2.47,4.126a.5.5,0,0,0,.357.85.51.51,0,0,0,.221-.051l3.775-1.856-.581,1.187a.5.5,0,0,0,.731.633l2.107-1.437-.393.8a.5.5,0,0,0,.449.72h.715a4.6,4.6,0,0,0,3.31-1.4.5.5,0,0,0-.716-.7Z"/></svg>