<svg version="1.1" xmlns="http://www.w3.org/2000/svg" width="32" height="32" viewBox="0 0 32 32">
<title>file-bookmark</title>
<path d="M24 10.5c0-0.276-0.224-0.5-0.5-0.5v0h-4.5v-4.5c0-0.276-0.224-0.5-0.5-0.5s-0.5 0.224-0.5 0.5v0 4.5c0 0.552 0.448 1 1 1v0h4.5c0.276 0 0.5-0.224 0.5-0.5v0z"></path>
<path d="M15.5 28h-8.5v-24h12.293l5.707 5.707v4.793c0 0.276 0.224 0.5 0.5 0.5s0.5-0.224 0.5-0.5v0-4.793c0-0.001 0-0.002 0-0.003 0-0.275-0.112-0.524-0.293-0.704l-5.707-5.707c-0.18-0.181-0.428-0.293-0.703-0.293-0.001 0-0.002 0-0.004 0h-12.293c-0.552 0-1 0.448-1 1v0 24c0 0.552 0.448 1 1 1v0h8.5c0.276 0 0.5-0.224 0.5-0.5s-0.224-0.5-0.5-0.5v0z"></path>
<path d="M26 18h-5c-0.552 0-1 0.448-1 1v0 9.5c0 0 0 0.001 0 0.001 0 0.276 0.224 0.5 0.5 0.5 0.138 0 0.263-0.056 0.354-0.147v0l2.646-2.647 2.646 2.647c0.090 0.090 0.215 0.146 0.353 0.146 0 0 0.001 0 0.001 0h-0c0.001 0 0.001 0 0.002 0 0.068 0 0.133-0.014 0.192-0.039l-0.003 0.001c0.183-0.077 0.309-0.255 0.309-0.462v0-9.5c0-0.552-0.448-1-1-1v0zM26 27.293l-2.146-2.147c-0.091-0.091-0.216-0.147-0.354-0.147s-0.263 0.056-0.354 0.147v0l-2.146 2.147v-8.293h5z"></path>
</svg>
