<svg version="1.1" xmlns="http://www.w3.org/2000/svg" width="32" height="32" viewBox="0 0 32 32">
<title>file-play</title>
<path d="M23.5 11c0.276 0 0.5-0.224 0.5-0.5s-0.224-0.5-0.5-0.5v0h-4.5v-4.5c0-0.276-0.224-0.5-0.5-0.5s-0.5 0.224-0.5 0.5v0 4.5c0 0.552 0.448 1 1 1v0z"></path>
<path d="M14.5 28h-7.5v-24h12.293l5.707 5.707v5.793c0 0.276 0.224 0.5 0.5 0.5s0.5-0.224 0.5-0.5v0-5.793c0-0.001 0-0.002 0-0.003 0-0.275-0.112-0.524-0.293-0.704l-5.707-5.707c-0.18-0.181-0.428-0.293-0.703-0.293-0.001 0-0.002 0-0.004 0h-12.293c-0.552 0-1 0.448-1 1v0 24c0 0.552 0.448 1 1 1v0h7.5c0.276 0 0.5-0.224 0.5-0.5s-0.224-0.5-0.5-0.5v0z"></path>
<path d="M27.724 23.053l-8-4c-0.065-0.033-0.142-0.053-0.224-0.053-0.276 0-0.5 0.224-0.5 0.5v0 8c0 0.179 0.094 0.335 0.235 0.424l0.002 0.001c0.075 0.047 0.166 0.075 0.263 0.075h0c0.082-0 0.159-0.020 0.227-0.054l-0.003 0.001 8-4c0.165-0.084 0.276-0.253 0.276-0.447s-0.111-0.363-0.273-0.446l-0.003-0.001zM20 26.691v-6.382l6.382 3.191z"></path>
</svg>
