<svg id="Layer_1" data-name="Layer 1" xmlns="http://www.w3.org/2000/svg" width="32" height="32" viewBox="0 0 32 32"><path d="M26.414,8.707,20.293,2.586A2.011,2.011,0,0,0,18.879,2H6A1,1,0,0,0,5,3V29a1,1,0,0,0,1,1H26a1,1,0,0,0,1-1V10.121A2.011,2.011,0,0,0,26.414,8.707ZM20,3.707,25.293,9H20ZM26,29H6V3H18.879A1,1,0,0,1,19,3.024V9a1,1,0,0,0,1,1h5.976a1,1,0,0,1,.024.121Z"/><path d="M20,17.293V16a2,2,0,0,0-2-2h-.5a.5.5,0,0,0,0,1H18a1,1,0,0,1,1,1v1.293a1.008,1.008,0,0,0,.293.707l.5.5-.5.5a1.008,1.008,0,0,0-.293.707V21a1,1,0,0,1-1,1h-.5a.5.5,0,0,0,0,1H18a2,2,0,0,0,2-2V19.707l.854-.853a.5.5,0,0,0,0-.708Z"/><path d="M13,17.293V16a1,1,0,0,1,1-1h.5a.5.5,0,0,0,0-1H14a2,2,0,0,0-2,2v1.293l-.854.853a.5.5,0,0,0,0,.708l.854.853V21a2,2,0,0,0,2,2h.5a.5.5,0,0,0,0-1H14a1,1,0,0,1-1-1V19.707A1.008,1.008,0,0,0,12.707,19l-.5-.5.5-.5A1.008,1.008,0,0,0,13,17.293Z"/></svg>