<svg id="Layer_1" data-name="Layer 1" xmlns="http://www.w3.org/2000/svg" width="32" height="32" viewBox="0 0 32 32"><path d="M26.414,8.707,20.293,2.586A2.011,2.011,0,0,0,18.879,2H6A1,1,0,0,0,5,3V29a1,1,0,0,0,1,1H26a1,1,0,0,0,1-1V10.121A2.011,2.011,0,0,0,26.414,8.707ZM20,3.707,25.293,9H20ZM26,29H6V3H18.879A1,1,0,0,1,19,3.024V9a1,1,0,0,0,1,1h5.976a1,1,0,0,1,.024.121Z"/><path d="M20.5,16H18V13.5a.5.5,0,0,0-.5-.5h-3a.5.5,0,0,0-.5.5V16H11.5a.5.5,0,0,0-.5.5v3a.5.5,0,0,0,.5.5H14v2.5a.5.5,0,0,0,.5.5h3a.5.5,0,0,0,.5-.5V20h2.5a.5.5,0,0,0,.5-.5v-3A.5.5,0,0,0,20.5,16ZM20,19H17.5a.5.5,0,0,0-.5.5V22H15V19.5a.5.5,0,0,0-.5-.5H12V17h2.5a.5.5,0,0,0,.5-.5V14h2v2.5a.5.5,0,0,0,.5.5H20Z"/></svg>