<svg version="1.1" xmlns="http://www.w3.org/2000/svg" width="32" height="32" viewBox="0 0 32 32">
<title>file</title>
<path d="M25.707 9l-5.707-5.707c-0.18-0.181-0.428-0.293-0.703-0.293-0.001 0-0.002 0-0.004 0h-12.293c-0.552 0-1 0.448-1 1v0 24c0 0.552 0.448 1 1 1v0h18c0.552 0 1-0.448 1-1v0-18.293c0-0.001 0-0.002 0-0.003 0-0.275-0.112-0.524-0.293-0.704l-0-0zM23.5 11h-4.5c-0.552 0-1-0.448-1-1v0-4.5c0-0.276 0.224-0.5 0.5-0.5s0.5 0.224 0.5 0.5v0 4.5h4.5c0.276 0 0.5 0.224 0.5 0.5s-0.224 0.5-0.5 0.5v0z"></path>
</svg>
