<svg version="1.1" xmlns="http://www.w3.org/2000/svg" width="32" height="32" viewBox="0 0 32 32">
<title>file-pointer</title>
<path d="M24 10.5c0-0.276-0.224-0.5-0.5-0.5v0h-4.5v-4.5c0-0.276-0.224-0.5-0.5-0.5s-0.5 0.224-0.5 0.5v0 4.5c0 0.552 0.448 1 1 1v0h4.5c0.276 0 0.5-0.224 0.5-0.5v0z"></path>
<path d="M14.5 28h-7.5v-24h12.293l5.707 5.707v3.793c0 0.276 0.224 0.5 0.5 0.5s0.5-0.224 0.5-0.5v0-3.793c0-0.001 0-0.002 0-0.003 0-0.275-0.112-0.524-0.293-0.704l-5.707-5.707c-0.18-0.181-0.428-0.293-0.703-0.293-0.001 0-0.002 0-0.004 0h-12.293c-0.552 0-1 0.448-1 1v0 24c0 0.552 0.448 1 1 1v0h7.5c0.276 0 0.5-0.224 0.5-0.5s-0.224-0.5-0.5-0.5v0z"></path>
<path d="M26.82 23.116l-6-5c-0.086-0.072-0.198-0.116-0.32-0.116-0.276 0-0.5 0.224-0.5 0.5v0 7.5c0.001 0.276 0.224 0.499 0.5 0.499 0.138 0 0.263-0.056 0.353-0.146v0l1.91-1.913 2.168 4.339c0.105 0.207 0.316 0.346 0.559 0.346v0c0.001 0 0.001 0 0.002 0 0.101 0 0.197-0.024 0.281-0.068l-0.003 0.002c0.207-0.105 0.346-0.316 0.346-0.56 0-0.101-0.024-0.197-0.067-0.282l0.002 0.004-2.105-4.221h2.555c0.276-0 0.5-0.224 0.5-0.5 0-0.154-0.070-0.292-0.179-0.383l-0.001-0.001z"></path>
</svg>
