<svg version="1.1" xmlns="http://www.w3.org/2000/svg" width="32" height="32" viewBox="0 0 32 32">
<title>file-text-o</title>
<path d="M20.5 15h-9c-0.276 0-0.5 0.224-0.5 0.5s0.224 0.5 0.5 0.5v0h9c0.276 0 0.5-0.224 0.5-0.5s-0.224-0.5-0.5-0.5v0z"></path>
<path d="M18.5 23h-7c-0.276 0-0.5 0.224-0.5 0.5s0.224 0.5 0.5 0.5v0h7c0.276 0 0.5-0.224 0.5-0.5s-0.224-0.5-0.5-0.5v0z"></path>
<path d="M20.5 19h-9c-0.276 0-0.5 0.224-0.5 0.5s0.224 0.5 0.5 0.5v0h9c0.276 0 0.5-0.224 0.5-0.5s-0.224-0.5-0.5-0.5v0z"></path>
<path d="M19 5.5c0-0.276-0.224-0.5-0.5-0.5s-0.5 0.224-0.5 0.5v0 4.5c0 0.552 0.448 1 1 1v0h4.5c0.276 0 0.5-0.224 0.5-0.5s-0.224-0.5-0.5-0.5v0h-4.5z"></path>
<path d="M25.707 9l-5.707-5.707c-0.18-0.181-0.428-0.293-0.703-0.293-0.001 0-0.002 0-0.004 0h-12.293c-0.552 0-1 0.448-1 1v0 24c0 0.552 0.448 1 1 1v0h18c0.552 0 1-0.448 1-1v0-18.293c0-0.001 0-0.002 0-0.003 0-0.275-0.112-0.524-0.293-0.704l-0-0zM25 28h-18v-24h12.293l5.707 5.707z"></path>
</svg>
