<svg version="1.1" xmlns="http://www.w3.org/2000/svg" width="32" height="32" viewBox="0 0 32 32">
<title>file-plus</title>
<path d="M24 10.5c0-0.276-0.224-0.5-0.5-0.5v0h-4.5v-4.5c0-0.276-0.224-0.5-0.5-0.5s-0.5 0.224-0.5 0.5v0 4.5c0 0.552 0.448 1 1 1v0h4.5c0.276 0 0.5-0.224 0.5-0.5v0z"></path>
<path d="M16.5 28h-9.5v-24h12.293l5.707 5.707v5.793c0 0.276 0.224 0.5 0.5 0.5s0.5-0.224 0.5-0.5v0-5.793c0-0.001 0-0.002 0-0.003 0-0.275-0.112-0.524-0.293-0.704l-5.707-5.707c-0.18-0.181-0.428-0.293-0.703-0.293-0.001 0-0.002 0-0.004 0h-12.293c-0.552 0-1 0.448-1 1v0 24c0 0.552 0.448 1 1 1v0h9.5c0.276 0 0.5-0.224 0.5-0.5s-0.224-0.5-0.5-0.5v0z"></path>
<path d="M28.5 24h-3.5v-3.5c0-0.276-0.224-0.5-0.5-0.5s-0.5 0.224-0.5 0.5v0 3.5h-3.5c-0.276 0-0.5 0.224-0.5 0.5s0.224 0.5 0.5 0.5v0h3.5v3.5c0 0.276 0.224 0.5 0.5 0.5s0.5-0.224 0.5-0.5v0-3.5h3.5c0.276 0 0.5-0.224 0.5-0.5s-0.224-0.5-0.5-0.5v0z"></path>
</svg>
