<svg version="1.1" xmlns="http://www.w3.org/2000/svg" width="32" height="32" viewBox="0 0 32 32">
<title>file-heart</title>
<path d="M19 11h4.5c0.3 0 0.5-0.2 0.5-0.5s-0.2-0.5-0.5-0.5h-4.5v-4.5c0-0.3-0.2-0.5-0.5-0.5s-0.5 0.2-0.5 0.5v4.5c0 0.6 0.4 1 1 1z"></path>
<path d="M14.5 28h-7.5v-24h12.3l5.7 5.7v3.8c0 0.3 0.2 0.5 0.5 0.5s0.5-0.2 0.5-0.5v-3.8c0-0.3-0.1-0.5-0.3-0.7l-5.7-5.7c-0.2-0.2-0.4-0.3-0.7-0.3h-12.3c-0.6 0-1 0.4-1 1v24c0 0.6 0.4 1 1 1h7.5c0.3 0 0.5-0.2 0.5-0.5s-0.2-0.5-0.5-0.5z"></path>
<path d="M28.1 19.9c-1.2-1.2-3.1-1.2-4.2 0l-0.4 0.4-0.4-0.4c-1.2-1.2-3.1-1.2-4.2 0-0.6 0.5-0.9 1.3-0.9 2.1s0.3 1.6 0.9 2.1l4.3 4.3c0.1 0.1 0.2 0.1 0.4 0.1s0.3-0.1 0.4-0.1l4.3-4.3c1-1.1 1-3.1-0.2-4.2zM27.4 23.4l-3.9 3.9-3.9-3.9c-0.4-0.4-0.6-0.9-0.6-1.4s0.2-1 0.6-1.4c0.4-0.4 0.9-0.6 1.4-0.6s1 0.2 1.4 0.6l0.7 0.7c0.1 0.1 0.2 0.1 0.4 0.1s0.3-0.1 0.4-0.1l0.7-0.7c0.8-0.8 2-0.8 2.8 0s0.8 2 0 2.8z"></path>
</svg>
