<svg version="1.1" xmlns="http://www.w3.org/2000/svg" width="32" height="32" viewBox="0 0 32 32">
<title>file-powerpoint-o</title>
<path d="M29 14h-3v-4.293c0-0.001 0-0.002 0-0.004 0-0.275-0.112-0.524-0.293-0.703l-5.707-5.707c-0.18-0.181-0.428-0.293-0.703-0.293-0.001 0-0.002 0-0.004 0h-12.293c-0.552 0-1 0.448-1 1v0 24c0 0.552 0.448 1 1 1v0h18c0.552 0 1-0.448 1-1v0-3h3c0.552 0 1-0.448 1-1v0-9c0-0.552-0.448-1-1-1v0zM25 28h-18v-24h12.293l5.707 5.707v4.293h-11c-0.552 0-1 0.448-1 1v0 9c0 0.552 0.448 1 1 1v0h11zM29 24h-15v-9h15z"></path>
<path d="M16.5 22c0.276 0 0.5-0.224 0.5-0.5v0-1.5h1.5c0.276 0 0.5-0.224 0.5-0.5v0-2c0-0.276-0.224-0.5-0.5-0.5v0h-2c-0.276 0-0.5 0.224-0.5 0.5v0 4c0 0.276 0.224 0.5 0.5 0.5v0zM17 18h1v1h-1z"></path>
<path d="M20.5 22c0.276 0 0.5-0.224 0.5-0.5v0-1.5h1.5c0.276 0 0.5-0.224 0.5-0.5v0-2c0-0.276-0.224-0.5-0.5-0.5v0h-2c-0.276 0-0.5 0.224-0.5 0.5v0 4c0 0.276 0.224 0.5 0.5 0.5v0zM21 18h1v1h-1z"></path>
<path d="M24.5 18h0.5v3.5c0 0.276 0.224 0.5 0.5 0.5s0.5-0.224 0.5-0.5v0-3.5h0.5c0.276 0 0.5-0.224 0.5-0.5s-0.224-0.5-0.5-0.5v0h-2c-0.276 0-0.5 0.224-0.5 0.5s0.224 0.5 0.5 0.5v0z"></path>
<path d="M19 11h4.5c0.276 0 0.5-0.224 0.5-0.5s-0.224-0.5-0.5-0.5v0h-4.5v-4.5c0-0.276-0.224-0.5-0.5-0.5s-0.5 0.224-0.5 0.5v0 4.5c0 0.552 0.448 1 1 1v0z"></path>
</svg>
