<svg id="Layer_1" data-name="Layer 1" xmlns="http://www.w3.org/2000/svg" width="32" height="32" viewBox="0 0 32 32"><path d="M12,17h.5a.5.5,0,0,0,0-1H12a2,2,0,0,0-2,2v1a2,2,0,0,0,2,2h.5a.5.5,0,0,0,0-1H12a1,1,0,0,1-1-1V18A1,1,0,0,1,12,17Z"/><path d="M21.649,16.023a.5.5,0,0,0-.626.328L20,19.624l-1.023-3.273a.5.5,0,0,0-.954.3l1.25,4A.5.5,0,0,0,19.75,21h.5a.5.5,0,0,0,.477-.351l1.25-4A.5.5,0,0,0,21.649,16.023Z"/><path d="M26.414,8.707,20.293,2.586A2.011,2.011,0,0,0,18.879,2H6A1,1,0,0,0,5,3V29a1,1,0,0,0,1,1H26a1,1,0,0,0,1-1V10.121A2.011,2.011,0,0,0,26.414,8.707ZM25.293,9H20V3.707ZM26,29H6V3H18.879A1,1,0,0,1,19,3.024V9a1,1,0,0,0,1,1h5.976a1,1,0,0,1,.024.121Z"/><path d="M15.5,17h1a.5.5,0,0,0,0-1h-1a1.5,1.5,0,0,0,0,3,.5.5,0,0,1,0,1h-1a.5.5,0,0,0,0,1h1a1.5,1.5,0,0,0,0-3,.5.5,0,0,1,0-1Z"/></svg>