<svg version="1.1" xmlns="http://www.w3.org/2000/svg" width="32" height="32" viewBox="0 0 32 32">
<title>file-sound-o</title>
<path d="M19 5.5c0-0.276-0.224-0.5-0.5-0.5s-0.5 0.224-0.5 0.5v0 4.5c0 0.552 0.448 1 1 1v0h4.5c0.276 0 0.5-0.224 0.5-0.5s-0.224-0.5-0.5-0.5v0h-4.5z"></path>
<path d="M25.707 9l-5.707-5.707c-0.18-0.181-0.428-0.293-0.703-0.293-0.001 0-0.002 0-0.004 0h-12.293c-0.552 0-1 0.448-1 1v0 24c0 0.552 0.448 1 1 1v0h18c0.552 0 1-0.448 1-1v0-18.293c0-0.001 0-0.002 0-0.004 0-0.275-0.112-0.524-0.293-0.703l-0-0zM25 28h-18v-24h12.293l5.707 5.707z"></path>
<path d="M19.605 15.012c-1.463-0.313-2.738-0.974-3.781-1.893l0.009 0.008c-0.089-0.079-0.206-0.126-0.334-0.126-0.073 0-0.143 0.016-0.206 0.044l0.003-0.001c-0.177 0.079-0.299 0.253-0.3 0.456v0l-0.006 6.001c-0.409-0.305-0.924-0.489-1.482-0.489-1.376 0-2.492 1.116-2.492 2.492s1.116 2.492 2.492 2.492c1.376 0 2.492-1.116 2.492-2.492 0-0.001 0-0.002 0-0.004v0-6.972c0.968 0.675 2.108 1.182 3.338 1.449l0.062 0.011c0.023 0.004 0.050 0.006 0.077 0.006 0.276 0 0.5-0.224 0.5-0.5 0-0.229-0.154-0.422-0.363-0.481l-0.004-0.001zM13.5 23c-0.002 0-0.005 0-0.007 0-0.828 0-1.5-0.672-1.5-1.5s0.672-1.5 1.5-1.5c0.782 0 1.424 0.598 1.494 1.361l0 0.006v0.133c0 0.016 0.008 0.030 0.009 0.046-0.026 0.807-0.685 1.452-1.496 1.454h-0z"></path>
</svg>
