<svg version="1.1" xmlns="http://www.w3.org/2000/svg" width="32" height="32" viewBox="0 0 32 32">
<title>file-check</title>
<path d="M23.5 11c0.276 0 0.5-0.224 0.5-0.5s-0.224-0.5-0.5-0.5v0h-4.5v-4.5c0-0.276-0.224-0.5-0.5-0.5s-0.5 0.224-0.5 0.5v0 4.5c0 0.552 0.448 1 1 1v0z"></path>
<path d="M14.5 28h-7.5v-24h12.293l5.707 5.707v3.793c0 0.276 0.224 0.5 0.5 0.5s0.5-0.224 0.5-0.5v0-3.793c0-0.001 0-0.002 0-0.003 0-0.275-0.112-0.524-0.293-0.704l-5.707-5.707c-0.18-0.181-0.428-0.293-0.703-0.293-0.001 0-0.002 0-0.004 0h-12.293c-0.552 0-1 0.448-1 1v0 24c0 0.552 0.448 1 1 1v0h7.5c0.276 0 0.5-0.224 0.5-0.5s-0.224-0.5-0.5-0.5v0z"></path>
<path d="M28.354 20.146c-0.091-0.091-0.216-0.147-0.354-0.147s-0.263 0.056-0.354 0.147v0l-5.646 5.647-2.646-2.647c-0.091-0.091-0.216-0.147-0.354-0.147-0.276 0-0.501 0.224-0.501 0.501 0 0.138 0.056 0.263 0.147 0.354l3 3c0.091 0.091 0.216 0.147 0.354 0.147s0.263-0.056 0.354-0.147v0l6-6c0.091-0.091 0.147-0.216 0.147-0.354s-0.056-0.263-0.147-0.354v0z"></path>
</svg>
