<svg id="Layer_1" data-name="Layer 1" xmlns="http://www.w3.org/2000/svg" width="32" height="32" viewBox="0 0 32 32"><path d="M26.414,8.707,20.293,2.586A2.011,2.011,0,0,0,18.879,2H6A1,1,0,0,0,5,3V29a1,1,0,0,0,1,1H26a1,1,0,0,0,1-1V10.121A2.011,2.011,0,0,0,26.414,8.707ZM20,3.707,25.293,9H20ZM26,29H6V3H18.879A1,1,0,0,1,19,3.024V9a1,1,0,0,0,1,1h5.976a1,1,0,0,1,.024.121Z"/><path d="M20.825,16.121a.5.5,0,0,0-.7.054L17.5,19.232l-2.071-2.415A2.5,2.5,0,0,0,14.5,12h-3a.5.5,0,0,0-.5.5v8a.5.5,0,0,0,1,0V17h2.27l2.572,3-2.721,3.175a.5.5,0,1,0,.758.65L17.5,20.768l2.621,3.057a.5.5,0,0,0,.758-.65L18.158,20l2.721-3.175A.5.5,0,0,0,20.825,16.121ZM12,13h2.5a1.5,1.5,0,0,1,0,3H12Z"/></svg>