<svg version="1.1" xmlns="http://www.w3.org/2000/svg" width="32" height="32" viewBox="0 0 32 32">
<title>file-code-o</title>
<path d="M19 5.5c0-0.276-0.224-0.5-0.5-0.5s-0.5 0.224-0.5 0.5v0 4.5c0 0.552 0.448 1 1 1v0h4.5c0.276 0 0.5-0.224 0.5-0.5s-0.224-0.5-0.5-0.5v0h-4.5z"></path>
<path d="M25.707 9l-5.707-5.707c-0.18-0.181-0.428-0.293-0.703-0.293-0.001 0-0.002 0-0.004 0h-12.293c-0.552 0-1 0.448-1 1v0 24c0 0.552 0.448 1 1 1v0h18c0.552 0 1-0.448 1-1v0-18.293c0-0.001 0-0.002 0-0.004 0-0.275-0.112-0.524-0.293-0.703l-0-0zM25 28h-18v-24h12.293l5.707 5.707z"></path>
<path d="M17.724 16.049c-0.065-0.033-0.142-0.053-0.224-0.053-0.194 0-0.363 0.111-0.446 0.273l-0.001 0.003-3 6c-0.034 0.066-0.055 0.144-0.055 0.227 0 0.276 0.224 0.5 0.5 0.5 0.196 0 0.365-0.113 0.447-0.277l0.001-0.003 3-6c0.033-0.065 0.053-0.142 0.053-0.224 0-0.194-0.111-0.363-0.273-0.446l-0.003-0.001z"></path>
<path d="M12.854 16.146c-0.091-0.091-0.216-0.147-0.354-0.147s-0.263 0.056-0.354 0.147v0l-3 3c-0.091 0.091-0.147 0.216-0.147 0.354s0.056 0.263 0.147 0.354v0l3 3c0.091 0.091 0.216 0.147 0.354 0.147 0.277 0 0.501-0.224 0.501-0.501 0-0.138-0.056-0.263-0.147-0.354l-2.647-2.646 2.647-2.646c0.091-0.091 0.147-0.216 0.147-0.354s-0.056-0.263-0.147-0.354v0z"></path>
<path d="M19.854 16.146c-0.091-0.091-0.216-0.147-0.354-0.147-0.276 0-0.501 0.224-0.501 0.501 0 0.138 0.056 0.263 0.147 0.354l2.647 2.646-2.647 2.646c-0.091 0.091-0.147 0.216-0.147 0.354 0 0.276 0.224 0.501 0.501 0.501 0.138 0 0.263-0.056 0.354-0.147l3-3c0.091-0.091 0.147-0.216 0.147-0.354s-0.056-0.263-0.147-0.354v0z"></path>
</svg>
