<svg id="Layer_1" data-name="Layer 1" xmlns="http://www.w3.org/2000/svg" width="32" height="32" viewBox="0 0 32 32"><path d="M26.414,8.707,20.293,2.586A2.011,2.011,0,0,0,18.879,2H6A1,1,0,0,0,5,3V29a1,1,0,0,0,1,1H26a1,1,0,0,0,1-1V10.121A2.011,2.011,0,0,0,26.414,8.707ZM25.293,9H20V3.707ZM26,29H6V3H18.879A1,1,0,0,1,19,3.024V9a1,1,0,0,0,1,1h5.976a1,1,0,0,1,.024.121Z"/><path d="M23.5,16a.5.5,0,0,0-.5.5V19l-2.1-2.8a.5.5,0,0,0-.9.3v4a.5.5,0,0,0,1,0V18l2.1,2.8a.5.5,0,0,0,.4.2.48.48,0,0,0,.158-.026A.5.5,0,0,0,24,20.5v-4A.5.5,0,0,0,23.5,16Z"/><path d="M13.5,17h1a.5.5,0,0,0,0-1h-1a1.5,1.5,0,0,0,0,3,.5.5,0,0,1,0,1h-1a.5.5,0,0,0,0,1h1a1.5,1.5,0,0,0,0-3,.5.5,0,0,1,0-1Z"/><path d="M17.5,16A1.5,1.5,0,0,0,16,17.5v2a1.5,1.5,0,0,0,3,0v-2A1.5,1.5,0,0,0,17.5,16Zm.5,3.5a.5.5,0,0,1-1,0v-2a.5.5,0,0,1,1,0Z"/><path d="M10.5,16a.5.5,0,0,0-.5.5v3a.5.5,0,0,1-1,0,.5.5,0,0,0-1,0,1.5,1.5,0,0,0,3,0v-3A.5.5,0,0,0,10.5,16Z"/></svg>