<svg version="1.1" xmlns="http://www.w3.org/2000/svg" width="32" height="32" viewBox="0 0 32 32">
<title>file-new</title>
<path d="M23.5 11c0.276 0 0.5-0.224 0.5-0.5s-0.224-0.5-0.5-0.5v0h-4.5v-4.5c0-0.276-0.224-0.5-0.5-0.5s-0.5 0.224-0.5 0.5v0 4.5c0 0.552 0.448 1 1 1v0z"></path>
<path d="M15.5 28h-8.5v-24h12.293l5.707 5.707v4.793c0 0.276 0.224 0.5 0.5 0.5s0.5-0.224 0.5-0.5v0-4.793c0-0.001 0-0.002 0-0.003 0-0.275-0.112-0.524-0.293-0.704l-5.707-5.707c-0.18-0.181-0.428-0.293-0.703-0.293-0.001 0-0.002 0-0.004 0h-12.293c-0.552 0-1 0.448-1 1v0 24c0 0.552 0.448 1 1 1v0h8.5c0.276 0 0.5-0.224 0.5-0.5s-0.224-0.5-0.5-0.5v0z"></path>
<path d="M28.080 25.567l-3.58-2.067 3.58-2.067c0.152-0.088 0.253-0.249 0.253-0.435 0-0.276-0.224-0.5-0.5-0.5-0.093 0-0.18 0.026-0.255 0.070l0.002-0.001-3.58 2.067v-4.134c0-0.276-0.224-0.5-0.5-0.5s-0.5 0.224-0.5 0.5v0 4.134l-3.58-2.067c-0.072-0.043-0.16-0.069-0.253-0.069-0.276 0-0.5 0.224-0.5 0.5 0 0.185 0.101 0.347 0.25 0.433l0.002 0.001 3.58 2.067-3.58 2.067c-0.151 0.088-0.25 0.249-0.25 0.433 0 0.276 0.224 0.5 0.5 0.5v0c0 0 0.001 0 0.002 0 0.092 0 0.177-0.025 0.251-0.068l-0.002 0.001 3.58-2.067v4.134c0 0.276 0.224 0.5 0.5 0.5s0.5-0.224 0.5-0.5v0-4.134l3.58 2.067c0.072 0.042 0.158 0.067 0.25 0.067 0.184 0 0.345-0.099 0.432-0.248l0.001-0.002c0.042-0.072 0.067-0.158 0.067-0.25 0-0.184-0.099-0.345-0.248-0.432l-0.002-0.001z"></path>
</svg>
