<svg version="1.1" xmlns="http://www.w3.org/2000/svg" width="32" height="32" viewBox="0 0 32 32">
<title>file-excel-o</title>
<path d="M15.2 21.9c0.083 0.062 0.187 0.1 0.3 0.1 0.163 0 0.308-0.078 0.399-0.199l0.001-0.001 1.1-1.467 1.1 1.467c0.092 0.122 0.237 0.2 0.4 0.2 0.276 0 0.5-0.224 0.5-0.5 0-0.113-0.038-0.217-0.101-0.301l0.001 0.001-1.275-1.7 1.275-1.7c0.062-0.083 0.1-0.187 0.1-0.3 0-0.276-0.224-0.5-0.5-0.5-0.163 0-0.308 0.078-0.399 0.199l-0.001 0.001-1.1 1.467-1.1-1.467c-0.092-0.122-0.237-0.2-0.4-0.2-0.276 0-0.5 0.224-0.5 0.5 0 0.113 0.038 0.217 0.101 0.301l-0.001-0.001 1.275 1.7-1.275 1.7c-0.062 0.083-0.1 0.187-0.1 0.3 0 0.163 0.078 0.308 0.199 0.399l0.001 0.001z"></path>
<path d="M20.5 22h2c0.276 0 0.5-0.224 0.5-0.5s-0.224-0.5-0.5-0.5v0h-1.5v-3.5c0-0.276-0.224-0.5-0.5-0.5s-0.5 0.224-0.5 0.5v0 4c0 0.276 0.224 0.5 0.5 0.5v0z"></path>
<path d="M24.5 21c-0.276 0-0.5 0.224-0.5 0.5s0.224 0.5 0.5 0.5v0h1.5c0.552 0 1-0.448 1-1v0-1c0-0.552-0.448-1-1-1v0h-1v-1h1.5c0.276 0 0.5-0.224 0.5-0.5s-0.224-0.5-0.5-0.5v0h-1.5c-0.552 0-1 0.448-1 1v0 1c0 0.552 0.448 1 1 1v0h1v1z"></path>
<path d="M29 14h-3v-4.293c0-0.001 0-0.002 0-0.004 0-0.275-0.112-0.524-0.293-0.703l-5.707-5.707c-0.18-0.181-0.428-0.293-0.703-0.293-0.001 0-0.002 0-0.004 0h-12.293c-0.552 0-1 0.448-1 1v0 24c0 0.552 0.448 1 1 1v0h18c0.552 0 1-0.448 1-1v0-3h3c0.552 0 1-0.448 1-1v0-9c0-0.552-0.448-1-1-1v0zM25 28h-18v-24h12.293l5.707 5.707v4.293h-12c-0.552 0-1 0.448-1 1v0 9c0 0.552 0.448 1 1 1v0h12zM29 24h-16v-9h16z"></path>
<path d="M19 11h4.5c0.276 0 0.5-0.224 0.5-0.5s-0.224-0.5-0.5-0.5v0h-4.5v-4.5c0-0.276-0.224-0.5-0.5-0.5s-0.5 0.224-0.5 0.5v0 4.5c0 0.552 0.448 1 1 1v0z"></path>
</svg>
