<svg version="1.1" xmlns="http://www.w3.org/2000/svg" width="32" height="32" viewBox="0 0 32 32">
<title>file-video-o</title>
<path d="M19 5.5c0-0.276-0.224-0.5-0.5-0.5s-0.5 0.224-0.5 0.5v0 4.5c0 0.552 0.448 1 1 1v0h4.5c0.276 0 0.5-0.224 0.5-0.5s-0.224-0.5-0.5-0.5v0h-4.5z"></path>
<path d="M25.707 9l-5.707-5.707c-0.18-0.181-0.428-0.293-0.703-0.293-0.001 0-0.002 0-0.004 0h-12.293c-0.552 0-1 0.448-1 1v0 24c0 0.552 0.448 1 1 1v0h18c0.552 0 1-0.448 1-1v0-18.293c0-0.001 0-0.002 0-0.004 0-0.275-0.112-0.524-0.293-0.703l-0-0zM25 28h-18v-24h12.293l5.707 5.707z"></path>
<path d="M19.724 18.553l-7-3.5c-0.065-0.033-0.142-0.053-0.224-0.053-0.276 0-0.5 0.224-0.5 0.5v0 7c0 0.276 0.224 0.5 0.5 0.5 0.082 0 0.159-0.020 0.227-0.054l-0.003 0.001 7-3.5c0.165-0.084 0.276-0.253 0.276-0.447s-0.111-0.363-0.273-0.446l-0.003-0.001zM13 21.691v-5.382l5.382 2.691z"></path>
</svg>
