<svg version="1.1" xmlns="http://www.w3.org/2000/svg" width="32" height="32" viewBox="0 0 32 32">
<title>file-lock</title>
<path d="M23.5 11c0.276 0 0.5-0.224 0.5-0.5s-0.224-0.5-0.5-0.5v0h-4.5v-4.5c0-0.276-0.224-0.5-0.5-0.5s-0.5 0.224-0.5 0.5v0 4.5c0 0.552 0.448 1 1 1v0z"></path>
<path d="M14.5 28h-7.5v-24h12.293l5.707 5.707v3.793c0 0.276 0.224 0.5 0.5 0.5s0.5-0.224 0.5-0.5v0-3.793c0-0.001 0-0.002 0-0.003 0-0.275-0.112-0.524-0.293-0.704l-5.707-5.707c-0.18-0.181-0.428-0.293-0.703-0.293-0.001 0-0.002 0-0.004 0h-12.293c-0.552 0-1 0.448-1 1v0 24c0 0.552 0.448 1 1 1v0h7.5c0.276 0 0.5-0.224 0.5-0.5s-0.224-0.5-0.5-0.5v0z"></path>
<path d="M28 23h-1v-2c0-1.657-1.343-3-3-3s-3 1.343-3 3v0 2h-1c-0.552 0-1 0.448-1 1v0 5c0 0.552 0.448 1 1 1v0h8c0.552 0 1-0.448 1-1v0-5c0-0.552-0.448-1-1-1v0zM22 21c0-1.105 0.895-2 2-2s2 0.895 2 2v0 2h-4zM28 24v5h-8v-5z"></path>
</svg>
