<svg version="1.1" xmlns="http://www.w3.org/2000/svg" width="32" height="32" viewBox="0 0 32 32">
<title>film</title>
<path d="M12.5 21c0.076 0 0.153-0.018 0.224-0.053l7-3.5c0.169-0.084 0.276-0.258 0.276-0.447s-0.107-0.363-0.276-0.447l-7-3.5c-0.155-0.078-0.34-0.069-0.486 0.022-0.148 0.091-0.238 0.252-0.238 0.425v7c0 0.173 0.090 0.334 0.237 0.425 0.080 0.050 0.171 0.075 0.263 0.075zM13 14.309l5.382 2.691-5.382 2.691v-5.382z"></path>
<path d="M28.5 6h-25c-0.827 0-1.5 0.673-1.5 1.5v18c0 0.827 0.673 1.5 1.5 1.5h25c0.827 0 1.5-0.673 1.5-1.5v-18c0-0.827-0.673-1.5-1.5-1.5zM7 26h-3.5c-0.275 0-0.5-0.224-0.5-0.5v-3.5h4v4zM7 21h-4v-4h4v4zM7 16h-4v-4h4v4zM7 11h-4v-3.5c0-0.276 0.225-0.5 0.5-0.5h3.5v4zM24 26h-16v-19h16v19zM29 25.5c0 0.276-0.225 0.5-0.5 0.5h-3.5v-4h4v3.5zM29 21h-4v-4h4v4zM29 16h-4v-4h4v4zM29 11h-4v-4h3.5c0.275 0 0.5 0.224 0.5 0.5v3.5z"></path>
</svg>
