<svg version="1.1" xmlns="http://www.w3.org/2000/svg" width="32" height="32" viewBox="0 0 32 32">
<title>filter</title>
<path d="M27.952 4.286c-0.083-0.174-0.259-0.286-0.452-0.286h-23c-0.193 0-0.369 0.112-0.452 0.286s-0.057 0.382 0.065 0.531l7.182 8.74c1.1 1.338 1.705 3.029 1.705 4.761v9.182c0 0.192 0.11 0.367 0.283 0.451 0.070 0.033 0.144 0.049 0.217 0.049 0.111 0 0.222-0.037 0.312-0.11l5-4c0.119-0.094 0.188-0.238 0.188-0.39v-5.182c0-1.733 0.605-3.424 1.706-4.761l7.181-8.74c0.122-0.149 0.148-0.356 0.065-0.531zM19.934 12.922c-1.247 1.516-1.934 3.432-1.934 5.396v4.941l-4 3.2v-8.141c0-1.964-0.687-3.88-1.933-5.396l-6.509-7.922h20.885l-6.509 7.922z"></path>
</svg>
