<svg version="1.1" xmlns="http://www.w3.org/2000/svg" width="32" height="32" viewBox="0 0 32 32">
<title>fire-extinguisher</title>
<path d="M21.784 2.089c-0.080-0.056-0.178-0.089-0.285-0.089-0.064 0-0.124 0.012-0.18 0.033l0.003-0.001-3.436 1.3c-0.283-0.783-1.020-1.332-1.885-1.332-0 0-0.001 0-0.001 0h-2.743c-0.003 0-0.006 0-0.009 0-0.617 0-1.19 0.187-1.666 0.507l0.011-0.007-2.37 1.58c-0.139 0.090-0.229 0.245-0.229 0.42 0 0.276 0.224 0.5 0.5 0.5 0.002 0 0.004 0 0.006-0h-0c0 0 0.001 0 0.001 0 0.103 0 0.198-0.031 0.277-0.085l-0.002 0.001 2.37-1.58c0.312-0.211 0.696-0.336 1.11-0.336 0 0 0 0 0 0h1.011c-0.168 0.287-0.268 0.632-0.268 1 0 0.909 0.607 1.677 1.438 1.92l0.014 0.004-0.245 1.14c-2.398 0.399-4.204 2.457-4.207 4.937v17.5c0 0.276 0.224 0.5 0.5 0.5v0h9c0.276 0 0.5-0.224 0.5-0.5v0-17.5c-0.003-2.48-1.809-4.538-4.178-4.933l-0.029-0.004-0.245-1.14c0.619-0.18 1.105-0.634 1.325-1.219l0.005-0.014 3.448 1.279c0.052 0.019 0.111 0.031 0.174 0.031h0c0 0 0.001 0 0.001 0 0.106 0 0.205-0.034 0.285-0.091l-0.002 0.001c0.13-0.091 0.215-0.241 0.215-0.41v-3c-0-0.17-0.085-0.32-0.214-0.41l-0.002-0.001zM20 29h-8v-6h8zM20 22h-8v-6h8zM20 12v3h-8v-3c0-2.209 1.791-4 4-4s4 1.791 4 4v0z"></path>
</svg>
