<svg version="1.1" xmlns="http://www.w3.org/2000/svg" width="32" height="32" viewBox="0 0 32 32">
<title>fire</title>
<path d="M23.684 11.536c-0.086-0.147-0.243-0.245-0.423-0.245-0.031 0-0.061 0.003-0.091 0.008l0.003-0c-0.204 0.034-0.364 0.188-0.407 0.386l-0.001 0.003c-0.519 2.345-1.76 4.343-3.475 5.802l-0.015 0.012c0.459-1.197 0.725-2.582 0.725-4.029v-0c0-0.020 0-0.045 0-0.069 0-5.974-4.576-10.879-10.414-11.401l-0.044-0.003c-0.014-0.001-0.030-0.002-0.046-0.002-0.276 0-0.5 0.224-0.5 0.5 0 0.080 0.019 0.157 0.053 0.224l-0.001-0.003c0.165 0.336 0.339 0.655 0.513 0.974 0.905 1.429 1.442 3.17 1.442 5.035 0 0.084-0.001 0.167-0.003 0.25l0-0.012c0 2.561-1.151 3.83-2.37 5.173-1.293 1.424-2.63 2.897-2.63 5.845 0 5.523 4.477 10 10 10s10-4.477 10-10v0c0-0.003 0-0.007 0-0.011 0-3.113-0.861-6.025-2.358-8.511l0.042 0.074zM16 29c-4.972-0.010-8.999-4.043-9-9.016v-0c0-2.561 1.151-3.831 2.371-5.173 1.292-1.425 2.629-2.898 2.629-5.845 0.002-0.073 0.003-0.159 0.003-0.245 0-2.038-0.582-3.939-1.589-5.547l0.026 0.044-0.051-0.093c4.934 0.937 8.615 5.215 8.615 10.354 0 1.941-0.525 3.76-1.442 5.321l0.027-0.050c-0.043 0.073-0.069 0.16-0.069 0.253 0 0.276 0.224 0.5 0.5 0.5 0.094 0 0.181-0.026 0.256-0.070l-0.002 0.001c2.4-1.417 4.213-3.611 5.113-6.229l0.024-0.081c1.003 1.998 1.59 4.354 1.59 6.847 0 0.005 0 0.010 0 0.015v-0.001c-0.001 4.973-4.028 9.006-8.999 9.016h-0.001z"></path>
</svg>
