<svg version="1.1" xmlns="http://www.w3.org/2000/svg" width="32" height="32" viewBox="0 0 32 32">
<title>fit-to-width</title>
<path d="M29.5 8c-0.276 0-0.5 0.224-0.5 0.5v15c0 0.276 0.224 0.5 0.5 0.5s0.5-0.224 0.5-0.5v-15c0-0.276-0.224-0.5-0.5-0.5z"></path>
<path d="M23.854 11.646c-0.195-0.195-0.512-0.195-0.707 0s-0.195 0.512 0 0.707l3.646 3.647-3.646 3.646c-0.195 0.195-0.195 0.512 0 0.707 0.098 0.098 0.226 0.146 0.354 0.146s0.256-0.049 0.354-0.146l4-4c0.195-0.195 0.195-0.512 0-0.707l-4.001-4z"></path>
<path d="M2.5 8c-0.276 0-0.5 0.224-0.5 0.5v15c0 0.276 0.224 0.5 0.5 0.5s0.5-0.224 0.5-0.5v-15c0-0.276-0.224-0.5-0.5-0.5z"></path>
<path d="M8.854 11.646c-0.195-0.195-0.512-0.195-0.707 0l-4 4c-0.195 0.195-0.195 0.512 0 0.707l4 4c0.097 0.098 0.225 0.147 0.353 0.147s0.256-0.049 0.354-0.146c0.195-0.195 0.195-0.512 0-0.707l-3.647-3.647 3.646-3.646c0.196-0.196 0.196-0.512 0.001-0.708z"></path>
</svg>
