<svg version="1.1" xmlns="http://www.w3.org/2000/svg" width="32" height="32" viewBox="0 0 32 32">
<title>flag</title>
<path d="M27.803 4.528c-0.125-0.095-0.287-0.125-0.437-0.084-0.635 0.176-1.18 0.387-1.708 0.59-1.286 0.497-2.501 0.966-4.994 0.966-2.49 0-3.703-0.469-4.987-0.966-1.314-0.509-2.671-1.034-5.349-1.034-2.677 0-4.035 0.525-5.35 1.034-0.214 0.083-0.429 0.166-0.65 0.246-0.197 0.073-0.328 0.26-0.328 0.47v21.75c0 0.276 0.224 0.5 0.5 0.5s0.5-0.224 0.5-0.5v-9.405c0.113-0.043 0.228-0.085 0.34-0.129 1.284-0.497 2.498-0.966 4.988-0.966s3.703 0.469 4.987 0.966c1.314 0.509 2.671 1.034 5.349 1.034s4.039-0.525 5.354-1.033c0.528-0.204 1.027-0.396 1.615-0.559 0.217-0.060 0.367-0.258 0.367-0.482v-12c0-0.156-0.073-0.303-0.197-0.398z"></path>
</svg>
