<svg version="1.1" xmlns="http://www.w3.org/2000/svg" width="32" height="32" viewBox="0 0 32 32">
<title>flag-checkered</title>
<path d="M27.803 4.528c-0.125-0.095-0.288-0.125-0.437-0.084-0.635 0.176-1.18 0.387-1.708 0.59-1.286 0.497-2.501 0.966-4.994 0.966-2.49 0-3.703-0.469-4.987-0.966-1.314-0.509-2.671-1.034-5.349-1.034-2.677 0-4.035 0.525-5.35 1.034-0.214 0.083-0.429 0.166-0.65 0.246-0.197 0.073-0.328 0.26-0.328 0.47v21.75c0 0.276 0.224 0.5 0.5 0.5s0.5-0.224 0.5-0.5v-9.405c0.113-0.043 0.228-0.085 0.34-0.129 1.284-0.497 2.498-0.966 4.988-0.966s3.703 0.469 4.987 0.966c1.314 0.509 2.671 1.034 5.349 1.034s4.039-0.525 5.354-1.033c0.528-0.204 1.027-0.396 1.615-0.559 0.217-0.060 0.367-0.258 0.367-0.482v-12c0-0.156-0.073-0.303-0.197-0.398zM25 17.282v-2.467c-0.809 0.285-1.719 0.531-3 0.634v2.495c-0.406 0.033-0.84 0.056-1.336 0.056-0.629 0-1.176-0.030-1.664-0.083v-2.499c-1.279-0.134-2.174-0.416-3-0.726v2.465c-0.108-0.041-0.215-0.082-0.323-0.124-0.784-0.303-1.59-0.61-2.677-0.811v-2.49c-0.728-0.142-1.58-0.233-2.671-0.233-0.118 0-0.216 0.008-0.329 0.010v2.498c-1.247 0.022-2.204 0.159-3 0.356v-2.483c-0.75 0.195-1.371 0.44-2 0.682v-3c0.629-0.241 1.25-0.487 2-0.682v-3c-0.75 0.195-1.371 0.44-2 0.682v-2.465c0.113-0.043 0.227-0.087 0.34-0.13 0.532-0.207 1.056-0.405 1.66-0.571v2.484c0.79-0.205 1.74-0.348 3-0.37v-2.502c0.111-0.002 0.212-0.008 0.328-0.008 1.106 0 1.952 0.096 2.672 0.242v2.491c1.218 0.235 2.072 0.611 3 0.959v-2.468c0.815 0.298 1.727 0.567 3 0.695v2.499c0.492 0.052 1.039 0.082 1.664 0.082 0.49 0 0.93-0.020 1.336-0.052v-2.503c1.266-0.099 2.198-0.329 3-0.602v2.471c0.68-0.24 1.295-0.504 2-0.734v3c-0.705 0.23-1.32 0.494-2 0.734v3c0.68-0.24 1.295-0.504 2-0.734v2.471c-0.483 0.151-0.918 0.319-1.342 0.482-0.219 0.086-0.437 0.168-0.658 0.249z"></path>
<path d="M20.664 12.5c-0.625 0-1.172-0.030-1.664-0.082v3c0.492 0.052 1.039 0.082 1.664 0.082 0.49 0 0.93-0.020 1.336-0.052v-3c-0.406 0.032-0.846 0.052-1.336 0.052z"></path>
<path d="M13 10.733v3c1.218 0.235 2.072 0.611 3 0.959v-3c-0.928-0.347-1.782-0.723-3-0.959z"></path>
<path d="M7 10.88v3c0.79-0.205 1.74-0.348 3-0.37v-3c-1.26 0.022-2.21 0.165-3 0.37z"></path>
<path d="M10.329 10.5c1.091 0 1.944 0.092 2.671 0.233v-3c-0.728-0.141-1.58-0.233-2.671-0.233-0.118 0-0.216 0.008-0.329 0.010v3c0.113-0.002 0.211-0.010 0.329-0.010z"></path>
<path d="M19 12.418v-3c-1.279-0.134-2.174-0.416-3-0.726v3c0.826 0.31 1.721 0.592 3 0.726z"></path>
<path d="M25 11.814v-3c-0.809 0.285-1.719 0.531-3 0.634v3c1.281-0.102 2.191-0.348 3-0.634z"></path>
</svg>
