<svg version="1.1" xmlns="http://www.w3.org/2000/svg" width="32" height="32" viewBox="0 0 32 32">
<title>flashlight</title>
<path d="M27.981 16.367c-0.048-0.174-0.186-0.308-0.36-0.352l-7.865-1.967-10.867-10.866c-0.763-0.762-1.776-1.182-2.854-1.182-2.224 0-4.035 1.811-4.035 4.036 0 1.078 0.42 2.092 1.182 2.854l10.867 10.867 1.966 7.865c0.044 0.175 0.179 0.312 0.352 0.361 0.043 0.011 0.088 0.017 0.133 0.017 0.131 0 0.259-0.051 0.354-0.146l11-11c0.126-0.128 0.176-0.314 0.127-0.487zM3.889 8.182c-0.574-0.573-0.889-1.335-0.889-2.146 0-1.674 1.361-3.036 3.035-3.036 0.811 0 1.573 0.316 2.146 0.889l10.612 10.611-4.293 4.293-10.611-10.611zM16.771 26.522l-1.717-6.869 4.599-4.599 6.869 1.718-9.751 9.75z"></path>
<path d="M24.354 23.646c-0.195-0.195-0.512-0.195-0.707 0s-0.195 0.512 0 0.707l3 3c0.097 0.098 0.225 0.147 0.353 0.147s0.256-0.049 0.354-0.146c0.195-0.195 0.195-0.512 0-0.707l-3-3.001z"></path>
<path d="M21.975 26.342c-0.088-0.262-0.369-0.402-0.633-0.316-0.262 0.087-0.403 0.37-0.316 0.632l1 3c0.070 0.21 0.265 0.342 0.474 0.342 0.053 0 0.105-0.008 0.158-0.026 0.262-0.087 0.403-0.37 0.316-0.632l-0.999-3z"></path>
<path d="M29.658 22.026l-3-1c-0.258-0.086-0.545 0.054-0.633 0.316s0.055 0.545 0.316 0.632l3 1c0.054 0.018 0.106 0.026 0.159 0.026 0.209 0 0.404-0.132 0.475-0.342 0.087-0.262-0.055-0.545-0.317-0.632z"></path>
<path d="M14 13c0 0.552-0.448 1-1 1s-1-0.448-1-1c0-0.552 0.448-1 1-1s1 0.448 1 1z"></path>
</svg>
