<svg version="1.1" xmlns="http://www.w3.org/2000/svg" width="32" height="32" viewBox="0 0 32 32">
<title>flash</title>
<path d="M25.955 13.293c-0.081-0.178-0.259-0.293-0.455-0.293h-8.286l3.756-10.329c0.082-0.226-0.008-0.479-0.215-0.601-0.209-0.122-0.473-0.080-0.631 0.101l-14 16c-0.13 0.148-0.16 0.357-0.079 0.536s0.259 0.293 0.455 0.293h8.286l-3.756 10.329c-0.082 0.226 0.008 0.479 0.215 0.601 0.080 0.047 0.168 0.070 0.255 0.070 0.14 0 0.278-0.059 0.376-0.171l14-16c0.13-0.147 0.16-0.357 0.079-0.536zM12.883 27.16l3.087-8.489c0.056-0.153 0.033-0.324-0.061-0.458-0.093-0.133-0.246-0.213-0.409-0.213h-7.898l11.515-13.16-3.087 8.489c-0.056 0.153-0.033 0.324 0.061 0.458s0.246 0.213 0.409 0.213h7.898l-11.515 13.16z"></path>
</svg>
