<svg version="1.1" xmlns="http://www.w3.org/2000/svg" width="32" height="32" viewBox="0 0 32 32">
<title>flask</title>
<path d="M26.017 20.869l-6.2-9.293c-0.512-0.757-0.817-1.691-0.817-2.696 0-0.003 0-0.005 0-0.008v0-5.873h0.5c0.276 0 0.5-0.224 0.5-0.5s-0.224-0.5-0.5-0.5v0h-7c-0.276 0-0.5 0.224-0.5 0.5s0.224 0.5 0.5 0.5v0h0.5v5.873c0 0 0 0.001 0 0.001 0 1.006-0.306 1.941-0.83 2.716l0.011-0.017-6.2 9.293c-0.62 0.916-0.989 2.046-0.989 3.262 0 3.243 2.629 5.872 5.872 5.872 0.001 0 0.002 0 0.003 0h10.268c3.242-0.001 5.87-2.63 5.87-5.872 0-1.215-0.369-2.343-1.001-3.28l0.013 0.021zM21.134 29h-10.268c-2.69-0.001-4.87-2.182-4.87-4.872 0-1.008 0.306-1.944 0.83-2.721l-0.011 0.017 6.2-9.293c0.617-0.913 0.985-2.038 0.985-3.249 0-0.003 0-0.006 0-0.009v0.001-5.873h4v5.873c0 0.001 0 0.002 0 0.004 0 1.213 0.369 2.34 1 3.275l-0.013-0.021 6.2 9.293c0.513 0.76 0.819 1.696 0.819 2.704 0 2.691-2.181 4.872-4.872 4.872-0 0-0 0-0 0v0z"></path>
<path d="M16 16c0 0.552-0.448 1-1 1s-1-0.448-1-1c0-0.552 0.448-1 1-1s1 0.448 1 1z"></path>
<path d="M19 20c0 0.552-0.448 1-1 1s-1-0.448-1-1c0-0.552 0.448-1 1-1s1 0.448 1 1z"></path>
<path d="M22.5 24h-13c-0.276 0-0.5 0.224-0.5 0.5s0.224 0.5 0.5 0.5v0h13c0.276 0 0.5-0.224 0.5-0.5s-0.224-0.5-0.5-0.5v0z"></path>
</svg>
