<svg version="1.1" xmlns="http://www.w3.org/2000/svg" width="32" height="32" viewBox="0 0 32 32">
<title>folder-user</title>
<path d="M29 7h-15.464c-0.002 0-0.004 0-0.006 0-0.551 0-1.049-0.224-1.409-0.586l-1.535-1.535c-0.54-0.543-1.287-0.879-2.113-0.879-0.003 0-0.006 0-0.009 0h-5.464c-0.552 0-1 0.448-1 1v0 20c0 0.552 0.448 1 1 1v0h11.5c0.276 0 0.5-0.224 0.5-0.5s-0.224-0.5-0.5-0.5v0h-11.5v-20h5.464c0.002 0 0.004 0 0.006 0 0.551 0 1.049 0.224 1.409 0.586l1.535 1.535c0.54 0.543 1.287 0.879 2.113 0.879 0.003 0 0.006 0 0.009 0h15.464v6.5c0 0.276 0.224 0.5 0.5 0.5s0.5-0.224 0.5-0.5v0-6.5c0-0.552-0.448-1-1-1v0z"></path>
<path d="M28 10.5c0-0.276-0.224-0.5-0.5-0.5v0h-23c-0.276 0-0.5 0.224-0.5 0.5s0.224 0.5 0.5 0.5v0h23c0.276 0 0.5-0.224 0.5-0.5v0z"></path>
<path d="M28.117 24.639l-1.731-1.165c0.384-0.554 0.614-1.24 0.614-1.98 0-1.933-1.567-3.5-3.5-3.5s-3.5 1.567-3.5 3.5c0 0.74 0.23 1.426 0.622 1.992l-0.008-0.012-1.731 1.166c-0.536 0.364-0.883 0.971-0.883 1.659 0 0 0 0.001 0 0.001v-0 2.2c0 0.276 0.224 0.5 0.5 0.5s0.5-0.224 0.5-0.5v0-2.2c0-0 0-0.001 0-0.001 0-0.344 0.173-0.647 0.438-0.827l0.003-0.002 1.872-1.259c0.588 0.492 1.353 0.79 2.187 0.79s1.599-0.298 2.192-0.794l-0.005 0.004 1.872 1.259c0.268 0.182 0.441 0.485 0.441 0.829 0 0 0 0.001 0 0.001v-0 2.2c0 0.276 0.224 0.5 0.5 0.5s0.5-0.224 0.5-0.5v0-2.2c0-0.001 0-0.001 0-0.002 0-0.688-0.347-1.295-0.876-1.655l-0.007-0.004zM26 21.5c0 1.381-1.119 2.5-2.5 2.5s-2.5-1.119-2.5-2.5c0-1.381 1.119-2.5 2.5-2.5v0c1.381 0 2.5 1.119 2.5 2.5v0z"></path>
</svg>
