<svg version="1.1" xmlns="http://www.w3.org/2000/svg" width="32" height="32" viewBox="0 0 32 32">
<title>folder-heart</title>
<path d="M29 7h-15.464c-0.531 0.002-1.041-0.209-1.415-0.586l-1.535-1.535c-0.561-0.565-1.326-0.881-2.122-0.879h-5.464c-0.552 0-1 0.448-1 1v20c0 0.552 0.448 1 1 1h11.5c0.276 0 0.5-0.224 0.5-0.5s-0.224-0.5-0.5-0.5h-11.5v-20h5.464c0.531-0.002 1.041 0.209 1.415 0.586l1.535 1.535c0.561 0.565 1.326 0.881 2.122 0.879h15.464v6.5c0 0.276 0.224 0.5 0.5 0.5s0.5-0.224 0.5-0.5v-6.5c0-0.552-0.448-1-1-1z"></path>
<path d="M28 10.5c0-0.276-0.224-0.5-0.5-0.5h-23c-0.276 0-0.5 0.224-0.5 0.5s0.224 0.5 0.5 0.5h23c0.276 0 0.5-0.224 0.5-0.5z"></path>
<path d="M23.879 19.878l-0.378 0.378-0.377-0.378c-1.167-1.169-3.068-1.171-4.238 0-0.566 0.566-0.878 1.32-0.878 2.121s0.312 1.555 0.878 2.121l4.262 4.268c0.094 0.094 0.22 0.146 0.353 0.146s0.259-0.053 0.353-0.146l4.263-4.268c1.167-1.169 1.167-3.073 0-4.242s-3.069-1.171-4.238 0zM27.411 23.413l-3.91 3.915-3.909-3.915c-0.377-0.378-0.585-0.88-0.585-1.414s0.208-1.036 0.585-1.414c0.389-0.39 0.901-0.585 1.413-0.585 0.511 0 1.023 0.195 1.412 0.585l0.731 0.732c0.094 0.094 0.22 0.146 0.353 0.146s0.259-0.053 0.353-0.146l0.731-0.732c0.778-0.779 2.046-0.781 2.825 0s0.779 2.049 0.001 2.828z"></path>
</svg>
