<svg version="1.1" xmlns="http://www.w3.org/2000/svg" width="32" height="32" viewBox="0 0 32 32">
<title>folder</title>
<path d="M29 7h-15.464c-0.002 0-0.004 0-0.006 0-0.551 0-1.049-0.224-1.409-0.586l-1.535-1.535c-0.54-0.543-1.287-0.879-2.113-0.879-0.003 0-0.006 0-0.009 0h-5.464c-0.552 0-1 0.448-1 1v0 20c0 0.552 0.448 1 1 1v0h26c0.552 0 1-0.448 1-1v0-17c0-0.552-0.448-1-1-1v0zM27.5 11h-23c-0.276 0-0.5-0.224-0.5-0.5s0.224-0.5 0.5-0.5v0h23c0.276 0 0.5 0.224 0.5 0.5s-0.224 0.5-0.5 0.5v0z"></path>
</svg>
