<svg version="1.1" xmlns="http://www.w3.org/2000/svg" width="32" height="32" viewBox="0 0 32 32">
<title>folder-open</title>
<path d="M29.654 12.377c-0.185-0.231-0.466-0.377-0.782-0.377-0 0-0.001 0-0.001 0h-0.871v-4c0-0.552-0.448-1-1-1v0h-11.464c-0.001 0-0.003 0-0.005 0-0.551 0-1.050-0.224-1.41-0.586l-1.535-1.535c-0.54-0.543-1.288-0.879-2.114-0.879-0.003 0-0.005 0-0.008 0h-5.464c-0.552 0-1 0.448-1 1v0 7h-0.872c-0.552 0-1 0.448-1 1 0 0.080 0.009 0.157 0.027 0.232l-0.001-0.007 2.769 12c0.106 0.447 0.502 0.775 0.974 0.775 0.001 0 0.002 0 0.003 0h20.2c0.472-0 0.868-0.328 0.973-0.768l0.001-0.007 2.769-12c0.017-0.069 0.026-0.147 0.026-0.228 0-0.235-0.081-0.451-0.217-0.622l0.002 0.002zM26.5 13h-21c-0.276 0-0.5-0.224-0.5-0.5s0.224-0.5 0.5-0.5v0h21c0.276 0 0.5 0.224 0.5 0.5s-0.224 0.5-0.5 0.5v0z"></path>
</svg>
