<svg version="1.1" xmlns="http://www.w3.org/2000/svg" width="32" height="32" viewBox="0 0 32 32">
<title>folder-new</title>
<path d="M29 7h-15.464c-0.002 0-0.004 0-0.006 0-0.551 0-1.049-0.224-1.409-0.586l-1.535-1.535c-0.54-0.543-1.287-0.879-2.113-0.879-0.003 0-0.006 0-0.009 0h-5.464c-0.552 0-1 0.448-1 1v0 20c0 0.552 0.448 1 1 1v0h11.5c0.276 0 0.5-0.224 0.5-0.5s-0.224-0.5-0.5-0.5v0h-11.5v-20h5.464c0.002 0 0.004 0 0.006 0 0.551 0 1.049 0.224 1.409 0.586l1.535 1.535c0.54 0.543 1.287 0.879 2.113 0.879 0.003 0 0.006 0 0.009 0h15.464v6.5c0 0.276 0.224 0.5 0.5 0.5s0.5-0.224 0.5-0.5v0-6.5c0-0.552-0.448-1-1-1v0z"></path>
<path d="M28 10.5c0-0.276-0.224-0.5-0.5-0.5v0h-23c-0.276 0-0.5 0.224-0.5 0.5s0.224 0.5 0.5 0.5v0h23c0.276 0 0.5-0.224 0.5-0.5v0z"></path>
<path d="M28.263 20.75c-0.088-0.151-0.249-0.25-0.433-0.25-0.092 0-0.178 0.025-0.252 0.068l0.002-0.001-3.58 2.067v-4.134c0-0.276-0.224-0.5-0.5-0.5s-0.5 0.224-0.5 0.5v0 4.134l-3.58-2.067c-0.072-0.043-0.16-0.069-0.253-0.069-0.276 0-0.5 0.224-0.5 0.5 0 0.185 0.101 0.347 0.25 0.433l0.002 0.001 3.58 2.067-3.58 2.067c-0.151 0.088-0.25 0.249-0.25 0.433 0 0.276 0.224 0.5 0.5 0.5v0c0 0 0.001 0 0.002 0 0.092 0 0.177-0.025 0.251-0.068l-0.002 0.001 3.58-2.067v4.134c0 0.276 0.224 0.5 0.5 0.5s0.5-0.224 0.5-0.5v0-4.134l3.58 2.067c0.072 0.042 0.158 0.067 0.25 0.067 0.184 0 0.345-0.099 0.432-0.248l0.001-0.002c0.042-0.072 0.067-0.158 0.067-0.25 0-0.184-0.099-0.345-0.248-0.432l-0.002-0.001-3.58-2.067 3.58-2.067c0.151-0.088 0.25-0.249 0.25-0.433 0-0.092-0.025-0.178-0.068-0.252l0.001 0.002z"></path>
</svg>
