<svg version="1.1" xmlns="http://www.w3.org/2000/svg" width="32" height="32" viewBox="0 0 32 32">
<title>folder-cloud</title>
<path d="M29 7h-15.464c-0.001 0-0.003 0-0.005 0-0.551 0-1.050-0.224-1.41-0.586l-1.535-1.535c-0.54-0.543-1.288-0.879-2.114-0.879-0.003 0-0.005 0-0.008 0h-5.464c-0.552 0-1 0.448-1 1v0 20c0 0.552 0.448 1 1 1v0h26c0.552 0 1-0.448 1-1v0-17c0-0.552-0.448-1-1-1v0zM29 25h-26v-20h5.464c0.001 0 0.003 0 0.005 0 0.551 0 1.050 0.224 1.41 0.586l1.535 1.535c0.54 0.543 1.288 0.879 2.114 0.879 0.003 0 0.005 0 0.008 0h15.464z"></path>
<path d="M10.033 14.52c0.001 0.26 0.031 0.512 0.086 0.754l-0.004-0.023c-1.265 0.551-2.134 1.791-2.134 3.233 0 1.936 1.564 3.506 3.497 3.516h9.501c1.666 0 3.016-1.35 3.016-3.016s-1.35-3.016-3.016-3.016v0c0-0.002 0-0.003 0-0.005 0-1.659-1.342-3.005-2.999-3.011h-0.001c-0.435 0-0.847 0.095-1.218 0.265l0.018-0.008c-0.534-1.293-1.785-2.186-3.244-2.186-1.933 0-3.499 1.566-3.5 3.499v0zM15.986 14.056c0.045 0.234 0.248 0.409 0.492 0.409 0.115 0 0.22-0.039 0.305-0.103l-0.001 0.001c0.328-0.256 0.746-0.412 1.2-0.413h0c1.104 0.001 1.999 0.896 1.999 2 0 0.17-0.021 0.334-0.061 0.492l0.003-0.014c-0.008 0.034-0.013 0.073-0.013 0.113 0 0.276 0.224 0.5 0.5 0.5 0.040 0 0.079-0.005 0.116-0.014l-0.003 0.001c0.137-0.036 0.295-0.057 0.457-0.059h0.001c1.113 0 2.016 0.903 2.016 2.016s-0.903 2.016-2.016 2.016v0h-9.5c-1.381-0.010-2.497-1.132-2.497-2.515 0-1.161 0.787-2.139 1.857-2.428l0.018-0.004c0.216-0.058 0.373-0.253 0.373-0.483 0-0.061-0.011-0.119-0.031-0.173l0.001 0.003c-0.113-0.275-0.179-0.595-0.179-0.93 0-1.381 1.119-2.5 2.5-2.5 1.236 0 2.263 0.897 2.464 2.076l0.002 0.015z"></path>
</svg>
