<svg version="1.1" xmlns="http://www.w3.org/2000/svg" width="32" height="32" viewBox="0 0 32 32">
<title>folder-bookmark</title>
<path d="M29 7h-15.464c-0.002 0-0.004 0-0.006 0-0.551 0-1.049-0.224-1.409-0.586l-1.535-1.535c-0.54-0.543-1.287-0.879-2.113-0.879-0.003 0-0.006 0-0.009 0h-5.464c-0.552 0-1 0.448-1 1v0 20c0 0.552 0.448 1 1 1v0h11.5c0.276 0 0.5-0.224 0.5-0.5s-0.224-0.5-0.5-0.5v0h-11.5v-20h5.464c0.002 0 0.004 0 0.006 0 0.551 0 1.049 0.224 1.409 0.586l1.535 1.535c0.54 0.543 1.287 0.879 2.113 0.879 0.003 0 0.006 0 0.009 0h15.464v6.5c0 0.276 0.224 0.5 0.5 0.5s0.5-0.224 0.5-0.5v0-6.5c0-0.552-0.448-1-1-1v0z"></path>
<path d="M27.5 10h-23c-0.276 0-0.5 0.224-0.5 0.5s0.224 0.5 0.5 0.5v0h23c0.276 0 0.5-0.224 0.5-0.5s-0.224-0.5-0.5-0.5v0z"></path>
<path d="M26 18h-5c-0.552 0-1 0.448-1 1v0 9.5c0 0 0 0.001 0 0.001 0 0.276 0.224 0.5 0.5 0.5 0.138 0 0.263-0.056 0.354-0.147v0l2.646-2.647 2.646 2.647c0.090 0.090 0.215 0.146 0.353 0.146 0 0 0.001 0 0.001 0h-0c0.001 0 0.001 0 0.002 0 0.068 0 0.133-0.014 0.192-0.039l-0.003 0.001c0.183-0.077 0.309-0.255 0.309-0.462v0-9.5c0-0.552-0.448-1-1-1v0zM26 27.293l-2.146-2.147c-0.091-0.091-0.216-0.147-0.354-0.147s-0.263 0.056-0.354 0.147v0l-2.146 2.147v-8.293h5z"></path>
</svg>
