<svg version="1.1" xmlns="http://www.w3.org/2000/svg" width="32" height="32" viewBox="0 0 32 32">
<title>folder-ban</title>
<path d="M29 7h-15.464c-0.531 0.002-1.041-0.209-1.415-0.586l-1.535-1.535c-0.561-0.565-1.326-0.881-2.122-0.879h-5.464c-0.552 0-1 0.448-1 1v20c0 0.552 0.448 1 1 1h11.5c0.276 0 0.5-0.224 0.5-0.5s-0.224-0.5-0.5-0.5h-11.5v-20h5.464c0.531-0.002 1.041 0.209 1.415 0.586l1.535 1.535c0.561 0.565 1.326 0.881 2.122 0.879h15.464v6.5c0 0.276 0.224 0.5 0.5 0.5s0.5-0.224 0.5-0.5v-6.5c0-0.552-0.448-1-1-1z"></path>
<path d="M28 10.5c0-0.276-0.224-0.5-0.5-0.5h-23c-0.276 0-0.5 0.224-0.5 0.5s0.224 0.5 0.5 0.5h23c0.276 0 0.5-0.224 0.5-0.5z"></path>
<path d="M27.389 19.611c-0.004-0.004-0.009-0.005-0.014-0.009-0.995-0.989-2.365-1.602-3.875-1.602-3.032 0-5.5 2.467-5.5 5.5 0 1.511 0.613 2.881 1.602 3.876 0.004 0.004 0.005 0.010 0.009 0.013 0.004 0.004 0.009 0.005 0.014 0.009 0.995 0.989 2.365 1.602 3.875 1.602 3.032 0 5.5-2.467 5.5-5.5 0-1.511-0.613-2.881-1.602-3.876-0.004-0.004-0.005-0.009-0.009-0.013zM19 23.5c0-2.481 2.019-4.5 4.5-4.5 1.060 0 2.023 0.384 2.793 1l-6.293 6.293c-0.616-0.77-1-1.733-1-2.793zM23.5 28c-1.060 0-2.023-0.384-2.793-1l6.293-6.293c0.616 0.77 1 1.733 1 2.793 0 2.481-2.019 4.5-4.5 4.5z"></path>
</svg>
