<svg version="1.1" xmlns="http://www.w3.org/2000/svg" width="32" height="32" viewBox="0 0 32 32">
<title>folder-search</title>
<path d="M29 7h-15.464c-0.531 0.002-1.041-0.209-1.415-0.586l-1.535-1.535c-0.561-0.565-1.326-0.881-2.122-0.879h-5.464c-0.552 0-1 0.448-1 1v20c0 0.552 0.448 1 1 1h11.5c0.276 0 0.5-0.224 0.5-0.5s-0.224-0.5-0.5-0.5h-11.5v-20h5.464c0.531-0.002 1.041 0.209 1.415 0.586l1.535 1.535c0.561 0.565 1.326 0.881 2.122 0.879h15.464v6.5c0 0.276 0.224 0.5 0.5 0.5s0.5-0.224 0.5-0.5v-6.5c0-0.552-0.448-1-1-1z"></path>
<path d="M28 10.5c0-0.276-0.224-0.5-0.5-0.5h-23c-0.276 0-0.5 0.224-0.5 0.5s0.224 0.5 0.5 0.5h23c0.276 0 0.5-0.224 0.5-0.5z"></path>
<path d="M25.147 24.44c0.526-0.678 0.853-1.518 0.853-2.44 0-2.206-1.794-4-4-4s-4 1.794-4 4 1.794 4 4 4c0.923 0 1.763-0.327 2.44-0.853l3.707 3.707c0.097 0.097 0.225 0.146 0.353 0.146s0.256-0.049 0.354-0.146c0.195-0.195 0.195-0.512 0-0.707l-3.707-3.707zM22 25c-1.654 0-3-1.346-3-3s1.346-3 3-3 3 1.346 3 3-1.346 3-3 3z"></path>
</svg>
