<svg version="1.1" xmlns="http://www.w3.org/2000/svg" width="32" height="32" viewBox="0 0 32 32">
<title>folder-lock</title>
<path d="M29 7h-15.464c-0.002 0-0.004 0-0.006 0-0.551 0-1.049-0.224-1.409-0.586l-1.535-1.535c-0.54-0.543-1.287-0.879-2.113-0.879-0.003 0-0.006 0-0.009 0h-5.464c-0.552 0-1 0.448-1 1v0 20c0 0.552 0.448 1 1 1v0h11.5c0.276 0 0.5-0.224 0.5-0.5s-0.224-0.5-0.5-0.5v0h-11.5v-20h5.464c0.002 0 0.004 0 0.006 0 0.551 0 1.049 0.224 1.409 0.586l1.535 1.535c0.54 0.543 1.287 0.879 2.113 0.879 0.003 0 0.006 0 0.009 0h15.464v6.5c0 0.276 0.224 0.5 0.5 0.5s0.5-0.224 0.5-0.5v0-6.5c0-0.552-0.448-1-1-1v0z"></path>
<path d="M28 10.5c0-0.276-0.224-0.5-0.5-0.5v0h-23c-0.276 0-0.5 0.224-0.5 0.5s0.224 0.5 0.5 0.5v0h23c0.276 0 0.5-0.224 0.5-0.5v0z"></path>
<path d="M28 23h-1v-2c0-1.657-1.343-3-3-3s-3 1.343-3 3v0 2h-1c-0.552 0-1 0.448-1 1v0 5c0 0.552 0.448 1 1 1v0h8c0.552 0 1-0.448 1-1v0-5c0-0.552-0.448-1-1-1v0zM22 21c0-1.105 0.895-2 2-2s2 0.895 2 2v0 2h-4zM28 24v5h-8v-5z"></path>
</svg>
