<svg version="1.1" xmlns="http://www.w3.org/2000/svg" width="32" height="32" viewBox="0 0 32 32">
<title>folder-pointer</title>
<path d="M29 7h-15.464c-0.002 0-0.004 0-0.006 0-0.551 0-1.049-0.224-1.409-0.586l-1.535-1.535c-0.54-0.543-1.287-0.879-2.113-0.879-0.003 0-0.006 0-0.009 0h-5.464c-0.552 0-1 0.448-1 1v0 20c0 0.552 0.448 1 1 1v0h11.5c0.276 0 0.5-0.224 0.5-0.5s-0.224-0.5-0.5-0.5v0h-11.5v-20h5.464c0.002 0 0.004 0 0.006 0 0.551 0 1.049 0.224 1.409 0.586l1.535 1.535c0.54 0.543 1.287 0.879 2.113 0.879 0.003 0 0.006 0 0.009 0h15.464v6.5c0 0.276 0.224 0.5 0.5 0.5s0.5-0.224 0.5-0.5v0-6.5c0-0.552-0.448-1-1-1v0z"></path>
<path d="M27.5 10h-23c-0.276 0-0.5 0.224-0.5 0.5s0.224 0.5 0.5 0.5v0h23c0.276 0 0.5-0.224 0.5-0.5s-0.224-0.5-0.5-0.5v0z"></path>
<path d="M20.824 18.116c-0.087-0.074-0.2-0.119-0.324-0.119-0.276 0-0.5 0.224-0.5 0.5 0 0.001 0 0.002 0 0.003v-0 7.5c0.001 0.276 0.224 0.499 0.5 0.499 0.138 0 0.263-0.056 0.353-0.146v0l1.91-1.913 2.168 4.339c0.105 0.207 0.316 0.346 0.559 0.346v0c0.001 0 0.001 0 0.002 0 0.101 0 0.197-0.024 0.281-0.068l-0.003 0.002c0.207-0.105 0.346-0.316 0.346-0.56 0-0.101-0.024-0.197-0.067-0.282l0.002 0.004-2.105-4.221h2.555c0.276-0 0.5-0.224 0.5-0.5 0-0.154-0.070-0.292-0.179-0.383l-0.001-0.001z"></path>
</svg>
