<svg version="1.1" xmlns="http://www.w3.org/2000/svg" width="32" height="32" viewBox="0 0 32 32">
<title>folder-edit</title>
<path d="M29 7h-15.464c-0.002 0-0.004 0-0.006 0-0.551 0-1.049-0.224-1.409-0.586l-1.535-1.535c-0.54-0.543-1.287-0.879-2.113-0.879-0.003 0-0.006 0-0.009 0h-5.464c-0.552 0-1 0.448-1 1v0 20c0 0.552 0.448 1 1 1v0h11.5c0.276 0 0.5-0.224 0.5-0.5s-0.224-0.5-0.5-0.5v0h-11.5v-20h5.464c0.002 0 0.004 0 0.006 0 0.551 0 1.049 0.224 1.409 0.586l1.535 1.535c0.54 0.543 1.287 0.879 2.113 0.879 0.003 0 0.006 0 0.009 0h15.464v6.5c0 0.276 0.224 0.5 0.5 0.5s0.5-0.224 0.5-0.5v0-6.5c0-0.552-0.448-1-1-1v0z"></path>
<path d="M28 10.5c0-0.276-0.224-0.5-0.5-0.5v0h-23c-0.276 0-0.5 0.224-0.5 0.5s0.224 0.5 0.5 0.5v0h23c0.276 0 0.5-0.224 0.5-0.5v0z"></path>
<path d="M27.084 18c-0.001 0-0.003 0-0.004 0-0.526 0-1.003 0.214-1.347 0.56l-0 0-6.5 6.5c-0.106 0.107-0.189 0.238-0.239 0.384l-0.002 0.007-0.963 2.888c-0.017 0.048-0.027 0.103-0.027 0.161 0 0.275 0.223 0.499 0.497 0.5h0c0.001 0 0.001 0 0.002 0 0.056 0 0.109-0.010 0.159-0.027l-0.003 0.001 2.886-0.962c0.154-0.052 0.285-0.135 0.393-0.242l6.5-6.5c0.348-0.344 0.563-0.822 0.563-1.35 0-0.001 0-0.003 0-0.004v0-0.006c-0.002-1.055-0.858-1.91-1.913-1.91-0.001 0-0.002 0-0.003 0h0zM28 19.916c0 0 0 0.001 0 0.002 0 0.251-0.102 0.478-0.267 0.642l-6.5 6.5-1.939 0.646 0.647-1.939 6.5-6.5c0.165-0.165 0.393-0.266 0.645-0.266 0.503 0 0.911 0.407 0.914 0.909v0z"></path>
</svg>
