<svg version="1.1" xmlns="http://www.w3.org/2000/svg" width="32" height="32" viewBox="0 0 32 32">
<title>folders</title>
<path d="M25 12h-11.464c-0.001 0-0.003 0-0.005 0-0.551 0-1.050-0.224-1.41-0.586l-1.535-1.535c-0.54-0.543-1.288-0.879-2.114-0.879-0.003 0-0.005 0-0.008 0h-5.464c-0.552 0-1 0.448-1 1v0 17c0 0.552 0.448 1 1 1v0h22c0.552 0 1-0.448 1-1v0-14c0-0.552-0.448-1-1-1v0zM25 27h-22v-17h5.464c0.001 0 0.003 0 0.005 0 0.551 0 1.050 0.224 1.41 0.586l1.535 1.535c0.54 0.543 1.288 0.879 2.114 0.879 0.003 0 0.005 0 0.008 0h11.464z"></path>
<path d="M29 7h-11.465c-0.001 0-0.002 0-0.004 0-0.551 0-1.050-0.224-1.41-0.586l-1.535-1.535c-0.54-0.543-1.288-0.879-2.114-0.879-0.003 0-0.005 0-0.008 0h-5.464c-0.552 0-1 0.448-1 1v0 2.5c0 0.276 0.224 0.5 0.5 0.5s0.5-0.224 0.5-0.5v0-2.5h5.464c0.001 0 0.003 0 0.005 0 0.551 0 1.050 0.224 1.41 0.586l1.535 1.535c0.54 0.543 1.288 0.879 2.114 0.879 0.003 0 0.005 0 0.008 0h11.465v14h-1.5c-0.276 0-0.5 0.224-0.5 0.5s0.224 0.5 0.5 0.5v0h1.5c0.552 0 1-0.448 1-1v0-14c0-0.552-0.448-1-1-1v0z"></path>
<path d="M4 15.5c0 0.276 0.224 0.5 0.5 0.5v0h19c0.276 0 0.5-0.224 0.5-0.5s-0.224-0.5-0.5-0.5v0h-19c-0.276 0-0.5 0.224-0.5 0.5v0z"></path>
</svg>
