<svg version="1.1" xmlns="http://www.w3.org/2000/svg" width="32" height="32" viewBox="0 0 32 32">
<title>font-size-decrease</title>
<path d="M11.465 6.316c-0.15-0.382-0.779-0.382-0.93 0l-7.5 19c-0.102 0.257 0.024 0.547 0.281 0.648 0.255 0.101 0.548-0.024 0.648-0.281l2.639-6.683h8.793l2.638 6.684c0.078 0.196 0.267 0.316 0.466 0.316 0.062 0 0.123-0.011 0.184-0.035 0.257-0.101 0.383-0.392 0.281-0.648l-7.5-19.001zM6.998 18l4.002-10.138 4.002 10.138h-8.004z"></path>
<path d="M28.854 17.146c-0.195-0.195-0.512-0.195-0.707 0l-3.147 3.147v-9.793c0-0.276-0.224-0.5-0.5-0.5s-0.5 0.224-0.5 0.5v9.793l-3.146-3.146c-0.195-0.195-0.512-0.195-0.707 0s-0.195 0.512 0 0.707l4 4c0.097 0.097 0.225 0.146 0.353 0.146s0.256-0.049 0.354-0.146l4-4c0.195-0.196 0.195-0.512 0-0.708z"></path>
</svg>
