<svg version="1.1" xmlns="http://www.w3.org/2000/svg" width="32" height="32" viewBox="0 0 32 32">
<title>font-size</title>
<path d="M10.465 6.316c-0.15-0.382-0.779-0.382-0.93 0l-7.5 19c-0.102 0.257 0.024 0.547 0.281 0.648 0.255 0.102 0.548-0.023 0.648-0.281l2.639-6.683h8.793l2.638 6.684c0.078 0.196 0.267 0.316 0.466 0.316 0.062 0 0.123-0.011 0.184-0.035 0.257-0.101 0.383-0.392 0.281-0.648l-7.5-19.001zM5.998 18l4.002-10.138 4.002 10.138h-8.004z"></path>
<path d="M29.963 25.311l-4.5-11c-0.154-0.376-0.771-0.376-0.926 0l-4.5 11c-0.104 0.256 0.018 0.548 0.273 0.652 0.257 0.104 0.547-0.018 0.652-0.273l1.51-3.69h5.056l1.509 3.689c0.079 0.194 0.266 0.311 0.463 0.311 0.063 0 0.127-0.012 0.189-0.037 0.256-0.105 0.378-0.397 0.274-0.652zM22.881 21l2.119-5.18 2.119 5.18h-4.238z"></path>
</svg>
