<svg version="1.1" xmlns="http://www.w3.org/2000/svg" width="32" height="32" viewBox="0 0 32 32">
<title>frown-o</title>
<path d="M14 13.5c0 0.828-0.448 1.5-1 1.5s-1-0.672-1-1.5c0-0.828 0.448-1.5 1-1.5s1 0.672 1 1.5z"></path>
<path d="M20 13.5c0 0.828-0.448 1.5-1 1.5s-1-0.672-1-1.5c0-0.828 0.448-1.5 1-1.5s1 0.672 1 1.5z"></path>
<path d="M16 4c-6.617 0-12 5.383-12 12s5.383 12 12 12 12-5.383 12-12-5.383-12-12-12zM16 27c-6.065 0-11-4.935-11-11s4.935-11 11-11 11 4.935 11 11-4.935 11-11 11z"></path>
<path d="M16 18c-2.251 0-4.292 1.254-5.326 3.272-0.126 0.246-0.028 0.547 0.218 0.673 0.243 0.126 0.546 0.029 0.673-0.217 0.862-1.683 2.561-2.728 4.435-2.728s3.573 1.045 4.436 2.728c0.088 0.173 0.263 0.272 0.445 0.272 0.077 0 0.155-0.018 0.228-0.055 0.246-0.126 0.344-0.427 0.218-0.673-1.035-2.018-3.076-3.272-5.327-3.272z"></path>
</svg>
