<svg version="1.1" xmlns="http://www.w3.org/2000/svg" width="32" height="32" viewBox="0 0 32 32">
<title>function</title>
<path d="M18.5 9c0.276 0 0.5-0.224 0.5-0.5v-0.72c0-1.533-1.247-2.78-2.78-2.78-1.234 0-2.333 0.829-2.673 2.017l-1.71 5.983h-3.337c-0.276 0-0.5 0.224-0.5 0.5s0.224 0.5 0.5 0.5h3.052l-3.060 10.708c-0.218 0.761-0.922 1.292-1.712 1.292-0.981 0-1.78-0.798-1.78-1.78v-0.72c0-0.276-0.224-0.5-0.5-0.5s-0.5 0.224-0.5 0.5v0.72c0 1.533 1.247 2.78 2.78 2.78 1.234 0 2.333-0.829 2.673-2.017l3.138-10.983h2.909c0.276 0 0.5-0.224 0.5-0.5s-0.224-0.5-0.5-0.5h-2.623l1.631-5.708c0.218-0.761 0.922-1.292 1.712-1.292 0.981 0 1.78 0.798 1.78 1.78v0.72c0 0.276 0.224 0.5 0.5 0.5z"></path>
<path d="M22.633 18l3.261-4.193c0.17-0.218 0.131-0.532-0.088-0.702-0.217-0.17-0.532-0.131-0.701 0.087l-3.105 3.994-3.105-3.993c-0.171-0.218-0.486-0.257-0.701-0.087-0.219 0.169-0.258 0.483-0.088 0.702l3.261 4.192-3.261 4.193c-0.17 0.218-0.131 0.532 0.088 0.702 0.090 0.071 0.199 0.105 0.306 0.105 0.148 0 0.296-0.066 0.395-0.193l3.105-3.993 3.105 3.993c0.099 0.127 0.247 0.193 0.395 0.193 0.107 0 0.216-0.034 0.307-0.105 0.219-0.169 0.258-0.483 0.088-0.702l-3.262-4.193z"></path>
</svg>
