<svg version="1.1" xmlns="http://www.w3.org/2000/svg" width="32" height="32" viewBox="0 0 32 32">
<title>gamepad</title>
<path d="M11.5 14h-1.5v-1.5c0-0.276-0.224-0.5-0.5-0.5s-0.5 0.224-0.5 0.5v1.5h-1.5c-0.276 0-0.5 0.224-0.5 0.5s0.224 0.5 0.5 0.5h1.5v1.5c0 0.276 0.224 0.5 0.5 0.5s0.5-0.224 0.5-0.5v-1.5h1.5c0.276 0 0.5-0.224 0.5-0.5s-0.224-0.5-0.5-0.5z"></path>
<path d="M22 13c0 0.552-0.448 1-1 1s-1-0.448-1-1c0-0.552 0.448-1 1-1s1 0.448 1 1z"></path>
<path d="M22 16c0 0.552-0.448 1-1 1s-1-0.448-1-1c0-0.552 0.448-1 1-1s1 0.448 1 1z"></path>
<path d="M25 16c0 0.552-0.448 1-1 1s-1-0.448-1-1c0-0.552 0.448-1 1-1s1 0.448 1 1z"></path>
<path d="M25 13c0 0.552-0.448 1-1 1s-1-0.448-1-1c0-0.552 0.448-1 1-1s1 0.448 1 1z"></path>
<path d="M28.24 9.92c-1.535-1.86-3.726-2.92-6.031-2.92-0.041 0-0.084 0-0.126 0.001-1.395 0.023-2.134 0.279-2.85 0.526-0.704 0.244-1.369 0.473-2.733 0.473s-2.029-0.229-2.733-0.473c-0.715-0.247-1.454-0.502-2.85-0.526-2.333-0.008-4.594 1.025-6.188 2.958-1.885 2.304-2.729 5.946-2.729 8.533 0 2.078 0.553 3.752 1.599 4.842 1.038 1.084 2.441 1.663 3.875 1.663 0.657 0 1.321-0.122 1.959-0.372 0.552-0.216 1.099-0.56 1.626-1.022l3.123-2.737c0.648-0.568 1.472-0.88 2.318-0.88h0.001c0.846 0 1.669 0.312 2.317 0.88l3.124 2.737c0.527 0.462 1.074 0.806 1.626 1.022 2.030 0.797 4.319 0.291 5.834-1.291 1.045-1.091 1.598-2.765 1.598-4.842 0-2.587-0.844-6.229-2.76-8.572zM28.68 22.642c-1.233 1.286-3.095 1.7-4.746 1.052-0.444-0.174-0.893-0.458-1.333-0.843l-3.124-2.738c-1.66-1.454-4.293-1.455-5.953 0l-3.124 2.738c-0.44 0.385-0.889 0.669-1.333 0.843-1.649 0.647-3.514 0.235-4.747-1.052-0.863-0.901-1.32-2.336-1.32-4.15 0-2.85 1.029-6.099 2.531-7.935 1.344-1.629 3.256-2.557 5.26-2.557 0.036 0 0.072 0 0.108 0.001 1.237 0.021 1.87 0.239 2.541 0.471 0.751 0.26 1.528 0.528 3.060 0.528s2.309-0.268 3.061-0.528c0.67-0.231 1.304-0.45 2.54-0.471 2.047-0.028 4 0.897 5.397 2.59 1.473 1.801 2.502 5.050 2.502 7.9 0 1.815-0.456 3.25-1.32 4.151z"></path>
</svg>
