<svg version="1.1" xmlns="http://www.w3.org/2000/svg" width="32" height="32" viewBox="0 0 32 32">
<title>gantt-chart</title>
<path d="M5.5 9h11c0.276 0 0.5-0.224 0.5-0.5v0-4c0-0.276-0.224-0.5-0.5-0.5v0h-11c-0.276 0-0.5 0.224-0.5 0.5v0 4c0 0.276 0.224 0.5 0.5 0.5v0zM6 5h10v3h-10z"></path>
<path d="M12 11.5v4c0 0.276 0.224 0.5 0.5 0.5v0h9c0.276 0 0.5-0.224 0.5-0.5v0-4c0-0.276-0.224-0.5-0.5-0.5v0h-9c-0.276 0-0.5 0.224-0.5 0.5v0zM13 12h8v3h-8z"></path>
<path d="M16 18.5v4c0 0.276 0.224 0.5 0.5 0.5v0h11c0.276 0 0.5-0.224 0.5-0.5v0-4c0-0.276-0.224-0.5-0.5-0.5v0h-11c-0.276 0-0.5 0.224-0.5 0.5v0zM17 19h10v3h-10z"></path>
<path d="M29.5 25h-26.5v-20.5c0-0.276-0.224-0.5-0.5-0.5s-0.5 0.224-0.5 0.5v0 21c0 0.276 0.224 0.5 0.5 0.5v0h27c0.276 0 0.5-0.224 0.5-0.5s-0.224-0.5-0.5-0.5v0z"></path>
</svg>
