<svg version="1.1" xmlns="http://www.w3.org/2000/svg" width="32" height="32" viewBox="0 0 32 32">
<title>gbp</title>
<path d="M16.5 5c-6.341 0-11.5 5.159-11.5 11.5s5.159 11.5 11.5 11.5 11.5-5.159 11.5-11.5-5.159-11.5-11.5-11.5zM16.5 27c-5.79 0-10.5-4.71-10.5-10.5s4.71-10.5 10.5-10.5 10.5 4.71 10.5 10.5-4.71 10.5-10.5 10.5z"></path>
<path d="M19.5 19c-0.276 0-0.5 0.224-0.5 0.5v1.5h-4.501c0.314-0.418 0.501-0.938 0.501-1.5v-2.5h2.5c0.276 0 0.5-0.224 0.5-0.5s-0.224-0.5-0.5-0.5h-2.5v-2c0-1.103 0.897-2 2-2 0.438 0 0.855 0.139 1.204 0.403 0.075 0.056 0.145 0.117 0.21 0.183 0.195 0.195 0.512 0.195 0.707 0s0.195-0.512 0-0.707c-0.098-0.098-0.204-0.19-0.315-0.274-0.524-0.396-1.148-0.605-1.806-0.605-1.654 0-3 1.346-3 3v2h-1.5c-0.276 0-0.5 0.224-0.5 0.5s0.224 0.5 0.5 0.5h1.5v2.5c0 0.827-0.673 1.5-1.5 1.5-0.276 0-0.5 0.224-0.5 0.5s0.224 0.5 0.5 0.5h7c0.276 0 0.5-0.224 0.5-0.5v-2c0-0.276-0.224-0.5-0.5-0.5z"></path>
</svg>
