<svg version="1.1" xmlns="http://www.w3.org/2000/svg" width="32" height="32" viewBox="0 0 32 32">
<title>gears</title>
<path d="M21 18c-1.654 0-3 1.346-3 3s1.346 3 3 3 3-1.346 3-3-1.346-3-3-3zM21 23c-1.103 0-2-0.897-2-2s0.897-2 2-2 2 0.897 2 2-0.897 2-2 2z"></path>
<path d="M29.117 18.951l-1.486-0.181c-0.1-0.301-0.223-0.598-0.371-0.886l0.929-1.176c0.313-0.397 0.28-0.967-0.078-1.327l-1.492-1.493c-0.358-0.357-0.928-0.392-1.327-0.077l-1.178 0.922c-0.283-0.141-0.578-0.263-0.89-0.362l-0.175-1.488c-0.059-0.503-0.486-0.883-0.993-0.883h-2.111c-0.508 0-0.935 0.38-0.992 0.883l-0.183 1.486c-0.305 0.102-0.6 0.223-0.886 0.371l-1.175-0.928c-0.398-0.313-0.969-0.281-1.327 0.078l-1.493 1.493c-0.357 0.359-0.391 0.929-0.077 1.326l0.922 1.178c-0.142 0.286-0.265 0.583-0.361 0.889l-1.489 0.175c-0.504 0.060-0.884 0.487-0.884 0.994v2.111c0 0.507 0.38 0.934 0.883 0.993l1.486 0.181c0.1 0.301 0.223 0.598 0.37 0.886l-0.928 1.175c-0.313 0.397-0.28 0.967 0.078 1.327l1.492 1.493c0.358 0.357 0.929 0.392 1.327 0.078l1.178-0.922c0.283 0.141 0.578 0.263 0.89 0.362l0.175 1.488c0.059 0.503 0.486 0.883 0.993 0.883h2.111c0.508 0 0.935-0.38 0.992-0.883l0.183-1.486c0.305-0.102 0.6-0.223 0.886-0.371l1.175 0.928c0.397 0.313 0.968 0.281 1.327-0.078l1.493-1.494c0.357-0.359 0.391-0.929 0.077-1.326l-0.922-1.177c0.142-0.286 0.265-0.583 0.361-0.889l1.489-0.175c0.504-0.060 0.884-0.487 0.884-0.994v-2.111c0-0.506-0.38-0.933-0.883-0.993zM29 22.055l-1.488 0.175c-0.385 0.045-0.703 0.306-0.83 0.683-0.086 0.26-0.19 0.512-0.312 0.756-0.175 0.354-0.134 0.762 0.105 1.065l0.928 1.175-1.493 1.493-1.175-0.928c-0.304-0.24-0.714-0.28-1.067-0.104-0.242 0.121-0.494 0.224-0.754 0.311-0.371 0.124-0.64 0.449-0.683 0.829l-0.175 1.49h-2.111l-0.175-1.488c-0.044-0.38-0.312-0.706-0.684-0.83-0.26-0.087-0.512-0.19-0.755-0.312-0.146-0.072-0.302-0.108-0.456-0.108-0.218 0-0.433 0.072-0.61 0.213l-1.176 0.928-1.492-1.493 0.928-1.175c0.239-0.303 0.28-0.711 0.105-1.067-0.121-0.243-0.226-0.495-0.312-0.757-0.126-0.375-0.444-0.636-0.828-0.681l-1.49-0.175v-2.111l1.488-0.175c0.385-0.045 0.703-0.306 0.83-0.683 0.086-0.26 0.19-0.512 0.312-0.756 0.174-0.353 0.134-0.76-0.104-1.065l-0.929-1.176 1.493-1.492 1.175 0.928c0.303 0.24 0.712 0.28 1.067 0.104 0.242-0.121 0.494-0.224 0.754-0.311 0.371-0.124 0.64-0.449 0.683-0.829l0.175-1.489h2.111l0.175 1.488c0.044 0.38 0.312 0.706 0.684 0.83 0.26 0.087 0.512 0.19 0.755 0.312 0.354 0.174 0.763 0.136 1.066-0.105l1.176-0.928 1.492 1.492-0.93 1.177c-0.237 0.303-0.277 0.71-0.104 1.065 0.121 0.243 0.226 0.495 0.312 0.757 0.126 0.375 0.444 0.636 0.828 0.681l1.491 0.176v2.11z"></path>
<path d="M14 11c0-1.654-1.346-3-3-3s-3 1.346-3 3 1.346 3 3 3 3-1.346 3-3zM11 13c-1.103 0-2-0.897-2-2s0.897-2 2-2 2 0.897 2 2-0.897 2-2 2z"></path>
<path d="M10.5 19h-0.556l-0.174-1.488c-0.044-0.38-0.312-0.706-0.684-0.83-0.26-0.087-0.512-0.19-0.755-0.312-0.354-0.174-0.763-0.136-1.066 0.105l-1.176 0.928-1.492-1.493 0.928-1.175c0.239-0.303 0.28-0.711 0.105-1.067-0.121-0.243-0.226-0.495-0.312-0.757-0.126-0.375-0.444-0.636-0.828-0.681l-1.49-0.175v-2.11l1.488-0.175c0.385-0.045 0.703-0.306 0.83-0.683 0.086-0.26 0.19-0.512 0.312-0.756 0.174-0.353 0.134-0.76-0.104-1.065l-0.929-1.177 1.493-1.492 1.175 0.928c0.303 0.24 0.712 0.28 1.067 0.104 0.242-0.121 0.494-0.224 0.754-0.311 0.371-0.124 0.64-0.449 0.683-0.829l0.175-1.489h2.111l0.175 1.488c0.044 0.38 0.312 0.706 0.684 0.83 0.26 0.087 0.512 0.19 0.755 0.312 0.354 0.174 0.763 0.136 1.066-0.105l1.176-0.928 1.492 1.492-0.93 1.177c-0.237 0.303-0.277 0.71-0.104 1.065 0.121 0.243 0.226 0.495 0.312 0.757 0.126 0.375 0.444 0.636 0.828 0.681l1.491 0.176v0.555c0 0.276 0.224 0.5 0.5 0.5s0.5-0.224 0.5-0.5v-0.555c0-0.507-0.38-0.934-0.883-0.993l-1.486-0.181c-0.1-0.301-0.223-0.598-0.371-0.886l0.929-1.176c0.313-0.397 0.28-0.967-0.078-1.327l-1.492-1.493c-0.359-0.357-0.929-0.392-1.327-0.077l-1.178 0.922c-0.283-0.141-0.578-0.263-0.89-0.362l-0.175-1.488c-0.059-0.504-0.486-0.884-0.993-0.884h-2.112c-0.507 0-0.934 0.38-0.992 0.883l-0.182 1.486c-0.305 0.102-0.6 0.224-0.886 0.371l-1.175-0.928c-0.398-0.314-0.969-0.281-1.327 0.078l-1.493 1.493c-0.358 0.358-0.391 0.929-0.077 1.325l0.922 1.178c-0.142 0.287-0.265 0.584-0.362 0.89l-1.489 0.175c-0.503 0.060-0.883 0.487-0.883 0.994v2.111c0 0.507 0.38 0.934 0.883 0.993l1.486 0.181c0.1 0.301 0.223 0.598 0.37 0.886l-0.927 1.174c-0.313 0.397-0.28 0.967 0.078 1.327l1.492 1.493c0.358 0.358 0.929 0.392 1.327 0.078l1.178-0.922c0.283 0.141 0.578 0.263 0.89 0.362l0.175 1.488c0.058 0.504 0.485 0.884 0.992 0.884h0.556c0.276 0 0.5-0.224 0.5-0.5s-0.224-0.5-0.5-0.5z"></path>
</svg>
