<svg version="1.1" xmlns="http://www.w3.org/2000/svg" width="32" height="32" viewBox="0 0 32 32">
<title>gear</title>
<path d="M27.664 14.028l-2.161-0.752c-0.403-0.141-0.729-0.448-0.893-0.843s-0.15-0.842 0.036-1.227l0.996-2.060c0.093-0.192 0.054-0.421-0.097-0.571l-2.121-2.121c-0.149-0.151-0.38-0.189-0.571-0.096l-2.060 0.997c-0.386 0.187-0.834 0.199-1.228 0.036s-0.702-0.489-0.842-0.893l-0.752-2.161c-0.069-0.202-0.258-0.337-0.471-0.337h-3c-0.213 0-0.402 0.135-0.473 0.336l-0.752 2.161c-0.14 0.404-0.447 0.729-0.842 0.893-0.394 0.163-0.842 0.151-1.228-0.036l-2.060-0.997c-0.19-0.092-0.419-0.054-0.57 0.097l-2.121 2.121c-0.15 0.151-0.189 0.38-0.097 0.571l0.996 2.060c0.187 0.385 0.2 0.832 0.036 1.227-0.163 0.395-0.489 0.702-0.893 0.843l-2.161 0.752c-0.2 0.070-0.335 0.259-0.335 0.472v3c0 0.213 0.135 0.402 0.336 0.472l2.161 0.752c0.403 0.141 0.729 0.448 0.893 0.843s0.15 0.842-0.036 1.228l-0.996 2.060c-0.093 0.192-0.054 0.421 0.097 0.571l2.121 2.121c0.15 0.151 0.381 0.189 0.571 0.096l2.060-0.997c0.386-0.187 0.834-0.199 1.228-0.036 0.395 0.164 0.702 0.489 0.842 0.893l0.752 2.161c0.069 0.201 0.258 0.336 0.471 0.336h3c0.213 0 0.402-0.135 0.473-0.336l0.752-2.161c0.14-0.404 0.447-0.729 0.842-0.893 0.394-0.163 0.842-0.151 1.228 0.036l2.060 0.997c0.19 0.092 0.422 0.054 0.571-0.096l2.121-2.121c0.15-0.151 0.189-0.38 0.097-0.571l-0.996-2.060c-0.187-0.385-0.2-0.832-0.036-1.227s0.489-0.702 0.893-0.843l2.161-0.752c0.199-0.071 0.334-0.26 0.334-0.473v-3c0-0.213-0.135-0.402-0.336-0.472zM27 17.145l-1.825 0.635c-0.674 0.234-1.216 0.746-1.488 1.405s-0.251 1.404 0.060 2.045l0.842 1.74-1.619 1.618-1.739-0.842c-0.643-0.311-1.388-0.332-2.046-0.059s-1.17 0.815-1.404 1.488l-0.636 1.825h-2.289l-0.635-1.825c-0.234-0.673-0.746-1.216-1.404-1.488-0.658-0.273-1.405-0.251-2.046 0.059l-1.739 0.842-1.619-1.618 0.842-1.739c0.311-0.642 0.332-1.387 0.060-2.046s-0.814-1.17-1.488-1.405l-1.827-0.635v-2.289l1.825-0.635c0.674-0.234 1.216-0.746 1.488-1.405s0.251-1.404-0.060-2.045l-0.842-1.74 1.619-1.618 1.739 0.842c0.641 0.311 1.388 0.332 2.046 0.059s1.17-0.815 1.404-1.488l0.636-1.826h2.289l0.635 1.825c0.234 0.673 0.746 1.216 1.404 1.488s1.403 0.251 2.046-0.059l1.739-0.842 1.619 1.618-0.842 1.739c-0.311 0.642-0.332 1.387-0.060 2.046s0.814 1.17 1.488 1.405l1.827 0.635v2.29z"></path>
<path d="M16 12c-2.206 0-4 1.794-4 4s1.794 4 4 4 4-1.794 4-4-1.794-4-4-4zM16 19c-1.654 0-3-1.346-3-3s1.346-3 3-3 3 1.346 3 3-1.346 3-3 3z"></path>
</svg>
