<svg version="1.1" xmlns="http://www.w3.org/2000/svg" width="32" height="32" viewBox="0 0 32 32">
<title>gift</title>
<path d="M27.5 12h-8.882l4.74-2.37c1.013-0.506 1.642-1.524 1.642-2.66 0-1.637-1.332-2.97-2.974-2.97-1.133 0-2.15 0.629-2.656 1.642l-2.87 5.74-2.87-5.74c-0.506-1.013-1.524-1.642-2.66-1.642-1.638 0-2.97 1.333-2.97 2.974 0 1.132 0.629 2.15 1.642 2.656l4.74 2.37h-8.882c-0.276 0-0.5 0.224-0.5 0.5v16c0 0.276 0.224 0.5 0.5 0.5h22c0.276 0 0.5-0.224 0.5-0.5v-16c0-0.276-0.224-0.5-0.5-0.5zM27 20h-10v-7h10v7zM20.265 6.089c0.336-0.672 1.010-1.089 1.765-1.089 1.086 0 1.97 0.884 1.97 1.974 0 0.751-0.417 1.426-1.089 1.762l-5.293 2.646 2.647-5.293zM9 6.97c0-1.086 0.884-1.97 1.974-1.97 0.751 0 1.426 0.417 1.762 1.089l2.646 5.293-5.293-2.646c-0.672-0.337-1.089-1.011-1.089-1.766zM16 13v7h-10v-7h10zM6 21h10v7h-10v-7zM17 28v-7h10v7h-10z"></path>
</svg>
