<svg version="1.1" xmlns="http://www.w3.org/2000/svg" width="32" height="32" viewBox="0 0 32 32">
<title>glasses</title>
<path d="M28 11.813c0-2.27-0.884-4.405-2.489-6.010l-1.657-1.657c-0.195-0.195-0.512-0.195-0.707 0s-0.195 0.512 0 0.707l1.657 1.657c1.416 1.417 2.196 3.301 2.196 5.303v8.217c-0.912-1.224-2.359-2.030-4-2.030-1.833 0-3.422 1.003-4.293 2.479-1.67-0.625-3.744-0.625-5.415 0-0.87-1.476-2.459-2.479-4.292-2.479-1.641 0-3.088 0.806-4 2.031v-8.217c0-2.003 0.78-3.887 2.196-5.304l1.657-1.657c0.195-0.195 0.195-0.512 0-0.707s-0.512-0.195-0.707 0l-1.657 1.657c-1.605 1.606-2.489 3.74-2.489 6.010v11.169c0 0.002 0.001 0.004 0.001 0.006 0 0.005-0.001 0.008-0.001 0.012 0 2.757 2.243 5 5 5s5-2.243 5-5c0-0.567-0.115-1.103-0.29-1.611 1.405-0.503 3.175-0.503 4.58 0-0.175 0.508-0.29 1.044-0.29 1.611 0 2.757 2.243 5 5 5s5-2.243 5-5c0-0.004-0.001-0.007-0.001-0.011 0-0.002 0.001-0.004 0.001-0.006v-11.17zM9 27c-2.206 0-4-1.794-4-4s1.794-4 4-4 4 1.794 4 4-1.794 4-4 4zM23 27c-2.206 0-4-1.794-4-4s1.794-4 4-4 4 1.794 4 4-1.794 4-4 4z"></path>
</svg>
