<svg version="1.1" xmlns="http://www.w3.org/2000/svg" width="32" height="32" viewBox="0 0 32 32">
<title>glass</title>
<path d="M25 11.053c0-1.436-0.3-4.817-0.765-8.614-0.030-0.251-0.243-0.439-0.496-0.439h-14.478c-0.253 0-0.466 0.188-0.496 0.439-0.465 3.797-0.765 7.178-0.765 8.614 0 4.224 3.546 7.679 8 7.923v7.084c-0.576 0.078-1.132 0.289-1.6 0.64l-3.2 2.4c-0.172 0.129-0.242 0.354-0.175 0.558 0.069 0.204 0.26 0.342 0.475 0.342h10c0.215 0 0.406-0.138 0.475-0.342 0.067-0.204-0.003-0.429-0.175-0.558l-3.2-2.4c-0.467-0.351-1.024-0.562-1.6-0.64v-7.084c4.454-0.244 8-3.699 8-7.923zM9 11.053c0-1.344 0.274-4.474 0.704-8.053h13.592c0.43 3.579 0.704 6.709 0.704 8.053 0 3.831-3.364 6.947-7.5 6.947s-7.5-3.116-7.5-6.947zM20 29h-7l2-1.5c0.873-0.654 2.127-0.654 3 0l2 1.5z"></path>
<path d="M13.14 6.204c-0.27-0.028-0.521 0.169-0.55 0.444-0.248 2.332-0.39 4.186-0.39 5.085 0 0.276 0.224 0.5 0.5 0.5s0.5-0.224 0.5-0.5c0-0.854 0.144-2.715 0.384-4.98 0.029-0.274-0.17-0.52-0.444-0.549z"></path>
</svg>
