<svg version="1.1" xmlns="http://www.w3.org/2000/svg" width="32" height="32" viewBox="0 0 32 32">
<title>globe</title>
<path d="M16.5 5c-6.341 0-11.5 5.159-11.5 11.5s5.159 11.5 11.5 11.5 11.5-5.159 11.5-11.5-5.159-11.5-11.5-11.5zM13.86 22.231c0.863-0.148 1.744-0.231 2.64-0.231 0.895 0 1.776 0.083 2.638 0.23-0.902 2.116-2.056 3.733-2.638 4.48-0.584-0.746-1.738-2.362-2.64-4.479zM16.5 21c-1.022 0-2.028 0.1-3.011 0.28-0.468-1.301-0.808-2.75-0.872-4.28h7.764c-0.063 1.529-0.404 2.979-0.873 4.28-0.981-0.18-1.987-0.28-3.008-0.28zM19.14 10.769c-0.863 0.148-1.744 0.231-2.64 0.231-0.895 0-1.776-0.083-2.638-0.23 0.902-2.116 2.056-3.733 2.638-4.48 0.584 0.746 1.738 2.362 2.64 4.479zM16.5 12c1.022 0 2.028-0.1 3.011-0.28 0.468 1.301 0.808 2.75 0.872 4.28h-7.764c0.063-1.529 0.404-2.979 0.873-4.28 0.981 0.18 1.987 0.28 3.008 0.28zM11.621 16h-5.596c0.11-2.331 0.972-4.469 2.365-6.161 1.275 0.746 2.657 1.305 4.108 1.666-0.476 1.362-0.816 2.88-0.877 4.495zM11.621 17c0.061 1.615 0.401 3.133 0.877 4.495-1.451 0.361-2.833 0.92-4.108 1.666-1.392-1.692-2.254-3.83-2.365-6.161h5.596zM21.379 17h5.595c-0.11 2.331-0.972 4.469-2.365 6.161-1.275-0.746-2.657-1.305-4.108-1.666 0.477-1.362 0.817-2.88 0.878-4.495zM21.379 16c-0.061-1.615-0.401-3.133-0.877-4.495 1.451-0.361 2.833-0.92 4.108-1.666 1.393 1.692 2.254 3.83 2.365 6.161h-5.596zM23.923 9.081c-1.176 0.665-2.446 1.162-3.779 1.483-0.827-2.006-1.873-3.587-2.56-4.507 2.464 0.253 4.678 1.362 6.339 3.024zM15.416 6.056c-0.687 0.92-1.732 2.501-2.56 4.507-1.333-0.321-2.603-0.818-3.779-1.483 1.661-1.661 3.875-2.77 6.339-3.024zM9.077 23.919c1.176-0.665 2.446-1.162 3.779-1.483 0.827 2.006 1.873 3.587 2.56 4.507-2.464-0.253-4.678-1.362-6.339-3.024zM17.584 26.944c0.687-0.92 1.732-2.501 2.56-4.507 1.333 0.321 2.603 0.818 3.779 1.483-1.661 1.661-3.875 2.77-6.339 3.024z"></path>
</svg>
