<svg version="1.1" xmlns="http://www.w3.org/2000/svg" width="32" height="32" viewBox="0 0 32 32">
<title>h-square</title>
<path d="M26.5 4h-21c-0.827 0-1.5 0.673-1.5 1.5v21c0 0.827 0.673 1.5 1.5 1.5h21c0.827 0 1.5-0.673 1.5-1.5v-21c0-0.827-0.673-1.5-1.5-1.5zM27 26.5c0 0.276-0.224 0.5-0.5 0.5h-21c-0.276 0-0.5-0.224-0.5-0.5v-21c0-0.276 0.224-0.5 0.5-0.5h21c0.276 0 0.5 0.224 0.5 0.5v21z"></path>
<path d="M21.5 8h-3c-0.276 0-0.5 0.224-0.5 0.5v5.5h-4v-5.5c0-0.276-0.224-0.5-0.5-0.5h-3c-0.276 0-0.5 0.224-0.5 0.5v15c0 0.276 0.224 0.5 0.5 0.5h3c0.276 0 0.5-0.224 0.5-0.5v-5.5h4v5.5c0 0.276 0.224 0.5 0.5 0.5h3c0.276 0 0.5-0.224 0.5-0.5v-15c0-0.276-0.224-0.5-0.5-0.5zM21 23h-2v-5.5c0-0.276-0.224-0.5-0.5-0.5h-5c-0.276 0-0.5 0.224-0.5 0.5v5.5h-2v-14h2v5.5c0 0.276 0.224 0.5 0.5 0.5h5c0.276 0 0.5-0.224 0.5-0.5v-5.5h2v14z"></path>
</svg>
