<svg version="1.1" xmlns="http://www.w3.org/2000/svg" width="32" height="32" viewBox="0 0 32 32">
<title>hand-stop-o</title>
<path d="M22.979 20.476c0.452-1.023 0.919-2.081 1.021-3.976v-8.5c0-1.103-0.897-2-2-2-0.364 0-0.706 0.098-1 0.268v-0.268c0-1.103-0.897-2-2-2-0.364 0-0.706 0.098-1 0.268v-0.268c0-1.103-0.897-2-2-2-0.871 0-1.614 0.56-1.888 1.339-0.318-0.214-0.7-0.339-1.112-0.339-1.103 0-2 0.897-2 2v6.701c-0.634-0.644-1.517-1.053-2.492-1.069-0.131-0.002-0.263 0.049-0.359 0.143s-0.149 0.223-0.149 0.357l0.003 7.424c0.213 1.897 1.177 2.952 2.108 3.973 0.672 0.736 1.293 1.457 1.628 2.471h-1.239c-0.276 0-0.5 0.224-0.5 0.5v4c0 0.276 0.224 0.5 0.5 0.5s0.5-0.224 0.5-0.5v-3.5h11v3.5c0 0.276 0.224 0.5 0.5 0.5s0.5-0.224 0.5-0.5v-4c0-0.276-0.224-0.5-0.5-0.5h-0.474v-0.49c0.039-1.965 0.483-2.97 0.953-4.034zM12.799 25c-0.363-1.396-1.166-2.287-1.95-3.146-0.861-0.944-1.675-1.835-1.849-3.354v-6.809c1.14 0.248 2 1.247 2 2.423 0 0.068 0.014 0.134 0.039 0.193-0.025 0.059-0.039 0.125-0.039 0.193v2.091c0 0.728 0.528 1.347 1.255 1.473 1.134 0.195 2.144 0.825 2.843 1.773 0.098 0.133 0.25 0.203 0.403 0.203 0.103 0 0.207-0.032 0.296-0.098 0.222-0.164 0.27-0.477 0.105-0.699-0.853-1.157-2.088-1.925-3.478-2.165-0.245-0.042-0.424-0.247-0.424-0.487v-2.091c0-0.068-0.014-0.134-0.039-0.193 0.025-0.060 0.039-0.125 0.039-0.193v-9.114c0-0.551 0.449-1 1-1s1 0.449 1 1v9.5c0 0.276 0.224 0.5 0.5 0.5s0.5-0.224 0.5-0.5v-10.5c0-0.551 0.449-1 1-1s1 0.449 1 1v10.5c0 0.276 0.224 0.5 0.5 0.5s0.5-0.224 0.5-0.5v-8.5c0-0.551 0.449-1 1-1s1 0.449 1 1v8.5c0 0.276 0.224 0.5 0.5 0.5s0.5-0.224 0.5-0.5v-6.5c0-0.551 0.449-1 1-1s1 0.449 1 1v8.473c-0.091 1.685-0.501 2.614-0.937 3.599-0.489 1.108-0.995 2.253-1.038 4.428v0.5h-8.226z"></path>
</svg>
