<svg version="1.1" xmlns="http://www.w3.org/2000/svg" width="32" height="32" viewBox="0 0 32 32">
<title>hand-o-left</title>
<path d="M29.5 23h-3.5v-12h3.5c0.276 0 0.5-0.224 0.5-0.5s-0.224-0.5-0.5-0.5h-4c-0.276 0-0.5 0.224-0.5 0.5v1.5h-0.173c-1.016 0-1.833-0.543-2.354-1.011l-7.729-6.876c-0.2-0.178-0.505-0.167-0.692 0.026-1.48 1.531-1.459 4.001 0.038 5.497l1.296 1.364h-11.386c-1.103 0-2 0.897-2 2s0.897 2 2 2h5.269c-0.171 0.294-0.269 0.636-0.269 1 0 0.871 0.56 1.614 1.339 1.888-0.214 0.318-0.339 0.701-0.339 1.112 0 0.871 0.56 1.614 1.339 1.888-0.214 0.318-0.339 0.701-0.339 1.112 0 1.103 0.897 2 2 2h6.491c1.256 0 2.42-0.511 3.28-1.44 0.334-0.361 0.749-0.56 1.169-0.56h1.060v1.5c0 0.276 0.224 0.5 0.5 0.5h4c0.276 0 0.5-0.224 0.5-0.5s-0.224-0.5-0.5-0.5zM23.94 21c-0.702 0-1.377 0.313-1.903 0.88-0.668 0.722-1.572 1.12-2.546 1.12h-6.491c-0.552 0-1-0.449-1-1s0.448-1 1-1c0.276 0 0.5-0.224 0.5-0.5s-0.224-0.5-0.5-0.5h-1c-0.552 0-1-0.449-1-1s0.448-1 1-1c0.276 0 0.5-0.224 0.5-0.5s-0.224-0.5-0.5-0.5h-1c-0.552 0-1-0.449-1-1s0.448-1 1-1c0.276 0 0.5-0.224 0.5-0.5s-0.224-0.5-0.5-0.5h-7c-0.552 0-1-0.449-1-1s0.448-1 1-1h12.55c0.2 0 0.38-0.119 0.459-0.303s0.041-0.397-0.097-0.542l-2.106-2.217c-1.007-1.007-1.123-2.594-0.338-3.733l7.351 6.54c0.913 0.821 1.953 1.255 3.008 1.255h0.173v8h-1.060z"></path>
</svg>
