<svg version="1.1" xmlns="http://www.w3.org/2000/svg" width="32" height="32" viewBox="0 0 32 32">
<title>hand-rock-o</title>
<path d="M21.56 22.771c0.929-0.86 1.44-2.024 1.44-3.28v-7.491c0-1.103-0.897-2-2-2-0.412 0-0.794 0.125-1.112 0.339-0.274-0.779-1.017-1.339-1.888-1.339-0.412 0-0.794 0.125-1.112 0.339-0.274-0.779-1.017-1.339-1.888-1.339s-1.614 0.56-1.888 1.339c-0.318-0.214-0.7-0.339-1.112-0.339-1.103 0-2 0.897-2 2v2h-1c-1.103 0-2 0.897-2 2v2.402c0 1.104 0.404 2.167 1.138 2.991l1.86 2.091c0.515 0.585 0.942 1.701 0.985 2.516h-1.483c-0.276 0-0.5 0.224-0.5 0.5v4c0 0.276 0.224 0.5 0.5 0.5s0.5-0.224 0.5-0.5v-3.5h12v3.5c0 0.276 0.224 0.5 0.5 0.5s0.5-0.224 0.5-0.5v-4c0-0.276-0.224-0.5-0.5-0.5h-1.5v-1.060c0-0.42 0.199-0.835 0.56-1.169zM11.992 25c-0.043-1.047-0.571-2.414-1.255-3.191l-1.851-2.081c-0.572-0.641-0.886-1.468-0.886-2.326v-2.402c0-0.551 0.449-1 1-1h1v2.55c0 0.276 0.224 0.5 0.5 0.5s0.5-0.224 0.5-0.5v-5.55c0-0.551 0.449-1 1-1s1 0.449 1 1c0 0.276 0.224 0.5 0.5 0.5s0.5-0.224 0.5-0.5v-1c0-0.551 0.449-1 1-1s1 0.449 1 1v1c0 0.276 0.224 0.5 0.5 0.5s0.5-0.224 0.5-0.5c0-0.551 0.449-1 1-1s1 0.449 1 1v1c0 0.276 0.224 0.5 0.5 0.5s0.5-0.224 0.5-0.5c0-0.551 0.449-1 1-1s1 0.449 1 1v7.491c0 0.974-0.397 1.878-1.12 2.546-0.568 0.526-0.88 1.201-0.88 1.903v1.060h-8.008z"></path>
</svg>
