<svg version="1.1" xmlns="http://www.w3.org/2000/svg" width="32" height="32" viewBox="0 0 32 32">
<title>hand-scissors-o</title>
<path d="M29.5 22h-3.5v-12h3.5c0.276 0 0.5-0.224 0.5-0.5s-0.224-0.5-0.5-0.5h-4c-0.276 0-0.5 0.224-0.5 0.5v1.42c-1.085-0.173-1.834-0.502-2.597-0.859-1.004-0.469-2.042-0.955-3.903-1.061h-1.875c-0.811 0-1.592 0.222-2.272 0.62l-9.005-1.588c-1.088-0.192-2.125 0.536-2.317 1.622-0.093 0.526 0.024 1.057 0.331 1.495s0.765 0.73 1.291 0.822l6.951 1.226-0.277 0.479-7.674 1.353c-0.526 0.093-0.984 0.385-1.291 0.822-0.307 0.438-0.424 0.969-0.331 1.495 0.171 0.969 1.017 1.653 1.969 1.653 0.115 0 0.231-0.010 0.348-0.031l5.655-0.997c0 0.010-0.003 0.019-0.003 0.029 0 0.872 0.564 1.607 1.344 1.88-0.217 0.32-0.344 0.705-0.344 1.12 0 1.103 0.897 2 2 2h4.5c0.39 0 0.752-0.117 1.060-0.311 0.741-0.196 1.336-0.455 1.915-0.71 1.064-0.47 2.069-0.914 4.024-0.952h0.501v1.473c0 0.276 0.224 0.5 0.5 0.5h4c0.276 0 0.5-0.224 0.5-0.5s-0.224-0.5-0.5-0.5zM4.827 10.986c-0.263-0.046-0.492-0.192-0.646-0.411-0.153-0.219-0.212-0.484-0.166-0.747 0.096-0.543 0.611-0.908 1.159-0.811l8.151 1.437c-0.224 0.242-0.429 0.504-0.597 0.796l-0.592 1.025-7.309-1.289zM4.174 17.983c-0.545 0.096-1.062-0.268-1.159-0.811-0.046-0.263 0.013-0.528 0.166-0.747s0.382-0.365 0.646-0.411l6.848-1.207-0.607 1.052c-0.067 0.116-0.084 0.254-0.049 0.383s0.122 0.239 0.239 0.304c0.085 0.047 0.174 0.084 0.261 0.124-0.065 0.073-0.13 0.146-0.184 0.228l-6.161 1.085zM11 18c0-0.551 0.449-1 1-1h4.5c0.551 0 1 0.449 1 1s-0.449 1-1 1h-4.5c-0.551 0-1-0.449-1-1zM12 21c0-0.551 0.449-1 1-1h4.5c0.551 0 1 0.449 1 1 0 0.32-0.161 0.592-0.395 0.776-0.463 0.109-0.989 0.19-1.623 0.224h-3.482c-0.551 0-1-0.449-1-1zM24.49 20.027c-2.166 0.042-3.311 0.548-4.419 1.038-0.201 0.089-0.401 0.176-0.604 0.26 0.018-0.107 0.033-0.214 0.033-0.325 0-0.872-0.564-1.607-1.344-1.88 0.217-0.32 0.344-0.705 0.344-1.12 0-1.103-0.897-2-2-2h-2.041c0.215-0.211 0.406-0.453 0.562-0.724l1.085-1.88 1.133-0.453c0.61 1.802 2.316 3.057 4.261 3.057 0.276 0 0.5-0.224 0.5-0.5s-0.224-0.5-0.5-0.5c-1.669 0-3.112-1.189-3.432-2.827-0.028-0.146-0.121-0.272-0.251-0.343s-0.288-0.080-0.425-0.025l-1.816 0.727c-0.104 0.042-0.191 0.117-0.248 0.214l-1.172 2.030c-0.588 1.018-1.83 1.454-2.943 1.098l2.381-4.124c0.623-1.079 1.784-1.75 3.031-1.75l1.847-0.001c1.64 0.094 2.548 0.519 3.509 0.968 0.834 0.39 1.698 0.79 3.020 0.975v8.084l-0.511 0.001z"></path>
</svg>
