<svg version="1.1" xmlns="http://www.w3.org/2000/svg" width="32" height="32" viewBox="0 0 32 32">
<title>hand-lizard-o</title>
<path d="M26.5 24h-2.477c0.081-2.802 0.506-4.332 0.961-5.929 0.442-1.554 0.899-3.162 0.997-5.981 0.030-0.871-0.399-1.708-1.121-2.186l-8.049-5.324c-0.901-0.596-2.006-0.743-3.032-0.403l-8.436 2.798c-0.255 0.084-0.398 0.354-0.323 0.612 0.585 2.046 2.736 3.264 4.779 2.716l5.283-1.27 3.651 2.921c0.169 0.135 0.267 0.338 0.267 0.556 0 0.158-0.054 0.314-0.151 0.438l-0.686 0.88c-0.249 0.318-0.606 0.52-1.007 0.567-0.399 0.048-0.795-0.065-1.111-0.316l-3.434-2.734c-1.63-1.369-4.093-1.174-5.489 0.434-0.176 0.202-0.161 0.508 0.034 0.691l5.246 4.95c0.392 0.37 0.693 0.876 0.895 1.504 0.31 0.962 0.814 1.64 1.301 2.296 0.586 0.788 1.143 1.539 1.33 2.779h-2.428c-0.276 0-0.5 0.224-0.5 0.5v4c0 0.276 0.224 0.5 0.5 0.5s0.5-0.224 0.5-0.5v-3.499h12v2.5c0 0.276 0.224 0.5 0.5 0.5s0.5-0.224 0.5-0.5v-3c0-0.276-0.224-0.5-0.5-0.5zM23.022 24h-6.089c-0.198-1.568-0.872-2.49-1.531-3.376-0.459-0.617-0.893-1.201-1.152-2.005-0.254-0.79-0.645-1.438-1.161-1.925l-4.868-4.594c1.067-0.88 2.658-0.903 3.758 0.020l3.444 2.742c0.526 0.419 1.185 0.606 1.852 0.527s1.264-0.415 1.678-0.945l0.686-0.88c0.233-0.3 0.361-0.674 0.361-1.054 0-0.523-0.234-1.011-0.643-1.338l-3.843-3.074c-0.121-0.097-0.28-0.132-0.429-0.096l-5.533 1.331c-1.374 0.369-2.807-0.324-3.402-1.573l7.942-2.633c0.732-0.243 1.521-0.138 2.166 0.288l8.049 5.323c0.434 0.287 0.692 0.792 0.674 1.317-0.094 2.698-0.515 4.177-0.96 5.742-0.453 1.593-0.915 3.253-0.999 6.203z"></path>
</svg>
