<svg version="1.1" xmlns="http://www.w3.org/2000/svg" width="32" height="32" viewBox="0 0 32 32">
<title>handshake-o</title>
<path d="M29.5 19h-3.172c-0.668 0-1.295 0.26-1.768 0.732l-0.914 0.914c-0.249 0.249-0.647 0.324-0.948 0.344l-5.137-5.137c-0.584-0.585-1.537-0.585-2.121 0l-1.465 1.464c-1.262 1.261-3.425 1.332-4.761 0.175l8.054-8.054c0.279-0.278 0.666-0.438 1.060-0.438h3.93c0.658 0 1.303 0.267 1.768 0.732 0.817 0.818 1.904 1.268 3.060 1.268h2.414c0.276 0 0.5-0.224 0.5-0.5s-0.224-0.5-0.5-0.5h-2.414c-0.889 0-1.725-0.346-2.354-0.975-0.651-0.651-1.552-1.025-2.474-1.025h-3.93c-0.668 0-1.295 0.26-1.768 0.732l-0.56 0.561-0.561-0.561c-0.472-0.472-1.099-0.732-1.767-0.732h-1.464c-0.54 0-1.082 0.128-1.565 0.37l-2.522 1.26c-0.483 0.242-1.024 0.37-1.565 0.37h-4.056c-0.276 0-0.5 0.224-0.5 0.5s0.224 0.5 0.5 0.5h4.056c0.695 0 1.391-0.164 2.013-0.475l2.521-1.261c0.346-0.173 0.732-0.264 1.118-0.264h1.464c0.395 0 0.781 0.16 1.061 0.439l0.56 0.561-7.146 7.146c-0.094 0.094-0.147 0.222-0.147 0.354s0.053 0.26 0.146 0.354l0.172 0.171c0.85 0.85 1.979 1.318 3.182 1.318s2.332-0.468 3.182-1.318l1.465-1.464c0.195-0.195 0.512-0.195 0.707 0l5.128 5.128c-0.041 0.329-0.183 0.634-0.421 0.872-0.284 0.283-0.661 0.439-1.061 0.439-0.276 0-0.5 0.224-0.5 0.5 0 0.4-0.156 0.777-0.439 1.061s-0.661 0.439-1.061 0.439c-0.276 0-0.5 0.224-0.5 0.5 0 0.4-0.156 0.777-0.439 1.061s-0.661 0.439-1.061 0.439h-0.758c-0.658 0-1.303-0.267-1.768-0.732l-5.949-5.95c-0.849-0.85-1.98-1.318-3.182-1.318h-2.343c-0.276 0-0.5 0.224-0.5 0.5s0.224 0.5 0.5 0.5h2.343c0.936 0 1.814 0.364 2.476 1.025l5.949 5.95c0.651 0.651 1.552 1.025 2.474 1.025h0.758c0.668 0 1.295-0.26 1.768-0.732 0.362-0.362 0.6-0.816 0.69-1.309 0.493-0.091 0.947-0.329 1.31-0.691s0.6-0.816 0.69-1.309c0.493-0.091 0.947-0.329 1.31-0.691 0.358-0.359 0.595-0.807 0.688-1.294 0.472-0.058 1-0.221 1.398-0.62l0.914-0.914c0.279-0.28 0.666-0.44 1.060-0.44h3.172c0.276 0 0.5-0.224 0.5-0.5s-0.224-0.5-0.5-0.5z"></path>
</svg>
