<svg version="1.1" xmlns="http://www.w3.org/2000/svg" width="32" height="32" viewBox="0 0 32 32">
<title>hand-o-right</title>
<path d="M28 11h-11.386l1.286-1.354c1.505-1.506 1.526-3.976 0.046-5.506-0.187-0.193-0.492-0.204-0.692-0.026l-7.742 6.888c-0.506 0.455-1.324 0.998-2.339 0.998h-0.173v-1.5c0-0.276-0.224-0.5-0.5-0.5h-4c-0.276 0-0.5 0.224-0.5 0.5s0.224 0.5 0.5 0.5h3.5v12h-3.5c-0.276 0-0.5 0.224-0.5 0.5s0.224 0.5 0.5 0.5h4c0.276 0 0.5-0.224 0.5-0.5v-1.5h1.060c0.42 0 0.835 0.199 1.169 0.56 0.859 0.929 2.024 1.44 3.28 1.44h6.491c1.103 0 2-0.897 2-2 0-0.411-0.125-0.794-0.339-1.112 0.779-0.274 1.339-1.017 1.339-1.888 0-0.411-0.125-0.794-0.339-1.112 0.779-0.274 1.339-1.017 1.339-1.888 0-0.364-0.098-0.706-0.269-1h5.269c1.103 0 2-0.897 2-2s-0.897-2-2-2zM28 14h-7c-0.276 0-0.5 0.224-0.5 0.5s0.224 0.5 0.5 0.5c0.552 0 1 0.449 1 1s-0.448 1-1 1h-1c-0.276 0-0.5 0.224-0.5 0.5s0.224 0.5 0.5 0.5c0.552 0 1 0.449 1 1s-0.448 1-1 1h-1c-0.276 0-0.5 0.224-0.5 0.5s0.224 0.5 0.5 0.5c0.552 0 1 0.449 1 1s-0.448 1-1 1h-6.491c-0.974 0-1.878-0.398-2.546-1.12-0.525-0.567-1.201-0.88-1.903-0.88h-1.060v-8h0.173c1.055 0 2.095-0.434 3.019-1.264l7.34-6.531c0.784 1.139 0.667 2.727-0.348 3.742l-2.097 2.208c-0.138 0.145-0.176 0.358-0.097 0.542s0.26 0.303 0.46 0.303h12.55c0.552 0 1 0.449 1 1s-0.448 1-1 1z"></path>
</svg>
