<svg version="1.1" xmlns="http://www.w3.org/2000/svg" width="32" height="32" viewBox="0 0 32 32">
<title>hand-spock-o</title>
<path d="M25.651 8.516c-0.267-0.463-0.698-0.794-1.214-0.932-0.345-0.092-0.7-0.091-1.035-0.001l0.586-2.189c0.152-0.567 0.048-1.17-0.286-1.654-0.333-0.484-0.864-0.796-1.456-0.856-0.967-0.098-1.879 0.569-2.142 1.55l-2.269 8.468-2.503-9.341c-0.263-0.982-1.196-1.648-2.143-1.552-0.591 0.060-1.122 0.371-1.456 0.855s-0.438 1.087-0.286 1.655l0.069 0.259c-0.328-0.089-0.684-0.094-1.035 0-0.514 0.137-0.945 0.468-1.212 0.931-0.268 0.462-0.339 1.001-0.201 1.517l2.306 8.605c0.056 0.21-0.013 0.433-0.167 0.543-0.127 0.090-0.251 0.185-0.372 0.282-0.193 0.155-0.471 0.139-0.65-0.037l-1.54-1.52c-1.506-1.505-3.975-1.526-5.506-0.046-0.192 0.186-0.204 0.492-0.026 0.692l6.883 7.736c0.42 0.467 0.712 0.984 0.864 1.519h-1.36c-0.276 0-0.5 0.224-0.5 0.5v4c0 0.276 0.224 0.5 0.5 0.5s0.5-0.224 0.5-0.5v-3.5h12v3.5c0 0.276 0.224 0.5 0.5 0.5s0.5-0.224 0.5-0.5v-4c0-0.276-0.224-0.5-0.5-0.5h-0.367c0.222-1.515 0.519-3.028 0.915-4.504l2.803-10.462c0.139-0.516 0.068-1.055-0.2-1.518zM24.885 9.775l-2.803 10.462c-0.418 1.561-0.734 3.162-0.962 4.763h-9.244c-0.166-0.779-0.545-1.528-1.135-2.185l-6.536-7.346c1.139-0.784 2.726-0.669 3.735 0.341l1.542 1.522c0.542 0.535 1.394 0.579 1.982 0.102 0.104-0.085 0.211-0.166 0.321-0.244 0.496-0.353 0.718-1.003 0.553-1.617l-2.306-8.605c-0.067-0.259-0.032-0.528 0.102-0.759s0.349-0.397 0.607-0.466c0.531-0.142 1.081 0.173 1.224 0.704l0.001 0.003 2.144 8c0.060 0.223 0.262 0.371 0.482 0.371 0.043 0 0.086-0.006 0.13-0.017 0.267-0.071 0.425-0.346 0.354-0.612l-2.144-8c0 0 0 0 0 0l-0.518-1.932c-0.076-0.284-0.024-0.586 0.144-0.828 0.169-0.245 0.43-0.398 0.732-0.428 0.471-0.047 0.939 0.303 1.077 0.816l2.503 9.341c0.119 0.443 0.507 0.741 0.966 0.741s0.847-0.298 0.966-0.741l2.269-8.468c0.137-0.512 0.592-0.862 1.075-0.814 0.304 0.031 0.564 0.183 0.734 0.429 0.167 0.242 0.219 0.543 0.143 0.827l-1.035 3.861c0 0 0 0 0 0l-1.392 5.195c-0.071 0.267 0.087 0.541 0.354 0.612 0.043 0.012 0.087 0.017 0.13 0.017 0.221 0 0.423-0.147 0.482-0.371l1.391-5.192c0 0 0 0 0-0.001v0c0.069-0.258 0.235-0.474 0.466-0.607 0.232-0.134 0.502-0.169 0.759-0.1s0.474 0.235 0.607 0.466c0.134 0.232 0.17 0.502 0.1 0.76z"></path>
</svg>
