<svg version="1.1" xmlns="http://www.w3.org/2000/svg" width="32" height="32" viewBox="0 0 32 32">
<title>hand-peace-o</title>
<path d="M21.979 20.476c0.255-0.579 0.514-1.174 0.71-1.915 0.194-0.309 0.311-0.671 0.311-1.061v-4.5c0-1.103-0.897-2-2-2-0.415 0-0.8 0.127-1.12 0.344-0.273-0.78-1.008-1.344-1.88-1.344-0.010 0-0.019 0.003-0.029 0.003l0.997-5.655c0.093-0.526-0.024-1.057-0.331-1.494-0.307-0.438-0.765-0.73-1.291-0.823-0.524-0.093-1.057 0.025-1.495 0.331s-0.729 0.765-0.822 1.291l-1.354 7.674-0.479 0.277-1.226-6.951c-0.092-0.526-0.384-0.984-0.822-1.291s-0.968-0.424-1.495-0.331c-0.525 0.092-0.983 0.385-1.29 0.822s-0.424 0.969-0.331 1.495l1.588 9.005c-0.398 0.679-0.62 1.461-0.62 2.272l0.001 1.904c0.105 1.832 0.591 2.87 1.061 3.875 0.357 0.763 0.686 1.512 0.859 2.597h-1.421c-0.276-0.001-0.5 0.223-0.5 0.499v4c0 0.276 0.224 0.5 0.5 0.5s0.5-0.224 0.5-0.5v-3.5h12v3.5c0 0.276 0.224 0.5 0.5 0.5s0.5-0.224 0.5-0.5v-4c0-0.276-0.224-0.5-0.5-0.5h-1.474v-0.49c0.039-1.965 0.483-2.97 0.953-4.034zM21 12c0.551 0 1 0.449 1 1v3.485c-0.035 0.632-0.115 1.157-0.224 1.619-0.183 0.235-0.456 0.396-0.776 0.396-0.551 0-1-0.449-1-1v-4.5c0-0.551 0.449-1 1-1zM19 12v4.5c0 0.551-0.449 1-1 1s-1-0.449-1-1v-4.5c0-0.551 0.449-1 1-1s1 0.449 1 1zM16.014 3.826c0.046-0.263 0.192-0.492 0.412-0.645s0.485-0.212 0.747-0.166c0.263 0.046 0.492 0.193 0.646 0.411s0.212 0.484 0.166 0.747l-1.086 6.16c-0.085 0.056-0.161 0.123-0.236 0.191-0.040-0.089-0.068-0.181-0.116-0.268-0.065-0.117-0.174-0.203-0.304-0.239s-0.268-0.018-0.383 0.049l-1.052 0.607 1.206-6.847zM9.183 4.427c0.153-0.219 0.382-0.365 0.646-0.412 0.262-0.046 0.528 0.012 0.747 0.166 0.219 0.153 0.365 0.383 0.412 0.646l1.289 7.309-1.025 0.592c-0.292 0.168-0.554 0.373-0.796 0.597l-1.439-8.151c-0.047-0.263 0.012-0.528 0.166-0.747zM11.943 25c-0.185-1.321-0.585-2.186-0.975-3.020-0.449-0.961-0.874-1.869-0.967-3.48v-1.875c0-1.247 0.67-2.408 1.75-3.031l4.124-2.381c0.355 1.112-0.080 2.356-1.099 2.943l-2.030 1.172c-0.097 0.056-0.172 0.143-0.214 0.247l-0.727 1.816c-0.055 0.138-0.046 0.294 0.025 0.425s0.197 0.223 0.343 0.252c1.638 0.32 2.827 1.763 2.827 3.432 0 0.276 0.224 0.5 0.5 0.5s0.5-0.224 0.5-0.5c0-1.945-1.255-3.651-3.058-4.26l0.453-1.132 1.88-1.086c0.277-0.16 0.511-0.363 0.725-0.584v2.062c0 1.103 0.897 2 2 2 0.415 0 0.8-0.127 1.12-0.344 0.273 0.78 1.009 1.344 1.88 1.344 0.111 0 0.218-0.015 0.324-0.033-0.084 0.203-0.171 0.403-0.26 0.604-0.489 1.108-0.995 2.253-1.038 4.428v0.501h-8.083z"></path>
</svg>
