<svg version="1.1" xmlns="http://www.w3.org/2000/svg" width="32" height="32" viewBox="0 0 32 32">
<title>hand-o-up</title>
<path d="M22.56 22.771c0.929-0.859 1.44-2.024 1.44-3.28v-6.491c0-1.103-0.897-2-2-2-0.411 0-0.794 0.125-1.112 0.339-0.274-0.779-1.017-1.339-1.888-1.339-0.411 0-0.794 0.125-1.112 0.339-0.274-0.779-1.017-1.339-1.888-1.339-0.364 0-0.706 0.098-1 0.268v-5.268c0-1.103-0.897-2-2-2s-2 0.897-2 2v11.386l-1.354-1.286c-1.506-1.505-3.976-1.527-5.506-0.047-0.193 0.186-0.205 0.492-0.026 0.692l6.888 7.742c0.455 0.507 0.998 1.325 0.998 2.34v0.173h-1.5c-0.276 0-0.5 0.224-0.5 0.5v4c0 0.276 0.224 0.5 0.5 0.5s0.5-0.224 0.5-0.5v-3.5h12v3.5c0 0.276 0.224 0.5 0.5 0.5s0.5-0.224 0.5-0.5v-4c0-0.276-0.224-0.5-0.5-0.5h-1.5v-1.060c0-0.42 0.199-0.835 0.56-1.169zM13 25v-0.173c0-1.054-0.434-2.094-1.264-3.018l-6.531-7.34c1.139-0.784 2.727-0.668 3.742 0.348l2.208 2.097c0.145 0.138 0.358 0.176 0.542 0.097 0.184-0.080 0.303-0.261 0.303-0.461v-12.55c0-0.551 0.448-1 1-1s1 0.449 1 1v7c0 0.276 0.224 0.5 0.5 0.5s0.5-0.224 0.5-0.5c0-0.551 0.448-1 1-1s1 0.449 1 1v1c0 0.276 0.224 0.5 0.5 0.5s0.5-0.224 0.5-0.5c0-0.551 0.448-1 1-1s1 0.449 1 1v1c0 0.276 0.224 0.5 0.5 0.5s0.5-0.224 0.5-0.5c0-0.551 0.448-1 1-1s1 0.449 1 1v6.491c0 0.974-0.397 1.878-1.119 2.546-0.569 0.525-0.881 1.201-0.881 1.903v1.060h-8z"></path>
</svg>
