<svg version="1.1" xmlns="http://www.w3.org/2000/svg" width="32" height="32" viewBox="0 0 32 32">
<title>hand-o-down</title>
<path d="M23.5 7c0.276 0 0.5-0.224 0.5-0.5v-4c0-0.276-0.224-0.5-0.5-0.5s-0.5 0.224-0.5 0.5v3.5h-12v-3.5c0-0.276-0.224-0.5-0.5-0.5s-0.5 0.224-0.5 0.5v4c0 0.276 0.224 0.5 0.5 0.5h1.5v0.173c0 1.015-0.543 1.833-1.011 2.353l-6.876 7.729c-0.178 0.2-0.167 0.506 0.026 0.692 1.53 1.479 4 1.459 5.497-0.038l1.364-1.295v11.386c0 1.103 0.897 2 2 2s2-0.897 2-2v-5.268c0.294 0.17 0.636 0.268 1 0.268 0.871 0 1.614-0.56 1.888-1.339 0.318 0.214 0.701 0.339 1.112 0.339 0.871 0 1.614-0.56 1.888-1.339 0.318 0.214 0.701 0.339 1.112 0.339 1.103 0 2-0.897 2-2v-6.491c0-1.256-0.512-2.42-1.44-3.28-0.361-0.334-0.56-0.749-0.56-1.169v-1.060h1.5zM21.881 9.963c0.722 0.668 1.119 1.572 1.119 2.546v6.491c0 0.551-0.448 1-1 1s-1-0.449-1-1c0-0.276-0.224-0.5-0.5-0.5s-0.5 0.224-0.5 0.5v1c0 0.551-0.448 1-1 1s-1-0.449-1-1c0-0.276-0.224-0.5-0.5-0.5s-0.5 0.224-0.5 0.5v1c0 0.551-0.448 1-1 1s-1-0.449-1-1c0-0.276-0.224-0.5-0.5-0.5s-0.5 0.224-0.5 0.5v7c0 0.551-0.448 1-1 1s-1-0.449-1-1v-12.55c0-0.2-0.119-0.381-0.303-0.459-0.183-0.078-0.396-0.041-0.542 0.097l-2.217 2.106c-1.007 1.007-2.593 1.123-3.733 0.339l6.54-7.351c0.821-0.915 1.255-1.955 1.255-3.009v-0.173h8v1.060c0 0.702 0.312 1.378 0.881 1.903z"></path>
</svg>
