<svg version="1.1" xmlns="http://www.w3.org/2000/svg" width="32" height="32" viewBox="0 0 32 32">
<title>hashtag</title>
<path d="M16 4c-6.617 0-12 5.383-12 12s5.383 12 12 12 12-5.383 12-12-5.383-12-12-12zM16 27c-6.065 0-11-4.935-11-11s4.935-11 11-11 11 4.935 11 11-4.935 11-11 11z"></path>
<path d="M21.5 13h-1.946l0.438-2.411c0.049-0.271-0.131-0.532-0.402-0.581-0.266-0.055-0.532 0.13-0.582 0.402l-0.471 2.59h-3.983l0.438-2.411c0.049-0.271-0.131-0.532-0.402-0.581-0.271-0.055-0.533 0.13-0.582 0.402l-0.471 2.59h-2.037c-0.276 0-0.5 0.224-0.5 0.5s0.224 0.5 0.5 0.5h1.855l-0.727 4h-2.128c-0.276 0-0.5 0.224-0.5 0.5s0.224 0.5 0.5 0.5h1.946l-0.438 2.411c-0.049 0.271 0.131 0.532 0.402 0.581 0.030 0.006 0.061 0.008 0.091 0.008 0.236 0 0.447-0.169 0.491-0.411l0.471-2.589h3.983l-0.438 2.411c-0.049 0.271 0.131 0.532 0.402 0.581 0.030 0.006 0.061 0.008 0.091 0.008 0.236 0 0.447-0.169 0.491-0.411l0.471-2.589h2.037c0.276 0 0.5-0.224 0.5-0.5s-0.224-0.5-0.5-0.5h-1.855l0.727-4h2.128c0.276 0 0.5-0.224 0.5-0.5s-0.224-0.5-0.5-0.5zM17.628 18h-3.983l0.727-4h3.983l-0.727 4z"></path>
</svg>
