<svg version="1.1" xmlns="http://www.w3.org/2000/svg" width="32" height="32" viewBox="0 0 32 32">
<title>headset</title>
<path d="M28.5 20h-0.5l-0.006-5c0-6.617-5.383-12-12-12s-12 5.383-12 12l0.006 5h-0.5c-0.276 0-0.5 0.224-0.5 0.5s0.224 0.5 0.5 0.5h0.5v2.5c0 0.276 0.224 0.5 0.5 0.5h1.5v2.5c0 1.378 1.121 2.5 2.5 2.5h4.5v0.5c0 0.276 0.224 0.5 0.5 0.5s0.5-0.224 0.5-0.5v-2c0-0.276-0.224-0.5-0.5-0.5s-0.5 0.224-0.5 0.5v0.5h-4.5c-0.827 0-1.5-0.673-1.5-1.5v-2.5h0.5c0.827 0 1.5-0.673 1.5-1.5v-4c0-0.827-0.673-1.5-1.5-1.5h-2.506v-2c0-6.065 4.935-11 11-11s11 4.935 11 11v2h-2.494c-0.827 0-1.5 0.673-1.5 1.5v4c0 0.827 0.673 1.5 1.5 1.5h3c0.276 0 0.5-0.224 0.5-0.5v-2.5h0.5c0.276 0 0.5-0.224 0.5-0.5s-0.224-0.5-0.5-0.5zM5 18h2.5c0.275 0 0.5 0.224 0.5 0.5v4c0 0.276-0.225 0.5-0.5 0.5h-2.5v-5zM27 23h-2.5c-0.275 0-0.5-0.224-0.5-0.5v-4c0-0.276 0.225-0.5 0.5-0.5h2.5v5z"></path>
</svg>
