<svg version="1.1" xmlns="http://www.w3.org/2000/svg" width="32" height="32" viewBox="0 0 32 32">
<title>headphones</title>
<path d="M16 3c-7.168 0-13 5.832-13 13v6.5c0 2.463 1.664 4.604 4 5.271v0.729c0 0.276 0.224 0.5 0.5 0.5h3c0.276 0 0.5-0.224 0.5-0.5v-12c0-0.276-0.224-0.5-0.5-0.5h-3c-0.276 0-0.5 0.224-0.5 0.5v0.729c-1.245 0.355-2.289 1.126-3 2.149v-3.378c0-6.617 5.383-12 12-12s12 5.383 12 12v3.379c-0.711-1.023-1.755-1.794-3-2.149v-0.73c0-0.276-0.224-0.5-0.5-0.5h-3c-0.276 0-0.5 0.224-0.5 0.5v12c0 0.276 0.224 0.5 0.5 0.5h3c0.276 0 0.5-0.224 0.5-0.5v-0.729c2.336-0.666 4-2.808 4-5.271v-6.5c0-7.168-5.832-13-13-13zM8 17h2v11h-2v-11zM7 18.269v8.463c-1.768-0.628-3-2.312-3-4.231s1.232-3.605 3-4.232zM24 28h-2v-11h2v11zM25 26.731v-8.463c1.768 0.628 3 2.312 3 4.231s-1.232 3.605-3 4.232z"></path>
</svg>
