<svg version="1.1" xmlns="http://www.w3.org/2000/svg" width="32" height="32" viewBox="0 0 32 32">
<title>heart-o</title>
<path d="M21.822 6c-1.63 0-3.164 0.635-4.317 1.788l-1.505 1.505-1.505-1.505c-1.153-1.153-2.686-1.788-4.39-1.788-3.366 0-6.105 2.739-6.105 6.105 0 1.657 0.687 3.265 1.885 4.412l9.77 9.345c0.096 0.092 0.22 0.138 0.345 0.138s0.249-0.046 0.346-0.139l9.77-9.345c1.197-1.146 1.884-2.753 1.884-4.411 0-3.366-2.739-6.105-6.178-6.105zM25.424 15.794l-9.424 9.014-9.424-9.014c-1.001-0.958-1.576-2.303-1.576-3.689 0-2.815 2.29-5.105 5.178-5.105 1.363 0 2.646 0.531 3.61 1.495l1.858 1.858c0.195 0.195 0.512 0.195 0.707 0l1.858-1.858c0.965-0.964 2.247-1.495 3.684-1.495 2.815 0 5.105 2.29 5.105 5.105 0 1.386-0.575 2.731-1.576 3.689z"></path>
</svg>
