<svg version="1.1" xmlns="http://www.w3.org/2000/svg" width="32" height="32" viewBox="0 0 32 32">
<title>heartbeat</title>
<path d="M21.822 6c-1.63 0-3.164 0.635-4.317 1.788l-1.505 1.505-1.505-1.505c-1.153-1.153-2.686-1.788-4.39-1.788-3.366 0-6.105 2.739-6.105 6.105 0 1.657 0.687 3.265 1.885 4.412l9.77 9.345c0.096 0.092 0.22 0.138 0.345 0.138s0.249-0.046 0.346-0.139l9.77-9.345c1.197-1.146 1.884-2.754 1.884-4.411 0-3.366-2.739-6.105-6.178-6.105zM10.178 7c1.363 0 2.646 0.531 3.61 1.495l1.858 1.858c0.195 0.195 0.512 0.195 0.707 0l1.858-1.858c0.965-0.964 2.247-1.495 3.684-1.495 2.815 0 5.105 2.29 5.105 5.105 0 1.036-0.322 2.049-0.903 2.895h-5.33l-1.852-2.777c-0.186-0.278-0.646-0.278-0.832 0l-3.473 5.209-1.647-4.117c-0.069-0.172-0.228-0.292-0.413-0.312-0.181-0.019-0.365 0.066-0.468 0.22l-1.183 1.777h-4.996c-0.581-0.846-0.903-1.859-0.903-2.895 0-2.815 2.29-5.105 5.178-5.105zM16 24.808l-9.209-8.808h4.375c0.167 0 0.323-0.084 0.416-0.223l0.806-1.209 1.647 4.117c0.069 0.172 0.228 0.292 0.413 0.312 0.018 0.002 0.035 0.003 0.052 0.003 0.166 0 0.323-0.083 0.416-0.223l3.584-5.376 1.584 2.376c0.093 0.139 0.249 0.223 0.416 0.223h4.709l-9.209 8.808z"></path>
</svg>
