<svg id="Layer_1" data-name="Layer 1" xmlns="http://www.w3.org/2000/svg" width="32" height="32" viewBox="0 0 32 32"><path d="M25.5,25A2.5,2.5,0,1,0,28,27.5,2.5,2.5,0,0,0,25.5,25Zm0,4A1.5,1.5,0,1,1,27,27.5,1.5,1.5,0,0,1,25.5,29ZM7,20.5A2.5,2.5,0,1,0,4.5,23,2.5,2.5,0,0,0,7,20.5ZM4.5,22A1.5,1.5,0,1,1,6,20.5,1.5,1.5,0,0,1,4.5,22Zm23-9A2.5,2.5,0,1,0,30,15.5,2.5,2.5,0,0,0,27.5,13Zm0,4A1.5,1.5,0,1,1,29,15.5,1.5,1.5,0,0,1,27.5,17Zm-21-1A4.5,4.5,0,1,0,2,11.5,4.505,4.505,0,0,0,6.5,16Zm0-8A3.5,3.5,0,1,1,3,11.5,3.5,3.5,0,0,1,6.5,8Zm7,0A2.5,2.5,0,1,0,11,5.5,2.5,2.5,0,0,0,13.5,8Zm0-4A1.5,1.5,0,1,1,12,5.5,1.5,1.5,0,0,1,13.5,4Zm9,7A4.5,4.5,0,1,0,18,6.5,4.505,4.505,0,0,0,22.5,11Zm0-8A3.5,3.5,0,1,1,19,6.5,3.5,3.5,0,0,1,22.5,3ZM8.5,25A2.5,2.5,0,1,0,11,27.5,2.5,2.5,0,0,0,8.5,25Zm0,4A1.5,1.5,0,1,1,10,27.5,1.5,1.5,0,0,1,8.5,29ZM17,13a7,7,0,1,0,7,7A7.008,7.008,0,0,0,17,13Zm0,13a6,6,0,1,1,6-6A6.006,6.006,0,0,1,17,26Z"/></svg>