<svg version="1.1" xmlns="http://www.w3.org/2000/svg" width="32" height="32" viewBox="0 0 32 32">
<title>helicopter</title>
<path d="M27.088 23c1.044 0 2.025-0.407 2.767-1.148 0.727-0.727 1.145-1.735 1.145-2.765v-1.579c0-1.424-0.542-2.776-1.526-3.805l-0.889-0.93c-0.469-0.491-1.127-0.773-1.807-0.773h-2.071l-2.268-2.268c-0.472-0.472-1.099-0.732-1.767-0.732h-1.672v-4.5c0-0.276-0.224-0.5-0.5-0.5s-0.5 0.224-0.5 0.5v4.5h-1.672c-0.668 0-1.295 0.26-1.768 0.732l-2.828 2.828c-0.279 0.28-0.666 0.44-1.060 0.44h-2.344c-0.395 0-0.781-0.16-1.061-0.439l-1.828-1.828c-0.472-0.473-1.099-0.733-1.767-0.733h-1.172c-0.827 0-1.5 0.673-1.5 1.5v0.528c0 0.386 0.091 0.772 0.264 1.118l1.396 2.79c0.312 0.625 0.878 1.094 1.551 1.286l5.153 1.47c0.573 0.163 1.098 0.472 1.518 0.892l2.68 2.683c0.47 0.473 1.098 0.733 1.767 0.733h2.671v3h-5.5c-0.276 0-0.5 0.224-0.5 0.5s0.224 0.5 0.5 0.5h17c0.276 0 0.5-0.224 0.5-0.5s-0.224-0.5-0.5-0.5h-7.5v-3h5.088zM26.778 13c0.407 0 0.803 0.169 1.084 0.463l0.889 0.931c0.445 0.465 0.766 1.015 0.977 1.606h-10.228c-0.275 0-0.5-0.224-0.5-0.5v-2c0-0.276 0.225-0.5 0.5-0.5h7.278zM21 26h-2v-3h2v3zM15.329 22c-0.401 0-0.778-0.156-1.062-0.44l-2.68-2.683c-0.54-0.54-1.214-0.937-1.95-1.147l-5.154-1.47c-0.403-0.115-0.742-0.396-0.93-0.771l-1.396-2.79c-0.102-0.207-0.157-0.44-0.157-0.671v-0.528c0-0.276 0.225-0.5 0.5-0.5h1.172c0.395 0 0.781 0.16 1.061 0.439l1.828 1.828c0.472 0.473 1.099 0.733 1.767 0.733h2.344c0.668 0 1.295-0.26 1.768-0.732l2.828-2.828c0.279-0.28 0.666-0.44 1.060-0.44h4.344c0.395 0 0.781 0.16 1.061 0.439l1.56 1.561h-3.793c-0.827 0-1.5 0.673-1.5 1.5v2c0 0.827 0.673 1.5 1.5 1.5h10.452c0.019 0.169 0.048 0.336 0.048 0.508v1.579c0 0.766-0.311 1.516-0.854 2.061-0.55 0.549-1.281 0.852-2.058 0.852h-11.759z"></path>
<path d="M7.5 6h9c0.276 0 0.5-0.224 0.5-0.5s-0.224-0.5-0.5-0.5h-9c-0.276 0-0.5 0.224-0.5 0.5s0.224 0.5 0.5 0.5z"></path>
<path d="M20.5 6h9c0.276 0 0.5-0.224 0.5-0.5s-0.224-0.5-0.5-0.5h-9c-0.276 0-0.5 0.224-0.5 0.5s0.224 0.5 0.5 0.5z"></path>
</svg>
