<svg version="1.1" xmlns="http://www.w3.org/2000/svg" width="32" height="32" viewBox="0 0 32 32">
<title>hero</title>
<path d="M27 4h-22c-0.552 0-1 0.448-1 1v0 13c0 0.552 0.448 1 1 1v0h22c0.552 0 1-0.448 1-1v0-13c0-0.552-0.448-1-1-1v0zM27 18.5v-0.5h-22v-13h22v13z"></path>
<path d="M14.5 23h-8c-0.276 0-0.5 0.224-0.5 0.5s0.224 0.5 0.5 0.5v0h8c0.276 0 0.5-0.224 0.5-0.5s-0.224-0.5-0.5-0.5v0z"></path>
<path d="M14.5 27h-8c-0.276 0-0.5 0.224-0.5 0.5s0.224 0.5 0.5 0.5v0h8c0.276 0 0.5-0.224 0.5-0.5s-0.224-0.5-0.5-0.5v0z"></path>
<path d="M25.5 23h-8c-0.276 0-0.5 0.224-0.5 0.5s0.224 0.5 0.5 0.5v0h8c0.276 0 0.5-0.224 0.5-0.5s-0.224-0.5-0.5-0.5v0z"></path>
<path d="M25.5 27h-8c-0.276 0-0.5 0.224-0.5 0.5s0.224 0.5 0.5 0.5v0h8c0.276 0 0.5-0.224 0.5-0.5s-0.224-0.5-0.5-0.5v0z"></path>
</svg>
