<svg version="1.1" xmlns="http://www.w3.org/2000/svg" width="32" height="32" viewBox="0 0 32 32">
<title>hipster</title>
<path d="M16 4c-6.617 0-12 5.383-12 12s5.383 12 12 12 12-5.383 12-12-5.383-12-12-12zM16 27c-6.065 0-11-4.935-11-11s4.935-11 11-11 11 4.935 11 11-4.935 11-11 11z"></path>
<path d="M23.354 19.76c-0.535 0.164-1.094 0.24-1.761 0.24-0.793 0-1.17-0.377-1.646-0.854-0.511-0.51-1.147-1.146-2.354-1.146-0.591 0-1.148 0.211-1.593 0.593-0.444-0.382-1.002-0.593-1.593-0.593-1.207 0-1.843 0.636-2.354 1.146-0.476 0.477-0.853 0.854-1.646 0.854-0.658 0-1.234-0.078-1.761-0.24-0.201-0.062-0.421 0.010-0.547 0.179s-0.132 0.4-0.015 0.576c1.050 1.579 2.626 2.485 4.323 2.485 1.214 0 2.35-0.481 3.198-1.355 0.219-0.225 0.571-0.225 0.79 0 0.848 0.874 1.984 1.355 3.198 1.355 1.697 0 3.272-0.906 4.323-2.485 0.117-0.176 0.111-0.406-0.015-0.576-0.126-0.169-0.346-0.241-0.547-0.179zM17.113 20.948c-0.3-0.308-0.695-0.478-1.113-0.478s-0.813 0.17-1.113 0.478c-1.32 1.36-3.583 1.345-5.086 0.031 0.196 0.014 0.398 0.021 0.606 0.021 1.207 0 1.843-0.636 2.354-1.146 0.476-0.477 0.853-0.854 1.646-0.854 0.466 0 0.899 0.227 1.19 0.622 0.188 0.256 0.618 0.256 0.806 0 0.29-0.395 0.724-0.622 1.19-0.622 0.793 0 1.17 0.377 1.646 0.854 0.511 0.51 1.147 1.146 2.354 1.146 0.208 0 0.41-0.007 0.606-0.021-1.504 1.314-3.766 1.33-5.086-0.031z"></path>
<path d="M24.65 11.59c-1.223-0.386-2.659-0.59-4.15-0.59-1.57 0-2.722 0.252-3.849 0.842-0.201 0.105-0.4 0.158-0.59 0.158h-0.122c-0.19 0-0.389-0.053-0.59-0.158-1.127-0.59-2.279-0.842-3.849-0.842-1.491 0-2.927 0.204-4.15 0.59-0.264 0.083-0.409 0.364-0.326 0.627 0.078 0.25 0.335 0.387 0.586 0.331l0.555 2.494c0.255 1.153 1.259 1.958 2.439 1.958h1.659c0.953 0 1.811-0.53 2.236-1.382l1.224-2.447c0.105-0.21 0.447-0.211 0.553 0l1.224 2.447c0.426 0.852 1.283 1.382 2.236 1.382h1.659c1.181 0 2.185-0.805 2.44-1.958l0.555-2.494c0.25 0.056 0.507-0.081 0.586-0.331 0.084-0.263-0.062-0.544-0.326-0.627zM13.605 15.171c-0.255 0.511-0.769 0.829-1.341 0.829h-1.659c-0.709 0-1.311-0.483-1.465-1.175l-0.561-2.525c0.903-0.196 1.895-0.3 2.921-0.3 1.377 0 2.379 0.214 3.34 0.708-0.003 0.006-0.008 0.010-0.011 0.016l-1.224 2.447zM22.86 14.825c-0.154 0.692-0.756 1.175-1.464 1.175h-1.659c-0.572 0-1.086-0.318-1.342-0.829l-1.224-2.447c-0.003-0.006-0.008-0.010-0.011-0.016 0.961-0.494 1.963-0.708 3.34-0.708 1.026 0 2.018 0.104 2.921 0.3l-0.561 2.525z"></path>
</svg>
