<svg version="1.1" xmlns="http://www.w3.org/2000/svg" width="32" height="32" viewBox="0 0 32 32">
<title>history</title>
<path d="M16 4c-6.617 0-12 5.383-12 12 0 3.465 1.499 6.735 4.070 9h-3.57c-0.276 0-0.5 0.224-0.5 0.5s0.224 0.5 0.5 0.5h5c0.236 0 0.424-0.167 0.477-0.386 0.006-0.022 0.010-0.043 0.013-0.065 0.002-0.017 0.010-0.032 0.010-0.049v-5c0-0.276-0.224-0.5-0.5-0.5s-0.5 0.224-0.5 0.5v3.96c-2.514-2.082-4-5.169-4-8.46 0-6.065 4.935-11 11-11s11 4.935 11 11-4.935 11-11 11c-0.785 0-1.59-0.090-2.392-0.269-0.27-0.057-0.536 0.111-0.597 0.38-0.060 0.27 0.11 0.537 0.38 0.597 0.874 0.193 1.752 0.292 2.609 0.292 6.617 0 12-5.383 12-12s-5.383-12-12-12z"></path>
<path d="M15.5 7c-0.276 0-0.5 0.224-0.5 0.5v9c0 0.276 0.224 0.5 0.5 0.5h9c0.276 0 0.5-0.224 0.5-0.5s-0.224-0.5-0.5-0.5h-8.5v-8.5c0-0.276-0.224-0.5-0.5-0.5z"></path>
</svg>
