<svg version="1.1" xmlns="http://www.w3.org/2000/svg" width="32" height="32" viewBox="0 0 32 32">
<title>home</title>
<path d="M28.847 16.14l-12.5-12c-0.090-0.086-0.212-0.139-0.346-0.139s-0.256 0.053-0.346 0.139l0-0-12.5 12c-0.106 0.092-0.173 0.227-0.173 0.378 0 0.276 0.224 0.5 0.5 0.5 0.144 0 0.273-0.061 0.365-0.158l0-0 2.153-2.067v12.707c0 0.276 0.224 0.5 0.5 0.5v0h7c0.276 0 0.5-0.224 0.5-0.5v0-7.492l4-0.008v7.5c0 0.276 0.224 0.5 0.5 0.5v0h7c0.276 0 0.5-0.224 0.5-0.5v0-12.707l2.153 2.067c0.090 0.087 0.212 0.14 0.347 0.14 0.276 0 0.5-0.224 0.5-0.5 0-0.141-0.059-0.269-0.153-0.36l-0-0zM25 27h-6v-7.5c0-0.276-0.224-0.5-0.5-0.5v0 0l-5 0.009c-0.276 0-0.5 0.224-0.5 0.5v0 7.491h-6v-13.167l9-8.64 9 8.64z"></path>
</svg>
