<svg version="1.1" xmlns="http://www.w3.org/2000/svg" width="32" height="32" viewBox="0 0 32 32">
<title>hotel</title>
<path d="M28 15.172v-8.172c0-1.657-1.343-3-3-3v0h-18c-1.657 0-3 1.343-3 3v0 8.172c-1.175 0.424-2 1.53-2 2.828v8.5c0 0.276 0.224 0.5 0.5 0.5v0h4c0.194 0 0.363-0.111 0.446-0.273l0.001-0.003 1.309-2.619c0.333-0.66 1.005-1.105 1.782-1.105 0.003 0 0.005 0 0.008 0h11.91c0.002 0 0.004 0 0.007 0 0.777 0 1.449 0.445 1.777 1.094l0.005 0.011 1.309 2.619c0.084 0.165 0.253 0.276 0.447 0.276h4c0.276 0 0.5-0.224 0.5-0.5v0-8.5c-0-1.298-0.825-2.404-1.979-2.821l-0.021-0.007zM5 7c0-1.105 0.895-2 2-2v0h18c1.105 0 2 0.895 2 2v0 8h-2v-2.714c0-0 0-0 0-0.001 0-0.193-0.109-0.36-0.268-0.443l-0.003-0.001c-2.428-1.165-5.279-1.846-8.289-1.846-0.155 0-0.309 0.002-0.463 0.005l0.023-0c-0.131-0.003-0.286-0.005-0.441-0.005-3.010 0-5.86 0.681-8.406 1.897l0.118-0.051c-0.162 0.085-0.271 0.252-0.271 0.444 0 0 0 0 0 0.001v-0 2.714h-2zM24 15h-16v-2.4c2.258-1.013 4.895-1.603 7.669-1.603 0.116 0 0.232 0.001 0.348 0.003l-0.017-0c0.098-0.002 0.214-0.003 0.33-0.003 2.775 0 5.411 0.59 7.792 1.651l-0.122-0.048zM29 26h-3.191l-1.17-2.342c-0.499-0.991-1.508-1.658-2.673-1.658-0.004 0-0.008 0-0.011 0h-11.909c-0.003 0-0.007-0-0.011-0-1.165 0-2.173 0.668-2.664 1.641l-0.008 0.017-1.171 2.342h-3.191v-8c0-1.105 0.895-2 2-2v0h22c1.105 0 2 0.895 2 2v0z"></path>
</svg>
