<svg version="1.1" xmlns="http://www.w3.org/2000/svg" width="32" height="32" viewBox="0 0 32 32">
<title>id-card-o</title>
<path d="M27 6h-22c-1.657 0-3 1.343-3 3v0 14c0 1.657 1.343 3 3 3v0h22c1.657 0 3-1.343 3-3v0-14c0-1.657-1.343-3-3-3v0zM29 23c0 1.105-0.895 2-2 2v0h-22c-1.105 0-2-0.895-2-2v0-14c0-1.105 0.895-2 2-2v0h22c1.105 0 2 0.895 2 2v0z"></path>
<path d="M25.5 14h-7c-0.276 0-0.5 0.224-0.5 0.5s0.224 0.5 0.5 0.5v0h7c0.276 0 0.5-0.224 0.5-0.5s-0.224-0.5-0.5-0.5v0z"></path>
<path d="M25.5 17h-7c-0.276 0-0.5 0.224-0.5 0.5s0.224 0.5 0.5 0.5v0h7c0.276 0 0.5-0.224 0.5-0.5s-0.224-0.5-0.5-0.5v0z"></path>
<path d="M25.5 20h-7c-0.276 0-0.5 0.224-0.5 0.5s0.224 0.5 0.5 0.5v0h7c0.276 0 0.5-0.224 0.5-0.5s-0.224-0.5-0.5-0.5v0z"></path>
<path d="M27.5 9h-23c-0.276 0-0.5 0.224-0.5 0.5s0.224 0.5 0.5 0.5v0h23c0.276 0 0.5-0.224 0.5-0.5s-0.224-0.5-0.5-0.5v0z"></path>
<path d="M13.907 18.711c-1.004-0.447-2.175-0.707-3.406-0.707s-2.403 0.26-3.461 0.729l0.055-0.022c-0.65 0.291-1.094 0.932-1.094 1.677 0 0.002 0 0.004 0 0.007v-0 1.106c0 0.276 0.224 0.5 0.5 0.5v0h8c0.276 0 0.5-0.224 0.5-0.5v0-1.106c0-0.002 0-0.004 0-0.006 0-0.745-0.444-1.385-1.081-1.672l-0.012-0.005z"></path>
<path d="M13 14.5c0 1.381-1.119 2.5-2.5 2.5s-2.5-1.119-2.5-2.5c0-1.381 1.119-2.5 2.5-2.5s2.5 1.119 2.5 2.5z"></path>
</svg>
