<svg version="1.1" xmlns="http://www.w3.org/2000/svg" width="32" height="32" viewBox="0 0 32 32">
<title>inbox</title>
<path d="M27.983 19.371l-4-15c-0.058-0.219-0.256-0.371-0.483-0.371h-15c-0.227 0-0.425 0.152-0.483 0.371l-4 15c-0.011 0.042-0.017 0.086-0.017 0.129v8c0 0.276 0.224 0.5 0.5 0.5h23c0.276 0 0.5-0.224 0.5-0.5v-8c0-0.043-0.006-0.087-0.017-0.129zM8.884 5h14.232l3.733 14h-7.349c-0.276 0-0.5 0.224-0.5 0.5 0 1.378-1.121 2.5-2.5 2.5s-2.5-1.122-2.5-2.5c0-0.276-0.224-0.5-0.5-0.5h-8.349l3.733-14zM27 27h-22v-7h8.035c0.244 1.694 1.705 3 3.465 3s3.221-1.306 3.465-3h7.035v7z"></path>
</svg>
