<svg version="1.1" xmlns="http://www.w3.org/2000/svg" width="32" height="32" viewBox="0 0 32 32">
<title>index</title>
<path d="M13.5 16h-4c-0.276 0-0.5 0.224-0.5 0.5s0.224 0.5 0.5 0.5h4c0.276 0 0.5-0.224 0.5-0.5s-0.224-0.5-0.5-0.5z"></path>
<path d="M6.5 16h-4c-0.276 0-0.5 0.224-0.5 0.5s0.224 0.5 0.5 0.5h4c0.276 0 0.5-0.224 0.5-0.5s-0.224-0.5-0.5-0.5z"></path>
<path d="M18.091 17h11.409c0.276 0 0.5-0.224 0.5-0.5s-0.224-0.5-0.5-0.5h-11.404l11.683-8.091c0.227-0.157 0.283-0.469 0.126-0.696-0.158-0.228-0.471-0.283-0.696-0.126l-12.209 8.455v-6.042c0-0.276-0.224-0.5-0.5-0.5s-0.5 0.224-0.5 0.5v6.974c0 0.010-0.007 0.018-0.007 0.028s0.007 0.018 0.007 0.028v6.97c0 0.276 0.224 0.5 0.5 0.5s0.5-0.224 0.5-0.5v-6.040l12.209 8.448c0.087 0.060 0.186 0.089 0.284 0.089 0.158 0 0.314-0.075 0.411-0.215 0.157-0.227 0.101-0.539-0.127-0.696l-11.686-8.086z"></path>
</svg>
