<svg version="1.1" xmlns="http://www.w3.org/2000/svg" width="32" height="32" viewBox="0 0 32 32">
<title>industry</title>
<path d="M27.736 7.060c-0.068-0.037-0.15-0.059-0.236-0.059-0.103 0-0.199 0.031-0.278 0.085l0.002-0.001-8.223 5.481v-5.065c-0-0.276-0.224-0.5-0.5-0.5-0.103 0-0.199 0.031-0.279 0.085l0.002-0.001-8.223 5.481v-9.065c0-0.276-0.224-0.5-0.5-0.5v0h-5.006c-0.276 0-0.5 0.224-0.5 0.5v0c0 0 0 0 0 0.001 0 0.026 0.002 0.052 0.006 0.077l-0-0.003v22.925c0 0.276 0.224 0.5 0.5 0.5v0h23c0.276 0 0.5-0.224 0.5-0.5v0-19c-0-0.189-0.106-0.354-0.261-0.439l-0.003-0.001zM27 26h-22v-22h4v9.5c0 0.276 0.224 0.5 0.5 0.5 0.103 0 0.199-0.031 0.279-0.085l-0.002 0.001 8.223-5.481v5.065c0 0.276 0.224 0.5 0.5 0.5 0.103 0 0.199-0.031 0.279-0.085l-0.002 0.001 8.223-5.481z"></path>
<path d="M11.5 18h-3c-0.276 0-0.5 0.224-0.5 0.5v0 3c0 0.276 0.224 0.5 0.5 0.5v0h3c0.276 0 0.5-0.224 0.5-0.5v0-3c0-0.276-0.224-0.5-0.5-0.5v0zM11 21h-2v-2h2z"></path>
<path d="M17.5 18h-3c-0.276 0-0.5 0.224-0.5 0.5v0 3c0 0.276 0.224 0.5 0.5 0.5v0h3c0.276 0 0.5-0.224 0.5-0.5v0-3c0-0.276-0.224-0.5-0.5-0.5v0zM17 21h-2v-2h2z"></path>
<path d="M20.5 22h3c0.276 0 0.5-0.224 0.5-0.5v0-3c0-0.276-0.224-0.5-0.5-0.5v0h-3c-0.276 0-0.5 0.224-0.5 0.5v0 3c0 0.276 0.224 0.5 0.5 0.5v0zM21 19h2v2h-2z"></path>
</svg>
