<svg version="1.1" xmlns="http://www.w3.org/2000/svg" width="32" height="32" viewBox="0 0 32 32">
<title>info-circle</title>
<path d="M16 2c-7.732 0-14 6.268-14 14s6.268 14 14 14c7.732 0 14-6.268 14-14v0c-0.009-7.729-6.271-13.991-13.999-14h-0.001zM16 10c0.552 0 1 0.448 1 1s-0.448 1-1 1c-0.552 0-1-0.448-1-1v0c0-0.552 0.448-1 1-1v0zM18 23h-4c-0.552 0-1-0.448-1-1s0.448-1 1-1v0h1v-5h-1c-0.552 0-1-0.448-1-1s0.448-1 1-1v0h2c0.552 0 1 0.448 1 1v0 6h1c0.552 0 1 0.448 1 1s-0.448 1-1 1v0z"></path>
</svg>
