<svg version="1.1" xmlns="http://www.w3.org/2000/svg" width="32" height="32" viewBox="0 0 32 32">
<title>key-alt</title>
<path d="M28.828 9.172l-4-4c-1.51-1.512-4.146-1.512-5.656 0-0.756 0.755-1.172 1.759-1.172 2.828s0.416 2.073 1.172 2.828l1.646 1.646-14.672 14.672c-0.195 0.195-0.195 0.512 0 0.707 0.098 0.098 0.226 0.147 0.354 0.147s0.256-0.049 0.354-0.146l2.646-2.647 2.646 2.646c0.098 0.098 0.226 0.147 0.354 0.147s0.256-0.049 0.354-0.146c0.195-0.195 0.195-0.512 0-0.707l-2.647-2.647 2.293-2.293 2.646 2.646c0.098 0.098 0.226 0.147 0.354 0.147s0.256-0.049 0.354-0.146c0.195-0.195 0.195-0.512 0-0.707l-2.647-2.647 8.318-8.318 1.646 1.646c0.756 0.756 1.761 1.172 2.829 1.172s2.073-0.416 2.828-1.172c0.756-0.755 1.172-1.759 1.172-2.828s-0.416-2.073-1.172-2.828zM28.121 14.121c-1.133 1.134-3.109 1.134-4.242 0l-4-4c-0.567-0.566-0.879-1.32-0.879-2.121s0.312-1.555 0.879-2.121c0.566-0.567 1.319-0.879 2.121-0.879s1.555 0.312 2.121 0.879l4 4c0.567 0.566 0.879 1.32 0.879 2.121s-0.312 1.555-0.879 2.121z"></path>
</svg>
