<svg version="1.1" xmlns="http://www.w3.org/2000/svg" width="32" height="32" viewBox="0 0 32 32">
<title>key</title>
<path d="M11 10c0 0.552-0.448 1-1 1s-1-0.448-1-1c0-0.552 0.448-1 1-1s1 0.448 1 1z"></path>
<path d="M27.565 22.858l-6.95-6.95c-0.949-0.95-0.967-1.515-0.859-1.942 0.198-0.784 0.276-1.595 0.231-2.41-0.22-4.082-3.729-7.471-7.82-7.555-2.408-0.043-4.712 0.983-6.277 2.834s-2.2 4.3-1.742 6.722c0.604 3.199 3.167 5.735 6.378 6.311 1.388 0.249 2.809 0.141 4.104-0.311 0.558-0.193 1.143-0.078 1.524 0.305l1.846 1.845v1.793c0 0.276 0.224 0.5 0.5 0.5h1.5v1.5c0 0.276 0.224 0.5 0.5 0.5h1.5v1.5c0 0.276 0.224 0.5 0.5 0.5h4c0.827 0 1.5-0.673 1.5-1.5v-2.586c0-0.4-0.154-0.775-0.435-1.056zM27 26.5c0 0.276-0.225 0.5-0.5 0.5h-3.5v-1.5c0-0.276-0.224-0.5-0.5-0.5h-1.5v-1.5c0-0.276-0.224-0.5-0.5-0.5h-1.5v-1.5c0-0.133-0.053-0.26-0.146-0.354l-1.992-1.992c-0.655-0.656-1.637-0.864-2.561-0.542-1.149 0.401-2.36 0.493-3.6 0.271-2.805-0.503-5.043-2.718-5.571-5.512-0.401-2.124 0.153-4.271 1.523-5.89 1.371-1.62 3.373-2.513 5.494-2.479 3.579 0.073 6.648 3.038 6.842 6.609 0.039 0.715-0.029 1.425-0.202 2.111-0.248 0.979 0.098 1.872 1.121 2.895l6.95 6.95c0.093 0.091 0.142 0.212 0.142 0.347v2.586z"></path>
</svg>
