<svg version="1.1" xmlns="http://www.w3.org/2000/svg" width="32" height="32" viewBox="0 0 32 32">
<title>language</title>
<path d="M15.5 19c0.125 0 0.251-0.047 0.348-0.141 0.198-0.192 0.204-0.509 0.012-0.707-0.133-0.138-0.349-0.287-0.674-0.513-0.555-0.385-1.397-0.978-2.4-1.887 2.302-3.234 2.98-6.56 3.156-7.752h2.558c0.276 0 0.5-0.224 0.5-0.5s-0.224-0.5-0.5-0.5h-6.5v-2.5c0-0.276-0.224-0.5-0.5-0.5s-0.5 0.224-0.5 0.5v2.5h-6.5c-0.276 0-0.5 0.224-0.5 0.5s0.224 0.5 0.5 0.5h10.429c-0.184 1.174-0.834 4.134-2.874 7.053-0.965-0.961-2.035-2.194-3.141-3.833-0.154-0.229-0.466-0.288-0.694-0.135-0.229 0.155-0.289 0.465-0.134 0.694 1.186 1.757 2.333 3.067 3.362 4.079-1.247 1.562-2.911 3.060-5.172 4.194-0.246 0.124-0.346 0.424-0.223 0.671 0.088 0.176 0.264 0.277 0.447 0.277 0.076 0 0.152-0.017 0.225-0.053 2.375-1.192 4.13-2.76 5.45-4.399 1.017 0.915 1.874 1.519 2.441 1.913 0.236 0.165 0.46 0.32 0.525 0.387 0.098 0.101 0.228 0.152 0.359 0.152z"></path>
<path d="M27.96 27.303l-6-14c-0.158-0.368-0.762-0.368-0.92 0l-6 14c-0.108 0.253 0.009 0.547 0.263 0.656 0.251 0.108 0.546-0.008 0.657-0.263l2.013-4.696h7.055l2.013 4.697c0.081 0.19 0.266 0.303 0.459 0.303 0.066 0 0.133-0.013 0.197-0.041 0.254-0.108 0.371-0.402 0.263-0.656zM18.401 22l3.099-7.23 3.099 7.23h-6.198z"></path>
</svg>
