<svg version="1.1" xmlns="http://www.w3.org/2000/svg" width="32" height="32" viewBox="0 0 32 32">
<title>laptop</title>
<path d="M29.961 25.3l-1.961-6.871v-13.429c0-0.552-0.448-1-1-1v0h-22c-0.552 0-1 0.448-1 1v0 13.43l-1.962 6.87c-0.024 0.081-0.038 0.174-0.038 0.27v1.43c0 0.552 0.448 1 1 1v0h26c0.552 0 1-0.448 1-1v0-1.43c-0.001-0.096-0.015-0.189-0.041-0.277l0.002 0.007zM27 5v13h-22v-13zM29 27h-26v-1.43l1.877-6.57h22.246l1.877 6.57z"></path>
<path d="M17.5 25h-3c-0.276 0-0.5 0.224-0.5 0.5s0.224 0.5 0.5 0.5v0h3c0.276 0 0.5-0.224 0.5-0.5s-0.224-0.5-0.5-0.5v0z"></path>
</svg>
