<svg version="1.1" xmlns="http://www.w3.org/2000/svg" width="32" height="32" viewBox="0 0 32 32">
<title>layers</title>
<path d="M15.727 19.919c0.083 0.054 0.178 0.081 0.273 0.081s0.19-0.027 0.273-0.081l11.5-7.5c0.142-0.092 0.227-0.25 0.227-0.419s-0.085-0.327-0.227-0.419l-11.5-7.5c-0.166-0.108-0.381-0.108-0.547 0l-11.5 7.5c-0.141 0.092-0.226 0.25-0.226 0.419s0.085 0.327 0.227 0.419l11.5 7.5zM16 5.097l10.585 6.903-10.585 6.903-10.585-6.903 10.585-6.903z"></path>
<path d="M27.227 15.581l-11.227 7.322-11.227-7.322c-0.232-0.149-0.541-0.085-0.692 0.146s-0.086 0.541 0.146 0.692l11.5 7.5c0.083 0.054 0.178 0.081 0.273 0.081s0.19-0.027 0.273-0.081l11.5-7.5c0.231-0.151 0.296-0.461 0.146-0.692s-0.46-0.295-0.692-0.146z"></path>
<path d="M27.227 19.581l-11.227 7.322-11.227-7.322c-0.232-0.149-0.541-0.085-0.692 0.146s-0.086 0.541 0.146 0.692l11.5 7.5c0.083 0.054 0.178 0.081 0.273 0.081s0.19-0.027 0.273-0.081l11.5-7.5c0.231-0.151 0.296-0.461 0.146-0.692s-0.46-0.296-0.692-0.146z"></path>
</svg>
