<svg version="1.1" xmlns="http://www.w3.org/2000/svg" width="32" height="32" viewBox="0 0 32 32">
<title>layout-list-left</title>
<path d="M26.5 5h-20c-0.827 0-1.5 0.673-1.5 1.5v20c0 0.827 0.673 1.5 1.5 1.5h20c0.827 0 1.5-0.673 1.5-1.5v-20c0-0.827-0.673-1.5-1.5-1.5zM6 13h6v7h-6v-7zM13 13h14v7h-14v-7zM27 6.5v5.5h-14v-6h13.5c0.275 0 0.5 0.224 0.5 0.5zM6.5 6h5.5v6h-6v-5.5c0-0.276 0.225-0.5 0.5-0.5zM6 26.5v-5.5h6v6h-5.5c-0.275 0-0.5-0.224-0.5-0.5zM26.5 27h-13.5v-6h14v5.5c0 0.276-0.225 0.5-0.5 0.5z"></path>
</svg>
