<svg version="1.1" xmlns="http://www.w3.org/2000/svg" width="32" height="32" viewBox="0 0 32 32">
<title>layout-header-nav-right-cards</title>
<path d="M26.5 5h-20c-0.827 0-1.5 0.673-1.5 1.5v20c0 0.827 0.673 1.5 1.5 1.5h20c0.827 0 1.5-0.673 1.5-1.5v-20c0-0.827-0.673-1.5-1.5-1.5zM6.5 6h20c0.275 0 0.5 0.224 0.5 0.5v2.5h-21v-2.5c0-0.276 0.225-0.5 0.5-0.5zM23 27h-8v-8h8v8zM23 18h-8v-8h8v8zM6 10h8v8h-8v-8zM6 26.5v-7.5h8v8h-7.5c-0.275 0-0.5-0.224-0.5-0.5zM26.5 27h-2.5v-17h3v16.5c0 0.276-0.225 0.5-0.5 0.5z"></path>
</svg>
