<svg version="1.1" xmlns="http://www.w3.org/2000/svg" width="32" height="32" viewBox="0 0 32 32">
<title>leaf</title>
<path d="M18.5 19c0.276 0 0.5-0.224 0.5-0.5s-0.224-0.5-0.5-0.5h-3.793l4-4h2.793c0.276 0 0.5-0.224 0.5-0.5s-0.224-0.5-0.5-0.5h-1.793l3.146-3.146c0.195-0.195 0.195-0.512 0-0.707s-0.512-0.195-0.707 0l-3.146 3.146v-1.793c0-0.276-0.224-0.5-0.5-0.5s-0.5 0.224-0.5 0.5v2.793l-4 4v-3.793c0-0.276-0.224-0.5-0.5-0.5s-0.5 0.224-0.5 0.5v4.793l-8.854 8.854c-0.195 0.195-0.195 0.512 0 0.707 0.098 0.097 0.226 0.146 0.354 0.146s0.256-0.049 0.354-0.146l8.853-8.854h4.793z"></path>
<path d="M27.348 4.985l-0.077-0.256-0.257-0.077c-1.43-0.433-2.907-0.652-4.389-0.652-8.34 0-15.125 6.785-15.125 15.125 0 0.631 0.045 1.278 0.138 1.979 0.037 0.274 0.284 0.462 0.562 0.43 0.274-0.036 0.467-0.288 0.431-0.562-0.088-0.657-0.13-1.261-0.13-1.847-0.001-7.789 6.336-14.125 14.124-14.125 1.296 0 2.587 0.179 3.841 0.533 0.354 1.255 0.534 2.546 0.534 3.842 0 7.789-6.337 14.125-14.125 14.125-0.586 0-1.19-0.042-1.848-0.129-0.271-0.033-0.524 0.155-0.562 0.43-0.036 0.274 0.156 0.525 0.431 0.562 0.7 0.093 1.348 0.138 1.979 0.138 8.34-0.001 15.125-6.786 15.125-15.126 0-1.484-0.22-2.961-0.652-4.39z"></path>
</svg>
