<svg version="1.1" xmlns="http://www.w3.org/2000/svg" width="32" height="32" viewBox="0 0 32 32">
<title>legal</title>
<path d="M27.854 27.146l-11.647-11.646 4.586-4.586c0.362-0.362 0.586-0.862 0.586-1.414s-0.224-1.052-0.586-1.414l-4.879-4.879c-0.367-0.351-0.865-0.567-1.414-0.567s-1.047 0.216-1.415 0.568l0.001-0.001-9.879 9.879c-0.362 0.362-0.586 0.862-0.586 1.414s0.224 1.052 0.586 1.414l4.879 4.879c0.362 0.362 0.862 0.586 1.414 0.586s1.052-0.224 1.414-0.586l4.586-4.586 11.646 11.647c0.091 0.091 0.216 0.147 0.354 0.147 0.276 0 0.501-0.224 0.501-0.501 0-0.138-0.056-0.263-0.147-0.354v0zM13 17.293l-6.293-6.293 4.293-4.293 6.293 6.293zM13.793 3.914c0.181-0.181 0.431-0.293 0.707-0.293s0.526 0.112 0.707 0.293l4.879 4.879c0.181 0.181 0.293 0.431 0.293 0.707s-0.112 0.526-0.293 0.707l-2.086 2.086-6.293-6.293zM10.207 20.086c-0.184 0.175-0.433 0.283-0.707 0.283s-0.523-0.108-0.707-0.283l0 0-4.879-4.879c-0.181-0.181-0.293-0.431-0.293-0.707s0.112-0.526 0.293-0.707l2.086-2.086 6.293 6.293z"></path>
</svg>
