<svg version="1.1" xmlns="http://www.w3.org/2000/svg" width="32" height="32" viewBox="0 0 32 32">
<title>lemon-o</title>
<path d="M26.312 5.689c-0.979-0.979-2.761-0.892-4.324 0.179-4.022-1.861-9.337-0.622-13.040 3.079s-4.942 9.017-3.079 13.040c-1.070 1.564-1.157 3.346-0.18 4.324 0.458 0.458 1.091 0.682 1.796 0.682 0.802 0 1.696-0.291 2.528-0.861 4.024 1.864 9.338 0.622 13.040-3.079s4.942-9.017 3.079-13.040c1.071-1.564 1.158-3.346 0.18-4.324zM25.105 10.188c1.86 3.673 0.726 8.673-2.76 12.158s-8.484 4.621-12.158 2.76l-0.28-0.142-0.249 0.191c-1.199 0.918-2.602 1.11-3.263 0.449-0.661-0.662-0.468-2.064 0.449-3.262l0.191-0.25-0.142-0.281c-1.86-3.673-0.726-8.672 2.76-12.158 2.364-2.364 5.425-3.646 8.296-3.646 1.361 0 2.681 0.288 3.862 0.887l0.28 0.142 0.25-0.191c1.196-0.919 2.599-1.111 3.262-0.449 0.661 0.662 0.468 2.064-0.449 3.261l-0.191 0.25 0.142 0.281z"></path>
<path d="M16 10.5c0 0.276-0.224 0.5-0.5 0.5s-0.5-0.224-0.5-0.5c0-0.276 0.224-0.5 0.5-0.5s0.5 0.224 0.5 0.5z"></path>
<path d="M16 13.5c0 0.276-0.224 0.5-0.5 0.5s-0.5-0.224-0.5-0.5c0-0.276 0.224-0.5 0.5-0.5s0.5 0.224 0.5 0.5z"></path>
<path d="M13 13.5c0 0.276-0.224 0.5-0.5 0.5s-0.5-0.224-0.5-0.5c0-0.276 0.224-0.5 0.5-0.5s0.5 0.224 0.5 0.5z"></path>
</svg>
