<svg version="1.1" xmlns="http://www.w3.org/2000/svg" width="32" height="32" viewBox="0 0 32 32">
<title>level-down</title>
<path d="M29.854 20.146c-0.195-0.195-0.512-0.195-0.707 0l-4.147 4.147v-16.793c0-0.827-0.673-1.5-1.5-1.5h-16c-0.276 0-0.5 0.224-0.5 0.5s0.224 0.5 0.5 0.5h16c0.275 0 0.5 0.224 0.5 0.5v16.793l-4.146-4.146c-0.195-0.195-0.512-0.195-0.707 0s-0.195 0.512 0 0.707l5 5c0.046 0.046 0.102 0.083 0.163 0.108 0.060 0.025 0.125 0.038 0.19 0.038s0.13-0.013 0.191-0.039c0.062-0.025 0.117-0.062 0.163-0.108l5-5c0.195-0.195 0.195-0.511 0-0.707z"></path>
</svg>
