<svg version="1.1" xmlns="http://www.w3.org/2000/svg" width="32" height="32" viewBox="0 0 32 32">
<title>lightbulb-o</title>
<path d="M16.5 2c-5.238 0-9.5 4.262-9.5 9.5 0 3.006 1.381 5.769 3.788 7.581 1.405 1.058 2.212 2.593 2.212 4.213v4.206c0 0.276 0.224 0.5 0.5 0.5h0.551c0.232 1.14 1.242 2 2.449 2s2.217-0.86 2.449-2h0.551c0.276 0 0.5-0.224 0.5-0.5v-4.206c0-1.62 0.807-3.155 2.212-4.213 2.407-1.812 3.788-4.575 3.788-7.581 0-5.238-4.262-9.5-9.5-9.5zM16.5 29c-0.652 0-1.208-0.418-1.414-1h2.828c-0.206 0.582-0.762 1-1.414 1zM19 27h-5v-1h5v1zM19 25h-5v-1h5v1zM21.61 18.282c-1.659 1.249-2.61 3.075-2.61 5.012v-0.294h-5v0.294c0-1.937-0.951-3.763-2.61-5.012-2.155-1.621-3.39-4.094-3.39-6.782 0-4.687 3.813-8.5 8.5-8.5s8.5 3.813 8.5 8.5c0 2.688-1.235 5.161-3.39 6.782z"></path>
<path d="M15.375 7.158c-1.577 0.408-2.81 1.641-3.218 3.217-0.069 0.267 0.092 0.54 0.359 0.609 0.043 0.011 0.085 0.016 0.126 0.016 0.223 0 0.426-0.149 0.484-0.375 0.316-1.225 1.274-2.183 2.499-2.5 0.268-0.069 0.429-0.342 0.359-0.609s-0.338-0.431-0.609-0.358z"></path>
</svg>
