<svg version="1.1" xmlns="http://www.w3.org/2000/svg" width="32" height="32" viewBox="0 0 32 32">
<title>line-chart</title>
<path d="M29.5 13c0.276 0 0.5-0.224 0.5-0.5v0-6c0-0.276-0.224-0.5-0.5-0.5v0h-6c-0.276 0-0.5 0.224-0.5 0.5s0.224 0.5 0.5 0.5v0h4.793l-9.793 9.793-6.646-6.647c-0.082-0.090-0.2-0.147-0.331-0.147-0.008 0-0.016 0-0.024 0.001l0.001-0c-0.139 0.001-0.264 0.057-0.354 0.149l-0 0-8.146 8.265v-13.914c0-0.276-0.224-0.5-0.5-0.5s-0.5 0.224-0.5 0.5v0 21c0 0.276 0.224 0.5 0.5 0.5v0h27c0.276 0 0.5-0.224 0.5-0.5s-0.224-0.5-0.5-0.5v0h-26.5v-5.162l8.5-8.629 6.644 6.645c0.091 0.091 0.216 0.147 0.354 0.147s0.263-0.056 0.354-0.147v0l10.148-10.147v4.793c0 0.276 0.224 0.5 0.5 0.5v0z"></path>
</svg>
