<svg version="1.1" xmlns="http://www.w3.org/2000/svg" width="32" height="32" viewBox="0 0 32 32">
<title>line-area-chart</title>
<path d="M29.694 5.79c-0.058-0.025-0.125-0.040-0.196-0.040-0.135 0-0.257 0.053-0.347 0.14l0-0-5.114 4.972-5.065-3.281c-0.077-0.050-0.171-0.080-0.272-0.080-0.135 0-0.258 0.054-0.348 0.141l0-0-5.115 4.972-5.065-3.283c-0.077-0.051-0.171-0.081-0.272-0.081-0.149 0-0.282 0.065-0.374 0.168l-0 0.001-4.525 5.133v-10.052c0-0.276-0.224-0.5-0.5-0.5s-0.5 0.224-0.5 0.5v0 21c0 0.276 0.224 0.5 0.5 0.5v0h27c0.276 0 0.5-0.224 0.5-0.5v0-19.25c-0-0.206-0.125-0.382-0.303-0.459l-0.003-0.001zM29 25h-26v-1.936l4.99-5.664 5.038 3.265c0.077 0.050 0.171 0.080 0.272 0.080 0.135 0 0.258-0.054 0.348-0.141l-0 0 5.115-4.972 5.065 3.283c0.077 0.050 0.171 0.080 0.272 0.080 0.135 0 0.258-0.054 0.348-0.141l-0 0 4.552-4.421zM29 13.039l-4.963 4.825-5.065-3.283c-0.077-0.050-0.171-0.080-0.272-0.080-0.135 0-0.258 0.054-0.348 0.141l0-0-5.115 4.972-5.065-3.283c-0.077-0.051-0.171-0.081-0.272-0.081-0.149 0-0.282 0.065-0.374 0.168l-0 0.001-4.525 5.133v-5.488l4.99-5.664 5.038 3.265c0.077 0.050 0.171 0.080 0.272 0.080 0.135 0 0.258-0.054 0.348-0.141l-0 0 5.115-4.972 5.065 3.283c0.077 0.050 0.171 0.080 0.272 0.080 0.135 0 0.258-0.054 0.348-0.141l-0 0 4.552-4.42z"></path>
</svg>
