<svg version="1.1" xmlns="http://www.w3.org/2000/svg" width="32" height="32" viewBox="0 0 32 32">
<title>link</title>
<path d="M11.146 11.146c-0.195 0.195-0.195 0.512 0 0.707l9 9c0.098 0.098 0.226 0.147 0.354 0.147s0.256-0.049 0.354-0.146c0.195-0.195 0.195-0.512 0-0.707l-9-9c-0.196-0.196-0.512-0.196-0.708-0.001z"></path>
<path d="M12.331 14.823c-0.402 0.121-0.742 0.177-1.075 0.177-0.998 0-1.938-0.389-2.645-1.095l-2.516-2.517c-0.706-0.706-1.095-1.645-1.095-2.648 0-2.062 1.678-3.74 3.744-3.74 0.998 0 1.938 0.389 2.645 1.095l2.516 2.517c0.706 0.706 1.095 1.645 1.095 2.648 0 0.33-0.056 0.67-0.176 1.071-0.080 0.264 0.070 0.543 0.335 0.623 0.263 0.079 0.544-0.070 0.622-0.335 0.15-0.498 0.219-0.929 0.219-1.363 0-1.267-0.493-2.457-1.389-3.352l-2.516-2.517c-0.896-0.894-2.086-1.387-3.355-1.387-2.614 0-4.74 2.126-4.74 4.744 0 1.267 0.493 2.457 1.389 3.352l2.516 2.517c0.896 0.894 2.086 1.387 3.355 1.387 0.429 0 0.86-0.070 1.358-0.219 0.265-0.079 0.415-0.358 0.335-0.622-0.078-0.264-0.352-0.416-0.622-0.336z"></path>
<path d="M26.611 19.905l-2.516-2.517c-0.896-0.895-2.086-1.388-3.355-1.388-0.429 0-0.86 0.070-1.358 0.219-0.265 0.079-0.415 0.358-0.335 0.622s0.355 0.415 0.622 0.335c0.402-0.12 0.742-0.176 1.075-0.176 0.998 0 1.938 0.389 2.645 1.095l2.516 2.517c0.706 0.706 1.095 1.645 1.095 2.648 0 2.062-1.678 3.74-3.744 3.74-0.998 0-1.938-0.389-2.645-1.095l-2.516-2.517c-0.706-0.706-1.095-1.645-1.095-2.648 0-0.33 0.056-0.67 0.176-1.071 0.080-0.265-0.070-0.543-0.335-0.623-0.262-0.079-0.543 0.070-0.622 0.335-0.15 0.498-0.219 0.929-0.219 1.363 0 1.267 0.493 2.457 1.389 3.352l2.516 2.517c0.896 0.894 2.086 1.387 3.355 1.387 2.614 0 4.74-2.126 4.74-4.744 0-1.267-0.493-2.457-1.389-3.351z"></path>
</svg>
