<svg version="1.1" xmlns="http://www.w3.org/2000/svg" width="32" height="32" viewBox="0 0 32 32">
<title>list-alt</title>
<path d="M9.5 14c-0.827 0-1.5 0.673-1.5 1.5s0.673 1.5 1.5 1.5 1.5-0.673 1.5-1.5-0.673-1.5-1.5-1.5zM9.5 16c-0.275 0-0.5-0.224-0.5-0.5s0.225-0.5 0.5-0.5 0.5 0.224 0.5 0.5-0.225 0.5-0.5 0.5z"></path>
<path d="M23.5 15h-10c-0.276 0-0.5 0.224-0.5 0.5s0.224 0.5 0.5 0.5h10c0.276 0 0.5-0.224 0.5-0.5s-0.224-0.5-0.5-0.5z"></path>
<path d="M9.5 9c-0.827 0-1.5 0.673-1.5 1.5s0.673 1.5 1.5 1.5 1.5-0.673 1.5-1.5-0.673-1.5-1.5-1.5zM9.5 11c-0.275 0-0.5-0.224-0.5-0.5s0.225-0.5 0.5-0.5 0.5 0.224 0.5 0.5-0.225 0.5-0.5 0.5z"></path>
<path d="M23.5 10h-10c-0.276 0-0.5 0.224-0.5 0.5s0.224 0.5 0.5 0.5h10c0.276 0 0.5-0.224 0.5-0.5s-0.224-0.5-0.5-0.5z"></path>
<path d="M9.5 19c-0.827 0-1.5 0.673-1.5 1.5s0.673 1.5 1.5 1.5 1.5-0.673 1.5-1.5-0.673-1.5-1.5-1.5zM9.5 21c-0.275 0-0.5-0.224-0.5-0.5s0.225-0.5 0.5-0.5 0.5 0.224 0.5 0.5-0.225 0.5-0.5 0.5z"></path>
<path d="M18.5 20h-5c-0.276 0-0.5 0.224-0.5 0.5s0.224 0.5 0.5 0.5h5c0.276 0 0.5-0.224 0.5-0.5s-0.224-0.5-0.5-0.5z"></path>
<path d="M26.5 4h-21c-0.827 0-1.5 0.673-1.5 1.5v21c0 0.827 0.673 1.5 1.5 1.5h15.586c0.395 0 0.781-0.16 1.061-0.439l5.414-5.414c0.283-0.284 0.439-0.661 0.439-1.061v-15.586c0-0.827-0.673-1.5-1.5-1.5zM22 26.293v-3.793c0-0.276 0.225-0.5 0.5-0.5h3.793l-4.293 4.293zM27 21h-4.5c-0.827 0-1.5 0.673-1.5 1.5v4.5h-15.5c-0.275 0-0.5-0.224-0.5-0.5v-21c0-0.276 0.225-0.5 0.5-0.5h21c0.275 0 0.5 0.224 0.5 0.5v15.5z"></path>
</svg>
