<svg version="1.1" xmlns="http://www.w3.org/2000/svg" width="32" height="32" viewBox="0 0 32 32">
<title>list</title>
<path d="M10.5 13c-0.827 0-1.5 0.673-1.5 1.5s0.673 1.5 1.5 1.5 1.5-0.673 1.5-1.5-0.673-1.5-1.5-1.5zM10.5 15c-0.275 0-0.5-0.224-0.5-0.5s0.225-0.5 0.5-0.5 0.5 0.224 0.5 0.5-0.225 0.5-0.5 0.5z"></path>
<path d="M14 14.5c0 0.276 0.224 0.5 0.5 0.5h8c0.276 0 0.5-0.224 0.5-0.5s-0.224-0.5-0.5-0.5h-8c-0.276 0-0.5 0.224-0.5 0.5z"></path>
<path d="M10.5 18c-0.827 0-1.5 0.673-1.5 1.5s0.673 1.5 1.5 1.5 1.5-0.673 1.5-1.5-0.673-1.5-1.5-1.5zM10.5 20c-0.275 0-0.5-0.224-0.5-0.5s0.225-0.5 0.5-0.5 0.5 0.224 0.5 0.5-0.225 0.5-0.5 0.5z"></path>
<path d="M22.5 19h-8c-0.276 0-0.5 0.224-0.5 0.5s0.224 0.5 0.5 0.5h8c0.276 0 0.5-0.224 0.5-0.5s-0.224-0.5-0.5-0.5z"></path>
<path d="M10.5 23c-0.827 0-1.5 0.673-1.5 1.5s0.673 1.5 1.5 1.5 1.5-0.673 1.5-1.5-0.673-1.5-1.5-1.5zM10.5 25c-0.275 0-0.5-0.224-0.5-0.5s0.225-0.5 0.5-0.5 0.5 0.224 0.5 0.5-0.225 0.5-0.5 0.5z"></path>
<path d="M22.5 24h-8c-0.276 0-0.5 0.224-0.5 0.5s0.224 0.5 0.5 0.5h8c0.276 0 0.5-0.224 0.5-0.5s-0.224-0.5-0.5-0.5z"></path>
<path d="M25.561 9.854l-6.414-6.414c-0.28-0.28-0.667-0.44-1.061-0.44h-10.586c-0.827 0-1.5 0.673-1.5 1.5v23c0 0.827 0.673 1.5 1.5 1.5h17c0.827 0 1.5-0.673 1.5-1.5v-16.586c0-0.4-0.156-0.777-0.439-1.060zM19 4.707l5.293 5.293h-4.793c-0.275 0-0.5-0.224-0.5-0.5v-4.793zM25 27.5c0 0.276-0.225 0.5-0.5 0.5h-17c-0.275 0-0.5-0.224-0.5-0.5v-23c0-0.276 0.225-0.5 0.5-0.5h10.5v5.5c0 0.827 0.673 1.5 1.5 1.5h5.5v16.5z"></path>
</svg>
