<svg version="1.1" xmlns="http://www.w3.org/2000/svg" width="32" height="32" viewBox="0 0 32 32">
<title>list-ul</title>
<path d="M13 8h16c0.552 0 1-0.448 1-1s-0.448-1-1-1h-16c-0.552 0-1 0.448-1 1s0.448 1 1 1zM5 4c-1.654 0-3 1.346-3 3s1.346 3 3 3 3-1.346 3-3-1.346-3-3-3zM5 8c-0.55 0-1-0.448-1-1s0.45-1 1-1 1 0.448 1 1-0.45 1-1 1zM29 16h-16c-0.552 0-1 0.448-1 1s0.448 1 1 1h16c0.552 0 1-0.448 1-1s-0.448-1-1-1zM5 14c-1.654 0-3 1.346-3 3s1.346 3 3 3 3-1.346 3-3-1.346-3-3-3zM5 18c-0.55 0-1-0.448-1-1s0.45-1 1-1 1 0.448 1 1-0.45 1-1 1zM29 26h-16c-0.552 0-1 0.448-1 1s0.448 1 1 1h16c0.552 0 1-0.448 1-1s-0.448-1-1-1zM5 24c-1.654 0-3 1.346-3 3s1.346 3 3 3 3-1.346 3-3-1.346-3-3-3zM5 28c-0.55 0-1-0.448-1-1s0.45-1 1-1 1 0.448 1 1-0.45 1-1 1z"></path>
</svg>
