<svg version="1.1" xmlns="http://www.w3.org/2000/svg" width="32" height="32" viewBox="0 0 32 32">
<title>list-ol</title>
<path d="M15 14.5c0 0.276 0.224 0.5 0.5 0.5h6c0.276 0 0.5-0.224 0.5-0.5s-0.224-0.5-0.5-0.5h-6c-0.276 0-0.5 0.224-0.5 0.5z"></path>
<path d="M21.5 22h-6c-0.276 0-0.5 0.224-0.5 0.5s0.224 0.5 0.5 0.5h6c0.276 0 0.5-0.224 0.5-0.5s-0.224-0.5-0.5-0.5z"></path>
<path d="M25.561 9.854l-6.414-6.414c-0.28-0.28-0.667-0.44-1.061-0.44h-10.586c-0.827 0-1.5 0.673-1.5 1.5v23c0 0.827 0.673 1.5 1.5 1.5h17c0.827 0 1.5-0.673 1.5-1.5v-16.586c0-0.4-0.156-0.777-0.439-1.060zM19 4.707l5.293 5.293h-4.793c-0.275 0-0.5-0.224-0.5-0.5v-4.793zM25 27.5c0 0.276-0.225 0.5-0.5 0.5h-17c-0.275 0-0.5-0.224-0.5-0.5v-23c0-0.276 0.225-0.5 0.5-0.5h10.5v5.5c0 0.827 0.673 1.5 1.5 1.5h5.5v16.5z"></path>
<path d="M10.724 13.447l0.276-0.138v3.191c0 0.276 0.224 0.5 0.5 0.5s0.5-0.224 0.5-0.5v-4c0-0.173-0.090-0.334-0.237-0.425s-0.331-0.1-0.486-0.022l-1 0.5c-0.247 0.123-0.347 0.424-0.224 0.671 0.124 0.247 0.424 0.346 0.671 0.223z"></path>
<path d="M11.8 23.4c0.535-0.401 1.2-0.9 1.2-1.9 0-0.827-0.673-1.5-1.5-1.5s-1.5 0.673-1.5 1.5c0 0.276 0.224 0.5 0.5 0.5s0.5-0.224 0.5-0.5c0-0.276 0.225-0.5 0.5-0.5s0.5 0.224 0.5 0.5c0 0.477-0.289 0.717-0.8 1.1-0.535 0.401-1.2 0.9-1.2 1.9 0 0.276 0.224 0.5 0.5 0.5h2c0.276 0 0.5-0.224 0.5-0.5s-0.224-0.5-0.5-0.5h-1.354c0.133-0.202 0.356-0.376 0.654-0.6z"></path>
</svg>
