<svg id="Layer_1" data-name="Layer 1" xmlns="http://www.w3.org/2000/svg" width="32" height="32" viewBox="0 0 32 32"><path d="M16,2A14,14,0,1,0,30,16,14.015,14.015,0,0,0,16,2Zm0,27A13,13,0,1,1,29,16,13.015,13.015,0,0,1,16,29Z"/><path d="M20.678,10a1.3,1.3,0,0,0-.547.119L9.649,14.883A1.108,1.108,0,0,0,10.108,17H15v4.892a1.108,1.108,0,0,0,2.117.459L21.881,11.87A1.309,1.309,0,0,0,22,11.322,1.323,1.323,0,0,0,20.678,10Zm.293,1.455L16.207,21.937A.113.113,0,0,1,16,21.892V16.5a.5.5,0,0,0-.5-.5H10.108a.109.109,0,0,1-.045-.207l10.482-4.765A.337.337,0,0,1,20.678,11a.322.322,0,0,1,.293.455Z"/></svg>