<svg version="1.1" xmlns="http://www.w3.org/2000/svg" width="32" height="32" viewBox="0 0 32 32">
<title>location-arrow</title>
<path d="M27.854 4.146c-0.149-0.15-0.378-0.189-0.57-0.097l-25 12c-0.21 0.101-0.322 0.334-0.271 0.562s0.254 0.389 0.487 0.389h12.5v12.5c0 0.233 0.161 0.436 0.389 0.487 0.037 0.009 0.074 0.013 0.111 0.013 0.189 0 0.366-0.107 0.451-0.284l12-25c0.092-0.191 0.053-0.42-0.097-0.57zM16 27.303v-10.803c0-0.276-0.224-0.5-0.5-0.5h-10.803l21.737-10.434-10.434 21.737z"></path>
</svg>
