<svg id="Layer_1" data-name="Layer 1" xmlns="http://www.w3.org/2000/svg" width="32" height="32" viewBox="0 0 32 32"><path d="M29.5,15.5H25.964A9.941,9.941,0,0,0,24.4,10.58a.5.5,0,1,0-.839.543A8.992,8.992,0,0,1,11.123,23.557a.5.5,0,0,0-.543.839,9.941,9.941,0,0,0,4.92,1.568V29.5a.5.5,0,0,0,1,0V25.975A10,10,0,0,0,25.975,16.5H29.5a.5.5,0,0,0,0-1Z"/><path d="M16,20a3.958,3.958,0,0,1-1.262-.225.5.5,0,1,0-.318.948A4.916,4.916,0,0,0,16,21a5.006,5.006,0,0,0,5-5,4.916,4.916,0,0,0-.277-1.58.5.5,0,1,0-.948.318A3.958,3.958,0,0,1,20,16,4,4,0,0,1,16,20Z"/><path d="M29.854,2.854a.5.5,0,0,0-.708-.708L22.7,8.592a9.908,9.908,0,0,0-6.2-2.568V2.5a.5.5,0,0,0-1,0V6.025A10,10,0,0,0,6.025,15.5H2.5a.5.5,0,0,0,0,1H6.024a9.9,9.9,0,0,0,2.569,6.2L2.146,29.146a.5.5,0,0,0,.708.708ZM7,16A8.989,8.989,0,0,1,21.993,9.3l-2.845,2.846A4.951,4.951,0,0,0,16,11a5.006,5.006,0,0,0-5,5,4.955,4.955,0,0,0,1.145,3.148L9.3,21.993A8.927,8.927,0,0,1,7,16Zm11.441-3.148L12.852,18.44A3.961,3.961,0,0,1,12,16a4,4,0,0,1,4-4A3.963,3.963,0,0,1,18.441,12.852Z"/></svg>