<svg version="1.1" xmlns="http://www.w3.org/2000/svg" width="32" height="32" viewBox="0 0 32 32">
<title>lock</title>
<path d="M16 18c-1.105 0-2 0.895-2 2v0 2c0 1.105 0.895 2 2 2s2-0.895 2-2v0-2c0-1.105-0.895-2-2-2v0zM17 22c0 0.552-0.448 1-1 1s-1-0.448-1-1v0-2c0-0.552 0.448-1 1-1s1 0.448 1 1v0z"></path>
<path d="M25.056 12h-2.056v-3c0-3.866-3.134-7-7-7s-7 3.134-7 7v0 3h-2.056c-1.657 0-3 1.343-3 3v0 12c0 1.657 1.343 3 3 3v0h18.112c1.657 0 3-1.343 3-3v0-12c0-1.657-1.343-3-3-3v0zM10 9c0-3.314 2.686-6 6-6s6 2.686 6 6v0 3h-12zM27.056 27c0 1.105-0.895 2-2 2v0h-18.112c-1.105 0-2-0.895-2-2v0-12c0-1.105 0.895-2 2-2v0h18.112c1.105 0 2 0.895 2 2v0z"></path>
</svg>
