<svg version="1.1" xmlns="http://www.w3.org/2000/svg" width="32" height="32" viewBox="0 0 32 32">
<title>lock-new</title>
<path d="M22 14v0.5c0 0.276 0.224 0.5 0.5 0.5s0.5-0.224 0.5-0.5v0-0.5c0-1.657-1.343-3-3-3v0h-1v-2.5c0-3.59-2.91-6.5-6.5-6.5s-6.5 2.91-6.5 6.5v0 2.5h-1c-1.657 0-3 1.343-3 3v0 10c0 1.657 1.343 3 3 3v0h9.5c0.276 0 0.5-0.224 0.5-0.5s-0.224-0.5-0.5-0.5v0h-9.5c-1.105 0-2-0.895-2-2v0-10c0-1.105 0.895-2 2-2v0h15c1.105 0 2 0.895 2 2v0zM7 8.5c0-3.038 2.462-5.5 5.5-5.5s5.5 2.462 5.5 5.5v0 2.5h-11z"></path>
<path d="M30.080 27.567l-3.58-2.067 3.58-2.067c0.152-0.088 0.253-0.249 0.253-0.435 0-0.276-0.224-0.5-0.5-0.5-0.093 0-0.18 0.026-0.255 0.070l0.002-0.001-3.58 2.067v-4.134c0-0.276-0.224-0.5-0.5-0.5s-0.5 0.224-0.5 0.5v0 4.134l-3.58-2.067c-0.072-0.043-0.16-0.069-0.253-0.069-0.276 0-0.5 0.224-0.5 0.5 0 0.185 0.101 0.347 0.25 0.433l0.002 0.001 3.58 2.067-3.58 2.067c-0.151 0.088-0.25 0.249-0.25 0.433 0 0.276 0.224 0.5 0.5 0.5v0c0 0 0.001 0 0.002 0 0.092 0 0.177-0.025 0.251-0.068l-0.002 0.001 3.58-2.067v4.134c0 0.276 0.224 0.5 0.5 0.5s0.5-0.224 0.5-0.5v0-4.134l3.58 2.067c0.072 0.042 0.158 0.067 0.25 0.067 0.184 0 0.345-0.099 0.432-0.248l0.001-0.002c0.042-0.072 0.067-0.158 0.067-0.25 0-0.184-0.099-0.345-0.248-0.432l-0.002-0.001z"></path>
</svg>
