<svg version="1.1" xmlns="http://www.w3.org/2000/svg" width="32" height="32" viewBox="0 0 32 32">
<title>lock-plus</title>
<path d="M5 12h15c1.105 0 2 0.895 2 2v0 0.5c0 0.276 0.224 0.5 0.5 0.5s0.5-0.224 0.5-0.5v0-0.5c0-1.657-1.343-3-3-3v0h-1v-2.5c0-3.59-2.91-6.5-6.5-6.5s-6.5 2.91-6.5 6.5v0 2.5h-1c-1.657 0-3 1.343-3 3v0 10c0 1.657 1.343 3 3 3v0h9.5c0.276 0 0.5-0.224 0.5-0.5s-0.224-0.5-0.5-0.5v0h-9.5c-1.105 0-2-0.895-2-2v0-10c0-1.105 0.895-2 2-2v0zM7 8.5c0-3.038 2.462-5.5 5.5-5.5s5.5 2.462 5.5 5.5v0 2.5h-11z"></path>
<path d="M28.5 24h-3.5v-3.5c0-0.276-0.224-0.5-0.5-0.5s-0.5 0.224-0.5 0.5v0 3.5h-3.5c-0.276 0-0.5 0.224-0.5 0.5s0.224 0.5 0.5 0.5v0h3.5v3.5c0 0.276 0.224 0.5 0.5 0.5s0.5-0.224 0.5-0.5v0-3.5h3.5c0.276 0 0.5-0.224 0.5-0.5s-0.224-0.5-0.5-0.5v0z"></path>
</svg>
