<svg version="1.1" xmlns="http://www.w3.org/2000/svg" width="32" height="32" viewBox="0 0 32 32">
<title>lock-check</title>
<path d="M14.5 26h-9.5c-1.105 0-2-0.895-2-2v0-10c0-1.105 0.895-2 2-2v0h15c1.105 0 2 0.895 2 2v0 0.5c0 0.276 0.224 0.5 0.5 0.5s0.5-0.224 0.5-0.5v0-0.5c0-1.657-1.343-3-3-3v0h-1v-2.5c0-3.59-2.91-6.5-6.5-6.5s-6.5 2.91-6.5 6.5v0 2.5h-1c-1.657 0-3 1.343-3 3v0 10c0 1.657 1.343 3 3 3v0h9.5c0.276 0 0.5-0.224 0.5-0.5s-0.224-0.5-0.5-0.5v0zM7 8.5c0-3.038 2.462-5.5 5.5-5.5s5.5 2.462 5.5 5.5v0 2.5h-11z"></path>
<path d="M28.354 20.146c-0.091-0.091-0.216-0.147-0.354-0.147s-0.263 0.056-0.354 0.147v0l-5.646 5.647-2.646-2.647c-0.091-0.091-0.216-0.147-0.354-0.147-0.276 0-0.501 0.224-0.501 0.501 0 0.138 0.056 0.263 0.147 0.354l3 3c0.091 0.091 0.216 0.147 0.354 0.147s0.263-0.056 0.354-0.147v0l6-6c0.091-0.091 0.147-0.216 0.147-0.354s-0.056-0.263-0.147-0.354v0z"></path>
</svg>
