<svg version="1.1" xmlns="http://www.w3.org/2000/svg" width="32" height="32" viewBox="0 0 32 32">
<title>low-vision</title>
<path d="M29.871 15.665c-1.948-2.155-7.198-7.165-13.871-7.165-1.353 0.006-2.657 0.203-3.892 0.563l0.1-0.025-4.285-6.8c-0.090-0.141-0.246-0.233-0.423-0.233-0.276 0-0.5 0.224-0.5 0.5 0 0.099 0.029 0.191 0.078 0.269l-0.001-0.002 4.141 6.577c-3.603 1.419-6.648 3.574-9.068 6.297l-0.021 0.024c-0.080 0.088-0.129 0.206-0.129 0.335s0.049 0.247 0.129 0.335l-0-0c1.948 2.15 7.198 7.16 13.871 7.16 1.353-0.006 2.658-0.203 3.893-0.563l-0.1 0.025 4.284 6.805c0.090 0.141 0.246 0.233 0.423 0.233 0.276 0 0.5-0.224 0.5-0.5 0-0.099-0.029-0.191-0.078-0.269l0.001 0.002-4.142-6.577c3.604-1.419 6.648-3.574 9.069-6.297l0.021-0.024c0.080-0.088 0.129-0.206 0.129-0.335s-0.049-0.247-0.129-0.335l0 0zM8.3 11.858l6.67 10.594c-1.441-0.136-2.767-0.471-4.004-0.978l0.093 0.034-5.072-8.055c0.672-0.532 1.426-1.058 2.212-1.538l0.101-0.057zM3.181 16c0.636-0.668 1.296-1.293 1.988-1.882l0.036-0.030 4.2 6.67c-2.399-1.298-4.452-2.883-6.213-4.746l-0.011-0.012zM16.181 22.492l-7.009-11.128c0.729-0.404 1.587-0.789 2.48-1.101l0.12-0.037 7.459 11.846c-0.911 0.249-1.96 0.401-3.042 0.42l-0.011 0zM20.229 21.774l-1.913-3.039c0.786-0.657 1.283-1.638 1.284-2.735v-0c0-1.988-1.612-3.6-3.6-3.6v0c-0.534 0.002-1.038 0.123-1.49 0.337l0.021-0.009-1.763-2.8c0.968-0.268 2.081-0.423 3.229-0.428h0.003c6.051 0 11.030 4.607 12.819 6.5-2.33 2.508-5.205 4.477-8.439 5.722l-0.154 0.052z"></path>
</svg>
