<svg version="1.1" xmlns="http://www.w3.org/2000/svg" width="32" height="32" viewBox="0 0 32 32">
<title>magic</title>
<path d="M29.5 10h-3c-0.276 0-0.5 0.224-0.5 0.5s0.224 0.5 0.5 0.5h3c0.276 0 0.5-0.224 0.5-0.5s-0.224-0.5-0.5-0.5z"></path>
<path d="M21.5 6c0.276 0 0.5-0.224 0.5-0.5v-3c0-0.276-0.224-0.5-0.5-0.5s-0.5 0.224-0.5 0.5v3c0 0.276 0.224 0.5 0.5 0.5z"></path>
<path d="M25.5 7c0.128 0 0.256-0.049 0.354-0.146l2-2c0.195-0.195 0.195-0.512 0-0.707s-0.512-0.195-0.707 0l-2 2c-0.195 0.195-0.195 0.512 0 0.707 0.097 0.097 0.225 0.146 0.353 0.146z"></path>
<path d="M25.854 14.146c-0.195-0.195-0.512-0.195-0.707 0s-0.195 0.512 0 0.707l2 2c0.097 0.098 0.225 0.147 0.353 0.147s0.256-0.049 0.354-0.146c0.195-0.195 0.195-0.512 0-0.707l-2-2.001z"></path>
<path d="M17.146 6.854c0.098 0.097 0.226 0.146 0.354 0.146s0.256-0.049 0.354-0.146c0.195-0.195 0.195-0.512 0-0.707l-2-2c-0.195-0.195-0.512-0.195-0.707 0s-0.195 0.512 0 0.707l1.999 2z"></path>
<path d="M22.084 8c-0.51 0-0.99 0.199-1.351 0.56l-16.173 16.173c-0.362 0.361-0.56 0.841-0.56 1.357 0 1.053 0.856 1.91 1.916 1.91 0.51 0 0.99-0.199 1.351-0.56l10.596-10.596c0 0 0.001 0 0.001-0.001s0-0.001 0.001-0.001l5.575-5.575c0.362-0.361 0.56-0.841 0.56-1.357 0-1.053-0.856-1.91-1.916-1.91zM6.56 26.733c-0.172 0.172-0.401 0.267-0.65 0.267-0.502 0-0.91-0.408-0.91-0.916 0-0.243 0.095-0.472 0.267-0.644l10.243-10.244 1.293 1.293-10.243 10.244zM22.733 10.56l-5.223 5.223-1.293-1.293 5.223-5.223c0.172-0.172 0.401-0.267 0.65-0.267 0.502 0 0.91 0.408 0.91 0.916 0 0.243-0.095 0.472-0.267 0.644z"></path>
</svg>
