<svg version="1.1" xmlns="http://www.w3.org/2000/svg" width="32" height="32" viewBox="0 0 32 32">
<title>magnet</title>
<path d="M16 4c-5.514 0-10 4.486-10 10v13.5c0 0.276 0.224 0.5 0.5 0.5h5c0.276 0 0.5-0.224 0.5-0.5v-13.5c0-2.206 1.794-4 4-4s4 1.794 4 4v13.5c0 0.276 0.224 0.5 0.5 0.5h5c0.276 0 0.5-0.224 0.5-0.5v-13.5c0-5.514-4.486-10-10-10zM7 27v-2.961h4v2.961h-4zM16 9c-2.757 0-5 2.243-5 5v9.039h-4v-9.039c0-4.962 4.037-9 9-9s9 4.038 9 9v9.039h-4v-9.039c0-2.757-2.243-5-5-5zM21 27v-2.961h4v2.961h-4z"></path>
</svg>
