<svg version="1.1" xmlns="http://www.w3.org/2000/svg" width="32" height="32" viewBox="0 0 32 32">
<title>male</title>
<path d="M16 8c1.654 0 3-1.346 3-3s-1.346-3-3-3-3 1.346-3 3 1.346 3 3 3zM16 3c1.103 0 2 0.897 2 2s-0.897 2-2 2c-1.103 0-2-0.897-2-2s0.897-2 2-2z"></path>
<path d="M18 9.028h-4c-1.654 0-3 1.346-3 3v5.743c0 0.594 0.174 1.169 0.504 1.664l1.16 1.74c0.22 0.33 0.336 0.714 0.336 1.11v7.243c0 0.276 0.224 0.5 0.5 0.5h5c0.276 0 0.5-0.224 0.5-0.5v-7.243c0-0.396 0.116-0.779 0.336-1.109l1.16-1.74c0.33-0.497 0.504-1.072 0.504-1.665v-5.743c0-1.654-1.346-3-3-3zM20 17.771c0 0.396-0.116 0.779-0.336 1.109l-1.16 1.74c-0.33 0.495-0.504 1.071-0.504 1.665v6.743h-4v-6.743c0-0.595-0.174-1.171-0.504-1.664l-1.16-1.74c-0.22-0.33-0.336-0.714-0.336-1.11v-5.743c0-1.103 0.897-2 2-2h4c1.103 0 2 0.897 2 2v5.743z"></path>
</svg>
