<svg id="Layer_1" data-name="Layer 1" xmlns="http://www.w3.org/2000/svg" width="32" height="32" viewBox="0 0 32 32"><path d="M9,2A7.00787,7.00787,0,0,0,2,9c0,4.64307,6.36279,11.54834,6.63379,11.84033a.49979.49979,0,0,0,.73242,0C9.63721,20.54834,16,13.64307,16,9A7.00787,7.00787,0,0,0,9,2ZM9,19.75049C7.645,18.207,3,12.64941,3,9A6,6,0,0,1,15,9C15,12.64941,10.355,18.207,9,19.75049ZM9,6a3,3,0,1,0,3,3A3.00328,3.00328,0,0,0,9,6Zm0,5a2,2,0,1,1,2-2A2.002,2.002,0,0,1,9,11Zm14,0a7.00787,7.00787,0,0,0-7,7c0,4.64307,6.36279,11.54834,6.63379,11.84033a.49979.49979,0,0,0,.73242,0C23.63721,29.54834,30,22.64307,30,18A7.00787,7.00787,0,0,0,23,11Zm0,17.75049C21.645,27.207,17,21.64941,17,18a6,6,0,0,1,12,0C29,21.64941,24.355,27.207,23,28.75049ZM23,15a3,3,0,1,0,3,3A3.00328,3.00328,0,0,0,23,15Zm0,5a2,2,0,1,1,2-2A2.002,2.002,0,0,1,23,20Z"/></svg>