<svg id="Layer_1" data-name="Layer 1" xmlns="http://www.w3.org/2000/svg" width="32" height="32" viewBox="0 0 32 32"><path d="M16,14a3,3,0,1,0,3,3A3.00328,3.00328,0,0,0,16,14Zm0,5a2,2,0,1,1,2-2A2.002,2.002,0,0,1,16,19ZM7.57227,9.62354a.50025.50025,0,0,1-.58789.80957L3.63525,8.00146a.50025.50025,0,0,1,.58789-.80957Zm3.03125-6.96045a.5.5,0,1,1,.94531-.32618l1.42578,4.13526a.5.5,0,0,1-.94531.32617ZM28.36475,8.00146l-3.34913,2.43165a.50025.50025,0,0,1-.58789-.80957l3.34913-2.43165a.50025.50025,0,1,1,.58789.80957ZM19.02539,6.47217l1.42578-4.13526a.5.5,0,1,1,.94531.32618L19.9707,6.79834a.5.5,0,0,1-.94531-.32617ZM16,10a7.00787,7.00787,0,0,0-7,7c0,4.62451,6.3418,12.48291,6.61182,12.81543a.50049.50049,0,0,0,.77636,0C16.6582,29.48291,23,21.62451,23,17A7.00787,7.00787,0,0,0,16,10Zm0,18.69092C14.61426,26.89746,10,20.6499,10,17a6,6,0,0,1,12,0C22,20.648,17.38525,26.89746,16,28.69092Z"/></svg>