<svg id="Layer_1" data-name="Layer 1" xmlns="http://www.w3.org/2000/svg" width="32" height="32" viewBox="0 0 32 32"><path d="M30,17.7998c0,5.5586-6.38086,11.79688-6.65234,12.05958a.50008.50008,0,0,1-.69532,0C22.38086,29.59668,16,23.3584,16,17.7998a7.00295,7.00295,0,0,1,14,0ZM25,18a2,2,0,1,0-2,2A2.00219,2.00219,0,0,0,25,18ZM16,8.7998c0,5.5586-6.38086,11.79688-6.65234,12.05958a.50008.50008,0,0,1-.69532,0C8.38086,20.59668,2,14.3584,2,8.7998A6.90981,6.90981,0,0,1,9,2,6.90981,6.90981,0,0,1,16,8.7998ZM11,9a2,2,0,1,0-2,2A2.00219,2.00219,0,0,0,11,9Z"/></svg>