<svg id="Layer_1" data-name="Layer 1" xmlns="http://www.w3.org/2000/svg" width="32" height="32" viewBox="0 0 32 32"><path d="M26,5H22.417L20.361,2.675A2,2,0,0,0,18.863,2H13.137a2,2,0,0,0-1.5.675L9.583,5H6A2,2,0,0,0,4,7V18a2,2,0,0,0,2,2h5.251l4.292,9.7A.5.5,0,0,0,16,30h0a.5.5,0,0,0,.456-.3L20.823,20H26a2,2,0,0,0,2-2V7A2,2,0,0,0,26,5Zm1,13a1,1,0,0,1-1,1H20.5a.5.5,0,0,0-.456.3L16,28.273,12.034,19.3a.5.5,0,0,0-.457-.3H6a1,1,0,0,1-1-1V7A1,1,0,0,1,6,6H9.808a.5.5,0,0,0,.374-.168l2.206-2.495A1,1,0,0,1,13.137,3h5.726a1,1,0,0,1,.749.338l2.206,2.494A.5.5,0,0,0,22.192,6H26a1,1,0,0,1,1,1Z"/><path d="M16,8a4,4,0,1,0,4,4A4,4,0,0,0,16,8Zm0,7a3,3,0,1,1,3-3A3,3,0,0,1,16,15Z"/></svg>