<svg version="1.1" xmlns="http://www.w3.org/2000/svg" width="32" height="32" viewBox="0 0 32 32">
<title>map-o</title>
<path d="M29.608 10.012l-3.113-0.692c-0.268-0.059-0.536 0.111-0.597 0.38-0.060 0.27 0.11 0.537 0.38 0.597l2.722 0.604v15.975l-8-1.778v-6.598c0-0.276-0.224-0.5-0.5-0.5s-0.5 0.224-0.5 0.5v6.675l-8 3.556v-15.906l3.069-1.364c0.252-0.112 0.366-0.408 0.254-0.66s-0.407-0.366-0.66-0.254l-3.216 1.429-8.839-1.964c-0.15-0.033-0.303 0.002-0.421 0.098-0.119 0.095-0.187 0.238-0.187 0.39v17c0 0.234 0.163 0.438 0.392 0.488l9 2c0.036 0.008 0.072 0.012 0.108 0.012 0.071 0 0.138-0.016 0.199-0.042 0.001 0 0.003 0 0.004-0.001l8.85-3.933 8.839 1.964c0.146 0.031 0.304-0.004 0.421-0.098 0.119-0.095 0.187-0.238 0.187-0.39v-17c0-0.234-0.163-0.438-0.392-0.488zM3 11.124l8 1.778v15.976l-8-1.778v-15.976z"></path>
<path d="M20.5 17c0.128 0 0.256-0.049 0.354-0.146 0.168-0.17 4.146-4.195 4.146-8.354 0-2.481-2.019-4.5-4.5-4.5s-4.5 2.019-4.5 4.5c0 4.159 3.978 8.184 4.146 8.354 0.098 0.097 0.226 0.146 0.354 0.146zM20.5 5c1.93 0 3.5 1.57 3.5 3.5 0 3.058-2.548 6.199-3.5 7.266-0.953-1.066-3.5-4.203-3.5-7.266 0-1.93 1.57-3.5 3.5-3.5z"></path>
<path d="M22 8.5c0-0.827-0.673-1.5-1.5-1.5s-1.5 0.673-1.5 1.5 0.673 1.5 1.5 1.5 1.5-0.673 1.5-1.5zM20 8.5c0-0.276 0.225-0.5 0.5-0.5s0.5 0.224 0.5 0.5-0.225 0.5-0.5 0.5-0.5-0.224-0.5-0.5z"></path>
</svg>
