<svg id="Layer_1" data-name="Layer 1" xmlns="http://www.w3.org/2000/svg" width="32" height="32" viewBox="0 0 32 32"><path d="M25.358,10.327a.5.5,0,0,0-.435.557A8.861,8.861,0,0,1,25,12c0,6.914-7.3,14.99-9,16.782a49.78,49.78,0,0,1-3.837-4.6.5.5,0,1,0-.806.592,47.568,47.568,0,0,0,4.29,5.076.5.5,0,0,0,.705,0C16.746,29.465,26,20.207,26,12a10.049,10.049,0,0,0-.084-1.239A.5.5,0,0,0,25.358,10.327Z"/><path d="M29.854,2.146a.5.5,0,0,0-.708,0L24.5,6.79A9.979,9.979,0,0,0,6,12c0,2.87,1.155,6.194,3.413,9.88L2.146,29.146a.5.5,0,0,0,.708.708l27-27A.5.5,0,0,0,29.854,2.146ZM7,12A8.984,8.984,0,0,1,23.778,7.515l-3.843,3.843a3.993,3.993,0,1,0-4.577,4.577l-5.216,5.216C8.065,17.71,7,14.63,7,12Zm9.327,2.966A2.352,2.352,0,0,1,16,15a3,3,0,1,1,3-3,2.352,2.352,0,0,1-.034.327Z"/></svg>