<svg version="1.1" xmlns="http://www.w3.org/2000/svg" width="32" height="32" viewBox="0 0 32 32">
<title>map-signs</title>
<path d="M29.854 20.146l-5-5c-0.094-0.093-0.221-0.146-0.354-0.146h-11c-0.276 0-0.5 0.224-0.5 0.5v10c0 0.276 0.224 0.5 0.5 0.5h11c0.133 0 0.26-0.053 0.354-0.146l5-5c0.195-0.196 0.195-0.512 0-0.708zM24.293 25h-10.293v-9h10.293l4.5 4.5-4.5 4.5z"></path>
<path d="M11.5 16h-3.793l-4.5-4.5 4.5-4.5h10.293v6.5c0 0.276 0.224 0.5 0.5 0.5s0.5-0.224 0.5-0.5v-7c0-0.276-0.224-0.5-0.5-0.5h-11c-0.133 0-0.26 0.053-0.354 0.146l-5 5c-0.195 0.195-0.195 0.512 0 0.707l5 5c0.094 0.094 0.221 0.147 0.354 0.147h4c0.276 0 0.5-0.224 0.5-0.5s-0.224-0.5-0.5-0.5z"></path>
</svg>
