<svg id="Layer_1" data-name="Layer 1" xmlns="http://www.w3.org/2000/svg" width="32" height="32" viewBox="0 0 32 32"><path d="M25.667,6.689a4.635,4.635,0,0,0-1.388-3.317,4.765,4.765,0,0,0-6.686,0L16,4.948,14.408,3.372a4.767,4.767,0,0,0-6.687,0,4.657,4.657,0,0,0,0,6.634l7.779,7.7V29.5a.5.5,0,0,0,1,0V17.708l7.779-7.7A4.635,4.635,0,0,0,25.667,6.689ZM16,16.8,8.424,9.3a3.657,3.657,0,0,1,0-5.212,3.76,3.76,0,0,1,5.279,0l1.944,1.924a.5.5,0,0,0,.7,0L18.3,4.083a3.761,3.761,0,0,1,5.279,0h0a3.658,3.658,0,0,1,0,5.212Z"/></svg>