<svg version="1.1" xmlns="http://www.w3.org/2000/svg" width="32" height="32" viewBox="0 0 32 32">
<title>map-pin</title>
<path d="M16 12.975v12.525c0 0.276 0.224 0.5 0.5 0.5s0.5-0.224 0.5-0.5v-12.525c2.799-0.254 5-2.611 5-5.475 0-3.033-2.468-5.5-5.5-5.5s-5.5 2.467-5.5 5.5c0 2.864 2.201 5.221 5 5.475zM16.5 3c2.481 0 4.5 2.019 4.5 4.5s-2.019 4.5-4.5 4.5-4.5-2.019-4.5-4.5 2.019-4.5 4.5-4.5z"></path>
<path d="M14.011 6.958c0.065 0.029 0.133 0.042 0.2 0.042 0.192 0 0.376-0.112 0.458-0.3 0.202-0.462 0.568-0.829 1.031-1.031 0.253-0.11 0.368-0.405 0.258-0.658s-0.406-0.368-0.658-0.258c-0.694 0.303-1.243 0.853-1.547 1.547-0.11 0.253 0.005 0.548 0.258 0.658z"></path>
<path d="M18.544 22.092c-0.273-0.022-0.518 0.179-0.542 0.454s0.179 0.518 0.454 0.542c4.097 0.361 6.544 1.765 6.544 2.912 0 1.419-3.491 3-8.5 3s-8.5-1.581-8.5-3c0-1.147 2.447-2.551 6.544-2.912 0.275-0.024 0.479-0.267 0.454-0.542-0.023-0.275-0.276-0.483-0.542-0.454-4.46 0.393-7.456 1.964-7.456 3.908 0 2.28 4.084 4 9.5 4s9.5-1.72 9.5-4c0-1.944-2.996-3.515-7.456-3.908z"></path>
</svg>
