<svg version="1.1" xmlns="http://www.w3.org/2000/svg" width="32" height="32" viewBox="0 0 32 32">
<title>map-marker</title>
<path d="M16 7c-2.757 0-5 2.243-5 5s2.243 5 5 5 5-2.243 5-5-2.243-5-5-5zM16 16c-2.206 0-4-1.794-4-4s1.794-4 4-4 4 1.794 4 4-1.794 4-4 4z"></path>
<path d="M17 12c0 0.552-0.448 1-1 1s-1-0.448-1-1c0-0.552 0.448-1 1-1s1 0.448 1 1z"></path>
<path d="M16 2c-5.514 0-10 4.486-10 10 0 1.743 0.456 3.459 1.332 4.986l8.248 12.785c0.092 0.143 0.25 0.229 0.42 0.229s0.328-0.086 0.42-0.229l8.262-12.808c0.862-1.504 1.318-3.22 1.318-4.963 0-5.514-4.486-10-10-10zM23.828 16.444l-7.828 12.134-7.814-12.112c-0.776-1.353-1.186-2.897-1.186-4.466 0-4.962 4.037-9 9-9s9 4.038 9 9c0 1.569-0.41 3.113-1.172 4.444z"></path>
</svg>
