<svg id="Layer_1" data-name="Layer 1" xmlns="http://www.w3.org/2000/svg" width="32" height="32" viewBox="0 0 32 32"><path d="M23,17c0,4.40625-6.33789,12.46924-6.60791,12.81006a.49966.49966,0,0,1-.78418,0C15.33789,29.46924,9,21.40625,9,17a7,7,0,0,1,14,0Zm-5,0a2,2,0,1,0-2,2A2.002,2.002,0,0,0,18,17ZM4.22314,7.19189a.50025.50025,0,0,0-.58789.80957l3.34913,2.43165a.50025.50025,0,1,0,.58789-.80957Zm7.80616-.39355a.5.5,0,0,0,.94531-.32617L11.54883,2.33691a.5.5,0,1,0-.94531.32618Zm16.44629.50439a.49949.49949,0,0,0-.69873-.11084L24.42773,9.62354a.50025.50025,0,0,0,.58789.80957l3.34913-2.43165A.50086.50086,0,0,0,28.47559,7.30273ZM19.335,7.10791a.5.5,0,0,0,.63574-.30957l1.42578-4.13525a.5.5,0,1,0-.94531-.32618L19.02539,6.47217A.50026.50026,0,0,0,19.335,7.10791Z"/></svg>