<svg version="1.1" xmlns="http://www.w3.org/2000/svg" width="32" height="32" viewBox="0 0 32 32">
<title>map</title>
<path d="M29.608 10.012l-4.636-1.030c-0.285 3.983-3.956 7.709-4.119 7.872-0.097 0.097-0.225 0.146-0.353 0.146s-0.256-0.049-0.354-0.146c-0.15-0.15-3.296-3.341-4.001-6.965l-4.698 2.088-8.839-1.964c-0.151-0.033-0.304 0.002-0.421 0.098-0.119 0.094-0.187 0.237-0.187 0.389v17c0 0.234 0.163 0.438 0.392 0.488l9 2c0.036 0.008 0.072 0.012 0.108 0.012 0.069 0 0.139-0.015 0.203-0.043l8.85-3.933 8.839 1.964c0.146 0.031 0.303-0.004 0.421-0.098 0.119-0.095 0.187-0.238 0.187-0.39v-17c0-0.234-0.163-0.438-0.392-0.488zM12 28.5c0 0.276-0.224 0.5-0.5 0.5s-0.5-0.224-0.5-0.5v-15c0-0.276 0.224-0.5 0.5-0.5s0.5 0.224 0.5 0.5v15zM21 24.5c0 0.276-0.224 0.5-0.5 0.5s-0.5-0.224-0.5-0.5v-6c0-0.276 0.224-0.5 0.5-0.5s0.5 0.224 0.5 0.5v6z"></path>
<path d="M24 8.5c0-1.93-1.57-3.5-3.5-3.5s-3.5 1.57-3.5 3.5c0 3.063 2.547 6.2 3.5 7.266 0.952-1.067 3.5-4.208 3.5-7.266zM19 8.5c0-0.827 0.673-1.5 1.5-1.5s1.5 0.673 1.5 1.5-0.673 1.5-1.5 1.5-1.5-0.673-1.5-1.5z"></path>
</svg>
