<svg version="1.1" xmlns="http://www.w3.org/2000/svg" width="32" height="32" viewBox="0 0 32 32">
<title>mars-double</title>
<path d="M27.5 11h-5c-0.276 0-0.5 0.224-0.5 0.5s0.224 0.5 0.5 0.5h3.793l-4.569 4.569c-1.138-0.975-2.612-1.569-4.224-1.569-3.584 0-6.5 2.916-6.5 6.5s2.916 6.5 6.5 6.5 6.5-2.916 6.5-6.5c0-1.612-0.594-3.086-1.569-4.224l4.569-4.569v3.793c0 0.276 0.224 0.5 0.5 0.5s0.5-0.224 0.5-0.5v-5c0-0.276-0.224-0.5-0.5-0.5zM17.5 27c-3.033 0-5.5-2.467-5.5-5.5s2.467-5.5 5.5-5.5 5.5 2.467 5.5 5.5-2.467 5.5-5.5 5.5z"></path>
<path d="M10.5 9c2.37 0 4.466 1.513 5.216 3.764 0.087 0.262 0.37 0.404 0.632 0.316s0.404-0.37 0.317-0.632c-0.272-0.817-0.708-1.538-1.243-2.163l4.578-4.578v3.793c0 0.276 0.224 0.5 0.5 0.5s0.5-0.224 0.5-0.5v-5c0-0.276-0.224-0.5-0.5-0.5h-5c-0.276 0-0.5 0.224-0.5 0.5s0.224 0.5 0.5 0.5h3.793l-4.577 4.577c-1.15-0.986-2.625-1.577-4.216-1.577-3.584 0-6.5 2.916-6.5 6.5 0 2.802 1.788 5.279 4.449 6.165 0.052 0.017 0.105 0.026 0.158 0.026 0.209 0 0.405-0.133 0.475-0.342 0.087-0.262-0.055-0.545-0.317-0.632-2.252-0.75-3.765-2.846-3.765-5.217 0-3.033 2.467-5.5 5.5-5.5z"></path>
</svg>
