<svg version="1.1" xmlns="http://www.w3.org/2000/svg" width="32" height="32" viewBox="0 0 32 32">
<title>mars-stroke</title>
<path d="M25.5 6h-5c-0.276 0-0.5 0.224-0.5 0.5s0.224 0.5 0.5 0.5h3.793l-3.793 3.793-1.646-1.646c-0.195-0.195-0.512-0.195-0.707 0s-0.195 0.512 0 0.707l1.646 1.646-2.216 2.216c-1.229-1.066-2.827-1.716-4.577-1.716-3.86 0-7 3.14-7 7s3.14 7 7 7 7-3.14 7-7c0-1.75-0.65-3.348-1.716-4.577l2.216-2.216 1.646 1.646c0.098 0.098 0.226 0.147 0.354 0.147s0.256-0.049 0.354-0.146c0.195-0.195 0.195-0.512 0-0.707l-1.647-1.647 3.793-3.793v3.793c0 0.276 0.224 0.5 0.5 0.5s0.5-0.224 0.5-0.5v-5c0-0.276-0.224-0.5-0.5-0.5zM13 25c-3.309 0-6-2.692-6-6s2.691-6 6-6 6 2.692 6 6-2.691 6-6 6z"></path>
</svg>
