<svg version="1.1" xmlns="http://www.w3.org/2000/svg" width="32" height="32" viewBox="0 0 32 32">
<title>mars-stroke-h</title>
<path d="M27.854 16.146l-3.5-3.5c-0.195-0.195-0.512-0.195-0.707 0s-0.195 0.512 0 0.707l2.646 2.647h-5.293v-2.5c0-0.276-0.224-0.5-0.5-0.5s-0.5 0.224-0.5 0.5v2.5h-3.025c-0.257-3.351-3.059-6-6.475-6-3.584 0-6.5 2.916-6.5 6.5s2.916 6.5 6.5 6.5c3.415 0 6.218-2.649 6.475-6h3.025v2.5c0 0.276 0.224 0.5 0.5 0.5s0.5-0.224 0.5-0.5v-2.5h5.293l-2.646 2.646c-0.195 0.195-0.195 0.512 0 0.707 0.097 0.098 0.225 0.147 0.353 0.147s0.256-0.049 0.354-0.146l3.5-3.5c0.195-0.196 0.195-0.512 0-0.708zM10.5 22c-3.033 0-5.5-2.467-5.5-5.5s2.467-5.5 5.5-5.5 5.5 2.467 5.5 5.5-2.467 5.5-5.5 5.5z"></path>
</svg>
