<svg version="1.1" xmlns="http://www.w3.org/2000/svg" width="32" height="32" viewBox="0 0 32 32">
<title>mars-stroke-v</title>
<path d="M17 15.025v-3.025h2.5c0.276 0 0.5-0.224 0.5-0.5s-0.224-0.5-0.5-0.5h-2.5v-5.293l2.646 2.646c0.098 0.098 0.226 0.147 0.354 0.147s0.256-0.049 0.354-0.146c0.195-0.195 0.195-0.512 0-0.707l-3.5-3.5c-0.195-0.195-0.512-0.195-0.707 0l-3.5 3.5c-0.195 0.195-0.195 0.512 0 0.707s0.512 0.195 0.707 0l2.646-2.647v5.293h-2.5c-0.276 0-0.5 0.224-0.5 0.5s0.224 0.5 0.5 0.5h2.5v3.025c-3.351 0.257-6 3.059-6 6.475 0 3.584 2.916 6.5 6.5 6.5s6.5-2.916 6.5-6.5c0-3.415-2.649-6.218-6-6.475zM16.5 27c-3.033 0-5.5-2.467-5.5-5.5s2.467-5.5 5.5-5.5 5.5 2.467 5.5 5.5-2.467 5.5-5.5 5.5z"></path>
</svg>
