<svg version="1.1" xmlns="http://www.w3.org/2000/svg" width="32" height="32" viewBox="0 0 32 32">
<title>materialized-view</title>
<path d="M16 10c-4.162 0-7.97 2.206-9.938 5.758-0.083 0.151-0.083 0.333 0 0.484 1.968 3.552 5.776 5.758 9.938 5.758s7.97-2.206 9.938-5.758c0.083-0.151 0.083-0.333 0-0.484-1.968-3.552-5.776-5.758-9.938-5.758zM16 21c-3.703 0-7.096-1.909-8.924-5 1.828-3.091 5.221-5 8.924-5s7.096 1.909 8.924 5c-1.828 3.091-5.221 5-8.924 5z"></path>
<path d="M4.5 7c0.276 0 0.5-0.224 0.5-0.5s-0.224-0.5-0.5-0.5h-2c-0.276 0-0.5 0.224-0.5 0.5v19c0 0.276 0.224 0.5 0.5 0.5h2c0.276 0 0.5-0.224 0.5-0.5s-0.224-0.5-0.5-0.5h-1.5v-18h1.5z"></path>
<path d="M29.5 6h-2c-0.276 0-0.5 0.224-0.5 0.5s0.224 0.5 0.5 0.5h1.5v18h-1.5c-0.276 0-0.5 0.224-0.5 0.5s0.224 0.5 0.5 0.5h2c0.276 0 0.5-0.224 0.5-0.5v-19c0-0.276-0.224-0.5-0.5-0.5z"></path>
<path d="M16 13c-1.654 0-3 1.346-3 3s1.346 3 3 3 3-1.346 3-3-1.346-3-3-3zM16 18c-1.103 0-2-0.897-2-2s0.897-2 2-2 2 0.897 2 2-0.897 2-2 2z"></path>
</svg>
