<svg id="Layer_1" data-name="Layer 1" xmlns="http://www.w3.org/2000/svg" width="32" height="32" viewBox="0 0 32 32"><path d="M24.413,11h0a5.551,5.551,0,0,0-3.953,1.638l-7.822,7.828A5.586,5.586,0,0,0,16.587,30H16.6a5.555,5.555,0,0,0,3.933-1.634l7.825-7.816A5.595,5.595,0,0,0,24.413,11ZM19.83,27.658A4.556,4.556,0,0,1,16.6,29h-.014a4.586,4.586,0,0,1-3.246-7.827L16.9,17.609,23.393,24.1Zm7.825-7.816L24.1,23.393,17.609,16.9l3.554-3.557A4.561,4.561,0,0,1,24.409,12h0a4.594,4.594,0,0,1,3.242,7.842Z"/><path d="M16,9a7,7,0,1,0-7,7A7.008,7.008,0,0,0,16,9ZM3,9a5.974,5.974,0,0,1,7.063-5.9L6.971,14.64A6.006,6.006,0,0,1,3,9Zm6,6a6.013,6.013,0,0,1-1.063-.1L11.029,3.36A6,6,0,0,1,9,15Z"/></svg>