<svg id="Layer_1" data-name="Layer 1" xmlns="http://www.w3.org/2000/svg" width="32" height="32" viewBox="0 0 32 32"><path d="M19,6.549a1.006,1.006,0,0,0-.325-.738L17,4.28V3a1,1,0,0,0-1-1H5A1,1,0,0,0,4,3V4.229L2.454,5.236A1,1,0,0,0,2,6.074V7.5a.5.5,0,0,0,.5.5H4V28a2,2,0,0,0,2,2h9a2,2,0,0,0,2-2V8h1.5a.5.5,0,0,0,.5-.5ZM16,28a1,1,0,0,1-1,1H6a1,1,0,0,1-1-1V25h5a2,2,0,0,0,2-2V14a2,2,0,0,0-2-2H5V8H16ZM5,24V13h5a1,1,0,0,1,1,1v9a1,1,0,0,1-1,1ZM18,7H3V6.074L4.773,4.919A.5.5,0,0,0,5,4.5V3H16V4.5a.5.5,0,0,0,.163.369L18,6.549Z"/><path d="M27.5,19A2.5,2.5,0,0,0,25,21.5v6a2.5,2.5,0,0,0,5,0v-6A2.5,2.5,0,0,0,27.5,19ZM29,27.5a1.5,1.5,0,0,1-3,0V25h3ZM29,24H26V21.5a1.5,1.5,0,0,1,3,0Z"/><path d="M28.243,11.5a2.485,2.485,0,0,0-.733-1.768,2.56,2.56,0,0,0-3.535,0l-4.243,4.243a2.5,2.5,0,1,0,3.536,3.535l4.242-4.242A2.485,2.485,0,0,0,28.243,11.5Zm-5.682,5.3a1.536,1.536,0,0,1-2.122,0,1.5,1.5,0,0,1,0-2.121l1.768-1.768,2.121,2.121ZM26.8,12.561l-1.768,1.767-2.121-2.121,1.768-1.768A1.5,1.5,0,1,1,26.8,12.561Z"/></svg>