<svg id="Layer_1" data-name="Layer 1" xmlns="http://www.w3.org/2000/svg" width="32" height="32" viewBox="0 0 32 32"><path d="M27,9H25.591L18.779,6.446A6.966,6.966,0,0,0,16.321,6h-.642a6.966,6.966,0,0,0-2.458.446L6.409,9H5a3,3,0,0,0-3,3v4a3,3,0,0,0,3,3H7.691l2.118,4.236A4.973,4.973,0,0,0,14.281,26h3.438a4.973,4.973,0,0,0,4.472-2.764L24.309,19H27a3,3,0,0,0,3-3V12A3,3,0,0,0,27,9ZM5,18a2,2,0,0,1-2-2V12a2,2,0,0,1,2-2H6v4.438a5.031,5.031,0,0,0,.528,2.236L7.191,18Zm16.3,4.789A3.976,3.976,0,0,1,17.719,25H14.281A3.976,3.976,0,0,1,10.7,22.789L7.422,16.227A4.028,4.028,0,0,1,7,14.438V9.847l6.572-2.465A5.966,5.966,0,0,1,15.679,7h.642a5.966,5.966,0,0,1,2.107.382L25,9.847v4.591a4.028,4.028,0,0,1-.422,1.789ZM29,16a2,2,0,0,1-2,2H24.809l.663-1.326A5.031,5.031,0,0,0,26,14.438V10h1a2,2,0,0,1,2,2Z"/><path d="M20.5,12h-9a.5.5,0,0,0,0,1h9a.5.5,0,0,0,0-1Z"/><path d="M19.5,16h-7a.5.5,0,0,0,0,1h7a.5.5,0,0,0,0-1Z"/><path d="M18.5,20h-5a.5.5,0,0,0,0,1h5a.5.5,0,0,0,0-1Z"/></svg>