<svg id="Layer_1" data-name="Layer 1" xmlns="http://www.w3.org/2000/svg" width="32" height="32" viewBox="0 0 32 32"><path d="M23.136,2a6.819,6.819,0,0,0-4.853,2.01L4.01,18.283a6.864,6.864,0,0,0,9.707,9.707L27.99,13.717A6.864,6.864,0,0,0,23.136,2ZM13.01,27.283A5.864,5.864,0,0,1,4.717,18.99L11.5,12.207,19.793,20.5ZM27.283,13.01,20.5,19.793,12.207,11.5,18.99,4.717a5.864,5.864,0,0,1,8.293,8.293Z"/><path d="M24.714,5.4a3.986,3.986,0,0,0-4.373.632.5.5,0,0,0,.334.873.494.494,0,0,0,.333-.128A2.985,2.985,0,0,1,24.286,6.3a.5.5,0,0,0,.428-.905Z"/></svg>