<svg id="Layer_1" data-name="Layer 1" xmlns="http://www.w3.org/2000/svg" width="32" height="32" viewBox="0 0 32 32"><path d="M18.5,19.5h-2v-2a.5.5,0,0,0-1,0v2h-2a.5.5,0,0,0,0,1h2v2a.5.5,0,0,0,1,0v-2h2a.5.5,0,0,0,0-1Z"/><path d="M26.647,12.941,21.9,9.823A1.994,1.994,0,0,1,21,8.151V7h1.5a.5.5,0,0,0,.5-.5V4a2,2,0,0,0-2-2H11A2,2,0,0,0,9,4V6.5a.5.5,0,0,0,.5.5H11V8.151a2,2,0,0,1-.9,1.672L5.352,12.941A3,3,0,0,0,4,15.449V28a2,2,0,0,0,2,2H26a2,2,0,0,0,2-2V15.449A2.993,2.993,0,0,0,26.647,12.941ZM10,4a1,1,0,0,1,1-1H21a1,1,0,0,1,1,1V6H10ZM27,28a1,1,0,0,1-1,1H6a1,1,0,0,1-1-1V15.449a2,2,0,0,1,.9-1.672l4.747-3.118A2.992,2.992,0,0,0,12,8.151V7h8V8.151a2.991,2.991,0,0,0,1.353,2.508L26.1,13.777a1.994,1.994,0,0,1,.9,1.672Z"/><path d="M20,14H12a2,2,0,0,0-2,2v8a2,2,0,0,0,2,2h8a2,2,0,0,0,2-2V16A2,2,0,0,0,20,14Zm1,10a1,1,0,0,1-1,1H12a1,1,0,0,1-1-1V16a1,1,0,0,1,1-1h8a1,1,0,0,1,1,1Z"/></svg>