<svg version="1.1" xmlns="http://www.w3.org/2000/svg" width="32" height="32" viewBox="0 0 32 32">
<title>medkit</title>
<path d="M17.5 23h-3c-0.276 0-0.5-0.224-0.5-0.5v-2.5h-2.5c-0.276 0-0.5-0.224-0.5-0.5v-3c0-0.276 0.224-0.5 0.5-0.5h2.5v-2.5c0-0.276 0.224-0.5 0.5-0.5h3c0.276 0 0.5 0.224 0.5 0.5v2.5h2.5c0.276 0 0.5 0.224 0.5 0.5v3c0 0.276-0.224 0.5-0.5 0.5h-2.5v2.5c0 0.276-0.224 0.5-0.5 0.5zM15 22h2v-2.5c0-0.276 0.224-0.5 0.5-0.5h2.5v-2h-2.5c-0.276 0-0.5-0.224-0.5-0.5v-2.5h-2v2.5c0 0.276-0.224 0.5-0.5 0.5h-2.5v2h2.5c0.276 0 0.5 0.224 0.5 0.5v2.5z"></path>
<path d="M28.5 26h-25c-0.827 0-1.5-0.673-1.5-1.5v-7.868c0-0.873 0.465-1.695 1.214-2.144l3.87-2.322 0.486-1.457c0.341-1.022 1.294-1.709 2.371-1.709h12.117c1.078 0 2.031 0.687 2.372 1.709l0.486 1.457 3.87 2.322c0.749 0.45 1.214 1.271 1.214 2.144v7.868c0 0.827-0.673 1.5-1.5 1.5zM9.941 10c-0.646 0-1.218 0.412-1.423 1.026l-0.544 1.632c-0.038 0.113-0.114 0.209-0.217 0.271l-4.029 2.417c-0.449 0.27-0.728 0.763-0.728 1.286v7.868c0 0.276 0.224 0.5 0.5 0.5h25c0.276 0 0.5-0.224 0.5-0.5v-7.868c0-0.524-0.279-1.017-0.729-1.286l-4.029-2.417c-0.103-0.061-0.179-0.157-0.217-0.271l-0.544-1.632c-0.204-0.614-0.776-1.026-1.422-1.026h-12.118z"></path>
<path d="M20 9.5h-1v-2c0-0.276-0.224-0.5-0.5-0.5h-5c-0.276 0-0.5 0.224-0.5 0.5v2h-1v-2c0-0.827 0.673-1.5 1.5-1.5h5c0.827 0 1.5 0.673 1.5 1.5v2z"></path>
</svg>
