<svg version="1.1" xmlns="http://www.w3.org/2000/svg" width="32" height="32" viewBox="0 0 32 32">
<title>mercury</title>
<path d="M23 14.5c0-2.71-1.669-5.036-4.032-6.010 1.669-0.692 3.027-2.050 3.654-3.823 0.092-0.26-0.044-0.546-0.304-0.638-0.262-0.093-0.546 0.044-0.638 0.304-0.777 2.193-2.858 3.667-5.18 3.667s-4.403-1.474-5.18-3.667c-0.092-0.26-0.376-0.397-0.638-0.304-0.26 0.092-0.396 0.378-0.304 0.638 0.628 1.773 1.985 3.131 3.654 3.823-2.363 0.974-4.032 3.3-4.032 6.010 0 3.415 2.649 6.218 6 6.475v3.025h-2.5c-0.276 0-0.5 0.224-0.5 0.5s0.224 0.5 0.5 0.5h2.5v2.5c0 0.276 0.224 0.5 0.5 0.5s0.5-0.224 0.5-0.5v-2.5h2.5c0.276 0 0.5-0.224 0.5-0.5s-0.224-0.5-0.5-0.5h-2.5v-3.025c3.351-0.257 6-3.060 6-6.475zM11 14.5c0-3.033 2.467-5.5 5.5-5.5s5.5 2.467 5.5 5.5-2.467 5.5-5.5 5.5-5.5-2.467-5.5-5.5z"></path>
</svg>
