<svg version="1.1" xmlns="http://www.w3.org/2000/svg" width="32" height="32" viewBox="0 0 32 32">
<title>microphone</title>
<path d="M16.5 21c2.481 0 4.5-2.019 4.5-4.5v-10c0-2.481-2.019-4.5-4.5-4.5s-4.5 2.019-4.5 4.5v10c0 2.481 2.019 4.5 4.5 4.5zM13 14h1.5c0.276 0 0.5-0.224 0.5-0.5s-0.224-0.5-0.5-0.5h-1.5v-3h1.5c0.276 0 0.5-0.224 0.5-0.5s-0.224-0.5-0.5-0.5h-1.5v-2.5c0-1.93 1.57-3.5 3.5-3.5s3.5 1.57 3.5 3.5v2.5h-1.5c-0.276 0-0.5 0.224-0.5 0.5s0.224 0.5 0.5 0.5h1.5v3h-1.5c-0.276 0-0.5 0.224-0.5 0.5s0.224 0.5 0.5 0.5h1.5v2.5c0 1.93-1.57 3.5-3.5 3.5s-3.5-1.57-3.5-3.5v-2.5z"></path>
<path d="M24 16.5v-3c0-0.276-0.224-0.5-0.5-0.5s-0.5 0.224-0.5 0.5v3c0 3.584-2.916 6.5-6.5 6.5s-6.5-2.916-6.5-6.5v-3c0-0.276-0.224-0.5-0.5-0.5s-0.5 0.224-0.5 0.5v3c0 3.967 3.098 7.215 7 7.475v5.025h-4.5c-0.276 0-0.5 0.224-0.5 0.5s0.224 0.5 0.5 0.5h10c0.276 0 0.5-0.224 0.5-0.5s-0.224-0.5-0.5-0.5h-4.5v-5.025c3.902-0.26 7-3.508 7-7.475z"></path>
</svg>
