<svg version="1.1" xmlns="http://www.w3.org/2000/svg" width="32" height="32" viewBox="0 0 32 32">
<title>microphone-slash</title>
<path d="M23.5 13c-0.276 0-0.5 0.224-0.5 0.5v3c0 3.584-2.916 6.5-6.5 6.5-1.315 0-2.583-0.393-3.667-1.135-0.226-0.155-0.538-0.098-0.694 0.13s-0.099 0.539 0.13 0.695c1.111 0.762 2.394 1.184 3.731 1.273v5.037h-4.5c-0.276 0-0.5 0.224-0.5 0.5s0.224 0.5 0.5 0.5h10c0.276 0 0.5-0.224 0.5-0.5s-0.224-0.5-0.5-0.5h-4.5v-5.025c3.902-0.259 7-3.508 7-7.475v-3c0-0.276-0.224-0.5-0.5-0.5z"></path>
<path d="M27.854 4.146c-0.195-0.195-0.512-0.195-0.707 0l-6.147 6.147v-3.793c0-2.481-2.019-4.5-4.5-4.5s-4.5 2.019-4.5 4.5v10c0 0.777 0.211 1.526 0.593 2.2l-1.445 1.445c-0.731-1.073-1.148-2.339-1.148-3.645v-3c0-0.276-0.224-0.5-0.5-0.5s-0.5 0.224-0.5 0.5v3c0 1.569 0.52 3.092 1.432 4.361l-6.286 6.286c-0.195 0.195-0.195 0.512 0 0.707 0.098 0.097 0.226 0.146 0.354 0.146s0.256-0.049 0.354-0.146l16-16c0 0 0.001 0 0.001-0.001l7-7c0.194-0.195 0.194-0.511-0.001-0.707zM13 16.5v-2.5h1.5c0.276 0 0.5-0.224 0.5-0.5s-0.224-0.5-0.5-0.5h-1.5v-3h1.5c0.276 0 0.5-0.224 0.5-0.5s-0.224-0.5-0.5-0.5h-1.5v-2.5c0-1.93 1.57-3.5 3.5-3.5s3.5 1.57 3.5 3.5v2.5h-1.5c-0.276 0-0.5 0.224-0.5 0.5s0.224 0.5 0.5 0.5h1.5v1.293l-6.671 6.67c-0.213-0.458-0.329-0.953-0.329-1.463z"></path>
<path d="M16.5 21c2.481 0 4.5-2.019 4.5-4.5v-2.172c0-0.276-0.224-0.5-0.5-0.5s-0.5 0.224-0.5 0.5v2.172c0 1.93-1.57 3.5-3.5 3.5-0.518 0-1.033-0.124-1.531-0.369-0.248-0.122-0.548-0.020-0.67 0.229s-0.019 0.547 0.229 0.669c0.637 0.312 1.3 0.471 1.972 0.471z"></path>
</svg>
