<svg version="1.1" xmlns="http://www.w3.org/2000/svg" width="32" height="32" viewBox="0 0 32 32">
<title>military-vehicle</title>
<path d="M29.712 13.882l-6.015-0.859-3.63-2.723c-0.258-0.193-0.578-0.3-0.9-0.3h-4.167v-2h4.5c0.276 0 0.5-0.224 0.5-0.5s-0.224-0.5-0.5-0.5h-7c-0.276 0-0.5 0.224-0.5 0.5s0.224 0.5 0.5 0.5h1.5v2h-6.086c-0.395 0-0.781 0.16-1.061 0.439l-2.039 2.040c-0.382 0.382-0.855 0.674-1.368 0.845l-1.421 0.474c-0.613 0.204-1.025 0.776-1.025 1.423v4.499c0 0.689 0.468 1.288 1.137 1.455l2.904 0.725c0.201 1.74 1.667 3.1 3.459 3.1 1.759 0 3.204-1.309 3.449-3h8.101c0.245 1.691 1.691 3 3.449 3 1.818 0 3.3-1.399 3.467-3.174l3.204-1.602c0.513-0.256 0.83-0.77 0.83-1.342v-3.515c0-0.742-0.554-1.38-1.288-1.485zM19.167 11c0.107 0 0.214 0.036 0.3 0.1l3.086 2.314-0.855 0.427c-0.207 0.104-0.438 0.159-0.67 0.159h-6.028v-3h4.167zM14 14h-4v-3h4v3zM8.5 24c-1.379 0-2.5-1.122-2.5-2.5s1.121-2.5 2.5-2.5 2.5 1.122 2.5 2.5-1.121 2.5-2.5 2.5zM23.5 24c-1.379 0-2.5-1.122-2.5-2.5s1.121-2.5 2.5-2.5 2.5 1.122 2.5 2.5-1.121 2.5-2.5 2.5zM30 18.882c0 0.191-0.105 0.362-0.276 0.447l-2.813 1.407c-0.351-1.563-1.744-2.736-3.411-2.736-1.759 0-3.204 1.309-3.449 3h-8.101c-0.245-1.691-1.691-3-3.449-3-1.716 0-3.141 1.244-3.437 2.875l-2.684-0.671c-0.224-0.056-0.38-0.255-0.38-0.485v-4.499c0-0.215 0.138-0.406 0.342-0.474l1.421-0.474c0.659-0.22 1.268-0.596 1.759-1.087l2.039-2.040c0.092-0.092 0.221-0.145 0.353-0.145h1.086v3.5c0 0.276 0.224 0.5 0.5 0.5h11.528c0.386 0 0.772-0.091 1.117-0.264l1.438-0.719 5.987 0.855c0.245 0.035 0.43 0.248 0.43 0.495v3.515z"></path>
<path d="M9 21.5c0 0.276-0.224 0.5-0.5 0.5s-0.5-0.224-0.5-0.5c0-0.276 0.224-0.5 0.5-0.5s0.5 0.224 0.5 0.5z"></path>
<path d="M24 21.5c0 0.276-0.224 0.5-0.5 0.5s-0.5-0.224-0.5-0.5c0-0.276 0.224-0.5 0.5-0.5s0.5 0.224 0.5 0.5z"></path>
</svg>
