<svg version="1.1" xmlns="http://www.w3.org/2000/svg" width="32" height="32" viewBox="0 0 32 32">
<title>missile</title>
<path d="M27.854 4.146c-0.123-0.124-0.302-0.176-0.475-0.131-2.705 0.676-5.177 2.076-7.147 4.047l-2.626 2.626c-0.266 0.266-0.572 0.486-0.91 0.655l-0.838 0.419c-0.435 0.217-0.828 0.501-1.17 0.843l-3.395 3.395h-4.793c-0.133 0-0.26 0.053-0.354 0.146l-4 4c-0.143 0.143-0.186 0.358-0.108 0.545s0.26 0.309 0.462 0.309h4.306l-0.781 2.342c-0.060 0.18-0.013 0.378 0.121 0.512l2 2c0.096 0.095 0.223 0.146 0.354 0.146 0.053 0 0.106-0.008 0.158-0.026l2.342-0.781v4.307c0 0.202 0.122 0.385 0.309 0.462 0.061 0.026 0.127 0.038 0.191 0.038 0.13 0 0.258-0.051 0.354-0.146l4-4c0.093-0.094 0.146-0.221 0.146-0.354v-4.793l3.395-3.395c0.343-0.343 0.626-0.736 0.843-1.169l0.42-0.839c0.168-0.336 0.389-0.643 0.655-0.91l2.626-2.625c1.972-1.972 3.37-4.443 4.047-7.148 0.041-0.17-0.008-0.35-0.132-0.475zM11.5 23.793l-3.293-3.293 6.292-6.293 3.293 3.293-6.292 6.293zM6.707 17h3.586l-3 3h-3.586l3-3zM8.635 24.928l-1.562-1.563 0.646-1.939 2.855 2.855-1.939 0.647zM15 25.293l-3 3v-3.586l3-3v3.586zM19.343 15.696c-0.168 0.336-0.389 0.643-0.655 0.91l-0.188 0.187-3.293-3.293 0.188-0.188c0.266-0.266 0.572-0.486 0.91-0.655l0.838-0.419c0.085-0.042 0.16-0.099 0.242-0.146l2.524 2.524c-0.047 0.082-0.104 0.157-0.146 0.241l-0.42 0.839zM20.605 13.688c-0.035 0.036-0.062 0.077-0.097 0.114l-2.31-2.31c0.037-0.034 0.079-0.062 0.114-0.097l1.145-1.144 2.293 2.293-1.145 1.144zM23.231 11.062l-0.774 0.774-2.293-2.293 0.774-0.774c1.636-1.636 3.64-2.851 5.838-3.545-0.695 2.198-1.909 4.202-3.545 5.838z"></path>
</svg>
