<svg version="1.1" xmlns="http://www.w3.org/2000/svg" width="32" height="32" viewBox="0 0 32 32">
<title>mobile</title>
<path d="M22.5 2h-13c-0.827 0-1.5 0.673-1.5 1.5v25c0 0.827 0.673 1.5 1.5 1.5h13c0.827 0 1.5-0.673 1.5-1.5v-25c0-0.827-0.673-1.5-1.5-1.5zM23 28.5c0 0.276-0.225 0.5-0.5 0.5h-13c-0.275 0-0.5-0.224-0.5-0.5v-3.5h14v3.5zM23 24h-14v-18h14v18zM9 5v-1.5c0-0.276 0.225-0.5 0.5-0.5h13c0.275 0 0.5 0.224 0.5 0.5v1.5h-14z"></path>
<path d="M17 27c0 0.552-0.448 1-1 1s-1-0.448-1-1c0-0.552 0.448-1 1-1s1 0.448 1 1z"></path>
</svg>
