<svg version="1.1" xmlns="http://www.w3.org/2000/svg" width="32" height="32" viewBox="0 0 32 32">
<title>modifier-heart</title>
<path d="M16 0c-8.837 0-16 7.163-16 16s7.163 16 16 16c8.837 0 16-7.163 16-16v0c0-8.837-7.163-16-16-16v0zM23.644 17.554l-7.644 7.335-7.655-7.335c-0.761-0.715-1.235-1.729-1.235-2.852s0.474-2.137 1.233-2.851l0.002-0.002c0.775-0.732 1.823-1.181 2.976-1.181s2.201 0.45 2.978 1.183l-0.002-0.002 1.703 1.63 1.701-1.63c0.775-0.732 1.823-1.181 2.976-1.181s2.201 0.45 2.978 1.183l-0.002-0.002c0.759 0.715 1.231 1.726 1.231 2.848 0 1.126-0.476 2.141-1.238 2.855l-0.002 0.002z"></path>
</svg>
