<svg version="1.1" xmlns="http://www.w3.org/2000/svg" width="32" height="32" viewBox="0 0 32 32">
<title>modifier-play</title>
<path d="M16 0c-8.837 0-16 7.163-16 16s7.163 16 16 16c8.837 0 16-7.163 16-16v0c0-8.837-7.163-16-16-16v0zM22.247 17.527l-8.889 5.333c-0.261 0.159-0.576 0.253-0.914 0.253-0.982 0-1.778-0.796-1.778-1.778 0-0.001 0-0.002 0-0.002v0-10.667c0.001-0.981 0.796-1.776 1.778-1.776 0.337 0 0.653 0.094 0.922 0.257l-0.008-0.004 8.889 5.333c0.52 0.316 0.862 0.88 0.862 1.524s-0.342 1.207-0.854 1.519l-0.008 0.004z"></path>
</svg>
