<svg version="1.1" xmlns="http://www.w3.org/2000/svg" width="32" height="32" viewBox="0 0 32 32">
<title>modifier-information</title>
<path d="M16 0c-8.837 0-16 7.163-16 16s7.163 16 16 16c8.837 0 16-7.163 16-16v0c0-8.837-7.163-16-16-16v0zM17.778 23.111c0 0.982-0.796 1.778-1.778 1.778s-1.778-0.796-1.778-1.778v0-7.111c0-0.982 0.796-1.778 1.778-1.778s1.778 0.796 1.778 1.778v0zM16 10.667c-0.982 0-1.778-0.796-1.778-1.778s0.796-1.778 1.778-1.778c0.982 0 1.778 0.796 1.778 1.778v0c0 0.982-0.796 1.778-1.778 1.778v0z"></path>
</svg>
