<svg version="1.1" xmlns="http://www.w3.org/2000/svg" width="32" height="32" viewBox="0 0 32 32">
<title>modifier-arrow-up</title>
<path d="M16 0c-8.837 0-16 7.163-16 16s7.163 16 16 16c8.837 0 16-7.163 16-16v0c0-8.837-7.163-16-16-16v0zM24.356 17.244c-0.322 0.322-0.766 0.52-1.257 0.52s-0.935-0.199-1.257-0.52v0l-4.064-4.071v9.927c0 0.982-0.796 1.778-1.778 1.778s-1.778-0.796-1.778-1.778v0-9.927l-4.078 4.071c-0.326 0.354-0.792 0.575-1.309 0.575-0.982 0-1.778-0.796-1.778-1.778 0-0.516 0.22-0.981 0.572-1.306l0.001-0.001 7.111-7.111c0.322-0.322 0.766-0.521 1.257-0.521s0.935 0.199 1.257 0.521l7.111 7.111c0.317 0.321 0.513 0.762 0.513 1.25 0 0.493-0.2 0.938-0.524 1.26l-0 0z"></path>
</svg>
