<svg version="1.1" xmlns="http://www.w3.org/2000/svg" width="32" height="32" viewBox="0 0 32 32">
<title>modifier-sleep</title>
<path d="M16 0c-8.837 0-16 7.163-16 16s7.163 16 16 16c8.837 0 16-7.163 16-16v0c0-8.837-7.163-16-16-16v0zM16.24 24.889c-0.008 0-0.018 0-0.028 0-5.030 0-9.108-4.078-9.108-9.108 0-4.034 2.622-7.455 6.255-8.652l0.064-0.018c-0.842 1.276-1.343 2.841-1.343 4.523 0 4.576 3.71 8.286 8.286 8.286 1.682 0 3.247-0.501 4.553-1.362l-0.031 0.019c-1.214 3.689-4.626 6.306-8.65 6.311h-0.001z"></path>
</svg>
