<svg version="1.1" xmlns="http://www.w3.org/2000/svg" width="32" height="32" viewBox="0 0 32 32">
<title>modifier-star</title>
<path d="M16 0c-8.837 0-16 7.163-16 16s7.163 16 16 16c8.837 0 16-7.163 16-16v0c0-8.837-7.163-16-16-16v0zM23.81 18.46c0.533 0.314 0.886 0.884 0.886 1.538 0 0.981-0.794 1.776-1.774 1.778h-0c-0.327-0-0.634-0.088-0.898-0.241l0.009 0.005-4.254-2.464v4.924c0 0.982-0.796 1.778-1.778 1.778s-1.778-0.796-1.778-1.778v0-4.924l-4.267 2.46c-0.255 0.149-0.562 0.236-0.889 0.236h-0c-0.98-0.002-1.775-0.797-1.775-1.778 0-0.653 0.352-1.224 0.877-1.533l0.008-0.005 4.267-2.457-4.267-2.462c-0.529-0.314-0.879-0.883-0.879-1.534 0-0.982 0.796-1.778 1.778-1.778 0.323 0 0.626 0.086 0.887 0.237l-0.009-0.005 4.267 2.459v-4.917c0-0.982 0.796-1.778 1.778-1.778s1.778 0.796 1.778 1.778v0 4.917l4.267-2.459c0.253-0.146 0.556-0.232 0.879-0.232 0.982 0 1.778 0.796 1.778 1.778 0 0.65-0.349 1.219-0.87 1.529l-0.008 0.005-4.267 2.462z"></path>
</svg>
