<svg version="1.1" xmlns="http://www.w3.org/2000/svg" width="32" height="32" viewBox="0 0 32 32">
<title>modifier-arrow-right</title>
<path d="M16 0c-8.837 0-16 7.163-16 16s7.163 16 16 16c8.837 0 16-7.163 16-16v0c0-8.837-7.163-16-16-16v0zM24.37 17.257l-7.111 7.111c-0.322 0.322-0.767 0.52-1.258 0.52-0.983 0-1.78-0.797-1.78-1.78 0-0.492 0.2-0.937 0.522-1.26l4.076-4.071h-9.931c-0.982 0-1.778-0.796-1.778-1.778s0.796-1.778 1.778-1.778v0h9.929l-4.075-4.078c-0.309-0.319-0.499-0.755-0.499-1.235 0-0.982 0.796-1.778 1.778-1.778 0.48 0 0.916 0.19 1.236 0.5l-0-0 7.111 7.111c0.321 0.322 0.519 0.765 0.519 1.255s-0.199 0.935-0.52 1.257v0z"></path>
</svg>
