<svg version="1.1" xmlns="http://www.w3.org/2000/svg" width="32" height="32" viewBox="0 0 32 32">
<title>modifier-check</title>
<path d="M16 0c-8.837 0-16 7.163-16 16s7.163 16 16 16c8.837 0 16-7.163 16-16v0c0-8.837-7.163-16-16-16v0zM24.366 11.929l-10.667 10.667c-0.322 0.321-0.766 0.52-1.256 0.52s-0.934-0.199-1.256-0.52l-3.556-3.556c-0.364-0.327-0.591-0.799-0.591-1.324 0-0.982 0.796-1.778 1.778-1.778 0.527 0 1 0.229 1.326 0.593l0.002 0.002 2.299 2.29 9.406-9.401c0.327-0.366 0.8-0.595 1.327-0.595 0.982 0 1.778 0.796 1.778 1.778 0 0.525-0.228 0.997-0.589 1.322l-0.002 0.001z"></path>
</svg>
