<svg version="1.1" xmlns="http://www.w3.org/2000/svg" width="32" height="32" viewBox="0 0 32 32">
<title>modifier-warning</title>
<path d="M16 0c-8.837 0-16 7.163-16 16s7.163 16 16 16c8.837 0 16-7.163 16-16v0c0-8.837-7.163-16-16-16v0zM17.244 24.356c-0.32 0.314-0.76 0.508-1.245 0.508-0.973 0-1.764-0.782-1.778-1.751v-0.001c-0.001-0.015-0.001-0.033-0.001-0.051 0-0.227 0.053-0.442 0.147-0.633l-0.004 0.008c0.078-0.229 0.213-0.422 0.389-0.567l0.002-0.002c0.32-0.314 0.76-0.508 1.244-0.508s0.924 0.194 1.245 0.508l-0-0c0.177 0.148 0.313 0.34 0.39 0.56l0.003 0.009c0.089 0.183 0.141 0.398 0.141 0.626 0 0.018-0 0.035-0.001 0.052l0-0.003c0 0.007 0 0.015 0 0.023 0 0.482-0.205 0.917-0.532 1.221l-0.001 0.001zM17.778 16c0 0.982-0.796 1.778-1.778 1.778s-1.778-0.796-1.778-1.778v0-7.111c0-0.982 0.796-1.778 1.778-1.778s1.778 0.796 1.778 1.778v0z"></path>
</svg>
