<svg version="1.1" xmlns="http://www.w3.org/2000/svg" width="32" height="32" viewBox="0 0 32 32">
<title>modifier-x</title>
<path d="M16 0c-8.837 0-16 7.163-16 16s7.163 16 16 16c8.837 0 16-7.163 16-16v0c0-8.837-7.163-16-16-16v0zM23.477 20.965c0.346 0.325 0.561 0.785 0.561 1.296 0 0.982-0.796 1.778-1.778 1.778-0.511 0-0.972-0.216-1.296-0.561l-0.001-0.001-4.964-4.964-4.965 4.964c-0.317 0.298-0.746 0.482-1.217 0.482-0.982 0-1.778-0.796-1.778-1.778 0-0.471 0.183-0.899 0.482-1.217l-0.001 0.001 4.964-4.965-4.964-4.964c-0.335-0.324-0.543-0.777-0.543-1.279 0-0.982 0.796-1.778 1.778-1.778 0.502 0 0.955 0.208 1.278 0.542l0 0.001 4.965 4.965 4.964-4.965c0.324-0.335 0.777-0.543 1.279-0.543 0.982 0 1.778 0.796 1.778 1.778 0 0.502-0.208 0.955-0.542 1.278l-0 0-4.965 4.964z"></path>
</svg>
