<svg version="1.1" xmlns="http://www.w3.org/2000/svg" width="32" height="32" viewBox="0 0 32 32">
<title>modifier-arrow-left</title>
<path d="M16 0c-8.837 0-16 7.163-16 16s7.163 16 16 16c8.837 0 16-7.163 16-16v0c0-8.837-7.163-16-16-16v0zM23.111 17.778h-9.936l4.069 4.071c0.377 0.328 0.615 0.808 0.615 1.344 0 0.982-0.796 1.778-1.778 1.778-0.536 0-1.017-0.238-1.343-0.613l-0.002-0.002-7.111-7.111c-0.322-0.322-0.521-0.766-0.521-1.257s0.199-0.935 0.521-1.257l7.111-7.111c0.322-0.32 0.765-0.517 1.254-0.517 0.983 0 1.779 0.797 1.779 1.779 0 0.493-0.201 0.94-0.525 1.262l-0 0-4.069 4.078h9.936c0.982 0 1.778 0.796 1.778 1.778s-0.796 1.778-1.778 1.778v0z"></path>
</svg>
