<svg version="1.1" xmlns="http://www.w3.org/2000/svg" width="32" height="32" viewBox="0 0 32 32">
<title>modifier-clock</title>
<path d="M16 0c-8.837 0-16 7.163-16 16s7.163 16 16 16c8.837 0 16-7.163 16-16v0c0-8.837-7.163-16-16-16v0zM22.613 22.615c-0.322 0.322-0.766 0.52-1.257 0.52s-0.935-0.199-1.257-0.52l-5.36-5.362c-0.32-0.321-0.517-0.764-0.517-1.253v-7.111c0-0.982 0.796-1.778 1.778-1.778s1.778 0.796 1.778 1.778v0 6.372l4.836 4.837c0.321 0.322 0.519 0.765 0.519 1.255 0 0.492-0.2 0.937-0.522 1.259l-0 0z"></path>
</svg>
