<svg version="1.1" xmlns="http://www.w3.org/2000/svg" width="32" height="32" viewBox="0 0 32 32">
<title>modifier-arrow-down</title>
<path d="M16 0c-8.837 0-16 7.163-16 16s7.163 16 16 16c8.837 0 16-7.163 16-16v0c0-8.837-7.163-16-16-16v0zM24.366 17.26l-7.111 7.111c-0.322 0.322-0.766 0.52-1.257 0.52s-0.935-0.199-1.257-0.52l-7.111-7.111c-0.322-0.322-0.522-0.767-0.522-1.259 0-0.983 0.797-1.779 1.779-1.779 0.491 0 0.936 0.199 1.258 0.521l4.076 4.076v-9.931c0-0.982 0.796-1.778 1.778-1.778s1.778 0.796 1.778 1.778v0 9.929l4.075-4.076c0.324-0.335 0.777-0.543 1.279-0.543 0.982 0 1.778 0.796 1.778 1.778 0 0.502-0.208 0.955-0.542 1.278l-0 0z"></path>
</svg>
