<svg version="1.1" xmlns="http://www.w3.org/2000/svg" width="32" height="32" viewBox="0 0 32 32">
<title>money</title>
<path d="M29.5 8h-27c-0.276 0-0.5 0.224-0.5 0.5v15c0 0.276 0.224 0.5 0.5 0.5h27c0.276 0 0.5-0.224 0.5-0.5v-15c0-0.276-0.224-0.5-0.5-0.5zM29 23h-26v-14h26v14z"></path>
<path d="M16 19c1.654 0 3-1.346 3-3s-1.346-3-3-3-3 1.346-3 3c0 1.654 1.346 3 3 3zM16 14c1.103 0 2 0.897 2 2s-0.897 2-2 2-2-0.897-2-2 0.897-2 2-2z"></path>
<path d="M4.5 19c1.378 0 2.5 1.122 2.5 2.5 0 0.276 0.224 0.5 0.5 0.5h17c0.276 0 0.5-0.224 0.5-0.5 0-1.378 1.122-2.5 2.5-2.5 0.276 0 0.5-0.224 0.5-0.5v-5c0-0.276-0.224-0.5-0.5-0.5-1.378 0-2.5-1.122-2.5-2.5 0-0.276-0.224-0.5-0.5-0.5h-17c-0.276 0-0.5 0.224-0.5 0.5 0 1.378-1.122 2.5-2.5 2.5-0.276 0-0.5 0.224-0.5 0.5v5c0 0.276 0.224 0.5 0.5 0.5zM5 13.964c1.53-0.22 2.744-1.434 2.964-2.964h16.071c0.22 1.531 1.434 2.745 2.964 2.964v4.071c-1.53 0.22-2.744 1.434-2.964 2.964h-16.071c-0.22-1.53-1.434-2.744-2.964-2.963v-4.072z"></path>
</svg>
