<svg version="1.1" xmlns="http://www.w3.org/2000/svg" width="32" height="32" viewBox="0 0 32 32">
<title>moon-o</title>
<path d="M27.854 20.513c-0.152-0.154-0.388-0.19-0.581-0.091-1.667 0.854-3.453 1.287-5.31 1.287-6.436 0-11.671-5.235-11.671-11.671 0-1.858 0.433-3.645 1.287-5.31 0.099-0.193 0.062-0.428-0.092-0.582-0.152-0.153-0.391-0.19-0.581-0.091-4.26 2.182-6.906 6.502-6.906 11.274 0 6.987 5.685 12.671 12.671 12.671 4.771 0 9.091-2.646 11.274-6.905 0.099-0.194 0.062-0.428-0.091-0.582zM16.671 27c-6.436 0-11.671-5.235-11.671-11.671 0-3.883 1.903-7.441 5.053-9.604-0.506 1.381-0.761 2.825-0.761 4.313 0 6.987 5.685 12.671 12.671 12.671 1.486 0 2.931-0.255 4.312-0.761-2.164 3.149-5.722 5.052-9.604 5.052z"></path>
</svg>
