<svg version="1.1" xmlns="http://www.w3.org/2000/svg" width="32" height="32" viewBox="0 0 32 32">
<title>mortar-board</title>
<path d="M30 13.5c0-0.177-0.093-0.34-0.245-0.43l-13.5-8c-0.156-0.093-0.354-0.093-0.51 0l-13.5 8c-0.152 0.090-0.245 0.253-0.245 0.43s0.093 0.34 0.245 0.43l1.76 1.043c0 0.009-0.005 0.018-0.005 0.027v3.75l-1.8 1.35c-0.221 0.166-0.266 0.479-0.101 0.7 0.099 0.131 0.25 0.2 0.401 0.2 0.104 0 0.21-0.033 0.3-0.1l1.2-0.9v1.511c0 0.276 0.224 0.5 0.5 0.5s0.5-0.224 0.5-0.5v-1.511l1.2 0.9c0.090 0.067 0.196 0.1 0.3 0.1 0.151 0 0.302-0.069 0.4-0.2 0.165-0.221 0.12-0.534-0.101-0.7l-1.799-1.35v-3.188l3 1.778v5.41c0 2.383 3.528 4.25 8.032 4.25 4.468 0 7.968-1.867 7.968-4.25v-5.41l5.755-3.41c0.152-0.090 0.245-0.253 0.245-0.43zM23 22.75c0 1.762-3.19 3.25-6.968 3.25-3.811 0-7.032-1.488-7.032-3.25v-4.817l6.745 3.997c0.078 0.047 0.167 0.070 0.255 0.070s0.177-0.023 0.255-0.070l6.745-3.997v4.817zM16 20.919l-12.52-7.419 12.52-7.419 12.52 7.419-12.52 7.419z"></path>
</svg>
