<svg version="1.1" xmlns="http://www.w3.org/2000/svg" width="32" height="32" viewBox="0 0 32 32">
<title>motorcycle</title>
<path d="M6.5 24c-2.481 0-4.5-2.019-4.5-4.5s2.019-4.5 4.5-4.5 4.5 2.019 4.5 4.5-2.019 4.5-4.5 4.5zM6.5 16c-1.93 0-3.5 1.57-3.5 3.5s1.57 3.5 3.5 3.5 3.5-1.57 3.5-3.5-1.57-3.5-3.5-3.5z"></path>
<path d="M25.5 24c-2.481 0-4.5-2.019-4.5-4.5s2.019-4.5 4.5-4.5 4.5 2.019 4.5 4.5-2.019 4.5-4.5 4.5zM25.5 16c-1.93 0-3.5 1.57-3.5 3.5s1.57 3.5 3.5 3.5 3.5-1.57 3.5-3.5-1.57-3.5-3.5-3.5z"></path>
<path d="M25.5 20c-0.195 0-0.382-0.116-0.462-0.308l-4.743-11.384c-0.077-0.187-0.259-0.308-0.462-0.308h-2.333c-0.276 0-0.5-0.224-0.5-0.5s0.224-0.5 0.5-0.5h2.333c0.608 0 1.151 0.362 1.386 0.923l4.743 11.385c0.105 0.255-0.015 0.548-0.27 0.654-0.062 0.026-0.128 0.038-0.192 0.038z"></path>
<path d="M16.5 16c-0.075 0-0.151-0.017-0.224-0.053-0.247-0.123-0.347-0.424-0.224-0.671l1-2c0.125-0.247 0.424-0.347 0.671-0.224s0.347 0.424 0.224 0.671l-1 2c-0.088 0.176-0.264 0.277-0.447 0.277z"></path>
<path d="M14.5 16c-0.075 0-0.151-0.017-0.224-0.053-0.247-0.123-0.347-0.424-0.224-0.671l1-2c0.124-0.247 0.424-0.347 0.671-0.224s0.347 0.424 0.224 0.671l-1 2c-0.088 0.176-0.264 0.277-0.447 0.277z"></path>
<path d="M7 19.5c0 0.276-0.224 0.5-0.5 0.5s-0.5-0.224-0.5-0.5c0-0.276 0.224-0.5 0.5-0.5s0.5 0.224 0.5 0.5z"></path>
<path d="M16.655 19h-2.194c-0.763 0-1.475-0.342-1.952-0.938l-2.198-2.748c-0.668-0.835-1.665-1.314-2.734-1.314h-2.577c-1.103 0-2-0.897-2-2s0.897-2 2-2h3.92c0.742 0 1.479 0.186 2.134 0.538l2.101 1.131c1.196-1.079 2.724-1.669 4.345-1.669h4c0.276 0 0.5 0.224 0.5 0.5s-0.224 0.5-0.5 0.5h-4c-1.478 0-2.865 0.58-3.907 1.633-0.156 0.158-0.396 0.193-0.593 0.089l-2.421-1.303c-0.508-0.274-1.082-0.419-1.659-0.419h-3.92c-0.552 0-1 0.449-1 1s0.448 1 1 1h2.577c1.374 0 2.655 0.616 3.515 1.689l2.198 2.748c0.286 0.358 0.713 0.563 1.171 0.563h2.194c0.403 0 0.795-0.165 1.075-0.454l4.476-4.602c0.192-0.199 0.509-0.202 0.707-0.010s0.202 0.509 0.010 0.707l-4.476 4.602c-0.467 0.481-1.12 0.757-1.792 0.757z"></path>
<path d="M24.583 13c-0.195 0-0.382-0.116-0.462-0.308l-0.833-2c-0.105-0.255 0.015-0.548 0.27-0.654 0.252-0.105 0.548 0.014 0.654 0.269l0.833 2c0.105 0.255-0.015 0.548-0.27 0.654-0.062 0.027-0.128 0.039-0.192 0.039z"></path>
</svg>
