<svg version="1.1" xmlns="http://www.w3.org/2000/svg" width="32" height="32" viewBox="0 0 32 32">
<title>mouse-pointer</title>
<path d="M24.82 16.949l-16-13.333c-0.152-0.127-0.364-0.151-0.542-0.064-0.177 0.088-0.286 0.272-0.278 0.469l0.889 20.444c0.010 0.207 0.146 0.387 0.342 0.453 0.195 0.067 0.412 0.004 0.544-0.156l4.488-5.45 4.457 8.912c0.060 0.119 0.163 0.209 0.289 0.25 0.052 0.018 0.104 0.026 0.158 0.026 0.077 0 0.153-0.018 0.224-0.053l2.133-1.067c0.247-0.124 0.347-0.424 0.224-0.671l-4.438-8.876h7.19c0.211 0 0.398-0.132 0.47-0.33s0.011-0.419-0.15-0.554zM16.5 16.833c-0.173 0-0.334 0.090-0.426 0.237s-0.099 0.332-0.021 0.486l4.576 9.152-1.238 0.62-4.577-9.152c-0.076-0.151-0.223-0.254-0.391-0.273-0.020-0.002-0.038-0.003-0.057-0.003-0.148 0-0.29 0.066-0.386 0.182l-4.148 5.038-0.783-18.012 14.070 11.726h-6.619z"></path>
</svg>
