<svg version="1.1" xmlns="http://www.w3.org/2000/svg" width="32" height="32" viewBox="0 0 32 32">
<title>music</title>
<path d="M28 5.72c0-0.451-0.2-0.874-0.549-1.16s-0.802-0.399-1.245-0.311l-13 2.6c-0.699 0.139-1.206 0.758-1.206 1.471v13.889c-0.734-0.735-1.799-1.209-2.999-1.209-2.206 0-4 1.57-4 3.5s1.794 3.5 4 3.5 4-1.57 4-3.5c0-0.003-0.001-0.005-0.001-0.008v-11.582l14-2.8v10.1c-0.734-0.735-1.8-1.21-3-1.21-2.206 0-4 1.57-4 3.5s1.794 3.5 4 3.5 4-1.57 4-3.5v0 0-16.78zM9.001 27c-1.654 0-3-1.122-3-2.5s1.346-2.5 3-2.5c1.651 0 2.994 1.117 2.999 2.492v0.008h0.001c0 1.378-1.346 2.5-3 2.5zM24 25c-1.654 0-3-1.122-3-2.5s1.346-2.5 3-2.5 3 1.122 3 2.5-1.346 2.5-3 2.5zM13 11.89v-3.57c0-0.238 0.169-0.444 0.401-0.49l13.001-2.6c0.143-0.028 0.298 0.008 0.415 0.104 0.117 0.094 0.183 0.235 0.183 0.386v3.37l-14 2.8z"></path>
</svg>
