<svg version="1.1" xmlns="http://www.w3.org/2000/svg" width="32" height="32" viewBox="0 0 32 32">
<title>network-hub</title>
<path d="M24 20c-0.923 0-1.762 0.327-2.44 0.853l-2.413-2.413c0.526-0.678 0.853-1.518 0.853-2.44s-0.327-1.762-0.853-2.44l2.413-2.413c0.678 0.526 1.517 0.853 2.44 0.853 2.206 0 4-1.794 4-4s-1.794-4-4-4-4 1.794-4 4c0 0.922 0.327 1.762 0.853 2.44l-2.413 2.413c-0.678-0.526-1.517-0.853-2.44-0.853s-1.762 0.327-2.44 0.853l-2.413-2.413c0.526-0.678 0.853-1.518 0.853-2.44 0-2.206-1.794-4-4-4s-4 1.794-4 4 1.794 4 4 4c0.923 0 1.762-0.327 2.44-0.853l2.413 2.413c-0.526 0.678-0.853 1.518-0.853 2.44s0.327 1.762 0.853 2.44l-2.413 2.413c-0.678-0.526-1.517-0.853-2.44-0.853-2.206 0-4 1.794-4 4s1.794 4 4 4 4-1.794 4-4c0-0.922-0.327-1.762-0.853-2.44l2.413-2.413c0.678 0.526 1.517 0.853 2.44 0.853s1.762-0.327 2.44-0.853l2.413 2.413c-0.526 0.678-0.853 1.518-0.853 2.44 0 2.206 1.794 4 4 4s4-1.794 4-4-1.794-4-4-4zM24 5c1.654 0 3 1.346 3 3s-1.346 3-3 3-3-1.346-3-3 1.346-3 3-3zM8 11c-1.654 0-3-1.346-3-3s1.346-3 3-3 3 1.346 3 3-1.346 3-3 3zM8 27c-1.654 0-3-1.346-3-3s1.346-3 3-3 3 1.346 3 3-1.346 3-3 3zM16 19c-1.654 0-3-1.346-3-3s1.346-3 3-3 3 1.346 3 3-1.346 3-3 3zM24 27c-1.654 0-3-1.346-3-3s1.346-3 3-3 3 1.346 3 3-1.346 3-3 3z"></path>
</svg>
