<svg version="1.1" xmlns="http://www.w3.org/2000/svg" width="32" height="32" viewBox="0 0 32 32">
<title>network-triangle</title>
<path d="M25 20c-0.534 0-1.042 0.109-1.508 0.3l-5.119-9.099c0.982-0.729 1.627-1.887 1.627-3.201 0-2.206-1.794-4-4-4s-4 1.794-4 4c0 1.314 0.645 2.472 1.626 3.201l-5.118 9.099c-0.466-0.191-0.974-0.3-1.508-0.3-2.206 0-4 1.794-4 4s1.794 4 4 4 4-1.794 4-4h10c0 2.206 1.794 4 4 4s4-1.794 4-4-1.794-4-4-4zM13 8c0-1.654 1.346-3 3-3s3 1.346 3 3-1.346 3-3 3-3-1.346-3-3zM7 27c-1.654 0-3-1.346-3-3s1.346-3 3-3 3 1.346 3 3-1.346 3-3 3zM10.858 23c-0.232-0.895-0.762-1.665-1.484-2.201l5.119-9.099c0.465 0.191 0.973 0.3 1.507 0.3s1.042-0.109 1.508-0.3l5.119 9.099c-0.722 0.537-1.252 1.307-1.484 2.201h-10.285zM25 27c-1.654 0-3-1.346-3-3s1.346-3 3-3 3 1.346 3 3-1.346 3-3 3z"></path>
</svg>
