<svg version="1.1" xmlns="http://www.w3.org/2000/svg" width="32" height="32" viewBox="0 0 32 32">
<title>newspaper-o</title>
<path d="M29.5 5h-23c-0.276 0-0.5 0.224-0.5 0.5v18c0 0.827-0.673 1.5-1.5 1.5s-1.5-0.673-1.5-1.5v-16c0-0.276-0.224-0.5-0.5-0.5s-0.5 0.224-0.5 0.5v16.115c0 0.041 0.014 0.077 0.023 0.115 0.119 1.27 1.177 2.27 2.477 2.27h23.2c1.269 0 2.3-1.032 2.3-2.3v-18.2c0-0.276-0.224-0.5-0.5-0.5zM29 23.7c0 0.717-0.583 1.3-1.3 1.3h-21.201c0.314-0.418 0.501-0.938 0.501-1.5v-17.5h22v17.7z"></path>
<path d="M19.5 13h6c0.276 0 0.5-0.224 0.5-0.5s-0.224-0.5-0.5-0.5h-6c-0.276 0-0.5 0.224-0.5 0.5s0.224 0.5 0.5 0.5z"></path>
<path d="M19.5 10h6c0.276 0 0.5-0.224 0.5-0.5s-0.224-0.5-0.5-0.5h-6c-0.276 0-0.5 0.224-0.5 0.5s0.224 0.5 0.5 0.5z"></path>
<path d="M19.5 16h6c0.276 0 0.5-0.224 0.5-0.5s-0.224-0.5-0.5-0.5h-6c-0.276 0-0.5 0.224-0.5 0.5s0.224 0.5 0.5 0.5z"></path>
<path d="M19.5 19h6c0.276 0 0.5-0.224 0.5-0.5s-0.224-0.5-0.5-0.5h-6c-0.276 0-0.5 0.224-0.5 0.5s0.224 0.5 0.5 0.5z"></path>
<path d="M19.5 22h6c0.276 0 0.5-0.224 0.5-0.5s-0.224-0.5-0.5-0.5h-6c-0.276 0-0.5 0.224-0.5 0.5s0.224 0.5 0.5 0.5z"></path>
<path d="M10.5 22h6c0.276 0 0.5-0.224 0.5-0.5s-0.224-0.5-0.5-0.5h-6c-0.276 0-0.5 0.224-0.5 0.5s0.224 0.5 0.5 0.5z"></path>
<path d="M10.5 19h6c0.276 0 0.5-0.224 0.5-0.5s-0.224-0.5-0.5-0.5h-6c-0.276 0-0.5 0.224-0.5 0.5s0.224 0.5 0.5 0.5z"></path>
<path d="M10.5 16h6c0.276 0 0.5-0.224 0.5-0.5v-6c0-0.276-0.224-0.5-0.5-0.5h-6c-0.276 0-0.5 0.224-0.5 0.5v6c0 0.276 0.224 0.5 0.5 0.5zM11 10h5v5h-5v-5z"></path>
<path d="M4.5 24c0.276 0 0.5-0.224 0.5-0.5v-17c0-0.276-0.224-0.5-0.5-0.5s-0.5 0.224-0.5 0.5v17c0 0.276 0.224 0.5 0.5 0.5z"></path>
</svg>
