<svg version="1.1" xmlns="http://www.w3.org/2000/svg" width="32" height="32" viewBox="0 0 32 32">
<title>notebook</title>
<path d="M25 3h-18c-1.105 0-2 0.895-2 2v0 3h-0.5c-0.276 0-0.5 0.224-0.5 0.5s0.224 0.5 0.5 0.5v0h0.5v4h-0.5c-0.276 0-0.5 0.224-0.5 0.5s0.224 0.5 0.5 0.5v0h0.5v4h-0.5c-0.276 0-0.5 0.224-0.5 0.5s0.224 0.5 0.5 0.5v0h0.5v4h-0.5c-0.276 0-0.5 0.224-0.5 0.5s0.224 0.5 0.5 0.5v0h0.5v3c0 1.105 0.895 2 2 2v0h18c1.105 0 2-0.895 2-2v0-22c0-1.105-0.895-2-2-2v0zM9 28h-2c-0.552 0-1-0.448-1-1v0-3h0.5c0.276 0 0.5-0.224 0.5-0.5s-0.224-0.5-0.5-0.5v0h-0.5v-4h0.5c0.276 0 0.5-0.224 0.5-0.5s-0.224-0.5-0.5-0.5v0h-0.5v-4h0.5c0.276 0 0.5-0.224 0.5-0.5s-0.224-0.5-0.5-0.5v0h-0.5v-4h0.5c0.276 0 0.5-0.224 0.5-0.5s-0.224-0.5-0.5-0.5v0h-0.5v-3c0-0.552 0.448-1 1-1v0h2zM26 27c0 0.552-0.448 1-1 1v0h-15v-24h15c0.552 0 1 0.448 1 1v0z"></path>
<path d="M22.5 11h-9c-0.276 0-0.5 0.224-0.5 0.5v0 4c0 0.276 0.224 0.5 0.5 0.5v0h9c0.276 0 0.5-0.224 0.5-0.5v0-4c0-0.276-0.224-0.5-0.5-0.5v0zM22 15h-8v-3h8z"></path>
</svg>
