<svg version="1.1" xmlns="http://www.w3.org/2000/svg" width="32" height="32" viewBox="0 0 32 32">
<title>number-6</title>
<path d="M16.051 15.869c-0.529 0-0.992 0.175-1.391 0.526s-0.598 0.879-0.598 1.586c0 0.62 0.181 1.141 0.543 1.562s0.865 0.632 1.507 0.632c0.647 0 1.131-0.218 1.453-0.653s0.482-0.949 0.482-1.542c0-0.501-0.144-0.979-0.431-1.432s-0.808-0.679-1.565-0.679z"></path>
<path d="M16 4c-6.617 0-12 5.383-12 12s5.383 12 12 12 12-5.383 12-12-5.383-12-12-12zM18.478 20.241c-0.579 0.686-1.404 1.029-2.475 1.029-0.916 0-1.707-0.348-2.372-1.042s-0.998-1.865-0.998-3.51c0-1.217 0.148-2.249 0.444-3.097 0.57-1.623 1.611-2.434 3.124-2.434 1.094 0 1.856 0.284 2.287 0.851s0.646 1.152 0.646 1.753h-1.217c-0.073-0.387-0.189-0.69-0.349-0.909-0.296-0.41-0.745-0.615-1.347-0.615-0.688 0-1.235 0.318-1.641 0.954s-0.631 1.546-0.677 2.731c0.283-0.415 0.638-0.725 1.066-0.93 0.392-0.182 0.83-0.273 1.312-0.273 0.82 0 1.536 0.262 2.146 0.786s0.916 1.306 0.916 2.345c0.003 0.888-0.286 1.675-0.865 2.361z"></path>
</svg>
