<svg version="1.1" xmlns="http://www.w3.org/2000/svg" width="32" height="32" viewBox="0 0 32 32">
<title>number-0</title>
<path d="M15.966 12.335c-0.726 0-1.256 0.341-1.592 1.022s-0.503 1.685-0.503 3.011c0 0.998 0.107 1.8 0.322 2.406 0.329 0.925 0.89 1.388 1.685 1.388 0.639 0 1.148-0.283 1.527-0.848s0.568-1.618 0.568-3.158c0-1.112-0.137-2.027-0.411-2.745s-0.807-1.076-1.596-1.076z"></path>
<path d="M16 4c-6.617 0-12 5.383-12 12s5.383 12 12 12 12-5.383 12-12-5.383-12-12-12zM18.704 19.41c-0.574 1.249-1.513 1.873-2.816 1.873-1.176 0-2.051-0.51-2.625-1.531-0.479-0.852-0.718-1.996-0.718-3.432 0-1.112 0.144-2.067 0.431-2.864 0.538-1.486 1.511-2.229 2.919-2.229 1.267 0 2.183 0.522 2.748 1.565 0.438 0.807 0.656 1.912 0.656 3.315-0.001 1.332-0.199 2.433-0.595 3.303z"></path>
</svg>
