<svg version="1.1" xmlns="http://www.w3.org/2000/svg" width="32" height="32" viewBox="0 0 32 32">
<title>number-5</title>
<path d="M16 4c-6.617 0-12 5.383-12 12s5.383 12 12 12 12-5.383 12-12-5.383-12-12-12zM18.44 20.203c-0.572 0.707-1.484 1.060-2.738 1.060-0.797 0-1.503-0.225-2.116-0.673s-0.956-1.138-1.029-2.068h1.278c0.082 0.702 0.408 1.187 0.978 1.456 0.292 0.137 0.629 0.205 1.012 0.205 0.729 0 1.269-0.232 1.62-0.697s0.526-0.98 0.526-1.545c0-0.684-0.208-1.212-0.625-1.586s-0.917-0.561-1.5-0.561c-0.424 0-0.787 0.082-1.090 0.246s-0.562 0.392-0.776 0.684l-1.066-0.062 0.746-5.271h5.085v1.189h-4.163l-0.417 2.721c0.228-0.173 0.444-0.303 0.649-0.39 0.365-0.15 0.786-0.226 1.265-0.226 0.898 0 1.659 0.29 2.283 0.868s0.937 1.312 0.937 2.201c-0.001 0.927-0.287 1.743-0.859 2.449z"></path>
</svg>
