<svg version="1.1" xmlns="http://www.w3.org/2000/svg" width="32" height="32" viewBox="0 0 32 32">
<title>number-6-o</title>
<path d="M16 4c-6.617 0-12 5.383-12 12s5.383 12 12 12 12-5.383 12-12-5.383-12-12-12zM16 27c-6.065 0-11-4.935-11-11s4.935-11 11-11 11 4.935 11 11-4.935 11-11 11z"></path>
<path d="M16.284 14.748c-0.483 0-0.92 0.091-1.312 0.273-0.428 0.205-0.784 0.515-1.066 0.93 0.045-1.185 0.271-2.095 0.677-2.731s0.953-0.954 1.641-0.954c0.602 0 1.050 0.205 1.347 0.615 0.16 0.219 0.276 0.522 0.349 0.909h1.217c0-0.602-0.215-1.186-0.646-1.753s-1.193-0.851-2.287-0.851c-1.513 0-2.554 0.811-3.124 2.434-0.296 0.848-0.444 1.88-0.444 3.097 0 1.645 0.333 2.815 0.998 3.51s1.456 1.042 2.372 1.042c1.071 0 1.896-0.343 2.475-1.029s0.868-1.473 0.868-2.362c0-1.039-0.305-1.821-0.916-2.345s-1.329-0.785-2.149-0.785zM17.565 19.523c-0.321 0.435-0.806 0.653-1.453 0.653-0.643 0-1.145-0.211-1.507-0.632s-0.543-0.942-0.543-1.562c0-0.707 0.199-1.235 0.598-1.586s0.862-0.526 1.391-0.526c0.756 0 1.278 0.227 1.565 0.68s0.431 0.931 0.431 1.432c0 0.592-0.16 1.106-0.482 1.541z"></path>
</svg>
