<svg version="1.1" xmlns="http://www.w3.org/2000/svg" width="32" height="32" viewBox="0 0 32 32">
<title>number-8-o</title>
<path d="M16 4c-6.617 0-12 5.383-12 12s5.383 12 12 12 12-5.383 12-12-5.383-12-12-12zM16 27c-6.065 0-11-4.935-11-11s4.935-11 11-11 11 4.935 11 11-4.935 11-11 11z"></path>
<path d="M17.672 15.787c0.364-0.205 0.633-0.415 0.806-0.629 0.31-0.378 0.464-0.873 0.464-1.483 0-0.661-0.267-1.238-0.799-1.733-0.533-0.495-1.268-0.742-2.206-0.742-0.97 0-1.718 0.262-2.247 0.786s-0.792 1.151-0.792 1.88c0 0.583 0.18 1.057 0.54 1.422 0.191 0.196 0.458 0.367 0.8 0.513-0.556 0.223-0.976 0.546-1.258 0.967s-0.424 0.922-0.424 1.5c0 0.984 0.329 1.735 0.988 2.252s1.464 0.776 2.417 0.776c1.057 0 1.875-0.3 2.454-0.899s0.868-1.33 0.868-2.191c0-0.729-0.217-1.322-0.652-1.777-0.232-0.241-0.552-0.455-0.959-0.642zM14.192 13.856c0-0.411 0.132-0.77 0.396-1.076s0.691-0.459 1.283-0.459c0.596 0 1.039 0.153 1.331 0.459 0.291 0.306 0.437 0.642 0.437 1.007 0 0.42-0.152 0.782-0.457 1.086s-0.728 0.456-1.269 0.456c-0.464 0-0.867-0.13-1.208-0.391-0.343-0.26-0.513-0.621-0.513-1.082zM17.408 19.714c-0.376 0.308-0.849 0.461-1.418 0.461-0.711 0-1.236-0.186-1.576-0.557s-0.509-0.812-0.509-1.323c0-0.592 0.186-1.056 0.557-1.391s0.851-0.502 1.439-0.502c0.606 0 1.103 0.164 1.49 0.492s0.581 0.809 0.581 1.442c0 0.612-0.188 1.071-0.564 1.378z"></path>
</svg>
