<svg version="1.1" xmlns="http://www.w3.org/2000/svg" width="32" height="32" viewBox="0 0 32 32">
<title>number-3</title>
<path d="M16 4c-6.617 0-12 5.383-12 12s5.383 12 12 12 12-5.383 12-12-5.383-12-12-12zM18.362 20.401c-0.615 0.588-1.488 0.882-2.618 0.882-1.158 0-1.997-0.318-2.519-0.954s-0.783-1.409-0.783-2.321h1.285c0.055 0.633 0.173 1.094 0.355 1.381 0.319 0.515 0.896 0.772 1.729 0.772 0.647 0 1.167-0.173 1.559-0.52s0.588-0.793 0.588-1.34c0-0.674-0.206-1.146-0.619-1.415s-0.985-0.403-1.719-0.403c-0.082 0-0.165 0.001-0.25 0.003s-0.17 0.006-0.256 0.010v-1.087c0.127 0.014 0.235 0.023 0.321 0.027s0.18 0.007 0.28 0.007c0.46 0 0.838-0.073 1.135-0.219 0.52-0.255 0.779-0.711 0.779-1.367 0-0.488-0.173-0.864-0.52-1.128s-0.75-0.396-1.21-0.396c-0.82 0-1.388 0.273-1.702 0.82-0.173 0.301-0.271 0.729-0.294 1.285h-1.217c0-0.729 0.146-1.349 0.438-1.859 0.501-0.912 1.383-1.367 2.646-1.367 0.998 0 1.771 0.222 2.317 0.667s0.82 1.088 0.82 1.931c0 0.602-0.162 1.089-0.485 1.463-0.201 0.232-0.46 0.415-0.779 0.547 0.515 0.141 0.917 0.414 1.207 0.817s0.434 0.896 0.434 1.48c0.001 0.935-0.307 1.696-0.922 2.284z"></path>
</svg>
