<svg version="1.1" xmlns="http://www.w3.org/2000/svg" width="32" height="32" viewBox="0 0 32 32">
<title>number-2-o</title>
<path d="M16 4c-6.617 0-12 5.383-12 12s5.383 12 12 12 12-5.383 12-12-5.383-12-12-12zM16 27c-6.065 0-11-4.935-11-11s4.935-11 11-11 11 4.935 11 11-4.935 11-11 11z"></path>
<path d="M14.78 18.535c0.255-0.223 0.606-0.458 1.053-0.704l0.937-0.52c0.825-0.46 1.397-0.852 1.716-1.176 0.551-0.556 0.827-1.226 0.827-2.010 0-0.743-0.259-1.417-0.776-2.023s-1.336-0.909-2.458-0.909c-1.349 0-2.29 0.474-2.823 1.422-0.301 0.538-0.458 1.233-0.472 2.085h1.251c0.018-0.608 0.114-1.083 0.287-1.426 0.324-0.64 0.907-0.96 1.75-0.96 0.57 0 1.025 0.168 1.367 0.503s0.513 0.789 0.513 1.359c0 0.489-0.187 0.922-0.561 1.301-0.237 0.242-0.649 0.534-1.237 0.876l-1.312 0.759c-0.879 0.51-1.471 1.078-1.774 1.702s-0.478 1.358-0.523 2.201h6.72v-1.162h-5.346c0.118-0.481 0.405-0.921 0.861-1.318z"></path>
</svg>
