<svg version="1.1" xmlns="http://www.w3.org/2000/svg" width="32" height="32" viewBox="0 0 32 32">
<title>number-5-o</title>
<path d="M16 4c-6.617 0-12 5.383-12 12s5.383 12 12 12 12-5.383 12-12-5.383-12-12-12zM16 27c-6.065 0-11-4.935-11-11s4.935-11 11-11 11 4.935 11 11-4.935 11-11 11z"></path>
<path d="M16.079 14.687c-0.479 0-0.9 0.075-1.265 0.226-0.205 0.086-0.421 0.216-0.649 0.39l0.417-2.721h4.163v-1.189h-5.085l-0.746 5.271 1.066 0.062c0.214-0.292 0.473-0.52 0.776-0.684s0.667-0.246 1.090-0.246c0.583 0 1.083 0.187 1.5 0.561s0.625 0.902 0.625 1.586c0 0.565-0.175 1.080-0.526 1.545s-0.891 0.697-1.62 0.697c-0.383 0-0.72-0.068-1.012-0.205-0.57-0.269-0.896-0.754-0.978-1.456h-1.278c0.073 0.93 0.416 1.619 1.029 2.068s1.318 0.673 2.116 0.673c1.253 0 2.166-0.353 2.738-1.060s0.858-1.522 0.858-2.447c0-0.889-0.312-1.623-0.937-2.201s-1.384-0.87-2.282-0.87z"></path>
</svg>
