<svg version="1.1" xmlns="http://www.w3.org/2000/svg" width="32" height="32" viewBox="0 0 32 32">
<title>number-9-o</title>
<path d="M16 4c-6.617 0-12 5.383-12 12s5.383 12 12 12 12-5.383 12-12-5.383-12-12-12zM16 27c-6.065 0-11-4.935-11-11s4.935-11 11-11 11 4.935 11 11-4.935 11-11 11z"></path>
<path d="M15.819 11.214c-1.057 0-1.857 0.337-2.399 1.011s-0.813 1.455-0.813 2.342c0 0.924 0.274 1.68 0.824 2.267s1.295 0.881 2.239 0.881c0.465 0 0.899-0.088 1.302-0.263s0.742-0.479 1.015-0.913c-0.173 1.5-0.467 2.494-0.882 2.984s-0.916 0.735-1.504 0.735c-0.314 0-0.597-0.068-0.848-0.205-0.488-0.26-0.75-0.729-0.786-1.408h-1.244c0 0.756 0.249 1.385 0.745 1.887s1.224 0.752 2.181 0.752c1.426 0 2.438-0.77 3.035-2.309 0.36-0.924 0.54-1.985 0.54-3.183 0-1.061-0.15-1.945-0.451-2.651-0.544-1.285-1.528-1.927-2.954-1.927zM17.169 16.154c-0.403 0.321-0.849 0.481-1.336 0.481-0.679 0-1.173-0.188-1.483-0.563s-0.465-0.882-0.465-1.519c0-0.673 0.177-1.211 0.53-1.614s0.831-0.604 1.432-0.604c0.561 0 1.022 0.176 1.384 0.529s0.543 0.889 0.543 1.607c0 0.801-0.202 1.362-0.605 1.683z"></path>
</svg>
