<svg version="1.1" xmlns="http://www.w3.org/2000/svg" width="32" height="32" viewBox="0 0 32 32">
<title>number-3-o</title>
<path d="M16 4c-6.617 0-12 5.383-12 12s5.383 12 12 12 12-5.383 12-12-5.383-12-12-12zM16 27c-6.065 0-11-4.935-11-11s4.935-11 11-11 11 4.935 11 11-4.935 11-11 11z"></path>
<path d="M17.644 15.821c0.319-0.132 0.579-0.314 0.779-0.547 0.324-0.374 0.485-0.861 0.485-1.463 0-0.843-0.273-1.487-0.82-1.931s-1.319-0.667-2.317-0.667c-1.262 0-2.144 0.456-2.646 1.367-0.292 0.51-0.438 1.13-0.438 1.859h1.217c0.023-0.556 0.121-0.984 0.294-1.285 0.314-0.547 0.882-0.82 1.702-0.82 0.46 0 0.864 0.132 1.21 0.396s0.52 0.64 0.52 1.128c0 0.656-0.26 1.112-0.779 1.367-0.296 0.146-0.674 0.219-1.135 0.219-0.1 0-0.194-0.002-0.28-0.007s-0.194-0.014-0.321-0.027v1.087c0.086-0.004 0.172-0.008 0.256-0.010s0.167-0.003 0.25-0.003c0.734 0 1.307 0.134 1.719 0.403s0.619 0.741 0.619 1.415c0 0.547-0.196 0.994-0.588 1.34s-0.912 0.52-1.559 0.52c-0.834 0-1.411-0.257-1.729-0.772-0.182-0.287-0.301-0.748-0.355-1.381h-1.285c0 0.912 0.261 1.685 0.783 2.321s1.361 0.954 2.519 0.954c1.13 0 2.003-0.294 2.618-0.882s0.923-1.349 0.923-2.283c0-0.583-0.145-1.077-0.434-1.48s-0.693-0.677-1.208-0.818z"></path>
</svg>
