<svg version="1.1" xmlns="http://www.w3.org/2000/svg" width="32" height="32" viewBox="0 0 32 32">
<title>number-7-o</title>
<path d="M16 4c-6.617 0-12 5.383-12 12s5.383 12 12 12 12-5.383 12-12-5.383-12-12-12zM16 27c-6.065 0-11-4.935-11-11s4.935-11 11-11 11 4.935 11 11-4.935 11-11 11z"></path>
<path d="M12.62 12.629h5.414c-0.688 0.789-1.344 1.725-1.969 2.81-1.057 1.85-1.741 3.709-2.051 5.578h1.36c0.209-1.002 0.38-1.729 0.513-2.181 0.205-0.702 0.506-1.479 0.902-2.331 0.401-0.875 0.862-1.691 1.384-2.447s0.94-1.288 1.254-1.593v-1.073h-6.807v1.237z"></path>
</svg>
