<svg version="1.1" xmlns="http://www.w3.org/2000/svg" width="32" height="32" viewBox="0 0 32 32">
<title>number-2</title>
<path d="M16 4c-6.617 0-12 5.383-12 12s5.383 12 12 12 12-5.383 12-12-5.383-12-12-12zM19.264 19.854v1.162h-6.72c0.045-0.843 0.22-1.577 0.523-2.201s0.895-1.192 1.774-1.702l1.312-0.759c0.588-0.342 1-0.634 1.237-0.876 0.374-0.379 0.561-0.812 0.561-1.301 0-0.571-0.171-1.024-0.513-1.359s-0.797-0.503-1.367-0.503c-0.843 0-1.426 0.32-1.75 0.96-0.173 0.343-0.269 0.818-0.287 1.426h-1.251c0.014-0.852 0.171-1.547 0.472-2.085 0.533-0.948 1.474-1.422 2.823-1.422 1.121 0 1.94 0.303 2.458 0.909s0.776 1.281 0.776 2.023c0 0.784-0.276 1.454-0.827 2.010-0.319 0.324-0.891 0.715-1.716 1.176l-0.937 0.52c-0.447 0.246-0.797 0.481-1.053 0.704-0.456 0.396-0.743 0.836-0.861 1.319h5.346z"></path>
</svg>
