<svg version="1.1" xmlns="http://www.w3.org/2000/svg" width="32" height="32" viewBox="0 0 32 32">
<title>number-0-o</title>
<path d="M16 4c-6.617 0-12 5.383-12 12s5.383 12 12 12 12-5.383 12-12-5.383-12-12-12zM16 27c-6.065 0-11-4.935-11-11s4.935-11 11-11 11 4.935 11 11-4.935 11-11 11z"></path>
<path d="M15.894 11.228c-1.408 0-2.381 0.743-2.919 2.229-0.287 0.797-0.431 1.752-0.431 2.864 0 1.436 0.239 2.58 0.718 3.432 0.574 1.021 1.449 1.531 2.625 1.531 1.303 0 2.242-0.625 2.816-1.873 0.396-0.871 0.595-1.971 0.595-3.302 0-1.404-0.219-2.509-0.656-3.315-0.565-1.044-1.481-1.566-2.748-1.566zM17.404 19.314c-0.379 0.565-0.888 0.848-1.527 0.848-0.794 0-1.356-0.462-1.685-1.388-0.214-0.606-0.322-1.408-0.322-2.406 0-1.326 0.167-2.33 0.503-3.011s0.866-1.022 1.592-1.022c0.79 0 1.322 0.359 1.595 1.077 0.274 0.718 0.411 1.633 0.411 2.745 0.001 1.54-0.188 2.593-0.567 3.157z"></path>
</svg>
