<svg version="1.1" xmlns="http://www.w3.org/2000/svg" width="32" height="32" viewBox="0 0 32 32">
<title>number-8</title>
<path d="M14.704 14.938c0.341 0.261 0.744 0.391 1.208 0.391 0.541 0 0.964-0.152 1.269-0.456s0.457-0.666 0.457-1.086c0-0.365-0.146-0.701-0.437-1.007-0.292-0.306-0.735-0.459-1.331-0.459-0.591 0-1.019 0.153-1.283 0.459s-0.396 0.665-0.396 1.076c0.001 0.461 0.171 0.822 0.513 1.082z"></path>
<path d="M15.901 16.402c-0.588 0-1.067 0.167-1.439 0.502s-0.557 0.799-0.557 1.391c0 0.51 0.17 0.951 0.509 1.323s0.865 0.557 1.576 0.557c0.57 0 1.042-0.154 1.418-0.461s0.564-0.767 0.564-1.377c0-0.633-0.194-1.114-0.581-1.442s-0.884-0.493-1.49-0.493z"></path>
<path d="M16 4c-6.617 0-12 5.383-12 12s5.383 12 12 12 12-5.383 12-12-5.383-12-12-12zM18.417 20.398c-0.579 0.599-1.397 0.899-2.454 0.899-0.953 0-1.758-0.259-2.417-0.776s-0.988-1.268-0.988-2.252c0-0.579 0.141-1.079 0.424-1.5s0.702-0.744 1.258-0.967c-0.342-0.146-0.608-0.317-0.8-0.513-0.36-0.365-0.54-0.838-0.54-1.422 0-0.729 0.264-1.356 0.792-1.88s1.277-0.786 2.247-0.786c0.938 0 1.673 0.247 2.206 0.742 0.532 0.495 0.799 1.072 0.799 1.733 0 0.611-0.155 1.105-0.464 1.483-0.173 0.214-0.442 0.424-0.806 0.629 0.407 0.187 0.727 0.401 0.96 0.643 0.435 0.456 0.652 1.048 0.652 1.777-0.001 0.86-0.291 1.591-0.869 2.19z"></path>
</svg>
