<svg version="1.1" xmlns="http://www.w3.org/2000/svg" width="32" height="32" viewBox="0 0 32 32">
<title>number-9</title>
<path d="M16 4c-6.617 0-12 5.383-12 12s5.383 12 12 12 12-5.383 12-12-5.383-12-12-12zM18.683 18.974c-0.597 1.54-1.609 2.309-3.035 2.309-0.957 0-1.684-0.25-2.181-0.752s-0.745-1.13-0.745-1.887h1.244c0.037 0.679 0.298 1.148 0.786 1.408 0.25 0.137 0.533 0.205 0.848 0.205 0.588 0 1.089-0.245 1.504-0.735s0.708-1.484 0.882-2.984c-0.273 0.433-0.612 0.737-1.015 0.913s-0.837 0.263-1.302 0.263c-0.943 0-1.689-0.293-2.239-0.881s-0.824-1.343-0.824-2.267c0-0.888 0.271-1.668 0.813-2.342s1.342-1.011 2.399-1.011c1.426 0 2.411 0.642 2.953 1.926 0.301 0.706 0.451 1.59 0.451 2.651 0.001 1.199-0.179 2.26-0.539 3.184z"></path>
<path d="M15.846 12.335c-0.602 0-1.079 0.201-1.432 0.604s-0.53 0.941-0.53 1.614c0 0.637 0.155 1.143 0.465 1.519s0.804 0.563 1.483 0.563c0.488 0 0.933-0.16 1.336-0.481s0.605-0.882 0.605-1.683c0-0.719-0.181-1.254-0.543-1.607s-0.823-0.529-1.384-0.529z"></path>
</svg>
