<svg id="Layer_1" data-name="Layer 1" xmlns="http://www.w3.org/2000/svg" width="32" height="32" viewBox="0 0 32 32"><path d="M23.5,24H22V22.5a.5.5,0,0,0-1,0V24H19.5a.5.5,0,0,0,0,1H21v1.5a.5.5,0,0,0,1,0V25h1.5a.5.5,0,0,0,0-1Z"/><path d="M25.168,18.623l-5.1-2.456a1,1,0,0,1-.566-.9V13.38A6,6,0,0,0,21,9.357V8.166l1.717-2.308a.5.5,0,0,0-.01-.609,8.547,8.547,0,0,0-13.414,0,.5.5,0,0,0-.01.609L11,8.166V9.357a6,6,0,0,0,1.5,4.023v1.887a1,1,0,0,1-.566.9l-5.1,2.456A5.026,5.026,0,0,0,4,23.128V29.5a.5.5,0,0,0,1,0V23.128a4.022,4.022,0,0,1,2.265-3.6l3.411-1.641,4.97,4.971a.5.5,0,0,0,.708,0l4.97-4.971,3.411,1.641A4.022,4.022,0,0,1,27,23.128V29.5a.5.5,0,0,0,1,0V23.128A5.026,5.026,0,0,0,25.168,18.623ZM10.321,5.577a7.546,7.546,0,0,1,11.358,0L20.367,7.342a7.925,7.925,0,0,0-8.734,0ZM12,8.283a6.969,6.969,0,0,1,8,0V9.357C20,11.917,18.206,14,16,14s-4-2.083-4-4.643Zm4,13.51-4.37-4.37.737-.354a2.011,2.011,0,0,0,1.133-1.8V14.236a4.472,4.472,0,0,0,5,0v1.031a2.011,2.011,0,0,0,1.133,1.8l.737.354Z"/></svg>