<svg version="1.1" xmlns="http://www.w3.org/2000/svg" width="32" height="32" viewBox="0 0 32 32">
<title>office-phone</title>
<path d="M9.5 24h4c0.827 0 1.5-0.673 1.5-1.5v-17c0-0.827-0.673-1.5-1.5-1.5h-4c-0.827 0-1.5 0.673-1.5 1.5v17c0 0.827 0.673 1.5 1.5 1.5zM9 5.5c0-0.276 0.225-0.5 0.5-0.5h4c0.275 0 0.5 0.224 0.5 0.5v17c0 0.276-0.225 0.5-0.5 0.5h-4c-0.275 0-0.5-0.224-0.5-0.5v-17z"></path>
<path d="M27.5 6h-11c-0.276 0-0.5 0.224-0.5 0.5s0.224 0.5 0.5 0.5h11c0.275 0 0.5 0.224 0.5 0.5v19c0 0.276-0.225 0.5-0.5 0.5h-22c-0.275 0-0.5-0.224-0.5-0.5v-19c0-0.276 0.225-0.5 0.5-0.5h1c0.276 0 0.5-0.224 0.5-0.5s-0.224-0.5-0.5-0.5h-1c-0.827 0-1.5 0.673-1.5 1.5v19c0 0.827 0.673 1.5 1.5 1.5h22c0.827 0 1.5-0.673 1.5-1.5v-19c0-0.827-0.673-1.5-1.5-1.5z"></path>
<path d="M25 11.5c0-0.827-0.673-1.5-1.5-1.5h-5c-0.827 0-1.5 0.673-1.5 1.5v1c0 0.827 0.673 1.5 1.5 1.5h5c0.827 0 1.5-0.673 1.5-1.5v-1zM24 12.5c0 0.276-0.225 0.5-0.5 0.5h-5c-0.275 0-0.5-0.224-0.5-0.5v-1c0-0.276 0.225-0.5 0.5-0.5h5c0.275 0 0.5 0.224 0.5 0.5v1z"></path>
<path d="M18 18c0.552 0 1-0.449 1-1s-0.448-1-1-1-1 0.449-1 1 0.448 1 1 1zM18 16.999v0c0 0.001 0 0.001 0 0z"></path>
<path d="M21 16c-0.552 0-1 0.449-1 1s0.448 1 1 1 1-0.449 1-1-0.448-1-1-1zM21 17c0 0 0 0 0 0v0z"></path>
<path d="M24 16c-0.552 0-1 0.449-1 1s0.448 1 1 1 1-0.449 1-1-0.448-1-1-1zM24 17c0 0 0 0 0 0v0z"></path>
<path d="M18 21c0.552 0 1-0.449 1-1s-0.448-1-1-1-1 0.449-1 1 0.448 1 1 1zM18 19.999v0c0 0.001 0 0.001 0 0z"></path>
<path d="M21 19c-0.552 0-1 0.449-1 1s0.448 1 1 1 1-0.449 1-1-0.448-1-1-1zM21 20c0 0 0 0 0 0v0z"></path>
<path d="M24 19c-0.552 0-1 0.449-1 1s0.448 1 1 1 1-0.449 1-1-0.448-1-1-1zM24 20c0 0 0 0 0 0v0z"></path>
<path d="M18 24c0.552 0 1-0.449 1-1s-0.448-1-1-1-1 0.449-1 1 0.448 1 1 1zM18 22.999v0c0 0.001 0 0.001 0 0z"></path>
<path d="M21 22c-0.552 0-1 0.449-1 1s0.448 1 1 1 1-0.449 1-1-0.448-1-1-1zM21 23c0 0 0 0 0 0v0z"></path>
<path d="M24 22c-0.552 0-1 0.449-1 1s0.448 1 1 1 1-0.449 1-1-0.448-1-1-1zM24 23c0 0 0 0 0 0v0z"></path>
</svg>
