<svg version="1.1" xmlns="http://www.w3.org/2000/svg" width="32" height="32" viewBox="0 0 32 32">
<title>outdent</title>
<path d="M2.5 7h27c0.276 0 0.5-0.224 0.5-0.5s-0.224-0.5-0.5-0.5h-27c-0.276 0-0.5 0.224-0.5 0.5s0.224 0.5 0.5 0.5z"></path>
<path d="M29.5 11h-13c-0.276 0-0.5 0.224-0.5 0.5s0.224 0.5 0.5 0.5h13c0.276 0 0.5-0.224 0.5-0.5s-0.224-0.5-0.5-0.5z"></path>
<path d="M29.5 16h-13c-0.276 0-0.5 0.224-0.5 0.5s0.224 0.5 0.5 0.5h13c0.276 0 0.5-0.224 0.5-0.5s-0.224-0.5-0.5-0.5z"></path>
<path d="M29.5 21h-13c-0.276 0-0.5 0.224-0.5 0.5s0.224 0.5 0.5 0.5h13c0.276 0 0.5-0.224 0.5-0.5s-0.224-0.5-0.5-0.5z"></path>
<path d="M29.5 26h-27c-0.276 0-0.5 0.224-0.5 0.5s0.224 0.5 0.5 0.5h27c0.276 0 0.5-0.224 0.5-0.5s-0.224-0.5-0.5-0.5z"></path>
<path d="M8.9 13.2c-0.167-0.221-0.48-0.265-0.7-0.1l-4 3c-0.126 0.094-0.2 0.243-0.2 0.4s0.074 0.306 0.2 0.4l4 3c0.090 0.067 0.196 0.1 0.3 0.1 0.151 0 0.302-0.069 0.4-0.2 0.165-0.221 0.12-0.534-0.101-0.7l-3.467-2.6 3.468-2.6c0.221-0.166 0.265-0.479 0.1-0.7z"></path>
<path d="M12 11.5v10c0 0.276 0.224 0.5 0.5 0.5s0.5-0.224 0.5-0.5v-10c0-0.276-0.224-0.5-0.5-0.5s-0.5 0.224-0.5 0.5z"></path>
</svg>
