<svg version="1.1" xmlns="http://www.w3.org/2000/svg" width="32" height="32" viewBox="0 0 32 32">
<title>package</title>
<path d="M27.739 9.061l-11-6c-0.143-0.078-0.316-0.081-0.463-0.008l-12 6c-0.169 0.085-0.276 0.258-0.276 0.447v13c0 0.183 0.1 0.352 0.261 0.439l11 6c0.006 0.003 0.013 0.002 0.020 0.005 0.066 0.033 0.139 0.056 0.219 0.056 0.076 0 0.146-0.020 0.21-0.049 0.004-0.002 0.009-0.001 0.014-0.003l12-6c0.169-0.086 0.276-0.259 0.276-0.448v-13c0-0.183-0.1-0.352-0.261-0.439zM15.51 14.936l-4.43-2.417 10.91-5.455 4.43 2.417-10.91 5.455zM16.49 4.064l4.43 2.417-10.91 5.455-4.43-2.416 10.91-5.456zM5 10.342l10 5.455v11.861l-10-5.455v-11.861zM16 27.691v-11.882l11-5.5v11.882l-11 5.5z"></path>
<path d="M11.739 16.879l-3-1.637c-0.242-0.132-0.547-0.042-0.678 0.2-0.133 0.242-0.043 0.546 0.199 0.678l3 1.637c0.076 0.042 0.158 0.061 0.239 0.061 0.177 0 0.349-0.094 0.438-0.261 0.134-0.242 0.044-0.545-0.198-0.678z"></path>
</svg>
