<svg version="1.1" xmlns="http://www.w3.org/2000/svg" width="32" height="32" viewBox="0 0 32 32">
<title>padlock-unlock</title>
<path d="M23 12.871v-3.871c0-3.86-3.141-7-7-7-1.87 0-3.627 0.728-4.95 2.050-0.195 0.195-0.195 0.512 0 0.707s0.512 0.195 0.707 0c1.134-1.133 2.64-1.757 4.243-1.757 3.309 0 6 2.691 6 6v3.019c-1.674-1.261-3.748-2.019-6-2.019-5.514 0-10 4.486-10 10s4.486 10 10 10c5.514 0 10-4.486 10-10 0-2.79-1.151-5.314-3-7.129zM16 29c-4.962 0-9-4.038-9-9s4.038-9 9-9c4.963 0 9 4.038 9 9s-4.037 9-9 9z"></path>
<path d="M16 18.25c-0.414 0-0.75 0.336-0.75 0.75v2c0 0.414 0.336 0.75 0.75 0.75s0.75-0.336 0.75-0.75v-2c0-0.414-0.336-0.75-0.75-0.75z"></path>
</svg>
