<svg version="1.1" xmlns="http://www.w3.org/2000/svg" width="32" height="32" viewBox="0 0 32 32">
<title>padlock</title>
<path d="M23 12.871v-3.871c0-3.866-3.134-7-7-7s-7 3.134-7 7v0 3.871c-1.852 1.816-3 4.345-3 7.141 0 5.523 4.477 10 10 10s10-4.477 10-10c0-2.797-1.148-5.325-2.998-7.14l-0.002-0.002zM10 9c0-3.314 2.686-6 6-6s6 2.686 6 6v0 3.019c-1.647-1.26-3.735-2.019-6-2.019s-4.353 0.759-6.024 2.037l0.024-0.018zM16 29c-4.971 0-9-4.029-9-9s4.029-9 9-9c4.971 0 9 4.029 9 9v0c-0.006 4.968-4.032 8.994-8.999 9h-0.001z"></path>
<path d="M16 18.25c-0.414 0-0.75 0.336-0.75 0.75v0 2c0 0.414 0.336 0.75 0.75 0.75s0.75-0.336 0.75-0.75v0-2c0-0.414-0.336-0.75-0.75-0.75v0z"></path>
</svg>
