<svg version="1.1" xmlns="http://www.w3.org/2000/svg" width="32" height="32" viewBox="0 0 32 32">
<title>page-bottom</title>
<path d="M15.293 16.707c0.181 0.181 0.431 0.293 0.707 0.293s0.526-0.112 0.707-0.293l10-10c0.188-0.182 0.305-0.437 0.305-0.719 0-0.552-0.448-1-1-1-0.282 0-0.537 0.117-0.719 0.305l-9.293 9.293-9.293-9.293c-0.18-0.174-0.425-0.281-0.695-0.281-0.552 0-1 0.448-1 1 0 0.27 0.107 0.515 0.281 0.695l-0-0z"></path>
<path d="M26 25h-20c-0.552 0-1 0.448-1 1s0.448 1 1 1v0h20c0.552 0 1-0.448 1-1s-0.448-1-1-1v0z"></path>
</svg>
