<svg version="1.1" xmlns="http://www.w3.org/2000/svg" width="32" height="32" viewBox="0 0 32 32">
<title>page-top</title>
<path d="M16.707 15.293c-0.181-0.181-0.431-0.293-0.707-0.293s-0.526 0.112-0.707 0.293l-10 10c-0.174 0.18-0.281 0.425-0.281 0.695 0 0.552 0.448 1 1 1 0.27 0 0.515-0.107 0.695-0.281l9.293-9.293 9.293 9.293c0.18 0.174 0.425 0.281 0.695 0.281 0.552 0 1-0.448 1-1 0-0.27-0.107-0.515-0.281-0.695l0 0z"></path>
<path d="M6 7h20c0.552 0 1-0.448 1-1s-0.448-1-1-1v0h-20c-0.552 0-1 0.448-1 1s0.448 1 1 1v0z"></path>
</svg>
