<svg version="1.1" xmlns="http://www.w3.org/2000/svg" width="32" height="32" viewBox="0 0 32 32">
<title>page-first</title>
<path d="M17.414 16l9.293-9.293c0.188-0.182 0.305-0.437 0.305-0.719 0-0.552-0.448-1-1-1-0.282 0-0.537 0.117-0.719 0.305l-10 10c-0.181 0.181-0.293 0.431-0.293 0.707s0.112 0.526 0.293 0.707l10 10c0.18 0.174 0.425 0.281 0.695 0.281 0.552 0 1-0.448 1-1 0-0.27-0.107-0.515-0.281-0.695l0 0z"></path>
<path d="M6 5c-0.552 0-1 0.448-1 1v0 20c0 0.552 0.448 1 1 1s1-0.448 1-1v0-20c0-0.552-0.448-1-1-1v0z"></path>
</svg>
