<svg version="1.1" xmlns="http://www.w3.org/2000/svg" width="32" height="32" viewBox="0 0 32 32">
<title>paint-brush</title>
<path d="M28.319 4.284c-0.244 0.095-6.058 2.398-12.758 9.099-2.276 2.276-4.38 4.901-5.335 6.938-0.126-0.025-0.249-0.060-0.379-0.071-0.908-0.075-1.795 0.2-2.493 0.786-0.604 0.506-1.016 1.211-1.162 1.987-0.101 0.549-0.394 1.052-0.826 1.415-0.507 0.426-1.154 0.621-1.812 0.55-0.215-0.021-0.411 0.089-0.503 0.278s-0.057 0.416 0.091 0.567c1.23 1.266 2.884 1.909 4.544 1.909 1.441 0 2.887-0.486 4.061-1.471 0.973-0.816 1.36-2.062 1.148-3.231 0.364-0.169 0.746-0.365 1.17-0.622 1.757-1.064 3.818-2.744 5.803-4.729 6.7-6.701 9.004-12.513 9.099-12.757 0.072-0.185 0.028-0.395-0.112-0.535-0.142-0.141-0.352-0.185-0.536-0.113zM11.104 25.505c-1.825 1.531-4.429 1.628-6.353 0.368 0.456-0.129 0.884-0.355 1.258-0.669 0.61-0.512 1.025-1.223 1.167-1.998 0.104-0.555 0.389-1.040 0.821-1.403 0.495-0.414 1.118-0.614 1.764-0.556 0.643 0.056 1.226 0.36 1.641 0.854 0.855 1.020 0.722 2.547-0.298 3.404zM13.546 21.562c-0.372 0.225-0.681 0.386-0.966 0.524-0.113-0.22-0.247-0.432-0.413-0.629-0.281-0.335-0.62-0.604-0.993-0.807 0.5-1.010 1.39-2.373 2.725-3.972l2.67 2.669c-1.058 0.885-2.088 1.649-3.023 2.215zM19.16 16.981c-0.609 0.609-1.222 1.173-1.832 1.712l-2.776-2.775c0.518-0.586 1.081-1.193 1.716-1.829 4.778-4.778 9.17-7.299 11.211-8.319-1.020 2.042-3.541 6.433-8.319 11.211z"></path>
</svg>
