<svg version="1.1" xmlns="http://www.w3.org/2000/svg" width="32" height="32" viewBox="0 0 32 32">
<title>paperclip</title>
<path d="M10.165 3.992c1.357 0 2.687 0.55 3.646 1.51l13.343 13.343c0.195 0.195 0.512 0.195 0.707 0s0.195-0.512 0-0.707l-13.342-13.343c-1.146-1.146-2.732-1.803-4.354-1.803-3.396 0-6.157 2.762-6.157 6.157 0 1.644 0.641 3.19 1.804 4.354l14.222 14.221c0.828 0.829 1.931 1.285 3.103 1.285h0.001c1.173 0 2.274-0.457 3.104-1.286 1.711-1.711 1.711-4.496 0-6.207l-13.76-13.757c-0.495-0.495-1.153-0.767-1.854-0.767-1.444 0-2.62 1.176-2.62 2.622 0 0.7 0.272 1.357 0.768 1.853l13.379 13.379c0.195 0.195 0.512 0.195 0.707 0s0.195-0.512 0-0.707l-13.38-13.38c-0.306-0.306-0.475-0.714-0.475-1.147 0-0.893 0.728-1.62 1.622-1.62 0.433 0 0.84 0.168 1.146 0.474l13.758 13.756c1.321 1.321 1.321 3.471 0 4.793-0.641 0.64-1.491 0.993-2.396 0.993h-0.001c-0.905 0-1.756-0.352-2.396-0.992l-14.221-14.221c-0.975-0.975-1.511-2.27-1.511-3.646 0-2.844 2.313-5.157 5.157-5.157z"></path>
</svg>
