<svg version="1.1" xmlns="http://www.w3.org/2000/svg" width="32" height="32" viewBox="0 0 32 32">
<title>paste</title>
<path d="M14.5 29h-6.5c-1.105 0-2-0.895-2-2v0-20c0-1.105 0.895-2 2-2v0h3v2.5c0 0.276 0.224 0.5 0.5 0.5v0h9c0.276 0 0.5-0.224 0.5-0.5v0-2.5h3c1.105 0 2 0.895 2 2v0 7.5c0 0.276 0.224 0.5 0.5 0.5s0.5-0.224 0.5-0.5v0-7.5c0-1.657-1.343-3-3-3v0h-5.172c-0.424-1.175-1.53-2-2.829-2s-2.404 0.825-2.822 1.979l-0.007 0.021h-5.171c-1.657 0-3 1.343-3 3v0 20c0 1.657 1.343 3 3 3v0h6.5c0.276 0 0.5-0.224 0.5-0.5s-0.224-0.5-0.5-0.5v0zM12 5h1.55c0 0 0 0 0 0 0.241 0 0.442-0.17 0.489-0.397l0.001-0.003c0.193-0.919 0.997-1.6 1.96-1.6s1.767 0.68 1.957 1.587l0.002 0.013c0.048 0.23 0.249 0.4 0.49 0.4 0 0 0 0 0 0h1.551v2h-8z"></path>
<path d="M27.561 21.854l-3.415-3.415c-0.271-0.271-0.646-0.439-1.060-0.439h-3.086c-0.552 0-1 0.448-1 1v0 9c0 0.552 0.448 1 1 1v0h7c0.552 0 1-0.448 1-1v0-5.086c-0-0.414-0.168-0.789-0.439-1.060v0zM24 19.707l2.293 2.293h-2.293zM27 28h-7v-9h3v3c0 0.552 0.448 1 1 1v0h3z"></path>
</svg>
