<svg version="1.1" xmlns="http://www.w3.org/2000/svg" width="32" height="32" viewBox="0 0 32 32">
<title>paw</title>
<path d="M11.101 11.646c0.409 0.235 0.834 0.355 1.255 0.355 0.21 0 0.42-0.030 0.626-0.090 1.577-0.462 2.394-2.535 1.857-4.719-0.307-1.253-1.032-2.314-1.939-2.837-0.613-0.353-1.264-0.445-1.881-0.265-1.578 0.462-2.394 2.535-1.858 4.719 0.307 1.253 1.032 2.314 1.94 2.837zM11.3 5.049c0.117-0.034 0.231-0.049 0.341-0.049 0.303 0 0.569 0.11 0.76 0.22 0.676 0.389 1.225 1.215 1.468 2.209 0.395 1.607-0.141 3.22-1.168 3.521-0.439 0.13-0.841-0.022-1.101-0.171-0.676-0.389-1.225-1.215-1.468-2.209-0.395-1.607 0.14-3.22 1.168-3.521z"></path>
<path d="M9.913 15.294c0.216-0.812 0.027-1.747-0.517-2.564-0.991-1.493-2.815-2.14-4.146-1.47-0.58 0.291-0.993 0.804-1.164 1.446-0.216 0.812-0.027 1.747 0.517 2.564 0.727 1.094 1.899 1.733 2.999 1.733 0.4 0 0.791-0.084 1.146-0.263 0.581-0.29 0.994-0.804 1.165-1.446zM8.302 15.847c-0.861 0.431-2.172-0.087-2.866-1.13-0.385-0.579-0.524-1.218-0.382-1.754 0.097-0.366 0.32-0.646 0.645-0.809 0.207-0.103 0.439-0.152 0.683-0.152 0.771 0 1.656 0.489 2.184 1.282 0.385 0.579 0.524 1.218 0.382 1.754-0.098 0.366-0.322 0.646-0.646 0.809z"></path>
<path d="M27.913 12.706c-0.171-0.642-0.584-1.156-1.164-1.446-1.332-0.669-3.153-0.022-4.146 1.47-0.544 0.817-0.732 1.752-0.517 2.564 0.171 0.642 0.584 1.156 1.164 1.446 0.355 0.179 0.746 0.263 1.146 0.263 1.099 0 2.272-0.639 2.999-1.733 0.545-0.817 0.734-1.752 0.518-2.564zM26.564 14.716c-0.693 1.043-2.002 1.561-2.866 1.13-0.324-0.163-0.548-0.443-0.645-0.809-0.143-0.536-0.003-1.175 0.382-1.754 0.527-0.793 1.412-1.282 2.184-1.282 0.243 0 0.476 0.049 0.683 0.152 0.324 0.163 0.548 0.443 0.645 0.809 0.142 0.536 0.002 1.175-0.383 1.754z"></path>
<path d="M20.177 16.051c-1.003-1.303-2.526-2.051-4.177-2.051s-3.174 0.748-4.177 2.051l-2.734 3.554c-1.218 1.583-1.427 3.677-0.546 5.466 0.89 1.807 2.699 2.929 4.723 2.929h5.469c2.023 0 3.833-1.122 4.723-2.929 0.881-1.789 0.672-3.883-0.546-5.466l-2.735-3.554zM22.56 24.63c-0.73 1.484-2.16 2.37-3.825 2.37h-5.469c-1.665 0-3.095-0.886-3.825-2.37-0.723-1.467-0.558-3.117 0.441-4.415l2.734-3.554c0.813-1.056 2.046-1.661 3.384-1.661s2.571 0.605 3.384 1.661l2.734 3.554c0.999 1.298 1.164 2.948 0.442 4.415z"></path>
<path d="M19.019 11.911c0.206 0.060 0.416 0.090 0.626 0.090 0.421 0 0.846-0.12 1.255-0.355 0.907-0.523 1.633-1.584 1.939-2.837 0.536-2.184-0.28-4.257-1.857-4.719-0.62-0.181-1.269-0.088-1.881 0.265-0.907 0.523-1.633 1.584-1.939 2.837-0.537 2.183 0.279 4.256 1.857 4.719zM18.132 7.43c0.243-0.994 0.792-1.82 1.468-2.209 0.19-0.11 0.457-0.221 0.759-0.221 0.109 0 0.224 0.015 0.341 0.049 1.027 0.301 1.562 1.914 1.168 3.521-0.243 0.994-0.792 1.82-1.468 2.209-0.259 0.149-0.659 0.3-1.101 0.171-1.027-0.3-1.562-1.913-1.167-3.52z"></path>
</svg>
