<svg version="1.1" xmlns="http://www.w3.org/2000/svg" width="32" height="32" viewBox="0 0 32 32">
<title>pencil-square</title>
<path d="M26.5 4h-21c-0.827 0-1.5 0.673-1.5 1.5v21c0 0.827 0.673 1.5 1.5 1.5h21c0.827 0 1.5-0.673 1.5-1.5v-21c0-0.827-0.673-1.5-1.5-1.5zM11.272 22.673l-2.549 1.274c-0.071 0.036-0.147 0.053-0.223 0.053-0.13 0-0.258-0.050-0.354-0.146-0.152-0.152-0.19-0.385-0.094-0.577l1.274-2.548c0.186-0.371 0.399-0.724 0.625-1.069l2.388 2.389c-0.343 0.225-0.696 0.438-1.067 0.624zM14.001 20.706c-0.266 0.266-0.55 0.511-0.842 0.746l-2.611-2.611c0.235-0.292 0.48-0.576 0.746-0.842l7.999-7.999 2.707 2.707-7.999 7.999zM23.44 11.267l-0.733 0.733-2.707-2.707 0.733-0.733c0.361-0.361 0.841-0.56 1.351-0.56 1.060 0 1.916 0.857 1.916 1.91 0 0.516-0.198 0.996-0.56 1.357z"></path>
</svg>
