<svg version="1.1" xmlns="http://www.w3.org/2000/svg" width="32" height="32" viewBox="0 0 32 32">
<title>pencil</title>
<path d="M25.378 4c-0.7 0-1.358 0.272-1.853 0.768l-17.088 17.088c-0.24 0.24-0.427 0.523-0.553 0.839l-1.848 4.619c-0.074 0.186-0.031 0.397 0.11 0.539 0.096 0.096 0.224 0.147 0.354 0.147 0.062 0 0.126-0.012 0.186-0.036l4.619-1.848c0.316-0.127 0.599-0.313 0.839-0.553l17.088-17.088c0.496-0.496 0.768-1.155 0.768-1.855 0-1.445-1.176-2.62-2.622-2.62zM22.5 7.207l2.293 2.293-0.793 0.793-2.293-2.293 0.793-0.793zM6.683 23.39l1.928 1.928-3.213 1.285 1.285-3.213zM9.5 24.793l-2.293-2.293 13.793-13.793 2.293 2.293-13.793 13.793zM26.525 7.768l-1.025 1.025-2.293-2.293 1.025-1.025c0.306-0.307 0.713-0.475 1.148-0.475 0.893 0 1.62 0.728 1.62 1.622 0 0.432-0.169 0.839-0.475 1.146z"></path>
</svg>
