<svg version="1.1" xmlns="http://www.w3.org/2000/svg" width="32" height="32" viewBox="0 0 32 32">
<title>pencil-square-o</title>
<path d="M9.884 18.696l-1.848 4.619c-0.074 0.186-0.031 0.397 0.11 0.539 0.096 0.095 0.224 0.146 0.354 0.146 0.062 0 0.126-0.012 0.186-0.036l4.619-1.848c0.316-0.127 0.599-0.313 0.839-0.553l13.088-13.088c0.496-0.496 0.768-1.155 0.768-1.855 0-1.445-1.176-2.62-2.622-2.62-0.7 0-1.358 0.272-1.853 0.768l-13.088 13.088c-0.241 0.241-0.427 0.523-0.553 0.84zM10.683 19.39l1.928 1.928-3.213 1.285 1.285-3.213zM13.5 20.793l-2.293-2.293 11.293-11.293 2.293 2.293-11.293 11.293zM24.232 5.475c0.306-0.307 0.713-0.475 1.148-0.475 0.893 0 1.62 0.728 1.62 1.622 0 0.432-0.169 0.839-0.475 1.146l-1.025 1.025-2.293-2.293 1.025-1.025z"></path>
<path d="M27.5 13c-0.276 0-0.5 0.224-0.5 0.5v13c0 0.276-0.225 0.5-0.5 0.5h-21c-0.275 0-0.5-0.224-0.5-0.5v-21c0-0.276 0.225-0.5 0.5-0.5h13c0.276 0 0.5-0.224 0.5-0.5s-0.224-0.5-0.5-0.5h-13c-0.827 0-1.5 0.673-1.5 1.5v21c0 0.827 0.673 1.5 1.5 1.5h21c0.827 0 1.5-0.673 1.5-1.5v-13c0-0.276-0.224-0.5-0.5-0.5z"></path>
</svg>
