<svg version="1.1" xmlns="http://www.w3.org/2000/svg" width="32" height="32" viewBox="0 0 32 32">
<title>percent</title>
<path d="M13 10c0-2.757-2.019-5-4.5-5s-4.5 2.243-4.5 5 2.019 5 4.5 5 4.5-2.243 4.5-5zM5 10c0-2.206 1.57-4 3.5-4s3.5 1.794 3.5 4-1.57 4-3.5 4-3.5-1.794-3.5-4z"></path>
<path d="M23.5 17c-2.481 0-4.5 2.243-4.5 5s2.019 5 4.5 5 4.5-2.243 4.5-5-2.019-5-4.5-5zM23.5 26c-1.93 0-3.5-1.794-3.5-4s1.57-4 3.5-4 3.5 1.794 3.5 4-1.57 4-3.5 4z"></path>
<path d="M23.773 4.081c-0.232-0.149-0.541-0.085-0.692 0.146l-15 23c-0.15 0.231-0.086 0.541 0.146 0.692 0.085 0.055 0.179 0.081 0.273 0.081 0.163 0 0.323-0.080 0.419-0.227l15-23c0.15-0.231 0.086-0.541-0.146-0.692z"></path>
</svg>
