<svg version="1.1" xmlns="http://www.w3.org/2000/svg" width="32" height="32" viewBox="0 0 32 32">
<title>phone-square</title>
<path d="M26.5 4h-21c-0.827 0-1.5 0.673-1.5 1.5v21c0 0.827 0.673 1.5 1.5 1.5h21c0.827 0 1.5-0.673 1.5-1.5v-21c0-0.827-0.673-1.5-1.5-1.5zM22.854 21.398l-0.737 0.737c-0.558 0.558-1.294 0.865-2.055 0.865-0.093 0-0.187-0.005-0.28-0.014-5.671-0.568-10.199-5.098-10.768-10.769-0.087-0.856 0.223-1.707 0.85-2.333l0.737-0.737c0.094-0.094 0.221-0.147 0.354-0.147s0.26 0.053 0.354 0.146l2.717 2.717c0.195 0.195 0.195 0.511 0 0.707l-2.050 2.055c1.698 2.321 3.094 3.715 5.422 5.413l2.029-2.061c0.094-0.096 0.193-0.167 0.356-0.149 0.133 0 0.26 0.053 0.354 0.146l2.717 2.717c0.195 0.196 0.195 0.512 0 0.707z"></path>
</svg>
