<svg version="1.1" xmlns="http://www.w3.org/2000/svg" width="32" height="32" viewBox="0 0 32 32">
<title>phone</title>
<path d="M22.151 27c-0.138 0-0.276-0.007-0.415-0.021-8.804-0.882-15.834-7.913-16.716-16.716-0.127-1.265 0.332-2.52 1.258-3.445l1.671-1.671c0.188-0.188 0.52-0.188 0.707 0l5.746 5.747c0.195 0.195 0.195 0.511 0 0.707l-3.212 3.219c1.48 2.471 3.554 4.539 6.029 6.013l3.178-3.231c0.094-0.095 0.221-0.149 0.354-0.149 0.001 0 0.001 0 0.002 0 0.133 0 0.26 0.053 0.354 0.146l5.746 5.747c0.195 0.195 0.195 0.512 0 0.707l-1.671 1.671c-0.825 0.822-1.911 1.276-3.031 1.276zM8.303 6.207l-1.318 1.318c-0.713 0.712-1.066 1.674-0.971 2.639 0.836 8.332 7.489 14.986 15.821 15.821 0.975 0.098 1.927-0.256 2.64-0.969l1.317-1.318-5.036-5.037-3.096 3.149c-0.158 0.161-0.405 0.196-0.603 0.084-2.889-1.636-5.284-4.024-6.928-6.909-0.111-0.196-0.078-0.441 0.081-0.601l3.131-3.138-5.038-5.039z"></path>
</svg>
