<svg version="1.1" xmlns="http://www.w3.org/2000/svg" width="32" height="32" viewBox="0 0 32 32">
<title>picture-o</title>
<path d="M25.89 13.149c-0.094-0.094-0.221-0.149-0.354-0.149-0.001 0-0.002 0-0.003 0-0.132 0-0.259 0.052-0.353 0.146l-6.173 6.154-3.153-3.153c-0.195-0.195-0.512-0.195-0.707 0l-7 7c-0.195 0.195-0.195 0.512 0 0.707 0.097 0.097 0.225 0.146 0.353 0.146s0.256-0.049 0.354-0.146l6.646-6.646 2.798 2.798-3.151 3.141c-0.196 0.195-0.196 0.511-0.002 0.707 0.098 0.097 0.227 0.146 0.355 0.146s0.256-0.049 0.353-0.146l9.677-9.645 1.614 1.641c0.194 0.198 0.51 0.199 0.707 0.006s0.199-0.51 0.006-0.707l-1.967-2z"></path>
<path d="M12.167 12.533c0-1.709-1.391-3.1-3.101-3.1-1.709 0-3.1 1.391-3.1 3.1s1.391 3.1 3.1 3.1c1.71 0 3.101-1.39 3.101-3.1zM6.967 12.533c0-1.158 0.941-2.1 2.1-2.1s2.101 0.942 2.101 2.1-0.942 2.1-2.101 2.1-2.1-0.942-2.1-2.1z"></path>
<path d="M28.5 6h-25c-0.827 0-1.5 0.673-1.5 1.5v17c0 0.827 0.673 1.5 1.5 1.5h25c0.827 0 1.5-0.673 1.5-1.5v-17c0-0.827-0.673-1.5-1.5-1.5zM29 24.5c0 0.276-0.225 0.5-0.5 0.5h-25c-0.275 0-0.5-0.224-0.5-0.5v-17c0-0.276 0.225-0.5 0.5-0.5h25c0.275 0 0.5 0.224 0.5 0.5v17z"></path>
</svg>
