<svg version="1.1" xmlns="http://www.w3.org/2000/svg" width="32" height="32" viewBox="0 0 32 32">
<title>pie-chart</title>
<path d="M26.5 16.941h-11.5v-11.5c0-0.276-0.224-0.5-0.5-0.5v0c-6.904 0-12.5 5.596-12.5 12.5s5.596 12.5 12.5 12.5c6.904 0 12.5-5.596 12.5-12.5v0c0-0.276-0.224-0.5-0.5-0.5v0zM14 5.952v11.282l-7.965 7.966c-1.882-2.038-3.036-4.773-3.036-7.778 0-6.172 4.871-11.206 10.978-11.469l0.024-0.001zM6.742 25.905l7.758-7.757 7.76 7.76c-2.032 1.881-4.761 3.034-7.759 3.034s-5.727-1.154-7.767-3.041l0.008 0.007zM22.966 25.2l-7.259-7.259h10.282c-0.128 2.816-1.254 5.346-3.030 7.267l0.007-0.008z"></path>
<path d="M17.5 2.047c-0.276 0-0.5 0.224-0.5 0.5v0 12c0 0.276 0.224 0.5 0.5 0.5v0h12c0.276 0 0.5-0.224 0.5-0.5v0c-0.008-6.9-5.6-12.492-12.499-12.5h-0.001zM18 14.047v-10.989c5.955 0.275 10.714 5.034 10.988 10.964l0.001 0.025z"></path>
</svg>
