<svg version="1.1" xmlns="http://www.w3.org/2000/svg" width="32" height="32" viewBox="0 0 32 32">
<title>plane</title>
<path d="M29.276 14.829l-2.708-1.354c-0.622-0.311-1.317-0.475-2.012-0.475h-3.734l-0.909-2h0.587c0.827 0 1.5-0.673 1.5-1.5v-1c0-0.827-0.673-1.5-1.5-1.5h-2.405l-1.873-4.121c-0.243-0.534-0.779-0.879-1.366-0.879h-2.030c-0.476 0-0.912 0.218-1.198 0.597s-0.375 0.859-0.244 1.315l1.328 4.648c0.191 0.67 0.288 1.363 0.288 2.060v2.38h-1.851c-0.484 0-0.964 0.078-1.424 0.231l-1.242 0.414-2.583-3.445c-0.094-0.126-0.243-0.2-0.4-0.2h-3c-0.166 0-0.321 0.082-0.414 0.22s-0.111 0.312-0.050 0.466l1.964 4.909v0.809l-1.964 4.91c-0.062 0.154-0.043 0.329 0.050 0.466 0.093 0.138 0.248 0.22 0.414 0.22h3c0.157 0 0.306-0.074 0.4-0.2l2.584-3.445 1.242 0.414c0.46 0.153 0.939 0.231 1.423 0.231h1.851v2.38c0 0.697-0.097 1.39-0.288 2.060l-1.328 4.648c-0.131 0.457-0.042 0.936 0.244 1.315s0.723 0.597 1.198 0.597h2.030c0.587 0 1.123-0.345 1.365-0.879l1.874-4.121h2.405c0.827 0 1.5-0.673 1.5-1.5v-1c0-0.827-0.673-1.5-1.5-1.5h-0.587l0.909-2h3.734c0.695 0 1.391-0.164 2.013-0.475l2.708-1.354c0.446-0.223 0.723-0.672 0.723-1.171s-0.277-0.948-0.724-1.171zM20.5 8c0.275 0 0.5 0.224 0.5 0.5v1c0 0.276-0.225 0.5-0.5 0.5h-1.042l-0.909-2h1.951zM13.673 8.285l-1.328-4.648c-0.043-0.152-0.014-0.312 0.082-0.438 0.094-0.126 0.241-0.199 0.399-0.199h2.030c0.195 0 0.374 0.115 0.455 0.293l4.413 9.707h-5.724v-2.38c0-0.79-0.11-1.575-0.327-2.335zM5.25 11l2.233 2.978-2.695 0.898-1.55-3.876h2.012zM5.25 21h-2.012l1.551-3.877 2.695 0.898-2.234 2.979zM20.5 22c0.275 0 0.5 0.224 0.5 0.5v1c0 0.276-0.225 0.5-0.5 0.5h-1.951l0.909-2h1.042zM15.312 28.707c-0.082 0.178-0.26 0.293-0.456 0.293h-2.030c-0.158 0-0.305-0.073-0.399-0.199-0.096-0.126-0.125-0.286-0.082-0.438l1.328-4.648c0.217-0.76 0.327-1.545 0.327-2.335v-2.38h5.724l-4.412 9.707zM28.829 16.276l-2.708 1.354c-0.483 0.242-1.025 0.37-1.565 0.37h-13.407c-0.377 0-0.75-0.060-1.107-0.18l-5.042-1.68v-0.28l5.042-1.681c0.357-0.119 0.73-0.18 1.107-0.18h13.406c0.54 0 1.082 0.128 1.565 0.37l2.708 1.354c0.107 0.053 0.172 0.159 0.172 0.277s-0.065 0.224-0.171 0.276z"></path>
</svg>
