<svg version="1.1" xmlns="http://www.w3.org/2000/svg" width="32" height="32" viewBox="0 0 32 32">
<title>play-circle-o</title>
<path d="M16 4c-6.617 0-12 5.383-12 12s5.383 12 12 12 12-5.383 12-12-5.383-12-12-12zM16 27c-6.065 0-11-4.935-11-11s4.935-11 11-11 11 4.935 11 11-4.935 11-11 11z"></path>
<path d="M20.724 15.553l-7-3.5c-0.155-0.078-0.34-0.069-0.486 0.022-0.148 0.091-0.238 0.252-0.238 0.425v7c0 0.173 0.090 0.334 0.237 0.425 0.080 0.050 0.171 0.075 0.263 0.075 0.076 0 0.153-0.018 0.224-0.053l7-3.5c0.169-0.085 0.276-0.258 0.276-0.447s-0.107-0.363-0.276-0.447z"></path>
</svg>
