<svg version="1.1" xmlns="http://www.w3.org/2000/svg" width="32" height="32" viewBox="0 0 32 32">
<title>plug</title>
<path d="M29.854 9.146c-0.091-0.091-0.216-0.147-0.354-0.147s-0.263 0.056-0.354 0.147v0l-5.646 5.647-6.293-6.293 5.647-5.646c0.091-0.091 0.147-0.216 0.147-0.354 0-0.276-0.224-0.501-0.501-0.501-0.138 0-0.263 0.056-0.354 0.147l-5.646 5.647-2.646-2.647c-0.091-0.091-0.216-0.147-0.354-0.147-0.277 0-0.501 0.224-0.501 0.501 0 0.138 0.056 0.263 0.147 0.354v0l0.647 0.646-5.964 5.965c-0.904 0.905-1.464 2.155-1.464 3.535s0.559 2.63 1.464 3.535l1.964 1.965-5.647 5.646c-0.091 0.091-0.147 0.216-0.147 0.354 0 0.276 0.224 0.501 0.501 0.501 0.138 0 0.263-0.056 0.354-0.147l5.646-5.647 1.964 1.965c0.905 0.903 2.155 1.462 3.536 1.462s2.63-0.559 3.536-1.462l5.965-5.965 0.646 0.647c0.091 0.091 0.216 0.147 0.354 0.147 0.276 0 0.501-0.224 0.501-0.501 0-0.138-0.056-0.263-0.147-0.354l-2.647-2.646 5.647-5.646c0.091-0.091 0.147-0.216 0.147-0.354s-0.056-0.263-0.147-0.354v0zM18.828 23.465c-0.725 0.722-1.724 1.168-2.829 1.168s-2.104-0.446-2.829-1.168l-4.635-4.637c-0.724-0.724-1.171-1.724-1.171-2.828s0.448-2.104 1.171-2.828l5.964-5.965 10.293 10.293z"></path>
</svg>
