<svg version="1.1" xmlns="http://www.w3.org/2000/svg" width="32" height="32" viewBox="0 0 32 32">
<title>plus-circle-o</title>
<path d="M16 2c-7.732 0-14 6.268-14 14s6.268 14 14 14c7.732 0 14-6.268 14-14v0c-0.009-7.729-6.271-13.991-13.999-14h-0.001zM16 29c-7.18 0-13-5.82-13-13s5.82-13 13-13c7.18 0 13 5.82 13 13v0c-0.009 7.176-5.824 12.991-12.999 13h-0.001z"></path>
<path d="M21 15h-4v-4c0-0.552-0.448-1-1-1s-1 0.448-1 1v0 4h-4c-0.552 0-1 0.448-1 1s0.448 1 1 1v0h4v4c0 0.552 0.448 1 1 1s1-0.448 1-1v0-4h4c0.552 0 1-0.448 1-1s-0.448-1-1-1v0z"></path>
</svg>
