<svg version="1.1" xmlns="http://www.w3.org/2000/svg" width="32" height="32" viewBox="0 0 32 32">
<title>podcast</title>
<path d="M21.411 23.129c-1.594-0.71-3.454-1.123-5.411-1.123s-3.817 0.413-5.498 1.157l0.087-0.034c-0.944 0.425-1.589 1.358-1.589 2.441 0 0.003 0 0.005 0 0.008v-0 2.922c0 0.276 0.224 0.5 0.5 0.5v0h13c0.276 0 0.5-0.224 0.5-0.5v0-2.923c0-0.002 0-0.005 0-0.008 0-1.083-0.645-2.015-1.572-2.433l-0.017-0.007zM22 28h-12v-2.422c0-0.003-0-0.006-0-0.009 0-0.676 0.402-1.258 0.981-1.52l0.011-0.004c1.476-0.657 3.198-1.040 5.010-1.040s3.534 0.383 5.090 1.072l-0.080-0.032c0.588 0.266 0.99 0.848 0.99 1.524 0 0.003 0 0.006-0 0.008v-0z"></path>
<path d="M20 17c0-2.209-1.791-4-4-4s-4 1.791-4 4c0 2.209 1.791 4 4 4v0c2.209 0 4-1.791 4-4v0zM13 17c0-1.657 1.343-3 3-3s3 1.343 3 3c0 1.657-1.343 3-3 3v0c-1.657 0-3-1.343-3-3v0z"></path>
<path d="M16 8c-0.007-0-0.015-0-0.023-0-2.478 0-4.721 1.008-6.34 2.637l-0 0c-1.623 1.635-2.626 3.886-2.626 6.373 0 1.339 0.291 2.61 0.813 3.753l-0.023-0.057c0.080 0.175 0.254 0.294 0.456 0.294 0.276 0 0.5-0.224 0.5-0.5 0-0.075-0.016-0.145-0.046-0.209l0.001 0.003c-0.443-0.965-0.701-2.094-0.701-3.283 0-2.211 0.892-4.213 2.336-5.667l-0 0c1.448-1.448 3.448-2.343 5.657-2.343s4.209 0.896 5.657 2.343v0c1.444 1.453 2.336 3.456 2.336 5.667 0 1.189-0.258 2.318-0.721 3.334l0.021-0.050c-0.028 0.061-0.044 0.131-0.044 0.206 0 0.276 0.224 0.5 0.5 0.5 0.202 0 0.376-0.119 0.455-0.291l0.001-0.003c0.498-1.086 0.788-2.356 0.788-3.694 0-2.488-1.004-4.74-2.629-6.376l0 0c-1.62-1.629-3.863-2.637-6.341-2.637-0.010 0-0.019 0-0.029 0h0.001z"></path>
<path d="M25.9 7.1c-2.534-2.539-6.038-4.11-9.909-4.11-7.732 0-14 6.268-14 14 0 2.904 0.884 5.601 2.398 7.838l-0.031-0.049c0.091 0.135 0.243 0.222 0.416 0.222 0 0 0 0 0 0h-0c0.001 0 0.001 0 0.002 0 0.103 0 0.199-0.032 0.278-0.086l-0.002 0.001c0.134-0.091 0.221-0.243 0.221-0.415 0-0.104-0.032-0.2-0.085-0.28l0.001 0.002c-1.371-2.028-2.188-4.528-2.188-7.218 0-7.18 5.82-13 13-13s13 5.82 13 13c0 2.691-0.817 5.19-2.217 7.264l0.029-0.046c-0.050 0.076-0.080 0.17-0.080 0.271 0 0.276 0.224 0.5 0.5 0.5 0.169 0 0.319-0.084 0.41-0.213l0.001-0.002c1.474-2.185 2.352-4.877 2.352-7.774 0-3.866-1.565-7.367-4.096-9.904l0 0z"></path>
</svg>
