<svg id="Layer_1" data-name="Layer 1" xmlns="http://www.w3.org/2000/svg" width="32" height="32" viewBox="0 0 32 32"><path d="M29.906,11.208A.5.5,0,0,0,29.5,11H7V9a4,4,0,0,1,4-4h2.051a2.5,2.5,0,1,0,0-1H11A5.006,5.006,0,0,0,6,9v2H2.5a.5.5,0,0,0-.474.658l4,12A.5.5,0,0,0,6.5,24H11v5.5a.5.5,0,0,0,1,0V17h8V29.5a.5.5,0,0,0,1,0V24h4.5a.5.5,0,0,0,.474-.342l4-12A.5.5,0,0,0,29.906,11.208ZM15.5,3A1.5,1.5,0,1,1,14,4.5,1.5,1.5,0,0,1,15.5,3Zm9.64,20H21V16.5a.5.5,0,0,0-.5-.5h-9a.5.5,0,0,0-.5.5V23H6.86L3.194,12H28.806Z"/></svg>