<svg version="1.1" xmlns="http://www.w3.org/2000/svg" width="32" height="32" viewBox="0 0 32 32">
<title>polar-chart</title>
<path d="M29.5 16h-4.525c-0.288-7.227-6.207-12.979-13.473-13h-0.002c-0.276 0-0.5 0.224-0.5 0.5v0 3.525c-5.030 0.266-9.008 4.409-9.008 9.482 0 5.243 4.251 9.494 9.494 9.494 2.466 0 4.713-0.94 6.401-2.482l-0.007 0.007 5.989 5.932c0.090 0.088 0.214 0.143 0.35 0.143s0.26-0.055 0.35-0.143l-0 0c3.353-3.288 5.431-7.865 5.431-12.927 0-0.011 0-0.021-0-0.032v0.002c0-0.276-0.224-0.5-0.5-0.5v0zM23.99 16h-11.99v-11.648c0-0.031 0.021-0.056 0.019-0.088-0.006-0.028-0.012-0.052-0.020-0.075l0.001 0.004v-0.182c6.504 0.285 11.705 5.485 11.989 11.963l0.001 0.026zM11.5 25c-4.69-0.003-8.49-3.805-8.49-8.495 0-4.514 3.521-8.206 7.966-8.479l0.024-0.001v8.475c0 0.018 0.011 0.021 0.016 0.030 0.002 0.126 0.052 0.24 0.132 0.325l-0-0 6.021 5.965c-1.489 1.352-3.476 2.18-5.656 2.18-0.004 0-0.009 0-0.013 0h0.001zM24.216 28.392l-11.501-11.392h16.278c-0.125 4.438-1.923 8.433-4.782 11.397l0.005-0.005z"></path>
</svg>
