<svg version="1.1" xmlns="http://www.w3.org/2000/svg" width="32" height="32" viewBox="0 0 32 32">
<title>power-off</title>
<path d="M16.5 14c0.276 0 0.5-0.224 0.5-0.5v-10c0-0.276-0.224-0.5-0.5-0.5s-0.5 0.224-0.5 0.5v10c0 0.276 0.224 0.5 0.5 0.5z"></path>
<path d="M19.636 5.445c-0.263-0.079-0.542 0.079-0.617 0.345s0.080 0.542 0.346 0.617c4.495 1.272 7.635 5.422 7.635 10.093 0 5.79-4.71 10.5-10.5 10.5s-10.5-4.71-10.5-10.5c0-4.671 3.14-8.821 7.636-10.093 0.266-0.075 0.421-0.352 0.346-0.617s-0.354-0.422-0.617-0.345c-4.926 1.393-8.365 5.939-8.365 11.055 0 6.341 5.159 11.5 11.5 11.5s11.5-5.159 11.5-11.5c0-5.116-3.439-9.662-8.364-11.055z"></path>
</svg>
