<svg version="1.1" xmlns="http://www.w3.org/2000/svg" width="32" height="32" viewBox="0 0 32 32">
<title>pragma</title>
<path d="M27.5 20h-6.5v-8h6.5c0.276 0 0.5-0.224 0.5-0.5s-0.224-0.5-0.5-0.5h-6.5v-6.5c0-0.276-0.224-0.5-0.5-0.5s-0.5 0.224-0.5 0.5v6.5h-8v-6.5c0-0.276-0.224-0.5-0.5-0.5s-0.5 0.224-0.5 0.5v6.5h-6.5c-0.276 0-0.5 0.224-0.5 0.5s0.224 0.5 0.5 0.5h6.5v8h-6.5c-0.276 0-0.5 0.224-0.5 0.5s0.224 0.5 0.5 0.5h6.5v6.5c0 0.276 0.224 0.5 0.5 0.5s0.5-0.224 0.5-0.5v-6.5h8v6.5c0 0.276 0.224 0.5 0.5 0.5s0.5-0.224 0.5-0.5v-6.5h6.5c0.276 0 0.5-0.224 0.5-0.5s-0.224-0.5-0.5-0.5zM12 20v-8h8v8h-8z"></path>
</svg>
