<svg id="Layer_1" data-name="Layer 1" xmlns="http://www.w3.org/2000/svg" width="32" height="32" viewBox="0 0 32 32"><path d="M29.5,20H28V4h1.5a.5.5,0,0,0,0-1H2.5a.5.5,0,0,0,0,1H4V20H2.5a.5.5,0,0,0,0,1h13v3.284l-5.143,4.852a.5.5,0,0,0,.686.728L15.5,25.659V29.5a.5.5,0,0,0,1,0V25.659l4.457,4.205a.5.5,0,1,0,.686-.728L16.5,24.284V21h13a.5.5,0,0,0,0-1ZM5,4H27V20H5Z"/><path d="M17.5,15a.5.5,0,0,0,.354-.146L22,10.707V12.5a.5.5,0,0,0,1,0v-3a.5.5,0,0,0-.5-.5h-3a.5.5,0,0,0,0,1h1.793L17.5,13.793l-3.646-3.647a.5.5,0,0,0-.708,0l-4,4a.5.5,0,0,0,.708.708L13.5,11.207l3.646,3.647A.5.5,0,0,0,17.5,15Z"/></svg>