<svg id="Layer_1" data-name="Layer 1" xmlns="http://www.w3.org/2000/svg" width="32" height="32" viewBox="0 0 32 32"><path d="M19.8,14.1a.5.5,0,0,0-.7.1l-2.6,3.467L14.278,14.7A2.994,2.994,0,0,0,13,9H9.5a.5.5,0,0,0-.5.5v9a.5.5,0,0,0,1,0V15h3c.08,0,.155-.017.233-.024L15.875,18.5,13.1,22.2a.5.5,0,0,0,.8.6l2.6-3.467L19.1,22.8a.5.5,0,0,0,.8-.6l-2.775-3.7L19.9,14.8A.5.5,0,0,0,19.8,14.1ZM10,14V10h3a2,2,0,0,1,0,4Z"/><path d="M27.414,9.707,22.293,4.586A2.011,2.011,0,0,0,20.879,4H6A2,2,0,0,0,4,6V26a2,2,0,0,0,2,2H26a2,2,0,0,0,2-2V11.121A2.011,2.011,0,0,0,27.414,9.707ZM26.293,10H23a1,1,0,0,1-1-1V5.707ZM27,26a1,1,0,0,1-1,1H6a1,1,0,0,1-1-1V6A1,1,0,0,1,6,5H20.879A1,1,0,0,1,21,5.024V9a2,2,0,0,0,2,2h3.976a1,1,0,0,1,.024.121Z"/></svg>