<svg id="Layer_1" data-name="Layer 1" xmlns="http://www.w3.org/2000/svg" width="32" height="32" viewBox="0 0 32 32"><path d="M21.39,14.213,18.5,18.342l-3.24-4.629A2.994,2.994,0,0,0,14,8H10.5a.5.5,0,0,0-.5.5v9a.5.5,0,0,0,1,0V14h3c.077,0,.149-.017.224-.023l3.666,5.237-2.8,4a.5.5,0,0,0,.82.574l2.59-3.7,2.59,3.7a.5.5,0,0,0,.82-.573l-2.8-4,3.1-4.427a.5.5,0,1,0-.819-.574ZM11,13V9h3a2,2,0,0,1,0,4Z"/><path d="M16,2A14,14,0,1,0,30,16,14.015,14.015,0,0,0,16,2Zm0,27A13,13,0,1,1,29,16,13.015,13.015,0,0,1,16,29Z"/></svg>