<svg version="1.1" xmlns="http://www.w3.org/2000/svg" width="32" height="32" viewBox="0 0 32 32">
<title>procedure</title>
<path d="M20.807 7.105c-0.217-0.17-0.532-0.131-0.701 0.088-2.015 2.592-3.087 5.618-3.105 8.758 0 0.005 0 0.010 0 0.016 0 0.011 0 0.022 0 0.033s0 0.022 0 0.033c0 0.005 0 0.010 0 0.016 0.019 3.14 1.091 6.166 3.105 8.758 0.098 0.127 0.246 0.193 0.394 0.193 0.107 0 0.216-0.034 0.307-0.105 0.218-0.169 0.258-0.484 0.088-0.702-1.887-2.428-2.887-5.26-2.895-8.193 0.008-2.933 1.008-5.765 2.895-8.193 0.169-0.218 0.129-0.533-0.088-0.702z"></path>
<path d="M26.895 7.193c-0.17-0.219-0.485-0.258-0.701-0.088-0.218 0.169-0.258 0.484-0.088 0.702 1.886 2.428 2.886 5.26 2.894 8.193-0.008 2.933-1.008 5.765-2.895 8.193-0.17 0.218-0.13 0.532 0.088 0.702 0.091 0.071 0.2 0.105 0.307 0.105 0.148 0 0.296-0.066 0.395-0.193 2.015-2.592 3.087-5.618 3.105-8.758 0-0.005 0-0.010 0-0.016 0-0.011 0-0.022 0-0.033s0-0.022 0-0.033c0-0.005 0-0.010 0-0.016-0.019-3.139-1.091-6.166-3.105-8.758z"></path>
<path d="M7 11c-1.641 0-3.088 0.806-4 2.031v-1.531c0-0.276-0.224-0.5-0.5-0.5s-0.5 0.224-0.5 0.5v14c0 0.276 0.224 0.5 0.5 0.5s0.5-0.224 0.5-0.5v-6.531c0.912 1.225 2.359 2.031 4 2.031 2.757 0 5-2.243 5-5s-2.243-5-5-5zM7 20c-2.206 0-4-1.794-4-4s1.794-4 4-4 4 1.794 4 4-1.794 4-4 4z"></path>
</svg>
