<svg version="1.1" xmlns="http://www.w3.org/2000/svg" width="32" height="32" viewBox="0 0 32 32">
<title>puzzle-piece</title>
<path d="M26 14h-1v-5.5c0-0.827-0.673-1.5-1.5-1.5h-5.5v-1c0-1.654-1.346-3-3-3s-3 1.346-3 3v1h-5.5c-0.827 0-1.5 0.673-1.5 1.5v17c0 0.827 0.673 1.5 1.5 1.5h6c0.276 0 0.5-0.224 0.5-0.5v-1.5c0-1.103 0.897-2 2-2s2 0.897 2 2v1.5c0 0.276 0.224 0.5 0.5 0.5h6c0.827 0 1.5-0.673 1.5-1.5v-5.5h1c1.654 0 3-1.346 3-3s-1.346-3-3-3zM26 19h-1.5c-0.276 0-0.5 0.224-0.5 0.5v6c0 0.276-0.225 0.5-0.5 0.5h-5.5v-1c0-1.654-1.346-3-3-3s-3 1.346-3 3v1h-5.5c-0.275 0-0.5-0.224-0.5-0.5v-17c0-0.276 0.225-0.5 0.5-0.5h6c0.276 0 0.5-0.224 0.5-0.5v-1.5c0-1.103 0.897-2 2-2s2 0.897 2 2v1.5c0 0.276 0.224 0.5 0.5 0.5h6c0.275 0 0.5 0.224 0.5 0.5v6c0 0.276 0.224 0.5 0.5 0.5h1.5c1.103 0 2 0.897 2 2s-0.897 2-2 2z"></path>
</svg>
