<svg version="1.1" xmlns="http://www.w3.org/2000/svg" width="32" height="32" viewBox="0 0 32 32">
<title>pyramid-chart</title>
<path d="M29.941 25.218l-13.5-21c-0.1-0.136-0.259-0.224-0.439-0.224s-0.34 0.088-0.438 0.223l-0.001 0.002-13.5 21c-0.050 0.079-0.080 0.175-0.080 0.278 0 0.288 0.233 0.521 0.52 0.522h27c0.287-0.002 0.519-0.235 0.519-0.522 0-0.103-0.030-0.199-0.081-0.28l0.001 0.002zM16 5.466l3.56 5.534h-7.116zM11.8 12h8.4l3.857 6h-16.113zM3.458 24.978l3.842-5.978h17.4l3.843 5.978z"></path>
</svg>
