<svg version="1.1" xmlns="http://www.w3.org/2000/svg" width="32" height="32" viewBox="0 0 32 32">
<title>question-square-o</title>
<path d="M25 4h-18c-1.657 0-3 1.343-3 3v0 18c0 1.657 1.343 3 3 3v0h18c1.657 0 3-1.343 3-3v0-18c0-1.657-1.343-3-3-3v0zM27 25c0 1.105-0.895 2-2 2v0h-18c-1.105 0-2-0.895-2-2v0-18c0-1.105 0.895-2 2-2v0h18c1.105 0 2 0.895 2 2v0z"></path>
<path d="M17 22c0 0.552-0.448 1-1 1s-1-0.448-1-1c0-0.552 0.448-1 1-1s1 0.448 1 1z"></path>
<path d="M16 9.25c-0.069-0.004-0.149-0.007-0.23-0.007-2.129 0-3.873 1.652-4.019 3.744l-0.001 0.013c0 0.414 0.336 0.75 0.75 0.75s0.75-0.336 0.75-0.75v0c0.146-1.277 1.221-2.26 2.525-2.26 0.079 0 0.157 0.004 0.235 0.011l-0.010-0.001c0.067-0.006 0.146-0.010 0.225-0.010 1.304 0 2.379 0.983 2.524 2.248l0.001 0.012c0 1.155-0.656 1.718-1.488 2.431-1.174 0.783-1.952 2.079-2.012 3.56l-0 0.009c0 0.414 0.336 0.75 0.75 0.75s0.75-0.336 0.75-0.75v0c0-1.155 0.656-1.718 1.488-2.431 1.174-0.782 1.952-2.079 2.012-3.56l0-0.009c-0.146-2.105-1.89-3.757-4.019-3.757-0.081 0-0.162 0.002-0.242 0.007l0.011-0.001z"></path>
</svg>
