<svg version="1.1" xmlns="http://www.w3.org/2000/svg" width="32" height="32" viewBox="0 0 32 32">
<title>question-circle</title>
<path d="M16 2c-7.732 0-14 6.268-14 14s6.268 14 14 14c7.732 0 14-6.268 14-14v0c-0.009-7.729-6.271-13.991-13.999-14h-0.001zM16 23c-0.552 0-1-0.448-1-1s0.448-1 1-1c0.552 0 1 0.448 1 1v0c0 0.552-0.448 1-1 1v0zM18.319 16.664c-0.923 0.791-1.444 1.289-1.444 2.336 0 0.483-0.392 0.875-0.875 0.875s-0.875-0.392-0.875-0.875v0 0c0.057-1.529 0.853-2.86 2.039-3.654l0.017-0.011c0.923-0.791 1.444-1.289 1.444-2.336-0.146-1.208-1.166-2.135-2.401-2.135-0.079 0-0.157 0.004-0.233 0.011l0.010-0.001c-0.067-0.007-0.145-0.010-0.224-0.010-1.236 0-2.255 0.927-2.4 2.124l-0.001 0.012c0 0.483-0.392 0.875-0.875 0.875s-0.875-0.392-0.875-0.875v0c0.146-2.174 1.945-3.881 4.143-3.881 0.082 0 0.163 0.002 0.243 0.007l-0.011-0.001c0.069-0.004 0.15-0.006 0.231-0.006 2.198 0 3.997 1.708 4.143 3.869l0.001 0.013c-0.057 1.529-0.853 2.86-2.039 3.653l-0.017 0.011z"></path>
</svg>
