<svg version="1.1" xmlns="http://www.w3.org/2000/svg" width="32" height="32" viewBox="0 0 32 32">
<title>question</title>
<path d="M17 25c0 0.552-0.448 1-1 1s-1-0.448-1-1c0-0.552 0.448-1 1-1s1 0.448 1 1z"></path>
<path d="M16 6c-3.584 0-6.5 2.563-6.5 5.714 0 0.552 0.448 1 1 1s1-0.448 1-1v0c0-2.048 2.019-3.714 4.5-3.714s4.5 1.666 4.5 3.714c0 1.9-1.060 2.806-2.4 3.956-1.45 1.242-3.093 2.651-3.1 5.458v0.372c0 0.552 0.448 1 1 1s1-0.448 1-1v0-0.357c0-1.9 1.060-2.8 2.4-3.955 1.454-1.246 3.1-2.657 3.1-5.474 0-3.151-2.916-5.714-6.5-5.714z"></path>
</svg>
