<svg version="1.1" xmlns="http://www.w3.org/2000/svg" width="32" height="32" viewBox="0 0 32 32">
<title>quote-left</title>
<path d="M22 15c-0.001 0-0.001 0-0.002 0-0.282 0-0.558 0.023-0.827 0.068l0.029-0.004c0.738-3.246 2.454-6.012 4.817-8.048l0.019-0.016h-1.787c-4.376 2.692-7.249 7.455-7.249 12.889 0 0.039 0 0.078 0 0.117l-0-0.006c0 2.761 2.239 5 5 5s5-2.239 5-5c0-2.761-2.239-5-5-5v0z"></path>
<path d="M10 15c-0.001 0-0.001 0-0.002 0-0.282 0-0.558 0.023-0.827 0.068l0.029-0.004c0.738-3.246 2.454-6.012 4.817-8.048l0.019-0.016h-1.787c-4.376 2.692-7.249 7.455-7.249 12.889 0 0.039 0 0.078 0 0.117l-0-0.006c0 2.761 2.239 5 5 5s5-2.239 5-5c0-2.761-2.239-5-5-5v0z"></path>
</svg>
