<svg version="1.1" xmlns="http://www.w3.org/2000/svg" width="32" height="32" viewBox="0 0 32 32">
<title>quote-right</title>
<path d="M10 7c-2.76 0.001-4.997 2.239-4.997 5s2.239 5 5 5c0.282 0 0.558-0.023 0.827-0.068l-0.029 0.004c-0.738 3.246-2.454 6.012-4.817 8.048l-0.019 0.016h1.787c4.376-2.692 7.249-7.455 7.249-12.889 0-0.039-0-0.078-0-0.117l0 0.006c0-2.761-2.239-5-5-5v0z"></path>
<path d="M22 7c-2.76 0.001-4.997 2.239-4.997 5s2.239 5 5 5c0.282 0 0.558-0.023 0.827-0.068l-0.029 0.004c-0.738 3.246-2.454 6.012-4.817 8.048l-0.019 0.016h1.787c4.376-2.692 7.249-7.455 7.249-12.889 0-0.039-0-0.078-0-0.117l0 0.006c0-2.761-2.239-5-5-5v0z"></path>
</svg>
