<svg version="1.1" xmlns="http://www.w3.org/2000/svg" width="32" height="32" viewBox="0 0 32 32">
<title>radar-chart</title>
<path d="M27 20.051v-8.1c1.158-0.234 2.018-1.243 2.018-2.453 0-1.381-1.119-2.5-2.5-2.5-0.801 0-1.513 0.376-1.971 0.962l-0.004 0.005-5.638-2.821c0.057-0.192 0.092-0.413 0.095-0.642l0-0.002c0-1.381-1.119-2.5-2.5-2.5s-2.5 1.119-2.5 2.5v0c0.001 0.198 0.026 0.39 0.072 0.574l-0.004-0.017-5.832 2.65c-0.452-0.445-1.073-0.721-1.758-0.721-1.384 0-2.506 1.122-2.506 2.506s1.122 2.506 2.506 2.506c0.591 0 1.135-0.205 1.563-0.547l-0.005 0.004 6.081 3.317c-0.072 0.217-0.114 0.467-0.117 0.727v0.001c0 1.204 0.851 2.208 1.984 2.446l0.016 0.003v7.1c-1.149 0.241-2 1.246-2 2.45 0 1.381 1.119 2.5 2.5 2.5s2.499-1.118 2.5-2.498v-0c-0.003-0.231-0.038-0.452-0.099-0.661l0.004 0.017 5.638-2.819c0.461 0.583 1.168 0.955 1.963 0.955 1.378 0 2.495-1.117 2.495-2.495 0-1.203-0.851-2.207-1.984-2.443l-0.016-0.003zM26.5 8c0.828 0 1.5 0.672 1.5 1.5s-0.672 1.5-1.5 1.5c-0.828 0-1.5-0.672-1.5-1.5v0c0-0.828 0.672-1.5 1.5-1.5v0zM16.5 3c0.828 0 1.5 0.672 1.5 1.5s-0.672 1.5-1.5 1.5c-0.828 0-1.5-0.672-1.5-1.5v0c0-0.828 0.672-1.5 1.5-1.5v0zM5 9.5c0-0.828 0.672-1.5 1.5-1.5s1.5 0.672 1.5 1.5c0 0.828-0.672 1.5-1.5 1.5v0c-0.828 0-1.5-0.672-1.5-1.5v0zM15 15.5c0-0.828 0.672-1.5 1.5-1.5s1.5 0.672 1.5 1.5c0 0.828-0.672 1.5-1.5 1.5v0c-0.828 0-1.5-0.672-1.5-1.5v0zM16.5 29c-0.828 0-1.5-0.672-1.5-1.5s0.672-1.5 1.5-1.5c0.828 0 1.5 0.672 1.5 1.5v0c0 0.828-0.672 1.5-1.5 1.5v0zM18.457 25.963c-0.357-0.457-0.861-0.784-1.441-0.909l-0.016-0.003v-7.1c1.159-0.233 2.020-1.243 2.020-2.453 0-1.381-1.119-2.5-2.5-2.5-0.77 0-1.458 0.348-1.916 0.895l-0.003 0.004-5.906-3.223c0.193-0.341 0.306-0.748 0.306-1.182 0-0.341-0.070-0.667-0.197-0.962l0.006 0.016 5.675-2.58c0.455 0.63 1.187 1.035 2.013 1.035 0.795 0 1.503-0.375 1.956-0.957l0.004-0.006 5.643 2.819c-0.059 0.192-0.095 0.413-0.1 0.641l-0 0.003c0 1.204 0.851 2.208 1.984 2.446l0.016 0.003v8.1c-1.149 0.241-2 1.246-2 2.45 0 0.001 0 0.001 0 0.002v-0c0.003 0.231 0.038 0.452 0.099 0.661l-0.004-0.017zM26.5 24c-0.828 0-1.5-0.672-1.5-1.5s0.672-1.5 1.5-1.5c0.828 0 1.5 0.672 1.5 1.5v0c0 0.828-0.672 1.5-1.5 1.5v0z"></path>
</svg>
