<svg id="Layer_1" data-name="Layer 1" xmlns="http://www.w3.org/2000/svg" width="32" height="32" viewBox="0 0 32 32"><path d="M16,18a2,2,0,1,0-2-2A2,2,0,0,0,16,18Zm0-3a1,1,0,1,1-1,1A1,1,0,0,1,16,15Zm3.6,5.24A.5.5,0,0,0,19.277,20a.509.509,0,0,0-.4.081,5.054,5.054,0,0,1-5.767,0,.5.5,0,0,0-.4-.08.5.5,0,0,0-.326.238l-4,6.933a.5.5,0,0,0,.166.673,13.922,13.922,0,0,0,14.884,0,.5.5,0,0,0,.167-.674ZM9.5,27.245,13,21.19a6.064,6.064,0,0,0,6,0l3.5,6.055A13.112,13.112,0,0,1,9.5,27.245ZM22.545,3.627a.5.5,0,0,0-.668.192L17.87,10.761a.5.5,0,0,0,.223.7A5.018,5.018,0,0,1,21,16c0,.153-.01.3-.023.454a.5.5,0,0,0,.5.546h8a.5.5,0,0,0,.5-.481l.011-.185c.008-.11.015-.221.015-.334A13.98,13.98,0,0,0,22.545,3.627ZM22,16a6.022,6.022,0,0,0-3-5.192l3.5-6.063A12.976,12.976,0,0,1,29,16Zm-11.1.837a.5.5,0,0,0,.128-.383C11.01,16.3,11,16.153,11,16a5.018,5.018,0,0,1,2.907-4.536.5.5,0,0,0,.223-.7L10.123,3.819a.5.5,0,0,0-.668-.192A13.98,13.98,0,0,0,2,16c0,.113.007.224.015.334l.011.185a.5.5,0,0,0,.5.481h8A.5.5,0,0,0,10.9,16.837ZM3,16A12.976,12.976,0,0,1,9.5,4.745L13,10.808A6.022,6.022,0,0,0,10,16Z"/></svg>