<svg version="1.1" xmlns="http://www.w3.org/2000/svg" width="32" height="32" viewBox="0 0 32 32">
<title>random</title>
<path d="M29.961 9.309c-0.025-0.061-0.062-0.117-0.108-0.163l-3-3c-0.195-0.195-0.512-0.195-0.707 0s-0.195 0.512 0 0.707l2.147 2.147h-4.793c-4.029 0-6.248 2.766-8.011 5.359-0.155 0.228-0.097 0.539 0.132 0.695 0.086 0.059 0.184 0.087 0.281 0.087 0.159 0 0.316-0.077 0.413-0.219 2.067-3.039 3.99-4.922 7.185-4.922h4.793l-2.146 2.146c-0.195 0.195-0.195 0.512 0 0.707 0.097 0.098 0.225 0.147 0.353 0.147s0.256-0.049 0.354-0.146l3-3c0.046-0.046 0.083-0.102 0.108-0.163s0.038-0.125 0.038-0.189c0-0.001 0-0.001 0-0.002v0c0-0.065-0.013-0.13-0.039-0.191z"></path>
<path d="M29.961 22.309c-0.025-0.061-0.062-0.117-0.108-0.163l-3-3c-0.195-0.195-0.512-0.195-0.707 0s-0.195 0.512 0 0.707l2.147 2.147h-4.793c-3.979 0-5.972-3.047-8.081-6.274-2.163-3.307-4.398-6.726-8.919-6.726h-4c-0.276 0-0.5 0.224-0.5 0.5s0.224 0.5 0.5 0.5h4c3.979 0 5.972 3.047 8.081 6.274 2.163 3.307 4.398 6.726 8.919 6.726h4.793l-2.146 2.146c-0.195 0.195-0.195 0.512 0 0.707 0.097 0.098 0.225 0.147 0.353 0.147s0.256-0.049 0.354-0.146l3-3c0.046-0.046 0.083-0.102 0.108-0.163s0.038-0.125 0.038-0.189c0-0.001 0-0.001 0-0.002v0c0-0.065-0.013-0.13-0.039-0.191z"></path>
<path d="M13.685 17.079c-2.067 3.038-3.99 4.921-7.185 4.921h-4c-0.276 0-0.5 0.224-0.5 0.5s0.224 0.5 0.5 0.5h4c4.029 0 6.248-2.766 8.011-5.359 0.155-0.228 0.097-0.539-0.132-0.695-0.226-0.154-0.538-0.097-0.694 0.133z"></path>
</svg>
