<svg version="1.1" xmlns="http://www.w3.org/2000/svg" width="32" height="32" viewBox="0 0 32 32">
<title>range-chart-area</title>
<path d="M9.534 17.090l8.723 4.847c0.070 0.040 0.154 0.063 0.243 0.063 0.082 0 0.159-0.020 0.227-0.054l-0.003 0.001 5.755-2.877 4.764 2.859c0.073 0.045 0.162 0.071 0.257 0.071 0.276 0 0.5-0.224 0.5-0.5 0-0 0-0 0-0v0-7c0-0 0-0 0-0 0-0.181-0.096-0.34-0.241-0.428l-0.002-0.001-5-3c-0.073-0.045-0.162-0.071-0.257-0.071-0.113 0-0.218 0.038-0.301 0.101l0.001-0.001-3.612 2.709-3.7-4.621c-0.086-0.108-0.214-0.178-0.359-0.188l-0.001-0c-0.006-0-0.013-0-0.020-0-0.141 0-0.268 0.055-0.362 0.146l-2.6 2.6-3.655-4.557c-0.090-0.112-0.226-0.185-0.379-0.188h-0.001c-0.153 0.002-0.29 0.068-0.387 0.171l-0 0-6.124 6.998v-9.669c0-0.276-0.224-0.5-0.5-0.5s-0.5 0.224-0.5 0.5v0 21c0 0.276 0.224 0.5 0.5 0.5v0h27c0.276 0 0.5-0.224 0.5-0.5s-0.224-0.5-0.5-0.5v0h-26.5v-3.243zM9.483 8.279l3.626 4.533c0.092 0.115 0.233 0.189 0.391 0.189 0.138 0 0.263-0.056 0.354-0.147v0l2.6-2.6 3.651 4.563c0.092 0.115 0.233 0.188 0.391 0.188 0.113 0 0.218-0.038 0.301-0.101l-0.001 0.001 3.731-2.8 4.473 2.678v5.834l-4.243-2.546c-0.073-0.045-0.162-0.071-0.257-0.071-0.082 0-0.159 0.020-0.227 0.054l0.003-0.001-5.763 2.882-8.77-4.872c-0.070-0.040-0.154-0.063-0.243-0.063-0.109 0-0.21 0.035-0.292 0.094l0.001-0.001-6.209 4.435v-4.84z"></path>
</svg>
