<svg version="1.1" xmlns="http://www.w3.org/2000/svg" width="32" height="32" viewBox="0 0 32 32">
<title>range-chart-bar</title>
<path d="M29.5 26h-27c-0.276 0-0.5-0.224-0.5-0.5v0-22c0-0.276 0.224-0.5 0.5-0.5s0.5 0.224 0.5 0.5v0 21.5h26.5c0.276 0 0.5 0.224 0.5 0.5s-0.224 0.5-0.5 0.5v0z"></path>
<path d="M29.5 17h-6c-0.276 0-0.5-0.224-0.5-0.5v0-11c0-0.276 0.224-0.5 0.5-0.5v0h6c0.276 0 0.5 0.224 0.5 0.5v0 11c0 0.276-0.224 0.5-0.5 0.5v0zM24 16h5v-10h-5z"></path>
<path d="M11.5 20h-6c-0.276 0-0.5-0.224-0.5-0.5v0-11c0-0.276 0.224-0.5 0.5-0.5v0h6c0.276 0 0.5 0.224 0.5 0.5v0 11c0 0.276-0.224 0.5-0.5 0.5v0zM6 19h5v-10h-5z"></path>
<path d="M20.5 23h-6c-0.276 0-0.5-0.224-0.5-0.5v0-11c0-0.276 0.224-0.5 0.5-0.5v0h6c0.276 0 0.5 0.224 0.5 0.5v0 11c0 0.276-0.224 0.5-0.5 0.5v0zM15 22h5v-10h-5z"></path>
</svg>
