<svg version="1.1" xmlns="http://www.w3.org/2000/svg" width="32" height="32" viewBox="0 0 32 32">
<title>recycle</title>
<path d="M19.038 6.763l4.445 7.695-2.986-0.832c-0.27-0.075-0.541 0.082-0.615 0.347-0.074 0.266 0.081 0.542 0.348 0.616l4.164 1.16c0.044 0.013 0.089 0.019 0.134 0.019 0.085 0 0.17-0.022 0.246-0.064 0.115-0.065 0.2-0.174 0.235-0.301l1.183-4.247c0.074-0.266-0.081-0.542-0.348-0.616-0.269-0.076-0.541 0.082-0.615 0.347l-0.864 3.101-4.461-7.725c-0.815-1.411-2.275-2.254-3.904-2.254s-3.089 0.843-3.903 2.254c-0.139 0.239-0.057 0.545 0.183 0.683s0.546 0.057 0.683-0.183c0.634-1.098 1.769-1.754 3.037-1.754s2.403 0.656 3.038 1.754z"></path>
<path d="M27.39 19.229c-0.138-0.241-0.445-0.321-0.683-0.183-0.239 0.138-0.321 0.444-0.183 0.683 0.634 1.098 0.634 2.409 0 3.508-0.634 1.098-1.77 1.754-3.038 1.754h-7.136l2.214-2.171c0.196-0.193 0.2-0.51 0.007-0.707s-0.509-0.201-0.708-0.007l-3.087 3.028c-0.094 0.093-0.148 0.22-0.149 0.352s0.050 0.26 0.144 0.355l3.087 3.146c0.098 0.1 0.227 0.15 0.356 0.15 0.126 0 0.253-0.048 0.351-0.143 0.196-0.193 0.199-0.51 0.006-0.707l-2.252-2.296h7.169c1.63 0 3.089-0.843 3.904-2.254 0.813-1.411 0.813-3.096-0.002-4.508z"></path>
<path d="M10.539 10.674c-0.033-0.128-0.116-0.239-0.23-0.306-0.113-0.067-0.25-0.085-0.379-0.054l-4.269 1.101c-0.268 0.069-0.428 0.342-0.359 0.609s0.341 0.427 0.609 0.359l3.115-0.804-4.416 7.65c-0.815 1.411-0.815 3.096-0.001 4.507 0.815 1.412 2.274 2.254 3.904 2.254 0.276 0 0.5-0.224 0.5-0.5s-0.224-0.5-0.5-0.5c-1.269 0-2.404-0.656-3.038-1.754s-0.634-2.41 0-3.508l4.4-7.621 0.773 3.002c0.059 0.226 0.262 0.375 0.484 0.375 0.041 0 0.083-0.005 0.125-0.016 0.268-0.069 0.428-0.342 0.359-0.609l-1.077-4.185z"></path>
</svg>
