<svg version="1.1" xmlns="http://www.w3.org/2000/svg" width="32" height="32" viewBox="0 0 32 32">
<title>redo-arrow</title>
<path d="M27.5 22h-16.5c-3.309 0-6-2.691-6-6s2.691-6 6-6h15.293l-4.146 4.146c-0.195 0.195-0.195 0.512 0 0.707 0.097 0.098 0.225 0.147 0.353 0.147s0.256-0.049 0.354-0.146l5-5c0.046-0.046 0.083-0.102 0.108-0.163 0.051-0.122 0.051-0.26 0-0.382-0.025-0.062-0.062-0.117-0.108-0.163l-5-5c-0.195-0.195-0.512-0.195-0.707 0s-0.195 0.512 0 0.707l4.146 4.147h-15.293c-3.859 0-7 3.14-7 7s3.141 7 7 7h16.5c0.276 0 0.5-0.224 0.5-0.5s-0.224-0.5-0.5-0.5z"></path>
</svg>
