<svg version="1.1" xmlns="http://www.w3.org/2000/svg" width="32" height="32" viewBox="0 0 32 32">
<title>redo-alt</title>
<path d="M26.5 4h-21c-0.827 0-1.5 0.673-1.5 1.5v8c0 0.276 0.224 0.5 0.5 0.5s0.5-0.224 0.5-0.5v-8c0-0.276 0.225-0.5 0.5-0.5h21c0.275 0 0.5 0.224 0.5 0.5v21c0 0.276-0.225 0.5-0.5 0.5h-16c-3.032 0-5.5-2.467-5.5-5.5s2.468-5.5 5.5-5.5h9.793l-4.146 4.146c-0.195 0.195-0.195 0.512 0 0.707 0.097 0.098 0.225 0.147 0.353 0.147s0.256-0.049 0.354-0.146l5-5c0.046-0.046 0.083-0.102 0.108-0.163 0.051-0.122 0.051-0.26 0-0.382-0.025-0.062-0.062-0.117-0.108-0.163l-5-5c-0.195-0.195-0.512-0.195-0.707 0s-0.195 0.512 0 0.707l4.146 4.147h-9.793c-3.584 0-6.5 2.916-6.5 6.5s2.916 6.5 6.5 6.5h16c0.827 0 1.5-0.673 1.5-1.5v-21c0-0.827-0.673-1.5-1.5-1.5z"></path>
</svg>
