<svg version="1.1" xmlns="http://www.w3.org/2000/svg" width="32" height="32" viewBox="0 0 32 32">
<title>refresh</title>
<path d="M27.708 13.392c-0.060-0.269-0.323-0.441-0.597-0.38-0.27 0.060-0.439 0.327-0.38 0.596 0.179 0.803 0.269 1.608 0.269 2.392 0 6.065-4.935 11-11 11-3.29 0-6.377-1.486-8.46-4h3.96c0.276 0 0.5-0.224 0.5-0.5s-0.224-0.5-0.5-0.5h-5c-0.276 0-0.5 0.224-0.5 0.5v5c0 0.276 0.224 0.5 0.5 0.5s0.5-0.224 0.5-0.5v-3.57c2.266 2.57 5.535 4.070 9 4.070 6.617 0 12-5.383 12-12 0-0.857-0.099-1.734-0.292-2.608z"></path>
<path d="M5 16c0-6.065 4.935-11 11-11 3.291 0 6.378 1.486 8.46 4h-3.96c-0.276 0-0.5 0.224-0.5 0.5s0.224 0.5 0.5 0.5h5c0.276 0 0.5-0.224 0.5-0.5v-5c0-0.276-0.224-0.5-0.5-0.5s-0.5 0.224-0.5 0.5v3.57c-2.265-2.571-5.535-4.070-9-4.070-6.617 0-12 5.383-12 12 0 0.857 0.099 1.734 0.292 2.608 0.052 0.233 0.259 0.392 0.488 0.392 0.035 0 0.072-0.004 0.108-0.012 0.27-0.060 0.439-0.327 0.38-0.596-0.178-0.803-0.268-1.608-0.268-2.392z"></path>
</svg>
