<svg version="1.1" xmlns="http://www.w3.org/2000/svg" width="32" height="32" viewBox="0 0 32 32">
<title>reorder</title>
<path d="M25.5 7h-19c-0.276 0-0.5-0.224-0.5-0.5s0.224-0.5 0.5-0.5h19c0.276 0 0.5 0.224 0.5 0.5s-0.224 0.5-0.5 0.5z"></path>
<path d="M25.5 25h-19c-0.276 0-0.5-0.224-0.5-0.5s0.224-0.5 0.5-0.5h19c0.276 0 0.5 0.224 0.5 0.5s-0.224 0.5-0.5 0.5z"></path>
<path d="M25.5 19h-19c-0.276 0-0.5-0.224-0.5-0.5s0.224-0.5 0.5-0.5h19c0.276 0 0.5 0.224 0.5 0.5s-0.224 0.5-0.5 0.5z"></path>
<path d="M25.5 13h-19c-0.276 0-0.5-0.224-0.5-0.5s0.224-0.5 0.5-0.5h19c0.276 0 0.5 0.224 0.5 0.5s-0.224 0.5-0.5 0.5z"></path>
</svg>
