<svg version="1.1" xmlns="http://www.w3.org/2000/svg" width="32" height="32" viewBox="0 0 32 32">
<title>reply</title>
<path d="M16.501 11.004l-2.501-0.004v-4.5c0-0.199-0.118-0.379-0.301-0.459-0.184-0.078-0.396-0.042-0.541 0.094l-8 7.5c-0.1 0.095-0.158 0.227-0.158 0.365s0.058 0.27 0.158 0.365l8 7.5c0.146 0.136 0.357 0.172 0.541 0.094 0.183-0.080 0.301-0.26 0.301-0.459v-4.503h4.115c4.639 0 8.458 3.246 8.883 7.549 0.025 0.257 0.242 0.451 0.498 0.451 0.008 0 0.016 0 0.024 0 0.266-0.013 0.476-0.232 0.476-0.499l0.004-2.99c0-6.381-4.514-10.504-11.499-10.504zM18.115 15.997h-4.615c-0.276 0-0.5 0.227-0.5 0.503v3.846l-6.769-6.346 6.769-6.346v3.846c0 0.276 0.224 0.5 0.499 0.5l3.001 0.004c6.239 0 10.318 3.569 10.494 9.128-1.63-3.075-4.996-5.135-8.879-5.135z"></path>
</svg>
