<svg version="1.1" xmlns="http://www.w3.org/2000/svg" width="32" height="32" viewBox="0 0 32 32">
<title>reply-all</title>
<path d="M18.501 11.004l-2.501-0.004v-4.5c0-0.199-0.118-0.379-0.301-0.459-0.185-0.078-0.396-0.042-0.541 0.094l-8 7.5c-0.1 0.095-0.158 0.227-0.158 0.365s0.058 0.27 0.158 0.365l8 7.5c0.146 0.136 0.356 0.172 0.541 0.094 0.183-0.080 0.301-0.26 0.301-0.459v-4.503h4.115c4.639 0 8.458 3.246 8.883 7.549 0.025 0.257 0.242 0.451 0.498 0.451 0.008 0 0.016 0 0.024 0 0.266-0.013 0.476-0.232 0.476-0.499l0.004-2.99c0-6.381-4.514-10.504-11.499-10.504zM20.115 15.997h-4.615c-0.276 0-0.5 0.227-0.5 0.503v3.846l-6.769-6.346 6.769-6.346v3.846c0 0.276 0.224 0.5 0.499 0.5l3.001 0.004c6.239 0 10.318 3.569 10.494 9.128-1.63-3.075-4.996-5.135-8.879-5.135z"></path>
<path d="M3.231 14l7.61-7.135c0.201-0.189 0.212-0.505 0.023-0.707-0.19-0.203-0.506-0.211-0.707-0.023l-8 7.5c-0.099 0.095-0.157 0.227-0.157 0.365s0.058 0.27 0.158 0.365l8 7.5c0.097 0.090 0.219 0.135 0.342 0.135 0.133 0 0.267-0.053 0.365-0.158 0.188-0.201 0.178-0.518-0.023-0.707l-7.611-7.135z"></path>
</svg>
