<svg version="1.1" xmlns="http://www.w3.org/2000/svg" width="32" height="32" viewBox="0 0 32 32">
<title>retweet</title>
<path d="M16.5 25h-7c-0.827 0-1.5-0.673-1.5-1.5v-15.793l4.146 4.146c0.098 0.098 0.226 0.147 0.354 0.147s0.256-0.049 0.354-0.146c0.195-0.195 0.195-0.512 0-0.707l-5-5c-0.046-0.046-0.102-0.083-0.163-0.108-0.122-0.051-0.26-0.051-0.382 0-0.061 0.025-0.117 0.062-0.163 0.108l-5 5c-0.195 0.195-0.195 0.512 0 0.707s0.512 0.195 0.707 0l4.147-4.147v15.793c0 1.378 1.121 2.5 2.5 2.5h7c0.276 0 0.5-0.224 0.5-0.5s-0.224-0.5-0.5-0.5z"></path>
<path d="M29.854 20.146c-0.195-0.195-0.512-0.195-0.707 0l-4.147 4.147v-15.793c0-1.378-1.121-2.5-2.5-2.5h-7c-0.276 0-0.5 0.224-0.5 0.5s0.224 0.5 0.5 0.5h7c0.827 0 1.5 0.673 1.5 1.5v15.793l-4.146-4.146c-0.195-0.195-0.512-0.195-0.707 0s-0.195 0.512 0 0.707l5 5c0.046 0.046 0.102 0.083 0.163 0.108 0.060 0.025 0.125 0.038 0.19 0.038s0.13-0.013 0.191-0.039c0.062-0.025 0.117-0.062 0.163-0.108l5-5c0.195-0.195 0.195-0.511 0-0.707z"></path>
</svg>
