<svg version="1.1" xmlns="http://www.w3.org/2000/svg" width="32" height="32" viewBox="0 0 32 32">
<title>road</title>
<path d="M16.5 12c-0.276 0-0.5 0.224-0.5 0.5v5c0 0.276 0.224 0.5 0.5 0.5s0.5-0.224 0.5-0.5v-5c0-0.276-0.224-0.5-0.5-0.5z"></path>
<path d="M27.982 27.368l-6.286-23c-0.059-0.217-0.257-0.368-0.482-0.368h-9.428c-0.226 0-0.423 0.151-0.482 0.368l-6.286 23c-0.041 0.15-0.010 0.312 0.085 0.435 0.094 0.124 0.241 0.197 0.397 0.197h22c0.156 0 0.303-0.073 0.397-0.197 0.095-0.123 0.126-0.284 0.085-0.435zM17 27v-4.5c0-0.276-0.224-0.5-0.5-0.5s-0.5 0.224-0.5 0.5v4.5h-9.845l6.013-22h3.832v3.5c0 0.276 0.224 0.5 0.5 0.5s0.5-0.224 0.5-0.5v-3.5h3.832l6.013 22h-9.845z"></path>
</svg>
