<svg version="1.1" xmlns="http://www.w3.org/2000/svg" width="32" height="32" viewBox="0 0 32 32">
<title>rocket</title>
<path d="M27.854 4.146c-0.121-0.121-0.294-0.171-0.462-0.135l-4.452 0.989c-3.068 0.682-5.864 2.217-8.088 4.44l-0.526 0.526c-0.351 0.351-0.682 0.718-0.998 1.096h-4.891c-0.133 0-0.26 0.053-0.354 0.146l-4.937 4.936c-0.143 0.143-0.186 0.358-0.108 0.545 0.077 0.189 0.26 0.311 0.462 0.311h6.527l-0.987 2.303c-0.080 0.188-0.038 0.406 0.106 0.55l1.147 1.147-2.146 2.146c-0.195 0.195-0.195 0.512 0 0.707 0.097 0.098 0.225 0.147 0.353 0.147s0.256-0.049 0.354-0.146l2.146-2.147 1.146 1.146c0.096 0.096 0.224 0.147 0.354 0.147 0.066 0 0.134-0.013 0.197-0.040l2.24-0.96v6.436c0 0.202 0.122 0.385 0.309 0.462 0.062 0.026 0.127 0.038 0.191 0.038 0.13 0 0.258-0.051 0.354-0.146l4.936-4.936c0.094-0.094 0.146-0.221 0.146-0.354v-4.77c0.401-0.332 0.789-0.684 1.16-1.056l0.526-0.526c2.223-2.222 3.758-5.019 4.44-8.088l0.989-4.452c0.037-0.166-0.013-0.341-0.134-0.462zM4.707 16l3.937-3.936h3.924c-0.683 0.957-1.273 1.979-1.742 3.071l-0.39 0.909v-0.044h-5.729zM19.872 23.293l-3.936 3.936v-5.658l0.929-0.398c1.068-0.458 2.068-1.030 3.007-1.693v3.813zM21.852 16.441l-0.526 0.526c-1.401 1.401-3.034 2.507-4.854 3.287l-3.856 1.653-0.909-0.907 3.146-3.146c0.195-0.195 0.195-0.512 0-0.707s-0.512-0.195-0.707 0l-3.146 3.146-0.907-0.907 1.653-3.857c0.78-1.821 1.886-3.454 3.286-4.854l0.526-0.526c1.357-1.357 2.945-2.435 4.678-3.204l4.819 4.819c-0.768 1.733-1.847 3.32-3.203 4.677zM26.022 8.843c-0.145 0.652-0.336 1.288-0.561 1.911l-4.215-4.215c0.622-0.225 1.259-0.417 1.91-0.561l3.686-0.819-0.82 3.684z"></path>
<path d="M6.146 25.146l-3 3c-0.195 0.195-0.195 0.512 0 0.707 0.098 0.098 0.226 0.147 0.354 0.147s0.256-0.049 0.354-0.146l3-3c0.195-0.195 0.195-0.512 0-0.707s-0.512-0.196-0.708-0.001z"></path>
<path d="M11.146 25.146l-2 2c-0.195 0.195-0.195 0.512 0 0.707 0.098 0.098 0.226 0.147 0.354 0.147s0.256-0.049 0.354-0.146l2-2c0.195-0.195 0.195-0.512 0-0.707s-0.512-0.196-0.708-0.001z"></path>
<path d="M6.146 20.146l-2 2c-0.195 0.195-0.195 0.512 0 0.707 0.098 0.098 0.226 0.147 0.354 0.147s0.256-0.049 0.354-0.146l2-2c0.195-0.195 0.195-0.512 0-0.707s-0.512-0.196-0.708-0.001z"></path>
<path d="M19 11c-1.103 0-2 0.897-2 2s0.897 2 2 2 2-0.897 2-2-0.897-2-2-2zM19 14c-0.552 0-1-0.449-1-1s0.448-1 1-1 1 0.449 1 1-0.448 1-1 1z"></path>
</svg>
