<svg version="1.1" xmlns="http://www.w3.org/2000/svg" width="32" height="32" viewBox="0 0 32 32">
<title>rss</title>
<path d="M9 20c-1.657 0-3 1.343-3 3s1.343 3 3 3c1.657 0 3-1.343 3-3v0c0-1.657-1.343-3-3-3v0zM9 25c-1.105 0-2-0.895-2-2s0.895-2 2-2c1.105 0 2 0.895 2 2v0c0 1.105-0.895 2-2 2v0z"></path>
<path d="M6.5 6c-0.276 0-0.5 0.224-0.5 0.5s0.224 0.5 0.5 0.5v0c10.212 0.012 18.488 8.288 18.5 18.499v0.001c0 0.276 0.224 0.5 0.5 0.5s0.5-0.224 0.5-0.5v0c-0.013-10.764-8.736-19.487-19.499-19.5h-0.001z"></path>
<path d="M6.5 13c-0.276 0-0.5 0.224-0.5 0.5s0.224 0.5 0.5 0.5v0c6.348 0.007 11.493 5.152 11.5 11.499v0.001c0 0.276 0.224 0.5 0.5 0.5s0.5-0.224 0.5-0.5v0c-0.008-6.9-5.6-12.492-12.499-12.5h-0.001z"></path>
</svg>
