<svg version="1.1" xmlns="http://www.w3.org/2000/svg" width="32" height="32" viewBox="0 0 32 32">
<title>rupee</title>
<path d="M16.5 5c-6.341 0-11.5 5.159-11.5 11.5s5.159 11.5 11.5 11.5 11.5-5.159 11.5-11.5-5.159-11.5-11.5-11.5zM16.5 27c-5.79 0-10.5-4.71-10.5-10.5s4.71-10.5 10.5-10.5 10.5 4.71 10.5 10.5-4.71 10.5-10.5 10.5z"></path>
<path d="M21 11.5c0-0.276-0.224-0.5-0.5-0.5h-7c-0.276 0-0.5 0.224-0.5 0.5s0.224 0.5 0.5 0.5h2c1.207 0 2.217 0.86 2.449 2h-4.449c-0.276 0-0.5 0.224-0.5 0.5s0.224 0.5 0.5 0.5h4.449c-0.232 1.14-1.242 2-2.449 2h-2c-0.202 0-0.385 0.122-0.462 0.309s-0.035 0.402 0.108 0.545l5 5c0.098 0.097 0.226 0.146 0.354 0.146s0.256-0.049 0.354-0.146c0.195-0.195 0.195-0.512 0-0.707l-4.147-4.147h0.793c1.759 0 3.204-1.308 3.449-3h1.551c0.276 0 0.5-0.224 0.5-0.5s-0.224-0.5-0.5-0.5h-1.551c-0.112-0.778-0.47-1.475-1.007-2h2.558c0.276 0 0.5-0.224 0.5-0.5z"></path>
</svg>
