<svg version="1.1" xmlns="http://www.w3.org/2000/svg" width="32" height="32" viewBox="0 0 32 32">
<title>save-as</title>
<path d="M16.5 10h3c0.276 0 0.5-0.224 0.5-0.5v-3c0-0.276-0.224-0.5-0.5-0.5h-3c-0.276 0-0.5 0.224-0.5 0.5v3c0 0.276 0.224 0.5 0.5 0.5zM17 7h2v2h-2v-2z"></path>
<path d="M29.084 18c-0.51 0-0.99 0.199-1.351 0.56l-7.919 7.919c-0.492 0.491-0.868 1.1-1.088 1.759l-0.701 2.104c-0.060 0.18-0.013 0.378 0.121 0.512 0.096 0.095 0.223 0.146 0.354 0.146 0.053 0 0.106-0.008 0.158-0.026l2.104-0.701c0.659-0.22 1.268-0.596 1.759-1.087l7.919-7.919c0.361-0.361 0.56-0.84 0.56-1.356 0-1.054-0.856-1.911-1.916-1.911zM20.446 29.324l-1.156 0.385 0.386-1.155c0.093-0.278 0.226-0.54 0.385-0.786l1.171 1.171c-0.246 0.159-0.508 0.293-0.786 0.385zM22 28.293l-1.293-1.293 6.293-6.293 1.293 1.293-6.293 6.293zM29.733 20.56l-0.733 0.733-1.293-1.293 0.733-0.733c0.172-0.172 0.401-0.267 0.65-0.267 0.502 0 0.91 0.408 0.91 0.916 0 0.243-0.095 0.472-0.267 0.644z"></path>
<path d="M15.5 25h-6.5v-9.5c0-0.276 0.225-0.5 0.5-0.5h11c0.275 0 0.5 0.224 0.5 0.5s0.224 0.5 0.5 0.5 0.5-0.224 0.5-0.5c0-0.827-0.673-1.5-1.5-1.5h-11c-0.827 0-1.5 0.673-1.5 1.5v9.5h-2.5c-0.275 0-0.5-0.224-0.5-0.5v-19c0-0.276 0.225-0.5 0.5-0.5h2.5v5.5c0 0.827 0.673 1.5 1.5 1.5h11c0.827 0 1.5-0.673 1.5-1.5v-5.5h0.086c0.132 0 0.261 0.053 0.354 0.146l2.414 2.414c0.092 0.094 0.146 0.223 0.146 0.354v7.586c0 0.276 0.224 0.5 0.5 0.5s0.5-0.224 0.5-0.5v-7.586c0-0.4-0.156-0.777-0.439-1.061l-2.414-2.414c-0.28-0.279-0.667-0.439-1.061-0.439h-16.586c-0.827 0-1.5 0.673-1.5 1.5v19c0 0.827 0.673 1.5 1.5 1.5h10c0.276 0 0.5-0.224 0.5-0.5s-0.224-0.5-0.5-0.5zM21 5v5.5c0 0.276-0.225 0.5-0.5 0.5h-11c-0.275 0-0.5-0.224-0.5-0.5v-5.5h12z"></path>
</svg>
