<svg version="1.1" xmlns="http://www.w3.org/2000/svg" width="32" height="32" viewBox="0 0 32 32">
<title>save</title>
<path d="M27.561 7.854l-3.414-3.414c-0.28-0.28-0.667-0.44-1.061-0.44h-17.586c-0.827 0-1.5 0.673-1.5 1.5v21c0 0.827 0.673 1.5 1.5 1.5h21c0.827 0 1.5-0.673 1.5-1.5v-17.586c0-0.4-0.156-0.777-0.439-1.060zM9 5h12v6.5c0 0.276-0.225 0.5-0.5 0.5h-11c-0.275 0-0.5-0.224-0.5-0.5v-6.5zM23 27h-14v-9.5c0-0.276 0.225-0.5 0.5-0.5h13c0.275 0 0.5 0.224 0.5 0.5v9.5zM27 26.5c0 0.276-0.225 0.5-0.5 0.5h-2.5v-9.5c0-0.827-0.673-1.5-1.5-1.5h-13c-0.827 0-1.5 0.673-1.5 1.5v9.5h-2.5c-0.275 0-0.5-0.224-0.5-0.5v-21c0-0.276 0.225-0.5 0.5-0.5h2.5v6.5c0 0.827 0.673 1.5 1.5 1.5h11c0.827 0 1.5-0.673 1.5-1.5v-6.5h1.086c0.132 0 0.261 0.053 0.354 0.146l3.414 3.414c0.094 0.095 0.146 0.221 0.146 0.354v17.586z"></path>
<path d="M7 24.5c0 0.276-0.224 0.5-0.5 0.5s-0.5-0.224-0.5-0.5c0-0.276 0.224-0.5 0.5-0.5s0.5 0.224 0.5 0.5z"></path>
<path d="M26 24.5c0 0.276-0.224 0.5-0.5 0.5s-0.5-0.224-0.5-0.5c0-0.276 0.224-0.5 0.5-0.5s0.5 0.224 0.5 0.5z"></path>
<path d="M16.5 11h3c0.276 0 0.5-0.224 0.5-0.5v-4c0-0.276-0.224-0.5-0.5-0.5h-3c-0.276 0-0.5 0.224-0.5 0.5v4c0 0.276 0.224 0.5 0.5 0.5zM17 7h2v3h-2v-3z"></path>
</svg>
