<svg version="1.1" xmlns="http://www.w3.org/2000/svg" width="32" height="32" viewBox="0 0 32 32">
<title>scissors</title>
<path d="M14.526 14.935c-0.294 0-0.532 0.238-0.532 0.533s0.238 0.532 0.532 0.532 0.532-0.238 0.532-0.532c0-0.295-0.238-0.533-0.532-0.533z"></path>
<path d="M18.632 16l10.201-9.127c0.155-0.138 0.208-0.357 0.134-0.551s-0.26-0.322-0.467-0.322h-1.868c-0.833 0-1.648 0.231-2.357 0.668l-9.523 5.861-3.903-3.493c0.089-0.336 0.151-0.68 0.151-1.036 0-1.068-0.416-2.073-1.172-2.828-1.51-1.511-4.146-1.511-5.656 0-0.756 0.755-1.172 1.76-1.172 2.828s0.416 2.073 1.172 2.828c0.755 0.756 1.76 1.172 2.828 1.172 0.65 0 1.269-0.171 1.83-0.462l2.73 2.73c0.284 0.283 0.44 0.66 0.44 1.061v1.343c0 0.401-0.156 0.777-0.439 1.061l-2.742 2.742c-1.499-0.738-3.433-0.517-4.646 0.698-0.757 0.754-1.173 1.759-1.173 2.827s0.416 2.073 1.172 2.828c0.755 0.756 1.76 1.172 2.828 1.172s2.073-0.416 2.828-1.172c0.756-0.755 1.172-1.76 1.172-2.828 0-0.356-0.062-0.7-0.152-1.035l3.903-3.492 9.523 5.86c0.709 0.436 1.525 0.667 2.358 0.667h1.868c0.207 0 0.394-0.128 0.467-0.322 0.074-0.194 0.021-0.413-0.134-0.551l-10.201-9.127zM9.121 10.121c-1.133 1.133-3.109 1.133-4.242 0-0.567-0.566-0.879-1.32-0.879-2.121s0.312-1.555 0.879-2.121c0.566-0.567 1.319-0.879 2.121-0.879s1.555 0.312 2.121 0.879c0.567 0.566 0.879 1.32 0.879 2.121 0 0.358-0.072 0.704-0.191 1.031-0.002 0.004-0.003 0.008-0.004 0.012-0.148 0.399-0.374 0.768-0.684 1.078 0 0 0 0 0 0zM9.667 10.961c0.052-0.047 0.111-0.082 0.161-0.132 0 0 0 0 0 0s0 0 0 0c0.246-0.246 0.441-0.525 0.612-0.816l3.422 3.063-0.672 0.414c-0.224 0.137-0.41 0.317-0.577 0.513-0.099-0.157-0.211-0.306-0.345-0.441l-2.601-2.601zM9.121 26.121c-1.133 1.133-3.109 1.133-4.242 0-0.567-0.566-0.879-1.32-0.879-2.121s0.312-1.555 0.879-2.121c0.566-0.567 1.319-0.879 2.121-0.879s1.555 0.312 2.121 0.879c0 0 0 0 0 0 0.31 0.31 0.536 0.679 0.684 1.079 0.001 0.004 0.002 0.008 0.004 0.012 0.119 0.326 0.191 0.672 0.191 1.030 0 0.801-0.312 1.555-0.879 2.121zM10.44 21.988c-0.171-0.292-0.367-0.571-0.612-0.816 0 0 0 0 0 0-0.050-0.050-0.11-0.084-0.162-0.131l2.602-2.601c0.472-0.473 0.732-1.101 0.732-1.768v-1.054c0-0.517 0.273-1.007 0.714-1.278l11.085-6.821c0.551-0.339 1.184-0.519 1.833-0.519h0.56l-16.752 14.988zM26.632 25c-0.647 0-1.282-0.18-1.834-0.519l-9.27-5.704 2.354-2.106 9.309 8.329h-0.559z"></path>
</svg>
