<svg version="1.1" xmlns="http://www.w3.org/2000/svg" width="32" height="32" viewBox="0 0 32 32">
<title>send</title>
<path d="M27.828 4.123c-0.141-0.123-0.337-0.156-0.511-0.089l-23 9c-0.173 0.068-0.295 0.227-0.314 0.412-0.021 0.186 0.064 0.366 0.22 0.47l6.777 4.518v8.066c0 0.202 0.122 0.385 0.309 0.462 0.061 0.026 0.127 0.038 0.191 0.038 0.13 0 0.258-0.051 0.354-0.146l4.71-4.71 5.659 3.772c0.083 0.056 0.179 0.084 0.277 0.084 0.062 0 0.124-0.011 0.183-0.035 0.152-0.060 0.266-0.19 0.304-0.35l5-21c0.042-0.18-0.018-0.37-0.159-0.492zM24.836 7.937l-11 10c-0.096 0.087-0.216 0.13-0.336 0.13-0.136 0-0.271-0.055-0.37-0.164-0.186-0.205-0.171-0.521 0.034-0.707l11-10c0.204-0.185 0.521-0.17 0.706 0.034 0.186 0.205 0.171 0.52-0.034 0.707z"></path>
</svg>
