<svg version="1.1" xmlns="http://www.w3.org/2000/svg" width="32" height="32" viewBox="0 0 32 32">
<title>sequence</title>
<path d="M9.5 17h-2c-0.827 0-1.5 0.673-1.5 1.5 0 0.276 0.224 0.5 0.5 0.5s0.5-0.224 0.5-0.5c0-0.276 0.225-0.5 0.5-0.5h2c0.275 0 0.5 0.224 0.5 0.5v2c0 0.276-0.225 0.5-0.5 0.5h-2c-0.827 0-1.5 0.673-1.5 1.5v3c0 0.276 0.224 0.5 0.5 0.5h4c0.276 0 0.5-0.224 0.5-0.5s-0.224-0.5-0.5-0.5h-3.5v-2.5c0-0.276 0.225-0.5 0.5-0.5h2c0.827 0 1.5-0.673 1.5-1.5v-2c0-0.827-0.673-1.5-1.5-1.5z"></path>
<path d="M6.724 5.947l1.276-0.638v7.191c0 0.276 0.224 0.5 0.5 0.5s0.5-0.224 0.5-0.5v-8c0-0.173-0.090-0.334-0.237-0.425s-0.332-0.1-0.486-0.022l-2 1c-0.248 0.123-0.347 0.424-0.224 0.671 0.124 0.247 0.424 0.345 0.671 0.223z"></path>
<path d="M27.854 20.146c-0.195-0.195-0.512-0.195-0.707 0l-4.147 4.147v-19.793c0-0.276-0.224-0.5-0.5-0.5s-0.5 0.224-0.5 0.5v19.793l-4.146-4.146c-0.195-0.195-0.512-0.195-0.707 0s-0.195 0.512 0 0.707l5 5c0.046 0.046 0.102 0.083 0.163 0.108 0.060 0.025 0.125 0.038 0.19 0.038s0.13-0.013 0.191-0.039c0.062-0.025 0.117-0.062 0.163-0.108l5-5c0.195-0.195 0.195-0.511 0-0.707z"></path>
</svg>
