<svg version="1.1" xmlns="http://www.w3.org/2000/svg" width="32" height="32" viewBox="0 0 32 32">
<title>server-search</title>
<path d="M24.5 8c0.276 0 0.5-0.224 0.5-0.5s-0.224-0.5-0.5-0.5v0h-7c-0.276 0-0.5 0.224-0.5 0.5s0.224 0.5 0.5 0.5v0z"></path>
<path d="M14.5 27h-8.5c-0.552-0.001-0.999-0.448-1-1v-21c0.001-0.552 0.448-0.999 1-1h20c0.552 0 1 0.448 1 1v9.5c0 0.276 0.224 0.5 0.5 0.5s0.5-0.224 0.5-0.5v0-9.5c-0.001-1.104-0.896-1.999-2-2h-20c-1.104 0.001-1.999 0.896-2 2v21c0.001 1.104 0.896 1.999 2 2h8.5c0.276 0 0.5-0.224 0.5-0.5s-0.224-0.5-0.5-0.5v0z"></path>
<path d="M8 7.5c0 0.276-0.224 0.5-0.5 0.5s-0.5-0.224-0.5-0.5c0-0.276 0.224-0.5 0.5-0.5s0.5 0.224 0.5 0.5z"></path>
<path d="M11 7.5c0 0.276-0.224 0.5-0.5 0.5s-0.5-0.224-0.5-0.5c0-0.276 0.224-0.5 0.5-0.5s0.5 0.224 0.5 0.5z"></path>
<path d="M8 15.5c0 0.276-0.224 0.5-0.5 0.5s-0.5-0.224-0.5-0.5c0-0.276 0.224-0.5 0.5-0.5s0.5 0.224 0.5 0.5z"></path>
<path d="M11 15.5c0 0.276-0.224 0.5-0.5 0.5s-0.5-0.224-0.5-0.5c0-0.276 0.224-0.5 0.5-0.5s0.5 0.224 0.5 0.5z"></path>
<path d="M8 23.5c0 0.276-0.224 0.5-0.5 0.5s-0.5-0.224-0.5-0.5c0-0.276 0.224-0.5 0.5-0.5s0.5 0.224 0.5 0.5z"></path>
<path d="M11 23.5c0 0.276-0.224 0.5-0.5 0.5s-0.5-0.224-0.5-0.5c0-0.276 0.224-0.5 0.5-0.5s0.5 0.224 0.5 0.5z"></path>
<path d="M26 11.5c0-0.276-0.224-0.5-0.5-0.5v0h-19c-0.276 0-0.5 0.224-0.5 0.5s0.224 0.5 0.5 0.5v0h19c0.276 0 0.5-0.224 0.5-0.5v0z"></path>
<path d="M14.5 19h-8c-0.276 0-0.5 0.224-0.5 0.5s0.224 0.5 0.5 0.5v0h8c0.276 0 0.5-0.224 0.5-0.5s-0.224-0.5-0.5-0.5v0z"></path>
<path d="M28.854 28.146l-3.707-3.707c0.529-0.664 0.849-1.514 0.853-2.439v-0.001c0-2.209-1.791-4-4-4s-4 1.791-4 4c0 2.209 1.791 4 4 4v0c0.926-0.004 1.776-0.325 2.448-0.859l-0.008 0.006 3.707 3.707c0.090 0.087 0.212 0.14 0.347 0.14 0.276 0 0.5-0.224 0.5-0.5 0-0.135-0.053-0.258-0.14-0.348l0 0zM22 25c-1.657 0-3-1.343-3-3s1.343-3 3-3c1.657 0 3 1.343 3 3v0c-0.002 1.656-1.344 2.998-3 3h-0z"></path>
</svg>
