<svg version="1.1" xmlns="http://www.w3.org/2000/svg" width="32" height="32" viewBox="0 0 32 32">
<title>server-file</title>
<path d="M24.5 8c0.276 0 0.5-0.224 0.5-0.5s-0.224-0.5-0.5-0.5v0h-7c-0.276 0-0.5 0.224-0.5 0.5s0.224 0.5 0.5 0.5v0z"></path>
<path d="M14.5 27h-8.5c-0.552 0-1-0.448-1-1v0-21c0-0.552 0.448-1 1-1v0h20c0.552 0 1 0.448 1 1v0 9.5c0 0.276 0.224 0.5 0.5 0.5s0.5-0.224 0.5-0.5v0-9.5c0-1.105-0.895-2-2-2v0h-20c-1.105 0-2 0.895-2 2v0 21c0 1.105 0.895 2 2 2v0h8.5c0.276 0 0.5-0.224 0.5-0.5s-0.224-0.5-0.5-0.5v0z"></path>
<path d="M8 7.5c0 0.276-0.224 0.5-0.5 0.5s-0.5-0.224-0.5-0.5c0-0.276 0.224-0.5 0.5-0.5s0.5 0.224 0.5 0.5z"></path>
<path d="M11 7.5c0 0.276-0.224 0.5-0.5 0.5s-0.5-0.224-0.5-0.5c0-0.276 0.224-0.5 0.5-0.5s0.5 0.224 0.5 0.5z"></path>
<path d="M8 15.5c0 0.276-0.224 0.5-0.5 0.5s-0.5-0.224-0.5-0.5c0-0.276 0.224-0.5 0.5-0.5s0.5 0.224 0.5 0.5z"></path>
<path d="M11 15.5c0 0.276-0.224 0.5-0.5 0.5s-0.5-0.224-0.5-0.5c0-0.276 0.224-0.5 0.5-0.5s0.5 0.224 0.5 0.5z"></path>
<path d="M8 23.5c0 0.276-0.224 0.5-0.5 0.5s-0.5-0.224-0.5-0.5c0-0.276 0.224-0.5 0.5-0.5s0.5 0.224 0.5 0.5z"></path>
<path d="M11 23.5c0 0.276-0.224 0.5-0.5 0.5s-0.5-0.224-0.5-0.5c0-0.276 0.224-0.5 0.5-0.5s0.5 0.224 0.5 0.5z"></path>
<path d="M26 11.5c0-0.276-0.224-0.5-0.5-0.5v0h-19c-0.276 0-0.5 0.224-0.5 0.5s0.224 0.5 0.5 0.5v0h19c0.276 0 0.5-0.224 0.5-0.5v0z"></path>
<path d="M14.5 19h-8c-0.276 0-0.5 0.224-0.5 0.5s0.224 0.5 0.5 0.5v0h8c0.276 0 0.5-0.224 0.5-0.5s-0.224-0.5-0.5-0.5v0z"></path>
<path d="M28.854 21.146l-4-4c-0.090-0.090-0.215-0.146-0.353-0.146-0 0-0.001 0-0.001 0h-6c-0.276 0-0.5 0.224-0.5 0.5v0 12c0 0.276 0.224 0.5 0.5 0.5v0h10c0.276 0 0.5-0.224 0.5-0.5v0-8c0-0 0-0.001 0-0.001 0-0.138-0.056-0.263-0.146-0.353v0zM25 18.707l2.293 2.293h-2.293zM19 29v-11h5v3.5c0 0.276 0.224 0.5 0.5 0.5v0h3.5v7z"></path>
</svg>
