<svg version="1.1" xmlns="http://www.w3.org/2000/svg" width="32" height="32" viewBox="0 0 32 32">
<title>server-wrench</title>
<path d="M24.5 8c0.276 0 0.5-0.224 0.5-0.5s-0.224-0.5-0.5-0.5h-7c-0.276 0-0.5 0.224-0.5 0.5s0.224 0.5 0.5 0.5h7z"></path>
<path d="M14.5 27h-8.5c-0.552 0-1-0.448-1-1v-21c0-0.552 0.448-1 1-1h20c0.552 0 1 0.448 1 1v9.5c0 0.276 0.224 0.5 0.5 0.5s0.5-0.224 0.5-0.5v-9.5c0-1.105-0.895-2-2-2h-20c-1.105 0-2 0.895-2 2v21c0 1.105 0.895 2 2 2h8.5c0.276 0 0.5-0.224 0.5-0.5s-0.224-0.5-0.5-0.5z"></path>
<path d="M8 7.5c0 0.276-0.224 0.5-0.5 0.5s-0.5-0.224-0.5-0.5c0-0.276 0.224-0.5 0.5-0.5s0.5 0.224 0.5 0.5z"></path>
<path d="M11 7.5c0 0.276-0.224 0.5-0.5 0.5s-0.5-0.224-0.5-0.5c0-0.276 0.224-0.5 0.5-0.5s0.5 0.224 0.5 0.5z"></path>
<path d="M8 15.5c0 0.276-0.224 0.5-0.5 0.5s-0.5-0.224-0.5-0.5c0-0.276 0.224-0.5 0.5-0.5s0.5 0.224 0.5 0.5z"></path>
<path d="M11 15.5c0 0.276-0.224 0.5-0.5 0.5s-0.5-0.224-0.5-0.5c0-0.276 0.224-0.5 0.5-0.5s0.5 0.224 0.5 0.5z"></path>
<path d="M8 23.5c0 0.276-0.224 0.5-0.5 0.5s-0.5-0.224-0.5-0.5c0-0.276 0.224-0.5 0.5-0.5s0.5 0.224 0.5 0.5z"></path>
<path d="M11 23.5c0 0.276-0.224 0.5-0.5 0.5s-0.5-0.224-0.5-0.5c0-0.276 0.224-0.5 0.5-0.5s0.5 0.224 0.5 0.5z"></path>
<path d="M26 11.5c0-0.276-0.224-0.5-0.5-0.5h-19c-0.276 0-0.5 0.224-0.5 0.5s0.224 0.5 0.5 0.5h19c0.276 0 0.5-0.224 0.5-0.5z"></path>
<path d="M14.5 19h-8c-0.276 0-0.5 0.224-0.5 0.5s0.224 0.5 0.5 0.5h8c0.276 0 0.5-0.224 0.5-0.5s-0.224-0.5-0.5-0.5z"></path>
<path d="M29.461 18.59c-0.327-0.135-0.703-0.061-0.953 0.189l-1.6 1.6-1.288-1.294 1.59-1.585c0.345-0.338 0.351-0.892 0.013-1.237-0.165-0.169-0.392-0.264-0.629-0.263h-1.094c-1.933 0-3.5 1.567-3.5 3.5v1.167c0.001 0.398-0.157 0.779-0.439 1.060l-4 4.005c-0.71 0.785-0.649 1.998 0.136 2.708 0.733 0.663 1.85 0.66 2.58-0.008l4-4c0.282-0.276 0.66-0.431 1.055-0.432h1.173c1.931-0.003 3.495-1.569 3.495-3.5v-1.1c0.001-0.354-0.212-0.674-0.539-0.81zM29 20.5c0 1.381-1.119 2.5-2.5 2.5h-1.168c-0.663 0.002-1.299 0.265-1.77 0.733l-4 4c-0.365 0.351-0.946 0.339-1.297-0.026-0.34-0.354-0.341-0.912-0.003-1.267l4-4c0.473-0.468 0.739-1.106 0.738-1.771v-1.169c0-1.381 1.119-2.5 2.5-2.5h0.8l-1.378 1.376c-0.39 0.39-0.39 1.024 0 1.414v0l1.289 1.3c0.187 0.188 0.442 0.294 0.707 0.294v0c0.265 0.001 0.519-0.105 0.706-0.293l1.376-1.391v0.8z"></path>
</svg>
