<svg version="1.1" xmlns="http://www.w3.org/2000/svg" width="32" height="32" viewBox="0 0 32 32">
<title>server-chart</title>
<path d="M24.5 8c0.276 0 0.5-0.224 0.5-0.5s-0.224-0.5-0.5-0.5h-7c-0.276 0-0.5 0.224-0.5 0.5s0.224 0.5 0.5 0.5h7z"></path>
<path d="M14.5 27h-8.5c-0.552 0-1-0.448-1-1v-21c0-0.552 0.448-1 1-1h20c0.552 0 1 0.448 1 1v9.5c0 0.276 0.224 0.5 0.5 0.5s0.5-0.224 0.5-0.5v-9.5c0-1.105-0.895-2-2-2h-20c-1.105 0-2 0.895-2 2v21c0 1.105 0.895 2 2 2h8.5c0.276 0 0.5-0.224 0.5-0.5s-0.224-0.5-0.5-0.5z"></path>
<path d="M8 7.5c0 0.276-0.224 0.5-0.5 0.5s-0.5-0.224-0.5-0.5c0-0.276 0.224-0.5 0.5-0.5s0.5 0.224 0.5 0.5z"></path>
<path d="M11 7.5c0 0.276-0.224 0.5-0.5 0.5s-0.5-0.224-0.5-0.5c0-0.276 0.224-0.5 0.5-0.5s0.5 0.224 0.5 0.5z"></path>
<path d="M8 15.5c0 0.276-0.224 0.5-0.5 0.5s-0.5-0.224-0.5-0.5c0-0.276 0.224-0.5 0.5-0.5s0.5 0.224 0.5 0.5z"></path>
<path d="M11 15.5c0 0.276-0.224 0.5-0.5 0.5s-0.5-0.224-0.5-0.5c0-0.276 0.224-0.5 0.5-0.5s0.5 0.224 0.5 0.5z"></path>
<path d="M8 23.5c0 0.276-0.224 0.5-0.5 0.5s-0.5-0.224-0.5-0.5c0-0.276 0.224-0.5 0.5-0.5s0.5 0.224 0.5 0.5z"></path>
<path d="M11 23.5c0 0.276-0.224 0.5-0.5 0.5s-0.5-0.224-0.5-0.5c0-0.276 0.224-0.5 0.5-0.5s0.5 0.224 0.5 0.5z"></path>
<path d="M26 11.5c0-0.276-0.224-0.5-0.5-0.5h-19c-0.276 0-0.5 0.224-0.5 0.5s0.224 0.5 0.5 0.5h19c0.276 0 0.5-0.224 0.5-0.5z"></path>
<path d="M14.5 19h-8c-0.276 0-0.5 0.224-0.5 0.5s0.224 0.5 0.5 0.5h8c0.276 0 0.5-0.224 0.5-0.5s-0.224-0.5-0.5-0.5z"></path>
<path d="M29.5 20h-3.5v-2.5c0-0.276-0.224-0.5-0.5-0.5h-4c-0.276 0-0.5 0.224-0.5 0.5v4.5h-3.5c-0.276 0-0.5 0.224-0.5 0.5v7c0 0.276 0.224 0.5 0.5 0.5h12c0.276 0 0.5-0.224 0.5-0.5v-9c0-0.276-0.224-0.5-0.5-0.5zM22 18h3v11h-3v-11zM18 23h3v6h-3v-6zM29 29h-3v-8h3v8z"></path>
</svg>
