<svg version="1.1" xmlns="http://www.w3.org/2000/svg" width="32" height="32" viewBox="0 0 32 32">
<title>server-heart</title>
<path d="M24.5 8c0.276 0 0.5-0.224 0.5-0.5s-0.224-0.5-0.5-0.5v0h-7c-0.276 0-0.5 0.224-0.5 0.5s0.224 0.5 0.5 0.5v0z"></path>
<path d="M14.5 27h-8.5c-0.552-0.001-0.999-0.448-1-1v-21c0.001-0.552 0.448-0.999 1-1h20c0.552 0 1 0.448 1 1v9.5c0 0.276 0.224 0.5 0.5 0.5s0.5-0.224 0.5-0.5v0-9.5c-0.001-1.104-0.896-1.999-2-2h-20c-1.104 0.001-1.999 0.896-2 2v21c0.001 1.104 0.896 1.999 2 2h8.5c0.276 0 0.5-0.224 0.5-0.5s-0.224-0.5-0.5-0.5v0z"></path>
<path d="M8 7.5c0 0.276-0.224 0.5-0.5 0.5s-0.5-0.224-0.5-0.5c0-0.276 0.224-0.5 0.5-0.5s0.5 0.224 0.5 0.5z"></path>
<path d="M11 7.5c0 0.276-0.224 0.5-0.5 0.5s-0.5-0.224-0.5-0.5c0-0.276 0.224-0.5 0.5-0.5s0.5 0.224 0.5 0.5z"></path>
<path d="M8 15.5c0 0.276-0.224 0.5-0.5 0.5s-0.5-0.224-0.5-0.5c0-0.276 0.224-0.5 0.5-0.5s0.5 0.224 0.5 0.5z"></path>
<path d="M11 15.5c0 0.276-0.224 0.5-0.5 0.5s-0.5-0.224-0.5-0.5c0-0.276 0.224-0.5 0.5-0.5s0.5 0.224 0.5 0.5z"></path>
<path d="M8 23.5c0 0.276-0.224 0.5-0.5 0.5s-0.5-0.224-0.5-0.5c0-0.276 0.224-0.5 0.5-0.5s0.5 0.224 0.5 0.5z"></path>
<path d="M11 23.5c0 0.276-0.224 0.5-0.5 0.5s-0.5-0.224-0.5-0.5c0-0.276 0.224-0.5 0.5-0.5s0.5 0.224 0.5 0.5z"></path>
<path d="M26 11.5c0-0.276-0.224-0.5-0.5-0.5v0h-19c-0.276 0-0.5 0.224-0.5 0.5s0.224 0.5 0.5 0.5v0h19c0.276 0 0.5-0.224 0.5-0.5v0z"></path>
<path d="M14.5 19h-8c-0.276 0-0.5 0.224-0.5 0.5s0.224 0.5 0.5 0.5v0h8c0.276 0 0.5-0.224 0.5-0.5s-0.224-0.5-0.5-0.5v0z"></path>
<path d="M28.126 19.879c-0.542-0.542-1.291-0.877-2.119-0.877s-1.577 0.335-2.119 0.877l-0.378 0.378-0.377-0.378c-0.542-0.54-1.29-0.874-2.116-0.874-1.656 0-2.998 1.342-2.998 2.998 0 0.827 0.335 1.576 0.877 2.119l4.262 4.268c0.090 0.090 0.215 0.146 0.353 0.146s0.263-0.056 0.353-0.146l4.263-4.268c0.541-0.544 0.876-1.293 0.876-2.121s-0.334-1.577-0.876-2.121l0 0zM27.42 23.414l-3.91 3.915-3.909-3.915c-0.365-0.362-0.592-0.865-0.592-1.42 0-1.104 0.895-1.999 1.999-1.999 0.554 0 1.056 0.226 1.418 0.59l0 0 0.73 0.732c0.090 0.090 0.215 0.146 0.353 0.146s0.263-0.056 0.353-0.146v0l0.732-0.732c0.362-0.361 0.861-0.585 1.413-0.585 1.104 0 1.999 0.895 1.999 1.999 0 0.552-0.224 1.052-0.586 1.414v0z"></path>
</svg>
