<svg version="1.1" xmlns="http://www.w3.org/2000/svg" width="32" height="32" viewBox="0 0 32 32">
<title>server</title>
<path d="M17.5 8h7c0.276 0 0.5-0.224 0.5-0.5s-0.224-0.5-0.5-0.5v0h-7c-0.276 0-0.5 0.224-0.5 0.5s0.224 0.5 0.5 0.5v0z"></path>
<path d="M26 3h-20c-1.105 0-2 0.895-2 2v0 21c0 1.105 0.895 2 2 2v0h20c1.105 0 2-0.895 2-2v0-21c0-1.105-0.895-2-2-2v0zM27 26c0 0.552-0.448 1-1 1v0h-20c-0.552 0-1-0.448-1-1v0-21c0-0.552 0.448-1 1-1v0h20c0.552 0 1 0.448 1 1v0z"></path>
<path d="M8 7.5c0 0.276-0.224 0.5-0.5 0.5s-0.5-0.224-0.5-0.5c0-0.276 0.224-0.5 0.5-0.5s0.5 0.224 0.5 0.5z"></path>
<path d="M11 7.5c0 0.276-0.224 0.5-0.5 0.5s-0.5-0.224-0.5-0.5c0-0.276 0.224-0.5 0.5-0.5s0.5 0.224 0.5 0.5z"></path>
<path d="M24.5 16c0.276 0 0.5-0.224 0.5-0.5s-0.224-0.5-0.5-0.5v0h-7c-0.276 0-0.5 0.224-0.5 0.5s0.224 0.5 0.5 0.5v0z"></path>
<path d="M8 15.5c0 0.276-0.224 0.5-0.5 0.5s-0.5-0.224-0.5-0.5c0-0.276 0.224-0.5 0.5-0.5s0.5 0.224 0.5 0.5z"></path>
<path d="M11 15.5c0 0.276-0.224 0.5-0.5 0.5s-0.5-0.224-0.5-0.5c0-0.276 0.224-0.5 0.5-0.5s0.5 0.224 0.5 0.5z"></path>
<path d="M24.5 23h-7c-0.276 0-0.5 0.224-0.5 0.5s0.224 0.5 0.5 0.5v0h7c0.276 0 0.5-0.224 0.5-0.5s-0.224-0.5-0.5-0.5v0z"></path>
<path d="M8 23.5c0 0.276-0.224 0.5-0.5 0.5s-0.5-0.224-0.5-0.5c0-0.276 0.224-0.5 0.5-0.5s0.5 0.224 0.5 0.5z"></path>
<path d="M11 23.5c0 0.276-0.224 0.5-0.5 0.5s-0.5-0.224-0.5-0.5c0-0.276 0.224-0.5 0.5-0.5s0.5 0.224 0.5 0.5z"></path>
<path d="M25.5 11h-19c-0.276 0-0.5 0.224-0.5 0.5s0.224 0.5 0.5 0.5v0h19c0.276 0 0.5-0.224 0.5-0.5s-0.224-0.5-0.5-0.5v0z"></path>
<path d="M25.5 19h-19c-0.276 0-0.5 0.224-0.5 0.5s0.224 0.5 0.5 0.5v0h19c0.276 0 0.5-0.224 0.5-0.5s-0.224-0.5-0.5-0.5v0z"></path>
</svg>
