<svg version="1.1" xmlns="http://www.w3.org/2000/svg" width="32" height="32" viewBox="0 0 32 32">
<title>server-pointer</title>
<path d="M24.5 8c0.276 0 0.5-0.224 0.5-0.5s-0.224-0.5-0.5-0.5h-7c-0.276 0-0.5 0.224-0.5 0.5s0.224 0.5 0.5 0.5h7z"></path>
<path d="M26 3h-20c-1.105 0-2 0.895-2 2v21c0 1.105 0.895 2 2 2h8.5c0.276 0 0.5-0.224 0.5-0.5s-0.224-0.5-0.5-0.5h-8.5c-0.552 0-1-0.448-1-1v-21c0-0.552 0.448-1 1-1h20c0.552 0 1 0.448 1 1v9.5c0 0.276 0.224 0.5 0.5 0.5s0.5-0.224 0.5-0.5v-9.5c0-1.105-0.895-2-2-2z"></path>
<path d="M8 7.5c0 0.276-0.224 0.5-0.5 0.5s-0.5-0.224-0.5-0.5c0-0.276 0.224-0.5 0.5-0.5s0.5 0.224 0.5 0.5z"></path>
<path d="M11 7.5c0 0.276-0.224 0.5-0.5 0.5s-0.5-0.224-0.5-0.5c0-0.276 0.224-0.5 0.5-0.5s0.5 0.224 0.5 0.5z"></path>
<path d="M8 15.5c0 0.276-0.224 0.5-0.5 0.5s-0.5-0.224-0.5-0.5c0-0.276 0.224-0.5 0.5-0.5s0.5 0.224 0.5 0.5z"></path>
<path d="M11 15.5c0 0.276-0.224 0.5-0.5 0.5s-0.5-0.224-0.5-0.5c0-0.276 0.224-0.5 0.5-0.5s0.5 0.224 0.5 0.5z"></path>
<path d="M8 23.5c0 0.276-0.224 0.5-0.5 0.5s-0.5-0.224-0.5-0.5c0-0.276 0.224-0.5 0.5-0.5s0.5 0.224 0.5 0.5z"></path>
<path d="M11 23.5c0 0.276-0.224 0.5-0.5 0.5s-0.5-0.224-0.5-0.5c0-0.276 0.224-0.5 0.5-0.5s0.5 0.224 0.5 0.5z"></path>
<path d="M6 11.5c0 0.276 0.224 0.5 0.5 0.5h19c0.276 0 0.5-0.224 0.5-0.5s-0.224-0.5-0.5-0.5h-19c-0.276 0-0.5 0.224-0.5 0.5z"></path>
<path d="M15 19.5c0-0.276-0.224-0.5-0.5-0.5h-8c-0.276 0-0.5 0.224-0.5 0.5s0.224 0.5 0.5 0.5h8c0.276 0 0.5-0.224 0.5-0.5z"></path>
<path d="M20.824 18.116c-0.21-0.179-0.526-0.154-0.705 0.057-0.077 0.091-0.12 0.207-0.119 0.327v7.5c0.001 0.276 0.225 0.5 0.501 0.499 0.132 0 0.258-0.053 0.352-0.146l2-2.006 2.187 4.377c0.122 0.248 0.421 0.35 0.669 0.228s0.35-0.421 0.228-0.669c-0.001-0.002-0.002-0.005-0.004-0.007l-2.128-4.276h2.7c0.276 0 0.5-0.224 0.5-0.5 0-0.148-0.066-0.289-0.18-0.384l-6.001-5z"></path>
</svg>
