<svg version="1.1" xmlns="http://www.w3.org/2000/svg" width="32" height="32" viewBox="0 0 32 32">
<title>server-bookmark</title>
<path d="M24.5 8c0.276 0 0.5-0.224 0.5-0.5s-0.224-0.5-0.5-0.5h-7c-0.276 0-0.5 0.224-0.5 0.5s0.224 0.5 0.5 0.5h7z"></path>
<path d="M26 3h-20c-1.105 0-2 0.895-2 2v21c0 1.105 0.895 2 2 2h8.5c0.276 0 0.5-0.224 0.5-0.5s-0.224-0.5-0.5-0.5h-8.5c-0.552 0-1-0.448-1-1v-21c0-0.552 0.448-1 1-1h20c0.552 0 1 0.448 1 1v9.5c0 0.276 0.224 0.5 0.5 0.5s0.5-0.224 0.5-0.5v-9.5c0-1.105-0.895-2-2-2z"></path>
<path d="M8 7.5c0 0.276-0.224 0.5-0.5 0.5s-0.5-0.224-0.5-0.5c0-0.276 0.224-0.5 0.5-0.5s0.5 0.224 0.5 0.5z"></path>
<path d="M11 7.5c0 0.276-0.224 0.5-0.5 0.5s-0.5-0.224-0.5-0.5c0-0.276 0.224-0.5 0.5-0.5s0.5 0.224 0.5 0.5z"></path>
<path d="M8 15.5c0 0.276-0.224 0.5-0.5 0.5s-0.5-0.224-0.5-0.5c0-0.276 0.224-0.5 0.5-0.5s0.5 0.224 0.5 0.5z"></path>
<path d="M11 15.5c0 0.276-0.224 0.5-0.5 0.5s-0.5-0.224-0.5-0.5c0-0.276 0.224-0.5 0.5-0.5s0.5 0.224 0.5 0.5z"></path>
<path d="M8 23.5c0 0.276-0.224 0.5-0.5 0.5s-0.5-0.224-0.5-0.5c0-0.276 0.224-0.5 0.5-0.5s0.5 0.224 0.5 0.5z"></path>
<path d="M11 23.5c0 0.276-0.224 0.5-0.5 0.5s-0.5-0.224-0.5-0.5c0-0.276 0.224-0.5 0.5-0.5s0.5 0.224 0.5 0.5z"></path>
<path d="M6 11.5c0 0.276 0.224 0.5 0.5 0.5h19c0.276 0 0.5-0.224 0.5-0.5s-0.224-0.5-0.5-0.5h-19c-0.276 0-0.5 0.224-0.5 0.5z"></path>
<path d="M15 19.5c0-0.276-0.224-0.5-0.5-0.5h-8c-0.276 0-0.5 0.224-0.5 0.5s0.224 0.5 0.5 0.5h8c0.276 0 0.5-0.224 0.5-0.5z"></path>
<path d="M26.5 18h-6c-0.276 0-0.5 0.224-0.5 0.5v10c0 0.276 0.223 0.5 0.499 0.501 0.133 0 0.261-0.053 0.355-0.147l2.646-2.647 2.646 2.647c0.094 0.094 0.221 0.146 0.354 0.146 0.066 0 0.131-0.013 0.191-0.038 0.187-0.077 0.309-0.26 0.309-0.462v-10c0-0.276-0.224-0.5-0.5-0.5zM26 27.293l-2.146-2.147c-0.195-0.196-0.512-0.196-0.707-0.001 0 0-0.001 0.001-0.001 0.001l-2.146 2.147v-8.293h5v8.293z"></path>
</svg>
