<svg version="1.1" xmlns="http://www.w3.org/2000/svg" width="32" height="32" viewBox="0 0 32 32">
<title>shapes</title>
<path d="M9.5 17c-3.032 0-5.5 2.468-5.5 5.5s2.468 5.5 5.5 5.5 5.5-2.468 5.5-5.5-2.468-5.5-5.5-5.5zM9.5 27c-2.481 0-4.5-2.019-4.5-4.5s2.019-4.5 4.5-4.5 4.5 2.019 4.5 4.5-2.019 4.5-4.5 4.5z"></path>
<path d="M27.5 17h-10c-0.276 0-0.5 0.224-0.5 0.5v10c0 0.276 0.224 0.5 0.5 0.5h10c0.276 0 0.5-0.224 0.5-0.5v-10c0-0.276-0.224-0.5-0.5-0.5zM27 27h-9v-9h9v9z"></path>
<path d="M9.5 15h13c0.184 0 0.352-0.101 0.439-0.262s0.080-0.357-0.021-0.511l-6.5-10c-0.184-0.283-0.654-0.283-0.838 0l-6.5 10c-0.101 0.153-0.108 0.35-0.021 0.511s0.257 0.262 0.441 0.262zM16 5.417l5.579 8.583h-11.158l5.579-8.583z"></path>
</svg>
