<svg version="1.1" xmlns="http://www.w3.org/2000/svg" width="32" height="32" viewBox="0 0 32 32">
<title>share-square-o</title>
<path d="M13 13.598c0 0.003 0 0.007 0 0.011 0.006 1.483 0.586 2.877 1.636 3.927 0.098 0.098 0.226 0.146 0.354 0.146s0.256-0.049 0.354-0.146c0.195-0.195 0.195-0.512 0-0.707-0.863-0.863-1.34-2.011-1.343-3.23 0.006-2.434 1.917-4.428 4.317-4.567l7.973-0.027-3.144 3.144c-0.195 0.195-0.195 0.512 0 0.707 0.097 0.095 0.225 0.144 0.353 0.144s0.256-0.049 0.354-0.146l4.353-4.354-4.354-4.354c-0.195-0.195-0.512-0.195-0.707 0s-0.195 0.512 0 0.707l3.148 3.148-7.709 0.021c-3.072 0-5.573 2.494-5.586 5.563 0.001 0.005 0.001 0.009 0.001 0.013z"></path>
<path d="M25.5 15c-0.276 0-0.5 0.224-0.5 0.5v9c0 0.275-0.225 0.5-0.5 0.5h-17c-0.275 0-0.5-0.225-0.5-0.5v-17c0-0.275 0.225-0.5 0.5-0.5h5c0.276 0 0.5-0.224 0.5-0.5s-0.224-0.5-0.5-0.5h-5c-0.827 0-1.5 0.673-1.5 1.5v17c0 0.827 0.673 1.5 1.5 1.5h17c0.827 0 1.5-0.673 1.5-1.5v-9c0-0.276-0.224-0.5-0.5-0.5z"></path>
</svg>
