<svg version="1.1" xmlns="http://www.w3.org/2000/svg" width="32" height="32" viewBox="0 0 32 32">
<title>share-alt</title>
<path d="M24 19c-1.775 0-3.327 0.936-4.214 2.334l-7.125-3.563c0.21-0.552 0.339-1.146 0.339-1.771s-0.129-1.219-0.34-1.771l7.125-3.563c0.888 1.398 2.44 2.334 4.215 2.334 2.757 0 5-2.243 5-5s-2.243-5-5-5-5 2.243-5 5c0 0.625 0.129 1.219 0.34 1.771l-7.125 3.563c-0.888-1.398-2.44-2.334-4.215-2.334-2.757 0-5 2.243-5 5s2.243 5 5 5c1.775 0 3.327-0.936 4.214-2.334l7.125 3.563c-0.21 0.552-0.339 1.146-0.339 1.771 0 2.757 2.243 5 5 5s5-2.243 5-5-2.243-5-5-5zM24 4c2.206 0 4 1.794 4 4s-1.794 4-4 4-4-1.794-4-4 1.794-4 4-4zM8 20c-2.206 0-4-1.794-4-4s1.794-4 4-4 4 1.794 4 4-1.794 4-4 4zM24 28c-2.206 0-4-1.794-4-4s1.794-4 4-4 4 1.794 4 4-1.794 4-4 4z"></path>
</svg>
