<svg version="1.1" xmlns="http://www.w3.org/2000/svg" width="32" height="32" viewBox="0 0 32 32">
<title>share-alt-square</title>
<path d="M22 20c0 1.105-0.895 2-2 2s-2-0.895-2-2c0-1.105 0.895-2 2-2s2 0.895 2 2z"></path>
<path d="M14 16c0 1.105-0.895 2-2 2s-2-0.895-2-2c0-1.105 0.895-2 2-2s2 0.895 2 2z"></path>
<path d="M25.5 4h-19c-1.379 0-2.5 1.121-2.5 2.5v19c0 1.379 1.121 2.5 2.5 2.5h19c1.379 0 2.5-1.121 2.5-2.5v-19c0-1.379-1.121-2.5-2.5-2.5zM15 16c0 0.304-0.059 0.592-0.144 0.869l2.73 1.365c0.547-0.744 1.422-1.234 2.414-1.234 1.654 0 3 1.346 3 3s-1.346 3-3 3-3-1.346-3-3c0-0.304 0.059-0.592 0.144-0.869l-2.73-1.365c-0.547 0.744-1.422 1.234-2.414 1.234-1.654 0-3-1.346-3-3s1.346-3 3-3c0.992 0 1.867 0.49 2.413 1.234l2.73-1.365c-0.084-0.277-0.143-0.565-0.143-0.869 0-1.654 1.346-3 3-3s3 1.346 3 3-1.346 3-3 3c-0.992 0-1.867-0.49-2.413-1.234l-2.73 1.365c0.084 0.277 0.143 0.565 0.143 0.869z"></path>
<path d="M22 12c0 1.105-0.895 2-2 2s-2-0.895-2-2c0-1.105 0.895-2 2-2s2 0.895 2 2z"></path>
</svg>
