<svg version="1.1" xmlns="http://www.w3.org/2000/svg" width="32" height="32" viewBox="0 0 32 32">
<title>share</title>
<path d="M26.842 13.635l-8-7.5c-0.146-0.135-0.358-0.172-0.541-0.094-0.183 0.079-0.301 0.26-0.301 0.459v4.501l-2.5 0.003c-6.986 0-11.5 4.123-11.5 10.505l0.004 2.988c0 0.267 0.21 0.485 0.476 0.498 0.009 0.001 0.017 0.001 0.024 0.001 0.256 0 0.473-0.194 0.498-0.451 0.425-4.304 4.244-7.549 8.883-7.549h4.115v4.504c0 0.199 0.118 0.38 0.301 0.459 0.184 0.078 0.396 0.042 0.541-0.094l8-7.5c0.1-0.094 0.158-0.226 0.158-0.365s-0.058-0.271-0.158-0.365zM19 20.346v-3.85c0-0.276-0.224-0.5-0.5-0.5h-4.615c-3.883 0-7.249 2.060-8.879 5.135 0.176-5.559 4.256-9.127 10.495-9.127l3-0.004c0.275 0 0.499-0.224 0.499-0.5v-3.846l6.769 6.346-6.769 6.346z"></path>
</svg>
