<svg version="1.1" xmlns="http://www.w3.org/2000/svg" width="32" height="32" viewBox="0 0 32 32">
<title>share-square</title>
<path d="M25.5 4h-19c-1.379 0-2.5 1.121-2.5 2.5v19c0 1.379 1.121 2.5 2.5 2.5h19c1.379 0 2.5-1.121 2.5-2.5v-19c0-1.379-1.121-2.5-2.5-2.5zM23.854 13.854l-4 4c-0.098 0.097-0.226 0.146-0.354 0.146s-0.256-0.049-0.354-0.146c-0.195-0.195-0.195-0.512 0-0.707l3.144-3.144-7.973 0.027c-2.4 0.14-4.312 2.134-4.317 4.567 0.003 1.22 0.479 2.367 1.343 3.23 0.195 0.195 0.195 0.512 0 0.707-0.098 0.098-0.226 0.146-0.354 0.146s-0.256-0.049-0.354-0.146c-1.050-1.050-1.63-2.443-1.636-3.927 0-0.004 0-0.008 0-0.011 0-0.004 0-0.008 0-0.012 0.013-3.069 2.514-5.563 5.586-5.563l7.709-0.021-3.148-3.148c-0.195-0.195-0.195-0.512 0-0.707s0.512-0.195 0.707 0l4 4c0.196 0.197 0.196 0.513 0.001 0.709z"></path>
</svg>
