<svg version="1.1" xmlns="http://www.w3.org/2000/svg" width="32" height="32" viewBox="0 0 32 32">
<title>shield</title>
<path d="M27.988 7.9c0-0.276-0.224-0.5-0.5-0.5v0c-5.695 0-9.718-2.663-11.048-5.136-0.086-0.158-0.251-0.263-0.44-0.263s-0.354 0.105-0.439 0.26l-0.001 0.003c-1.33 2.473-5.353 5.136-11.050 5.136-0.276 0-0.5 0.224-0.5 0.5v0l-0.010 7.819c0.029 4.562 2.451 8.552 6.074 10.78l0.055 0.032 5.612 3.4c0.074 0.045 0.163 0.072 0.259 0.072s0.185-0.027 0.261-0.074l-0.002 0.001 5.613-3.4c3.677-2.26 6.099-6.251 6.128-10.809l0-0.004zM21.354 25.676l-5.354 3.24-5.353-3.24c-3.405-2.058-5.647-5.74-5.647-9.945 0-0.004 0-0.008 0-0.011v0.001l0.009-7.32c5.364-0.141 9.238-2.462 10.991-4.953 1.753 2.491 5.626 4.811 10.991 4.953l0.009 7.319c0 0.004 0 0.008 0 0.012 0 4.205-2.241 7.887-5.594 9.916l-0.052 0.029z"></path>
</svg>
