<svg version="1.1" xmlns="http://www.w3.org/2000/svg" width="32" height="32" viewBox="0 0 32 32">
<title>ship</title>
<path d="M24.363 19.917c0.198 0 0.387-0.119 0.465-0.315 0.102-0.257-0.023-0.547-0.279-0.65l-6.354-2.532c-1.4-0.558-2.989-0.558-4.392 0l-6.353 2.532c-0.256 0.102-0.381 0.393-0.279 0.65s0.391 0.381 0.65 0.279l6.352-2.532c1.164-0.464 2.489-0.464 3.651 0l6.353 2.532c0.062 0.024 0.125 0.036 0.186 0.036z"></path>
<path d="M11.5 10h-1c-0.276 0-0.5 0.224-0.5 0.5s0.224 0.5 0.5 0.5h1c0.276 0 0.5-0.224 0.5-0.5s-0.224-0.5-0.5-0.5z"></path>
<path d="M15 10.5c0-0.276-0.224-0.5-0.5-0.5h-1c-0.276 0-0.5 0.224-0.5 0.5s0.224 0.5 0.5 0.5h1c0.276 0 0.5-0.224 0.5-0.5z"></path>
<path d="M17.5 11h1c0.276 0 0.5-0.224 0.5-0.5s-0.224-0.5-0.5-0.5h-1c-0.276 0-0.5 0.224-0.5 0.5s0.224 0.5 0.5 0.5z"></path>
<path d="M20.5 11h1c0.276 0 0.5-0.224 0.5-0.5s-0.224-0.5-0.5-0.5h-1c-0.276 0-0.5 0.224-0.5 0.5s0.224 0.5 0.5 0.5z"></path>
<path d="M27.5 29c-1.301 0-2.554-0.658-3.437-1.805-0.094-0.123-0.241-0.195-0.396-0.195s-0.302 0.072-0.396 0.195c-0.884 1.147-2.137 1.805-3.438 1.805s-2.554-0.658-3.437-1.805c-0.189-0.246-0.604-0.246-0.793 0-0.882 1.147-2.135 1.805-3.436 1.805s-2.554-0.658-3.438-1.805c-0.188-0.246-0.603-0.246-0.792 0-0.883 1.147-2.136 1.805-3.437 1.805-0.276 0-0.5 0.224-0.5 0.5s0.224 0.5 0.5 0.5c1.425 0 2.793-0.624 3.833-1.73 1.041 1.106 2.41 1.73 3.834 1.73 1.425 0 2.793-0.624 3.833-1.73 1.040 1.106 2.408 1.73 3.833 1.73 1.424 0 2.793-0.624 3.834-1.73 1.040 1.106 2.408 1.73 3.833 1.73 0.276 0 0.5-0.224 0.5-0.5s-0.224-0.5-0.5-0.5z"></path>
<path d="M8.277 24.881c0.211-0.179 0.236-0.494 0.058-0.705-1.675-1.974-2.804-4.482-3.278-7.272l9.079-3.554c1.188-0.465 2.541-0.465 3.729 0l9.079 3.554c-0.475 2.79-1.604 5.298-3.278 7.272-0.179 0.211-0.153 0.526 0.058 0.705 0.092 0.080 0.208 0.119 0.322 0.119 0.142 0 0.282-0.060 0.381-0.177 1.875-2.209 3.108-5.033 3.568-8.166 0.033-0.23-0.096-0.453-0.312-0.538l-2.683-1.049v-5.57c0-1.378-1.121-2.5-2.5-2.5h-3.5v-4.5c0-0.276-0.224-0.5-0.5-0.5h-5c-0.276 0-0.5 0.224-0.5 0.5v4.5h-3.5c-1.379 0-2.5 1.122-2.5 2.5v5.57l-2.683 1.050c-0.217 0.085-0.346 0.308-0.312 0.538 0.46 3.133 1.693 5.956 3.568 8.166 0.179 0.21 0.494 0.236 0.704 0.057zM18 3v1h-4v-1h4zM14 5h4v2h-4v-2zM8 9.5c0-0.827 0.673-1.5 1.5-1.5h13c0.827 0 1.5 0.673 1.5 1.5v5.178l-5.771-2.259c-1.422-0.556-3.037-0.556-4.459 0l-5.77 2.259v-5.178z"></path>
</svg>
