<svg version="1.1" xmlns="http://www.w3.org/2000/svg" width="32" height="32" viewBox="0 0 32 32">
<title>shopping-basket</title>
<path d="M29.5 13h-6.5v-4c0-1.657-1.343-3-3-3v0h-8c-1.657 0-3 1.343-3 3v0 4h-6.5c-0.276 0-0.5 0.224-0.5 0.5s0.224 0.5 0.5 0.5v0h0.64l3.316 9.949c0.409 1.201 1.527 2.050 2.844 2.051h13.4c0 0 0 0 0 0 1.317 0 2.436-0.849 2.84-2.030l0.006-0.021 3.315-9.949h0.639c0.276 0 0.5-0.224 0.5-0.5s-0.224-0.5-0.5-0.5v0zM10 9c0-1.105 0.895-2 2-2v0h8c1.105 0 2 0.895 2 2v0 4h-12zM24.6 23.633c-0.273 0.801-1.019 1.367-1.897 1.367-0.001 0-0.002 0-0.003 0h-13.4c-0.001 0-0.002 0-0.003 0-0.878 0-1.624-0.566-1.893-1.353l-0.004-0.014-3.207-9.633h23.613z"></path>
<path d="M14.5 17c-0.276 0-0.5 0.224-0.5 0.5v0 4c0 0.276 0.224 0.5 0.5 0.5s0.5-0.224 0.5-0.5v0-4c0-0.276-0.224-0.5-0.5-0.5v0z"></path>
<path d="M11.5 17c-0.276 0-0.5 0.224-0.5 0.5v0 4c0 0.276 0.224 0.5 0.5 0.5s0.5-0.224 0.5-0.5v0-4c0-0.276-0.224-0.5-0.5-0.5v0z"></path>
<path d="M17.5 17c-0.276 0-0.5 0.224-0.5 0.5v0 4c0 0.276 0.224 0.5 0.5 0.5s0.5-0.224 0.5-0.5v0-4c0-0.276-0.224-0.5-0.5-0.5v0z"></path>
<path d="M20.5 17c-0.276 0-0.5 0.224-0.5 0.5v0 4c0 0.276 0.224 0.5 0.5 0.5s0.5-0.224 0.5-0.5v0-4c0-0.276-0.224-0.5-0.5-0.5v0z"></path>
</svg>
