<svg version="1.1" xmlns="http://www.w3.org/2000/svg" width="32" height="32" viewBox="0 0 32 32">
<title>shopping-bag</title>
<path d="M27.5 11h-6.5v-2c0-2.761-2.239-5-5-5s-5 2.239-5 5v0 2h-6.5c-0.276 0-0.5 0.224-0.5 0.5v0 16c0 0.276 0.224 0.5 0.5 0.5v0h23c0.276 0 0.5-0.224 0.5-0.5v0-16c0-0.276-0.224-0.5-0.5-0.5v0zM12 9c0-2.209 1.791-4 4-4s4 1.791 4 4v0 2h-8zM27 27h-22v-15h22z"></path>
<path d="M12 14.5c0 0.276-0.224 0.5-0.5 0.5s-0.5-0.224-0.5-0.5c0-0.276 0.224-0.5 0.5-0.5s0.5 0.224 0.5 0.5z"></path>
<path d="M21 14.5c0 0.276-0.224 0.5-0.5 0.5s-0.5-0.224-0.5-0.5c0-0.276 0.224-0.5 0.5-0.5s0.5 0.224 0.5 0.5z"></path>
</svg>
