<svg version="1.1" xmlns="http://www.w3.org/2000/svg" width="32" height="32" viewBox="0 0 32 32">
<title>shower</title>
<path d="M27.9 17.2l-4.8-6.4c-0.736-0.969-1.837-1.627-3.094-1.771l-0.021-0.002c-0.261-3.931-3.511-7.022-7.485-7.027h-1c-4.14 0.005-7.495 3.36-7.5 7.5v18c0 0.276 0.224 0.5 0.5 0.5s0.5-0.224 0.5-0.5v0-18c0.005-3.588 2.912-6.495 6.5-6.5h1c3.423 0.005 6.226 2.65 6.482 6.008l0.001 0.022c-1.265 0.154-2.353 0.81-3.075 1.759l-0.008 0.011-4.8 6.4c-0.062 0.083-0.1 0.187-0.1 0.3 0 0.276 0.224 0.5 0.5 0.5v0h16c0.276 0 0.5-0.224 0.5-0.5 0-0.113-0.038-0.217-0.101-0.301l0.001 0.001zM12.5 17l4.2-5.6c0.645-0.854 1.659-1.4 2.8-1.4s2.155 0.546 2.794 1.391l0.006 0.009 4.2 5.6z"></path>
<path d="M22.5 20c-0.276 0-0.5 0.224-0.5 0.5v0 2c0 0.276 0.224 0.5 0.5 0.5s0.5-0.224 0.5-0.5v0-2c0-0.276-0.224-0.5-0.5-0.5v0z"></path>
<path d="M22.5 25c-0.276 0-0.5 0.224-0.5 0.5v0 2c0 0.276 0.224 0.5 0.5 0.5s0.5-0.224 0.5-0.5v0-2c0-0.276-0.224-0.5-0.5-0.5v0z"></path>
<path d="M25.5 20c-0.276 0-0.5 0.224-0.5 0.5v0 2c0 0.276 0.224 0.5 0.5 0.5s0.5-0.224 0.5-0.5v0-2c0-0.276-0.224-0.5-0.5-0.5v0z"></path>
<path d="M25.5 25c-0.276 0-0.5 0.224-0.5 0.5v0 2c0 0.276 0.224 0.5 0.5 0.5s0.5-0.224 0.5-0.5v0-2c0-0.276-0.224-0.5-0.5-0.5v0z"></path>
<path d="M19.5 20c-0.276 0-0.5 0.224-0.5 0.5v0 2c0 0.276 0.224 0.5 0.5 0.5s0.5-0.224 0.5-0.5v0-2c0-0.276-0.224-0.5-0.5-0.5v0z"></path>
<path d="M19.5 25c-0.276 0-0.5 0.224-0.5 0.5v0 2c0 0.276 0.224 0.5 0.5 0.5s0.5-0.224 0.5-0.5v0-2c0-0.276-0.224-0.5-0.5-0.5v0z"></path>
<path d="M16.5 20c-0.276 0-0.5 0.224-0.5 0.5v0 2c0 0.276 0.224 0.5 0.5 0.5s0.5-0.224 0.5-0.5v0-2c0-0.276-0.224-0.5-0.5-0.5v0z"></path>
<path d="M16.5 25c-0.276 0-0.5 0.224-0.5 0.5v0 2c0 0.276 0.224 0.5 0.5 0.5s0.5-0.224 0.5-0.5v0-2c0-0.276-0.224-0.5-0.5-0.5v0z"></path>
<path d="M13.5 20c-0.276 0-0.5 0.224-0.5 0.5v0 2c0 0.276 0.224 0.5 0.5 0.5s0.5-0.224 0.5-0.5v0-2c0-0.276-0.224-0.5-0.5-0.5v0z"></path>
<path d="M13.5 25c-0.276 0-0.5 0.224-0.5 0.5v0 2c0 0.276 0.224 0.5 0.5 0.5s0.5-0.224 0.5-0.5v0-2c0-0.276-0.224-0.5-0.5-0.5v0z"></path>
</svg>
