<svg version="1.1" xmlns="http://www.w3.org/2000/svg" width="32" height="32" viewBox="0 0 32 32">
<title>sign-language</title>
<path d="M29.414 20.364c-0.242-0.243-0.546-0.423-0.886-0.516l-0.014-0.003 0.187-0.188h0.008l0.038-0.039c0.011-0.015 0.022-0.031 0.031-0.048l0.001-0.002c0.315-0.351 0.507-0.817 0.507-1.327 0-0.964-0.685-1.768-1.594-1.951l-0.013-0.002c0.126-0.255 0.199-0.554 0.199-0.871 0-0.553-0.224-1.053-0.585-1.416l0 0c-0.367-0.357-0.87-0.578-1.424-0.578-0.311 0-0.606 0.070-0.87 0.194l0.012-0.005c-0.081-0.404-0.275-0.754-0.547-1.025l-0-0c-0.367-0.351-0.866-0.567-1.415-0.567s-1.048 0.216-1.415 0.568l0.001-0.001-5.782 5.782c-0.091 0.091-0.216 0.147-0.354 0.147-0.276 0-0.5-0.224-0.5-0.5v0-2.894c0-1.105-0.895-2-2-2v0 0c-1.105 0-2 0.895-2 2v0 8.449c0 0.004-0 0.008-0 0.012 0 1.239 0.504 2.36 1.318 3.169l3.1 3.1c0.091 0.090 0.215 0.146 0.354 0.146 0.276 0 0.5-0.224 0.5-0.5 0-0.138-0.056-0.263-0.147-0.354v0l-3.1-3.1c-0.633-0.63-1.025-1.502-1.025-2.465 0-0.003 0-0.005 0-0.008v0-8.449c0-0.552 0.448-1 1-1v0 0c0.552 0 1 0.448 1 1v0 2.894c0 0.828 0.672 1.5 1.5 1.5 0.414 0 0.79-0.168 1.061-0.44l5.782-5.782c0.184-0.175 0.433-0.283 0.707-0.283s0.524 0.108 0.708 0.283l-0-0c0.181 0.181 0.293 0.431 0.293 0.707s-0.112 0.526-0.293 0.707l-4.6 4.6c-0.091 0.091-0.147 0.216-0.147 0.354 0 0.276 0.224 0.5 0.5 0.5 0 0 0.001 0 0.001 0h-0c0.138-0 0.263-0.056 0.353-0.147v0l5.3-5.3c0.183-0.175 0.433-0.283 0.707-0.283s0.524 0.108 0.707 0.284l-0-0c0.181 0.181 0.293 0.431 0.293 0.707s-0.112 0.527-0.293 0.708v0l-5.3 5.3c-0.087 0.090-0.14 0.212-0.14 0.347 0 0.276 0.224 0.5 0.5 0.5 0.135 0 0.258-0.053 0.348-0.14l4.6-4.6c0.175-0.154 0.406-0.248 0.659-0.248 0.552 0 1 0.448 1 1 0 0.252-0.093 0.482-0.247 0.657l0.001-0.001-4.6 4.6c-0.090 0.090-0.146 0.215-0.146 0.353 0 0.276 0.224 0.5 0.5 0.5v0c0.001 0 0.002 0 0.002 0 0.137 0 0.261-0.056 0.351-0.146l3.181-3.181c0.182-0.188 0.437-0.305 0.719-0.305 0.552 0 1 0.448 1 1 0 0.282-0.117 0.537-0.305 0.719l-6.661 6.661c-0.091 0.091-0.147 0.216-0.147 0.354 0 0.276 0.224 0.5 0.5 0.5 0.138 0 0.263-0.056 0.354-0.146v0l6.661-6.662c0.363-0.362 0.588-0.863 0.588-1.416 0-0.551-0.223-1.050-0.583-1.412l0 0z"></path>
<path d="M4.707 13.293l1.732 1.732c0.271 0.272 0.647 0.44 1.061 0.44 0.828 0 1.5-0.672 1.5-1.5 0-0 0-0 0-0.001v0-8.964c0-0.552 0.448-1 1-1s1 0.448 1 1v0 6.5c0 0.276 0.224 0.5 0.5 0.5s0.5-0.224 0.5-0.5v0-7.5c0-0.552 0.448-1 1-1s1 0.448 1 1v0 7.5c0 0.276 0.224 0.5 0.5 0.5s0.5-0.224 0.5-0.5v0-6.5c0-0.552 0.448-1 1-1s1 0.448 1 1v0 6.5c0 0.276 0.224 0.5 0.5 0.5s0.5-0.224 0.5-0.5v0-4.5c0-0.552 0.448-1 1-1s1 0.448 1 1v0 4.5c0 0.276 0.224 0.5 0.5 0.5s0.5-0.224 0.5-0.5v0-4.5c-0.001-1.104-0.896-1.999-2-1.999-0.368 0-0.713 0.099-1.009 0.273l0.009-0.005v-0.323c0-0.016-0.008-0.029-0.009-0.045-0.052-1.060-0.924-1.899-1.992-1.899-0.413 0-0.797 0.126-1.115 0.341l0.007-0.005c-0.281-0.787-1.020-1.34-1.888-1.34s-1.607 0.553-1.884 1.326l-0.004 0.014c-0.313-0.213-0.699-0.34-1.115-0.34-1.105 0-2 0.895-2 2 0 0.001 0 0.001 0 0.002v-0 8.964c0 0 0 0.001 0 0.001 0 0.276-0.224 0.5-0.5 0.5-0.138 0-0.263-0.056-0.354-0.147v0l-1.732-1.732c-0.367-0.351-0.865-0.567-1.414-0.567s-1.047 0.216-1.415 0.568l0.001-0.001c-0.362 0.362-0.586 0.862-0.586 1.414s0.224 1.052 0.586 1.414l5.268 5.268c0.405 0.407 0.888 0.735 1.425 0.961l0.029 0.011c0.056 0.025 0.122 0.039 0.191 0.039 0.001 0 0.001 0 0.002 0h-0c0 0 0.001 0 0.001 0 0.276 0 0.5-0.224 0.5-0.5 0-0.207-0.126-0.385-0.306-0.461l-0.003-0.001c-0.44-0.185-0.816-0.44-1.131-0.756l-5.268-5.268c-0.181-0.181-0.293-0.431-0.293-0.707s0.112-0.526 0.293-0.707v0c0.183-0.176 0.433-0.284 0.707-0.284s0.524 0.108 0.707 0.284l-0-0z"></path>
</svg>
