<svg version="1.1" xmlns="http://www.w3.org/2000/svg" width="32" height="32" viewBox="0 0 32 32">
<title>sign-out</title>
<path d="M29.707 15.293l-6-6c-0.18-0.174-0.425-0.281-0.695-0.281-0.552 0-1 0.448-1 1 0 0.27 0.107 0.515 0.281 0.695l4.293 4.293h-17.586c-0.552 0-1 0.448-1 1s0.448 1 1 1v0h17.586l-4.293 4.293c-0.188 0.182-0.305 0.437-0.305 0.719 0 0.552 0.448 1 1 1 0.282 0 0.537-0.117 0.719-0.305l6-6c0.181-0.181 0.293-0.431 0.293-0.707s-0.112-0.526-0.293-0.707v0z"></path>
<path d="M19.5 21c-0.276 0-0.5 0.224-0.5 0.5v0 3.5c0 1.105-0.895 2-2 2v0h-10c-1.105 0-2-0.895-2-2v0-18c0-1.105 0.895-2 2-2v0h10c1.105 0 2 0.895 2 2v0 3.5c0 0.276 0.224 0.5 0.5 0.5s0.5-0.224 0.5-0.5v0-3.5c0-1.657-1.343-3-3-3v0h-10c-1.657 0-3 1.343-3 3v0 18c0 1.657 1.343 3 3 3v0h10c1.657 0 3-1.343 3-3v0-3.5c0-0.276-0.224-0.5-0.5-0.5v0z"></path>
</svg>
