<svg id="Layer_1" data-name="Layer 1" xmlns="http://www.w3.org/2000/svg" width="32" height="32" viewBox="0 0 32 32"><path d="M18.689,16.29l-2.922-1.5A1.465,1.465,0,0,1,15,13.429,1.4,1.4,0,0,1,16.375,12h1.25A1.4,1.4,0,0,1,19,13.429a.5.5,0,1,0,1,0A2.4,2.4,0,0,0,17.625,11h-1.25a2.49,2.49,0,0,0-1.064,4.681l2.922,1.5A1.428,1.428,0,0,1,19,18.46v.111A1.4,1.4,0,0,1,17.625,20h-1.25A1.4,1.4,0,0,1,15,18.571a.5.5,0,1,0-1,0A2.4,2.4,0,0,0,16.375,21h1.25A2.4,2.4,0,0,0,20,18.571V18.46A2.42,2.42,0,0,0,18.689,16.29Z"/></svg>