<svg id="Layer_1" data-name="Layer 1" xmlns="http://www.w3.org/2000/svg" width="32" height="32" viewBox="0 0 32 32"><path d="M18.743,11.063a.5.5,0,0,0-.68.194L16,14.971l-2.063-3.714a.5.5,0,0,0-.874.486L15.428,16l-2.365,4.257a.5.5,0,0,0,.194.68A.5.5,0,0,0,13.5,21a.5.5,0,0,0,.437-.257L16,17.029l2.063,3.714A.5.5,0,0,0,18.5,21a.5.5,0,0,0,.243-.063.5.5,0,0,0,.194-.68L16.572,16l2.365-4.257A.5.5,0,0,0,18.743,11.063Z"/><path d="M11.743,11.063a.5.5,0,0,0-.68.194L9,14.971,6.937,11.257a.5.5,0,1,0-.874.486L8.428,16,6.063,20.257a.5.5,0,0,0,.194.68A.5.5,0,0,0,6.5,21a.5.5,0,0,0,.437-.257L9,17.029l2.063,3.714A.5.5,0,0,0,11.5,21a.5.5,0,0,0,.243-.063.5.5,0,0,0,.194-.68L9.572,16l2.365-4.257A.5.5,0,0,0,11.743,11.063Z"/><path d="M26.5,20H22V11.5a.5.5,0,0,0-1,0v9a.5.5,0,0,0,.5.5h5a.5.5,0,0,0,0-1Z"/></svg>