<svg id="Layer_1" data-name="Layer 1" xmlns="http://www.w3.org/2000/svg" width="32" height="32" viewBox="0 0 32 32"><path d="M21.689,16.29l-2.922-1.5A1.465,1.465,0,0,1,18,13.429,1.4,1.4,0,0,1,19.375,12h1.25A1.4,1.4,0,0,1,22,13.429a.5.5,0,1,0,1,0A2.4,2.4,0,0,0,20.625,11h-1.25a2.49,2.49,0,0,0-1.064,4.681l2.922,1.5A1.428,1.428,0,0,1,22,18.461v.11A1.4,1.4,0,0,1,20.625,20h-1.25A1.4,1.4,0,0,1,18,18.571a.5.5,0,1,0-1,0A2.4,2.4,0,0,0,19.375,21h1.25A2.4,2.4,0,0,0,23,18.571v-.11A2.42,2.42,0,0,0,21.689,16.29Z"/><path d="M14.743,11.063a.5.5,0,0,0-.68.195L12,14.971,9.937,11.258a.5.5,0,1,0-.874.485L11.428,16,9.063,20.257a.5.5,0,0,0,.874.486L12,17.029l2.063,3.714A.5.5,0,0,0,14.5,21a.494.494,0,0,0,.242-.063.5.5,0,0,0,.194-.68L12.572,16l2.365-4.257A.5.5,0,0,0,14.743,11.063Z"/></svg>