<svg id="Layer_1" data-name="Layer 1" xmlns="http://www.w3.org/2000/svg" width="32" height="32" viewBox="0 0 32 32"><path d="M11,12.5c0-.828.448-1.5,1-1.5s1,.672,1,1.5S12.552,14,12,14,11,13.328,11,12.5ZM30,16A14,14,0,1,1,16,2,14.015,14.015,0,0,1,30,16Zm-1,0A13,13,0,1,0,16,29,13.015,13.015,0,0,0,29,16Zm-9-2c.552,0,1-.672,1-1.5S20.552,11,20,11s-1,.672-1,1.5S19.448,14,20,14Zm1.918,4.774a.5.5,0,0,0-.144-.692A.491.491,0,0,0,21.5,18a.5.5,0,0,0-.418.226,6.042,6.042,0,0,1-10.164,0,.5.5,0,0,0-.836.548,7.041,7.041,0,0,0,11.836,0Z"/></svg>