<svg version="1.1" xmlns="http://www.w3.org/2000/svg" width="32" height="32" viewBox="0 0 32 32">
<title>snowflake</title>
<path d="M27.829 18.669l-2.897 0.776c-0.636 0.171-1.325 0.078-1.896-0.249l-5.537-3.196 5.537-3.196c0.57-0.328 1.26-0.42 1.896-0.249l2.897 0.776c0.044 0.011 0.087 0.017 0.13 0.017 0.221 0 0.423-0.147 0.483-0.37 0.071-0.268-0.087-0.541-0.354-0.613l-2.897-0.776c-0.276-0.073-0.561-0.112-0.845-0.117 0.137-0.247 0.244-0.512 0.319-0.791l0.776-2.897c0.071-0.268-0.087-0.541-0.354-0.613-0.269-0.064-0.54 0.088-0.613 0.354l-0.776 2.897c-0.17 0.636-0.595 1.189-1.164 1.519v0l-5.534 3.194v-6.393c0-0.658 0.267-1.302 0.732-1.768l2.121-2.121c0.195-0.195 0.195-0.512 0-0.707s-0.512-0.195-0.707 0l-2.121 2.121c-0.203 0.203-0.379 0.431-0.525 0.675-0.146-0.244-0.322-0.472-0.525-0.675l-2.121-2.121c-0.195-0.195-0.512-0.195-0.707 0s-0.195 0.512 0 0.707l2.121 2.121c0.465 0.466 0.732 1.11 0.732 1.768v6.393l-5.535-3.196c-0.569-0.329-0.994-0.883-1.164-1.519l-0.777-2.898c-0.072-0.265-0.34-0.418-0.613-0.353-0.266 0.072-0.425 0.346-0.353 0.613l0.776 2.897c0.075 0.279 0.183 0.544 0.319 0.791-0.284 0.005-0.568 0.044-0.845 0.117l-2.897 0.776c-0.267 0.072-0.425 0.346-0.354 0.613 0.061 0.223 0.263 0.37 0.483 0.37 0.043 0 0.086-0.006 0.13-0.017l2.897-0.776c0.634-0.172 1.324-0.079 1.896 0.249l5.538 3.198-5.537 3.196c-0.57 0.328-1.26 0.421-1.896 0.249l-2.897-0.776c-0.271-0.065-0.541 0.088-0.613 0.353-0.071 0.268 0.087 0.541 0.354 0.613l2.897 0.776c0.276 0.073 0.561 0.112 0.845 0.117-0.137 0.247-0.244 0.512-0.319 0.791l-0.776 2.897c-0.071 0.268 0.087 0.541 0.354 0.613 0.044 0.011 0.087 0.017 0.13 0.017 0.221 0 0.423-0.147 0.483-0.37l0.776-2.897c0.17-0.636 0.595-1.189 1.164-1.519v0l5.534-3.195v6.393c0 0.658-0.267 1.302-0.732 1.768l-2.121 2.121c-0.195 0.195-0.195 0.512 0 0.707s0.512 0.195 0.707 0l2.121-2.121c0.203-0.203 0.379-0.431 0.525-0.675 0.146 0.244 0.322 0.472 0.525 0.675l2.121 2.121c0.098 0.097 0.226 0.146 0.354 0.146s0.256-0.049 0.354-0.146c0.195-0.195 0.195-0.512 0-0.707l-2.121-2.121c-0.466-0.466-0.733-1.11-0.733-1.768v-6.393l5.535 3.196c0.569 0.329 0.994 0.883 1.164 1.519l0.776 2.897c0.061 0.223 0.263 0.37 0.483 0.37 0.043 0 0.086-0.006 0.13-0.017 0.267-0.072 0.425-0.346 0.354-0.613l-0.776-2.897c-0.075-0.279-0.183-0.544-0.319-0.791 0.284-0.005 0.568-0.044 0.845-0.117l2.897-0.776c0.267-0.072 0.425-0.346 0.354-0.613-0.073-0.266-0.346-0.419-0.614-0.354z"></path>
</svg>
