<svg version="1.1" xmlns="http://www.w3.org/2000/svg" width="32" height="32" viewBox="0 0 32 32">
<title>soccer-ball-o</title>
<path d="M27.993 16.36c-0.001-0.032 0.002-0.063-0.005-0.094-0.048-2.349-0.799-4.524-2.056-6.327-0.030-0.070-0.076-0.131-0.136-0.181-2.092-2.877-5.475-4.758-9.296-4.758s-7.204 1.881-9.296 4.758c-0.060 0.050-0.105 0.111-0.136 0.181-1.258 1.803-2.009 3.979-2.056 6.327-0.007 0.031-0.004 0.062-0.005 0.094 0 0.048-0.007 0.093-0.007 0.14 0 2.526 0.829 4.857 2.215 6.757 0.031 0.077 0.082 0.142 0.145 0.194 2.102 2.758 5.412 4.549 9.14 4.549 3.734 0 7.048-1.797 9.15-4.563 0.055-0.048 0.099-0.106 0.13-0.173 1.389-1.9 2.22-4.234 2.22-6.764 0-0.047-0.007-0.092-0.007-0.14zM25.602 11.288c0.707 1.229 1.177 2.61 1.335 4.085l-2.23-1.54 0.895-2.545zM24.91 10.241l-1.196 3.4-2.143 0.799-4.571-3.201v-2.491l2.862-2.186c2.035 0.69 3.787 1.989 5.048 3.679zM20.899 15.189l-1.75 4.811h-5.299l-1.75-4.811 4.4-3.079 4.399 3.079zM16.5 6c0.739 0 1.459 0.079 2.156 0.225l-2.156 1.646-2.156-1.646c0.697-0.146 1.417-0.225 2.156-0.225zM13.138 6.562l2.862 2.186v2.492l-4.572 3.2-2.143-0.799-1.196-3.4c1.262-1.69 3.014-2.989 5.049-3.679zM7.398 11.288l0.895 2.545-2.23 1.54c0.158-1.475 0.628-2.856 1.335-4.085zM7.943 22.564c-1.196-1.682-1.91-3.726-1.937-5.936l2.955-2.040 2.148 0.8 1.833 5.040-1.411 2.050-3.588 0.086zM8.737 23.545l2.69-0.064 0.773 2.588c-1.324-0.597-2.498-1.462-3.463-2.524zM19.618 26.527c-0.985 0.307-2.033 0.473-3.118 0.473s-2.133-0.166-3.118-0.473l-1.036-3.469 1.417-2.058h5.474l1.417 2.059-1.036 3.468zM20.8 26.069l0.773-2.588 2.69 0.064c-0.965 1.062-2.139 1.927-3.463 2.524zM25.057 22.564l-3.587-0.085-1.411-2.050 1.833-5.040 2.148-0.8 2.955 2.040c-0.028 2.209-0.743 4.253-1.938 5.935z"></path>
</svg>
