<svg version="1.1" xmlns="http://www.w3.org/2000/svg" width="32" height="32" viewBox="0 0 32 32">
<title>sort-numeric-asc</title>
<path d="M22.724 6.947l1.276-0.638v7.191c0 0.276 0.224 0.5 0.5 0.5s0.5-0.224 0.5-0.5v-8c0-0.173-0.090-0.334-0.237-0.426-0.147-0.089-0.332-0.1-0.486-0.021l-2 1c-0.247 0.124-0.347 0.424-0.224 0.671s0.423 0.347 0.671 0.223z"></path>
<path d="M25.5 18h-4c-0.276 0-0.5 0.224-0.5 0.5v4c0 0.276 0.224 0.5 0.5 0.5h3.5v3.5c0 0.276 0.224 0.5 0.5 0.5s0.5-0.224 0.5-0.5v-8c0-0.276-0.224-0.5-0.5-0.5zM22 22v-3h3v3h-3z"></path>
<path d="M14.146 21.146l-4.146 4.147v-19.793c0-0.276-0.224-0.5-0.5-0.5s-0.5 0.224-0.5 0.5v19.793l-4.146-4.146c-0.195-0.195-0.512-0.195-0.707 0s-0.195 0.512 0 0.707l5 5c0.097 0.097 0.225 0.146 0.353 0.146s0.256-0.049 0.354-0.146l5-5c0.195-0.195 0.195-0.512 0-0.707s-0.512-0.196-0.708-0.001z"></path>
</svg>
