<svg version="1.1" xmlns="http://www.w3.org/2000/svg" width="32" height="32" viewBox="0 0 32 32">
<title>sort-amount-asc</title>
<path d="M7.854 5.146c-0.195-0.195-0.512-0.195-0.707 0l-5 5c-0.195 0.195-0.195 0.512 0 0.707s0.512 0.195 0.707 0l4.146-4.146v19.793c0 0.276 0.224 0.5 0.5 0.5s0.5-0.224 0.5-0.5v-19.793l4.146 4.146c0.098 0.098 0.226 0.147 0.354 0.147s0.256-0.049 0.354-0.146c0.195-0.195 0.195-0.512 0-0.707l-5-5.001z"></path>
<path d="M18.5 13h3c0.276 0 0.5-0.224 0.5-0.5s-0.224-0.5-0.5-0.5h-3c-0.276 0-0.5 0.224-0.5 0.5s0.224 0.5 0.5 0.5z"></path>
<path d="M18.5 17h7c0.276 0 0.5-0.224 0.5-0.5s-0.224-0.5-0.5-0.5h-7c-0.276 0-0.5 0.224-0.5 0.5s0.224 0.5 0.5 0.5z"></path>
<path d="M29.5 20h-11c-0.276 0-0.5 0.224-0.5 0.5s0.224 0.5 0.5 0.5h11c0.276 0 0.5-0.224 0.5-0.5s-0.224-0.5-0.5-0.5z"></path>
</svg>
