<svg version="1.1" xmlns="http://www.w3.org/2000/svg" width="32" height="32" viewBox="0 0 32 32">
<title>sort-alpha-desc</title>
<path d="M14.146 21.146l-4.146 4.147v-19.793c0-0.276-0.224-0.5-0.5-0.5s-0.5 0.224-0.5 0.5v19.793l-4.146-4.146c-0.195-0.195-0.512-0.195-0.707 0s-0.195 0.512 0 0.707l5 5c0.097 0.097 0.225 0.146 0.353 0.146s0.256-0.049 0.354-0.146l5-5c0.195-0.195 0.195-0.512 0-0.707s-0.512-0.196-0.708-0.001z"></path>
<path d="M21.5 6h3.191l-3.639 7.276c-0.077 0.155-0.069 0.339 0.021 0.486 0.093 0.148 0.254 0.238 0.427 0.238h4c0.276 0 0.5-0.224 0.5-0.5s-0.224-0.5-0.5-0.5h-3.191l3.639-7.276c0.077-0.155 0.069-0.339-0.021-0.486-0.093-0.148-0.254-0.238-0.427-0.238h-4c-0.276 0-0.5 0.224-0.5 0.5s0.224 0.5 0.5 0.5z"></path>
<path d="M24.5 18h-2c-0.827 0-1.5 0.673-1.5 1.5v7c0 0.276 0.224 0.5 0.5 0.5s0.5-0.224 0.5-0.5v-3.5h3v3.5c0 0.276 0.224 0.5 0.5 0.5s0.5-0.224 0.5-0.5v-7c0-0.827-0.673-1.5-1.5-1.5zM22 22v-2.5c0-0.275 0.225-0.5 0.5-0.5h2c0.275 0 0.5 0.225 0.5 0.5v2.5h-3z"></path>
</svg>
