<svg version="1.1" xmlns="http://www.w3.org/2000/svg" width="32" height="32" viewBox="0 0 32 32">
<title>space-shuttle</title>
<path d="M29.361 14.807l-1.576-1.051c-0.742-0.495-1.604-0.756-2.496-0.756h-1.789c-4.551 0-6.788-2.119-9.156-4.363-2.406-2.28-4.895-4.637-9.844-4.637-0.276 0-0.5 0.224-0.5 0.5v5.5h-2v4h3v4h-3v4h2v5.5c0 0.276 0.224 0.5 0.5 0.5 4.949 0 7.438-2.357 9.844-4.637 2.368-2.244 4.605-4.363 9.156-4.363h1.789c0.892 0 1.754-0.261 2.496-0.756l1.576-1.051c0.401-0.266 0.639-0.712 0.639-1.193s-0.238-0.927-0.639-1.193zM18.549 13h-8.549v-6.596c1.375 0.804 2.501 1.865 3.656 2.959 1.433 1.358 2.9 2.739 4.893 3.637zM5 5.009c1.586 0.056 2.88 0.381 4 0.878v7.113h-1.278c0.172-0.295 0.278-0.634 0.278-1 0-1.103-0.897-2-2-2h-1v-4.991zM3 13v-2h3c0.552 0 1 0.449 1 1s-0.448 1-1 1h-3zM3 19h3c0.552 0 1 0.449 1 1s-0.448 1-1 1h-3v-2zM5 22h1c1.103 0 2-0.897 2-2 0-0.366-0.106-0.705-0.278-1h1.278v7.113c-1.12 0.498-2.414 0.822-4 0.878v-4.991zM13.656 22.637c-1.155 1.094-2.281 2.156-3.656 2.959v-6.596h8.549c-1.993 0.898-3.46 2.279-4.893 3.637zM28.807 16.361l-1.576 1.051c-0.578 0.385-1.249 0.588-1.942 0.588h-19.289v-4h19.289c0.693 0 1.364 0.203 1.941 0.588l1.576 1.051c0.122 0.080 0.194 0.215 0.194 0.361s-0.072 0.281-0.193 0.361z"></path>
<path d="M25.945 15.436c-0.032-0.25-0.245-0.436-0.496-0.436h-0.949c-0.276 0-0.5 0.224-0.5 0.5v1c0 0.276 0.224 0.5 0.5 0.5h0.949c0.251 0 0.464-0.186 0.496-0.436l0.014-0.1c0.021-0.152 0.041-0.305 0.041-0.464s-0.020-0.312-0.041-0.465l-0.014-0.099z"></path>
</svg>
