<svg version="1.1" xmlns="http://www.w3.org/2000/svg" width="32" height="32" viewBox="0 0 32 32">
<title>spinner</title>
<path d="M21.083 5.141c-0.248-0.117-0.547-0.010-0.665 0.24s-0.009 0.548 0.241 0.665c3.852 1.807 6.341 5.714 6.341 9.954 0 6.065-4.935 11-11 11s-11-4.935-11-11c0-4.24 2.489-8.147 6.341-9.954 0.25-0.117 0.358-0.415 0.241-0.665-0.119-0.25-0.416-0.357-0.665-0.24-4.202 1.971-6.917 6.233-6.917 10.859 0 6.617 5.383 12 12 12s12-5.383 12-12c0-4.626-2.715-8.888-6.917-10.859z"></path>
<path d="M16 7c1.379 0 2.5-1.122 2.5-2.5s-1.121-2.5-2.5-2.5-2.5 1.122-2.5 2.5 1.121 2.5 2.5 2.5zM16 3c0.827 0 1.5 0.673 1.5 1.5s-0.673 1.5-1.5 1.5-1.5-0.673-1.5-1.5 0.673-1.5 1.5-1.5z"></path>
</svg>
