<svg version="1.1" xmlns="http://www.w3.org/2000/svg" width="32" height="32" viewBox="0 0 32 32">
<title>spoon</title>
<path d="M16 2c-2.757 0-5 3.141-5 7 0 2.474 0.898 4.71 2.403 5.982 0.385 0.328 0.597 0.751 0.597 1.196v11.822c0 1.103 0.897 2 2 2s2-0.897 2-2v-11.822c0-0.444 0.212-0.868 0.597-1.194 1.505-1.274 2.403-3.51 2.403-5.984 0-3.859-2.243-7-5-7zM17.95 14.221c-0.603 0.511-0.95 1.225-0.95 1.957v11.822c0 0.552-0.448 1-1 1s-1-0.448-1-1v-11.822c0-0.731-0.347-1.445-0.95-1.958-1.265-1.070-2.050-3.070-2.050-5.22 0-3.309 1.794-6 4-6s4 2.691 4 6c0 2.15-0.785 4.15-2.050 5.221z"></path>
<path d="M15.152 6.042c-0.252-0.108-0.547 0.005-0.658 0.258-0.136 0.31-0.248 0.68-0.334 1.1-0.055 0.271 0.12 0.534 0.391 0.59 0.033 0.007 0.067 0.010 0.1 0.010 0.232 0 0.44-0.163 0.489-0.4 0.071-0.351 0.162-0.653 0.27-0.899 0.111-0.254-0.005-0.549-0.258-0.659z"></path>
</svg>
