<svg version="1.1" xmlns="http://www.w3.org/2000/svg" width="32" height="32" viewBox="0 0 32 32">
<title>star-half-o</title>
<path d="M28.977 13.134c-0.062-0.197-0.24-0.336-0.447-0.348l-8.83-0.52-3.237-7.954c-0.152-0.377-0.773-0.377-0.926 0l-3.237 7.954-8.829 0.521c-0.207 0.012-0.385 0.15-0.447 0.348s0.003 0.413 0.165 0.542l6.815 5.432-2.213 8.264c-0.053 0.197 0.021 0.407 0.185 0.53 0.164 0.121 0.386 0.131 0.562 0.024l7.462-4.603 7.463 4.602c0.081 0.050 0.172 0.074 0.263 0.074 0.105 0 0.21-0.033 0.299-0.099 0.164-0.123 0.237-0.333 0.185-0.53l-2.213-8.264 6.815-5.432c0.162-0.128 0.227-0.344 0.165-0.541zM21.117 18.53c-0.155 0.124-0.223 0.328-0.172 0.52l1.972 7.364-6.654-4.104c-0.081-0.050-0.172-0.074-0.263-0.074v-16.41l2.893 7.108c0.072 0.179 0.241 0.3 0.434 0.311l7.842 0.462-6.052 4.823z"></path>
</svg>
