<svg version="1.1" xmlns="http://www.w3.org/2000/svg" width="32" height="32" viewBox="0 0 32 32">
<title>star</title>
<path d="M28.977 13.134c-0.062-0.197-0.24-0.336-0.447-0.348l-8.83-0.52-3.237-7.954c-0.152-0.377-0.773-0.377-0.926 0l-3.237 7.954-8.829 0.521c-0.207 0.012-0.385 0.15-0.447 0.348s0.003 0.413 0.165 0.542l6.815 5.432-2.213 8.264c-0.053 0.197 0.021 0.407 0.185 0.53 0.165 0.122 0.385 0.131 0.562 0.024l7.462-4.603 7.463 4.602c0.081 0.050 0.172 0.074 0.263 0.074 0.105 0 0.21-0.033 0.299-0.099 0.164-0.123 0.237-0.333 0.185-0.53l-2.213-8.264 6.815-5.432c0.162-0.128 0.227-0.344 0.165-0.541z"></path>
</svg>
