<svg version="1.1" xmlns="http://www.w3.org/2000/svg" width="32" height="32" viewBox="0 0 32 32">
<title>step-backward</title>
<path d="M22.738 8.061c-0.16-0.087-0.355-0.080-0.511 0.020l-10 6.5c-0.141 0.092-0.227 0.25-0.227 0.419s0.086 0.327 0.228 0.419l10 6.5c0.083 0.054 0.177 0.081 0.272 0.081 0.082 0 0.164-0.020 0.238-0.061 0.161-0.087 0.262-0.256 0.262-0.439v-13c0-0.183-0.101-0.352-0.262-0.439zM22 20.579l-8.583-5.579 8.583-5.579v11.158z"></path>
<path d="M9.5 8c-0.276 0-0.5 0.224-0.5 0.5v13c0 0.276 0.224 0.5 0.5 0.5s0.5-0.224 0.5-0.5v-13c0-0.276-0.224-0.5-0.5-0.5z"></path>
</svg>
