<svg version="1.1" xmlns="http://www.w3.org/2000/svg" width="32" height="32" viewBox="0 0 32 32">
<title>sticky-note-o</title>
<path d="M20.086 28h-14.586c-0.827 0-1.5-0.673-1.5-1.5v-21c0-0.827 0.673-1.5 1.5-1.5h21c0.827 0 1.5 0.673 1.5 1.5v14.586c0 0.395-0.16 0.781-0.439 1.061l-6.414 6.414c-0.28 0.279-0.667 0.439-1.061 0.439zM5.5 5c-0.275 0-0.5 0.225-0.5 0.5v21c0 0.275 0.225 0.5 0.5 0.5h14.586c0.132 0 0.261-0.054 0.354-0.146l6.414-6.414c0.092-0.093 0.146-0.222 0.146-0.354v-14.586c0-0.275-0.225-0.5-0.5-0.5h-21z"></path>
<path d="M21 27.5h-1v-6c0-0.827 0.673-1.5 1.5-1.5h6v1h-6c-0.275 0-0.5 0.225-0.5 0.5v6z"></path>
</svg>
