<svg version="1.1" xmlns="http://www.w3.org/2000/svg" width="32" height="32" viewBox="0 0 32 32">
<title>sticky-note</title>
<path d="M26.5 4h-21c-0.827 0-1.5 0.673-1.5 1.5v21c0 0.827 0.673 1.5 1.5 1.5h14.586c0.395 0 0.781-0.16 1.061-0.439l6.414-6.414c0.279-0.28 0.439-0.667 0.439-1.061v-14.586c0-0.827-0.673-1.5-1.5-1.5zM25.5 21h-4c-0.275 0-0.5 0.225-0.5 0.5v4c0 0.276-0.224 0.5-0.5 0.5s-0.5-0.224-0.5-0.5v-4c0-0.827 0.673-1.5 1.5-1.5h4c0.276 0 0.5 0.224 0.5 0.5s-0.224 0.5-0.5 0.5z"></path>
</svg>
