<svg version="1.1" xmlns="http://www.w3.org/2000/svg" width="32" height="32" viewBox="0 0 32 32">
<title>stock-chart</title>
<path d="M29.5 25h-26.5v-20.5c0-0.276-0.224-0.5-0.5-0.5s-0.5 0.224-0.5 0.5v0 21c0 0.276 0.224 0.5 0.5 0.5v0h27c0.276 0 0.5-0.224 0.5-0.5s-0.224-0.5-0.5-0.5v0z"></path>
<path d="M7 20h1v2.5c0 0.276 0.224 0.5 0.5 0.5s0.5-0.224 0.5-0.5v0-2.5h1c0.552 0 1-0.448 1-1v0-7c0-0.552-0.448-1-1-1v0h-1v-2.5c0-0.276-0.224-0.5-0.5-0.5s-0.5 0.224-0.5 0.5v0 2.5h-1c-0.552 0-1 0.448-1 1v0 7c0 0.552 0.448 1 1 1v0zM7 12h3v7h-3z"></path>
<path d="M23 20h1v2.5c0 0.276 0.224 0.5 0.5 0.5s0.5-0.224 0.5-0.5v0-2.5h1c0.552 0 1-0.448 1-1v0-7c0-0.552-0.448-1-1-1v0h-1v-2.5c0-0.276-0.224-0.5-0.5-0.5s-0.5 0.224-0.5 0.5v0 2.5h-1c-0.552 0-1 0.448-1 1v0 7c0 0.552 0.448 1 1 1v0zM23 12h3v7h-3z"></path>
<path d="M15 16h1v2.5c0 0.276 0.224 0.5 0.5 0.5s0.5-0.224 0.5-0.5v0-2.5h1c0.552 0 1-0.448 1-1v0-7c0-0.552-0.448-1-1-1v0h-1v-2.5c0-0.276-0.224-0.5-0.5-0.5s-0.5 0.224-0.5 0.5v0 2.5h-1c-0.552 0-1 0.448-1 1v0 7c0 0.552 0.448 1 1 1v0zM15 8h3v7h-3z"></path>
</svg>
