<svg version="1.1" xmlns="http://www.w3.org/2000/svg" width="32" height="32" viewBox="0 0 32 32">
<title>street-view</title>
<path d="M16 8c1.657 0 3-1.343 3-3s-1.343-3-3-3c-1.657 0-3 1.343-3 3v0c0 1.657 1.343 3 3 3v0zM16 3c1.105 0 2 0.895 2 2s-0.895 2-2 2c-1.105 0-2-0.895-2-2v0c0-1.105 0.895-2 2-2v0z"></path>
<path d="M12.759 19.925c0.153 0.406 0.241 0.876 0.241 1.366 0 0 0 0.001 0 0.001v-0 4.208c0 0.276 0.224 0.5 0.5 0.5v0h5c0.276 0 0.5-0.224 0.5-0.5v0-4.208c0-0 0-0 0-0 0-0.49 0.088-0.959 0.249-1.393l-0.009 0.028 1.46-4.013c0.19-0.507 0.3-1.094 0.3-1.706 0-0.001 0-0.002 0-0.002v0-3.205c0-1.105-0.895-2-2-2v0h-6c-1.105 0-2 0.895-2 2v0 3.205c0 0.002 0 0.004 0 0.006 0 0.611 0.11 1.196 0.311 1.737l-0.011-0.034zM12 11c0-0.552 0.448-1 1-1v0h6c0.552 0 1 0.448 1 1v0 3.205c0 0 0 0.001 0 0.001 0 0.49-0.088 0.959-0.249 1.392l0.009-0.028-1.46 4.014c-0.19 0.507-0.3 1.094-0.3 1.706 0 0 0 0.001 0 0.001v-0 3.708h-4v-3.708c0-0.001 0-0.003 0-0.004 0-0.611-0.11-1.197-0.311-1.738l0.011 0.035-1.458-4.013c-0.153-0.406-0.242-0.876-0.242-1.366v-0z"></path>
<path d="M22.476 21.061c-0.058-0.025-0.125-0.040-0.196-0.040-0.276 0-0.5 0.224-0.5 0.5 0 0.22 0.143 0.408 0.341 0.474l0.004 0.001c2.052 0.772 3.276 1.894 3.276 3 0 1.932-3.777 4-9.4 4s-9.4-2.068-9.4-4c0-1.11 1.225-2.232 3.276-3 0.202-0.068 0.344-0.255 0.344-0.475 0-0.276-0.224-0.5-0.5-0.5-0.071 0-0.138 0.015-0.199 0.041l0.003-0.001c-2.494 0.939-3.924 2.373-3.924 3.939 0 2.8 4.568 5 10.4 5s10.4-2.2 10.4-5c0-1.566-1.43-3-3.924-3.939z"></path>
</svg>
