<svg version="1.1" xmlns="http://www.w3.org/2000/svg" width="32" height="32" viewBox="0 0 32 32">
<title>strikethrough</title>
<path d="M17.055 17h10.445c0.276 0 0.5-0.224 0.5-0.5s-0.224-0.5-0.5-0.5h-10.239l-3.512-1.517c-1.722-0.743-2.749-1.952-2.749-3.233 0-2.343 2.243-4.25 5-4.25s5 1.907 5 4.25c0 0.276 0.224 0.5 0.5 0.5s0.5-0.224 0.5-0.5c0-2.895-2.691-5.25-6-5.25s-6 2.355-6 5.25c0 1.693 1.253 3.245 3.353 4.151l1.386 0.599h-10.239c-0.276 0-0.5 0.224-0.5 0.5s0.224 0.5 0.5 0.5h12.555z"></path>
<path d="M20.755 18h-1.597c1.164 0.733 1.842 1.716 1.842 2.75 0 2.343-2.243 4.25-5 4.25s-5-1.907-5-4.25c0-0.276-0.224-0.5-0.5-0.5s-0.5 0.224-0.5 0.5c0 2.895 2.691 5.25 6 5.25s6-2.355 6-5.25c0-1.003-0.45-1.952-1.245-2.75z"></path>
</svg>
