<svg version="1.1" xmlns="http://www.w3.org/2000/svg" width="32" height="32" viewBox="0 0 32 32">
<title>subway</title>
<path d="M21.5 4h-1.5v-1.5c0-0.276-0.224-0.5-0.5-0.5h-7c-0.276 0-0.5 0.224-0.5 0.5v1.5h-1.5c-2.481 0-4.5 2.019-4.5 4.5v11c0 2.481 2.019 4.5 4.5 4.5h11c2.481 0 4.5-2.019 4.5-4.5v-11c0-2.481-2.019-4.5-4.5-4.5zM13 3h6v2h-6v-2zM13.309 23l1.362-2.724c0.085-0.17 0.257-0.276 0.447-0.276h1.764c0.19 0 0.362 0.106 0.447 0.276l1.362 2.724h-5.382zM25 19.5c0 1.93-1.57 3.5-3.5 3.5h-1.691l-1.585-3.17c-0.255-0.512-0.77-0.83-1.342-0.83h-1.764c-0.572 0-1.087 0.318-1.342 0.829l-1.585 3.171h-1.691c-1.93 0-3.5-1.57-3.5-3.5v-11c0-1.93 1.57-3.5 3.5-3.5h1.5v0.5c0 0.276 0.224 0.5 0.5 0.5h7c0.276 0 0.5-0.224 0.5-0.5v-0.5h1.5c1.93 0 3.5 1.57 3.5 3.5v11z"></path>
<path d="M11 19c0 0.552-0.448 1-1 1s-1-0.448-1-1c0-0.552 0.448-1 1-1s1 0.448 1 1z"></path>
<path d="M23 19c0 0.552-0.448 1-1 1s-1-0.448-1-1c0-0.552 0.448-1 1-1s1 0.448 1 1z"></path>
<path d="M21.9 25.2c-0.167-0.221-0.48-0.265-0.7-0.1-0.221 0.166-0.266 0.479-0.101 0.7l0.15 0.2h-10.499l0.15-0.2c0.165-0.221 0.12-0.534-0.101-0.7-0.22-0.165-0.533-0.121-0.7 0.1l-3 4c-0.165 0.221-0.12 0.534 0.101 0.7 0.090 0.067 0.196 0.1 0.3 0.1 0.151 0 0.302-0.069 0.4-0.2l0.6-0.8h15l0.6 0.8c0.099 0.131 0.249 0.2 0.4 0.2 0.104 0 0.21-0.033 0.3-0.1 0.221-0.166 0.266-0.479 0.101-0.7l-3.001-4zM9.25 28l0.75-1h12l0.75 1h-13.5z"></path>
<path d="M21.5 7h-3c-0.827 0-1.5 0.673-1.5 1.5v7c0 0.827 0.673 1.5 1.5 1.5h1c1.93 0 3.5-1.57 3.5-3.5v-5c0-0.827-0.673-1.5-1.5-1.5zM22 13.5c0 1.378-1.121 2.5-2.5 2.5h-1c-0.275 0-0.5-0.224-0.5-0.5v-7c0-0.276 0.225-0.5 0.5-0.5h3c0.275 0 0.5 0.224 0.5 0.5v5z"></path>
<path d="M13.5 7h-3c-0.827 0-1.5 0.673-1.5 1.5v5c0 1.93 1.57 3.5 3.5 3.5h1c0.827 0 1.5-0.673 1.5-1.5v-7c0-0.827-0.673-1.5-1.5-1.5zM14 15.5c0 0.276-0.225 0.5-0.5 0.5h-1c-1.379 0-2.5-1.122-2.5-2.5v-5c0-0.276 0.225-0.5 0.5-0.5h3c0.275 0 0.5 0.224 0.5 0.5v7z"></path>
</svg>
