<svg version="1.1" xmlns="http://www.w3.org/2000/svg" width="32" height="32" viewBox="0 0 32 32">
<title>suitcase</title>
<path d="M28.5 7h-7.5v-2.5c0-0.827-0.673-1.5-1.5-1.5h-7c-0.827 0-1.5 0.673-1.5 1.5v2.5h-7.5c-0.827 0-1.5 0.673-1.5 1.5v16c0 0.827 0.673 1.5 1.5 1.5h25c0.827 0 1.5-0.673 1.5-1.5v-16c0-0.827-0.673-1.5-1.5-1.5zM12 4.5c0-0.275 0.225-0.5 0.5-0.5h7c0.275 0 0.5 0.225 0.5 0.5v2.5h-8v-2.5zM29 24.5c0 0.275-0.225 0.5-0.5 0.5h-25c-0.275 0-0.5-0.225-0.5-0.5v-16c0-0.275 0.225-0.5 0.5-0.5h25c0.275 0 0.5 0.225 0.5 0.5v16z"></path>
<path d="M17.5 12h-3c-0.276 0-0.5 0.224-0.5 0.5s0.224 0.5 0.5 0.5h3c0.276 0 0.5-0.224 0.5-0.5s-0.224-0.5-0.5-0.5z"></path>
<path d="M7.5 9c-0.276 0-0.5 0.224-0.5 0.5v14c0 0.276 0.224 0.5 0.5 0.5s0.5-0.224 0.5-0.5v-14c0-0.276-0.224-0.5-0.5-0.5z"></path>
<path d="M24.5 9c-0.276 0-0.5 0.224-0.5 0.5v14c0 0.276 0.224 0.5 0.5 0.5s0.5-0.224 0.5-0.5v-14c0-0.276-0.224-0.5-0.5-0.5z"></path>
</svg>
