<svg version="1.1" xmlns="http://www.w3.org/2000/svg" width="32" height="32" viewBox="0 0 32 32">
<title>sun-o</title>
<path d="M16.5 10c-3.59 0-6.5 2.91-6.5 6.5s2.91 6.5 6.5 6.5c3.59 0 6.5-2.91 6.5-6.5v0c-0.005-3.588-2.912-6.495-6.5-6.5h-0zM16.5 22c-3.038 0-5.5-2.462-5.5-5.5s2.462-5.5 5.5-5.5c3.038 0 5.5 2.462 5.5 5.5v0c-0.003 3.036-2.464 5.497-5.5 5.5h-0z"></path>
<path d="M16.5 25c-0.276 0-0.5 0.224-0.5 0.5v0 4c0 0.276 0.224 0.5 0.5 0.5s0.5-0.224 0.5-0.5v0-4c0-0.276-0.224-0.5-0.5-0.5v0z"></path>
<path d="M16.5 8c0.276 0 0.5-0.224 0.5-0.5v0-4c0-0.276-0.224-0.5-0.5-0.5s-0.5 0.224-0.5 0.5v0 4c0 0.276 0.224 0.5 0.5 0.5v0z"></path>
<path d="M9.783 22.511l-2.829 2.828c-0.087 0.090-0.14 0.212-0.14 0.347 0 0.276 0.224 0.5 0.5 0.5 0.135 0 0.258-0.053 0.348-0.14l2.829-2.828c0.087-0.090 0.14-0.212 0.14-0.347 0-0.276-0.224-0.5-0.5-0.5-0.135 0-0.258 0.053-0.348 0.14l0-0z"></path>
<path d="M22.864 10.636c0.138-0 0.264-0.056 0.354-0.147v0l2.828-2.828c0.094-0.091 0.153-0.219 0.153-0.36 0-0.276-0.224-0.5-0.5-0.5-0.141 0-0.269 0.058-0.36 0.152l-2.828 2.828c-0.091 0.091-0.147 0.216-0.147 0.354 0 0.276 0.224 0.5 0.5 0.5v0z"></path>
<path d="M8 16.5c0-0.276-0.224-0.5-0.5-0.5v0h-4c-0.276 0-0.5 0.224-0.5 0.5s0.224 0.5 0.5 0.5v0h4c0.276 0 0.5-0.224 0.5-0.5v0z"></path>
<path d="M29.5 16h-4c-0.276 0-0.5 0.224-0.5 0.5s0.224 0.5 0.5 0.5v0h4c0.276 0 0.5-0.224 0.5-0.5s-0.224-0.5-0.5-0.5v0z"></path>
<path d="M9.783 10.489c0.090 0.090 0.215 0.146 0.354 0.146s0.263-0.056 0.354-0.146v0c0.090-0.090 0.146-0.215 0.146-0.354s-0.056-0.263-0.146-0.354l-2.829-2.828c-0.091-0.094-0.219-0.153-0.36-0.153-0.276 0-0.5 0.224-0.5 0.5 0 0.141 0.058 0.269 0.152 0.359l0 0z"></path>
<path d="M23.218 22.511c-0.090-0.087-0.212-0.14-0.347-0.14-0.276 0-0.5 0.224-0.5 0.5 0 0.135 0.053 0.258 0.14 0.348l2.828 2.828c0.090 0.087 0.212 0.14 0.347 0.14 0.276 0 0.5-0.224 0.5-0.5 0-0.135-0.053-0.258-0.14-0.348l0 0z"></path>
</svg>
