<svg version="1.1" xmlns="http://www.w3.org/2000/svg" width="32" height="32" viewBox="0 0 32 32">
<title>superscript</title>
<path d="M18.784 9.089c-0.225-0.157-0.539-0.101-0.695 0.126l-4.089 5.907-4.089-5.907c-0.156-0.227-0.471-0.283-0.695-0.126-0.228 0.157-0.284 0.469-0.127 0.696l4.303 6.215-4.303 6.215c-0.157 0.227-0.101 0.539 0.127 0.696 0.224 0.156 0.538 0.101 0.695-0.126l4.089-5.907 4.089 5.906c0.097 0.141 0.253 0.216 0.411 0.216 0.099 0 0.198-0.029 0.284-0.089 0.228-0.157 0.284-0.469 0.127-0.696l-4.303-6.215 4.303-6.215c0.157-0.227 0.101-0.539-0.127-0.696z"></path>
<path d="M24.5 12h-2.429c0.164-0.526 0.602-0.88 1.229-1.35 0.797-0.598 1.7-1.275 1.7-2.65 0-1.103-0.897-2-2-2s-2 0.897-2 2c0 0.276 0.224 0.5 0.5 0.5s0.5-0.224 0.5-0.5c0-0.551 0.448-1 1-1s1 0.449 1 1c0 0.833-0.494 1.245-1.3 1.85-0.797 0.598-1.7 1.275-1.7 2.65 0 0.276 0.224 0.5 0.5 0.5h3c0.276 0 0.5-0.224 0.5-0.5s-0.224-0.5-0.5-0.5z"></path>
</svg>
