<svg version="1.1" xmlns="http://www.w3.org/2000/svg" width="32" height="32" viewBox="0 0 32 32">
<title>support</title>
<path d="M16 2c-7.732 0-14 6.268-14 14s6.268 14 14 14c7.732 0 14-6.268 14-14v0c-0.009-7.729-6.271-13.991-13.999-14h-0.001zM21.288 20.581c1.064-1.219 1.712-2.824 1.712-4.581s-0.648-3.362-1.719-4.589l0.007 0.008 4.247-4.247c2.147 2.309 3.465 5.415 3.465 8.828s-1.318 6.519-3.472 8.836l0.007-0.008zM10 16c0-3.314 2.686-6 6-6s6 2.686 6 6c0 3.314-2.686 6-6 6v0c-3.312-0.003-5.997-2.688-6-6v-0zM24.828 6.465l-4.247 4.247c-1.219-1.064-2.824-1.712-4.581-1.712s-3.362 0.648-4.589 1.719l0.008-0.007-4.247-4.247c2.309-2.147 5.415-3.465 8.828-3.465s6.519 1.318 8.836 3.472l-0.008-0.007zM6.465 7.172l4.247 4.247c-1.064 1.219-1.712 2.824-1.712 4.581s0.648 3.362 1.719 4.589l-0.007-0.008-4.247 4.247c-2.147-2.309-3.465-5.415-3.465-8.828s1.318-6.519 3.472-8.836l-0.007 0.008zM7.172 25.535l4.247-4.247c1.219 1.064 2.824 1.712 4.581 1.712s3.362-0.648 4.589-1.719l-0.008 0.007 4.247 4.247c-2.309 2.147-5.415 3.465-8.828 3.465s-6.519-1.318-8.836-3.472l0.008 0.007z"></path>
</svg>
