<svg id="Layer_1" data-name="Layer 1" xmlns="http://www.w3.org/2000/svg" width="32" height="32" viewBox="0 0 32 32"><path d="M29.854,9.146l-7-7a.5.5,0,0,0-.708.708L23.793,4.5,20,8.293,17.854,6.146a.5.5,0,0,0-.708.708L18.293,8,9.538,16.755a5.022,5.022,0,0,0-.752.963l-2.112,3.52a2,2,0,0,0,.3,2.444L7.293,24,2.146,29.146a.5.5,0,0,0,.708.708L8,24.707l.318.318a2,2,0,0,0,2.444.3l3.52-2.112a5.022,5.022,0,0,0,.963-.752L24,13.707l1.146,1.147a.5.5,0,0,0,.708-.708L23.707,12,27.5,8.207l1.646,1.647a.5.5,0,0,0,.708-.708ZM10.247,24.469a1,1,0,0,1-1.222-.151L7.682,22.975a1,1,0,0,1-.151-1.222l.943-1.572,3.345,3.345ZM21.5,14.793l-1.646-1.647a.5.5,0,0,0-.708.708L20.793,15.5,18.5,17.793l-1.646-1.647a.5.5,0,0,0-.708.708L17.793,18.5,15.5,20.793l-1.646-1.647a.5.5,0,0,0-.708.708L14.793,21.5l-.255.255a4.039,4.039,0,0,1-.77.6L12.7,23l-3.7-3.7.639-1.065a4.039,4.039,0,0,1,.6-.77L19,8.707,23.293,13Zm1.5-3.5L20.707,9,24.5,5.207,26.793,7.5Z"/></svg>