<svg version="1.1" xmlns="http://www.w3.org/2000/svg" width="32" height="32" viewBox="0 0 32 32">
<title>table-user</title>
<path d="M29 6h-26c-0.552 0-1 0.448-1 1v0 17c0 0.552 0.448 1 1 1v0h12.5c0.276 0 0.5-0.224 0.5-0.5s-0.224-0.5-0.5-0.5v0h-5.5v-5h5.5c0.276 0 0.5-0.224 0.5-0.5s-0.224-0.5-0.5-0.5v0h-5.5v-5h9v2.5c0 0.276 0.224 0.5 0.5 0.5s0.5-0.224 0.5-0.5v0-2.5h9v2.5c0 0.276 0.224 0.5 0.5 0.5s0.5-0.224 0.5-0.5v0-8.5c0-0.552-0.448-1-1-1v0zM9 24h-6v-5h6zM9 18h-6v-5h6zM9 12h-6v-5h6zM19 12h-9v-5h9zM29 12h-9v-5h9z"></path>
<path d="M28.117 24.639l-1.731-1.165c0.384-0.554 0.614-1.24 0.614-1.98 0-1.933-1.567-3.5-3.5-3.5s-3.5 1.567-3.5 3.5c0 0.74 0.23 1.426 0.622 1.992l-0.008-0.012-1.731 1.166c-0.536 0.364-0.883 0.971-0.883 1.659 0 0 0 0.001 0 0.001v-0 2.2c0 0.276 0.224 0.5 0.5 0.5s0.5-0.224 0.5-0.5v0-2.2c0-0 0-0.001 0-0.001 0-0.344 0.173-0.647 0.438-0.827l0.003-0.002 1.872-1.259c0.588 0.492 1.353 0.79 2.187 0.79s1.599-0.298 2.192-0.794l-0.005 0.004 1.872 1.259c0.268 0.182 0.441 0.485 0.441 0.829 0 0 0 0.001 0 0.001v-0 2.2c0 0.276 0.224 0.5 0.5 0.5s0.5-0.224 0.5-0.5v0-2.2c0-0.001 0-0.001 0-0.002 0-0.688-0.347-1.295-0.876-1.655l-0.007-0.004zM26 21.5c0 1.381-1.119 2.5-2.5 2.5s-2.5-1.119-2.5-2.5c0-1.381 1.119-2.5 2.5-2.5v0c1.381 0 2.5 1.119 2.5 2.5v0z"></path>
</svg>
