<svg version="1.1" xmlns="http://www.w3.org/2000/svg" width="32" height="32" viewBox="0 0 32 32">
<title>table-clock</title>
<path d="M29 6h-26c-0.552 0-1 0.448-1 1v0 17c0 0.552 0.448 1 1 1v0h12.5c0.276 0 0.5-0.224 0.5-0.5s-0.224-0.5-0.5-0.5v0h-5.5v-5h5.5c0.276 0 0.5-0.224 0.5-0.5s-0.224-0.5-0.5-0.5v0h-5.5v-5h9v2.5c0 0.276 0.224 0.5 0.5 0.5s0.5-0.224 0.5-0.5v0-2.5h9v2.5c0 0.276 0.224 0.5 0.5 0.5s0.5-0.224 0.5-0.5v0-8.5c0-0.552-0.448-1-1-1v0zM9 24h-6v-5h6zM9 18h-6v-5h6zM9 12h-6v-5h6zM19 12h-9v-5h9zM29 12h-9v-5h9z"></path>
<path d="M23.5 18c-3.038 0-5.5 2.462-5.5 5.5s2.462 5.5 5.5 5.5c3.038 0 5.5-2.462 5.5-5.5v0c-0.003-3.036-2.464-5.497-5.5-5.5h-0zM23.5 28c-2.485 0-4.5-2.015-4.5-4.5s2.015-4.5 4.5-4.5c2.485 0 4.5 2.015 4.5 4.5v0c-0.003 2.484-2.016 4.497-4.5 4.5h-0z"></path>
<path d="M24 23.293v-2.793c0-0.276-0.224-0.5-0.5-0.5s-0.5 0.224-0.5 0.5v0 3c0 0 0 0.001 0 0.001 0 0.138 0.056 0.263 0.146 0.353v0l2 2c0.091 0.091 0.216 0.147 0.354 0.147 0.276 0 0.501-0.224 0.501-0.501 0-0.138-0.056-0.263-0.147-0.354v0z"></path>
</svg>
