<svg version="1.1" xmlns="http://www.w3.org/2000/svg" width="32" height="32" viewBox="0 0 32 32">
<title>table-search</title>
<path d="M25.147 24.44c0.532-0.678 0.853-1.544 0.853-2.485 0-2.234-1.811-4.045-4.045-4.045s-4.045 1.811-4.045 4.045c0 2.234 1.811 4.045 4.045 4.045 0.941 0 1.807-0.321 2.494-0.86l-0.009 0.007 3.706 3.707c0.091 0.091 0.216 0.147 0.354 0.147 0.276 0 0.501-0.224 0.501-0.501 0-0.138-0.056-0.263-0.147-0.354v0zM22 25c-1.657 0-3-1.343-3-3s1.343-3 3-3c1.657 0 3 1.343 3 3v0c0 1.657-1.343 3-3 3v0z"></path>
<path d="M29 6h-26c-0.552 0-1 0.448-1 1v0 17c0 0.552 0.448 1 1 1v0h12.5c0.276 0 0.5-0.224 0.5-0.5s-0.224-0.5-0.5-0.5v0h-5.5v-5h5.5c0.276 0 0.5-0.224 0.5-0.5s-0.224-0.5-0.5-0.5v0h-5.5v-5h9v2.5c0 0.276 0.224 0.5 0.5 0.5s0.5-0.224 0.5-0.5v0-2.5h9v2.5c0 0.276 0.224 0.5 0.5 0.5s0.5-0.224 0.5-0.5v0-8.5c0-0.552-0.448-1-1-1v0zM9 24h-6v-5h6zM9 18h-6v-5h6zM9 12h-6v-5h6zM19 12h-9v-5h9zM29 12h-9v-5h9z"></path>
</svg>
