<svg version="1.1" xmlns="http://www.w3.org/2000/svg" width="32" height="32" viewBox="0 0 32 32">
<title>table-file</title>
<path d="M29 6h-26c-0.552 0-1 0.448-1 1v0 17c0 0.552 0.448 1 1 1v0h12.5c0.276 0 0.5-0.224 0.5-0.5s-0.224-0.5-0.5-0.5v0h-5.5v-5h5.5c0.276 0 0.5-0.224 0.5-0.5s-0.224-0.5-0.5-0.5v0h-5.5v-5h9v2.5c0 0.276 0.224 0.5 0.5 0.5s0.5-0.224 0.5-0.5v0-2.5h9v2.5c0 0.276 0.224 0.5 0.5 0.5s0.5-0.224 0.5-0.5v0-8.5c0-0.552-0.448-1-1-1v0zM9 24h-6v-5h6zM9 18h-6v-5h6zM9 12h-6v-5h6zM19 12h-9v-5h9zM29 12h-9v-5h9z"></path>
<path d="M24.146 18.439c-0.271-0.271-0.646-0.439-1.060-0.439h-3.086c-0.552 0-1 0.448-1 1v0 9c0 0.552 0.448 1 1 1v0h7c0.552 0 1-0.448 1-1v0-5.086c-0-0.414-0.168-0.789-0.439-1.060v0zM24 19.707l2.293 2.293h-2.293zM27 28h-7v-9h3v3c0 0.552 0.448 1 1 1v0h3z"></path>
</svg>
