<svg version="1.1" xmlns="http://www.w3.org/2000/svg" width="32" height="32" viewBox="0 0 32 32">
<title>tablet</title>
<path d="M24 2h-15c-1.657 0-3 1.343-3 3v0 22c0 1.657 1.343 3 3 3v0h15c1.657 0 3-1.343 3-3v0-22c0-1.657-1.343-3-3-3v0zM9 3h15c1.105 0 2 0.895 2 2v0h-19c0-1.105 0.895-2 2-2v0zM26 6v19h-19v-19zM24 29h-15c-1.105 0-2-0.895-2-2v0-1h19v1c0 1.105-0.895 2-2 2v0z"></path>
<path d="M17 27.5c0 0.276-0.224 0.5-0.5 0.5s-0.5-0.224-0.5-0.5c0-0.276 0.224-0.5 0.5-0.5s0.5 0.224 0.5 0.5z"></path>
</svg>
