<svg version="1.1" xmlns="http://www.w3.org/2000/svg" width="32" height="32" viewBox="0 0 32 32">
<title>table-heart</title>
<path d="M29 6h-26c-0.552 0-1 0.448-1 1v0 17c0 0.552 0.448 1 1 1v0h12.5c0.276 0 0.5-0.224 0.5-0.5s-0.224-0.5-0.5-0.5v0h-5.5v-5h5.5c0.276 0 0.5-0.224 0.5-0.5s-0.224-0.5-0.5-0.5v0h-5.5v-5h9v2.5c0 0.276 0.224 0.5 0.5 0.5s0.5-0.224 0.5-0.5v0-2.5h9v2.5c0 0.276 0.224 0.5 0.5 0.5s0.5-0.224 0.5-0.5v0-8.5c0-0.552-0.448-1-1-1v0zM9 24h-6v-5h6zM9 18h-6v-5h6zM9 12h-6v-5h6zM19 12h-9v-5h9zM29 12h-9v-5h9z"></path>
<path d="M23.9 19.879l-0.378 0.378-0.378-0.378c-0.543-0.543-1.293-0.879-2.122-0.879-1.657 0-3 1.343-3 3 0 0.828 0.336 1.578 0.878 2.121l4.268 4.268c0.090 0.090 0.215 0.146 0.354 0.146s0.263-0.056 0.354-0.146l4.269-4.268c0.543-0.543 0.878-1.293 0.878-2.121 0-1.657-1.343-3-3-3-0.829 0-1.579 0.336-2.122 0.879v0zM27.437 23.414l-3.915 3.915-3.922-3.915c-0.362-0.362-0.585-0.862-0.585-1.414 0-1.105 0.896-2 2-2 0.553 0 1.053 0.224 1.415 0.586l0.731 0.732c0.090 0.090 0.215 0.146 0.354 0.146s0.263-0.056 0.354-0.146l0.732-0.732c0.362-0.362 0.862-0.586 1.415-0.586 1.105 0 2 0.896 2 2 0 0.552-0.224 1.052-0.585 1.414v0z"></path>
</svg>
