<svg version="1.1" xmlns="http://www.w3.org/2000/svg" width="32" height="32" viewBox="0 0 32 32">
<title>table-x</title>
<path d="M29 6h-26c-0.552 0-1 0.448-1 1v0 17c0 0.552 0.448 1 1 1v0h12.5c0.276 0 0.5-0.224 0.5-0.5s-0.224-0.5-0.5-0.5v0h-5.5v-5h5.5c0.276 0 0.5-0.224 0.5-0.5s-0.224-0.5-0.5-0.5v0h-5.5v-5h9v2.5c0 0.276 0.224 0.5 0.5 0.5s0.5-0.224 0.5-0.5v0-2.5h9v2.5c0 0.276 0.224 0.5 0.5 0.5s0.5-0.224 0.5-0.5v0-8.5c0-0.552-0.448-1-1-1v0zM9 24h-6v-5h6zM9 18h-6v-5h6zM9 12h-6v-5h6zM19 12h-9v-5h9zM29 12h-9v-5h9z"></path>
<path d="M27.354 19.646c-0.091-0.091-0.216-0.147-0.354-0.147s-0.263 0.056-0.354 0.147v0l-3.146 3.146-3.146-3.146c-0.091-0.091-0.216-0.147-0.354-0.147-0.276 0-0.5 0.224-0.5 0.5 0 0.138 0.056 0.263 0.146 0.354v0l3.147 3.147-3.147 3.147c-0.090 0.090-0.146 0.215-0.146 0.354 0 0.276 0.224 0.5 0.5 0.5 0.138 0 0.263-0.056 0.354-0.147l3.146-3.148 3.146 3.147c0.091 0.091 0.216 0.147 0.354 0.147 0.276 0 0.5-0.224 0.5-0.5 0-0.138-0.056-0.263-0.146-0.354v0l-3.147-3.146 3.147-3.146c0.091-0.091 0.147-0.216 0.147-0.354s-0.056-0.263-0.147-0.354v0z"></path>
</svg>
