<svg version="1.1" xmlns="http://www.w3.org/2000/svg" width="32" height="32" viewBox="0 0 32 32">
<title>table-play</title>
<path d="M29 6h-26c-0.552 0-1 0.448-1 1v0 17c0 0.552 0.448 1 1 1v0h12.5c0.276 0 0.5-0.224 0.5-0.5s-0.224-0.5-0.5-0.5v0h-5.5v-5h5.5c0.276 0 0.5-0.224 0.5-0.5s-0.224-0.5-0.5-0.5v0h-5.5v-5h9v2.5c0 0.276 0.224 0.5 0.5 0.5s0.5-0.224 0.5-0.5v0-2.5h9v2.5c0 0.276 0.224 0.5 0.5 0.5s0.5-0.224 0.5-0.5v0-8.5c0-0.552-0.448-1-1-1v0zM9 24h-6v-5h6zM9 18h-6v-5h6zM9 12h-6v-5h6zM19 12h-9v-5h9zM29 12h-9v-5h9z"></path>
<path d="M27.724 23.053l-8-4c-0.065-0.033-0.142-0.053-0.224-0.053-0.276 0-0.5 0.224-0.5 0.5v0 8c0 0.179 0.094 0.335 0.235 0.424l0.002 0.001c0.075 0.047 0.166 0.075 0.263 0.075h0c0.082-0 0.159-0.020 0.227-0.054l-0.003 0.001 8-4c0.165-0.084 0.276-0.253 0.276-0.447s-0.111-0.363-0.273-0.446l-0.003-0.001zM20 26.691v-6.382l6.382 3.191z"></path>
</svg>
