<svg version="1.1" xmlns="http://www.w3.org/2000/svg" width="32" height="32" viewBox="0 0 32 32">
<title>tachometer</title>
<path d="M22.8 9.1c-0.083-0.064-0.189-0.103-0.303-0.103-0.161 0-0.304 0.076-0.396 0.194l-0.001 0.001-5.324 6.962c-0.227-0.098-0.491-0.155-0.768-0.155-0.003 0-0.005 0-0.008 0h0c-0.001 0-0.001 0-0.002 0-1.105 0-2 0.895-2 2s0.895 2 2 2c1.105 0 2-0.895 2-2 0-0.467-0.16-0.897-0.429-1.237l0.003 0.004 5.327-6.967c0.062-0.083 0.1-0.187 0.1-0.3 0-0.163-0.078-0.308-0.199-0.399l-0.001-0.001z"></path>
<path d="M15.5 6h1c0.276 0 0.5-0.224 0.5-0.5s-0.224-0.5-0.5-0.5v0h-1c-0.276 0-0.5 0.224-0.5 0.5s0.224 0.5 0.5 0.5v0z"></path>
<path d="M5.5 15c-0.276 0-0.5 0.224-0.5 0.5v0 1c0 0.276 0.224 0.5 0.5 0.5s0.5-0.224 0.5-0.5v0-1c0-0.276-0.224-0.5-0.5-0.5v0z"></path>
<path d="M26.5 15c-0.276 0-0.5 0.224-0.5 0.5v0 1c0 0.276 0.224 0.5 0.5 0.5s0.5-0.224 0.5-0.5v0-1c0-0.276-0.224-0.5-0.5-0.5v0z"></path>
<path d="M29.884 14.168c-0.883-6.345-5.894-11.292-12.196-12.070l-0.068-0.007c-0.489-0.061-1.056-0.095-1.63-0.095-7.732 0-14 6.268-14 14 0 5.021 2.643 9.425 6.615 11.896l0.059 0.034c0.075 0.047 0.165 0.074 0.262 0.074 0.151 0 0.287-0.067 0.379-0.173l0.001-0.001 1.826-2.126c0.369-0.429 0.912-0.699 1.518-0.7h6.7c0.606 0.001 1.149 0.271 1.515 0.697l0.002 0.003 1.826 2.128c0.092 0.107 0.228 0.175 0.38 0.175 0.097 0 0.188-0.028 0.265-0.076l-0.002 0.001c4.030-2.486 6.676-6.876 6.676-11.885 0-0.661-0.046-1.312-0.135-1.949l0.008 0.073zM23.171 26.845l-1.543-1.8c-0.553-0.641-1.367-1.045-2.276-1.045-0.001 0-0.001 0-0.002 0h-6.7c-0.001 0-0.002 0-0.002 0-0.908 0-1.722 0.404-2.27 1.043l-0.003 0.004-1.544 1.8c-3.538-2.361-5.837-6.336-5.837-10.849 0-7.18 5.82-13 13-13 0.535 0 1.062 0.032 1.58 0.095l-0.062-0.006c5.911 0.73 10.56 5.319 11.373 11.138l0.008 0.069c0.075 0.524 0.118 1.128 0.118 1.743 0 4.501-2.301 8.465-5.791 10.779l-0.048 0.030z"></path>
</svg>
