<svg version="1.1" xmlns="http://www.w3.org/2000/svg" width="32" height="32" viewBox="0 0 32 32">
<title>tag</title>
<path d="M29.501 17.794l-12.476-12.476c-0.849-0.85-1.98-1.318-3.182-1.318h-8.343c-0.827 0-1.5 0.673-1.5 1.5v8.343c0 1.202 0.468 2.333 1.318 3.183l12.476 12.476c0.321 0.321 0.75 0.498 1.207 0.498 0.449 0 0.888-0.182 1.205-0.499l9.295-9.295c0.322-0.321 0.499-0.75 0.499-1.207 0-0.449-0.182-0.888-0.499-1.205zM28.794 19.499l-9.295 9.295c-0.263 0.264-0.733 0.266-0.998 0l-12.476-12.476c-0.661-0.661-1.025-1.54-1.025-2.475v-8.343c0-0.275 0.225-0.5 0.5-0.5h8.343c0.936 0 1.814 0.364 2.476 1.025l12.476 12.476c0.133 0.133 0.206 0.311 0.206 0.5-0.001 0.186-0.076 0.367-0.207 0.498z"></path>
<path d="M10 8c-1.103 0-2 0.897-2 2s0.897 2 2 2 2-0.897 2-2-0.897-2-2-2zM10 11c-0.552 0-1-0.448-1-1s0.448-1 1-1 1 0.448 1 1-0.448 1-1 1z"></path>
</svg>
