<svg version="1.1" xmlns="http://www.w3.org/2000/svg" width="32" height="32" viewBox="0 0 32 32">
<title>tags</title>
<path d="M29.501 13.794l-10.476-10.476c-0.851-0.85-1.981-1.318-3.182-1.318h-8.343c-0.827 0-1.5 0.673-1.5 1.5v1c0 0.276 0.224 0.5 0.5 0.5s0.5-0.224 0.5-0.5v-1c0-0.275 0.225-0.5 0.5-0.5h8.343c0.935 0 1.813 0.364 2.476 1.025l10.476 10.476c0.133 0.133 0.206 0.311 0.206 0.5 0 0.186-0.075 0.367-0.206 0.498l-1.733 1.733c-0.195 0.195-0.195 0.512 0 0.707 0.098 0.098 0.226 0.146 0.354 0.146s0.256-0.049 0.354-0.146l1.733-1.733c0.32-0.321 0.497-0.75 0.497-1.207 0-0.449-0.182-0.888-0.499-1.205z"></path>
<path d="M15.025 7.318c-0.849-0.85-1.98-1.318-3.182-1.318h-8.343c-0.827 0-1.5 0.673-1.5 1.5v8.343c0 1.202 0.468 2.333 1.318 3.183l10.476 10.476c0.321 0.321 0.75 0.498 1.207 0.498 0.449 0 0.888-0.182 1.205-0.499l9.295-9.295c0.322-0.321 0.499-0.75 0.499-1.207 0-0.449-0.182-0.888-0.499-1.205l-10.476-10.476zM24.794 19.499l-9.295 9.295c-0.263 0.264-0.733 0.266-0.998 0l-10.476-10.476c-0.661-0.661-1.025-1.54-1.025-2.475v-8.343c0-0.275 0.225-0.5 0.5-0.5h8.343c0.936 0 1.814 0.364 2.476 1.025l10.476 10.476c0.133 0.133 0.206 0.311 0.206 0.5-0.001 0.186-0.076 0.367-0.207 0.498z"></path>
<path d="M8 10c-1.103 0-2 0.897-2 2s0.897 2 2 2 2-0.897 2-2-0.897-2-2-2zM8 13c-0.552 0-1-0.448-1-1s0.448-1 1-1 1 0.448 1 1-0.448 1-1 1z"></path>
</svg>
