<svg version="1.1" xmlns="http://www.w3.org/2000/svg" width="32" height="32" viewBox="0 0 32 32">
<title>tank</title>
<path d="M6.561 13.832c0.279 0.279 0.439 0.666 0.439 1.061 0 0.276 0.224 0.5 0.5 0.5s0.5-0.224 0.5-0.5c0-0.668-0.26-1.295-0.732-1.768l-1.121-1.121c-0.093-0.093-0.147-0.222-0.147-0.354v-2.15c0-0.275 0.225-0.5 0.5-0.5h9.172c0.395 0 0.781 0.16 1.061 0.439l2.828 2.828c0.279 0.28 0.439 0.667 0.439 1.061v1.172c0 0.276 0.224 0.5 0.5 0.5s0.5-0.224 0.5-0.5v-1.172c0-0.479-0.138-0.934-0.388-1.328h8.388v0.5c0 0.276 0.224 0.5 0.5 0.5s0.5-0.224 0.5-0.5v-2c0-0.276-0.224-0.5-0.5-0.5s-0.5 0.224-0.5 0.5v0.5h-9.293l-2.268-2.268c-0.472-0.472-1.099-0.732-1.767-0.732h-0.672v-1.5c0-0.827-0.673-1.5-1.5-1.5h-4c-0.827 0-1.5 0.673-1.5 1.5v1.5h-1.5c-0.827 0-1.5 0.673-1.5 1.5v2.15c0 0.395 0.16 0.781 0.439 1.061l1.122 1.121zM9 6.5c0-0.275 0.225-0.5 0.5-0.5h4c0.275 0 0.5 0.225 0.5 0.5v1.5h-5v-1.5z"></path>
<path d="M10.5 12c-0.276 0-0.5 0.224-0.5 0.5s0.224 0.5 0.5 0.5h5c0.276 0 0.5-0.224 0.5-0.5s-0.224-0.5-0.5-0.5h-5z"></path>
<path d="M9 19c-1.103 0-2 0.897-2 2s0.897 2 2 2 2-0.897 2-2-0.897-2-2-2zM9 22c-0.552 0-1-0.448-1-1s0.448-1 1-1 1 0.448 1 1-0.448 1-1 1z"></path>
<path d="M23 19c-1.103 0-2 0.897-2 2s0.897 2 2 2 2-0.897 2-2-0.897-2-2-2zM23 22c-0.552 0-1-0.448-1-1s0.448-1 1-1 1 0.448 1 1-0.448 1-1 1z"></path>
<path d="M16 19c-1.103 0-2 0.897-2 2s0.897 2 2 2 2-0.897 2-2-0.897-2-2-2zM16 22c-0.552 0-1-0.448-1-1s0.448-1 1-1 1 0.448 1 1-0.448 1-1 1z"></path>
<path d="M27.54 16h-23.080c-1.908 0-3.46 1.553-3.46 3.462 0 0.783 0.27 1.551 0.758 2.161l2.463 3.078c0.66 0.825 1.645 1.299 2.702 1.299h18.154c1.057 0 2.042-0.474 2.702-1.299l2.463-3.078c0.488-0.61 0.758-1.379 0.758-2.163 0-1.908-1.552-3.46-3.46-3.46zM29.461 20.998l-2.463 3.078c-0.47 0.587-1.17 0.924-1.921 0.924h-18.154c-0.751 0-1.451-0.337-1.921-0.924l-2.463-3.078c-0.348-0.434-0.539-0.98-0.539-1.538 0-1.356 1.104-2.46 2.46-2.46h23.080c1.356 0 2.46 1.104 2.46 2.462 0 0.557-0.191 1.102-0.539 1.536z"></path>
</svg>
