<svg version="1.1" xmlns="http://www.w3.org/2000/svg" width="32" height="32" viewBox="0 0 32 32">
<title>tasks</title>
<path d="M10.146 6.146l-3.646 3.647-1.646-1.647c-0.091-0.091-0.216-0.147-0.354-0.147-0.277 0-0.501 0.224-0.501 0.501 0 0.138 0.056 0.263 0.147 0.354v0l2 2c0.091 0.091 0.216 0.147 0.354 0.147s0.263-0.056 0.354-0.147v0l4-4c0.091-0.091 0.147-0.216 0.147-0.354 0-0.277-0.224-0.501-0.501-0.501-0.138 0-0.263 0.056-0.354 0.147v0z"></path>
<path d="M10.146 14.146l-3.646 3.647-1.646-1.647c-0.091-0.091-0.216-0.147-0.354-0.147-0.277 0-0.501 0.224-0.501 0.501 0 0.138 0.056 0.263 0.147 0.354l2 2c0.091 0.091 0.216 0.147 0.354 0.147s0.263-0.056 0.354-0.147v0l4-4c0.091-0.091 0.147-0.216 0.147-0.354 0-0.277-0.224-0.501-0.501-0.501-0.138 0-0.263 0.056-0.354 0.147v0z"></path>
<path d="M13.5 9h14c0.276 0 0.5-0.224 0.5-0.5s-0.224-0.5-0.5-0.5v0h-14c-0.276 0-0.5 0.224-0.5 0.5s0.224 0.5 0.5 0.5v0z"></path>
<path d="M27.5 16h-14c-0.276 0-0.5 0.224-0.5 0.5s0.224 0.5 0.5 0.5v0h14c0.276 0 0.5-0.224 0.5-0.5s-0.224-0.5-0.5-0.5v0z"></path>
<path d="M10.146 22.146l-3.646 3.647-1.646-1.647c-0.091-0.091-0.216-0.147-0.354-0.147-0.277 0-0.501 0.224-0.501 0.501 0 0.138 0.056 0.263 0.147 0.354l2 2c0.091 0.091 0.216 0.147 0.354 0.147s0.263-0.056 0.354-0.147v0l4-4c0.091-0.091 0.147-0.216 0.147-0.354 0-0.276-0.224-0.501-0.501-0.501-0.138 0-0.263 0.056-0.354 0.147v0z"></path>
<path d="M27.5 24h-14c-0.276 0-0.5 0.224-0.5 0.5s0.224 0.5 0.5 0.5v0h14c0.276 0 0.5-0.224 0.5-0.5s-0.224-0.5-0.5-0.5v0z"></path>
</svg>
