<svg id="Layer_1" data-name="Layer 1" xmlns="http://www.w3.org/2000/svg" width="32" height="32" viewBox="0 0 32 32"><path d="M10.146,13.146,5.5,17.793,3.854,16.146a.5.5,0,0,0-.708.708l2,2a.5.5,0,0,0,.708,0l5-5a.5.5,0,0,0-.708-.708Z"/><path d="M10.146,2.146,5.5,6.793,3.854,5.146a.5.5,0,0,0-.708.708l2,2a.5.5,0,0,0,.708,0l5-5a.5.5,0,0,0-.708-.708Z"/><path d="M14.5,5h13a.5.5,0,0,0,0-1h-13a.5.5,0,0,0,0,1Z"/><path d="M27.5,15h-13a.5.5,0,0,0,0,1h13a.5.5,0,0,0,0-1Z"/><path d="M27.5,26h-13a.5.5,0,0,0,0,1h13a.5.5,0,0,0,0-1Z"/><path d="M7,24a3,3,0,1,0,3,3A3,3,0,0,0,7,24Zm0,5a2,2,0,1,1,2-2A2,2,0,0,1,7,29Z"/></svg>