<svg version="1.1" xmlns="http://www.w3.org/2000/svg" width="32" height="32" viewBox="0 0 32 32">
<title>taxi</title>
<path d="M10 19c0 0.552-0.448 1-1 1s-1-0.448-1-1c0-0.552 0.448-1 1-1s1 0.448 1 1z"></path>
<path d="M24 19c0 0.552-0.448 1-1 1s-1-0.448-1-1c0-0.552 0.448-1 1-1s1 0.448 1 1z"></path>
<path d="M27.97 12.329c-0.094-0.259-0.379-0.393-0.641-0.299l-1.391 0.506-1.284-4.695c-0.296-1.084-1.287-1.841-2.411-1.841h-2.434l-0.585-1.17c-0.255-0.512-0.77-0.83-1.342-0.83h-3.764c-0.572 0-1.087 0.318-1.342 0.829l-0.585 1.171h-2.434c-1.124 0-2.115 0.757-2.411 1.841l-1.284 4.695-1.391-0.506c-0.261-0.094-0.547 0.040-0.641 0.299s0.039 0.546 0.299 0.641l1.468 0.534-0.458 1.675c-0.199 0.732-0.301 1.486-0.301 2.242v5.080c0 0.276 0.224 0.5 0.5 0.5h0.462v2c0 0.551 0.448 1 1 1h3c0.552 0 1-0.449 1-1v-2h10v2c0 0.551 0.448 1 1 1h3c0.552 0 1-0.449 1-1v-2h0.462c0.276 0 0.5-0.224 0.5-0.5v-5.080c0-0.755-0.102-1.51-0.301-2.242l-0.458-1.674 1.468-0.534c0.26-0.096 0.393-0.382 0.299-0.642zM13.671 5.276c0.085-0.17 0.257-0.276 0.447-0.276h3.764c0.19 0 0.362 0.106 0.447 0.276l0.362 0.724h-5.383l0.363-0.724zM9.757 7h12.486c0.635 0 1.186 0.41 1.398 1h-15.282c0.212-0.59 0.763-1 1.398-1zM8.065 9h15.869l1.061 3.879-0.517 0.188c-1.703 0.619-3.485 0.933-5.296 0.933h-6.363c-1.812 0-3.594-0.314-5.297-0.933l-0.517-0.188 1.060-3.879zM10 25h-3v-2h3v2zM25 25h-3v-2h3v2zM25.696 15.442c0.177 0.646 0.266 1.312 0.266 1.978v4.58h-19.924v-4.58c0-0.667 0.089-1.332 0.266-1.978l0.436-1.595 0.44 0.16c1.813 0.659 3.71 0.993 5.638 0.993h6.363c1.929 0 3.825-0.334 5.639-0.993l0.44-0.16 0.436 1.595z"></path>
<path d="M18.5 19h-5c-0.276 0-0.5 0.224-0.5 0.5s0.224 0.5 0.5 0.5h5c0.276 0 0.5-0.224 0.5-0.5s-0.224-0.5-0.5-0.5z"></path>
</svg>
