<svg version="1.1" xmlns="http://www.w3.org/2000/svg" width="32" height="32" viewBox="0 0 32 32">
<title>terminal</title>
<path d="M28 6h-24c-1.105 0-2 0.895-2 2v0 16c0 1.105 0.895 2 2 2v0h24c1.105 0 2-0.895 2-2v0-16c0-1.105-0.895-2-2-2v0zM29 24c0 0.552-0.448 1-1 1v0h-24c-0.552 0-1-0.448-1-1v0-16c0-0.552 0.448-1 1-1v0h24c0.552 0 1 0.448 1 1v0z"></path>
<path d="M10.765 12.576l-4-2.5c-0.075-0.048-0.167-0.076-0.265-0.076-0.276 0-0.5 0.224-0.5 0.5 0 0.178 0.093 0.334 0.233 0.423l0.002 0.001 3.322 2.076-3.322 2.076c-0.142 0.090-0.235 0.246-0.235 0.424 0 0.276 0.224 0.5 0.5 0.5 0 0 0 0 0 0v0c0.001 0 0.001 0 0.002 0 0.098 0 0.188-0.028 0.265-0.077l-0.002 0.001 4-2.5c0.142-0.090 0.235-0.246 0.235-0.424s-0.093-0.334-0.233-0.423l-0.002-0.001z"></path>
<path d="M17.5 16h-5c-0.276 0-0.5 0.224-0.5 0.5s0.224 0.5 0.5 0.5v0h5c0.276 0 0.5-0.224 0.5-0.5s-0.224-0.5-0.5-0.5v0z"></path>
</svg>
