<svg version="1.1" xmlns="http://www.w3.org/2000/svg" width="32" height="32" viewBox="0 0 32 32">
<title>text-width</title>
<path d="M11.5 7h3.5v9.5c0 0.276 0.224 0.5 0.5 0.5s0.5-0.224 0.5-0.5v-9.5h3.5c0.276 0 0.5-0.224 0.5-0.5s-0.224-0.5-0.5-0.5h-8c-0.276 0-0.5 0.224-0.5 0.5s0.224 0.5 0.5 0.5z"></path>
<path d="M29.854 22.146l-3-3c-0.195-0.195-0.512-0.195-0.707 0s-0.195 0.512 0 0.707l2.146 2.147h-24.586l2.146-2.146c0.195-0.195 0.195-0.512 0-0.707s-0.512-0.195-0.707 0l-3 3c-0.195 0.195-0.195 0.512 0 0.707l3 3c0.098 0.097 0.226 0.146 0.354 0.146s0.256-0.049 0.354-0.146c0.195-0.195 0.195-0.512 0-0.707l-2.147-2.147h24.586l-2.146 2.146c-0.195 0.195-0.195 0.512 0 0.707 0.097 0.098 0.225 0.147 0.353 0.147s0.256-0.049 0.354-0.146l3-3c0.195-0.196 0.195-0.512 0-0.708z"></path>
</svg>
