<svg version="1.1" xmlns="http://www.w3.org/2000/svg" width="32" height="32" viewBox="0 0 32 32">
<title>thermometer-three-quarters</title>
<path d="M16.5 2c-1.93 0-3.5 1.57-3.5 3.5v21c0 1.93 1.57 3.5 3.5 3.5s3.5-1.57 3.5-3.5v-21c0-1.93-1.57-3.5-3.5-3.5zM16.5 29c-1.379 0-2.5-1.121-2.5-2.5v-21c0-1.379 1.121-2.5 2.5-2.5 1.208 0 2.217 0.86 2.449 2h-0.449c-0.276 0-0.5 0.224-0.5 0.5s0.224 0.5 0.5 0.5h0.5v4h-0.5c-0.276 0-0.5 0.224-0.5 0.5s0.224 0.5 0.5 0.5h0.5v4h-0.5c-0.276 0-0.5 0.224-0.5 0.5s0.224 0.5 0.5 0.5h0.5v4h-0.5c-0.276 0-0.5 0.224-0.5 0.5s0.224 0.5 0.5 0.5h0.5v5.5c0 1.379-1.121 2.5-2.5 2.5z"></path>
<path d="M17 25.092v-14.592c0-0.276-0.224-0.5-0.5-0.5s-0.5 0.224-0.5 0.5v14.592c-0.581 0.207-1 0.757-1 1.408 0 0.827 0.673 1.5 1.5 1.5s1.5-0.673 1.5-1.5c0-0.651-0.419-1.201-1-1.408z"></path>
</svg>
