<svg version="1.1" xmlns="http://www.w3.org/2000/svg" width="32" height="32" viewBox="0 0 32 32">
<title>thumbs-o-up</title>
<path d="M26.994 14c0-1.103-0.897-2-2-2h-6.098l0.555-1.009c0.359-0.652 0.552-1.391 0.557-2.113l0.007-0.199c-0.103-1.903-1.556-3.449-3.455-3.676-0.139-0.017-0.284 0.028-0.391 0.123-0.108 0.095-0.169 0.231-0.169 0.374v2.336c0 0.321-0.106 0.639-0.286 0.882l-2.402 2.979c-0.668 0.828-1.661 1.303-2.725 1.303h-0.593v-1.5c0-0.276-0.224-0.5-0.5-0.5h-4c-0.276 0-0.5 0.224-0.5 0.5s0.224 0.5 0.5 0.5h3.5v12h-3.5c-0.276 0-0.5 0.224-0.5 0.5s0.224 0.5 0.5 0.5h4c0.276 0 0.5-0.224 0.5-0.5v-1.5h1.060c0.419 0 0.834 0.199 1.168 0.56 0.859 0.929 2.024 1.44 3.28 1.44h6.491c1.103 0 2-0.897 2-2 0-0.411-0.125-0.794-0.338-1.112 0.778-0.274 1.338-1.017 1.338-1.888 0-0.411-0.125-0.794-0.338-1.112 0.778-0.274 1.338-1.017 1.338-1.888 0-0.411-0.125-0.794-0.338-1.112 0.779-0.274 1.339-1.017 1.339-1.888zM24.994 15h-1c-0.276 0-0.5 0.224-0.5 0.5s0.224 0.5 0.5 0.5c0.551 0 1 0.449 1 1s-0.449 1-1 1h-1c-0.276 0-0.5 0.224-0.5 0.5s0.224 0.5 0.5 0.5c0.551 0 1 0.449 1 1s-0.449 1-1 1h-1c-0.276 0-0.5 0.224-0.5 0.5s0.224 0.5 0.5 0.5c0.551 0 1 0.449 1 1s-0.449 1-1 1h-6.491c-0.974 0-1.878-0.398-2.546-1.12-0.526-0.567-1.202-0.88-1.903-0.88h-1.060v-8h0.593c1.368 0 2.645-0.611 3.503-1.675l2.414-2.994c0.32-0.429 0.496-0.96 0.496-1.495v-1.718c1.133 0.365 1.95 1.384 2.016 2.561l-0.008 0.168c-0.004 0.58-0.154 1.155-0.433 1.662l-0.962 1.75c-0.085 0.155-0.083 0.343 0.008 0.495 0.088 0.153 0.252 0.246 0.429 0.246h6.944c0.551 0 1 0.449 1 1s-0.449 1-1 1z"></path>
<path d="M7 22.5c0 0.276-0.224 0.5-0.5 0.5s-0.5-0.224-0.5-0.5c0-0.276 0.224-0.5 0.5-0.5s0.5 0.224 0.5 0.5z"></path>
</svg>
