<svg version="1.1" xmlns="http://www.w3.org/2000/svg" width="32" height="32" viewBox="0 0 32 32">
<title>thumbs-o-down</title>
<path d="M26.494 20h-3.5v-12h3.5c0.276 0 0.5-0.224 0.5-0.5s-0.224-0.5-0.5-0.5h-4c-0.276 0-0.5 0.224-0.5 0.5v1.5h-1.060c-0.42 0-0.835-0.199-1.169-0.56-0.86-0.928-2.025-1.44-3.28-1.44h-6.491c-1.103 0-2 0.897-2 2 0 0.411 0.125 0.794 0.338 1.112-0.778 0.274-1.338 1.017-1.338 1.888 0 0.411 0.125 0.794 0.338 1.112-0.778 0.274-1.338 1.017-1.338 1.888 0 0.411 0.125 0.794 0.338 1.112-0.778 0.274-1.338 1.017-1.338 1.888 0 1.103 0.897 2 2 2h6.098l-0.555 1.009c-0.359 0.654-0.552 1.393-0.556 2.112l-0.008 0.201c0.103 1.903 1.556 3.449 3.455 3.675 0.020 0.002 0.040 0.004 0.059 0.004 0.122 0 0.24-0.044 0.332-0.126 0.107-0.095 0.168-0.231 0.168-0.374v-2.336c0-0.321 0.106-0.639 0.286-0.882l2.402-2.979c0.668-0.829 1.661-1.304 2.725-1.304h0.594v1.5c0 0.276 0.224 0.5 0.5 0.5h4c0.276 0 0.5-0.224 0.5-0.5s-0.224-0.5-0.5-0.5zM21.4 18c-1.368 0-2.645 0.611-3.503 1.675l-2.414 2.994c-0.32 0.429-0.496 0.96-0.496 1.495v1.718c-1.133-0.365-1.95-1.383-2.016-2.559l0.009-0.17c0.004-0.579 0.153-1.153 0.433-1.662l0.962-1.75c0.085-0.155 0.083-0.343-0.008-0.495s-0.253-0.246-0.43-0.246h-6.943c-0.551 0-1-0.449-1-1s0.449-1 1-1h1c0.276 0 0.5-0.224 0.5-0.5s-0.224-0.5-0.5-0.5c-0.551 0-1-0.449-1-1s0.449-1 1-1h1c0.276 0 0.5-0.224 0.5-0.5s-0.224-0.5-0.5-0.5c-0.551 0-1-0.449-1-1s0.449-1 1-1h1c0.276 0 0.5-0.224 0.5-0.5s-0.224-0.5-0.5-0.5c-0.551 0-1-0.449-1-1s0.449-1 1-1h6.491c0.974 0 1.877 0.398 2.546 1.12 0.525 0.567 1.201 0.88 1.903 0.88h1.060v8h-0.594z"></path>
<path d="M26 9.5c0 0.276-0.224 0.5-0.5 0.5s-0.5-0.224-0.5-0.5c0-0.276 0.224-0.5 0.5-0.5s0.5 0.224 0.5 0.5z"></path>
</svg>
