<svg version="1.1" xmlns="http://www.w3.org/2000/svg" width="32" height="32" viewBox="0 0 32 32">
<title>thumbs-down</title>
<path d="M26.494 7h-4c-0.276 0-0.5 0.224-0.5 0.5v1.5h-1.060c-0.42 0-0.835-0.199-1.169-0.56-0.86-0.928-2.025-1.44-3.28-1.44h-6.491c-1.103 0-2 0.897-2 2 0 0.411 0.125 0.794 0.338 1.112-0.778 0.274-1.338 1.017-1.338 1.888 0 0.411 0.125 0.794 0.338 1.112-0.778 0.274-1.338 1.017-1.338 1.888 0 0.411 0.125 0.794 0.338 1.112-0.778 0.274-1.338 1.017-1.338 1.888 0 1.103 0.897 2 2 2h6.098l-0.555 1.009c-0.359 0.654-0.552 1.393-0.556 2.112l-0.008 0.201c0.103 1.903 1.556 3.449 3.455 3.675 0.020 0.002 0.040 0.004 0.059 0.004 0.122 0 0.24-0.044 0.332-0.126 0.107-0.095 0.168-0.231 0.168-0.374v-2.336c0-0.321 0.106-0.639 0.286-0.882l2.402-2.979c0.668-0.829 1.661-1.304 2.725-1.304h0.594v1.5c0 0.276 0.224 0.5 0.5 0.5h4c0.276 0 0.5-0.224 0.5-0.5v-13c0-0.276-0.224-0.5-0.5-0.5zM21.987 17.5c0 0.276-0.224 0.5-0.5 0.5s-0.5-0.224-0.5-0.5v-7c0-0.276 0.224-0.5 0.5-0.5s0.5 0.224 0.5 0.5v7zM24.487 10c-0.276 0-0.5-0.224-0.5-0.5s0.224-0.5 0.5-0.5c0.276 0 0.5 0.224 0.5 0.5s-0.224 0.5-0.5 0.5z"></path>
</svg>
