<svg version="1.1" xmlns="http://www.w3.org/2000/svg" width="32" height="32" viewBox="0 0 32 32">
<title>thumb-tack</title>
<path d="M26.975 8.182l-3.156-3.156c-0.732-0.734-1.757-1.11-2.78-1.012-1.034 0.091-1.968 0.631-2.562 1.482l-4.688 6.712c-2.227-0.512-4.463-0.062-6.276 1.17-0.123 0.084-0.202 0.219-0.217 0.367s0.039 0.295 0.145 0.4l4.851 4.855-8.146 8.146c-0.195 0.195-0.195 0.512 0 0.707 0.098 0.098 0.226 0.147 0.354 0.147s0.256-0.049 0.354-0.146l8.146-8.147 4.855 4.854c0.094 0.095 0.222 0.146 0.354 0.146 0.016 0 0.031-0.001 0.047-0.002 0.148-0.015 0.283-0.094 0.367-0.217 0.9-1.326 1.377-2.879 1.377-4.488 0-0.59-0.070-1.189-0.208-1.787l6.712-4.688c0.852-0.595 1.392-1.528 1.482-2.562 0.091-1.034-0.277-2.048-1.011-2.781zM25.932 12.704l-6.995 4.887c-0.174 0.121-0.252 0.339-0.196 0.543 0.172 0.624 0.259 1.252 0.259 1.866 0 1.203-0.305 2.37-0.885 3.408l-9.523-9.523c1.568-0.877 3.428-1.136 5.274-0.625 0.203 0.055 0.421-0.021 0.543-0.196l4.887-6.995c0.424-0.607 1.091-0.994 1.829-1.059 0.745-0.066 1.462 0.198 1.986 0.723l3.156 3.156c0.524 0.524 0.788 1.248 0.723 1.986-0.064 0.738-0.451 1.405-1.058 1.829z"></path>
</svg>
