<svg version="1.1" xmlns="http://www.w3.org/2000/svg" width="32" height="32" viewBox="0 0 32 32">
<title>thumbs-up</title>
<path d="M26.994 14c0-1.103-0.897-2-2-2h-6.098l0.555-1.009c0.359-0.652 0.552-1.391 0.557-2.113l0.007-0.199c-0.103-1.903-1.556-3.449-3.455-3.676-0.139-0.017-0.284 0.028-0.391 0.123-0.108 0.095-0.169 0.231-0.169 0.374v2.336c0 0.321-0.106 0.639-0.286 0.882l-2.402 2.979c-0.668 0.828-1.661 1.303-2.725 1.303h-0.593v-1.5c0-0.276-0.224-0.5-0.5-0.5h-4c-0.276 0-0.5 0.224-0.5 0.5v13c0 0.276 0.224 0.5 0.5 0.5h4c0.276 0 0.5-0.224 0.5-0.5v-1.5h1.060c0.419 0 0.834 0.199 1.168 0.56 0.859 0.929 2.024 1.44 3.28 1.44h6.491c1.103 0 2-0.897 2-2 0-0.411-0.125-0.794-0.338-1.112 0.778-0.274 1.338-1.017 1.338-1.888 0-0.411-0.125-0.794-0.338-1.112 0.778-0.274 1.338-1.017 1.338-1.888 0-0.411-0.125-0.794-0.338-1.112 0.779-0.274 1.339-1.017 1.339-1.888zM7.5 23c-0.276 0-0.5-0.224-0.5-0.5s0.224-0.5 0.5-0.5 0.5 0.224 0.5 0.5c0 0.276-0.224 0.5-0.5 0.5zM11 21.5c0 0.276-0.224 0.5-0.5 0.5s-0.5-0.224-0.5-0.5v-7c0-0.276 0.224-0.5 0.5-0.5s0.5 0.224 0.5 0.5v7z"></path>
</svg>
