<svg version="1.1" xmlns="http://www.w3.org/2000/svg" width="32" height="32" viewBox="0 0 32 32">
<title>ticket</title>
<path d="M29 14h0.5c0.276 0 0.5-0.224 0.5-0.5v-5c0-0.276-0.224-0.5-0.5-0.5h-27c-0.276 0-0.5 0.224-0.5 0.5v5c0 0.276 0.224 0.5 0.5 0.5h0.5c1.103 0 2 0.897 2 2s-0.897 2-2 2h-0.5c-0.276 0-0.5 0.224-0.5 0.5v5c0 0.276 0.224 0.5 0.5 0.5h27c0.276 0 0.5-0.224 0.5-0.5v-5c0-0.276-0.224-0.5-0.5-0.5h-0.5c-1.103 0-2-0.897-2-2s0.897-2 2-2zM29 19v4h-19v-2h-1v2h-6v-4c1.654 0 3-1.346 3-3s-1.346-3-3-3v-4h6v2h1v-2h19v4c-1.654 0-3 1.346-3 3s1.346 3 3 3z"></path>
<path d="M9 18h1v2h-1v-2z"></path>
<path d="M9 12h1v2h-1v-2z"></path>
<path d="M9 15h1v2h-1v-2z"></path>
<path d="M22.5 12h-9c-0.276 0-0.5 0.224-0.5 0.5v7c0 0.276 0.224 0.5 0.5 0.5h9c0.276 0 0.5-0.224 0.5-0.5v-7c0-0.276-0.224-0.5-0.5-0.5zM22 19h-8v-6h8v6z"></path>
</svg>
