<svg version="1.1" xmlns="http://www.w3.org/2000/svg" width="32" height="32" viewBox="0 0 32 32">
<title>tiles-2x2</title>
<path d="M14.5 5h-9c-0.276 0-0.5 0.224-0.5 0.5v9c0 0.276 0.224 0.5 0.5 0.5h9c0.276 0 0.5-0.224 0.5-0.5v-9c0-0.276-0.224-0.5-0.5-0.5zM14 14h-8v-8h8v8z"></path>
<path d="M26.5 5h-9c-0.276 0-0.5 0.224-0.5 0.5v9c0 0.276 0.224 0.5 0.5 0.5h9c0.276 0 0.5-0.224 0.5-0.5v-9c0-0.276-0.224-0.5-0.5-0.5zM26 14h-8v-8h8v8z"></path>
<path d="M14.5 17h-9c-0.276 0-0.5 0.224-0.5 0.5v9c0 0.276 0.224 0.5 0.5 0.5h9c0.276 0 0.5-0.224 0.5-0.5v-9c0-0.276-0.224-0.5-0.5-0.5zM14 26h-8v-8h8v8z"></path>
<path d="M26.5 17h-9c-0.276 0-0.5 0.224-0.5 0.5v9c0 0.276 0.224 0.5 0.5 0.5h9c0.276 0 0.5-0.224 0.5-0.5v-9c0-0.276-0.224-0.5-0.5-0.5zM26 26h-8v-8h8v8z"></path>
</svg>
