<svg version="1.1" xmlns="http://www.w3.org/2000/svg" width="32" height="32" viewBox="0 0 32 32">
<title>times-rectangle</title>
<path d="M27 6.5h-22c-1.381 0-2.5 1.119-2.5 2.5v14c0 1.381 1.119 2.5 2.5 2.5h22c1.381 0 2.5-1.119 2.5-2.5v-14c0-1.381-1.119-2.5-2.5-2.5zM19.5 20.25v0 0 0c-0.209 0-0.394-0.084-0.531-0.219l-2.969-2.969-2.969 2.969c-0.134 0.134-0.322 0.219-0.528 0.219h-0.003c-0.412 0-0.75-0.337-0.75-0.75 0-0.206 0.084-0.394 0.219-0.531l2.969-2.969-2.969-2.969c-0.125-0.134-0.2-0.313-0.2-0.512 0-0.416 0.334-0.75 0.75-0.75 0.197 0 0.378 0.075 0.512 0.2v0 0c0 0 0 0 0 0l2.969 2.969 2.969-2.969c0.134-0.125 0.313-0.2 0.512-0.2 0.416 0 0.75 0.334 0.75 0.75 0 0.197-0.075 0.378-0.2 0.512v0 0c0 0 0 0 0 0l-2.969 2.969 2.969 2.969c0.134 0.134 0.219 0.322 0.219 0.531 0 0.413-0.337 0.75-0.75 0.75z"></path>
<path d="M27 26h-22c-1.656 0-3-1.344-3-3v0-14c0-1.656 1.344-3 3-3v0h22c1.656 0 3 1.344 3 3v0 14c0 1.656-1.344 3-3 3v0zM5 7c-1.103 0-2 0.897-2 2v0 14c0 1.103 0.897 2 2 2v0h22c1.103 0 2-0.897 2-2v0-14c0-1.103-0.897-2-2-2v0h-22z"></path>
</svg>
