<svg version="1.1" xmlns="http://www.w3.org/2000/svg" width="32" height="32" viewBox="0 0 32 32">
<title>times-rectangle-o</title>
<path d="M27 6h-22c-1.657 0-3 1.343-3 3v0 14c0 1.657 1.343 3 3 3v0h22c1.657 0 3-1.343 3-3v0-14c0-1.657-1.343-3-3-3v0zM29 23c0 1.105-0.895 2-2 2v0h-22c-1.105 0-2-0.895-2-2v0-14c0-1.105 0.895-2 2-2v0h22c1.105 0 2 0.895 2 2v0z"></path>
<path d="M20.030 11.97c-0.136-0.136-0.323-0.22-0.53-0.22s-0.394 0.084-0.53 0.22v0l-2.97 2.969-2.97-2.969c-0.134-0.125-0.313-0.201-0.511-0.201-0.414 0-0.75 0.336-0.75 0.75 0 0.198 0.077 0.378 0.202 0.512l-0-0 2.969 2.97-2.969 2.97c-0.147 0.137-0.239 0.332-0.239 0.549 0 0.414 0.336 0.75 0.75 0.75 0.216 0 0.411-0.092 0.548-0.238l0-0 2.97-2.969 2.97 2.969c0.134 0.125 0.314 0.201 0.511 0.201 0.414 0 0.75-0.336 0.75-0.75 0-0.198-0.077-0.378-0.202-0.512l0 0-2.969-2.97 2.969-2.97c0.136-0.136 0.22-0.323 0.22-0.53s-0.084-0.394-0.22-0.53v0z"></path>
</svg>
