<svg version="1.1" xmlns="http://www.w3.org/2000/svg" width="32" height="32" viewBox="0 0 32 32">
<title>times-circle-o</title>
<path d="M16 2c-7.732 0-14 6.268-14 14s6.268 14 14 14c7.732 0 14-6.268 14-14v0c-0.009-7.729-6.271-13.991-13.999-14h-0.001zM16 29c-7.18 0-13-5.82-13-13s5.82-13 13-13c7.18 0 13 5.82 13 13v0c-0.009 7.176-5.824 12.991-12.999 13h-0.001z"></path>
<path d="M20.707 11.293c-0.181-0.181-0.431-0.293-0.707-0.293s-0.526 0.112-0.707 0.293l-3.293 3.293-3.293-3.293c-0.18-0.174-0.425-0.281-0.695-0.281-0.552 0-1 0.448-1 1 0 0.27 0.107 0.515 0.281 0.695l3.293 3.293-3.293 3.293c-0.188 0.182-0.305 0.437-0.305 0.719 0 0.552 0.448 1 1 1 0.282 0 0.537-0.117 0.719-0.305l3.293-3.293 3.293 3.293c0.18 0.174 0.425 0.281 0.695 0.281 0.552 0 1-0.448 1-1 0-0.27-0.107-0.515-0.281-0.695l-3.293-3.293 3.293-3.293c0.181-0.181 0.293-0.431 0.293-0.707s-0.112-0.526-0.293-0.707v0z"></path>
</svg>
