<svg version="1.1" xmlns="http://www.w3.org/2000/svg" width="32" height="32" viewBox="0 0 32 32">
<title>times</title>
<path d="M17.414 16l7.293-7.293c0.188-0.182 0.305-0.437 0.305-0.719 0-0.552-0.448-1-1-1-0.282 0-0.537 0.117-0.719 0.305l-7.293 7.293-7.293-7.293c-0.182-0.188-0.437-0.305-0.719-0.305-0.552 0-1 0.448-1 1 0 0.282 0.117 0.537 0.305 0.719l7.293 7.293-7.293 7.293c-0.188 0.182-0.305 0.437-0.305 0.719 0 0.552 0.448 1 1 1 0.282 0 0.537-0.117 0.719-0.305l7.293-7.293 7.293 7.293c0.18 0.174 0.425 0.281 0.695 0.281 0.552 0 1-0.448 1-1 0-0.27-0.107-0.515-0.281-0.695l0 0z"></path>
</svg>
