<svg version="1.1" xmlns="http://www.w3.org/2000/svg" width="32" height="32" viewBox="0 0 32 32">
<title>tint</title>
<path d="M23.226 17.609l-6.774-14.323c-0.166-0.35-0.738-0.35-0.904 0l-6.774 14.323c-1.175 2.484-0.998 5.354 0.473 7.676 1.473 2.326 3.998 3.715 6.754 3.715 2.755 0 5.279-1.389 6.752-3.714 1.471-2.322 1.647-5.192 0.473-7.677zM21.908 24.75c-1.288 2.035-3.498 3.25-5.909 3.25s-4.619-1.215-5.907-3.249c-1.286-2.031-1.44-4.541-0.413-6.714l6.321-13.367 6.321 13.367c1.028 2.173 0.873 4.683-0.413 6.713z"></path>
<path d="M16 23.843c-1.513 0-2.744-1.231-2.744-2.745 0-0.276-0.224-0.5-0.5-0.5s-0.5 0.224-0.5 0.5c0 2.065 1.68 3.745 3.744 3.745 0.276 0 0.5-0.224 0.5-0.5s-0.224-0.5-0.5-0.5z"></path>
</svg>
