<svg version="1.1" xmlns="http://www.w3.org/2000/svg" width="32" height="32" viewBox="0 0 32 32">
<title>toggle-right</title>
<path d="M13.834 11.128c-0.147-0.132-0.358-0.165-0.538-0.085-0.18 0.081-0.296 0.26-0.296 0.457v9c0 0.197 0.116 0.376 0.297 0.457 0.065 0.029 0.134 0.043 0.203 0.043 0.121 0 0.241-0.044 0.334-0.128l5-4.5c0.106-0.095 0.166-0.23 0.166-0.372s-0.060-0.277-0.166-0.372l-5-4.5z"></path>
<path d="M25.5 4h-19c-1.378 0-2.5 1.122-2.5 2.5v19c0 1.378 1.122 2.5 2.5 2.5h19c1.378 0 2.5-1.122 2.5-2.5v-19c0-1.378-1.122-2.5-2.5-2.5zM27 25.5c0 0.827-0.673 1.5-1.5 1.5h-19c-0.827 0-1.5-0.673-1.5-1.5v-19c0-0.827 0.673-1.5 1.5-1.5h19c0.827 0 1.5 0.673 1.5 1.5v19z"></path>
</svg>
