<svg version="1.1" xmlns="http://www.w3.org/2000/svg" width="32" height="32" viewBox="0 0 32 32">
<title>toggle-left</title>
<path d="M18.703 11.043c-0.179-0.080-0.391-0.047-0.538 0.085l-5 4.5c-0.105 0.095-0.165 0.23-0.165 0.372s0.060 0.277 0.166 0.372l5 4.5c0.093 0.084 0.213 0.128 0.334 0.128 0.069 0 0.138-0.014 0.203-0.043 0.181-0.081 0.297-0.26 0.297-0.457v-9c0-0.197-0.116-0.376-0.297-0.457z"></path>
<path d="M25.5 4h-19c-1.378 0-2.5 1.122-2.5 2.5v19c0 1.378 1.122 2.5 2.5 2.5h19c1.378 0 2.5-1.122 2.5-2.5v-19c0-1.378-1.122-2.5-2.5-2.5zM27 25.5c0 0.827-0.673 1.5-1.5 1.5h-19c-0.827 0-1.5-0.673-1.5-1.5v-19c0-0.827 0.673-1.5 1.5-1.5h19c0.827 0 1.5 0.673 1.5 1.5v19z"></path>
</svg>
