<svg version="1.1" xmlns="http://www.w3.org/2000/svg" width="32" height="32" viewBox="0 0 32 32">
<title>toggle-down</title>
<path d="M20.5 13h-9c-0.197 0-0.376 0.116-0.457 0.297-0.080 0.18-0.047 0.391 0.085 0.538l4.5 5c0.095 0.105 0.23 0.165 0.372 0.165s0.277-0.060 0.372-0.166l4.5-5c0.132-0.147 0.166-0.357 0.085-0.538-0.081-0.18-0.26-0.296-0.457-0.296z"></path>
<path d="M25.5 4h-19c-1.378 0-2.5 1.122-2.5 2.5v19c0 1.378 1.122 2.5 2.5 2.5h19c1.378 0 2.5-1.122 2.5-2.5v-19c0-1.378-1.122-2.5-2.5-2.5zM27 25.5c0 0.827-0.673 1.5-1.5 1.5h-19c-0.827 0-1.5-0.673-1.5-1.5v-19c0-0.827 0.673-1.5 1.5-1.5h19c0.827 0 1.5 0.673 1.5 1.5v19z"></path>
</svg>
