<svg version="1.1" xmlns="http://www.w3.org/2000/svg" width="32" height="32" viewBox="0 0 32 32">
<title>tools</title>
<path d="M27.232 23.525l-10.952-10.952c-0.352-0.352-0.497-0.883-0.391-1.424 0.17-0.874 0.145-1.767-0.076-2.651-0.528-2.129-2.242-3.827-4.367-4.328-1.258-0.299-2.546-0.197-3.718 0.284-0.155 0.063-0.268 0.2-0.301 0.364s0.019 0.334 0.137 0.452l2.876 2.876c0.195 0.195 0.195 0.512 0 0.707l-1.586 1.586c-0.195 0.195-0.512 0.195-0.707 0l-2.876-2.876c-0.12-0.118-0.285-0.172-0.453-0.136-0.164 0.033-0.3 0.145-0.364 0.301-0.482 1.177-0.58 2.465-0.282 3.726 0.502 2.125 2.203 3.838 4.333 4.362 0.887 0.218 1.775 0.243 2.645 0.073 0.545-0.106 1.066 0.035 1.424 0.392l10.952 10.952c0.495 0.495 1.153 0.767 1.854 0.767 1.444 0 2.62-1.176 2.62-2.622 0-0.69-0.279-1.365-0.768-1.853zM25.378 27c-0.433 0-0.84-0.169-1.146-0.475l-10.952-10.952c-0.466-0.466-1.107-0.718-1.786-0.718-0.178 0-0.357 0.017-0.537 0.053-0.725 0.141-1.468 0.119-2.213-0.063-1.77-0.437-3.183-1.857-3.6-3.622-0.188-0.796-0.188-1.604-0.004-2.375l2.299 2.299c0.584 0.584 1.537 0.584 2.121 0l1.586-1.586c0.585-0.585 0.585-1.536 0-2.121l-2.298-2.299c0.769-0.184 1.574-0.184 2.37 0.002 1.764 0.416 3.187 1.827 3.625 3.597 0.186 0.743 0.207 1.489 0.065 2.218-0.171 0.867 0.078 1.736 0.665 2.323l10.952 10.952c0.302 0.301 0.475 0.719 0.475 1.147 0 0.893-0.728 1.62-1.622 1.62z"></path>
<path d="M15.147 21.147l-5.377 5.378c-0.306 0.306-0.714 0.475-1.148 0.475-0.894 0-1.62-0.728-1.62-1.622 0-0.433 0.169-0.84 0.475-1.146l5.378-5.378c0.195-0.195 0.195-0.512 0-0.707s-0.512-0.195-0.707 0l-5.378 5.378c-0.495 0.495-0.768 1.153-0.768 1.854 0 1.444 1.176 2.62 2.622 2.62 0.699 0 1.357-0.272 1.853-0.768l5.378-5.378c0.195-0.195 0.195-0.512 0-0.707s-0.512-0.194-0.708 0.001z"></path>
<path d="M20 14.5c0.128 0 0.256-0.049 0.354-0.146l4.271-4.271c0.114-0.114 0.245-0.209 0.39-0.281l1.71-0.854c0.085-0.043 0.156-0.108 0.205-0.19l0.75-1.25c0.118-0.196 0.087-0.448-0.075-0.61l-0.5-0.5c-0.163-0.163-0.417-0.192-0.61-0.075l-1.25 0.75c-0.082 0.049-0.147 0.12-0.19 0.205l-0.854 1.709c-0.073 0.146-0.168 0.276-0.282 0.391l-4.271 4.271c-0.195 0.195-0.195 0.512 0 0.707 0.096 0.095 0.224 0.144 0.352 0.144z"></path>
<path d="M25 24.5c0 0.276-0.224 0.5-0.5 0.5s-0.5-0.224-0.5-0.5c0-0.276 0.224-0.5 0.5-0.5s0.5 0.224 0.5 0.5z"></path>
</svg>
