<svg version="1.1" xmlns="http://www.w3.org/2000/svg" width="32" height="32" viewBox="0 0 32 32">
<title>trademark</title>
<path d="M13.5 9h-10c-0.276 0-0.5 0.224-0.5 0.5s0.224 0.5 0.5 0.5v0h4.5v12.5c0 0.276 0.224 0.5 0.5 0.5s0.5-0.224 0.5-0.5v0-12.5h4.5c0.276 0 0.5-0.224 0.5-0.5s-0.224-0.5-0.5-0.5v0z"></path>
<path d="M27.658 9.025c-0.046-0.015-0.099-0.024-0.154-0.024-0.164 0-0.31 0.077-0.403 0.198l-0.001 0.001-5.1 6.805-5.1-6.805c-0.092-0.122-0.237-0.2-0.4-0.2-0.276 0-0.5 0.224-0.5 0.5v0 13c0 0.276 0.224 0.5 0.5 0.5s0.5-0.224 0.5-0.5v0-11.5l4.6 6.138c0.096 0.116 0.239 0.189 0.4 0.189s0.304-0.073 0.399-0.188l0.001-0.001 4.6-6.138v11.5c0 0.276 0.224 0.5 0.5 0.5s0.5-0.224 0.5-0.5v0-13c0-0 0-0 0-0.001 0-0.22-0.142-0.406-0.338-0.473l-0.004-0.001z"></path>
</svg>
