<svg id="Layer_1" data-name="Layer 1" xmlns="http://www.w3.org/2000/svg" width="32" height="32" viewBox="0 0 32 32"><path d="M16,21a3,3,0,1,0-3-3A3,3,0,0,0,16,21Z"/><path d="M16,12a3,3,0,1,0-3-3A3,3,0,0,0,16,12Zm0-5a2,2,0,1,1-2,2A2,2,0,0,1,16,7Z"/><path d="M26.5,15H23V11.869A5.592,5.592,0,0,0,27,6.5a.5.5,0,0,0-.5-.5H23V5a3,3,0,0,0-3-3H12A3,3,0,0,0,9,5V6H5.5a.5.5,0,0,0-.5.5,5.592,5.592,0,0,0,4,5.369V15H5.5a.5.5,0,0,0-.5.5,5.592,5.592,0,0,0,4,5.369V22a3,3,0,0,0,3,3h1v4.5a.5.5,0,0,0,1,0V25h4v4.5a.5.5,0,0,0,1,0V25h1a3,3,0,0,0,3-3V20.869A5.592,5.592,0,0,0,27,15.5.5.5,0,0,0,26.5,15ZM6.027,7H9v3.832A4.6,4.6,0,0,1,6.027,7Zm0,9H9v3.832A4.6,4.6,0,0,1,6.027,16ZM25.973,7A4.6,4.6,0,0,1,23,10.832V7ZM22,22a2,2,0,0,1-2,2H12a2,2,0,0,1-2-2V5a2,2,0,0,1,2-2h8a2,2,0,0,1,2,2Zm1-2.168V16h2.973A4.6,4.6,0,0,1,23,19.832Z"/></svg>