<svg version="1.1" xmlns="http://www.w3.org/2000/svg" width="32" height="32" viewBox="0 0 32 32">
<title>train</title>
<path d="M17 14c0 0.552-0.448 1-1 1s-1-0.448-1-1c0-0.552 0.448-1 1-1s1 0.448 1 1z"></path>
<path d="M25.854 29.146l-3.482-3.482c0.466-0.202 0.926-0.419 1.371-0.665 0.158-0.088 0.257-0.256 0.257-0.437v-3.562h0.5c0.276 0 0.5-0.224 0.5-0.5v-7.81c0-0.52-0.256-0.993-0.685-1.266-0.103-0.066-0.211-0.122-0.315-0.186v-4.581c0-0.631-0.392-1.199-0.976-1.413-1.623-0.594-3.315-0.966-5.024-1.133v-0.611c0-0.827-0.673-1.5-1.5-1.5h-1c-0.827 0-1.5 0.673-1.5 1.5v0.611c-1.709 0.167-3.401 0.539-5.024 1.133-0.584 0.214-0.976 0.782-0.976 1.413v4.581c-0.104 0.063-0.212 0.12-0.315 0.186-0.429 0.273-0.685 0.747-0.685 1.266v7.81c0 0.276 0.224 0.5 0.5 0.5h0.5v3.562c0 0.182 0.099 0.349 0.258 0.437 0.445 0.247 0.905 0.463 1.371 0.665l-3.482 3.482c-0.195 0.195-0.195 0.512 0 0.707 0.097 0.098 0.225 0.147 0.353 0.147s0.256-0.049 0.354-0.146l3.788-3.788c0.518 0.184 1.047 0.337 1.585 0.468l-0.211 0.845c-0.037 0.149-0.004 0.308 0.091 0.429s0.239 0.192 0.393 0.192h7c0.154 0 0.3-0.071 0.395-0.192s0.128-0.28 0.091-0.429l-0.211-0.845c0.537-0.13 1.066-0.284 1.585-0.468l3.788 3.788c0.096 0.097 0.224 0.146 0.352 0.146s0.256-0.049 0.354-0.146c0.195-0.196 0.195-0.512 0-0.708zM23 6.657v4.026c-0.653-0.332-1.326-0.616-2.017-0.851 0.005-0.027 0.017-0.053 0.017-0.082v-4.093c0.567 0.15 1.128 0.324 1.681 0.527 0.191 0.070 0.319 0.26 0.319 0.473zM20 5.436v4.097c-1.297-0.347-2.639-0.533-4-0.533s-2.703 0.186-4 0.533v-4.097c2.635-0.551 5.365-0.551 8 0zM15 3.5c0-0.276 0.225-0.5 0.5-0.5h1c0.275 0 0.5 0.224 0.5 0.5v0.549c-0.667-0.032-1.333-0.032-2 0v-0.549zM9 6.657c0-0.213 0.128-0.404 0.319-0.474 0.553-0.202 1.114-0.376 1.681-0.526v4.093c0 0.029 0.012 0.055 0.017 0.083-0.69 0.235-1.364 0.519-2.017 0.851v-4.027zM8 12.69c0-0.174 0.085-0.336 0.222-0.423 2.326-1.483 5.016-2.267 7.778-2.267s5.452 0.784 7.778 2.268c0.137 0.087 0.222 0.249 0.222 0.422v7.31h-16v-7.31zM13.141 27l0.75-3h4.219l0.75 3h-5.719zM18.985 23.379c-0.055-0.223-0.256-0.379-0.485-0.379h-5c-0.229 0-0.43 0.156-0.485 0.379l-0.547 2.187c-1.209-0.293-2.375-0.724-3.468-1.302v-3.264h14v3.264c-1.093 0.578-2.259 1.008-3.468 1.302l-0.547-2.187z"></path>
</svg>
