<svg version="1.1" xmlns="http://www.w3.org/2000/svg" width="32" height="32" viewBox="0 0 32 32">
<title>trash</title>
<path d="M27.5 6h-6.5v-2.5c0-0.827-0.673-1.5-1.5-1.5h-7c-0.827 0-1.5 0.673-1.5 1.5v2.5h-6.5c-0.276 0-0.5 0.224-0.5 0.5s0.224 0.5 0.5 0.5h1.561l2.943 22.564c0.033 0.249 0.245 0.436 0.496 0.436h13c0.251 0 0.463-0.187 0.496-0.436l2.943-22.564h1.561c0.276 0 0.5-0.224 0.5-0.5s-0.224-0.5-0.5-0.5zM14 24.5c0 0.276-0.224 0.5-0.5 0.5s-0.5-0.224-0.5-0.5v-13c0-0.276 0.224-0.5 0.5-0.5s0.5 0.224 0.5 0.5v13zM19 24.5c0 0.276-0.224 0.5-0.5 0.5s-0.5-0.224-0.5-0.5v-13c0-0.276 0.224-0.5 0.5-0.5s0.5 0.224 0.5 0.5v13zM20 6h-8v-2.5c0-0.275 0.225-0.5 0.5-0.5h7c0.275 0 0.5 0.225 0.5 0.5v2.5z"></path>
</svg>
