<svg version="1.1" xmlns="http://www.w3.org/2000/svg" width="32" height="32" viewBox="0 0 32 32">
<title>tree</title>
<path d="M26.894 24.191l-4.866-6.191h2.472c0.191 0 0.366-0.109 0.449-0.281s0.062-0.377-0.056-0.527l-4.865-6.192h1.472c0.191 0 0.366-0.109 0.449-0.281s0.062-0.377-0.056-0.527l-5.5-7c-0.189-0.242-0.598-0.242-0.787 0l-5.5 7c-0.118 0.15-0.14 0.355-0.056 0.527s0.259 0.281 0.45 0.281h1.472l-4.865 6.191c-0.118 0.15-0.14 0.355-0.056 0.527s0.258 0.282 0.449 0.282h2.472l-4.865 6.191c-0.118 0.15-0.14 0.355-0.056 0.527s0.258 0.282 0.449 0.282h8.5v3.5c0 0.276 0.224 0.5 0.5 0.5h3c0.276 0 0.5-0.224 0.5-0.5v-3.5h8.5c0.191 0 0.366-0.109 0.449-0.281s0.063-0.377-0.055-0.528zM17 28h-2v-3h2v3zM17.5 24h-10.972l4.865-6.191c0.118-0.15 0.14-0.355 0.056-0.527-0.083-0.173-0.258-0.282-0.449-0.282h-2.472l4.865-6.191c0.118-0.15 0.14-0.355 0.056-0.527-0.083-0.173-0.258-0.282-0.449-0.282h-1.472l4.472-5.69 4.472 5.69h-1.472c-0.191 0-0.366 0.109-0.449 0.281s-0.062 0.377 0.056 0.527l4.865 6.192h-2.472c-0.191 0-0.366 0.109-0.449 0.281s-0.062 0.377 0.056 0.527l4.865 6.192h-7.972z"></path>
</svg>
