<svg version="1.1" xmlns="http://www.w3.org/2000/svg" width="32" height="32" viewBox="0 0 32 32">
<title>tree-org</title>
<path d="M14.5 16h13c0.276 0 0.5-0.224 0.5-0.5v-8c0-0.276-0.224-0.5-0.5-0.5h-13c-0.276 0-0.5 0.224-0.5 0.5v3.5h-9v-6c0-0.276-0.224-0.5-0.5-0.5s-0.5 0.224-0.5 0.5v18.5c0 0.276 0.224 0.5 0.5 0.5h9.5v3.5c0 0.276 0.224 0.5 0.5 0.5h13c0.276 0 0.5-0.224 0.5-0.5v-8c0-0.276-0.224-0.5-0.5-0.5h-13c-0.276 0-0.5 0.224-0.5 0.5v3.5h-9v-11h9v3.5c0 0.276 0.224 0.5 0.5 0.5zM15 8h12v7h-12v-7zM15 20h12v7h-12v-7z"></path>
</svg>
