<svg version="1.1" xmlns="http://www.w3.org/2000/svg" width="32" height="32" viewBox="0 0 32 32">
<title>trigger</title>
<path d="M29.5 9c-0.276 0-0.5 0.224-0.5 0.5v5.793l-8.146-8.146c-0.195-0.195-0.512-0.195-0.707 0l-8.276 8.276c-1.046-0.886-2.396-1.423-3.871-1.423-3.309 0-6 2.691-6 6s2.691 6 6 6 6-2.691 6-6c0-1.475-0.537-2.824-1.423-3.87l7.923-7.923 7.793 7.793h-5.793c-0.276 0-0.5 0.224-0.5 0.5s0.224 0.5 0.5 0.5h7c0.276 0 0.5-0.224 0.5-0.5v-7c0-0.276-0.224-0.5-0.5-0.5zM8 25c-2.757 0-5-2.243-5-5s2.243-5 5-5 5 2.243 5 5-2.243 5-5 5z"></path>
</svg>
