<svg version="1.1" xmlns="http://www.w3.org/2000/svg" width="32" height="32" viewBox="0 0 32 32">
<title>tty</title>
<path d="M29.84 9.432c-3.62-3.366-8.489-5.432-13.84-5.432s-10.22 2.066-13.853 5.444l0.013-0.012c-0.099 0.092-0.16 0.222-0.16 0.367 0 0.103 0.031 0.198 0.084 0.278l-0.001-0.002 3.126 4.7c0.091 0.135 0.243 0.223 0.417 0.223 0.097 0 0.188-0.028 0.265-0.076l-0.002 0.001c1.653-1.032 3.571-1.843 5.615-2.33l0.131-0.026c0.223-0.053 0.387-0.251 0.387-0.487v0-3.5c1.191-0.368 2.56-0.579 3.979-0.579s2.788 0.212 4.078 0.605l-0.099-0.026v3.5c0 0.236 0.164 0.434 0.384 0.486l0.003 0.001c2.175 0.513 4.093 1.324 5.828 2.403l-0.082-0.047c0.074 0.046 0.165 0.074 0.262 0.074 0.173 0 0.325-0.088 0.415-0.221l0.001-0.002 3.126-4.7c0.052-0.078 0.084-0.174 0.084-0.277 0-0.145-0.061-0.275-0.159-0.366l-0-0zM26.222 13.826c-1.509-0.894-3.255-1.626-5.102-2.105l-0.141-0.031v-3.477c-0-0.221-0.143-0.408-0.341-0.474l-0.004-0.001c-1.384-0.466-2.978-0.735-4.634-0.735s-3.25 0.269-4.74 0.766l0.106-0.031c-0.202 0.067-0.345 0.254-0.345 0.475v3.477c-1.989 0.51-3.734 1.242-5.338 2.188l0.095-0.052-2.624-3.947c3.4-3.028 7.907-4.879 12.846-4.879s9.446 1.85 12.865 4.896l-0.019-0.017z"></path>
<path d="M6.5 17h-1c-0.828 0-1.5 0.672-1.5 1.5s0.672 1.5 1.5 1.5v0h1c0.828 0 1.5-0.672 1.5-1.5s-0.672-1.5-1.5-1.5v0zM6.5 19h-1c-0.276 0-0.5-0.224-0.5-0.5s0.224-0.5 0.5-0.5v0h1c0.276 0 0.5 0.224 0.5 0.5s-0.224 0.5-0.5 0.5v0z"></path>
<path d="M10.5 20h1c0.828 0 1.5-0.672 1.5-1.5s-0.672-1.5-1.5-1.5v0h-1c-0.828 0-1.5 0.672-1.5 1.5s0.672 1.5 1.5 1.5v0zM10.5 18h1c0.276 0 0.5 0.224 0.5 0.5s-0.224 0.5-0.5 0.5v0h-1c-0.276 0-0.5-0.224-0.5-0.5s0.224-0.5 0.5-0.5v0z"></path>
<path d="M15.5 20h1c0.828 0 1.5-0.672 1.5-1.5s-0.672-1.5-1.5-1.5v0h-1c-0.828 0-1.5 0.672-1.5 1.5s0.672 1.5 1.5 1.5v0zM15.5 18h1c0.276 0 0.5 0.224 0.5 0.5s-0.224 0.5-0.5 0.5v0h-1c-0.276 0-0.5-0.224-0.5-0.5s0.224-0.5 0.5-0.5v0z"></path>
<path d="M21.5 17h-1c-0.828 0-1.5 0.672-1.5 1.5s0.672 1.5 1.5 1.5v0h1c0.828 0 1.5-0.672 1.5-1.5s-0.672-1.5-1.5-1.5v0zM21.5 19h-1c-0.276 0-0.5-0.224-0.5-0.5s0.224-0.5 0.5-0.5v0h1c0.276 0 0.5 0.224 0.5 0.5s-0.224 0.5-0.5 0.5v0z"></path>
<path d="M26.5 17h-1c-0.828 0-1.5 0.672-1.5 1.5s0.672 1.5 1.5 1.5v0h1c0.828 0 1.5-0.672 1.5-1.5s-0.672-1.5-1.5-1.5v0zM26.5 19h-1c-0.276 0-0.5-0.224-0.5-0.5s0.224-0.5 0.5-0.5v0h1c0.276 0 0.5 0.224 0.5 0.5s-0.224 0.5-0.5 0.5v0z"></path>
<path d="M6.5 21h-1c-0.828 0-1.5 0.672-1.5 1.5s0.672 1.5 1.5 1.5v0h1c0.828 0 1.5-0.672 1.5-1.5s-0.672-1.5-1.5-1.5v0zM6.5 23h-1c-0.276 0-0.5-0.224-0.5-0.5s0.224-0.5 0.5-0.5v0h1c0.276 0 0.5 0.224 0.5 0.5s-0.224 0.5-0.5 0.5v0z"></path>
<path d="M10.5 24h1c0.828 0 1.5-0.672 1.5-1.5s-0.672-1.5-1.5-1.5v0h-1c-0.828 0-1.5 0.672-1.5 1.5s0.672 1.5 1.5 1.5v0zM10.5 22h1c0.276 0 0.5 0.224 0.5 0.5s-0.224 0.5-0.5 0.5v0h-1c-0.276 0-0.5-0.224-0.5-0.5s0.224-0.5 0.5-0.5v0z"></path>
<path d="M15.5 24h1c0.828 0 1.5-0.672 1.5-1.5s-0.672-1.5-1.5-1.5v0h-1c-0.828 0-1.5 0.672-1.5 1.5s0.672 1.5 1.5 1.5v0zM15.5 22h1c0.276 0 0.5 0.224 0.5 0.5s-0.224 0.5-0.5 0.5v0h-1c-0.276 0-0.5-0.224-0.5-0.5s0.224-0.5 0.5-0.5v0z"></path>
<path d="M21.5 21h-1c-0.828 0-1.5 0.672-1.5 1.5s0.672 1.5 1.5 1.5v0h1c0.828 0 1.5-0.672 1.5-1.5s-0.672-1.5-1.5-1.5v0zM21.5 23h-1c-0.276 0-0.5-0.224-0.5-0.5s0.224-0.5 0.5-0.5v0h1c0.276 0 0.5 0.224 0.5 0.5s-0.224 0.5-0.5 0.5v0z"></path>
<path d="M26.5 21h-1c-0.828 0-1.5 0.672-1.5 1.5s0.672 1.5 1.5 1.5v0h1c0.828 0 1.5-0.672 1.5-1.5s-0.672-1.5-1.5-1.5v0zM26.5 23h-1c-0.276 0-0.5-0.224-0.5-0.5s0.224-0.5 0.5-0.5v0h1c0.276 0 0.5 0.224 0.5 0.5s-0.224 0.5-0.5 0.5v0z"></path>
<path d="M6.5 25h-1c-0.828 0-1.5 0.672-1.5 1.5s0.672 1.5 1.5 1.5v0h1c0.828 0 1.5-0.672 1.5-1.5s-0.672-1.5-1.5-1.5v0zM6.5 27h-1c-0.276 0-0.5-0.224-0.5-0.5s0.224-0.5 0.5-0.5v0h1c0.276 0 0.5 0.224 0.5 0.5s-0.224 0.5-0.5 0.5v0z"></path>
<path d="M21.5 25h-11c-0.828 0-1.5 0.672-1.5 1.5s0.672 1.5 1.5 1.5v0h11c0.828 0 1.5-0.672 1.5-1.5s-0.672-1.5-1.5-1.5v0zM21.5 27h-11c-0.276 0-0.5-0.224-0.5-0.5s0.224-0.5 0.5-0.5v0h11c0.276 0 0.5 0.224 0.5 0.5s-0.224 0.5-0.5 0.5v0z"></path>
<path d="M26.5 25h-1c-0.828 0-1.5 0.672-1.5 1.5s0.672 1.5 1.5 1.5v0h1c0.828 0 1.5-0.672 1.5-1.5s-0.672-1.5-1.5-1.5v0zM26.5 27h-1c-0.276 0-0.5-0.224-0.5-0.5s0.224-0.5 0.5-0.5v0h1c0.276 0 0.5 0.224 0.5 0.5s-0.224 0.5-0.5 0.5v0z"></path>
</svg>
