<svg version="1.1" xmlns="http://www.w3.org/2000/svg" width="32" height="32" viewBox="0 0 32 32">
<title>turkish-lira</title>
<path d="M16.5 5c-6.341 0-11.5 5.159-11.5 11.5s5.159 11.5 11.5 11.5 11.5-5.159 11.5-11.5-5.159-11.5-11.5-11.5zM16.5 27c-5.79 0-10.5-4.71-10.5-10.5s4.71-10.5 10.5-10.5 10.5 4.71 10.5 10.5-4.71 10.5-10.5 10.5z"></path>
<path d="M19.5 17c-0.276 0-0.5 0.224-0.5 0.5 0 1.76-1.306 3.221-3 3.464v-4.758l2.71-1.253c0.25-0.116 0.36-0.413 0.244-0.664s-0.414-0.36-0.664-0.244l-2.29 1.060v-0.898l2.71-1.253c0.25-0.116 0.36-0.413 0.244-0.664s-0.414-0.36-0.664-0.244l-2.29 1.059v-2.605c0-0.276-0.224-0.5-0.5-0.5s-0.5 0.224-0.5 0.5v3.067l-1.602 0.741c-0.251 0.116-0.36 0.413-0.244 0.664 0.084 0.183 0.265 0.29 0.454 0.29 0.070 0 0.142-0.015 0.209-0.046l1.183-0.547v0.898l-1.602 0.741c-0.251 0.116-0.36 0.413-0.244 0.664 0.084 0.183 0.265 0.29 0.454 0.29 0.070 0 0.142-0.015 0.209-0.046l1.183-0.547v4.831c0 0.276 0.224 0.5 0.5 0.5 2.481 0 4.5-2.019 4.5-4.5 0-0.276-0.224-0.5-0.5-0.5z"></path>
</svg>
