<svg version="1.1" xmlns="http://www.w3.org/2000/svg" width="32" height="32" viewBox="0 0 32 32">
<title>umbrella</title>
<path d="M17 4.461v-1.961c0-0.276-0.224-0.5-0.5-0.5s-0.5 0.224-0.5 0.5v1.961c-6.479 0.242-12.019 5.136-12.994 11.591-0.032 0.214 0.077 0.425 0.271 0.521s0.429 0.058 0.58-0.097c0.738-0.751 1.722-1.165 2.771-1.165 1.106 0 2.169 0.489 2.915 1.342 0.189 0.217 0.562 0.217 0.752 0 0.746-0.853 1.809-1.342 2.915-1.342 1.051 0 2.053 0.452 2.791 1.227v10.962c0 0.827-0.673 1.5-1.5 1.5s-1.501-0.673-1.501-1.5v-1c0-0.276-0.224-0.5-0.5-0.5s-0.5 0.224-0.5 0.5v1c0 1.379 1.121 2.5 2.5 2.5s2.5-1.121 2.5-2.5v-10.962c0.738-0.774 1.74-1.227 2.791-1.227 1.106 0 2.169 0.489 2.915 1.342 0.095 0.108 0.231 0.171 0.376 0.171s0.281-0.062 0.376-0.171c0.746-0.853 1.809-1.342 2.915-1.342 1.049 0 2.032 0.414 2.771 1.165 0.151 0.154 0.387 0.192 0.58 0.097 0.193-0.097 0.303-0.308 0.271-0.521-0.976-6.455-6.516-11.349-12.995-11.591zM23.082 15.608c-0.901-0.83-2.074-1.297-3.291-1.297s-2.39 0.467-3.291 1.297c-0.901-0.83-2.074-1.297-3.291-1.297s-2.39 0.467-3.291 1.297c-1.526-1.405-3.911-1.661-5.662-0.684 1.429-5.49 6.479-9.487 12.244-9.487s10.815 3.997 12.244 9.487c-1.751-0.978-4.136-0.722-5.662 0.684z"></path>
</svg>
