<svg version="1.1" xmlns="http://www.w3.org/2000/svg" width="32" height="32" viewBox="0 0 32 32">
<title>undo-arrow</title>
<path d="M9.5 15c-0.128 0-0.256-0.049-0.354-0.146l-5-5c-0.195-0.195-0.195-0.512 0-0.707l5-5c0.195-0.195 0.512-0.195 0.707 0s0.195 0.512 0 0.707l-4.646 4.646 4.646 4.646c0.195 0.195 0.195 0.512 0 0.707-0.097 0.098-0.225 0.147-0.353 0.147z"></path>
<path d="M21 23h-16.5c-0.276 0-0.5-0.224-0.5-0.5s0.224-0.5 0.5-0.5h16.5c3.309 0 6-2.691 6-6s-2.691-6-6-6h-16.5c-0.276 0-0.5-0.224-0.5-0.5s0.224-0.5 0.5-0.5h16.5c3.859 0 7 3.141 7 7s-3.141 7-7 7z"></path>
</svg>
