<svg version="1.1" xmlns="http://www.w3.org/2000/svg" width="32" height="32" viewBox="0 0 32 32">
<title>undo</title>
<path d="M16 4c-3.465 0-6.735 1.499-9 4.070v-3.57c0-0.276-0.224-0.5-0.5-0.5s-0.5 0.224-0.5 0.5v5c0 0.276 0.224 0.5 0.5 0.5h5c0.276 0 0.5-0.224 0.5-0.5s-0.224-0.5-0.5-0.5h-3.96c2.082-2.514 5.169-4 8.46-4 6.065 0 11 4.935 11 11s-4.935 11-11 11-11-4.935-11-11c0-0.784 0.090-1.589 0.269-2.392 0.060-0.27-0.11-0.537-0.38-0.596-0.27-0.061-0.536 0.111-0.597 0.38-0.193 0.874-0.292 1.751-0.292 2.608 0 6.617 5.383 12 12 12s12-5.383 12-12-5.383-12-12-12z"></path>
</svg>
