<svg version="1.1" xmlns="http://www.w3.org/2000/svg" width="32" height="32" viewBox="0 0 32 32">
<title>undo-alt</title>
<path d="M27.5 13c0.276 0 0.5-0.224 0.5-0.5v-8c0-0.827-0.673-1.5-1.5-1.5h-21c-0.827 0-1.5 0.673-1.5 1.5v21c0 0.827 0.673 1.5 1.5 1.5h16c3.584 0 6.5-2.916 6.5-6.5s-2.916-6.5-6.5-6.5h-9.793l4.146-4.146c0.195-0.195 0.195-0.512 0-0.707s-0.512-0.195-0.707 0l-5 5c-0.195 0.195-0.195 0.512 0 0.707l5 5c0.098 0.097 0.226 0.146 0.354 0.146s0.256-0.049 0.354-0.146c0.195-0.195 0.195-0.512 0-0.707l-4.147-4.147h9.793c3.032 0 5.5 2.468 5.5 5.5s-2.468 5.5-5.5 5.5h-16c-0.275 0-0.5-0.225-0.5-0.5v-21c0-0.275 0.225-0.5 0.5-0.5h21c0.275 0 0.5 0.225 0.5 0.5v8c0 0.276 0.224 0.5 0.5 0.5z"></path>
</svg>
