<svg version="1.1" xmlns="http://www.w3.org/2000/svg" width="32" height="32" viewBox="0 0 32 32">
<title>universal-access</title>
<path d="M17.5 10c0 0.828-0.672 1.5-1.5 1.5s-1.5-0.672-1.5-1.5c0-0.828 0.672-1.5 1.5-1.5s1.5 0.672 1.5 1.5z"></path>
<path d="M16 2c-7.7 0-14 6.3-14 14s6.3 14 14 14c7.7 0 14-6.3 14-14s-6.3-14-14-14zM16 29c-7.2 0-13-5.8-13-13s5.8-13 13-13c7.2 0 13 5.8 13 13s-5.8 13-13 13z"></path>
<path d="M21.9 12.3l-1.9 0.3c-2.6 0.5-5.3 0.5-7.9 0l-1.9-0.4c-0.4-0.1-0.8 0.2-0.9 0.6s0.2 0.8 0.6 0.9l1.9 0.4c0.8 0.2 1.7 0.3 2.5 0.4v1.9c0 0.3-0.1 0.7-0.2 1l-1.8 5.4c0 0 0 0 0 0-0.1 0.4 0.1 0.8 0.5 0.9 0.1 0 0.2 0 0.2 0 0.3 0 0.6-0.2 0.7-0.5l1.7-5c0 0 0 0 0 0 0.1-0.1 0.2-0.3 0.3-0.3 0.3-0.1 0.7 0 0.9 0.3 0 0 0 0 0 0l1.7 5c0.1 0.3 0.4 0.5 0.7 0.5 0.1 0 0.2 0 0.2 0s0 0 0 0c0.4-0.1 0.6-0.6 0.5-0.9l-1.8-5.4c-0.1-0.3-0.2-0.7-0.2-1v-1.9c0.8-0.1 1.7-0.2 2.5-0.4l1.9-0.4c0.4-0.1 0.6-0.5 0.6-0.9-0.1-0.3-0.4-0.6-0.8-0.5z"></path>
</svg>
