<svg version="1.1" xmlns="http://www.w3.org/2000/svg" width="32" height="32" viewBox="0 0 32 32">
<title>university</title>
<path d="M30.771 12.079l-14-9c-0.077-0.049-0.17-0.079-0.271-0.079s-0.194 0.029-0.273 0.080l0.002-0.001-14 9c-0.139 0.090-0.229 0.245-0.229 0.42 0 0 0 0.001 0 0.001v-0 1c0 0.276 0.224 0.5 0.5 0.5v0h1.5v10h-0.5c-0.276 0-0.5 0.224-0.5 0.5v0 3c0 0.276 0.224 0.5 0.5 0.5v0h26c0.276 0 0.5-0.224 0.5-0.5v0-3c0-0.276-0.224-0.5-0.5-0.5v0h-0.5v-10h1.5c0.276 0 0.5-0.224 0.5-0.5v0-1c0-0 0-0.001 0-0.001 0-0.175-0.090-0.33-0.227-0.419l-0.002-0.001zM5 14h2v10h-2zM22 24v-10h3v10zM21 24h-2v-10h2zM18 24h-3v-10h3zM14 24h-2v-10h2zM11 24h-3v-10h3zM29 27h-25v-2h25zM28 24h-2v-10h2zM30 13h-27v-0.227l13.5-8.673 13.5 8.673z"></path>
</svg>
