<svg version="1.1" xmlns="http://www.w3.org/2000/svg" width="32" height="32" viewBox="0 0 32 32">
<title>unlink</title>
<path d="M9.146 22.146l-3 3c-0.195 0.195-0.195 0.512 0 0.707 0.098 0.098 0.226 0.147 0.354 0.147s0.256-0.049 0.354-0.146l3-3c0.195-0.195 0.195-0.512 0-0.707s-0.512-0.196-0.708-0.001z"></path>
<path d="M22.5 10c0.128 0 0.256-0.049 0.354-0.146l3-3c0.195-0.195 0.195-0.512 0-0.707s-0.512-0.195-0.707 0l-3 3c-0.195 0.195-0.195 0.512 0 0.707 0.097 0.097 0.225 0.146 0.353 0.146z"></path>
<path d="M19.5 8c0.276 0 0.5-0.224 0.5-0.5v-4c0-0.276-0.224-0.5-0.5-0.5s-0.5 0.224-0.5 0.5v4c0 0.276 0.224 0.5 0.5 0.5z"></path>
<path d="M28.5 12h-4c-0.276 0-0.5 0.224-0.5 0.5s0.224 0.5 0.5 0.5h4c0.276 0 0.5-0.224 0.5-0.5s-0.224-0.5-0.5-0.5z"></path>
<path d="M12.5 24c-0.276 0-0.5 0.224-0.5 0.5v4c0 0.276 0.224 0.5 0.5 0.5s0.5-0.224 0.5-0.5v-4c0-0.276-0.224-0.5-0.5-0.5z"></path>
<path d="M8 19.5c0-0.276-0.224-0.5-0.5-0.5h-4c-0.276 0-0.5 0.224-0.5 0.5s0.224 0.5 0.5 0.5h4c0.276 0 0.5-0.224 0.5-0.5z"></path>
<path d="M15.854 9.146l-2.758-2.759c-0.897-0.894-2.087-1.387-3.356-1.387-2.614 0-4.74 2.126-4.74 4.744 0 1.267 0.493 2.457 1.389 3.352l2.758 2.758c0.097 0.097 0.225 0.146 0.353 0.146s0.256-0.049 0.354-0.146c0.195-0.195 0.195-0.512 0-0.707l-2.758-2.759c-0.707-0.706-1.096-1.645-1.096-2.648 0-2.062 1.678-3.74 3.744-3.74 0.998 0 1.938 0.389 2.645 1.095l2.758 2.758c0.195 0.195 0.512 0.195 0.707 0s0.195-0.511 0-0.707z"></path>
<path d="M22.854 16.146c-0.195-0.195-0.512-0.195-0.707 0s-0.195 0.512 0 0.707l2.758 2.759c0.706 0.706 1.095 1.645 1.095 2.648 0 2.062-1.678 3.74-3.744 3.74-0.998 0-1.938-0.389-2.645-1.095l-2.758-2.758c-0.195-0.195-0.512-0.195-0.707 0s-0.195 0.512 0 0.707l2.758 2.759c0.897 0.894 2.087 1.387 3.356 1.387 2.614 0 4.74-2.126 4.74-4.744 0-1.267-0.493-2.457-1.389-3.352l-2.757-2.758z"></path>
</svg>
