<svg version="1.1" xmlns="http://www.w3.org/2000/svg" width="32" height="32" viewBox="0 0 32 32">
<title>unlock</title>
<path d="M18 18c-1.105 0-2 0.895-2 2v0 2c0 1.105 0.895 2 2 2s2-0.895 2-2v0-2c0-1.105-0.895-2-2-2v0zM19 22c0 0.552-0.448 1-1 1s-1-0.448-1-1v0-2c0-0.552 0.448-1 1-1s1 0.448 1 1v0z"></path>
<path d="M27.056 12h-15.056v-5c0-2.761-2.239-5-5-5s-5 2.239-5 5v0 2.5c0 0.276 0.224 0.5 0.5 0.5s0.5-0.224 0.5-0.5v0-2.5c0-2.209 1.791-4 4-4s4 1.791 4 4v0 5h-2.056c-1.657 0-3 1.343-3 3v0 12c0 1.657 1.343 3 3 3v0h18.112c1.657 0 3-1.343 3-3v0-12c0-1.657-1.343-3-3-3v0zM29.056 27c0 1.105-0.895 2-2 2v0h-18.112c-1.105 0-2-0.895-2-2v0-12c0-1.105 0.895-2 2-2v0h18.112c1.105 0 2 0.895 2 2v0z"></path>
</svg>
