<svg version="1.1" xmlns="http://www.w3.org/2000/svg" width="32" height="32" viewBox="0 0 32 32">
<title>unlock-alt</title>
<path d="M16 18c-1.105 0-2 0.895-2 2v0 2c0 1.105 0.895 2 2 2s2-0.895 2-2v0-2c0-1.105-0.895-2-2-2v0zM17 22c0 0.552-0.448 1-1 1s-1-0.448-1-1v0-2c0-0.552 0.448-1 1-1s1 0.448 1 1v0z"></path>
<path d="M25.056 12h-2.056v-3c0-0 0-0 0-0.001 0-3.866-3.134-7-7-7-1.933 0-3.683 0.784-4.95 2.050v0c-0.087 0.090-0.14 0.212-0.14 0.347 0 0.276 0.224 0.5 0.5 0.5 0.135 0 0.258-0.053 0.348-0.141l-0 0c1.086-1.086 2.586-1.758 4.243-1.758 3.314 0 6 2.686 6 6 0 0 0 0.001 0 0.001v-0 3h-15.056c-1.657 0-3 1.343-3 3v0 12c0 1.657 1.343 3 3 3v0h18.112c1.657 0 3-1.343 3-3v0-12c0-1.657-1.343-3-3-3v0zM27.056 27c0 1.105-0.895 2-2 2v0h-18.112c-1.105 0-2-0.895-2-2v0-12c0-1.105 0.895-2 2-2v0h18.112c1.105 0 2 0.895 2 2v0z"></path>
</svg>
