<svg version="1.1" xmlns="http://www.w3.org/2000/svg" width="32" height="32" viewBox="0 0 32 32">
<title>unsorted</title>
<path d="M9.354 10.854l6.646-6.647 6.646 6.646c0.098 0.098 0.226 0.147 0.354 0.147s0.256-0.049 0.354-0.146c0.195-0.195 0.195-0.512 0-0.707l-7-7c-0.195-0.195-0.512-0.195-0.707 0l-7 7c-0.195 0.195-0.195 0.512 0 0.707s0.511 0.195 0.707 0z"></path>
<path d="M22.646 21.146l-6.646 6.647-6.646-6.646c-0.195-0.195-0.512-0.195-0.707 0s-0.195 0.512 0 0.707l7 7c0.097 0.097 0.225 0.146 0.353 0.146s0.256-0.049 0.354-0.146l7-7c0.195-0.195 0.195-0.512 0-0.707s-0.512-0.196-0.708-0.001z"></path>
</svg>
