<svg version="1.1" xmlns="http://www.w3.org/2000/svg" width="32" height="32" viewBox="0 0 32 32">
<title>upload</title>
<path d="M27.5 19c-0.276 0-0.5 0.224-0.5 0.5v7.5h-21v-7.5c0-0.276-0.224-0.5-0.5-0.5s-0.5 0.224-0.5 0.5v8c0 0.276 0.224 0.5 0.5 0.5h22c0.276 0 0.5-0.224 0.5-0.5v-8c0-0.276-0.224-0.5-0.5-0.5z"></path>
<path d="M11.854 9.854l4.146-4.147v16.793c0 0.276 0.224 0.5 0.5 0.5s0.5-0.224 0.5-0.5v-16.793l4.146 4.146c0.098 0.098 0.226 0.147 0.354 0.147s0.256-0.049 0.354-0.146c0.195-0.195 0.195-0.512 0-0.707l-5-5c-0.195-0.195-0.512-0.195-0.707 0l-5 5c-0.195 0.195-0.195 0.512 0 0.707s0.511 0.195 0.707 0z"></path>
</svg>
