<svg version="1.1" xmlns="http://www.w3.org/2000/svg" width="32" height="32" viewBox="0 0 32 32">
<title>usd</title>
<path d="M16.5 5c-6.341 0-11.5 5.159-11.5 11.5s5.159 11.5 11.5 11.5 11.5-5.159 11.5-11.5-5.159-11.5-11.5-11.5zM16.5 27c-5.79 0-10.5-4.71-10.5-10.5s4.71-10.5 10.5-10.5 10.5 4.71 10.5 10.5-4.71 10.5-10.5 10.5z"></path>
<path d="M19 14.25c0 0.276 0.224 0.5 0.5 0.5s0.5-0.224 0.5-0.5c0-1.382-1.308-2.518-3-2.71v-1.040c0-0.276-0.224-0.5-0.5-0.5s-0.5 0.224-0.5 0.5v1.040c-1.692 0.193-3 1.328-3 2.71 0 0.921 0.743 1.75 1.988 2.217l1.012 0.379v3.616c-1.125-0.167-2-0.884-2-1.713 0-0.276-0.224-0.5-0.5-0.5s-0.5 0.224-0.5 0.5c0 1.382 1.308 2.518 3 2.71v1.040c0 0.276 0.224 0.5 0.5 0.5s0.5-0.224 0.5-0.5v-1.040c1.692-0.193 3-1.328 3-2.71 0-0.921-0.743-1.75-1.988-2.217l-1.012-0.378v-3.616c1.125 0.167 2 0.883 2 1.712zM17.66 17.469c0.826 0.31 1.34 0.801 1.34 1.281 0 0.829-0.875 1.545-2 1.713v-3.241l0.66 0.247zM15.34 15.531c-0.826-0.31-1.34-0.801-1.34-1.281 0-0.829 0.875-1.545 2-1.713v3.241l-0.66-0.247z"></path>
</svg>
