<svg version="1.1" xmlns="http://www.w3.org/2000/svg" width="32" height="32" viewBox="0 0 32 32">
<title>user-magnifying-glass</title>
<path d="M28.854 28.146l-3.707-3.707c0.526-0.677 0.853-1.517 0.853-2.439 0-2.206-1.794-4-4-4s-4 1.794-4 4 1.794 4 4 4c0.923 0 1.763-0.327 2.44-0.853l3.707 3.707c0.097 0.097 0.225 0.146 0.353 0.146s0.256-0.049 0.354-0.146c0.195-0.196 0.195-0.512 0-0.708zM22 25c-1.654 0-3-1.346-3-3s1.346-3 3-3 3 1.346 3 3-1.346 3-3 3z"></path>
<path d="M16.705 17.076l-0.352-0.158c-0.747-0.334-1.247-1.14-1.322-2.041 1.774-1.203 2.97-3.421 2.97-5.96-0.001-3.814-2.692-6.917-6.001-6.917s-6 3.103-6 6.917c0 2.539 1.196 4.756 2.97 5.959-0.076 0.901-0.576 1.707-1.322 2.041l-3.703 1.657c-1.182 0.53-1.945 1.777-1.945 3.178v1.748c0 0.276 0.224 0.5 0.5 0.5s0.5-0.224 0.5-0.5v-1.748c0-0.992 0.543-1.902 1.353-2.264l3.703-1.657c0.967-0.433 1.645-1.35 1.863-2.435 0.65 0.278 1.349 0.438 2.082 0.438s1.432-0.16 2.082-0.438c0.217 1.086 0.896 2.003 1.862 2.435l0.352 0.158c0.066 0.030 0.136 0.044 0.204 0.044 0.191 0 0.374-0.11 0.457-0.295 0.111-0.254-0.001-0.55-0.253-0.662zM7 8.916c0-3.262 2.243-5.916 5-5.916s5 2.654 5 5.916v0.001c0 3.262-2.243 5.916-5 5.916s-5-2.654-5-5.917z"></path>
</svg>
