<svg version="1.1" xmlns="http://www.w3.org/2000/svg" width="32" height="32" viewBox="0 0 32 32">
<title>users</title>
<path d="M21.935 23.328l-3.967-1.748c-0.892-0.393-1.468-1.34-1.468-2.413v-0.249c2.089-1.386 3.5-3.965 3.5-6.918 0-4.412-3.14-8-7-8s-7 3.588-7 7.999v0.002c0 2.953 1.411 5.531 3.5 6.917v0.249c0 1.073-0.576 2.020-1.468 2.413l-3.968 1.748c-1.253 0.552-2.064 1.859-2.064 3.328v0.844c0 0.276 0.224 0.5 0.5 0.5s0.5-0.224 0.5-0.5v-0.844c0-1.073 0.576-2.020 1.468-2.413l3.968-1.748c1.17-0.516 1.945-1.691 2.045-3.039 0.782 0.346 1.63 0.544 2.519 0.544s1.737-0.198 2.52-0.545c0.099 1.349 0.874 2.524 2.046 3.040l3.967 1.748c0.891 0.393 1.467 1.34 1.467 2.413v0.844c0 0.276 0.224 0.5 0.5 0.5s0.5-0.224 0.5-0.5v-0.844c0-1.469-0.811-2.776-2.065-3.328zM7 11.999c0-3.859 2.691-6.999 6-6.999s6 3.141 6 7.001c0 3.859-2.691 6.999-6 6.999s-6-3.141-6-7.001z"></path>
<path d="M27.807 21.323l-4.231-1.748c-0.944-0.39-1.558-1.315-1.575-2.365 2.44-1.323 4-4.116 4-7.211 0-5.042-4.15-9.043-8.689-7.755-0.266 0.076-0.42 0.352-0.344 0.618s0.35 0.422 0.618 0.344c3.928-1.117 7.414 2.398 7.414 6.795 0 2.831-1.459 5.364-3.718 6.454-0.173 0.084-0.282 0.258-0.282 0.45v0.261c0 1.474 0.86 2.782 2.193 3.333l4.231 1.748c0.958 0.396 1.576 1.341 1.576 2.409v0.844c0 0.276 0.224 0.5 0.5 0.5s0.5-0.224 0.5-0.5v-0.844c0-1.474-0.86-2.782-2.193-3.333z"></path>
</svg>
