<svg version="1.1" xmlns="http://www.w3.org/2000/svg" width="32" height="32" viewBox="0 0 32 32">
<title>user-wrench</title>
<path d="M29.461 19.59c-0.328-0.136-0.702-0.062-0.953 0.189l-1.6 1.601-1.288-1.295 1.59-1.589c0.252-0.25 0.328-0.625 0.192-0.955s-0.453-0.541-0.808-0.541h-1.099c-1.927 0-3.495 1.571-3.495 3.502v1.167c0 0.4-0.156 0.776-0.439 1.060l-4.003 4.004c-0.36 0.362-0.558 0.842-0.558 1.359 0.001 1.052 0.858 1.908 1.923 1.908 0.511 0 0.991-0.199 1.352-0.561l3.995-3.999c0.279-0.28 0.667-0.44 1.062-0.44h1.173c1.927 0 3.495-1.571 3.495-3.502v-1.099c0-0.355-0.212-0.672-0.539-0.809zM29 21.498c0 1.379-1.119 2.502-2.495 2.502h-1.173c-0.659 0-1.305 0.268-1.77 0.733l-3.995 4c-0.172 0.172-0.401 0.267-0.657 0.267-0.501 0-0.909-0.408-0.91-0.916 0-0.24 0.097-0.475 0.266-0.644l4.002-4.004c0.472-0.472 0.732-1.099 0.732-1.767v-1.167c0-1.379 1.119-2.502 2.495-2.502h0.797l-1.378 1.376c-0.39 0.389-0.391 1.023-0.003 1.414 0 0 0 0 0 0l1.289 1.296c0.188 0.189 0.439 0.294 0.707 0.294h0.001c0.267 0 0.518-0.104 0.706-0.292l1.386-1.387v0.797z"></path>
<path d="M18.5 18.927c0.19 0 0.373-0.11 0.456-0.296 0.113-0.252 0-0.548-0.252-0.661l-2.352-1.053c-0.747-0.334-1.247-1.14-1.322-2.041 1.774-1.203 2.97-3.421 2.97-5.96 0-3.813-2.691-6.916-6-6.916s-6 3.103-6 6.917c0 2.539 1.196 4.756 2.97 5.959-0.076 0.901-0.576 1.707-1.322 2.041l-3.703 1.657c-1.182 0.53-1.945 1.777-1.945 3.178v1.748c0 0.276 0.224 0.5 0.5 0.5s0.5-0.224 0.5-0.5v-1.748c0-0.992 0.543-1.902 1.353-2.264l3.703-1.657c0.967-0.433 1.645-1.35 1.863-2.435 0.65 0.278 1.349 0.438 2.082 0.438s1.432-0.16 2.082-0.438c0.217 1.086 0.896 2.003 1.863 2.435l2.352 1.053c0.064 0.029 0.134 0.043 0.202 0.043zM7 8.916c0-3.262 2.243-5.916 5-5.916s5 2.654 5 5.916v0.001c0 3.262-2.243 5.916-5 5.916s-5-2.654-5-5.917z"></path>
</svg>
