<svg version="1.1" xmlns="http://www.w3.org/2000/svg" width="32" height="32" viewBox="0 0 32 32">
<title>user-graduate</title>
<path d="M23.676 20.032c-1.808-0.678-3.676-1.379-3.676-2.532v-0.366c1.224-1.332 2-3.257 2-5.403v-3.534l5.646-1.718c0.21-0.065 0.354-0.259 0.354-0.479s-0.144-0.414-0.354-0.479l-11.5-3.5c-0.095-0.029-0.196-0.029-0.291 0l-11.5 3.5c-0.007 0.002-0.010 0.009-0.016 0.011-0.089 0.031-0.163 0.085-0.221 0.157-0.012 0.014-0.019 0.028-0.029 0.043-0.052 0.079-0.089 0.167-0.089 0.268v5.337c-0.299 0.416-1 1.469-1 2.163 0 0.276 0.224 0.5 0.5 0.5h2c0.276 0 0.5-0.224 0.5-0.5 0-0.695-0.701-1.747-1-2.163v-4.662l5 1.522v3.534c0 2.146 0.776 4.071 2 5.403v0.366c0 1.153-1.869 1.854-3.676 2.532-2.126 0.797-4.324 1.621-4.324 3.468v4c0 0.276 0.224 0.5 0.5 0.5s0.5-0.224 0.5-0.5v-4c0-1.153 1.869-1.854 3.676-2.532 1.935-0.725 3.911-1.482 4.253-3.003 0.9 0.652 1.948 1.035 3.071 1.035s2.171-0.383 3.071-1.036c0.343 1.521 2.318 2.278 4.253 3.003 1.808 0.679 3.676 1.38 3.676 2.533v4c0 0.276 0.224 0.5 0.5 0.5s0.5-0.224 0.5-0.5v-4c0-1.847-2.198-2.671-4.324-3.468zM4.163 13c0.088-0.187 0.207-0.399 0.337-0.61 0.131 0.211 0.249 0.424 0.337 0.61h-0.674zM6.217 6l9.783-2.978 9.783 2.978-9.783 2.978-9.783-2.978zM16 18c-2.757 0-5-2.812-5-6.27v-3.229l4.854 1.478c0.048 0.014 0.097 0.021 0.146 0.021s0.098-0.007 0.146-0.021l4.854-1.478v3.229c0 3.458-2.243 6.27-5 6.27z"></path>
</svg>
