<svg version="1.1" xmlns="http://www.w3.org/2000/svg" width="32" height="32" viewBox="0 0 32 32">
<title>user-md</title>
<path d="M23.676 20.032c-1.808-0.678-3.676-1.379-3.676-2.532v-0.366c1.224-1.332 2-3.257 2-5.403v-4.769c0-1.654-1.346-3-3-3h-6c-1.654 0-3 1.346-3 3v4.769c0 2.146 0.776 4.071 2 5.403v0.366c0 1.153-1.869 1.854-3.676 2.532-2.126 0.797-4.324 1.621-4.324 3.468v4c0 0.276 0.224 0.5 0.5 0.5s0.5-0.224 0.5-0.5v-4c0-1.153 1.869-1.854 3.676-2.532 1.935-0.725 3.911-1.482 4.253-3.003 0.9 0.652 1.948 1.035 3.071 1.035s2.171-0.383 3.071-1.036c0.343 1.521 2.318 2.278 4.253 3.003 1.808 0.679 3.676 1.38 3.676 2.533v4c0 0.276 0.224 0.5 0.5 0.5s0.5-0.224 0.5-0.5v-4c0-1.847-2.198-2.671-4.324-3.468zM11 6.962c0-1.103 0.897-2 2-2h6c1.103 0 2 0.897 2 2v3.038h-10v-3.038zM16 18c-2.757 0-5-2.812-5-6.27v-0.73h10v0.73c0 3.458-2.243 6.27-5 6.27z"></path>
<path d="M22.5 25h-1.5v-1.5c0-0.276-0.224-0.5-0.5-0.5s-0.5 0.224-0.5 0.5v1.5h-1.5c-0.276 0-0.5 0.224-0.5 0.5s0.224 0.5 0.5 0.5h1.5v1.5c0 0.276 0.224 0.5 0.5 0.5s0.5-0.224 0.5-0.5v-1.5h1.5c0.276 0 0.5-0.224 0.5-0.5s-0.224-0.5-0.5-0.5z"></path>
</svg>
