<svg version="1.1" xmlns="http://www.w3.org/2000/svg" width="32" height="32" viewBox="0 0 32 32">
<title>user-pointer</title>
<path d="M18 8.916c0-3.813-2.691-6.916-6-6.916s-6 3.103-6 6.917c0 2.539 1.196 4.756 2.97 5.959-0.076 0.901-0.576 1.707-1.322 2.041l-3.703 1.657c-1.182 0.53-1.945 1.777-1.945 3.178v1.748c0 0.276 0.224 0.5 0.5 0.5s0.5-0.224 0.5-0.5v-1.748c0-0.992 0.543-1.902 1.353-2.264l3.703-1.657c0.967-0.433 1.645-1.35 1.863-2.435 0.65 0.278 1.349 0.438 2.082 0.438s1.432-0.16 2.082-0.438c0.217 1.086 0.896 2.003 1.862 2.435l0.352 0.158c0.066 0.030 0.136 0.044 0.204 0.044 0.191 0 0.374-0.11 0.457-0.295 0.113-0.252 0-0.548-0.251-0.661l-0.352-0.158c-0.747-0.334-1.247-1.14-1.322-2.041 1.771-1.205 2.967-3.423 2.967-5.962zM12 14.833c-2.757 0-5-2.655-5-5.917s2.243-5.916 5-5.916 5 2.654 5 5.916v0.001c0 3.263-2.243 5.916-5 5.916z"></path>
<path d="M26.82 23.116l-5.996-5c-0.148-0.124-0.357-0.151-0.532-0.069s-0.288 0.259-0.288 0.453v7.5c0 0.202 0.122 0.385 0.309 0.462 0.062 0.026 0.127 0.038 0.191 0.038 0.13 0 0.258-0.051 0.354-0.147l1.909-1.913 2.168 4.339c0.11 0.219 0.331 0.346 0.56 0.346 0.095 0 0.189-0.021 0.279-0.066 0.309-0.154 0.434-0.53 0.28-0.838l-2.109-4.221h2.555c0.211 0 0.398-0.132 0.47-0.33s0.011-0.419-0.15-0.554z"></path>
</svg>
