<svg id="Layer_1" data-name="Layer 1" xmlns="http://www.w3.org/2000/svg" width="32" height="32" viewBox="0 0 32 32"><path d="M24.5,23H23V21.5a.5.5,0,0,0-1,0V23H20.5a.5.5,0,0,0,0,1H22v1.5a.5.5,0,0,0,1,0V24h1.5a.5.5,0,0,0,0-1Zm4.5-.8v7.3a.5.5,0,0,1-1,0V22.2a4.009,4.009,0,0,0-2.345-3.642l-4.472-2.032L16.5,21.207V25.75a3.25,3.25,0,0,1-6.5,0V24a2.024,2.024,0,1,1,1-.278V25.75a2.25,2.25,0,0,0,4.5,0V21.207l-4.683-4.683L6.345,18.556A4.009,4.009,0,0,0,4,22.2v7.3a.5.5,0,0,1-1,0V22.2a5.009,5.009,0,0,1,2.931-4.552l5.483-2.492A1,1,0,0,0,12,14.243V12.728a6.089,6.089,0,0,1-1-3.371V4.545A2.548,2.548,0,0,1,13.545,2h4.91A2.548,2.548,0,0,1,21,4.545V9.357a6.089,6.089,0,0,1-1,3.371v1.515a1,1,0,0,0,.586.911l5.483,2.492A5.009,5.009,0,0,1,29,22.2ZM10,23a1,1,0,1,0-1-1A1,1,0,0,0,10,23ZM20,9.357V7.84a10.126,10.126,0,0,0-8,0V9.357C12,11.917,13.794,14,16,14S20,11.917,20,9.357ZM12,4.545V6.766a11.1,11.1,0,0,1,8,0V4.545A1.547,1.547,0,0,0,18.455,3h-4.91A1.547,1.547,0,0,0,12,4.545Zm8.211,11.537-.039-.018A2.005,2.005,0,0,1,19,14.243v-.382a4.52,4.52,0,0,1-6,0v.382a2.005,2.005,0,0,1-1.172,1.821l-.039.018L16,20.293Z"/></svg>