<svg version="1.1" xmlns="http://www.w3.org/2000/svg" width="32" height="32" viewBox="0 0 32 32">
<title>user-headset</title>
<path d="M22 15c0 0.552-0.448 1-1 1s-1-0.448-1-1c0-0.552 0.448-1 1-1s1 0.448 1 1z"></path>
<path d="M27.43 16.635l-2.124-2.549c-0.196-0.235-0.315-0.548-0.345-0.902-0.111-1.346-0.488-2.63-1.122-3.824 0.871-0.67 1.304-1.747 1.119-2.866-0.234-1.423-1.567-2.494-3.101-2.494h-7.557c-5.437 0-9.952 4.111-10.28 9.359-0.203 3.256 1.193 6.414 3.734 8.449 0.792 0.634 1.246 1.608 1.246 2.671v3.075c0 0.276 0.224 0.5 0.5 0.5s0.5-0.224 0.5-0.5v-3.075c0-1.369-0.591-2.627-1.621-3.452-2.288-1.831-3.544-4.675-3.361-7.605 0.269-4.31 3.692-7.759 8.021-8.329v7.911c-0.014 0-0.026-0.004-0.039-0.004-1.654 0-3 1.346-3 3s1.346 3 3 3c0.84 0 1.598-0.349 2.143-0.908l4.072 2.819c0.087 0.061 0.186 0.089 0.285 0.089 0.158 0 0.314-0.075 0.411-0.216 0.157-0.227 0.101-0.538-0.127-0.695l-4.075-2.821c0.182-0.387 0.291-0.813 0.291-1.268 0-1.288-0.82-2.379-1.961-2.804v-8.184c0.087-0.002 0.173-0.012 0.261-0.012h7.557c1.049 0 1.958 0.712 2.114 1.655 0.142 0.862-0.264 1.686-1.034 2.1-0.12 0.064-0.209 0.175-0.245 0.307s-0.019 0.271 0.051 0.389c0.699 1.18 1.109 2.463 1.222 3.815 0.045 0.561 0.243 1.065 0.573 1.461l2.124 2.548-2.334 0.855c-0.197 0.072-0.328 0.26-0.328 0.47v2.9c0 1.93-1.57 3.5-3.5 3.5h-2c-0.276 0-0.5 0.224-0.5 0.5v2c0 0.276 0.224 0.5 0.5 0.5s0.5-0.224 0.5-0.5v-1.5h1.5c2.481 0 4.5-2.019 4.5-4.5v-2.551l2.007-0.735c0.304-0.112 0.536-0.366 0.62-0.68 0.084-0.312 0.011-0.649-0.197-0.899zM15 16c0 1.103-0.897 2-2 2s-2-0.897-2-2 0.897-2 2-2 2 0.897 2 2z"></path>
</svg>
