<svg version="1.1" xmlns="http://www.w3.org/2000/svg" width="32" height="32" viewBox="0 0 32 32">
<title>user-man</title>
<path d="M25.223 23.376l-4.72-2.105c-0.001 0-0.001 0-0.002 0-0.912-0.404-1.501-1.377-1.501-2.479v-0.596c0-0.353 0.146-0.58 0.425-0.982 0.357-0.516 0.837-1.208 0.902-2.513 0.722-0.445 1.173-1.265 1.173-2.173 0-0.59-0.189-1.151-0.536-1.602v-1.962c0-2.737-2.026-4.964-4.518-4.964-0.95 0-1.88 0.341-2.65 0.965-0.143-0.042-0.301-0.072-0.475-0.072-1.26 0-2.286 1.198-2.286 2.671v3.362c-0.347 0.451-0.536 1.012-0.536 1.602 0 0.908 0.451 1.729 1.172 2.173 0.064 1.304 0.545 1.998 0.903 2.514 0.28 0.401 0.426 0.628 0.426 0.981v0.596c0 1.102-0.589 2.075-1.503 2.479l-4.722 2.111c-1.078 0.483-1.775 1.557-1.775 2.739v1.385c0 0.133 0.053 0.26 0.146 0.354s0.221 0.146 0.354 0.146l21-0.006c0.276 0 0.5-0.224 0.5-0.5v-1.384c0-1.182-0.698-2.258-1.777-2.74zM26 27l-20 0.006v-0.885c0-0.788 0.464-1.504 1.184-1.826l4.72-2.111c1.273-0.563 2.096-1.895 2.096-3.392v-0.596c0-0.683-0.306-1.125-0.603-1.552-0.36-0.52-0.732-1.057-0.732-2.249 0-0.199-0.118-0.379-0.301-0.458-0.525-0.229-0.864-0.781-0.864-1.409 0-0.411 0.144-0.796 0.406-1.085 0.083-0.092 0.129-0.212 0.129-0.336v-3.543c0-0.921 0.577-1.671 1.286-1.671 0.102 0 0.213 0.030 0.385 0.103 0.181 0.077 0.391 0.041 0.535-0.094 0.636-0.59 1.398-0.902 2.205-0.902 1.939 0 3.518 1.778 3.518 3.964v2.142c0 0.124 0.046 0.244 0.13 0.336 0.262 0.289 0.406 0.674 0.406 1.085 0 0.628-0.339 1.181-0.864 1.409-0.183 0.079-0.301 0.265-0.301 0.464 0 1.187-0.372 1.724-0.732 2.244-0.296 0.427-0.603 0.869-0.603 1.552v0.596c0 1.498 0.823 2.83 2.096 3.393l4.719 2.105c0.72 0.321 1.185 1.038 1.185 1.826v0.884z"></path>
</svg>
