<svg version="1.1" xmlns="http://www.w3.org/2000/svg" width="32" height="32" viewBox="0 0 32 32">
<title>user-woman</title>
<path d="M24.174 23.557l-4.564-1.942c-0.37-0.157-0.608-0.519-0.608-0.92v-0.899c2.202-0.307 4.178-0.954 5.602-1.84 0.221-0.137 0.299-0.421 0.181-0.652-1.15-2.241-1.75-4.948-1.782-8.045-0.031-3.127-2.274-5.792-5.218-6.199-1.964-0.271-3.848 0.393-5.217 1.82-2.019 0.107-3.568 1.659-3.568 3.62 0 3.57-0.623 6.887-1.665 8.872-0.123 0.235-0.042 0.525 0.186 0.661 1.408 0.845 3.34 1.464 5.479 1.762v0.899c0 0.402-0.239 0.763-0.609 0.921l-4.565 1.942c-1.109 0.471-1.826 1.555-1.826 2.76v2.183c0 0.133 0.053 0.26 0.147 0.354s0.221 0.146 0.353 0.146c0 0 0.001 0 0.001 0 5.061-0.012 18.24-0.034 18.938-0.004 0.287 0.036 0.561-0.199 0.561-0.496v-2.183c0-1.205-0.717-2.289-1.826-2.76zM25 28.015c-0.77-0.027-2.284-0.038-5.336-0.038-2.764 0-6.791 0.008-12.664 0.021v-1.682c0-0.804 0.478-1.526 1.217-1.841l4.565-1.942c0.74-0.313 1.218-1.036 1.218-1.839v-1.339c0-0.254-0.19-0.467-0.442-0.497-1.974-0.23-3.771-0.744-5.123-1.458 0.984-2.146 1.565-5.421 1.565-8.9 0-1.473 1.225-2.626 2.79-2.626 0.142 0 0.277-0.061 0.373-0.167 1.154-1.288 2.784-1.888 4.484-1.658 2.456 0.339 4.328 2.583 4.354 5.219 0.032 3.062 0.598 5.773 1.683 8.066-1.366 0.75-3.205 1.287-5.24 1.525-0.252 0.029-0.442 0.243-0.442 0.497v1.339c0 0.803 0.478 1.526 1.217 1.84l4.565 1.942c0.738 0.315 1.216 1.037 1.216 1.84v1.698z"></path>
</svg>
