<svg version="1.1" xmlns="http://www.w3.org/2000/svg" width="32" height="32" viewBox="0 0 32 32">
<title>user-heart</title>
<path d="M18 8.916c0-3.813-2.691-6.916-6-6.916s-6 3.103-6 6.917c0 2.539 1.196 4.756 2.97 5.959-0.076 0.901-0.576 1.707-1.322 2.041l-3.703 1.657c-1.182 0.53-1.945 1.777-1.945 3.178v1.748c0 0.276 0.224 0.5 0.5 0.5s0.5-0.224 0.5-0.5v-1.748c0-0.992 0.543-1.902 1.353-2.264l3.703-1.657c0.967-0.433 1.645-1.35 1.863-2.435 0.65 0.278 1.349 0.438 2.082 0.438s1.432-0.16 2.082-0.438c0.217 1.086 0.896 2.003 1.862 2.435l0.352 0.158c0.066 0.030 0.136 0.044 0.204 0.044 0.191 0 0.374-0.11 0.457-0.295 0.113-0.252 0-0.548-0.251-0.661l-0.352-0.158c-0.747-0.334-1.247-1.14-1.322-2.041 1.771-1.205 2.967-3.423 2.967-5.962zM12 14.833c-2.757 0-5-2.655-5-5.917s2.243-5.916 5-5.916 5 2.654 5 5.916v0.001c0 3.263-2.243 5.916-5 5.916z"></path>
<path d="M28.126 19.879c-1.167-1.169-3.068-1.171-4.238 0l-0.378 0.378-0.377-0.378c-1.167-1.169-3.068-1.171-4.238 0-0.566 0.566-0.878 1.32-0.878 2.121s0.312 1.555 0.878 2.121l4.262 4.268c0.094 0.094 0.22 0.146 0.353 0.146s0.259-0.053 0.353-0.146l4.263-4.268c1.168-1.169 1.168-3.073 0-4.242zM27.42 23.414l-3.91 3.915-3.909-3.915c-0.377-0.378-0.585-0.88-0.585-1.414s0.208-1.036 0.585-1.414c0.389-0.39 0.901-0.585 1.413-0.585 0.511 0 1.023 0.195 1.412 0.585l0.731 0.732c0.094 0.094 0.22 0.146 0.353 0.146s0.259-0.053 0.353-0.146l0.731-0.732c0.778-0.779 2.046-0.781 2.825 0s0.779 2.048 0.001 2.828z"></path>
</svg>
