<svg version="1.1" xmlns="http://www.w3.org/2000/svg" width="32" height="32" viewBox="0 0 32 32">
<title>user-chart</title>
<path d="M27.5 22h-2.5v-2.5c0-0.276-0.224-0.5-0.5-0.5h-3c-0.276 0-0.5 0.224-0.5 0.5v4.5h-2.5c-0.276 0-0.5 0.224-0.5 0.5v5c0 0.276 0.224 0.5 0.5 0.5h9c0.276 0 0.5-0.224 0.5-0.5v-7c0-0.276-0.224-0.5-0.5-0.5zM21 29h-2v-4h2v4zM24 29h-2v-9h2v9zM27 29h-2v-6h2v6z"></path>
<path d="M16.705 17.076l-0.352-0.158c-0.747-0.334-1.247-1.14-1.322-2.041 1.774-1.203 2.97-3.421 2.97-5.96-0.001-3.814-2.692-6.917-6.001-6.917s-6 3.103-6 6.917c0 2.539 1.196 4.756 2.97 5.959-0.076 0.901-0.576 1.707-1.322 2.041l-3.703 1.657c-1.182 0.53-1.945 1.777-1.945 3.178v1.748c0 0.276 0.224 0.5 0.5 0.5s0.5-0.224 0.5-0.5v-1.748c0-0.992 0.543-1.902 1.353-2.264l3.703-1.657c0.967-0.433 1.645-1.35 1.863-2.435 0.65 0.278 1.349 0.438 2.082 0.438s1.432-0.16 2.082-0.438c0.217 1.086 0.896 2.003 1.862 2.435l0.352 0.158c0.066 0.030 0.136 0.044 0.204 0.044 0.191 0 0.374-0.11 0.457-0.295 0.111-0.254-0.001-0.55-0.253-0.662zM7 8.916c0-3.262 2.243-5.916 5-5.916s5 2.654 5 5.916v0.001c0 3.262-2.243 5.916-5 5.916s-5-2.654-5-5.917z"></path>
</svg>
