<svg id="Layer_1" data-name="Layer 1" xmlns="http://www.w3.org/2000/svg" width="32" height="32" viewBox="0 0 32 32"><path d="M23.283,26.4l-3.174-1.351A1.883,1.883,0,0,1,19,23.288V23.03a5.853,5.853,0,0,0,1.955-4.44C20.955,15.508,18.732,13,16,13s-4.955,2.508-4.955,5.591A5.849,5.849,0,0,0,13,23.03v.258a1.883,1.883,0,0,1-1.109,1.758L8.717,26.4A2.881,2.881,0,0,0,7,29.075V29.5a.5.5,0,0,0,1,0v-.425a1.882,1.882,0,0,1,1.109-1.758l3.174-1.351a2.855,2.855,0,0,0,1.689-2.28,4.394,4.394,0,0,0,4.056,0,2.855,2.855,0,0,0,1.689,2.28l3.174,1.351A1.882,1.882,0,0,1,24,29.075V29.5a.5.5,0,0,0,1,0v-.425A2.881,2.881,0,0,0,23.283,26.4ZM12.045,18.59C12.045,16.059,13.819,14,16,14s3.955,2.059,3.955,4.59h0c0,2.532-1.774,4.591-3.955,4.591S12.045,21.122,12.045,18.59ZM7.953,11.677a3.852,3.852,0,0,0,3.072.007,2.511,2.511,0,0,0,.43,1.1.5.5,0,0,0,.41.214.493.493,0,0,0,.285-.09.5.5,0,0,0,.125-.7,1.5,1.5,0,0,1-.275-.86v-.2A5.162,5.162,0,0,0,14,7,4.775,4.775,0,0,0,9.5,2,4.775,4.775,0,0,0,5,7a5.163,5.163,0,0,0,2,4.154v.2a1.451,1.451,0,0,1-.87,1.356L3.484,13.817A2.451,2.451,0,0,0,2,16.1v.4a.5.5,0,0,0,1,0v-.4a1.452,1.452,0,0,1,.87-1.356l2.646-1.107A2.416,2.416,0,0,0,7.953,11.677ZM6,7A3.779,3.779,0,0,1,9.5,3,3.779,3.779,0,0,1,13,7h0a3.779,3.779,0,0,1-3.5,4A3.779,3.779,0,0,1,6,7Zm22.516,6.817-2.645-1.106A1.453,1.453,0,0,1,25,11.354v-.2A5.162,5.162,0,0,0,27,7a4.775,4.775,0,0,0-4.5-5A4.775,4.775,0,0,0,18,7h0a5.163,5.163,0,0,0,2,4.154v.2a1.5,1.5,0,0,1-.275.86.5.5,0,0,0,.125.7.493.493,0,0,0,.285.09.5.5,0,0,0,.41-.214,2.511,2.511,0,0,0,.43-1.1,3.852,3.852,0,0,0,3.072-.007,2.416,2.416,0,0,0,1.437,1.956L28.13,14.74A1.452,1.452,0,0,1,29,16.1v.4a.5.5,0,0,0,1,0v-.4A2.451,2.451,0,0,0,28.516,13.817ZM19,7a3.779,3.779,0,0,1,3.5-4A3.779,3.779,0,0,1,26,7a3.779,3.779,0,0,1-3.5,4A3.779,3.779,0,0,1,19,7Z"/></svg>