<svg version="1.1" xmlns="http://www.w3.org/2000/svg" width="32" height="32" viewBox="0 0 32 32">
<title>user-circle</title>
<path d="M16 2c-7.732 0-14 6.268-14 14s6.268 14 14 14 14-6.268 14-14-6.268-14-14-14zM16 7c3.309 0 6 3.141 6 7.001 0 3.859-2.691 6.999-6 6.999s-6-3.141-6-7.001c0-3.859 2.691-6.999 6-6.999zM16 29c-3.298 0-6.303-1.244-8.597-3.275l3.831-1.688c1.053-0.464 1.745-1.578 1.763-2.822 0.911 0.498 1.927 0.785 3.003 0.785s2.092-0.287 3.003-0.785c0.018 1.244 0.71 2.358 1.763 2.822l3.831 1.688c-2.294 2.031-5.3 3.275-8.597 3.275z"></path>
</svg>
