<svg version="1.1" xmlns="http://www.w3.org/2000/svg" width="32" height="32" viewBox="0 0 32 32">
<title>user-edit</title>
<path d="M27.084 18c-0.51 0-0.99 0.199-1.351 0.56l-6.504 6.503c-0.108 0.108-0.192 0.244-0.241 0.391l-0.963 2.888c-0.060 0.18-0.013 0.378 0.121 0.512 0.096 0.095 0.223 0.146 0.354 0.146 0.053 0 0.106-0.008 0.158-0.026l2.886-0.962c0.146-0.048 0.282-0.132 0.393-0.242l6.504-6.503c0.361-0.361 0.56-0.84 0.56-1.351v-0.006c-0.001-1.053-0.857-1.91-1.917-1.91zM28 19.916c0 0.243-0.095 0.472-0.267 0.644l-6.504 6.503-1.939 0.646 0.646-1.939 6.504-6.503c0.172-0.172 0.401-0.267 0.65-0.267 0.502 0 0.91 0.408 0.91 0.91v0.006z"></path>
<path d="M18.5 18.927c0.19 0 0.373-0.11 0.456-0.296 0.113-0.252 0-0.548-0.252-0.661l-2.352-1.053c-0.747-0.334-1.247-1.14-1.322-2.041 1.774-1.203 2.97-3.421 2.97-5.96 0-3.813-2.691-6.916-6-6.916s-6 3.103-6 6.917c0 2.539 1.196 4.756 2.97 5.959-0.076 0.901-0.576 1.707-1.322 2.041l-3.703 1.657c-1.182 0.53-1.945 1.777-1.945 3.178v1.748c0 0.276 0.224 0.5 0.5 0.5s0.5-0.224 0.5-0.5v-1.748c0-0.992 0.543-1.902 1.353-2.264l3.703-1.657c0.967-0.433 1.645-1.35 1.863-2.435 0.65 0.278 1.349 0.438 2.082 0.438s1.432-0.16 2.082-0.438c0.217 1.086 0.896 2.003 1.863 2.435l2.352 1.053c0.064 0.029 0.134 0.043 0.202 0.043zM7 8.916c0-3.262 2.243-5.916 5-5.916s5 2.654 5 5.916v0.001c0 3.262-2.243 5.916-5 5.916s-5-2.654-5-5.917z"></path>
</svg>
