<svg version="1.1" xmlns="http://www.w3.org/2000/svg" width="32" height="32" viewBox="0 0 32 32">
<title>user</title>
<path d="M24.943 22.423l-3.967-1.832c-0.884-0.407-1.477-1.433-1.477-2.553 0-0.038-0.013-0.071-0.021-0.106 2.101-1.382 3.522-3.969 3.522-6.933 0-4.411-3.141-7.999-7-7.999s-7 3.589-7 8.001c0 2.963 1.421 5.549 3.521 6.932-0.008 0.035-0.021 0.068-0.021 0.106 0 1.119-0.593 2.146-1.476 2.553l-3.968 1.832c-1.249 0.576-2.056 1.934-2.056 3.46v1.616c0 0.276 0.224 0.5 0.5 0.5s0.5-0.224 0.5-0.5v-1.616c0-1.12 0.593-2.146 1.476-2.553l3.968-1.832c1.135-0.524 1.898-1.695 2.029-3.047 0.785 0.349 1.635 0.548 2.527 0.548s1.742-0.199 2.527-0.548c0.132 1.353 0.895 2.523 2.029 3.048l3.968 1.832c0.883 0.406 1.476 1.432 1.476 2.552v1.616c0 0.276 0.224 0.5 0.5 0.5s0.5-0.224 0.5-0.5v-1.616c0-1.527-0.808-2.885-2.057-3.461zM10 10.999c0-3.859 2.691-6.999 6-6.999s6 3.14 6 6.999v0.002c0 3.859-2.691 6.999-6 6.999s-6-3.141-6-7.001z"></path>
</svg>
