<svg version="1.1" xmlns="http://www.w3.org/2000/svg" width="32" height="32" viewBox="0 0 32 32">
<title>users-chat</title>
<path d="M14.117 23.639l-2.075-1.396c0.591-0.762 0.958-1.706 0.958-2.743 0-2.481-2.019-4.5-4.5-4.5s-4.5 2.019-4.5 4.5c0 1.037 0.367 1.981 0.958 2.742l-2.075 1.398c-0.553 0.372-0.883 0.992-0.883 1.659v2.201c0 0.276 0.224 0.5 0.5 0.5s0.5-0.224 0.5-0.5v-2.201c0-0.333 0.165-0.644 0.442-0.83l2.228-1.499c0.776 0.634 1.752 1.030 2.83 1.030 1.077 0 2.054-0.396 2.83-1.030l2.228 1.499c0.277 0.186 0.442 0.496 0.442 0.83v2.201c0 0.276 0.224 0.5 0.5 0.5s0.5-0.224 0.5-0.5v-2.201c0-0.667-0.33-1.287-0.883-1.66zM5 19.5c0-1.93 1.57-3.5 3.5-3.5s3.5 1.57 3.5 3.5v0c0 1.93-1.57 3.5-3.5 3.5s-3.5-1.57-3.5-3.5z"></path>
<path d="M29.117 23.639l-2.075-1.397c0.591-0.761 0.958-1.706 0.958-2.742 0-2.481-2.019-4.5-4.5-4.5s-4.5 2.019-4.5 4.5c0 1.037 0.367 1.981 0.958 2.742l-2.075 1.397c-0.553 0.373-0.883 0.993-0.883 1.66v2.201c0 0.276 0.224 0.5 0.5 0.5s0.5-0.224 0.5-0.5v-2.201c0-0.333 0.165-0.644 0.441-0.83l2.228-1.5c0.776 0.635 1.753 1.031 2.831 1.031s2.055-0.396 2.83-1.030l2.229 1.499c0.276 0.186 0.441 0.496 0.441 0.83v2.201c0 0.276 0.224 0.5 0.5 0.5s0.5-0.224 0.5-0.5v-2.201c0-0.667-0.33-1.287-0.883-1.66zM20 19.5c0-1.93 1.57-3.5 3.5-3.5s3.5 1.57 3.5 3.5v0c0 1.93-1.57 3.5-3.5 3.5s-3.5-1.57-3.5-3.5z"></path>
<path d="M17 12h8c1.654 0 3-1.346 3-3v-4c0-1.654-1.346-3-3-3h-18c-1.654 0-3 1.346-3 3v4c0 1.654 1.346 3 3 3h4.293l4.854 4.854c0.095 0.095 0.223 0.146 0.353 0.146 0.064 0 0.129-0.012 0.191-0.038 0.187-0.077 0.309-0.26 0.309-0.462v-4.5zM16.5 11c-0.276 0-0.5 0.224-0.5 0.5v3.793l-4.146-4.146c-0.094-0.094-0.221-0.147-0.354-0.147h-4.5c-1.103 0-2-0.897-2-2v-4c0-1.103 0.897-2 2-2h18c1.103 0 2 0.897 2 2v4c0 1.103-0.897 2-2 2h-8.5z"></path>
</svg>
