<svg version="1.1" xmlns="http://www.w3.org/2000/svg" width="32" height="32" viewBox="0 0 32 32">
<title>user-secret</title>
<path d="M23.677 22.031c-0.013-0.004-0.024-0.009-0.036-0.014 0.908-0.753 2.020-1.4 3.256-1.891 0.162-0.064 0.279-0.209 0.309-0.382 0.029-0.172-0.034-0.347-0.166-0.461-1.332-1.153-3.243-2.053-5.536-2.625 0.317-0.886 0.496-1.862 0.496-2.888v-0.296c2.894-0.559 5-1.557 5-2.974 0-1.913-3.775-2.779-5.734-3.1l-1.211-5.017c-0.039-0.161-0.155-0.292-0.31-0.351-0.156-0.058-0.327-0.037-0.464 0.059l-3.281 2.299-3.281-2.299c-0.135-0.096-0.31-0.116-0.464-0.059-0.155 0.059-0.271 0.189-0.309 0.351l-1.212 5.017c-1.959 0.321-5.734 1.188-5.734 3.1 0 1.417 2.106 2.415 5 2.974v0.296c0 1.027 0.179 2.003 0.497 2.889-2.294 0.572-4.204 1.472-5.536 2.625-0.132 0.114-0.195 0.289-0.166 0.461 0.029 0.173 0.146 0.317 0.309 0.382 1.238 0.492 2.349 1.139 3.255 1.891-0.011 0.005-0.022 0.009-0.034 0.013-2.126 0.797-4.325 1.622-4.325 3.469v2c0 0.276 0.224 0.5 0.5 0.5s0.5-0.224 0.5-0.5v-2c0-1.153 1.869-1.854 3.677-2.533 0.27-0.101 0.54-0.202 0.805-0.306 0.158-0.062 0.274-0.198 0.309-0.364s-0.018-0.339-0.139-0.458c-0.911-0.898-2.071-1.685-3.389-2.3 1.195-0.834 2.81-1.508 4.642-1.949 1.059 2.065 2.944 3.448 5.094 3.448s4.035-1.383 5.095-3.448c1.831 0.441 3.447 1.115 4.643 1.948-1.316 0.615-2.477 1.401-3.389 2.301-0.121 0.119-0.174 0.292-0.139 0.458 0.034 0.166 0.15 0.303 0.308 0.364 0.267 0.104 0.537 0.205 0.808 0.307 1.807 0.678 3.675 1.378 3.675 2.532v2c0 0.276 0.224 0.5 0.5 0.5s0.5-0.224 0.5-0.5v-2c0-1.847-2.198-2.671-4.323-3.469zM21 13.77c0 3.456-2.243 6.269-5 6.269s-5-2.812-5-6.269v-0.123c1.558 0.234 3.282 0.353 5 0.353s3.442-0.119 5-0.354v0.124zM16 13c-6.104 0-10-1.48-10-2.5 0-0.519 1.211-1.455 4.479-2.042l-0.465 1.925c-0.065 0.269 0.1 0.538 0.369 0.604 0.267 0.062 0.538-0.1 0.603-0.369l0.64-2.649c0-0.002 0.001-0.003 0.001-0.005l1.119-4.634 2.967 2.079c0.173 0.121 0.401 0.121 0.574 0l2.968-2.079 1.759 7.287c0.055 0.23 0.26 0.383 0.486 0.383 0.038 0 0.078-0.005 0.117-0.014 0.269-0.065 0.434-0.335 0.369-0.604l-0.465-1.925c3.269 0.589 4.479 1.524 4.479 2.043 0 1.020-3.896 2.5-10 2.5z"></path>
</svg>
