<svg id="Layer_1" data-name="Layer 1" xmlns="http://www.w3.org/2000/svg" width="32" height="32" viewBox="0 0 32 32"><path d="M27,25.81885V28.5a.5.5,0,0,1-1,0V25.81885a1.49908,1.49908,0,0,0-.90918-1.37891l-4.76758-2.04346A2.4845,2.4845,0,0,1,18.83691,20.479l-.31237-2.0318a6.17128,6.17128,0,0,1-1.9552.52009c-.01563.00146-.03125.002-.04639.002a.50008.50008,0,0,1-.04541-.998c2.94824-.27148,5.31348-3.07471,5.50244-6.52051a.49158.49158,0,0,1,.52637-.47168.49913.49913,0,0,1,.47168.52637,8.207,8.207,0,0,1-3.52027,6.43134l.36744,2.38995a1.49138,1.49138,0,0,0,.89209,1.15088L25.48486,23.521A2.49769,2.49769,0,0,1,27,25.81885Zm.88086-22.99463-23,27a.50017.50017,0,0,1-.76172-.64844L8.869,23.59991l-1.96027.84a1.48531,1.48531,0,0,0-.86816,1.14111A.49954.49954,0,0,1,5.54785,26a.46277.46277,0,0,1-.08154-.00684A.49936.49936,0,0,1,5.0542,25.419,2.47936,2.47936,0,0,1,6.51465,23.521l3.81347-1.634,1.96064-2.30163.25372-1.64935A8.244,8.244,0,0,1,9,11.001C9,6.58936,12.14014,3,16,3a6.98369,6.98369,0,0,1,6.37549,4.74445l4.74365-5.56867a.50017.50017,0,0,1,.76172.64844ZM21.62848,8.62134A6.1024,6.1024,0,0,0,16,4c-3.30859,0-6,3.13965-6,6.999a7.265,7.265,0,0,0,3.0835,6.105,1.00019,1.00019,0,0,1,.44726.98389l-.00738.04816Z"/></svg>