<svg version="1.1" xmlns="http://www.w3.org/2000/svg" width="32" height="32" viewBox="0 0 32 32">
<title>user-circle-o</title>
<path d="M16 2c-7.72 0-14 6.28-14 14s6.28 14 14 14 14-6.28 14-14-6.28-14-14-14zM7.817 26.089l3.619-1.594c1.17-0.516 1.945-1.691 2.045-3.039 0.782 0.346 1.63 0.544 2.519 0.544s1.737-0.198 2.52-0.545c0.099 1.349 0.874 2.524 2.046 3.040l3.617 1.594c-2.237 1.817-5.083 2.911-8.183 2.911s-5.947-1.094-8.183-2.911zM16 21c-3.309 0-6-3.141-6-7.001 0-3.859 2.691-6.999 6-6.999s6 3.141 6 7.001c0 3.859-2.691 6.999-6 6.999zM24.997 25.361c-0.022-0.010-0.041-0.024-0.063-0.034l-3.967-1.748c-0.892-0.393-1.468-1.34-1.468-2.413v-0.249c2.089-1.386 3.5-3.965 3.5-6.918 0.001-4.411-3.14-7.999-6.999-7.999-3.86 0-7 3.588-7 7.999v0.002c0 2.953 1.411 5.531 3.5 6.917v0.249c0 1.073-0.576 2.020-1.468 2.413l-3.969 1.749c-0.021 0.009-0.040 0.023-0.061 0.033-2.461-2.368-4.002-5.685-4.002-9.362 0-7.168 5.832-13 13-13s13 5.832 13 13c0 3.677-1.541 6.995-4.003 9.361z"></path>
</svg>
