<svg version="1.1" xmlns="http://www.w3.org/2000/svg" width="32" height="32" viewBox="0 0 32 32">
<title>variable</title>
<path d="M20.784 9.089c-0.225-0.159-0.539-0.102-0.695 0.127l-4.089 5.906-4.089-5.906c-0.157-0.229-0.472-0.285-0.695-0.127-0.228 0.157-0.284 0.469-0.127 0.695l4.303 6.216-4.303 6.216c-0.157 0.227-0.101 0.538 0.127 0.695 0.223 0.157 0.538 0.102 0.695-0.127l4.089-5.906 4.089 5.906c0.097 0.141 0.253 0.216 0.411 0.216 0.099 0 0.198-0.028 0.284-0.089 0.228-0.157 0.284-0.469 0.127-0.695l-4.303-6.216 4.303-6.216c0.157-0.226 0.101-0.538-0.127-0.695z"></path>
<path d="M5.804 6.104c-0.218-0.169-0.533-0.128-0.7 0.093-2.002 2.611-3.104 6.092-3.104 9.803s1.102 7.192 3.104 9.804c0.097 0.129 0.247 0.196 0.396 0.196 0.106 0 0.214-0.033 0.304-0.104 0.22-0.168 0.261-0.481 0.093-0.7-1.869-2.438-2.897-5.704-2.897-9.196s1.028-6.758 2.896-9.196c0.168-0.219 0.127-0.533-0.092-0.7z"></path>
<path d="M26.896 6.196c-0.168-0.221-0.484-0.263-0.7-0.093-0.22 0.168-0.261 0.481-0.093 0.7 1.869 2.439 2.897 5.705 2.897 9.197s-1.028 6.758-2.896 9.196c-0.168 0.219-0.127 0.532 0.093 0.7 0.090 0.071 0.197 0.104 0.303 0.104 0.149 0 0.299-0.067 0.396-0.196 2.002-2.612 3.104-6.093 3.104-9.804s-1.102-7.192-3.104-9.804z"></path>
</svg>
