<svg version="1.1" xmlns="http://www.w3.org/2000/svg" width="32" height="32" viewBox="0 0 32 32">
<title>venus-double</title>
<path d="M14.5 21h-3.5v-4.029c0.826-0.064 1.626-0.276 2.383-0.652 0.248-0.123 0.349-0.423 0.226-0.67s-0.423-0.348-0.67-0.225c-0.771 0.382-1.591 0.576-2.439 0.576-3.033 0-5.5-2.467-5.5-5.5s2.467-5.5 5.5-5.5c1.538 0 2.966 0.624 4.021 1.757 0.188 0.202 0.505 0.213 0.707 0.025s0.213-0.505 0.025-0.707c-1.228-1.319-2.961-2.075-4.753-2.075-3.584 0-6.5 2.916-6.5 6.5 0 3.415 2.649 6.218 6 6.475v4.025h-3.5c-0.276 0-0.5 0.224-0.5 0.5s0.224 0.5 0.5 0.5h3.5v3.5c0 0.276 0.224 0.5 0.5 0.5s0.5-0.224 0.5-0.5v-3.5h3.5c0.276 0 0.5-0.224 0.5-0.5s-0.224-0.5-0.5-0.5z"></path>
<path d="M28 12.5c0-3.584-2.916-6.5-6.5-6.5s-6.5 2.916-6.5 6.5c0 3.415 2.649 6.218 6 6.475v4.025h-3.5c-0.276 0-0.5 0.224-0.5 0.5s0.224 0.5 0.5 0.5h3.5v3.5c0 0.276 0.224 0.5 0.5 0.5s0.5-0.224 0.5-0.5v-3.5h3.5c0.276 0 0.5-0.224 0.5-0.5s-0.224-0.5-0.5-0.5h-3.5v-4.025c3.351-0.257 6-3.060 6-6.475zM16 12.5c0-3.033 2.467-5.5 5.5-5.5s5.5 2.467 5.5 5.5-2.467 5.5-5.5 5.5-5.5-2.467-5.5-5.5z"></path>
</svg>
