<svg version="1.1" xmlns="http://www.w3.org/2000/svg" width="32" height="32" viewBox="0 0 32 32">
<title>venus</title>
<path d="M23 12.5c0-3.584-2.916-6.5-6.5-6.5s-6.5 2.916-6.5 6.5c0 3.415 2.649 6.218 6 6.475v4.025h-3.5c-0.276 0-0.5 0.224-0.5 0.5s0.224 0.5 0.5 0.5h3.5v3.5c0 0.276 0.224 0.5 0.5 0.5s0.5-0.224 0.5-0.5v-3.5h3.5c0.276 0 0.5-0.224 0.5-0.5s-0.224-0.5-0.5-0.5h-3.5v-4.025c3.351-0.257 6-3.060 6-6.475zM11 12.5c0-3.033 2.467-5.5 5.5-5.5s5.5 2.467 5.5 5.5-2.467 5.5-5.5 5.5-5.5-2.467-5.5-5.5z"></path>
</svg>
