<svg version="1.1" xmlns="http://www.w3.org/2000/svg" width="32" height="32" viewBox="0 0 32 32">
<title>venus-mars</title>
<path d="M29.5 6h-5c-0.276 0-0.5 0.224-0.5 0.5s0.224 0.5 0.5 0.5h3.793l-4.569 4.569c-1.138-0.975-2.612-1.569-4.224-1.569-0.276 0-0.5 0.224-0.5 0.5s0.224 0.5 0.5 0.5c3.033 0 5.5 2.467 5.5 5.5s-2.467 5.5-5.5 5.5c-1.342 0-2.639-0.499-3.652-1.404-0.206-0.184-0.521-0.166-0.706 0.040s-0.166 0.522 0.040 0.706c1.196 1.069 2.73 1.658 4.318 1.658 3.584 0 6.5-2.916 6.5-6.5 0-1.612-0.594-3.086-1.569-4.224l4.569-4.569v3.793c0 0.276 0.224 0.5 0.5 0.5s0.5-0.224 0.5-0.5v-5c0-0.276-0.224-0.5-0.5-0.5z"></path>
<path d="M13.5 23h-2.5v-3.025c3.351-0.257 6-3.059 6-6.475 0-3.584-2.916-6.5-6.5-6.5s-6.5 2.916-6.5 6.5c0 3.415 2.649 6.218 6 6.475v3.025h-2.5c-0.276 0-0.5 0.224-0.5 0.5s0.224 0.5 0.5 0.5h2.5v3.5c0 0.276 0.224 0.5 0.5 0.5s0.5-0.224 0.5-0.5v-3.5h2.5c0.276 0 0.5-0.224 0.5-0.5s-0.224-0.5-0.5-0.5zM10.5 19c-3.033 0-5.5-2.467-5.5-5.5s2.467-5.5 5.5-5.5 5.5 2.467 5.5 5.5-2.467 5.5-5.5 5.5z"></path>
</svg>
