<svg id="Layer_1" data-name="Layer 1" xmlns="http://www.w3.org/2000/svg" width="32" height="32" viewBox="0 0 32 32"><path d="M29.5,3h-10a.5.5,0,0,0,0,1H20V24.5a4.5,4.5,0,0,0,9,0V4h.5a.5.5,0,0,0,0-1ZM28,24.5a3.5,3.5,0,0,1-7,0V17h7ZM28,16H21V4h7ZM12.5,3H2.5a.5.5,0,0,0,0,1H3V24.5a4.5,4.5,0,0,0,9,0V4h.5a.5.5,0,0,0,0-1ZM11,24.5a3.5,3.5,0,0,1-7,0V13h7ZM11,12H4V4h7ZM6,15.5a.5.5,0,1,1,.5.5A.5.5,0,0,1,6,15.5Zm2,4a.5.5,0,1,1,.5.5A.5.5,0,0,1,8,19.5Zm-2,4a.5.5,0,1,1,.5.5A.5.5,0,0,1,6,23.5Zm19-4a.5.5,0,1,1,.5.5A.5.5,0,0,1,25,19.5Zm-2,4a.5.5,0,1,1,.5.5A.5.5,0,0,1,23,23.5Z"/></svg>