<svg version="1.1" xmlns="http://www.w3.org/2000/svg" width="32" height="32" viewBox="0 0 32 32">
<title>video-camera</title>
<path d="M21.5 8h-18c-0.827 0-1.5 0.673-1.5 1.5v15c0 0.827 0.673 1.5 1.5 1.5h18c0.827 0 1.5-0.673 1.5-1.5v-15c0-0.827-0.673-1.5-1.5-1.5zM22 24.5c0 0.275-0.225 0.5-0.5 0.5h-18c-0.275 0-0.5-0.225-0.5-0.5v-15c0-0.275 0.225-0.5 0.5-0.5h18c0.275 0 0.5 0.225 0.5 0.5v15z"></path>
<path d="M20.5 21h-16c-0.276 0-0.5 0.224-0.5 0.5s0.224 0.5 0.5 0.5h16c0.276 0 0.5-0.224 0.5-0.5s-0.224-0.5-0.5-0.5z"></path>
<path d="M8 13c0 0.552-0.448 1-1 1s-1-0.448-1-1c0-0.552 0.448-1 1-1s1 0.448 1 1z"></path>
<path d="M8 17c0 0.552-0.448 1-1 1s-1-0.448-1-1c0-0.552 0.448-1 1-1s1 0.448 1 1z"></path>
<path d="M15.5 7h4c0.276 0 0.5-0.224 0.5-0.5s-0.224-0.5-0.5-0.5h-4c-0.276 0-0.5 0.224-0.5 0.5s0.224 0.5 0.5 0.5z"></path>
<path d="M29.5 12h-2c-0.091 0-0.18 0.024-0.257 0.071l-3 1.8c-0.237 0.142-0.314 0.449-0.172 0.686 0.144 0.238 0.453 0.315 0.686 0.172l2.882-1.729h1.361v8h-1.361l-2.882-1.729c-0.232-0.142-0.542-0.065-0.686 0.172-0.143 0.236-0.065 0.544 0.172 0.686l3 1.8c0.077 0.047 0.166 0.071 0.257 0.071h2c0.276 0 0.5-0.224 0.5-0.5v-9c0-0.276-0.224-0.5-0.5-0.5z"></path>
</svg>
