<svg version="1.1" xmlns="http://www.w3.org/2000/svg" width="32" height="32" viewBox="0 0 32 32">
<title>volume-control-phone</title>
<path d="M23.9 6.1c-0.091-0.094-0.219-0.153-0.36-0.153-0.276 0-0.5 0.224-0.5 0.5 0 0.141 0.058 0.269 0.152 0.359l0 0c2.352 2.352 3.807 5.602 3.807 9.192s-1.455 6.84-3.807 9.192v0c-0.091 0.091-0.147 0.216-0.147 0.354 0 0.276 0.224 0.5 0.5 0.5 0 0 0.001 0 0.001 0h-0c0 0 0.001 0 0.001 0 0.137 0 0.262-0.055 0.352-0.145l-0 0c2.534-2.534 4.101-6.034 4.101-9.9s-1.567-7.366-4.101-9.9v0z"></path>
<path d="M21.071 8.929c-0.091-0.094-0.219-0.153-0.36-0.153-0.276 0-0.5 0.224-0.5 0.5 0 0.141 0.058 0.269 0.152 0.36l0 0c1.626 1.63 2.632 3.879 2.632 6.364s-1.006 4.734-2.632 6.364l0-0c-0.091 0.091-0.147 0.216-0.147 0.354 0 0.276 0.224 0.5 0.5 0.5 0 0 0.001 0 0.001 0h-0c0.138-0 0.263-0.056 0.353-0.147v0c1.807-1.811 2.925-4.31 2.925-7.071s-1.118-5.26-2.925-7.071l0 0z"></path>
<path d="M17.535 11.757c-0.090 0.090-0.146 0.215-0.146 0.354s0.056 0.263 0.146 0.354v0c0.905 0.905 1.465 2.155 1.465 3.536s-0.56 2.631-1.465 3.536v0c-0.087 0.090-0.14 0.212-0.14 0.347 0 0.276 0.224 0.5 0.5 0.5 0.135 0 0.258-0.053 0.348-0.14l-0 0c1.086-1.086 1.758-2.586 1.758-4.243s-0.672-3.157-1.758-4.243v0c-0.090-0.090-0.215-0.146-0.354-0.146s-0.263 0.056-0.354 0.146v0z"></path>
<path d="M12.083 12.021c0.236-0 0.434-0.164 0.486-0.384l0.001-0.003c0.513-2.175 1.324-4.093 2.403-5.828l-0.047 0.082c0.047-0.075 0.074-0.165 0.074-0.262 0-0.173-0.088-0.326-0.222-0.415l-0.002-0.001-4.7-3.126c-0.078-0.052-0.173-0.083-0.276-0.083-0.145 0-0.275 0.062-0.367 0.16l-0 0c-3.366 3.62-5.432 8.489-5.432 13.84s2.066 10.22 5.444 13.853l-0.012-0.013c0.092 0.099 0.222 0.16 0.367 0.16 0.103 0 0.198-0.031 0.278-0.084l-0.002 0.001 4.7-3.126c0.135-0.091 0.223-0.243 0.223-0.417 0-0.097-0.028-0.188-0.076-0.265l0.001 0.002c-1.032-1.653-1.843-3.571-2.33-5.615l-0.026-0.131c-0.053-0.223-0.251-0.387-0.487-0.387h-3.5c-0.369-1.191-0.582-2.56-0.582-3.979s0.213-2.788 0.608-4.077l-0.026 0.098zM7.738 11.366c-0.468 1.384-0.738 2.977-0.738 4.634s0.27 3.25 0.769 4.739l-0.031-0.105c0.067 0.202 0.254 0.345 0.475 0.345h3.477c0.51 1.988 1.242 3.734 2.188 5.338l-0.052-0.095-3.947 2.624c-3.028-3.4-4.879-7.907-4.879-12.846s1.85-9.446 4.896-12.865l-0.017 0.019 3.947 2.624c-0.894 1.509-1.626 3.255-2.105 5.102l-0.031 0.141h-3.477c-0.221 0-0.408 0.143-0.474 0.341l-0.001 0.004z"></path>
</svg>
