<svg version="1.1" xmlns="http://www.w3.org/2000/svg" width="32" height="32" viewBox="0 0 32 32">
<title>volume-off</title>
<path d="M20.712 8.047c-0.176-0.081-0.383-0.057-0.532 0.069l-5.443 4.536c-0.269 0.225-0.61 0.348-0.961 0.348h-2.276c-0.827 0-1.5 0.673-1.5 1.5v3c0 0.827 0.673 1.5 1.5 1.5h2.276c0.351 0 0.691 0.123 0.96 0.348l5.443 4.536c0.092 0.077 0.206 0.116 0.321 0.116 0.072 0 0.145-0.016 0.212-0.047 0.176-0.083 0.288-0.259 0.288-0.453v-15c0-0.194-0.112-0.37-0.288-0.453zM20 22.433l-4.623-3.853c-0.448-0.374-1.017-0.58-1.601-0.58h-2.276c-0.275 0-0.5-0.225-0.5-0.5v-3c0-0.275 0.225-0.5 0.5-0.5h2.276c0.584 0 1.152-0.206 1.601-0.58l4.623-3.853v12.866z"></path>
</svg>
