<svg version="1.1" xmlns="http://www.w3.org/2000/svg" width="32" height="32" viewBox="0 0 32 32">
<title>warning</title>
<path d="M29.626 24.549l-11-19.99c-0.521-0.933-1.502-1.554-2.628-1.554s-2.108 0.621-2.621 1.539l-0.008 0.015-11 19.99c-0.236 0.418-0.374 0.919-0.374 1.451 0 1.657 1.343 3 3 3 0.002 0 0.004 0 0.006 0h22c0 0 0 0 0 0 1.657 0 3-1.343 3-3 0-0.53-0.138-1.029-0.379-1.461l0.008 0.015zM16 25c-0.552 0-1-0.448-1-1s0.448-1 1-1c0.552 0 1 0.448 1 1v0c0 0.552-0.448 1-1 1v0zM17 20c0 0.552-0.448 1-1 1s-1-0.448-1-1v0-6c0-0.552 0.448-1 1-1s1 0.448 1 1v0z"></path>
</svg>
