<svg version="1.1" xmlns="http://www.w3.org/2000/svg" width="32" height="32" viewBox="0 0 32 32">
<title>wheelchair-alt</title>
<path d="M21 9c1.657 0 3-1.343 3-3s-1.343-3-3-3c-1.657 0-3 1.343-3 3v0c0 1.657 1.343 3 3 3v0zM21 4c1.105 0 2 0.895 2 2s-0.895 2-2 2c-1.105 0-2-0.895-2-2v0c0-1.105 0.895-2 2-2v0z"></path>
<path d="M11.5 20c-0.828 0-1.5 0.672-1.5 1.5s0.672 1.5 1.5 1.5c0.828 0 1.5-0.672 1.5-1.5v0c0-0.828-0.672-1.5-1.5-1.5v0zM11.5 22c-0.276 0-0.5-0.224-0.5-0.5s0.224-0.5 0.5-0.5c0.276 0 0.5 0.224 0.5 0.5v0c0 0.276-0.224 0.5-0.5 0.5v0z"></path>
<path d="M27.634 22.846l-4.085-5.787c-0.458-0.644-1.202-1.059-2.043-1.059-0 0-0 0-0 0h-4.924c-0.22-0.204-0.457-0.399-0.705-0.579l-0.022-0.015 2.769-2.485c0.496-0.458 0.805-1.112 0.805-1.838 0-0.695-0.284-1.324-0.741-1.777l-0-0-3-2.98c-0.814-0.807-1.935-1.306-3.173-1.306-1.242 0-2.367 0.502-3.182 1.315l0-0-2.67 2.674c-0.394 0.378-0.639 0.908-0.639 1.496 0 0.488 0.169 0.937 0.452 1.291l-0.003-0.004c0.378 0.42 0.923 0.683 1.53 0.683 0.547 0 1.044-0.213 1.412-0.562l-0.001 0.001 2.759-2.758c0.090-0.090 0.215-0.146 0.353-0.146 0.135 0 0.257 0.053 0.347 0.14l-0-0 1.15 1.118-3.858 3.858c-3.537 0.649-6.182 3.707-6.182 7.383 0 4.142 3.358 7.5 7.5 7.5 3.012 0 5.609-1.776 6.802-4.337l0.019-0.046 4.012 3.374h4.183c0.276 0 0.5-0.224 0.5-0.5s-0.224-0.5-0.5-0.5v0h-3.817l-4-3.358c0.201-0.644 0.317-1.384 0.317-2.15 0-0.528-0.055-1.043-0.159-1.54l0.009 0.049h1.88l3.637 5.153c0.367 0.515 0.962 0.847 1.634 0.847 1.105 0 2-0.895 2-2 0-0.432-0.137-0.833-0.37-1.16l0.004 0.006zM15.085 9.9l-1.513-1.467c-0.271-0.261-0.639-0.421-1.045-0.421-0.414 0-0.788 0.167-1.061 0.437l0-0-2.759 2.759c-0.184 0.173-0.432 0.28-0.705 0.28-0.304 0-0.577-0.132-0.766-0.342l-0.001-0.001c-0.13-0.176-0.208-0.398-0.208-0.638 0-0.312 0.132-0.592 0.343-0.79l0.001-0.001 2.674-2.674c0.634-0.632 1.509-1.022 2.475-1.022 0.963 0 1.835 0.388 2.468 1.016l-0-0 3 2.981c0.275 0.272 0.446 0.65 0.446 1.067 0 0.433-0.183 0.823-0.477 1.097l-0.001 0.001-2.985 2.676c-0.948-0.507-2.070-0.816-3.26-0.847l-0.010-0 3.393-3.394c0.092-0.091 0.149-0.217 0.149-0.356s-0.057-0.265-0.149-0.356l-0-0zM11.5 28c-3.59 0-6.5-2.91-6.5-6.5s2.91-6.5 6.5-6.5c3.59 0 6.5 2.91 6.5 6.5v0c-0.005 3.588-2.912 6.495-6.5 6.5h-0zM26.577 24.817c-0.16 0.108-0.358 0.173-0.571 0.173-0.336 0-0.634-0.161-0.821-0.41l-0.002-0.003-3.783-5.365c-0.092-0.129-0.241-0.212-0.409-0.212-0.001 0-0.002 0-0.003 0h-2.426c-0.275-0.764-0.639-1.426-1.089-2.018l0.013 0.018h4.020c0.504 0 0.95 0.249 1.222 0.63l0.003 0.005 4.086 5.788c0.115 0.161 0.183 0.361 0.183 0.577 0 0.336-0.166 0.634-0.42 0.815l-0.003 0.002z"></path>
</svg>
