<svg version="1.1" xmlns="http://www.w3.org/2000/svg" width="32" height="32" viewBox="0 0 32 32">
<title>wheelchair</title>
<path d="M14 8c1.657 0 3-1.343 3-3s-1.343-3-3-3c-1.657 0-3 1.343-3 3v0c0 1.657 1.343 3 3 3v0zM14 3c1.105 0 2 0.895 2 2s-0.895 2-2 2c-1.105 0-2-0.895-2-2v0c0-1.105 0.895-2 2-2v0z"></path>
<path d="M12.5 21c-0.828 0-1.5 0.672-1.5 1.5s0.672 1.5 1.5 1.5c0.828 0 1.5-0.672 1.5-1.5v0c0-0.828-0.672-1.5-1.5-1.5v0zM12.5 23c-0.276 0-0.5-0.224-0.5-0.5s0.224-0.5 0.5-0.5c0.276 0 0.5 0.224 0.5 0.5v0c0 0.276-0.224 0.5-0.5 0.5v0z"></path>
<path d="M27.5 28h-3.271c-0.369-0-0.706-0.133-0.967-0.354l0.002 0.002-3.58-3.006c0.201-0.643 0.316-1.382 0.316-2.148 0-0.529-0.055-1.045-0.16-1.542l0.009 0.049h0.88l3.637 5.153c0.367 0.515 0.962 0.847 1.634 0.847 1.105 0 2-0.895 2-2 0-0.432-0.137-0.833-0.37-1.16l0.004 0.006-4.085-5.787c-0.458-0.644-1.202-1.059-2.043-1.059-0 0-0 0-0 0h-3.924c-0.46-0.428-0.98-0.803-1.542-1.108l-0.040-0.020v-5.372c0-0.828-0.672-1.5-1.5-1.5v0h-2c-0.828 0-1.5 0.672-1.5 1.5v0 4.651c-0.392 0.083-0.727 0.182-1.050 0.304l0.050-0.017v-3.938c0-0.828-0.672-1.5-1.5-1.5v0h-2c-0.276 0-0.5 0.224-0.5 0.5s0.224 0.5 0.5 0.5v0h2c0.276 0 0.5 0.224 0.5 0.5v0 4.372c-2.405 1.282-4.015 3.773-4.015 6.641 0 4.142 3.358 7.5 7.5 7.5 3.012 0 5.609-1.775 6.802-4.337l0.019-0.046 3.314 2.784c0.431 0.364 0.994 0.586 1.608 0.586h3.271c0.276 0 0.5-0.224 0.5-0.5s-0.224-0.5-0.5-0.5v0zM22.731 18.635l4.086 5.788c0.115 0.161 0.183 0.361 0.183 0.577 0 0.336-0.166 0.634-0.42 0.815l-0.003 0.002c-0.16 0.108-0.358 0.173-0.57 0.173-0.336 0-0.634-0.161-0.822-0.41l-0.002-0.003-3.783-5.365c-0.092-0.129-0.241-0.212-0.409-0.212-0.001 0-0.002 0-0.003 0h-1.426c-0.275-0.764-0.639-1.426-1.089-2.018l0.013 0.018h3.020c0.504 0 0.95 0.249 1.222 0.63l0.003 0.005zM12 10.5c0-0.276 0.224-0.5 0.5-0.5v0h2c0.276 0 0.5 0.224 0.5 0.5v0 4.938c-0.744-0.276-1.603-0.436-2.499-0.438h-0.001c-0.169 0-0.334 0.014-0.5 0.025zM12.5 29c-3.59 0-6.5-2.91-6.5-6.5s2.91-6.5 6.5-6.5c3.59 0 6.5 2.91 6.5 6.5v0c-0.005 3.588-2.912 6.495-6.5 6.5h-0z"></path>
</svg>
