<svg version="1.1" xmlns="http://www.w3.org/2000/svg" width="32" height="32" viewBox="0 0 32 32">
<title>wifi</title>
<path d="M16 22c-1.105 0-2 0.895-2 2s0.895 2 2 2c1.105 0 2-0.895 2-2v0c0-1.105-0.895-2-2-2v0zM16 25c-0.552 0-1-0.448-1-1s0.448-1 1-1c0.552 0 1 0.448 1 1v0c0 0.552-0.448 1-1 1v0z"></path>
<path d="M16 17c-0.005 0-0.011-0-0.017-0-1.928 0-3.672 0.784-4.932 2.051l-0 0c-0.087 0.090-0.14 0.212-0.14 0.347 0 0.276 0.224 0.5 0.5 0.5 0.135 0 0.258-0.053 0.348-0.14l-0 0c1.086-1.086 2.586-1.757 4.242-1.757s3.157 0.672 4.242 1.757v0c0.090 0.087 0.212 0.14 0.347 0.14 0.276 0 0.5-0.224 0.5-0.5 0-0.135-0.053-0.258-0.14-0.348l0 0c-1.26-1.267-3.004-2.051-4.932-2.051-0.006 0-0.012 0-0.018 0h0.001z"></path>
<path d="M16 11v0c-0.010-0-0.023-0-0.035-0-3.579 0-6.818 1.456-9.157 3.807l-0.001 0.001c-0.087 0.090-0.14 0.212-0.14 0.347 0 0.276 0.224 0.5 0.5 0.5 0.135 0 0.258-0.053 0.348-0.14l-0 0c2.172-2.171 5.171-3.514 8.485-3.514s6.313 1.343 8.485 3.514v0c0.090 0.087 0.212 0.14 0.347 0.14 0.276 0 0.5-0.224 0.5-0.5 0-0.135-0.053-0.258-0.14-0.348l0 0c-2.339-2.352-5.577-3.808-9.156-3.808-0.013 0-0.025 0-0.038 0h0.002z"></path>
<path d="M28.728 11.272c-3.26-3.252-7.759-5.263-12.728-5.263s-9.468 2.011-12.728 5.263l0-0c-0.091 0.091-0.147 0.216-0.147 0.354 0 0.276 0.224 0.5 0.5 0.5 0.138 0 0.263-0.056 0.353-0.146v0c3.079-3.071 7.328-4.971 12.021-4.971s8.942 1.899 12.021 4.971l-0-0c0.090 0.090 0.215 0.146 0.354 0.146s0.263-0.056 0.354-0.146v0c0.091-0.091 0.147-0.216 0.147-0.354s-0.056-0.263-0.147-0.354v0z"></path>
</svg>
