<svg version="1.1" xmlns="http://www.w3.org/2000/svg" width="32" height="32" viewBox="0 0 32 32">
<title>window-pointer</title>
<path d="M27.5 10h-23c-0.276 0-0.5 0.224-0.5 0.5s0.224 0.5 0.5 0.5v0h23c0.276 0 0.5-0.224 0.5-0.5s-0.224-0.5-0.5-0.5v0z"></path>
<path d="M5 8.5c0 0.276-0.224 0.5-0.5 0.5s-0.5-0.224-0.5-0.5c0-0.276 0.224-0.5 0.5-0.5s0.5 0.224 0.5 0.5z"></path>
<path d="M7 8.5c0 0.276-0.224 0.5-0.5 0.5s-0.5-0.224-0.5-0.5c0-0.276 0.224-0.5 0.5-0.5s0.5 0.224 0.5 0.5z"></path>
<path d="M9 8.5c0 0.276-0.224 0.5-0.5 0.5s-0.5-0.224-0.5-0.5c0-0.276 0.224-0.5 0.5-0.5s0.5 0.224 0.5 0.5z"></path>
<path d="M29 6h-26c-0.552 0-1 0.448-1 1v0 18c0 0.552 0.448 1 1 1v0h12.5c0.276 0 0.5-0.224 0.5-0.5s-0.224-0.5-0.5-0.5v0h-12.5v-18h26v8.5c0 0.276 0.224 0.5 0.5 0.5s0.5-0.224 0.5-0.5v0-8.5c0-0.552-0.448-1-1-1v0z"></path>
<path d="M20.824 18.116c-0.087-0.074-0.2-0.119-0.324-0.119-0.276 0-0.5 0.224-0.5 0.5 0 0.001 0 0.002 0 0.003v-0 7.5c0.001 0.276 0.224 0.499 0.5 0.499 0.138 0 0.263-0.056 0.353-0.146v0l2-2.006 2.187 4.377c0.083 0.167 0.253 0.279 0.449 0.279 0.276 0 0.5-0.224 0.5-0.5 0-0.083-0.020-0.161-0.056-0.23l0.001 0.003-2.129-4.276h2.7c0.276-0 0.5-0.224 0.5-0.5 0-0.154-0.070-0.292-0.179-0.383l-0.001-0.001z"></path>
</svg>
