<svg version="1.1" xmlns="http://www.w3.org/2000/svg" width="32" height="32" viewBox="0 0 32 32">
<title>window-restore</title>
<path d="M21.5 22c-0.276 0-0.5 0.224-0.5 0.5v0 2.137c-0.001 0.2-0.163 0.362-0.363 0.363h-17.273c0 0 0 0 0 0-0.201 0-0.363-0.162-0.364-0.363v-8.637h5.5c0.276 0 0.5-0.224 0.5-0.5s-0.224-0.5-0.5-0.5v0h-5.5v-2.637c0.001-0.201 0.163-0.363 0.364-0.363 0 0 0 0 0 0h5.136c0.276 0 0.5-0.224 0.5-0.5s-0.224-0.5-0.5-0.5v0h-5.136c-0.753 0.001-1.363 0.61-1.364 1.363v12.274c0.001 0.753 0.611 1.362 1.364 1.363h17.273c0.753-0.001 1.362-0.61 1.363-1.363v-2.137c0-0.276-0.224-0.5-0.5-0.5v0z"></path>
<path d="M29 6h-18c-0.552 0-1 0.448-1 1v0 13c0 0.552 0.448 1 1 1v0h18c0.552 0 1-0.448 1-1v0-13c0-0.552-0.448-1-1-1v0zM29 7v3h-18v-3zM29 20.5v-0.5h-18v-9h18v9z"></path>
<path d="M13 8.5c0 0.276-0.224 0.5-0.5 0.5s-0.5-0.224-0.5-0.5c0-0.276 0.224-0.5 0.5-0.5s0.5 0.224 0.5 0.5z"></path>
<path d="M15 8.5c0 0.276-0.224 0.5-0.5 0.5s-0.5-0.224-0.5-0.5c0-0.276 0.224-0.5 0.5-0.5s0.5 0.224 0.5 0.5z"></path>
<path d="M17 8.5c0 0.276-0.224 0.5-0.5 0.5s-0.5-0.224-0.5-0.5c0-0.276 0.224-0.5 0.5-0.5s0.5 0.224 0.5 0.5z"></path>
<path d="M5 13.5c0 0.276-0.224 0.5-0.5 0.5s-0.5-0.224-0.5-0.5c0-0.276 0.224-0.5 0.5-0.5s0.5 0.224 0.5 0.5z"></path>
<path d="M7 13.5c0 0.276-0.224 0.5-0.5 0.5s-0.5-0.224-0.5-0.5c0-0.276 0.224-0.5 0.5-0.5s0.5 0.224 0.5 0.5z"></path>
<path d="M9 13.5c0 0.276-0.224 0.5-0.5 0.5s-0.5-0.224-0.5-0.5c0-0.276 0.224-0.5 0.5-0.5s0.5 0.224 0.5 0.5z"></path>
</svg>
