<svg version="1.1" xmlns="http://www.w3.org/2000/svg" width="32" height="32" viewBox="0 0 32 32">
<title>window-edit</title>
<path d="M4.5 11h23c0.276 0 0.5-0.224 0.5-0.5s-0.224-0.5-0.5-0.5v0h-23c-0.276 0-0.5 0.224-0.5 0.5s0.224 0.5 0.5 0.5v0z"></path>
<path d="M5 8.5c0 0.276-0.224 0.5-0.5 0.5s-0.5-0.224-0.5-0.5c0-0.276 0.224-0.5 0.5-0.5s0.5 0.224 0.5 0.5z"></path>
<path d="M7 8.5c0 0.276-0.224 0.5-0.5 0.5s-0.5-0.224-0.5-0.5c0-0.276 0.224-0.5 0.5-0.5s0.5 0.224 0.5 0.5z"></path>
<path d="M9 8.5c0 0.276-0.224 0.5-0.5 0.5s-0.5-0.224-0.5-0.5c0-0.276 0.224-0.5 0.5-0.5s0.5 0.224 0.5 0.5z"></path>
<path d="M15.5 25h-12.5v-18h26v8.5c0 0.276 0.224 0.5 0.5 0.5s0.5-0.224 0.5-0.5v0-8.5c0-0.552-0.448-1-1-1v0h-26c-0.552 0-1 0.448-1 1v0 18c0 0.552 0.448 1 1 1v0h12.5c0.276 0 0.5-0.224 0.5-0.5s-0.224-0.5-0.5-0.5v0z"></path>
<path d="M28.085 17c-0.001 0-0.003 0-0.004 0-0.526 0-1.003 0.214-1.347 0.56l-0 0-7.882 7.882c-0.176 0.175-0.319 0.383-0.419 0.613l-0.005 0.013-1.387 3.232c-0.026 0.059-0.042 0.128-0.042 0.2 0 0.276 0.224 0.5 0.5 0.5 0.001 0 0.001 0 0.002 0h-0c0.001 0 0.003 0 0.004 0 0.071 0 0.138-0.015 0.199-0.042l-0.003 0.001 3.234-1.386c0.244-0.105 0.452-0.248 0.627-0.424l7.882-7.882c0.346-0.346 0.56-0.825 0.56-1.353 0-1.057-0.857-1.914-1.914-1.914-0.002 0-0.004 0-0.006 0h0zM19.17 26.876l0.955 0.955-1.672 0.717zM28.734 19.56l-7.734 7.733-1.292-1.293 7.733-7.733c0.165-0.165 0.394-0.268 0.646-0.268 0.505 0 0.914 0.409 0.914 0.914 0 0.252-0.102 0.481-0.268 0.646v0z"></path>
</svg>
