<svg version="1.1" xmlns="http://www.w3.org/2000/svg" width="32" height="32" viewBox="0 0 32 32">
<title>window-wrench</title>
<path d="M27.5 11h-23c-0.276 0-0.5-0.224-0.5-0.5s0.224-0.5 0.5-0.5v0h23c0.276 0 0.5 0.224 0.5 0.5s-0.224 0.5-0.5 0.5v0z"></path>
<path d="M5 8.5c0 0.276-0.224 0.5-0.5 0.5s-0.5-0.224-0.5-0.5c0-0.276 0.224-0.5 0.5-0.5s0.5 0.224 0.5 0.5z"></path>
<path d="M7 8.5c0 0.276-0.224 0.5-0.5 0.5s-0.5-0.224-0.5-0.5c0-0.276 0.224-0.5 0.5-0.5s0.5 0.224 0.5 0.5z"></path>
<path d="M9 8.5c0 0.276-0.224 0.5-0.5 0.5s-0.5-0.224-0.5-0.5c0-0.276 0.224-0.5 0.5-0.5s0.5 0.224 0.5 0.5z"></path>
<path d="M15.5 26h-12.5c-0.552 0-1-0.448-1-1v0-18c0-0.552 0.448-1 1-1v0h26c0.552 0 1 0.448 1 1v0 8.5c0 0.276-0.224 0.5-0.5 0.5s-0.5-0.224-0.5-0.5v0-8.5h-26v18h12.5c0.276 0 0.5 0.224 0.5 0.5s-0.224 0.5-0.5 0.5v0z"></path>
<path d="M18.923 29c-0.002 0-0.005 0-0.008 0-1.058 0-1.915-0.857-1.915-1.915 0-0.527 0.213-1.005 0.558-1.351l-0 0 4-4.005c0.273-0.27 0.442-0.645 0.442-1.059 0-0 0-0.001 0-0.001v0-1.169c0-1.933 1.567-3.5 3.5-3.5v0h1.1c0.001 0 0.002 0 0.004 0 0.483 0 0.875 0.392 0.875 0.875 0 0.245-0.101 0.466-0.262 0.625l-0 0-1.59 1.589 1.288 1.295 1.6-1.6c0.158-0.155 0.374-0.25 0.612-0.25 0.48 0 0.869 0.387 0.874 0.866v1.1c0 1.933-1.567 3.5-3.5 3.5v0h-1.168c-0.415 0.001-0.79 0.169-1.062 0.44l-4 4c-0.343 0.346-0.818 0.56-1.344 0.56-0.001 0-0.002 0-0.003 0h0zM25.5 17c-1.381 0-2.5 1.119-2.5 2.5v0 1.167c0 0.002 0 0.004 0 0.006 0 0.688-0.28 1.311-0.732 1.762l-4 4c-0.156 0.164-0.252 0.387-0.252 0.632 0 0.506 0.411 0.917 0.917 0.917 0.247 0 0.471-0.098 0.636-0.256l4-4c0.453-0.448 1.076-0.725 1.764-0.728h1.173c1.379-0.003 2.495-1.121 2.495-2.5 0 0 0 0 0 0v0-0.8l-1.386 1.386c-0.179 0.181-0.428 0.293-0.703 0.293-0.001 0-0.002 0-0.004 0h0c-0 0-0.001 0-0.001 0-0.276 0-0.526-0.112-0.706-0.294l-1.289-1.3c-0.181-0.181-0.293-0.431-0.293-0.707s0.112-0.526 0.293-0.707v0l1.38-1.371z"></path>
</svg>
