<svg version="1.1" xmlns="http://www.w3.org/2000/svg" width="32" height="32" viewBox="0 0 32 32">
<title>window-alt-2</title>
<path d="M29.5 6h-27c-0.276 0-0.5 0.224-0.5 0.5v19c0 0.276 0.224 0.5 0.5 0.5h27c0.276 0 0.5-0.224 0.5-0.5v-19c0-0.276-0.224-0.5-0.5-0.5zM29 25h-26v-18h26v18z"></path>
<path d="M4.5 11h23c0.276 0 0.5-0.224 0.5-0.5s-0.224-0.5-0.5-0.5h-23c-0.276 0-0.5 0.224-0.5 0.5s0.224 0.5 0.5 0.5z"></path>
<path d="M5 8.5c0 0.276-0.224 0.5-0.5 0.5s-0.5-0.224-0.5-0.5c0-0.276 0.224-0.5 0.5-0.5s0.5 0.224 0.5 0.5z"></path>
<path d="M7 8.5c0 0.276-0.224 0.5-0.5 0.5s-0.5-0.224-0.5-0.5c0-0.276 0.224-0.5 0.5-0.5s0.5 0.224 0.5 0.5z"></path>
<path d="M9 8.5c0 0.276-0.224 0.5-0.5 0.5s-0.5-0.224-0.5-0.5c0-0.276 0.224-0.5 0.5-0.5s0.5 0.224 0.5 0.5z"></path>
</svg>
