<svg version="1.1" xmlns="http://www.w3.org/2000/svg" width="32" height="32" viewBox="0 0 32 32">
<title>window-bookmark</title>
<path d="M27.5 11h-23c-0.276 0-0.5-0.224-0.5-0.5s0.224-0.5 0.5-0.5v0h23c0.276 0 0.5 0.224 0.5 0.5s-0.224 0.5-0.5 0.5v0z"></path>
<path d="M5 8.5c0 0.276-0.224 0.5-0.5 0.5s-0.5-0.224-0.5-0.5c0-0.276 0.224-0.5 0.5-0.5s0.5 0.224 0.5 0.5z"></path>
<path d="M7 8.5c0 0.276-0.224 0.5-0.5 0.5s-0.5-0.224-0.5-0.5c0-0.276 0.224-0.5 0.5-0.5s0.5 0.224 0.5 0.5z"></path>
<path d="M9 8.5c0 0.276-0.224 0.5-0.5 0.5s-0.5-0.224-0.5-0.5c0-0.276 0.224-0.5 0.5-0.5s0.5 0.224 0.5 0.5z"></path>
<path d="M15.5 26h-12.5c-0.552 0-1-0.448-1-1v0-18c0-0.552 0.448-1 1-1v0h26c0.552 0 1 0.448 1 1v0 8.5c0 0.276-0.224 0.5-0.5 0.5s-0.5-0.224-0.5-0.5v0-8.5h-26v18h12.5c0.276 0 0.5 0.224 0.5 0.5s-0.224 0.5-0.5 0.5v0z"></path>
<path d="M26.5 29c-0 0-0.001 0-0.001 0-0.138 0-0.263-0.056-0.353-0.146v0l-2.646-2.647-2.646 2.647c-0.091 0.091-0.216 0.147-0.354 0.147-0.276 0-0.5-0.224-0.5-0.5 0-0 0-0.001 0-0.001v0-10c0-0.276 0.224-0.5 0.5-0.5v0h6c0.276 0 0.5 0.224 0.5 0.5v0 10c-0 0.207-0.126 0.385-0.306 0.461l-0.003 0.001c-0.056 0.024-0.121 0.038-0.189 0.038-0.001 0-0.001 0-0.002 0h0zM23.5 25c0 0 0.001 0 0.001 0 0.138 0 0.263 0.056 0.353 0.146v0l2.146 2.147v-8.293h-5v8.293l2.146-2.147c0.090-0.090 0.215-0.146 0.353-0.146 0 0 0.001 0 0.001 0h-0z"></path>
</svg>
