<svg version="1.1" xmlns="http://www.w3.org/2000/svg" width="32" height="32" viewBox="0 0 32 32">
<title>window-new</title>
<path d="M4.5 11h23c0.276 0 0.5-0.224 0.5-0.5s-0.224-0.5-0.5-0.5h-23c-0.276 0-0.5 0.224-0.5 0.5s0.224 0.5 0.5 0.5z"></path>
<path d="M5 8.5c0 0.276-0.224 0.5-0.5 0.5s-0.5-0.224-0.5-0.5c0-0.276 0.224-0.5 0.5-0.5s0.5 0.224 0.5 0.5z"></path>
<path d="M7 8.5c0 0.276-0.224 0.5-0.5 0.5s-0.5-0.224-0.5-0.5c0-0.276 0.224-0.5 0.5-0.5s0.5 0.224 0.5 0.5z"></path>
<path d="M9 8.5c0 0.276-0.224 0.5-0.5 0.5s-0.5-0.224-0.5-0.5c0-0.276 0.224-0.5 0.5-0.5s0.5 0.224 0.5 0.5z"></path>
<path d="M29 6h-26c-0.552 0-1 0.448-1 1v18c0 0.552 0.448 1 1 1h12.5c0.276 0 0.5-0.224 0.5-0.5s-0.224-0.5-0.5-0.5h-12.5v-18h26v8.5c0 0.276 0.224 0.5 0.5 0.5s0.5-0.224 0.5-0.5v-8.5c0-0.552-0.448-1-1-1z"></path>
<path d="M28.263 20.75c-0.138-0.239-0.444-0.321-0.683-0.183l-3.58 2.067v-4.134c0-0.276-0.224-0.5-0.5-0.5s-0.5 0.224-0.5 0.5v4.134l-3.58-2.067c-0.238-0.14-0.545-0.060-0.684 0.178-0.14 0.238-0.060 0.545 0.178 0.684 0.002 0.001 0.004 0.002 0.006 0.003l3.58 2.068-3.58 2.067c-0.239 0.138-0.321 0.444-0.183 0.683 0.089 0.155 0.254 0.25 0.433 0.25 0.088 0 0.174-0.023 0.25-0.067l3.58-2.067v4.134c0 0.276 0.224 0.5 0.5 0.5s0.5-0.224 0.5-0.5v-4.134l3.58 2.067c0.239 0.138 0.545 0.056 0.683-0.183s0.056-0.545-0.183-0.683l-3.58-2.067 3.58-2.067c0.239-0.138 0.321-0.444 0.183-0.683z"></path>
</svg>
