<svg version="1.1" xmlns="http://www.w3.org/2000/svg" width="32" height="32" viewBox="0 0 32 32">
<title>window-user</title>
<path d="M4.5 11h23c0.276 0 0.5-0.224 0.5-0.5s-0.224-0.5-0.5-0.5v0h-23c-0.276 0-0.5 0.224-0.5 0.5s0.224 0.5 0.5 0.5v0z"></path>
<path d="M5 8.5c0 0.276-0.224 0.5-0.5 0.5s-0.5-0.224-0.5-0.5c0-0.276 0.224-0.5 0.5-0.5s0.5 0.224 0.5 0.5z"></path>
<path d="M7 8.5c0 0.276-0.224 0.5-0.5 0.5s-0.5-0.224-0.5-0.5c0-0.276 0.224-0.5 0.5-0.5s0.5 0.224 0.5 0.5z"></path>
<path d="M9 8.5c0 0.276-0.224 0.5-0.5 0.5s-0.5-0.224-0.5-0.5c0-0.276 0.224-0.5 0.5-0.5s0.5 0.224 0.5 0.5z"></path>
<path d="M29 6h-26c-0.552 0-1 0.448-1 1v0 18c0 0.552 0.448 1 1 1v0h12.5c0.276 0 0.5-0.224 0.5-0.5s-0.224-0.5-0.5-0.5v0h-12.5v-18h26v8.5c0 0.276 0.224 0.5 0.5 0.5s0.5-0.224 0.5-0.5v0-8.5c0-0.552-0.448-1-1-1v0z"></path>
<path d="M29.117 25.639l-2.075-1.4c0.597-0.757 0.958-1.724 0.958-2.776 0-2.485-2.015-4.5-4.5-4.5s-4.5 2.015-4.5 4.5c0 1.052 0.361 2.019 0.965 2.785l-0.007-0.010-2.075 1.4c-0.536 0.364-0.883 0.971-0.883 1.659 0 0.001 0 0.001 0 0.002v-0 2.2c0 0.276 0.224 0.5 0.5 0.5s0.5-0.224 0.5-0.5v0-2.2c0-0 0-0.001 0-0.001 0-0.344 0.173-0.647 0.438-0.827l0.003-0.002 2.229-1.5c0.759 0.641 1.749 1.031 2.83 1.031s2.071-0.39 2.837-1.036l-0.007 0.005 2.229 1.5c0.268 0.182 0.441 0.485 0.441 0.829 0 0 0 0.001 0 0.001v-0 2.2c0 0.276 0.224 0.5 0.5 0.5s0.5-0.224 0.5-0.5v0-2.2c0-0.001 0-0.001 0-0.002 0-0.688-0.347-1.295-0.876-1.655l-0.007-0.004zM20 21.5c0-1.933 1.567-3.5 3.5-3.5s3.5 1.567 3.5 3.5v0 0c0 1.933-1.567 3.5-3.5 3.5s-3.5-1.567-3.5-3.5v0z"></path>
</svg>
