<svg version="1.1" xmlns="http://www.w3.org/2000/svg" width="32" height="32" viewBox="0 0 32 32">
<title>window-ban</title>
<path d="M4.5 11h23c0.276 0 0.5-0.224 0.5-0.5s-0.224-0.5-0.5-0.5v0h-23c-0.276 0-0.5 0.224-0.5 0.5s0.224 0.5 0.5 0.5v0z"></path>
<path d="M5 8.5c0 0.276-0.224 0.5-0.5 0.5s-0.5-0.224-0.5-0.5c0-0.276 0.224-0.5 0.5-0.5s0.5 0.224 0.5 0.5z"></path>
<path d="M7 8.5c0 0.276-0.224 0.5-0.5 0.5s-0.5-0.224-0.5-0.5c0-0.276 0.224-0.5 0.5-0.5s0.5 0.224 0.5 0.5z"></path>
<path d="M9 8.5c0 0.276-0.224 0.5-0.5 0.5s-0.5-0.224-0.5-0.5c0-0.276 0.224-0.5 0.5-0.5s0.5 0.224 0.5 0.5z"></path>
<path d="M29 6h-26c-0.552 0.001-0.999 0.448-1 1v18c0.001 0.552 0.448 0.999 1 1h12.5c0.276 0 0.5-0.224 0.5-0.5s-0.224-0.5-0.5-0.5v0h-12.5v-18h26v8.5c0 0.276 0.224 0.5 0.5 0.5s0.5-0.224 0.5-0.5v0-8.5c-0-0.552-0.448-1-1-1h-0z"></path>
<path d="M27.389 19.611l-0.014-0.009c-0.993-0.985-2.361-1.594-3.87-1.594-3.036 0-5.497 2.461-5.497 5.497 0 1.51 0.609 2.878 1.595 3.871l-0-0 0.009 0.014 0.014 0.009c0.993 0.985 2.361 1.594 3.87 1.594 3.036 0 5.497-2.461 5.497-5.497 0-1.51-0.609-2.878-1.595-3.871l0 0zM19 23.5c0.003-2.484 2.016-4.497 4.5-4.5h0c1.063 0.005 2.038 0.381 2.801 1.006l-0.008-0.006-6.293 6.294c-0.619-0.755-0.995-1.73-1-2.792v-0.001zM23.5 28c-1.063-0.005-2.038-0.381-2.801-1.006l0.008 0.006 6.293-6.294c0.619 0.755 0.995 1.73 1 2.792v0.001c-0.003 2.484-2.016 4.497-4.5 4.5h-0z"></path>
</svg>
