<svg version="1.1" xmlns="http://www.w3.org/2000/svg" width="32" height="32" viewBox="0 0 32 32">
<title>window-check</title>
<path d="M4.5 11h23c0.276 0 0.5-0.224 0.5-0.5s-0.224-0.5-0.5-0.5v0h-23c-0.276 0-0.5 0.224-0.5 0.5s0.224 0.5 0.5 0.5v0z"></path>
<path d="M5 8.5c0 0.276-0.224 0.5-0.5 0.5s-0.5-0.224-0.5-0.5c0-0.276 0.224-0.5 0.5-0.5s0.5 0.224 0.5 0.5z"></path>
<path d="M7 8.5c0 0.276-0.224 0.5-0.5 0.5s-0.5-0.224-0.5-0.5c0-0.276 0.224-0.5 0.5-0.5s0.5 0.224 0.5 0.5z"></path>
<path d="M9 8.5c0 0.276-0.224 0.5-0.5 0.5s-0.5-0.224-0.5-0.5c0-0.276 0.224-0.5 0.5-0.5s0.5 0.224 0.5 0.5z"></path>
<path d="M29 6h-26c-0.552 0-1 0.448-1 1v0 18c0 0.552 0.448 1 1 1v0h12.5c0.276 0 0.5-0.224 0.5-0.5s-0.224-0.5-0.5-0.5v0h-12.5v-18h26v8.5c0 0.276 0.224 0.5 0.5 0.5s0.5-0.224 0.5-0.5v0-8.5c0-0.552-0.448-1-1-1v0z"></path>
<path d="M29.146 20.146l-7.146 7.147-3.146-3.147c-0.091-0.091-0.216-0.147-0.354-0.147-0.276 0-0.501 0.224-0.501 0.501 0 0.138 0.056 0.263 0.147 0.354l3.5 3.5c0.091 0.091 0.216 0.147 0.354 0.147s0.263-0.056 0.354-0.147v0l7.5-7.5c0.091-0.091 0.147-0.216 0.147-0.354 0-0.276-0.224-0.501-0.501-0.501-0.138 0-0.263 0.056-0.354 0.147v0z"></path>
</svg>
