<svg version="1.1" xmlns="http://www.w3.org/2000/svg" width="32" height="32" viewBox="0 0 32 32">
<title>wizard</title>
<path d="M27.5 7c-0 0-0 0-0 0-1.204 0-2.209 0.851-2.447 1.984l-0.003 0.016h-6.1c-0.24-1.151-1.245-2.002-2.45-2.002s-2.21 0.852-2.447 1.986l-0.003 0.016h-5.086c-0.253-1.706-1.707-3-3.464-3-1.933 0-3.5 1.567-3.5 3.5s1.567 3.5 3.5 3.5c1.757 0 3.211-1.294 3.462-2.981l0.002-0.019h5.086c0.24 1.151 1.245 2.002 2.45 2.002s2.21-0.852 2.447-1.986l0.003-0.016h6.1c0.241 1.149 1.246 2 2.45 2 1.381 0 2.5-1.119 2.5-2.5s-1.119-2.5-2.499-2.5h-0zM5.5 12c-1.381 0-2.5-1.119-2.5-2.5s1.119-2.5 2.5-2.5c1.381 0 2.5 1.119 2.5 2.5v0c0 1.381-1.119 2.5-2.5 2.5v0zM16.5 11c-0.828 0-1.5-0.672-1.5-1.5s0.672-1.5 1.5-1.5c0.828 0 1.5 0.672 1.5 1.5v0c0 0.828-0.672 1.5-1.5 1.5v0zM27.5 11c-0.828 0-1.5-0.672-1.5-1.5s0.672-1.5 1.5-1.5c0.828 0 1.5 0.672 1.5 1.5v0c0 0.828-0.672 1.5-1.5 1.5v0z"></path>
<path d="M25.5 21h-19c-0.276 0-0.5 0.224-0.5 0.5s0.224 0.5 0.5 0.5v0h19c0.276 0 0.5-0.224 0.5-0.5s-0.224-0.5-0.5-0.5v0z"></path>
<path d="M25.5 17h-19c-0.276 0-0.5 0.224-0.5 0.5s0.224 0.5 0.5 0.5v0h19c0.276 0 0.5-0.224 0.5-0.5s-0.224-0.5-0.5-0.5v0z"></path>
<path d="M25.5 25h-19c-0.276 0-0.5 0.224-0.5 0.5s0.224 0.5 0.5 0.5v0h19c0.276 0 0.5-0.224 0.5-0.5s-0.224-0.5-0.5-0.5v0z"></path>
</svg>
