<svg version="1.1" xmlns="http://www.w3.org/2000/svg" width="32" height="32" viewBox="0 0 32 32">
<title>won</title>
<path d="M22.5 16c0.276 0 0.5-0.224 0.5-0.5s-0.224-0.5-0.5-0.5h-1.437l0.919-3.368c0.072-0.266-0.084-0.541-0.351-0.614-0.268-0.073-0.542 0.084-0.614 0.351l-0.99 3.631h-2.219l-0.821-3.611c-0.051-0.227-0.254-0.389-0.487-0.389s-0.436 0.162-0.487 0.389l-0.821 3.611h-2.219l-0.99-3.632c-0.073-0.266-0.348-0.424-0.614-0.351s-0.423 0.347-0.351 0.614l0.919 3.369h-1.437c-0.276 0-0.5 0.224-0.5 0.5s0.224 0.5 0.5 0.5h1.709l0.272 1h-1.981c-0.276 0-0.5 0.224-0.5 0.5s0.224 0.5 0.5 0.5h2.254l0.991 3.632c0.061 0.221 0.245 0.374 0.493 0.368 0.229-0.005 0.426-0.165 0.477-0.389l0.821-3.611h1.929l0.821 3.611c0.051 0.224 0.248 0.384 0.477 0.389 0.004 0 0.008 0 0.011 0 0.226 0 0.423-0.151 0.482-0.368l0.99-3.632h2.254c0.276 0 0.5-0.224 0.5-0.5s-0.224-0.5-0.5-0.5h-1.981l0.272-1h1.709zM16.5 13.756l0.283 1.244h-0.565l0.282-1.244zM13.246 16h1.719l-0.227 1h-1.219l-0.273-1zM14.183 19.438l-0.392-1.438h0.719l-0.327 1.438zM15.763 17l0.228-1h1.020l0.228 1h-1.476zM18.817 19.438l-0.327-1.438h0.719l-0.392 1.438zM19.482 17h-1.219l-0.227-1h1.719l-0.273 1z"></path>
<path d="M16.5 5c-6.341 0-11.5 5.159-11.5 11.5s5.159 11.5 11.5 11.5 11.5-5.159 11.5-11.5-5.159-11.5-11.5-11.5zM16.5 27c-5.79 0-10.5-4.71-10.5-10.5s4.71-10.5 10.5-10.5 10.5 4.71 10.5 10.5-4.71 10.5-10.5 10.5z"></path>
</svg>
