<svg id="Layer_1" data-name="Layer 1" xmlns="http://www.w3.org/2000/svg" width="32" height="32" viewBox="0 0 32 32"><path d="M17.5,11h11a.5.5,0,0,0,.5-.5v-8a.5.5,0,0,0-.5-.5h-11a.5.5,0,0,0-.5.5V6H8.5a.5.5,0,0,0-.5.5V9.793L2.146,15.646a.5.5,0,0,0,0,.708L8,22.207V25.5a.5.5,0,0,0,.5.5H17v3.5a.5.5,0,0,0,.5.5h11a.5.5,0,0,0,.5-.5v-8a.5.5,0,0,0-.5-.5h-11a.5.5,0,0,0-.5.5V25H9V22.207l5.854-5.853a.5.5,0,0,0,0-.708L9,9.793V7h8v3.5A.5.5,0,0,0,17.5,11ZM18,22H28v7H18Zm-9.5-.707L3.207,16,8.5,10.707,13.793,16ZM18,3H28v7H18Z"/></svg>