<svg version="1.1" xmlns="http://www.w3.org/2000/svg" width="32" height="32" viewBox="0 0 32 32">
<title>wrench</title>
<path d="M4.003 25.378c0 1.446 1.176 2.622 2.62 2.622 0.701 0 1.359-0.272 1.854-0.768l10.953-10.952c0.356-0.356 0.878-0.498 1.424-0.392 0.869 0.169 1.758 0.145 2.645-0.073 2.13-0.524 3.831-2.237 4.333-4.362 0.298-1.261 0.2-2.549-0.282-3.726-0.063-0.155-0.2-0.268-0.364-0.301-0.166-0.034-0.334 0.018-0.452 0.137l-2.876 2.876c-0.195 0.195-0.512 0.195-0.707 0l-1.586-1.586c-0.195-0.195-0.195-0.512 0-0.707l2.876-2.876c0.118-0.118 0.17-0.288 0.137-0.452s-0.146-0.301-0.301-0.364c-1.173-0.481-2.461-0.583-3.719-0.284-2.125 0.501-3.839 2.199-4.367 4.328-0.221 0.885-0.246 1.777-0.076 2.651 0.106 0.541-0.039 1.072-0.391 1.424l-10.953 10.952c-0.489 0.488-0.768 1.163-0.768 1.853zM5.003 25.38c0-0.428 0.173-0.846 0.475-1.147l10.952-10.953c0.587-0.587 0.836-1.456 0.665-2.323-0.142-0.729-0.12-1.475 0.065-2.218 0.438-1.77 1.861-3.181 3.625-3.597 0.796-0.186 1.602-0.186 2.37-0.002l-2.299 2.299c-0.585 0.585-0.585 1.536 0 2.121l1.586 1.586c0.584 0.584 1.537 0.584 2.121 0l2.299-2.299c0.185 0.771 0.184 1.579-0.004 2.375-0.417 1.765-1.83 3.186-3.6 3.622-0.745 0.183-1.487 0.204-2.213 0.063-0.18-0.036-0.359-0.053-0.537-0.053-0.679 0-1.32 0.252-1.786 0.718l-10.951 10.953c-0.306 0.306-0.713 0.475-1.146 0.475-0.894 0-1.622-0.727-1.622-1.62z"></path>
<path d="M8.003 24.5c0 0.276-0.224 0.5-0.5 0.5s-0.5-0.224-0.5-0.5c0-0.276 0.224-0.5 0.5-0.5s0.5 0.224 0.5 0.5z"></path>
</svg>
