<svg version="1.1" xmlns="http://www.w3.org/2000/svg" width="32" height="32" viewBox="0 0 32 32">
<title>x-axis</title>
<path d="M11.688 20.891c0.084 0.067 0.193 0.108 0.31 0.108 0.157 0 0.297-0.073 0.389-0.186l3.613-4.513 3.609 4.511c0.092 0.115 0.233 0.188 0.391 0.188 0.276 0 0.5-0.224 0.5-0.5 0-0.118-0.041-0.227-0.11-0.313l0.001 0.001-3.75-4.687 3.75-4.688c0.068-0.085 0.109-0.194 0.109-0.312 0-0.276-0.224-0.5-0.5-0.5-0.158 0-0.299 0.073-0.39 0.187l-0.001 0.001-3.609 4.512-3.609-4.511c-0.092-0.115-0.233-0.188-0.391-0.188-0.276 0-0.5 0.224-0.5 0.5 0 0.118 0.041 0.227 0.11 0.313l-0.001-0.001 3.75 4.688-3.75 4.688c-0.068 0.085-0.109 0.193-0.109 0.311 0 0.158 0.073 0.298 0.187 0.39l0.001 0.001z"></path>
<path d="M27.5 23c-0.276 0-0.5 0.224-0.5 0.5v0 1.5h-22v-1.5c0-0.276-0.224-0.5-0.5-0.5s-0.5 0.224-0.5 0.5v0 2c0 0.276 0.224 0.5 0.5 0.5v0h23c0.276 0 0.5-0.224 0.5-0.5v0-2c0-0.276-0.224-0.5-0.5-0.5v0z"></path>
</svg>
