<svg id="Layer_1" data-name="Layer 1" xmlns="http://www.w3.org/2000/svg" width="32" height="32" viewBox="0 0 32 32"><path d="M26,12H23.961a3.526,3.526,0,0,0-2.206-2.785l-2.139-.822A4.917,4.917,0,0,0,20,6.5,4.277,4.277,0,0,0,16,2a4.277,4.277,0,0,0-4,4.5,4.917,4.917,0,0,0,.384,1.893l-2.139.822A3.526,3.526,0,0,0,8.039,12H6a2,2,0,0,0-2,2V29.5a.5.5,0,0,0,1,0V14a1,1,0,0,1,1-1H26a1,1,0,0,1,1,1V29.5a.5.5,0,0,0,1,0V14A2,2,0,0,0,26,12ZM16,3a3.283,3.283,0,0,1,3,3.5A3.283,3.283,0,0,1,16,10a3.283,3.283,0,0,1-3-3.5A3.283,3.283,0,0,1,16,3Zm-5.4,7.148,2.273-.873A3.84,3.84,0,0,0,16,11a3.84,3.84,0,0,0,3.124-1.725l2.273.873A2.519,2.519,0,0,1,22.943,12H9.057A2.519,2.519,0,0,1,10.6,10.148Z"/><path d="M19.618,22a2.3,2.3,0,0,0-2.065,1.276,1.3,1.3,0,0,1-1.053.708V20.043a9.581,9.581,0,0,1,3.778.905A.5.5,0,0,0,20.5,21a.5.5,0,0,0,.222-.948A10.6,10.6,0,0,0,16.5,19.046v-2a9.581,9.581,0,0,1,3.778.905A.5.5,0,0,0,20.5,18a.5.5,0,0,0,.222-.948A10.6,10.6,0,0,0,16.5,16.046V14.5a.5.5,0,0,0-1,0v1.546a10.6,10.6,0,0,0-4.222,1.006.5.5,0,0,0,.444.9,9.581,9.581,0,0,1,3.778-.905v2a10.6,10.6,0,0,0-4.222,1.006.5.5,0,0,0,.444.9,9.581,9.581,0,0,1,3.778-.905v3.941a1.3,1.3,0,0,1-1.053-.708A2.3,2.3,0,0,0,12.382,22,2.384,2.384,0,0,0,10,24.382v1a2.616,2.616,0,0,0,2,2.536V29.5a.5.5,0,0,0,1,0V28h6v1.5a.5.5,0,0,0,1,0V27.918a2.616,2.616,0,0,0,2-2.536v-1A2.384,2.384,0,0,0,19.618,22ZM21,25.382A1.62,1.62,0,0,1,19.382,27H12.618A1.62,1.62,0,0,1,11,25.382v-1A1.384,1.384,0,0,1,12.382,23a1.3,1.3,0,0,1,1.171.724A2.3,2.3,0,0,0,15.618,25h.764a2.3,2.3,0,0,0,2.065-1.276A1.3,1.3,0,0,1,19.618,23,1.384,1.384,0,0,1,21,24.382Z"/></svg>