<svg version="1.1" xmlns="http://www.w3.org/2000/svg" width="32" height="32" viewBox="0 0 32 32">
<title>y-axis</title>
<path d="M6.5 5c0.276 0 0.5-0.224 0.5-0.5s-0.224-0.5-0.5-0.5v0h-2c-0.276 0-0.5 0.224-0.5 0.5v0 23c0 0.276 0.224 0.5 0.5 0.5v0h2c0.276 0 0.5-0.224 0.5-0.5s-0.224-0.5-0.5-0.5v0h-1.5v-22z"></path>
<path d="M20.777 10.084c-0.078-0.052-0.174-0.084-0.277-0.084-0.173 0-0.325 0.088-0.415 0.221l-0.001 0.002-3.584 5.377-3.584-5.376c-0.090-0.142-0.246-0.235-0.424-0.235-0.276 0-0.5 0.224-0.5 0.5 0 0.108 0.034 0.209 0.093 0.291l-0.001-0.002 3.916 5.873v3.849c0 0.276 0.224 0.5 0.5 0.5s0.5-0.224 0.5-0.5v0-3.849l3.916-5.874c0.052-0.078 0.084-0.174 0.084-0.277 0-0.173-0.088-0.325-0.221-0.415l-0.002-0.001z"></path>
</svg>
