<svg version="1.1" xmlns="http://www.w3.org/2000/svg" width="32" height="32" viewBox="0 0 32 32">
<title>y1-axis</title>
<path d="M6.5 5c0.276 0 0.5-0.224 0.5-0.5s-0.224-0.5-0.5-0.5v0h-2c-0.276 0-0.5 0.224-0.5 0.5v0 23c0 0.276 0.224 0.5 0.5 0.5v0h2c0.276 0 0.5-0.224 0.5-0.5s-0.224-0.5-0.5-0.5v0h-1.5v-22z"></path>
<path d="M20.084 10.223l-3.584 5.377-3.584-5.376c-0.090-0.142-0.246-0.235-0.424-0.235-0.276 0-0.5 0.224-0.5 0.5 0 0.108 0.034 0.209 0.093 0.291l-0.001-0.002 3.916 5.873v3.849c0 0.276 0.224 0.5 0.5 0.5s0.5-0.224 0.5-0.5v0-3.849l3.916-5.874c0.058-0.080 0.092-0.181 0.092-0.289 0-0.276-0.224-0.5-0.5-0.5-0.178 0-0.334 0.093-0.423 0.233l-0.001 0.002z"></path>
<path d="M24.763 21.074c-0.075-0.047-0.165-0.074-0.262-0.074-0.082 0-0.159 0.020-0.227 0.055l0.003-0.001-2 1c-0.163 0.085-0.273 0.252-0.273 0.445 0 0.276 0.224 0.5 0.5 0.5 0.080 0 0.156-0.019 0.223-0.053l-0.003 0.001 1.276-0.638v5.191c0 0.276 0.224 0.5 0.5 0.5s0.5-0.224 0.5-0.5v0-6c0-0 0-0 0-0.001 0-0.179-0.094-0.336-0.235-0.424l-0.002-0.001z"></path>
</svg>
