<svg version="1.1" xmlns="http://www.w3.org/2000/svg" width="32" height="32" viewBox="0 0 32 32">
<title>y2-axis</title>
<path d="M6.5 5c0.276 0 0.5-0.224 0.5-0.5s-0.224-0.5-0.5-0.5v0h-2c-0.276 0-0.5 0.224-0.5 0.5v0 23c0 0.276 0.224 0.5 0.5 0.5v0h2c0.276 0 0.5-0.224 0.5-0.5s-0.224-0.5-0.5-0.5v0h-1.5v-22z"></path>
<path d="M25.5 27h-2.429c0.264-0.574 0.688-1.037 1.215-1.342l0.014-0.008c0.966-0.524 1.628-1.502 1.7-2.641l0-0.009c0-1.105-0.895-2-2-2s-2 0.895-2 2v0c0 0.276 0.224 0.5 0.5 0.5s0.5-0.224 0.5-0.5v0c0-0.552 0.448-1 1-1s1 0.448 1 1v0c0 0.833-0.494 1.245-1.3 1.85-0.966 0.524-1.628 1.502-1.7 2.641l-0 0.009c0 0.276 0.224 0.5 0.5 0.5v0h3c0.276 0 0.5-0.224 0.5-0.5s-0.224-0.5-0.5-0.5v0z"></path>
<path d="M20.084 10.223l-3.584 5.377-3.584-5.376c-0.090-0.142-0.246-0.235-0.424-0.235-0.276 0-0.5 0.224-0.5 0.5 0 0.108 0.034 0.209 0.093 0.291l-0.001-0.002 3.916 5.873v3.849c0 0.276 0.224 0.5 0.5 0.5s0.5-0.224 0.5-0.5v0-3.849l3.916-5.874c0.058-0.080 0.092-0.181 0.092-0.289 0-0.276-0.224-0.5-0.5-0.5-0.178 0-0.334 0.093-0.423 0.233l-0.001 0.002z"></path>
</svg>
