<svg version="1.1" xmlns="http://www.w3.org/2000/svg" width="32" height="32" viewBox="0 0 32 32">
<title>yen</title>
<path d="M16.5 5c-6.341 0-11.5 5.159-11.5 11.5s5.159 11.5 11.5 11.5 11.5-5.159 11.5-11.5-5.159-11.5-11.5-11.5zM16.5 27c-5.79 0-10.5-4.71-10.5-10.5s4.71-10.5 10.5-10.5 10.5 4.71 10.5 10.5-4.71 10.5-10.5 10.5z"></path>
<path d="M19.5 17c0.276 0 0.5-0.224 0.5-0.5s-0.224-0.5-0.5-0.5h-2.117l2.546-4.243c0.142-0.237 0.065-0.544-0.171-0.686s-0.544-0.065-0.686 0.172l-2.572 4.285-2.571-4.285c-0.143-0.237-0.449-0.313-0.686-0.172s-0.313 0.449-0.171 0.686l2.545 4.243h-2.117c-0.276 0-0.5 0.224-0.5 0.5s0.224 0.5 0.5 0.5h2.5v1h-2.5c-0.276 0-0.5 0.224-0.5 0.5s0.224 0.5 0.5 0.5h2.5v2.5c0 0.276 0.224 0.5 0.5 0.5s0.5-0.224 0.5-0.5v-2.5h2.5c0.276 0 0.5-0.224 0.5-0.5s-0.224-0.5-0.5-0.5h-2.5v-1h2.5z"></path>
</svg>
